{
  "header": {
    "keySignatures": [
      {
        "key": "Eb",
        "scale": "major",
        "ticks": 0
      },
      {
        "key": "E",
        "scale": "major",
        "ticks": 17280
      },
      {
        "key": "Eb",
        "scale": "major",
        "ticks": 0
      },
      {
        "key": "E",
        "scale": "major",
        "ticks": 17280
      },
      {
        "key": "Eb",
        "scale": "major",
        "ticks": 0
      },
      {
        "key": "E",
        "scale": "major",
        "ticks": 17280
      },
      {
        "key": "Eb",
        "scale": "major",
        "ticks": 0
      },
      {
        "key": "E",
        "scale": "major",
        "ticks": 17280
      },
      {
        "key": "Eb",
        "scale": "major",
        "ticks": 0
      },
      {
        "key": "E",
        "scale": "major",
        "ticks": 17280
      },
      {
        "key": "Eb",
        "scale": "major",
        "ticks": 0
      },
      {
        "key": "E",
        "scale": "major",
        "ticks": 17280
      },
      {
        "key": "Eb",
        "scale": "major",
        "ticks": 0
      },
      {
        "key": "E",
        "scale": "major",
        "ticks": 17280
      },
      {
        "key": "Eb",
        "scale": "major",
        "ticks": 0
      },
      {
        "key": "E",
        "scale": "major",
        "ticks": 17280
      },
      {
        "key": "Eb",
        "scale": "major",
        "ticks": 0
      },
      {
        "key": "E",
        "scale": "major",
        "ticks": 17280
      },
      {
        "key": "Eb",
        "scale": "major",
        "ticks": 0
      },
      {
        "key": "E",
        "scale": "major",
        "ticks": 17280
      },
      {
        "key": "Eb",
        "scale": "major",
        "ticks": 0
      },
      {
        "key": "E",
        "scale": "major",
        "ticks": 17280
      },
      {
        "key": "Eb",
        "scale": "major",
        "ticks": 0
      },
      {
        "key": "E",
        "scale": "major",
        "ticks": 17280
      }
    ],
    "meta": [],
    "name": "ÏÂÉ½ - Òª²»ÒªÂò²Ë",
    "ppq": 96,
    "tempos": [
      {
        "bpm": 82.00003553334874,
        "ticks": 0
      }
    ],
    "timeSignatures": [
      {
        "ticks": 0,
        "timeSignature": [
          4,
          4
        ],
        "measures": 0
      },
      {
        "ticks": 0,
        "timeSignature": [
          2,
          4
        ],
        "measures": 0
      }
    ]
  },
  "tracks": [
    {
      "channel": 0,
      "controlChanges": {
        "6": [
          {
            "number": 6,
            "ticks": 0,
            "time": 0,
            "value": 0.09448818897637795
          },
          {
            "number": 6,
            "ticks": 0,
            "time": 0,
            "value": 0.09448818897637795
          },
          {
            "number": 6,
            "ticks": 22752,
            "time": 173.414559,
            "value": 0.09448818897637795
          },
          {
            "number": 6,
            "ticks": 22753,
            "time": 173.42218094791667,
            "value": 0.09448818897637795
          },
          {
            "number": 6,
            "ticks": 22753,
            "time": 173.42218094791667,
            "value": 0.09448818897637795
          }
        ],
        "7": [
          {
            "number": 7,
            "ticks": 0,
            "time": 0,
            "value": 0.7874015748031497
          },
          {
            "number": 7,
            "ticks": 0,
            "time": 0,
            "value": 0.7874015748031497
          },
          {
            "number": 7,
            "ticks": 0,
            "time": 0,
            "value": 0.7874015748031497
          },
          {
            "number": 7,
            "ticks": 0,
            "time": 0,
            "value": 0.7874015748031497
          },
          {
            "number": 7,
            "ticks": 0,
            "time": 0,
            "value": 0.7874015748031497
          },
          {
            "number": 7,
            "ticks": 22752,
            "time": 173.414559,
            "value": 0.7874015748031497
          },
          {
            "number": 7,
            "ticks": 22753,
            "time": 173.42218094791667,
            "value": 0.7874015748031497
          },
          {
            "number": 7,
            "ticks": 22753,
            "time": 173.42218094791667,
            "value": 0.7874015748031497
          }
        ],
        "10": [
          {
            "number": 10,
            "ticks": 0,
            "time": 0,
            "value": 0.5039370078740157
          },
          {
            "number": 10,
            "ticks": 0,
            "time": 0,
            "value": 0.5039370078740157
          },
          {
            "number": 10,
            "ticks": 0,
            "time": 0,
            "value": 0.5039370078740157
          },
          {
            "number": 10,
            "ticks": 0,
            "time": 0,
            "value": 0.5039370078740157
          },
          {
            "number": 10,
            "ticks": 0,
            "time": 0,
            "value": 0.5039370078740157
          },
          {
            "number": 10,
            "ticks": 22752,
            "time": 173.414559,
            "value": 0.5039370078740157
          },
          {
            "number": 10,
            "ticks": 22753,
            "time": 173.42218094791667,
            "value": 0.5039370078740157
          },
          {
            "number": 10,
            "ticks": 22753,
            "time": 173.42218094791667,
            "value": 0.5039370078740157
          }
        ],
        "100": [
          {
            "number": 100,
            "ticks": 0,
            "time": 0,
            "value": 0
          },
          {
            "number": 100,
            "ticks": 0,
            "time": 0,
            "value": 0
          },
          {
            "number": 100,
            "ticks": 22752,
            "time": 173.414559,
            "value": 0
          },
          {
            "number": 100,
            "ticks": 22753,
            "time": 173.42218094791667,
            "value": 0
          },
          {
            "number": 100,
            "ticks": 22753,
            "time": 173.42218094791667,
            "value": 0
          }
        ],
        "101": [
          {
            "number": 101,
            "ticks": 0,
            "time": 0,
            "value": 0
          },
          {
            "number": 101,
            "ticks": 0,
            "time": 0,
            "value": 0
          },
          {
            "number": 101,
            "ticks": 22752,
            "time": 173.414559,
            "value": 0
          },
          {
            "number": 101,
            "ticks": 22753,
            "time": 173.42218094791667,
            "value": 0
          },
          {
            "number": 101,
            "ticks": 22753,
            "time": 173.42218094791667,
            "value": 0
          }
        ]
      },
      "pitchBends": [
        {
          "ticks": 0,
          "time": 0,
          "value": 0
        },
        {
          "ticks": 0,
          "time": 0,
          "value": 0
        },
        {
          "ticks": 0,
          "time": 0,
          "value": 0
        },
        {
          "ticks": 0,
          "time": 0,
          "value": 0
        },
        {
          "ticks": 0,
          "time": 0,
          "value": 0
        },
        {
          "ticks": 22752,
          "time": 173.414559,
          "value": 0
        },
        {
          "ticks": 22753,
          "time": 173.42218094791667,
          "value": 0
        },
        {
          "ticks": 22753,
          "time": 173.42218094791667,
          "value": 0
        }
      ],
      "instrument": {
        "family": "piano",
        "name": "acoustic grand piano",
        "number": 0
      },
      "name": "Piano",
      "notes": [
        {
          "duration": 0.18292675000000003,
          "durationTicks": 24,
          "midi": 80,
          "name": "G#5",
          "ticks": 288,
          "time": 2.195121,
          "velocity": 0.5590551181102362
        },
        {
          "duration": 0.18292675000000003,
          "durationTicks": 24,
          "midi": 82,
          "name": "A#5",
          "ticks": 312,
          "time": 2.37804775,
          "velocity": 0.5590551181102362
        },
        {
          "duration": 0.18292675000000003,
          "durationTicks": 24,
          "midi": 83,
          "name": "B5",
          "ticks": 336,
          "time": 2.5609745,
          "velocity": 0.5590551181102362
        },
        {
          "duration": 0.18292675000000003,
          "durationTicks": 24,
          "midi": 85,
          "name": "C#6",
          "ticks": 360,
          "time": 2.74390125,
          "velocity": 0.5590551181102362
        },
        {
          "duration": 0.5487802500000001,
          "durationTicks": 72,
          "midi": 87,
          "name": "D#6",
          "ticks": 384,
          "time": 2.926828,
          "velocity": 0.5590551181102362
        },
        {
          "duration": 0.18292675000000003,
          "durationTicks": 24,
          "midi": 80,
          "name": "G#5",
          "ticks": 456,
          "time": 3.47560825,
          "velocity": 0.5590551181102362
        },
        {
          "duration": 0.36585350000000005,
          "durationTicks": 48,
          "midi": 80,
          "name": "G#5",
          "ticks": 528,
          "time": 4.0243885,
          "velocity": 0.5590551181102362
        },
        {
          "duration": 0.5487802500000001,
          "durationTicks": 72,
          "midi": 83,
          "name": "B5",
          "ticks": 576,
          "time": 4.390242,
          "velocity": 0.5590551181102362
        },
        {
          "duration": 0.18292675000000003,
          "durationTicks": 24,
          "midi": 76,
          "name": "E5",
          "ticks": 648,
          "time": 4.93902225,
          "velocity": 0.5590551181102362
        },
        {
          "duration": 0.36585350000000005,
          "durationTicks": 48,
          "midi": 76,
          "name": "E5",
          "ticks": 720,
          "time": 5.4878025,
          "velocity": 0.5590551181102362
        },
        {
          "duration": 0.5487802500000001,
          "durationTicks": 72,
          "midi": 85,
          "name": "C#6",
          "ticks": 768,
          "time": 5.853656,
          "velocity": 0.5590551181102362
        },
        {
          "duration": 0.18292675000000003,
          "durationTicks": 24,
          "midi": 90,
          "name": "F#6",
          "ticks": 840,
          "time": 6.40243625,
          "velocity": 0.5590551181102362
        },
        {
          "duration": 0.36585350000000005,
          "durationTicks": 48,
          "midi": 85,
          "name": "C#6",
          "ticks": 912,
          "time": 6.9512165,
          "velocity": 0.5590551181102362
        },
        {
          "duration": 0.5487802500000001,
          "durationTicks": 72,
          "midi": 87,
          "name": "D#6",
          "ticks": 960,
          "time": 7.31707,
          "velocity": 0.5590551181102362
        },
        {
          "duration": 0.36585350000000005,
          "durationTicks": 48,
          "midi": 78,
          "name": "F#5",
          "ticks": 1056,
          "time": 8.048777,
          "velocity": 0.5590551181102362
        },
        {
          "duration": 0.36585350000000005,
          "durationTicks": 48,
          "midi": 83,
          "name": "B5",
          "ticks": 1104,
          "time": 8.4146305,
          "velocity": 0.5590551181102362
        },
        {
          "duration": 0.7317070000000001,
          "durationTicks": 96,
          "midi": 83,
          "name": "B5",
          "ticks": 1152,
          "time": 8.780484,
          "velocity": 0.5590551181102362
        },
        {
          "duration": 0.36585350000000005,
          "durationTicks": 48,
          "midi": 66,
          "name": "F#4",
          "ticks": 1248,
          "time": 9.512191,
          "velocity": 0.5590551181102362
        },
        {
          "duration": 0.36585350000000005,
          "durationTicks": 48,
          "midi": 71,
          "name": "B4",
          "ticks": 1296,
          "time": 9.8780445,
          "velocity": 0.5590551181102362
        },
        {
          "duration": 0.7317070000000001,
          "durationTicks": 96,
          "midi": 71,
          "name": "B4",
          "ticks": 1344,
          "time": 10.243898,
          "velocity": 0.5590551181102362
        },
        {
          "duration": 0.18292675000000003,
          "durationTicks": 24,
          "midi": 64,
          "name": "E4",
          "ticks": 1440,
          "time": 10.975605,
          "velocity": 0.5590551181102362
        },
        {
          "duration": 0.18292675000000003,
          "durationTicks": 24,
          "midi": 66,
          "name": "F#4",
          "ticks": 1464,
          "time": 11.15853175,
          "velocity": 0.5590551181102362
        },
        {
          "duration": 0.36585350000000005,
          "durationTicks": 48,
          "midi": 71,
          "name": "B4",
          "ticks": 1488,
          "time": 11.3414585,
          "velocity": 0.5590551181102362
        },
        {
          "duration": 0.7317070000000001,
          "durationTicks": 96,
          "midi": 73,
          "name": "C#5",
          "ticks": 1536,
          "time": 11.707312,
          "velocity": 0.5590551181102362
        },
        {
          "duration": 0.7317070000000001,
          "durationTicks": 96,
          "midi": 70,
          "name": "A#4",
          "ticks": 1536,
          "time": 11.707312,
          "velocity": 0.5590551181102362
        },
        {
          "duration": 0.6402436250000001,
          "durationTicks": 84,
          "midi": 73,
          "name": "C#5",
          "ticks": 1632,
          "time": 12.439019,
          "velocity": 0.5590551181102362
        },
        {
          "duration": 0.6402436250000001,
          "durationTicks": 84,
          "midi": 78,
          "name": "F#5",
          "ticks": 1632,
          "time": 12.439019,
          "velocity": 0.5590551181102362
        },
        {
          "duration": 1.6006090625000002,
          "durationTicks": 210,
          "midi": 63,
          "name": "D#4",
          "ticks": 1710,
          "time": 13.0335309375,
          "velocity": 0.5590551181102362
        },
        {
          "duration": 1.5548773750000002,
          "durationTicks": 204,
          "midi": 68,
          "name": "G#4",
          "ticks": 1716,
          "time": 13.079262625,
          "velocity": 0.5590551181102362
        },
        {
          "duration": 1.5091456875000002,
          "durationTicks": 198,
          "midi": 71,
          "name": "B4",
          "ticks": 1722,
          "time": 13.1249943125,
          "velocity": 0.5590551181102362
        },
        {
          "duration": 1.4634140000000002,
          "durationTicks": 192,
          "midi": 75,
          "name": "D#5",
          "ticks": 1728,
          "time": 13.170726,
          "velocity": 0.5590551181102362
        },
        {
          "duration": 1.4634139999999984,
          "durationTicks": 192,
          "midi": 68,
          "name": "G#4",
          "ticks": 1920,
          "time": 14.63414,
          "velocity": 0.5590551181102362
        },
        {
          "duration": 1.4634139999999984,
          "durationTicks": 192,
          "midi": 63,
          "name": "D#4",
          "ticks": 1920,
          "time": 14.63414,
          "velocity": 0.5590551181102362
        },
        {
          "duration": 1.4634140000000002,
          "durationTicks": 192,
          "midi": 64,
          "name": "E4",
          "ticks": 2112,
          "time": 16.097554,
          "velocity": 0.5590551181102362
        },
        {
          "duration": 1.4634140000000002,
          "durationTicks": 192,
          "midi": 68,
          "name": "G#4",
          "ticks": 2112,
          "time": 16.097554,
          "velocity": 0.5590551181102362
        },
        {
          "duration": 1.4634140000000002,
          "durationTicks": 192,
          "midi": 66,
          "name": "F#4",
          "ticks": 2304,
          "time": 17.560968,
          "velocity": 0.5590551181102362
        },
        {
          "duration": 1.4634140000000002,
          "durationTicks": 192,
          "midi": 70,
          "name": "A#4",
          "ticks": 2304,
          "time": 17.560968,
          "velocity": 0.5590551181102362
        },
        {
          "duration": 1.4634140000000002,
          "durationTicks": 192,
          "midi": 66,
          "name": "F#4",
          "ticks": 2496,
          "time": 19.024382,
          "velocity": 0.5590551181102362
        },
        {
          "duration": 1.4634140000000002,
          "durationTicks": 192,
          "midi": 71,
          "name": "B4",
          "ticks": 2496,
          "time": 19.024382,
          "velocity": 0.5590551181102362
        },
        {
          "duration": 1.4634140000000002,
          "durationTicks": 192,
          "midi": 66,
          "name": "F#4",
          "ticks": 2688,
          "time": 20.487796,
          "velocity": 0.5590551181102362
        },
        {
          "duration": 1.4634140000000002,
          "durationTicks": 192,
          "midi": 63,
          "name": "D#4",
          "ticks": 2688,
          "time": 20.487796,
          "velocity": 0.5590551181102362
        },
        {
          "duration": 1.4634140000000002,
          "durationTicks": 192,
          "midi": 59,
          "name": "B3",
          "ticks": 2880,
          "time": 21.95121,
          "velocity": 0.5590551181102362
        },
        {
          "duration": 1.4634140000000002,
          "durationTicks": 192,
          "midi": 63,
          "name": "D#4",
          "ticks": 2880,
          "time": 21.95121,
          "velocity": 0.5590551181102362
        },
        {
          "duration": 1.4634140000000002,
          "durationTicks": 192,
          "midi": 66,
          "name": "F#4",
          "ticks": 3072,
          "time": 23.414624,
          "velocity": 0.5590551181102362
        },
        {
          "duration": 1.4634140000000002,
          "durationTicks": 192,
          "midi": 61,
          "name": "C#4",
          "ticks": 3072,
          "time": 23.414624,
          "velocity": 0.5590551181102362
        },
        {
          "duration": 1.4634140000000002,
          "durationTicks": 192,
          "midi": 63,
          "name": "D#4",
          "ticks": 3264,
          "time": 24.878038,
          "velocity": 0.5590551181102362
        },
        {
          "duration": 1.4634140000000002,
          "durationTicks": 192,
          "midi": 59,
          "name": "B3",
          "ticks": 3264,
          "time": 24.878038,
          "velocity": 0.5590551181102362
        },
        {
          "duration": 1.4634140000000002,
          "durationTicks": 192,
          "midi": 63,
          "name": "D#4",
          "ticks": 3456,
          "time": 26.341452,
          "velocity": 0.5590551181102362
        },
        {
          "duration": 1.4634140000000002,
          "durationTicks": 192,
          "midi": 68,
          "name": "G#4",
          "ticks": 3456,
          "time": 26.341452,
          "velocity": 0.5590551181102362
        },
        {
          "duration": 1.4634140000000002,
          "durationTicks": 192,
          "midi": 64,
          "name": "E4",
          "ticks": 3648,
          "time": 27.804866,
          "velocity": 0.5590551181102362
        },
        {
          "duration": 1.4634140000000002,
          "durationTicks": 192,
          "midi": 68,
          "name": "G#4",
          "ticks": 3648,
          "time": 27.804866,
          "velocity": 0.5590551181102362
        },
        {
          "duration": 1.4634140000000002,
          "durationTicks": 192,
          "midi": 70,
          "name": "A#4",
          "ticks": 3840,
          "time": 29.26828,
          "velocity": 0.5590551181102362
        },
        {
          "duration": 1.4634140000000002,
          "durationTicks": 192,
          "midi": 66,
          "name": "F#4",
          "ticks": 3840,
          "time": 29.26828,
          "velocity": 0.5590551181102362
        },
        {
          "duration": 1.4634139999999967,
          "durationTicks": 192,
          "midi": 66,
          "name": "F#4",
          "ticks": 4032,
          "time": 30.731694,
          "velocity": 0.5590551181102362
        },
        {
          "duration": 1.4634139999999967,
          "durationTicks": 192,
          "midi": 71,
          "name": "B4",
          "ticks": 4032,
          "time": 30.731694,
          "velocity": 0.5590551181102362
        },
        {
          "duration": 1.4634140000000002,
          "durationTicks": 192,
          "midi": 63,
          "name": "D#4",
          "ticks": 4224,
          "time": 32.195108,
          "velocity": 0.5590551181102362
        },
        {
          "duration": 1.4634140000000002,
          "durationTicks": 192,
          "midi": 66,
          "name": "F#4",
          "ticks": 4224,
          "time": 32.195108,
          "velocity": 0.5590551181102362
        },
        {
          "duration": 1.4634140000000002,
          "durationTicks": 192,
          "midi": 59,
          "name": "B3",
          "ticks": 4416,
          "time": 33.658522,
          "velocity": 0.5590551181102362
        },
        {
          "duration": 1.4634140000000002,
          "durationTicks": 192,
          "midi": 63,
          "name": "D#4",
          "ticks": 4416,
          "time": 33.658522,
          "velocity": 0.5590551181102362
        },
        {
          "duration": 1.4634140000000002,
          "durationTicks": 192,
          "midi": 61,
          "name": "C#4",
          "ticks": 4608,
          "time": 35.121936,
          "velocity": 0.5590551181102362
        },
        {
          "duration": 1.4634140000000002,
          "durationTicks": 192,
          "midi": 66,
          "name": "F#4",
          "ticks": 4608,
          "time": 35.121936,
          "velocity": 0.5590551181102362
        },
        {
          "duration": 1.4634140000000002,
          "durationTicks": 192,
          "midi": 63,
          "name": "D#4",
          "ticks": 4800,
          "time": 36.58535,
          "velocity": 0.5590551181102362
        },
        {
          "duration": 1.4634140000000002,
          "durationTicks": 192,
          "midi": 59,
          "name": "B3",
          "ticks": 4800,
          "time": 36.58535,
          "velocity": 0.5590551181102362
        },
        {
          "duration": 1.4634140000000002,
          "durationTicks": 192,
          "midi": 59,
          "name": "B3",
          "ticks": 4992,
          "time": 38.048764,
          "velocity": 0.6141732283464567
        },
        {
          "duration": 1.4634140000000002,
          "durationTicks": 192,
          "midi": 51,
          "name": "D#3",
          "ticks": 4992,
          "time": 38.048764,
          "velocity": 0.6141732283464567
        },
        {
          "duration": 1.4634140000000002,
          "durationTicks": 192,
          "midi": 56,
          "name": "G#3",
          "ticks": 4992,
          "time": 38.048764,
          "velocity": 0.6141732283464567
        },
        {
          "duration": 1.4634140000000002,
          "durationTicks": 192,
          "midi": 56,
          "name": "G#3",
          "ticks": 5184,
          "time": 39.512178,
          "velocity": 0.6141732283464567
        },
        {
          "duration": 1.4634140000000002,
          "durationTicks": 192,
          "midi": 59,
          "name": "B3",
          "ticks": 5184,
          "time": 39.512178,
          "velocity": 0.6141732283464567
        },
        {
          "duration": 1.4634140000000002,
          "durationTicks": 192,
          "midi": 52,
          "name": "E3",
          "ticks": 5184,
          "time": 39.512178,
          "velocity": 0.6141732283464567
        },
        {
          "duration": 1.4634140000000002,
          "durationTicks": 192,
          "midi": 49,
          "name": "C#3",
          "ticks": 5376,
          "time": 40.975592,
          "velocity": 0.6141732283464567
        },
        {
          "duration": 1.4634140000000002,
          "durationTicks": 192,
          "midi": 54,
          "name": "F#3",
          "ticks": 5376,
          "time": 40.975592,
          "velocity": 0.6141732283464567
        },
        {
          "duration": 1.4634140000000002,
          "durationTicks": 192,
          "midi": 58,
          "name": "A#3",
          "ticks": 5376,
          "time": 40.975592,
          "velocity": 0.6141732283464567
        },
        {
          "duration": 1.4634140000000002,
          "durationTicks": 192,
          "midi": 51,
          "name": "D#3",
          "ticks": 5568,
          "time": 42.439006,
          "velocity": 0.6141732283464567
        },
        {
          "duration": 1.4634140000000002,
          "durationTicks": 192,
          "midi": 54,
          "name": "F#3",
          "ticks": 5568,
          "time": 42.439006,
          "velocity": 0.6141732283464567
        },
        {
          "duration": 1.4634140000000002,
          "durationTicks": 192,
          "midi": 59,
          "name": "B3",
          "ticks": 5568,
          "time": 42.439006,
          "velocity": 0.6141732283464567
        },
        {
          "duration": 1.4634140000000002,
          "durationTicks": 192,
          "midi": 59,
          "name": "B3",
          "ticks": 5760,
          "time": 43.90242,
          "velocity": 0.6141732283464567
        },
        {
          "duration": 1.4634140000000002,
          "durationTicks": 192,
          "midi": 51,
          "name": "D#3",
          "ticks": 5760,
          "time": 43.90242,
          "velocity": 0.6141732283464567
        },
        {
          "duration": 1.4634140000000002,
          "durationTicks": 192,
          "midi": 56,
          "name": "G#3",
          "ticks": 5760,
          "time": 43.90242,
          "velocity": 0.6141732283464567
        },
        {
          "duration": 1.4634140000000002,
          "durationTicks": 192,
          "midi": 56,
          "name": "G#3",
          "ticks": 5952,
          "time": 45.365834,
          "velocity": 0.6141732283464567
        },
        {
          "duration": 1.4634140000000002,
          "durationTicks": 192,
          "midi": 59,
          "name": "B3",
          "ticks": 5952,
          "time": 45.365834,
          "velocity": 0.6141732283464567
        },
        {
          "duration": 1.4634140000000002,
          "durationTicks": 192,
          "midi": 52,
          "name": "E3",
          "ticks": 5952,
          "time": 45.365834,
          "velocity": 0.6141732283464567
        },
        {
          "duration": 1.4634140000000002,
          "durationTicks": 192,
          "midi": 49,
          "name": "C#3",
          "ticks": 6144,
          "time": 46.829248,
          "velocity": 0.6141732283464567
        },
        {
          "duration": 1.4634140000000002,
          "durationTicks": 192,
          "midi": 54,
          "name": "F#3",
          "ticks": 6144,
          "time": 46.829248,
          "velocity": 0.6141732283464567
        },
        {
          "duration": 1.4634140000000002,
          "durationTicks": 192,
          "midi": 58,
          "name": "A#3",
          "ticks": 6144,
          "time": 46.829248,
          "velocity": 0.6141732283464567
        },
        {
          "duration": 1.4634140000000002,
          "durationTicks": 192,
          "midi": 51,
          "name": "D#3",
          "ticks": 6336,
          "time": 48.292662,
          "velocity": 0.6141732283464567
        },
        {
          "duration": 1.4634140000000002,
          "durationTicks": 192,
          "midi": 54,
          "name": "F#3",
          "ticks": 6336,
          "time": 48.292662,
          "velocity": 0.6141732283464567
        },
        {
          "duration": 1.4634140000000002,
          "durationTicks": 192,
          "midi": 59,
          "name": "B3",
          "ticks": 6336,
          "time": 48.292662,
          "velocity": 0.6141732283464567
        },
        {
          "duration": 1.4634140000000002,
          "durationTicks": 192,
          "midi": 59,
          "name": "B3",
          "ticks": 6528,
          "time": 49.756076,
          "velocity": 0.6141732283464567
        },
        {
          "duration": 1.4634140000000002,
          "durationTicks": 192,
          "midi": 51,
          "name": "D#3",
          "ticks": 6528,
          "time": 49.756076,
          "velocity": 0.6141732283464567
        },
        {
          "duration": 1.4634140000000002,
          "durationTicks": 192,
          "midi": 56,
          "name": "G#3",
          "ticks": 6528,
          "time": 49.756076,
          "velocity": 0.6141732283464567
        },
        {
          "duration": 1.4634140000000002,
          "durationTicks": 192,
          "midi": 56,
          "name": "G#3",
          "ticks": 6720,
          "time": 51.21949,
          "velocity": 0.6141732283464567
        },
        {
          "duration": 1.4634140000000002,
          "durationTicks": 192,
          "midi": 59,
          "name": "B3",
          "ticks": 6720,
          "time": 51.21949,
          "velocity": 0.6141732283464567
        },
        {
          "duration": 1.4634140000000002,
          "durationTicks": 192,
          "midi": 52,
          "name": "E3",
          "ticks": 6720,
          "time": 51.21949,
          "velocity": 0.6141732283464567
        },
        {
          "duration": 1.4634140000000002,
          "durationTicks": 192,
          "midi": 49,
          "name": "C#3",
          "ticks": 6912,
          "time": 52.682904,
          "velocity": 0.6141732283464567
        },
        {
          "duration": 1.4634140000000002,
          "durationTicks": 192,
          "midi": 54,
          "name": "F#3",
          "ticks": 6912,
          "time": 52.682904,
          "velocity": 0.6141732283464567
        },
        {
          "duration": 1.4634140000000002,
          "durationTicks": 192,
          "midi": 58,
          "name": "A#3",
          "ticks": 6912,
          "time": 52.682904,
          "velocity": 0.6141732283464567
        },
        {
          "duration": 1.4634140000000002,
          "durationTicks": 192,
          "midi": 51,
          "name": "D#3",
          "ticks": 7104,
          "time": 54.146318,
          "velocity": 0.6141732283464567
        },
        {
          "duration": 1.4634140000000002,
          "durationTicks": 192,
          "midi": 54,
          "name": "F#3",
          "ticks": 7104,
          "time": 54.146318,
          "velocity": 0.6141732283464567
        },
        {
          "duration": 1.4634140000000002,
          "durationTicks": 192,
          "midi": 59,
          "name": "B3",
          "ticks": 7104,
          "time": 54.146318,
          "velocity": 0.6141732283464567
        },
        {
          "duration": 1.4634140000000002,
          "durationTicks": 192,
          "midi": 59,
          "name": "B3",
          "ticks": 7296,
          "time": 55.609732,
          "velocity": 0.6141732283464567
        },
        {
          "duration": 1.4634140000000002,
          "durationTicks": 192,
          "midi": 51,
          "name": "D#3",
          "ticks": 7296,
          "time": 55.609732,
          "velocity": 0.6141732283464567
        },
        {
          "duration": 1.4634140000000002,
          "durationTicks": 192,
          "midi": 56,
          "name": "G#3",
          "ticks": 7296,
          "time": 55.609732,
          "velocity": 0.6141732283464567
        },
        {
          "duration": 1.4634140000000002,
          "durationTicks": 192,
          "midi": 52,
          "name": "E3",
          "ticks": 7488,
          "time": 57.073146,
          "velocity": 0.6141732283464567
        },
        {
          "duration": 1.4634140000000002,
          "durationTicks": 192,
          "midi": 59,
          "name": "B3",
          "ticks": 7488,
          "time": 57.073146,
          "velocity": 0.6141732283464567
        },
        {
          "duration": 1.4634140000000002,
          "durationTicks": 192,
          "midi": 56,
          "name": "G#3",
          "ticks": 7488,
          "time": 57.073146,
          "velocity": 0.6141732283464567
        },
        {
          "duration": 1.4634140000000002,
          "durationTicks": 192,
          "midi": 49,
          "name": "C#3",
          "ticks": 7680,
          "time": 58.53656,
          "velocity": 0.6141732283464567
        },
        {
          "duration": 1.4634140000000002,
          "durationTicks": 192,
          "midi": 54,
          "name": "F#3",
          "ticks": 7680,
          "time": 58.53656,
          "velocity": 0.6141732283464567
        },
        {
          "duration": 1.4634140000000002,
          "durationTicks": 192,
          "midi": 58,
          "name": "A#3",
          "ticks": 7680,
          "time": 58.53656,
          "velocity": 0.6141732283464567
        },
        {
          "duration": 1.455792052083325,
          "durationTicks": 191,
          "midi": 47,
          "name": "B2",
          "ticks": 7872,
          "time": 59.999974,
          "velocity": 0.6141732283464567
        },
        {
          "duration": 1.455792052083325,
          "durationTicks": 191,
          "midi": 51,
          "name": "D#3",
          "ticks": 7872,
          "time": 59.999974,
          "velocity": 0.6141732283464567
        },
        {
          "duration": 1.455792052083325,
          "durationTicks": 191,
          "midi": 56,
          "name": "G#3",
          "ticks": 7872,
          "time": 59.999974,
          "velocity": 0.6141732283464567
        },
        {
          "duration": 1.4634140000000002,
          "durationTicks": 192,
          "midi": 59,
          "name": "B3",
          "ticks": 8064,
          "time": 61.463388,
          "velocity": 0.6141732283464567
        },
        {
          "duration": 1.4634140000000002,
          "durationTicks": 192,
          "midi": 51,
          "name": "D#3",
          "ticks": 8064,
          "time": 61.463388,
          "velocity": 0.6141732283464567
        },
        {
          "duration": 1.4634140000000002,
          "durationTicks": 192,
          "midi": 56,
          "name": "G#3",
          "ticks": 8064,
          "time": 61.463388,
          "velocity": 0.6141732283464567
        },
        {
          "duration": 1.463413999999993,
          "durationTicks": 192,
          "midi": 56,
          "name": "G#3",
          "ticks": 8256,
          "time": 62.926802,
          "velocity": 0.6141732283464567
        },
        {
          "duration": 1.463413999999993,
          "durationTicks": 192,
          "midi": 59,
          "name": "B3",
          "ticks": 8256,
          "time": 62.926802,
          "velocity": 0.6141732283464567
        },
        {
          "duration": 1.463413999999993,
          "durationTicks": 192,
          "midi": 52,
          "name": "E3",
          "ticks": 8256,
          "time": 62.926802,
          "velocity": 0.6141732283464567
        },
        {
          "duration": 1.4634140000000002,
          "durationTicks": 192,
          "midi": 49,
          "name": "C#3",
          "ticks": 8448,
          "time": 64.390216,
          "velocity": 0.6141732283464567
        },
        {
          "duration": 1.4634140000000002,
          "durationTicks": 192,
          "midi": 54,
          "name": "F#3",
          "ticks": 8448,
          "time": 64.390216,
          "velocity": 0.6141732283464567
        },
        {
          "duration": 1.4634140000000002,
          "durationTicks": 192,
          "midi": 58,
          "name": "A#3",
          "ticks": 8448,
          "time": 64.390216,
          "velocity": 0.6141732283464567
        },
        {
          "duration": 1.4634140000000002,
          "durationTicks": 192,
          "midi": 51,
          "name": "D#3",
          "ticks": 8640,
          "time": 65.85363,
          "velocity": 0.6141732283464567
        },
        {
          "duration": 1.4634140000000002,
          "durationTicks": 192,
          "midi": 54,
          "name": "F#3",
          "ticks": 8640,
          "time": 65.85363,
          "velocity": 0.6141732283464567
        },
        {
          "duration": 1.4634140000000002,
          "durationTicks": 192,
          "midi": 59,
          "name": "B3",
          "ticks": 8640,
          "time": 65.85363,
          "velocity": 0.6141732283464567
        },
        {
          "duration": 1.4634140000000002,
          "durationTicks": 192,
          "midi": 56,
          "name": "G#3",
          "ticks": 8832,
          "time": 67.317044,
          "velocity": 0.6141732283464567
        },
        {
          "duration": 1.4634140000000002,
          "durationTicks": 192,
          "midi": 51,
          "name": "D#3",
          "ticks": 8832,
          "time": 67.317044,
          "velocity": 0.6141732283464567
        },
        {
          "duration": 1.4634140000000002,
          "durationTicks": 192,
          "midi": 59,
          "name": "B3",
          "ticks": 8832,
          "time": 67.317044,
          "velocity": 0.6141732283464567
        },
        {
          "duration": 1.4634140000000002,
          "durationTicks": 192,
          "midi": 56,
          "name": "G#3",
          "ticks": 9024,
          "time": 68.780458,
          "velocity": 0.6141732283464567
        },
        {
          "duration": 1.4634140000000002,
          "durationTicks": 192,
          "midi": 59,
          "name": "B3",
          "ticks": 9024,
          "time": 68.780458,
          "velocity": 0.6141732283464567
        },
        {
          "duration": 1.4634140000000002,
          "durationTicks": 192,
          "midi": 52,
          "name": "E3",
          "ticks": 9024,
          "time": 68.780458,
          "velocity": 0.6141732283464567
        },
        {
          "duration": 1.4634140000000002,
          "durationTicks": 192,
          "midi": 58,
          "name": "A#3",
          "ticks": 9216,
          "time": 70.243872,
          "velocity": 0.6141732283464567
        },
        {
          "duration": 1.4634140000000002,
          "durationTicks": 192,
          "midi": 54,
          "name": "F#3",
          "ticks": 9216,
          "time": 70.243872,
          "velocity": 0.6141732283464567
        },
        {
          "duration": 1.4634140000000002,
          "durationTicks": 192,
          "midi": 49,
          "name": "C#3",
          "ticks": 9216,
          "time": 70.243872,
          "velocity": 0.6141732283464567
        },
        {
          "duration": 1.4557920520833392,
          "durationTicks": 191,
          "midi": 56,
          "name": "G#3",
          "ticks": 9408,
          "time": 71.707286,
          "velocity": 0.6141732283464567
        },
        {
          "duration": 1.4557920520833392,
          "durationTicks": 191,
          "midi": 47,
          "name": "B2",
          "ticks": 9408,
          "time": 71.707286,
          "velocity": 0.6141732283464567
        },
        {
          "duration": 1.4557920520833392,
          "durationTicks": 191,
          "midi": 51,
          "name": "D#3",
          "ticks": 9408,
          "time": 71.707286,
          "velocity": 0.6141732283464567
        },
        {
          "duration": 1.4634140000000002,
          "durationTicks": 192,
          "midi": 68,
          "name": "G#4",
          "ticks": 9600,
          "time": 73.1707,
          "velocity": 0.5590551181102362
        },
        {
          "duration": 1.4634140000000002,
          "durationTicks": 192,
          "midi": 63,
          "name": "D#4",
          "ticks": 9600,
          "time": 73.1707,
          "velocity": 0.5590551181102362
        },
        {
          "duration": 1.4634140000000002,
          "durationTicks": 192,
          "midi": 64,
          "name": "E4",
          "ticks": 9792,
          "time": 74.634114,
          "velocity": 0.5590551181102362
        },
        {
          "duration": 1.4634140000000002,
          "durationTicks": 192,
          "midi": 68,
          "name": "G#4",
          "ticks": 9792,
          "time": 74.634114,
          "velocity": 0.5590551181102362
        },
        {
          "duration": 1.4634140000000002,
          "durationTicks": 192,
          "midi": 66,
          "name": "F#4",
          "ticks": 9984,
          "time": 76.097528,
          "velocity": 0.5590551181102362
        },
        {
          "duration": 1.4634140000000002,
          "durationTicks": 192,
          "midi": 70,
          "name": "A#4",
          "ticks": 9984,
          "time": 76.097528,
          "velocity": 0.5590551181102362
        },
        {
          "duration": 1.4634140000000002,
          "durationTicks": 192,
          "midi": 66,
          "name": "F#4",
          "ticks": 10176,
          "time": 77.560942,
          "velocity": 0.5590551181102362
        },
        {
          "duration": 1.4634140000000002,
          "durationTicks": 192,
          "midi": 71,
          "name": "B4",
          "ticks": 10176,
          "time": 77.560942,
          "velocity": 0.5590551181102362
        },
        {
          "duration": 1.4634140000000002,
          "durationTicks": 192,
          "midi": 66,
          "name": "F#4",
          "ticks": 10368,
          "time": 79.024356,
          "velocity": 0.5590551181102362
        },
        {
          "duration": 1.4634140000000002,
          "durationTicks": 192,
          "midi": 63,
          "name": "D#4",
          "ticks": 10368,
          "time": 79.024356,
          "velocity": 0.5590551181102362
        },
        {
          "duration": 1.4634140000000002,
          "durationTicks": 192,
          "midi": 59,
          "name": "B3",
          "ticks": 10560,
          "time": 80.48777,
          "velocity": 0.5590551181102362
        },
        {
          "duration": 1.4634140000000002,
          "durationTicks": 192,
          "midi": 63,
          "name": "D#4",
          "ticks": 10560,
          "time": 80.48777,
          "velocity": 0.5590551181102362
        },
        {
          "duration": 1.4634140000000002,
          "durationTicks": 192,
          "midi": 66,
          "name": "F#4",
          "ticks": 10752,
          "time": 81.951184,
          "velocity": 0.5590551181102362
        },
        {
          "duration": 1.4634140000000002,
          "durationTicks": 192,
          "midi": 61,
          "name": "C#4",
          "ticks": 10752,
          "time": 81.951184,
          "velocity": 0.5590551181102362
        },
        {
          "duration": 1.4634140000000002,
          "durationTicks": 192,
          "midi": 63,
          "name": "D#4",
          "ticks": 10944,
          "time": 83.414598,
          "velocity": 0.5590551181102362
        },
        {
          "duration": 1.4634140000000002,
          "durationTicks": 192,
          "midi": 59,
          "name": "B3",
          "ticks": 10944,
          "time": 83.414598,
          "velocity": 0.5590551181102362
        },
        {
          "duration": 0.5487802500000072,
          "durationTicks": 72,
          "midi": 66,
          "name": "F#4",
          "ticks": 11136,
          "time": 84.878012,
          "velocity": 0.6141732283464567
        },
        {
          "duration": 0.5487802500000072,
          "durationTicks": 72,
          "midi": 70,
          "name": "A#4",
          "ticks": 11136,
          "time": 84.878012,
          "velocity": 0.6141732283464567
        },
        {
          "duration": 0.548780249999993,
          "durationTicks": 72,
          "midi": 71,
          "name": "B4",
          "ticks": 11208,
          "time": 85.42679225,
          "velocity": 0.6141732283464567
        },
        {
          "duration": 0.548780249999993,
          "durationTicks": 72,
          "midi": 68,
          "name": "G#4",
          "ticks": 11208,
          "time": 85.42679225,
          "velocity": 0.6141732283464567
        },
        {
          "duration": 0.36585350000000005,
          "durationTicks": 48,
          "midi": 66,
          "name": "F#4",
          "ticks": 11280,
          "time": 85.9755725,
          "velocity": 0.6141732283464567
        },
        {
          "duration": 0.36585350000000005,
          "durationTicks": 48,
          "midi": 63,
          "name": "D#4",
          "ticks": 11280,
          "time": 85.9755725,
          "velocity": 0.6141732283464567
        },
        {
          "duration": 0.5487802500000072,
          "durationTicks": 72,
          "midi": 66,
          "name": "F#4",
          "ticks": 11328,
          "time": 86.341426,
          "velocity": 0.6141732283464567
        },
        {
          "duration": 0.5487802500000072,
          "durationTicks": 72,
          "midi": 70,
          "name": "A#4",
          "ticks": 11328,
          "time": 86.341426,
          "velocity": 0.6141732283464567
        },
        {
          "duration": 0.914633749999993,
          "durationTicks": 120,
          "midi": 68,
          "name": "G#4",
          "ticks": 11400,
          "time": 86.89020625,
          "velocity": 0.6141732283464567
        },
        {
          "duration": 0.914633749999993,
          "durationTicks": 120,
          "midi": 71,
          "name": "B4",
          "ticks": 11400,
          "time": 86.89020625,
          "velocity": 0.6141732283464567
        },
        {
          "duration": 0.5487802500000072,
          "durationTicks": 72,
          "midi": 73,
          "name": "C#5",
          "ticks": 11520,
          "time": 87.80484,
          "velocity": 0.6141732283464567
        },
        {
          "duration": 0.5487802500000072,
          "durationTicks": 72,
          "midi": 70,
          "name": "A#4",
          "ticks": 11520,
          "time": 87.80484,
          "velocity": 0.6141732283464567
        },
        {
          "duration": 0.548780249999993,
          "durationTicks": 72,
          "midi": 73,
          "name": "C#5",
          "ticks": 11592,
          "time": 88.35362025,
          "velocity": 0.6141732283464567
        },
        {
          "duration": 0.548780249999993,
          "durationTicks": 72,
          "midi": 78,
          "name": "F#5",
          "ticks": 11592,
          "time": 88.35362025,
          "velocity": 0.6141732283464567
        },
        {
          "duration": 0.36585350000000005,
          "durationTicks": 48,
          "midi": 73,
          "name": "C#5",
          "ticks": 11664,
          "time": 88.9024005,
          "velocity": 0.6141732283464567
        },
        {
          "duration": 0.36585350000000005,
          "durationTicks": 48,
          "midi": 70,
          "name": "A#4",
          "ticks": 11664,
          "time": 88.9024005,
          "velocity": 0.6141732283464567
        },
        {
          "duration": 0.7317070000000001,
          "durationTicks": 96,
          "midi": 71,
          "name": "B4",
          "ticks": 11712,
          "time": 89.268254,
          "velocity": 0.6141732283464567
        },
        {
          "duration": 0.7317070000000001,
          "durationTicks": 96,
          "midi": 75,
          "name": "D#5",
          "ticks": 11712,
          "time": 89.268254,
          "velocity": 0.6141732283464567
        },
        {
          "duration": 0.36585350000000005,
          "durationTicks": 48,
          "midi": 66,
          "name": "F#4",
          "ticks": 11808,
          "time": 89.999961,
          "velocity": 0.6141732283464567
        },
        {
          "duration": 0.36585350000000005,
          "durationTicks": 48,
          "midi": 71,
          "name": "B4",
          "ticks": 11856,
          "time": 90.3658145,
          "velocity": 0.6141732283464567
        },
        {
          "duration": 0.5487802500000072,
          "durationTicks": 72,
          "midi": 70,
          "name": "A#4",
          "ticks": 11904,
          "time": 90.731668,
          "velocity": 0.6141732283464567
        },
        {
          "duration": 0.5487802500000072,
          "durationTicks": 72,
          "midi": 66,
          "name": "F#4",
          "ticks": 11904,
          "time": 90.731668,
          "velocity": 0.6141732283464567
        },
        {
          "duration": 0.548780249999993,
          "durationTicks": 72,
          "midi": 71,
          "name": "B4",
          "ticks": 11976,
          "time": 91.28044825,
          "velocity": 0.6141732283464567
        },
        {
          "duration": 0.548780249999993,
          "durationTicks": 72,
          "midi": 68,
          "name": "G#4",
          "ticks": 11976,
          "time": 91.28044825,
          "velocity": 0.6141732283464567
        },
        {
          "duration": 0.36585350000000005,
          "durationTicks": 48,
          "midi": 66,
          "name": "F#4",
          "ticks": 12048,
          "time": 91.8292285,
          "velocity": 0.6141732283464567
        },
        {
          "duration": 0.36585350000000005,
          "durationTicks": 48,
          "midi": 63,
          "name": "D#4",
          "ticks": 12048,
          "time": 91.8292285,
          "velocity": 0.6141732283464567
        },
        {
          "duration": 0.5487802500000072,
          "durationTicks": 72,
          "midi": 66,
          "name": "F#4",
          "ticks": 12096,
          "time": 92.195082,
          "velocity": 0.6141732283464567
        },
        {
          "duration": 0.5487802500000072,
          "durationTicks": 72,
          "midi": 70,
          "name": "A#4",
          "ticks": 12096,
          "time": 92.195082,
          "velocity": 0.6141732283464567
        },
        {
          "duration": 0.914633749999993,
          "durationTicks": 120,
          "midi": 68,
          "name": "G#4",
          "ticks": 12168,
          "time": 92.74386225,
          "velocity": 0.6141732283464567
        },
        {
          "duration": 0.914633749999993,
          "durationTicks": 120,
          "midi": 71,
          "name": "B4",
          "ticks": 12168,
          "time": 92.74386225,
          "velocity": 0.6141732283464567
        },
        {
          "duration": 0.548780249999993,
          "durationTicks": 72,
          "midi": 66,
          "name": "F#4",
          "ticks": 12288,
          "time": 93.658496,
          "velocity": 0.6141732283464567
        },
        {
          "duration": 0.548780249999993,
          "durationTicks": 72,
          "midi": 70,
          "name": "A#4",
          "ticks": 12288,
          "time": 93.658496,
          "velocity": 0.6141732283464567
        },
        {
          "duration": 0.5487802500000072,
          "durationTicks": 72,
          "midi": 73,
          "name": "C#5",
          "ticks": 12360,
          "time": 94.20727624999999,
          "velocity": 0.6141732283464567
        },
        {
          "duration": 0.5487802500000072,
          "durationTicks": 72,
          "midi": 70,
          "name": "A#4",
          "ticks": 12360,
          "time": 94.20727624999999,
          "velocity": 0.6141732283464567
        },
        {
          "duration": 0.36585350000000005,
          "durationTicks": 48,
          "midi": 66,
          "name": "F#4",
          "ticks": 12432,
          "time": 94.7560565,
          "velocity": 0.6141732283464567
        },
        {
          "duration": 0.36585350000000005,
          "durationTicks": 48,
          "midi": 70,
          "name": "A#4",
          "ticks": 12432,
          "time": 94.7560565,
          "velocity": 0.6141732283464567
        },
        {
          "duration": 1.4329262083333418,
          "durationTicks": 188,
          "midi": 71,
          "name": "B4",
          "ticks": 12480,
          "time": 95.12191,
          "velocity": 0.6141732283464567
        },
        {
          "duration": 1.4329262083333418,
          "durationTicks": 188,
          "midi": 68,
          "name": "G#4",
          "ticks": 12480,
          "time": 95.12191,
          "velocity": 0.6141732283464567
        },
        {
          "duration": 1.4634140000000002,
          "durationTicks": 192,
          "midi": 59,
          "name": "B3",
          "ticks": 12672,
          "time": 96.585324,
          "velocity": 0.6141732283464567
        },
        {
          "duration": 1.4634140000000002,
          "durationTicks": 192,
          "midi": 51,
          "name": "D#3",
          "ticks": 12672,
          "time": 96.585324,
          "velocity": 0.6141732283464567
        },
        {
          "duration": 1.4634140000000002,
          "durationTicks": 192,
          "midi": 56,
          "name": "G#3",
          "ticks": 12672,
          "time": 96.585324,
          "velocity": 0.6141732283464567
        },
        {
          "duration": 1.4634140000000002,
          "durationTicks": 192,
          "midi": 56,
          "name": "G#3",
          "ticks": 12864,
          "time": 98.048738,
          "velocity": 0.6141732283464567
        },
        {
          "duration": 1.4634140000000002,
          "durationTicks": 192,
          "midi": 59,
          "name": "B3",
          "ticks": 12864,
          "time": 98.048738,
          "velocity": 0.6141732283464567
        },
        {
          "duration": 1.4634140000000002,
          "durationTicks": 192,
          "midi": 52,
          "name": "E3",
          "ticks": 12864,
          "time": 98.048738,
          "velocity": 0.6141732283464567
        },
        {
          "duration": 1.4634140000000002,
          "durationTicks": 192,
          "midi": 49,
          "name": "C#3",
          "ticks": 13056,
          "time": 99.512152,
          "velocity": 0.6141732283464567
        },
        {
          "duration": 1.4634140000000002,
          "durationTicks": 192,
          "midi": 54,
          "name": "F#3",
          "ticks": 13056,
          "time": 99.512152,
          "velocity": 0.6141732283464567
        },
        {
          "duration": 1.4634140000000002,
          "durationTicks": 192,
          "midi": 58,
          "name": "A#3",
          "ticks": 13056,
          "time": 99.512152,
          "velocity": 0.6141732283464567
        },
        {
          "duration": 1.4634140000000002,
          "durationTicks": 192,
          "midi": 51,
          "name": "D#3",
          "ticks": 13248,
          "time": 100.975566,
          "velocity": 0.6141732283464567
        },
        {
          "duration": 1.4634140000000002,
          "durationTicks": 192,
          "midi": 54,
          "name": "F#3",
          "ticks": 13248,
          "time": 100.975566,
          "velocity": 0.6141732283464567
        },
        {
          "duration": 1.4634140000000002,
          "durationTicks": 192,
          "midi": 59,
          "name": "B3",
          "ticks": 13248,
          "time": 100.975566,
          "velocity": 0.6141732283464567
        },
        {
          "duration": 1.4634140000000002,
          "durationTicks": 192,
          "midi": 59,
          "name": "B3",
          "ticks": 13440,
          "time": 102.43898,
          "velocity": 0.6141732283464567
        },
        {
          "duration": 1.4634140000000002,
          "durationTicks": 192,
          "midi": 51,
          "name": "D#3",
          "ticks": 13440,
          "time": 102.43898,
          "velocity": 0.6141732283464567
        },
        {
          "duration": 1.4634140000000002,
          "durationTicks": 192,
          "midi": 56,
          "name": "G#3",
          "ticks": 13440,
          "time": 102.43898,
          "velocity": 0.6141732283464567
        },
        {
          "duration": 1.4634140000000002,
          "durationTicks": 192,
          "midi": 56,
          "name": "G#3",
          "ticks": 13632,
          "time": 103.902394,
          "velocity": 0.6141732283464567
        },
        {
          "duration": 1.4634140000000002,
          "durationTicks": 192,
          "midi": 59,
          "name": "B3",
          "ticks": 13632,
          "time": 103.902394,
          "velocity": 0.6141732283464567
        },
        {
          "duration": 1.4634140000000002,
          "durationTicks": 192,
          "midi": 52,
          "name": "E3",
          "ticks": 13632,
          "time": 103.902394,
          "velocity": 0.6141732283464567
        },
        {
          "duration": 1.4634140000000002,
          "durationTicks": 192,
          "midi": 49,
          "name": "C#3",
          "ticks": 13824,
          "time": 105.365808,
          "velocity": 0.6141732283464567
        },
        {
          "duration": 1.4634140000000002,
          "durationTicks": 192,
          "midi": 54,
          "name": "F#3",
          "ticks": 13824,
          "time": 105.365808,
          "velocity": 0.6141732283464567
        },
        {
          "duration": 1.4634140000000002,
          "durationTicks": 192,
          "midi": 58,
          "name": "A#3",
          "ticks": 13824,
          "time": 105.365808,
          "velocity": 0.6141732283464567
        },
        {
          "duration": 1.4634140000000002,
          "durationTicks": 192,
          "midi": 51,
          "name": "D#3",
          "ticks": 14016,
          "time": 106.829222,
          "velocity": 0.6141732283464567
        },
        {
          "duration": 1.4634140000000002,
          "durationTicks": 192,
          "midi": 54,
          "name": "F#3",
          "ticks": 14016,
          "time": 106.829222,
          "velocity": 0.6141732283464567
        },
        {
          "duration": 1.4634140000000002,
          "durationTicks": 192,
          "midi": 59,
          "name": "B3",
          "ticks": 14016,
          "time": 106.829222,
          "velocity": 0.6141732283464567
        },
        {
          "duration": 1.4634140000000002,
          "durationTicks": 192,
          "midi": 59,
          "name": "B3",
          "ticks": 14208,
          "time": 108.292636,
          "velocity": 0.6141732283464567
        },
        {
          "duration": 1.4634140000000002,
          "durationTicks": 192,
          "midi": 51,
          "name": "D#3",
          "ticks": 14208,
          "time": 108.292636,
          "velocity": 0.6141732283464567
        },
        {
          "duration": 1.4634140000000002,
          "durationTicks": 192,
          "midi": 56,
          "name": "G#3",
          "ticks": 14208,
          "time": 108.292636,
          "velocity": 0.6141732283464567
        },
        {
          "duration": 1.4634140000000002,
          "durationTicks": 192,
          "midi": 56,
          "name": "G#3",
          "ticks": 14400,
          "time": 109.75605,
          "velocity": 0.6141732283464567
        },
        {
          "duration": 1.4634140000000002,
          "durationTicks": 192,
          "midi": 59,
          "name": "B3",
          "ticks": 14400,
          "time": 109.75605,
          "velocity": 0.6141732283464567
        },
        {
          "duration": 1.4634140000000002,
          "durationTicks": 192,
          "midi": 52,
          "name": "E3",
          "ticks": 14400,
          "time": 109.75605,
          "velocity": 0.6141732283464567
        },
        {
          "duration": 1.4634140000000002,
          "durationTicks": 192,
          "midi": 49,
          "name": "C#3",
          "ticks": 14592,
          "time": 111.219464,
          "velocity": 0.6141732283464567
        },
        {
          "duration": 1.4634140000000002,
          "durationTicks": 192,
          "midi": 54,
          "name": "F#3",
          "ticks": 14592,
          "time": 111.219464,
          "velocity": 0.6141732283464567
        },
        {
          "duration": 1.4634140000000002,
          "durationTicks": 192,
          "midi": 58,
          "name": "A#3",
          "ticks": 14592,
          "time": 111.219464,
          "velocity": 0.6141732283464567
        },
        {
          "duration": 1.4634140000000002,
          "durationTicks": 192,
          "midi": 51,
          "name": "D#3",
          "ticks": 14784,
          "time": 112.682878,
          "velocity": 0.6141732283464567
        },
        {
          "duration": 1.4634140000000002,
          "durationTicks": 192,
          "midi": 54,
          "name": "F#3",
          "ticks": 14784,
          "time": 112.682878,
          "velocity": 0.6141732283464567
        },
        {
          "duration": 1.4634140000000002,
          "durationTicks": 192,
          "midi": 59,
          "name": "B3",
          "ticks": 14784,
          "time": 112.682878,
          "velocity": 0.6141732283464567
        },
        {
          "duration": 1.4634140000000002,
          "durationTicks": 192,
          "midi": 56,
          "name": "G#3",
          "ticks": 14976,
          "time": 114.146292,
          "velocity": 0.6141732283464567
        },
        {
          "duration": 1.4634140000000002,
          "durationTicks": 192,
          "midi": 51,
          "name": "D#3",
          "ticks": 14976,
          "time": 114.146292,
          "velocity": 0.6141732283464567
        },
        {
          "duration": 1.4634140000000002,
          "durationTicks": 192,
          "midi": 59,
          "name": "B3",
          "ticks": 14976,
          "time": 114.146292,
          "velocity": 0.6141732283464567
        },
        {
          "duration": 1.4634140000000002,
          "durationTicks": 192,
          "midi": 56,
          "name": "G#3",
          "ticks": 15168,
          "time": 115.609706,
          "velocity": 0.6141732283464567
        },
        {
          "duration": 1.4634140000000002,
          "durationTicks": 192,
          "midi": 59,
          "name": "B3",
          "ticks": 15168,
          "time": 115.609706,
          "velocity": 0.6141732283464567
        },
        {
          "duration": 1.4634140000000002,
          "durationTicks": 192,
          "midi": 52,
          "name": "E3",
          "ticks": 15168,
          "time": 115.609706,
          "velocity": 0.6141732283464567
        },
        {
          "duration": 1.4634140000000002,
          "durationTicks": 192,
          "midi": 58,
          "name": "A#3",
          "ticks": 15360,
          "time": 117.07312,
          "velocity": 0.6141732283464567
        },
        {
          "duration": 1.4634140000000002,
          "durationTicks": 192,
          "midi": 54,
          "name": "F#3",
          "ticks": 15360,
          "time": 117.07312,
          "velocity": 0.6141732283464567
        },
        {
          "duration": 1.4634140000000002,
          "durationTicks": 192,
          "midi": 49,
          "name": "C#3",
          "ticks": 15360,
          "time": 117.07312,
          "velocity": 0.6141732283464567
        },
        {
          "duration": 1.4557920520833392,
          "durationTicks": 191,
          "midi": 56,
          "name": "G#3",
          "ticks": 15552,
          "time": 118.536534,
          "velocity": 0.6141732283464567
        },
        {
          "duration": 1.4557920520833392,
          "durationTicks": 191,
          "midi": 51,
          "name": "D#3",
          "ticks": 15552,
          "time": 118.536534,
          "velocity": 0.6141732283464567
        },
        {
          "duration": 1.4557920520833392,
          "durationTicks": 191,
          "midi": 47,
          "name": "B2",
          "ticks": 15552,
          "time": 118.536534,
          "velocity": 0.6141732283464567
        },
        {
          "duration": 1.4634140000000002,
          "durationTicks": 192,
          "midi": 56,
          "name": "G#3",
          "ticks": 15744,
          "time": 119.999948,
          "velocity": 0.6141732283464567
        },
        {
          "duration": 1.4634140000000002,
          "durationTicks": 192,
          "midi": 51,
          "name": "D#3",
          "ticks": 15744,
          "time": 119.999948,
          "velocity": 0.6141732283464567
        },
        {
          "duration": 1.4634140000000002,
          "durationTicks": 192,
          "midi": 59,
          "name": "B3",
          "ticks": 15744,
          "time": 119.999948,
          "velocity": 0.6141732283464567
        },
        {
          "duration": 1.4634140000000002,
          "durationTicks": 192,
          "midi": 56,
          "name": "G#3",
          "ticks": 15936,
          "time": 121.463362,
          "velocity": 0.6141732283464567
        },
        {
          "duration": 1.4634140000000002,
          "durationTicks": 192,
          "midi": 59,
          "name": "B3",
          "ticks": 15936,
          "time": 121.463362,
          "velocity": 0.6141732283464567
        },
        {
          "duration": 1.4634140000000002,
          "durationTicks": 192,
          "midi": 52,
          "name": "E3",
          "ticks": 15936,
          "time": 121.463362,
          "velocity": 0.6141732283464567
        },
        {
          "duration": 1.4634140000000002,
          "durationTicks": 192,
          "midi": 58,
          "name": "A#3",
          "ticks": 16128,
          "time": 122.926776,
          "velocity": 0.6141732283464567
        },
        {
          "duration": 1.4634140000000002,
          "durationTicks": 192,
          "midi": 54,
          "name": "F#3",
          "ticks": 16128,
          "time": 122.926776,
          "velocity": 0.6141732283464567
        },
        {
          "duration": 1.4634140000000002,
          "durationTicks": 192,
          "midi": 49,
          "name": "C#3",
          "ticks": 16128,
          "time": 122.926776,
          "velocity": 0.6141732283464567
        },
        {
          "duration": 1.4634140000000002,
          "durationTicks": 192,
          "midi": 51,
          "name": "D#3",
          "ticks": 16320,
          "time": 124.39019,
          "velocity": 0.6141732283464567
        },
        {
          "duration": 1.4634140000000002,
          "durationTicks": 192,
          "midi": 54,
          "name": "F#3",
          "ticks": 16320,
          "time": 124.39019,
          "velocity": 0.6141732283464567
        },
        {
          "duration": 1.4634140000000002,
          "durationTicks": 192,
          "midi": 59,
          "name": "B3",
          "ticks": 16320,
          "time": 124.39019,
          "velocity": 0.6141732283464567
        },
        {
          "duration": 1.4634140000000002,
          "durationTicks": 192,
          "midi": 56,
          "name": "G#3",
          "ticks": 16512,
          "time": 125.853604,
          "velocity": 0.6141732283464567
        },
        {
          "duration": 1.4634140000000002,
          "durationTicks": 192,
          "midi": 51,
          "name": "D#3",
          "ticks": 16512,
          "time": 125.853604,
          "velocity": 0.6141732283464567
        },
        {
          "duration": 1.4634140000000002,
          "durationTicks": 192,
          "midi": 59,
          "name": "B3",
          "ticks": 16512,
          "time": 125.853604,
          "velocity": 0.6141732283464567
        },
        {
          "duration": 1.463413999999986,
          "durationTicks": 192,
          "midi": 56,
          "name": "G#3",
          "ticks": 16704,
          "time": 127.317018,
          "velocity": 0.6141732283464567
        },
        {
          "duration": 1.463413999999986,
          "durationTicks": 192,
          "midi": 59,
          "name": "B3",
          "ticks": 16704,
          "time": 127.317018,
          "velocity": 0.6141732283464567
        },
        {
          "duration": 1.463413999999986,
          "durationTicks": 192,
          "midi": 52,
          "name": "E3",
          "ticks": 16704,
          "time": 127.317018,
          "velocity": 0.6141732283464567
        },
        {
          "duration": 1.4634140000000002,
          "durationTicks": 192,
          "midi": 58,
          "name": "A#3",
          "ticks": 16896,
          "time": 128.780432,
          "velocity": 0.6141732283464567
        },
        {
          "duration": 1.4634140000000002,
          "durationTicks": 192,
          "midi": 54,
          "name": "F#3",
          "ticks": 16896,
          "time": 128.780432,
          "velocity": 0.6141732283464567
        },
        {
          "duration": 1.4634140000000002,
          "durationTicks": 192,
          "midi": 49,
          "name": "C#3",
          "ticks": 16896,
          "time": 128.780432,
          "velocity": 0.6141732283464567
        },
        {
          "duration": 1.4557920520833534,
          "durationTicks": 191,
          "midi": 51,
          "name": "D#3",
          "ticks": 17088,
          "time": 130.243846,
          "velocity": 0.6141732283464567
        },
        {
          "duration": 1.4557920520833534,
          "durationTicks": 191,
          "midi": 47,
          "name": "B2",
          "ticks": 17088,
          "time": 130.243846,
          "velocity": 0.6141732283464567
        },
        {
          "duration": 1.4557920520833534,
          "durationTicks": 191,
          "midi": 56,
          "name": "G#3",
          "ticks": 17088,
          "time": 130.243846,
          "velocity": 0.6141732283464567
        },
        {
          "duration": 1.4634140000000002,
          "durationTicks": 192,
          "midi": 60,
          "name": "C4",
          "ticks": 17280,
          "time": 131.70726,
          "velocity": 0.6850393700787402
        },
        {
          "duration": 1.4634140000000002,
          "durationTicks": 192,
          "midi": 52,
          "name": "E3",
          "ticks": 17280,
          "time": 131.70726,
          "velocity": 0.6850393700787402
        },
        {
          "duration": 1.4634140000000002,
          "durationTicks": 192,
          "midi": 57,
          "name": "A3",
          "ticks": 17280,
          "time": 131.70726,
          "velocity": 0.6850393700787402
        },
        {
          "duration": 1.4634140000000002,
          "durationTicks": 192,
          "midi": 57,
          "name": "A3",
          "ticks": 17472,
          "time": 133.170674,
          "velocity": 0.6850393700787402
        },
        {
          "duration": 1.4634140000000002,
          "durationTicks": 192,
          "midi": 60,
          "name": "C4",
          "ticks": 17472,
          "time": 133.170674,
          "velocity": 0.6850393700787402
        },
        {
          "duration": 1.4634140000000002,
          "durationTicks": 192,
          "midi": 53,
          "name": "F3",
          "ticks": 17472,
          "time": 133.170674,
          "velocity": 0.6850393700787402
        },
        {
          "duration": 1.4634140000000002,
          "durationTicks": 192,
          "midi": 59,
          "name": "B3",
          "ticks": 17664,
          "time": 134.634088,
          "velocity": 0.6850393700787402
        },
        {
          "duration": 1.4634140000000002,
          "durationTicks": 192,
          "midi": 55,
          "name": "G3",
          "ticks": 17664,
          "time": 134.634088,
          "velocity": 0.6850393700787402
        },
        {
          "duration": 1.4634140000000002,
          "durationTicks": 192,
          "midi": 50,
          "name": "D3",
          "ticks": 17664,
          "time": 134.634088,
          "velocity": 0.6850393700787402
        },
        {
          "duration": 1.4634140000000002,
          "durationTicks": 192,
          "midi": 52,
          "name": "E3",
          "ticks": 17856,
          "time": 136.097502,
          "velocity": 0.6850393700787402
        },
        {
          "duration": 1.4634140000000002,
          "durationTicks": 192,
          "midi": 55,
          "name": "G3",
          "ticks": 17856,
          "time": 136.097502,
          "velocity": 0.6850393700787402
        },
        {
          "duration": 1.4634140000000002,
          "durationTicks": 192,
          "midi": 60,
          "name": "C4",
          "ticks": 17856,
          "time": 136.097502,
          "velocity": 0.6850393700787402
        },
        {
          "duration": 1.4634140000000002,
          "durationTicks": 192,
          "midi": 57,
          "name": "A3",
          "ticks": 18048,
          "time": 137.560916,
          "velocity": 0.6850393700787402
        },
        {
          "duration": 1.4634140000000002,
          "durationTicks": 192,
          "midi": 52,
          "name": "E3",
          "ticks": 18048,
          "time": 137.560916,
          "velocity": 0.6850393700787402
        },
        {
          "duration": 1.4634140000000002,
          "durationTicks": 192,
          "midi": 60,
          "name": "C4",
          "ticks": 18048,
          "time": 137.560916,
          "velocity": 0.6850393700787402
        },
        {
          "duration": 1.4634140000000002,
          "durationTicks": 192,
          "midi": 57,
          "name": "A3",
          "ticks": 18240,
          "time": 139.02433,
          "velocity": 0.6850393700787402
        },
        {
          "duration": 1.4634140000000002,
          "durationTicks": 192,
          "midi": 60,
          "name": "C4",
          "ticks": 18240,
          "time": 139.02433,
          "velocity": 0.6850393700787402
        },
        {
          "duration": 1.4634140000000002,
          "durationTicks": 192,
          "midi": 53,
          "name": "F3",
          "ticks": 18240,
          "time": 139.02433,
          "velocity": 0.6850393700787402
        },
        {
          "duration": 1.4634140000000002,
          "durationTicks": 192,
          "midi": 59,
          "name": "B3",
          "ticks": 18432,
          "time": 140.487744,
          "velocity": 0.6850393700787402
        },
        {
          "duration": 1.4634140000000002,
          "durationTicks": 192,
          "midi": 55,
          "name": "G3",
          "ticks": 18432,
          "time": 140.487744,
          "velocity": 0.6850393700787402
        },
        {
          "duration": 1.4634140000000002,
          "durationTicks": 192,
          "midi": 50,
          "name": "D3",
          "ticks": 18432,
          "time": 140.487744,
          "velocity": 0.6850393700787402
        },
        {
          "duration": 1.4634140000000002,
          "durationTicks": 192,
          "midi": 52,
          "name": "E3",
          "ticks": 18624,
          "time": 141.951158,
          "velocity": 0.6850393700787402
        },
        {
          "duration": 1.4634140000000002,
          "durationTicks": 192,
          "midi": 55,
          "name": "G3",
          "ticks": 18624,
          "time": 141.951158,
          "velocity": 0.6850393700787402
        },
        {
          "duration": 1.4634140000000002,
          "durationTicks": 192,
          "midi": 60,
          "name": "C4",
          "ticks": 18624,
          "time": 141.951158,
          "velocity": 0.6850393700787402
        },
        {
          "duration": 1.4634140000000002,
          "durationTicks": 192,
          "midi": 60,
          "name": "C4",
          "ticks": 18816,
          "time": 143.414572,
          "velocity": 0.6850393700787402
        },
        {
          "duration": 1.4634140000000002,
          "durationTicks": 192,
          "midi": 52,
          "name": "E3",
          "ticks": 18816,
          "time": 143.414572,
          "velocity": 0.6850393700787402
        },
        {
          "duration": 1.4634140000000002,
          "durationTicks": 192,
          "midi": 57,
          "name": "A3",
          "ticks": 18816,
          "time": 143.414572,
          "velocity": 0.6850393700787402
        },
        {
          "duration": 1.4634140000000002,
          "durationTicks": 192,
          "midi": 53,
          "name": "F3",
          "ticks": 19008,
          "time": 144.877986,
          "velocity": 0.6850393700787402
        },
        {
          "duration": 1.4634140000000002,
          "durationTicks": 192,
          "midi": 60,
          "name": "C4",
          "ticks": 19008,
          "time": 144.877986,
          "velocity": 0.6850393700787402
        },
        {
          "duration": 1.4634140000000002,
          "durationTicks": 192,
          "midi": 57,
          "name": "A3",
          "ticks": 19008,
          "time": 144.877986,
          "velocity": 0.6850393700787402
        },
        {
          "duration": 1.4634140000000002,
          "durationTicks": 192,
          "midi": 50,
          "name": "D3",
          "ticks": 19200,
          "time": 146.3414,
          "velocity": 0.6850393700787402
        },
        {
          "duration": 1.4634140000000002,
          "durationTicks": 192,
          "midi": 55,
          "name": "G3",
          "ticks": 19200,
          "time": 146.3414,
          "velocity": 0.6850393700787402
        },
        {
          "duration": 1.4634140000000002,
          "durationTicks": 192,
          "midi": 59,
          "name": "B3",
          "ticks": 19200,
          "time": 146.3414,
          "velocity": 0.6850393700787402
        },
        {
          "duration": 1.4634140000000002,
          "durationTicks": 192,
          "midi": 60,
          "name": "C4",
          "ticks": 19392,
          "time": 147.804814,
          "velocity": 0.6850393700787402
        },
        {
          "duration": 1.4634140000000002,
          "durationTicks": 192,
          "midi": 55,
          "name": "G3",
          "ticks": 19392,
          "time": 147.804814,
          "velocity": 0.6850393700787402
        },
        {
          "duration": 1.4634140000000002,
          "durationTicks": 192,
          "midi": 52,
          "name": "E3",
          "ticks": 19392,
          "time": 147.804814,
          "velocity": 0.6850393700787402
        },
        {
          "duration": 1.4634140000000002,
          "durationTicks": 192,
          "midi": 60,
          "name": "C4",
          "ticks": 19584,
          "time": 149.268228,
          "velocity": 0.6850393700787402
        },
        {
          "duration": 1.4634140000000002,
          "durationTicks": 192,
          "midi": 52,
          "name": "E3",
          "ticks": 19584,
          "time": 149.268228,
          "velocity": 0.6850393700787402
        },
        {
          "duration": 1.4634140000000002,
          "durationTicks": 192,
          "midi": 57,
          "name": "A3",
          "ticks": 19584,
          "time": 149.268228,
          "velocity": 0.6850393700787402
        },
        {
          "duration": 1.4634140000000002,
          "durationTicks": 192,
          "midi": 57,
          "name": "A3",
          "ticks": 19776,
          "time": 150.731642,
          "velocity": 0.6850393700787402
        },
        {
          "duration": 1.4634140000000002,
          "durationTicks": 192,
          "midi": 60,
          "name": "C4",
          "ticks": 19776,
          "time": 150.731642,
          "velocity": 0.6850393700787402
        },
        {
          "duration": 1.4634140000000002,
          "durationTicks": 192,
          "midi": 53,
          "name": "F3",
          "ticks": 19776,
          "time": 150.731642,
          "velocity": 0.6850393700787402
        },
        {
          "duration": 1.4634140000000002,
          "durationTicks": 192,
          "midi": 59,
          "name": "B3",
          "ticks": 19968,
          "time": 152.195056,
          "velocity": 0.6850393700787402
        },
        {
          "duration": 1.4634140000000002,
          "durationTicks": 192,
          "midi": 55,
          "name": "G3",
          "ticks": 19968,
          "time": 152.195056,
          "velocity": 0.6850393700787402
        },
        {
          "duration": 1.4634140000000002,
          "durationTicks": 192,
          "midi": 50,
          "name": "D3",
          "ticks": 19968,
          "time": 152.195056,
          "velocity": 0.6850393700787402
        },
        {
          "duration": 1.4557920520833534,
          "durationTicks": 191,
          "midi": 57,
          "name": "A3",
          "ticks": 20160,
          "time": 153.65847,
          "velocity": 0.6850393700787402
        },
        {
          "duration": 1.4557920520833534,
          "durationTicks": 191,
          "midi": 52,
          "name": "E3",
          "ticks": 20160,
          "time": 153.65847,
          "velocity": 0.6850393700787402
        },
        {
          "duration": 1.4557920520833534,
          "durationTicks": 191,
          "midi": 48,
          "name": "C3",
          "ticks": 20160,
          "time": 153.65847,
          "velocity": 0.6850393700787402
        },
        {
          "duration": 1.4634140000000002,
          "durationTicks": 192,
          "midi": 60,
          "name": "C4",
          "ticks": 20352,
          "time": 155.121884,
          "velocity": 0.6850393700787402
        },
        {
          "duration": 1.4634140000000002,
          "durationTicks": 192,
          "midi": 52,
          "name": "E3",
          "ticks": 20352,
          "time": 155.121884,
          "velocity": 0.6850393700787402
        },
        {
          "duration": 1.4634140000000002,
          "durationTicks": 192,
          "midi": 57,
          "name": "A3",
          "ticks": 20352,
          "time": 155.121884,
          "velocity": 0.6850393700787402
        },
        {
          "duration": 1.4634140000000002,
          "durationTicks": 192,
          "midi": 57,
          "name": "A3",
          "ticks": 20544,
          "time": 156.585298,
          "velocity": 0.6850393700787402
        },
        {
          "duration": 1.4634140000000002,
          "durationTicks": 192,
          "midi": 60,
          "name": "C4",
          "ticks": 20544,
          "time": 156.585298,
          "velocity": 0.6850393700787402
        },
        {
          "duration": 1.4634140000000002,
          "durationTicks": 192,
          "midi": 53,
          "name": "F3",
          "ticks": 20544,
          "time": 156.585298,
          "velocity": 0.6850393700787402
        },
        {
          "duration": 1.4634140000000002,
          "durationTicks": 192,
          "midi": 50,
          "name": "D3",
          "ticks": 20736,
          "time": 158.048712,
          "velocity": 0.6850393700787402
        },
        {
          "duration": 1.4634140000000002,
          "durationTicks": 192,
          "midi": 55,
          "name": "G3",
          "ticks": 20736,
          "time": 158.048712,
          "velocity": 0.6850393700787402
        },
        {
          "duration": 1.4634140000000002,
          "durationTicks": 192,
          "midi": 59,
          "name": "B3",
          "ticks": 20736,
          "time": 158.048712,
          "velocity": 0.6850393700787402
        },
        {
          "duration": 1.4634140000000002,
          "durationTicks": 192,
          "midi": 52,
          "name": "E3",
          "ticks": 20928,
          "time": 159.512126,
          "velocity": 0.6850393700787402
        },
        {
          "duration": 1.4634140000000002,
          "durationTicks": 192,
          "midi": 55,
          "name": "G3",
          "ticks": 20928,
          "time": 159.512126,
          "velocity": 0.6850393700787402
        },
        {
          "duration": 1.4634140000000002,
          "durationTicks": 192,
          "midi": 60,
          "name": "C4",
          "ticks": 20928,
          "time": 159.512126,
          "velocity": 0.6850393700787402
        },
        {
          "duration": 1.4634140000000002,
          "durationTicks": 192,
          "midi": 57,
          "name": "A3",
          "ticks": 21120,
          "time": 160.97554,
          "velocity": 0.6850393700787402
        },
        {
          "duration": 1.4634140000000002,
          "durationTicks": 192,
          "midi": 52,
          "name": "E3",
          "ticks": 21120,
          "time": 160.97554,
          "velocity": 0.6850393700787402
        },
        {
          "duration": 1.4634140000000002,
          "durationTicks": 192,
          "midi": 60,
          "name": "C4",
          "ticks": 21120,
          "time": 160.97554,
          "velocity": 0.6850393700787402
        },
        {
          "duration": 1.4634140000000002,
          "durationTicks": 192,
          "midi": 57,
          "name": "A3",
          "ticks": 21312,
          "time": 162.438954,
          "velocity": 0.6850393700787402
        },
        {
          "duration": 1.4634140000000002,
          "durationTicks": 192,
          "midi": 60,
          "name": "C4",
          "ticks": 21312,
          "time": 162.438954,
          "velocity": 0.6850393700787402
        },
        {
          "duration": 1.4634140000000002,
          "durationTicks": 192,
          "midi": 53,
          "name": "F3",
          "ticks": 21312,
          "time": 162.438954,
          "velocity": 0.6850393700787402
        },
        {
          "duration": 1.4634140000000002,
          "durationTicks": 192,
          "midi": 59,
          "name": "B3",
          "ticks": 21504,
          "time": 163.902368,
          "velocity": 0.6850393700787402
        },
        {
          "duration": 1.4634140000000002,
          "durationTicks": 192,
          "midi": 55,
          "name": "G3",
          "ticks": 21504,
          "time": 163.902368,
          "velocity": 0.6850393700787402
        },
        {
          "duration": 1.4634140000000002,
          "durationTicks": 192,
          "midi": 50,
          "name": "D3",
          "ticks": 21504,
          "time": 163.902368,
          "velocity": 0.6850393700787402
        },
        {
          "duration": 1.4557920520833534,
          "durationTicks": 191,
          "midi": 57,
          "name": "A3",
          "ticks": 21696,
          "time": 165.365782,
          "velocity": 0.6850393700787402
        },
        {
          "duration": 1.4557920520833534,
          "durationTicks": 191,
          "midi": 52,
          "name": "E3",
          "ticks": 21696,
          "time": 165.365782,
          "velocity": 0.6850393700787402
        },
        {
          "duration": 1.4557920520833534,
          "durationTicks": 191,
          "midi": 48,
          "name": "C3",
          "ticks": 21696,
          "time": 165.365782,
          "velocity": 0.6850393700787402
        }
      ]
    },
    {
      "channel": 0,
      "controlChanges": {
        "6": [
          {
            "number": 6,
            "ticks": 0,
            "time": 0,
            "value": 0.09448818897637795
          }
        ],
        "7": [
          {
            "number": 7,
            "ticks": 0,
            "time": 0,
            "value": 0.7874015748031497
          },
          {
            "number": 7,
            "ticks": 0,
            "time": 0,
            "value": 0.7874015748031497
          }
        ],
        "10": [
          {
            "number": 10,
            "ticks": 0,
            "time": 0,
            "value": 0.5039370078740157
          },
          {
            "number": 10,
            "ticks": 0,
            "time": 0,
            "value": 0.5039370078740157
          }
        ],
        "100": [
          {
            "number": 100,
            "ticks": 0,
            "time": 0,
            "value": 0
          }
        ],
        "101": [
          {
            "number": 101,
            "ticks": 0,
            "time": 0,
            "value": 0
          }
        ]
      },
      "pitchBends": [
        {
          "ticks": 0,
          "time": 0,
          "value": 0
        },
        {
          "ticks": 0,
          "time": 0,
          "value": 0
        }
      ],
      "instrument": {
        "family": "piano",
        "name": "acoustic grand piano",
        "number": 0
      },
      "name": "Elec.Piano",
      "notes": []
    },
    {
      "channel": 1,
      "controlChanges": {
        "6": [
          {
            "number": 6,
            "ticks": 0,
            "time": 0,
            "value": 0.09448818897637795
          },
          {
            "number": 6,
            "ticks": 22752,
            "time": 173.414559,
            "value": 0.09448818897637795
          },
          {
            "number": 6,
            "ticks": 22753,
            "time": 173.42218094791667,
            "value": 0.09448818897637795
          },
          {
            "number": 6,
            "ticks": 22753,
            "time": 173.42218094791667,
            "value": 0.09448818897637795
          }
        ],
        "7": [
          {
            "number": 7,
            "ticks": 0,
            "time": 0,
            "value": 0.7874015748031497
          },
          {
            "number": 7,
            "ticks": 0,
            "time": 0,
            "value": 0.7874015748031497
          },
          {
            "number": 7,
            "ticks": 0,
            "time": 0,
            "value": 0.7874015748031497
          },
          {
            "number": 7,
            "ticks": 22752,
            "time": 173.414559,
            "value": 0.7874015748031497
          },
          {
            "number": 7,
            "ticks": 22753,
            "time": 173.42218094791667,
            "value": 0.7874015748031497
          },
          {
            "number": 7,
            "ticks": 22753,
            "time": 173.42218094791667,
            "value": 0.7874015748031497
          }
        ],
        "10": [
          {
            "number": 10,
            "ticks": 0,
            "time": 0,
            "value": 0.5039370078740157
          },
          {
            "number": 10,
            "ticks": 0,
            "time": 0,
            "value": 0.5039370078740157
          },
          {
            "number": 10,
            "ticks": 0,
            "time": 0,
            "value": 0.5039370078740157
          },
          {
            "number": 10,
            "ticks": 22752,
            "time": 173.414559,
            "value": 0.5039370078740157
          },
          {
            "number": 10,
            "ticks": 22753,
            "time": 173.42218094791667,
            "value": 0.5039370078740157
          },
          {
            "number": 10,
            "ticks": 22753,
            "time": 173.42218094791667,
            "value": 0.5039370078740157
          }
        ],
        "100": [
          {
            "number": 100,
            "ticks": 0,
            "time": 0,
            "value": 0
          },
          {
            "number": 100,
            "ticks": 22752,
            "time": 173.414559,
            "value": 0
          },
          {
            "number": 100,
            "ticks": 22753,
            "time": 173.42218094791667,
            "value": 0
          },
          {
            "number": 100,
            "ticks": 22753,
            "time": 173.42218094791667,
            "value": 0
          }
        ],
        "101": [
          {
            "number": 101,
            "ticks": 0,
            "time": 0,
            "value": 0
          },
          {
            "number": 101,
            "ticks": 22752,
            "time": 173.414559,
            "value": 0
          },
          {
            "number": 101,
            "ticks": 22753,
            "time": 173.42218094791667,
            "value": 0
          },
          {
            "number": 101,
            "ticks": 22753,
            "time": 173.42218094791667,
            "value": 0
          }
        ]
      },
      "pitchBends": [
        {
          "ticks": 0,
          "time": 0,
          "value": 0
        },
        {
          "ticks": 0,
          "time": 0,
          "value": 0
        },
        {
          "ticks": 0,
          "time": 0,
          "value": 0
        },
        {
          "ticks": 22752,
          "time": 173.414559,
          "value": 0
        },
        {
          "ticks": 22753,
          "time": 173.42218094791667,
          "value": 0
        },
        {
          "ticks": 22753,
          "time": 173.42218094791667,
          "value": 0
        }
      ],
      "instrument": {
        "family": "piano",
        "name": "electric piano 1",
        "number": 4
      },
      "name": "",
      "notes": [
        {
          "duration": 0.7317070000000001,
          "durationTicks": 96,
          "midi": 71,
          "name": "B4",
          "ticks": 384,
          "time": 2.926828,
          "velocity": 0.5275590551181102
        },
        {
          "duration": 0.7317070000000001,
          "durationTicks": 96,
          "midi": 63,
          "name": "D#4",
          "ticks": 384,
          "time": 2.926828,
          "velocity": 0.5275590551181102
        },
        {
          "duration": 0.7317070000000001,
          "durationTicks": 96,
          "midi": 68,
          "name": "G#4",
          "ticks": 384,
          "time": 2.926828,
          "velocity": 0.5275590551181102
        },
        {
          "duration": 0.7317070000000001,
          "durationTicks": 96,
          "midi": 68,
          "name": "G#4",
          "ticks": 576,
          "time": 4.390242,
          "velocity": 0.5275590551181102
        },
        {
          "duration": 0.7317070000000001,
          "durationTicks": 96,
          "midi": 71,
          "name": "B4",
          "ticks": 576,
          "time": 4.390242,
          "velocity": 0.5275590551181102
        },
        {
          "duration": 0.7317070000000001,
          "durationTicks": 96,
          "midi": 64,
          "name": "E4",
          "ticks": 576,
          "time": 4.390242,
          "velocity": 0.5275590551181102
        },
        {
          "duration": 0.7317070000000001,
          "durationTicks": 96,
          "midi": 66,
          "name": "F#4",
          "ticks": 768,
          "time": 5.853656,
          "velocity": 0.5275590551181102
        },
        {
          "duration": 0.7317070000000001,
          "durationTicks": 96,
          "midi": 70,
          "name": "A#4",
          "ticks": 768,
          "time": 5.853656,
          "velocity": 0.5275590551181102
        },
        {
          "duration": 0.7317070000000001,
          "durationTicks": 96,
          "midi": 61,
          "name": "C#4",
          "ticks": 768,
          "time": 5.853656,
          "velocity": 0.5275590551181102
        },
        {
          "duration": 0.7317069999999992,
          "durationTicks": 96,
          "midi": 71,
          "name": "B4",
          "ticks": 960,
          "time": 7.31707,
          "velocity": 0.5275590551181102
        },
        {
          "duration": 0.7317069999999992,
          "durationTicks": 96,
          "midi": 66,
          "name": "F#4",
          "ticks": 960,
          "time": 7.31707,
          "velocity": 0.5275590551181102
        },
        {
          "duration": 0.7317069999999992,
          "durationTicks": 96,
          "midi": 63,
          "name": "D#4",
          "ticks": 960,
          "time": 7.31707,
          "velocity": 0.5275590551181102
        },
        {
          "duration": 0.7317070000000001,
          "durationTicks": 96,
          "midi": 71,
          "name": "B4",
          "ticks": 1152,
          "time": 8.780484,
          "velocity": 0.5275590551181102
        },
        {
          "duration": 0.7317070000000001,
          "durationTicks": 96,
          "midi": 63,
          "name": "D#4",
          "ticks": 1152,
          "time": 8.780484,
          "velocity": 0.5275590551181102
        },
        {
          "duration": 0.7317070000000001,
          "durationTicks": 96,
          "midi": 68,
          "name": "G#4",
          "ticks": 1152,
          "time": 8.780484,
          "velocity": 0.5275590551181102
        },
        {
          "duration": 0.7317070000000001,
          "durationTicks": 96,
          "midi": 64,
          "name": "E4",
          "ticks": 1344,
          "time": 10.243898,
          "velocity": 0.5275590551181102
        },
        {
          "duration": 0.7317070000000001,
          "durationTicks": 96,
          "midi": 71,
          "name": "B4",
          "ticks": 1344,
          "time": 10.243898,
          "velocity": 0.5275590551181102
        },
        {
          "duration": 0.7317070000000001,
          "durationTicks": 96,
          "midi": 68,
          "name": "G#4",
          "ticks": 1344,
          "time": 10.243898,
          "velocity": 0.5275590551181102
        },
        {
          "duration": 0.7317070000000001,
          "durationTicks": 96,
          "midi": 66,
          "name": "F#4",
          "ticks": 1536,
          "time": 11.707312,
          "velocity": 0.5275590551181102
        },
        {
          "duration": 0.7317070000000001,
          "durationTicks": 96,
          "midi": 70,
          "name": "A#4",
          "ticks": 1536,
          "time": 11.707312,
          "velocity": 0.5275590551181102
        },
        {
          "duration": 0.7317070000000001,
          "durationTicks": 96,
          "midi": 61,
          "name": "C#4",
          "ticks": 1536,
          "time": 11.707312,
          "velocity": 0.5275590551181102
        },
        {
          "duration": 0.7317070000000001,
          "durationTicks": 96,
          "midi": 71,
          "name": "B4",
          "ticks": 1728,
          "time": 13.170726,
          "velocity": 0.5275590551181102
        },
        {
          "duration": 0.7317070000000001,
          "durationTicks": 96,
          "midi": 63,
          "name": "D#4",
          "ticks": 1728,
          "time": 13.170726,
          "velocity": 0.5275590551181102
        },
        {
          "duration": 0.7317070000000001,
          "durationTicks": 96,
          "midi": 68,
          "name": "G#4",
          "ticks": 1728,
          "time": 13.170726,
          "velocity": 0.5275590551181102
        },
        {
          "duration": 0.09146337500000001,
          "durationTicks": 12,
          "midi": 68,
          "name": "G#4",
          "ticks": 1872,
          "time": 14.2682865,
          "velocity": 0.5275590551181102
        },
        {
          "duration": 0.09146337500000001,
          "durationTicks": 12,
          "midi": 63,
          "name": "D#4",
          "ticks": 1872,
          "time": 14.2682865,
          "velocity": 0.5275590551181102
        },
        {
          "duration": 0.09146337500000001,
          "durationTicks": 12,
          "midi": 71,
          "name": "B4",
          "ticks": 1872,
          "time": 14.2682865,
          "velocity": 0.5275590551181102
        },
        {
          "duration": 0.7317070000000001,
          "durationTicks": 96,
          "midi": 68,
          "name": "G#4",
          "ticks": 1920,
          "time": 14.63414,
          "velocity": 0.5275590551181102
        },
        {
          "duration": 0.7317070000000001,
          "durationTicks": 96,
          "midi": 63,
          "name": "D#4",
          "ticks": 1920,
          "time": 14.63414,
          "velocity": 0.5275590551181102
        },
        {
          "duration": 0.7317070000000001,
          "durationTicks": 96,
          "midi": 71,
          "name": "B4",
          "ticks": 1920,
          "time": 14.63414,
          "velocity": 0.5275590551181102
        },
        {
          "duration": 0.7317070000000001,
          "durationTicks": 96,
          "midi": 68,
          "name": "G#4",
          "ticks": 2112,
          "time": 16.097554,
          "velocity": 0.5275590551181102
        },
        {
          "duration": 0.7317070000000001,
          "durationTicks": 96,
          "midi": 71,
          "name": "B4",
          "ticks": 2112,
          "time": 16.097554,
          "velocity": 0.5275590551181102
        },
        {
          "duration": 0.7317070000000001,
          "durationTicks": 96,
          "midi": 64,
          "name": "E4",
          "ticks": 2112,
          "time": 16.097554,
          "velocity": 0.5275590551181102
        },
        {
          "duration": 0.7317070000000001,
          "durationTicks": 96,
          "midi": 61,
          "name": "C#4",
          "ticks": 2304,
          "time": 17.560968,
          "velocity": 0.5275590551181102
        },
        {
          "duration": 0.7317070000000001,
          "durationTicks": 96,
          "midi": 70,
          "name": "A#4",
          "ticks": 2304,
          "time": 17.560968,
          "velocity": 0.5275590551181102
        },
        {
          "duration": 0.7317070000000001,
          "durationTicks": 96,
          "midi": 66,
          "name": "F#4",
          "ticks": 2304,
          "time": 17.560968,
          "velocity": 0.5275590551181102
        },
        {
          "duration": 0.7317070000000001,
          "durationTicks": 96,
          "midi": 63,
          "name": "D#4",
          "ticks": 2496,
          "time": 19.024382,
          "velocity": 0.5275590551181102
        },
        {
          "duration": 0.7317070000000001,
          "durationTicks": 96,
          "midi": 66,
          "name": "F#4",
          "ticks": 2496,
          "time": 19.024382,
          "velocity": 0.5275590551181102
        },
        {
          "duration": 0.7317070000000001,
          "durationTicks": 96,
          "midi": 71,
          "name": "B4",
          "ticks": 2496,
          "time": 19.024382,
          "velocity": 0.5275590551181102
        },
        {
          "duration": 0.7317070000000001,
          "durationTicks": 96,
          "midi": 68,
          "name": "G#4",
          "ticks": 2688,
          "time": 20.487796,
          "velocity": 0.5275590551181102
        },
        {
          "duration": 0.7317070000000001,
          "durationTicks": 96,
          "midi": 63,
          "name": "D#4",
          "ticks": 2688,
          "time": 20.487796,
          "velocity": 0.5275590551181102
        },
        {
          "duration": 0.7317070000000001,
          "durationTicks": 96,
          "midi": 71,
          "name": "B4",
          "ticks": 2688,
          "time": 20.487796,
          "velocity": 0.5275590551181102
        },
        {
          "duration": 0.7317070000000001,
          "durationTicks": 96,
          "midi": 68,
          "name": "G#4",
          "ticks": 2880,
          "time": 21.95121,
          "velocity": 0.5275590551181102
        },
        {
          "duration": 0.7317070000000001,
          "durationTicks": 96,
          "midi": 71,
          "name": "B4",
          "ticks": 2880,
          "time": 21.95121,
          "velocity": 0.5275590551181102
        },
        {
          "duration": 0.7317070000000001,
          "durationTicks": 96,
          "midi": 64,
          "name": "E4",
          "ticks": 2880,
          "time": 21.95121,
          "velocity": 0.5275590551181102
        },
        {
          "duration": 0.7317070000000001,
          "durationTicks": 96,
          "midi": 61,
          "name": "C#4",
          "ticks": 3072,
          "time": 23.414624,
          "velocity": 0.5275590551181102
        },
        {
          "duration": 0.7317070000000001,
          "durationTicks": 96,
          "midi": 70,
          "name": "A#4",
          "ticks": 3072,
          "time": 23.414624,
          "velocity": 0.5275590551181102
        },
        {
          "duration": 0.7317070000000001,
          "durationTicks": 96,
          "midi": 66,
          "name": "F#4",
          "ticks": 3072,
          "time": 23.414624,
          "velocity": 0.5275590551181102
        },
        {
          "duration": 0.7317070000000001,
          "durationTicks": 96,
          "midi": 71,
          "name": "B4",
          "ticks": 3264,
          "time": 24.878038,
          "velocity": 0.5275590551181102
        },
        {
          "duration": 0.7317070000000001,
          "durationTicks": 96,
          "midi": 66,
          "name": "F#4",
          "ticks": 3264,
          "time": 24.878038,
          "velocity": 0.5275590551181102
        },
        {
          "duration": 0.7317070000000001,
          "durationTicks": 96,
          "midi": 63,
          "name": "D#4",
          "ticks": 3264,
          "time": 24.878038,
          "velocity": 0.5275590551181102
        },
        {
          "duration": 0.7317070000000001,
          "durationTicks": 96,
          "midi": 71,
          "name": "B4",
          "ticks": 3456,
          "time": 26.341452,
          "velocity": 0.5275590551181102
        },
        {
          "duration": 0.7317070000000001,
          "durationTicks": 96,
          "midi": 63,
          "name": "D#4",
          "ticks": 3456,
          "time": 26.341452,
          "velocity": 0.5275590551181102
        },
        {
          "duration": 0.7317070000000001,
          "durationTicks": 96,
          "midi": 68,
          "name": "G#4",
          "ticks": 3456,
          "time": 26.341452,
          "velocity": 0.5275590551181102
        },
        {
          "duration": 0.7317070000000001,
          "durationTicks": 96,
          "midi": 68,
          "name": "G#4",
          "ticks": 3648,
          "time": 27.804866,
          "velocity": 0.5275590551181102
        },
        {
          "duration": 0.7317070000000001,
          "durationTicks": 96,
          "midi": 71,
          "name": "B4",
          "ticks": 3648,
          "time": 27.804866,
          "velocity": 0.5275590551181102
        },
        {
          "duration": 0.7317070000000001,
          "durationTicks": 96,
          "midi": 64,
          "name": "E4",
          "ticks": 3648,
          "time": 27.804866,
          "velocity": 0.5275590551181102
        },
        {
          "duration": 0.7317070000000001,
          "durationTicks": 96,
          "midi": 66,
          "name": "F#4",
          "ticks": 3840,
          "time": 29.26828,
          "velocity": 0.5275590551181102
        },
        {
          "duration": 0.7317070000000001,
          "durationTicks": 96,
          "midi": 70,
          "name": "A#4",
          "ticks": 3840,
          "time": 29.26828,
          "velocity": 0.5275590551181102
        },
        {
          "duration": 0.7317070000000001,
          "durationTicks": 96,
          "midi": 61,
          "name": "C#4",
          "ticks": 3840,
          "time": 29.26828,
          "velocity": 0.5275590551181102
        },
        {
          "duration": 0.7317070000000001,
          "durationTicks": 96,
          "midi": 63,
          "name": "D#4",
          "ticks": 4032,
          "time": 30.731694,
          "velocity": 0.5275590551181102
        },
        {
          "duration": 0.7317070000000001,
          "durationTicks": 96,
          "midi": 66,
          "name": "F#4",
          "ticks": 4032,
          "time": 30.731694,
          "velocity": 0.5275590551181102
        },
        {
          "duration": 0.7317070000000001,
          "durationTicks": 96,
          "midi": 71,
          "name": "B4",
          "ticks": 4032,
          "time": 30.731694,
          "velocity": 0.5275590551181102
        },
        {
          "duration": 0.7317070000000001,
          "durationTicks": 96,
          "midi": 71,
          "name": "B4",
          "ticks": 4224,
          "time": 32.195108,
          "velocity": 0.5275590551181102
        },
        {
          "duration": 0.7317070000000001,
          "durationTicks": 96,
          "midi": 63,
          "name": "D#4",
          "ticks": 4224,
          "time": 32.195108,
          "velocity": 0.5275590551181102
        },
        {
          "duration": 0.7317070000000001,
          "durationTicks": 96,
          "midi": 68,
          "name": "G#4",
          "ticks": 4224,
          "time": 32.195108,
          "velocity": 0.5275590551181102
        },
        {
          "duration": 0.7317070000000001,
          "durationTicks": 96,
          "midi": 68,
          "name": "G#4",
          "ticks": 4416,
          "time": 33.658522,
          "velocity": 0.5275590551181102
        },
        {
          "duration": 0.7317070000000001,
          "durationTicks": 96,
          "midi": 71,
          "name": "B4",
          "ticks": 4416,
          "time": 33.658522,
          "velocity": 0.5275590551181102
        },
        {
          "duration": 0.7317070000000001,
          "durationTicks": 96,
          "midi": 64,
          "name": "E4",
          "ticks": 4416,
          "time": 33.658522,
          "velocity": 0.5275590551181102
        },
        {
          "duration": 0.7317070000000001,
          "durationTicks": 96,
          "midi": 66,
          "name": "F#4",
          "ticks": 4608,
          "time": 35.121936,
          "velocity": 0.5275590551181102
        },
        {
          "duration": 0.7317070000000001,
          "durationTicks": 96,
          "midi": 70,
          "name": "A#4",
          "ticks": 4608,
          "time": 35.121936,
          "velocity": 0.5275590551181102
        },
        {
          "duration": 0.7317070000000001,
          "durationTicks": 96,
          "midi": 61,
          "name": "C#4",
          "ticks": 4608,
          "time": 35.121936,
          "velocity": 0.5275590551181102
        },
        {
          "duration": 1.4634140000000002,
          "durationTicks": 192,
          "midi": 59,
          "name": "B3",
          "ticks": 4800,
          "time": 36.58535,
          "velocity": 0.5748031496062992
        },
        {
          "duration": 1.4634140000000002,
          "durationTicks": 192,
          "midi": 68,
          "name": "G#4",
          "ticks": 4800,
          "time": 36.58535,
          "velocity": 0.5748031496062992
        },
        {
          "duration": 1.4634140000000002,
          "durationTicks": 192,
          "midi": 63,
          "name": "D#4",
          "ticks": 4800,
          "time": 36.58535,
          "velocity": 0.5748031496062992
        },
        {
          "duration": 1.4634140000000002,
          "durationTicks": 192,
          "midi": 68,
          "name": "G#4",
          "ticks": 8064,
          "time": 61.463388,
          "velocity": 0.5039370078740157
        },
        {
          "duration": 1.4634140000000002,
          "durationTicks": 192,
          "midi": 63,
          "name": "D#4",
          "ticks": 8064,
          "time": 61.463388,
          "velocity": 0.5039370078740157
        },
        {
          "duration": 1.4634140000000002,
          "durationTicks": 192,
          "midi": 71,
          "name": "B4",
          "ticks": 8064,
          "time": 61.463388,
          "velocity": 0.5039370078740157
        },
        {
          "duration": 1.463413999999993,
          "durationTicks": 192,
          "midi": 71,
          "name": "B4",
          "ticks": 8256,
          "time": 62.926802,
          "velocity": 0.5039370078740157
        },
        {
          "duration": 1.463413999999993,
          "durationTicks": 192,
          "midi": 64,
          "name": "E4",
          "ticks": 8256,
          "time": 62.926802,
          "velocity": 0.5039370078740157
        },
        {
          "duration": 1.463413999999993,
          "durationTicks": 192,
          "midi": 68,
          "name": "G#4",
          "ticks": 8256,
          "time": 62.926802,
          "velocity": 0.5039370078740157
        },
        {
          "duration": 1.4634140000000002,
          "durationTicks": 192,
          "midi": 70,
          "name": "A#4",
          "ticks": 8448,
          "time": 64.390216,
          "velocity": 0.5039370078740157
        },
        {
          "duration": 1.4634140000000002,
          "durationTicks": 192,
          "midi": 66,
          "name": "F#4",
          "ticks": 8448,
          "time": 64.390216,
          "velocity": 0.5039370078740157
        },
        {
          "duration": 1.4634140000000002,
          "durationTicks": 192,
          "midi": 61,
          "name": "C#4",
          "ticks": 8448,
          "time": 64.390216,
          "velocity": 0.5039370078740157
        },
        {
          "duration": 1.4634140000000002,
          "durationTicks": 192,
          "midi": 71,
          "name": "B4",
          "ticks": 8640,
          "time": 65.85363,
          "velocity": 0.5039370078740157
        },
        {
          "duration": 1.4634140000000002,
          "durationTicks": 192,
          "midi": 66,
          "name": "F#4",
          "ticks": 8640,
          "time": 65.85363,
          "velocity": 0.5039370078740157
        },
        {
          "duration": 1.4634140000000002,
          "durationTicks": 192,
          "midi": 63,
          "name": "D#4",
          "ticks": 8640,
          "time": 65.85363,
          "velocity": 0.5039370078740157
        },
        {
          "duration": 1.4634140000000002,
          "durationTicks": 192,
          "midi": 68,
          "name": "G#4",
          "ticks": 8832,
          "time": 67.317044,
          "velocity": 0.5039370078740157
        },
        {
          "duration": 1.4634140000000002,
          "durationTicks": 192,
          "midi": 63,
          "name": "D#4",
          "ticks": 8832,
          "time": 67.317044,
          "velocity": 0.5039370078740157
        },
        {
          "duration": 1.4634140000000002,
          "durationTicks": 192,
          "midi": 71,
          "name": "B4",
          "ticks": 8832,
          "time": 67.317044,
          "velocity": 0.5039370078740157
        },
        {
          "duration": 1.4634140000000002,
          "durationTicks": 192,
          "midi": 71,
          "name": "B4",
          "ticks": 9024,
          "time": 68.780458,
          "velocity": 0.5039370078740157
        },
        {
          "duration": 1.4634140000000002,
          "durationTicks": 192,
          "midi": 64,
          "name": "E4",
          "ticks": 9024,
          "time": 68.780458,
          "velocity": 0.5039370078740157
        },
        {
          "duration": 1.4634140000000002,
          "durationTicks": 192,
          "midi": 68,
          "name": "G#4",
          "ticks": 9024,
          "time": 68.780458,
          "velocity": 0.5039370078740157
        },
        {
          "duration": 1.4634140000000002,
          "durationTicks": 192,
          "midi": 70,
          "name": "A#4",
          "ticks": 9216,
          "time": 70.243872,
          "velocity": 0.5039370078740157
        },
        {
          "duration": 1.4634140000000002,
          "durationTicks": 192,
          "midi": 66,
          "name": "F#4",
          "ticks": 9216,
          "time": 70.243872,
          "velocity": 0.5039370078740157
        },
        {
          "duration": 1.4634140000000002,
          "durationTicks": 192,
          "midi": 61,
          "name": "C#4",
          "ticks": 9216,
          "time": 70.243872,
          "velocity": 0.5039370078740157
        },
        {
          "duration": 1.4634140000000002,
          "durationTicks": 192,
          "midi": 63,
          "name": "D#4",
          "ticks": 9408,
          "time": 71.707286,
          "velocity": 0.5039370078740157
        },
        {
          "duration": 1.4634140000000002,
          "durationTicks": 192,
          "midi": 59,
          "name": "B3",
          "ticks": 9408,
          "time": 71.707286,
          "velocity": 0.5039370078740157
        },
        {
          "duration": 1.4634140000000002,
          "durationTicks": 192,
          "midi": 68,
          "name": "G#4",
          "ticks": 9408,
          "time": 71.707286,
          "velocity": 0.5039370078740157
        },
        {
          "duration": 0.7317070000000001,
          "durationTicks": 96,
          "midi": 68,
          "name": "G#4",
          "ticks": 9600,
          "time": 73.1707,
          "velocity": 0.47244094488188976
        },
        {
          "duration": 0.7317070000000001,
          "durationTicks": 96,
          "midi": 63,
          "name": "D#4",
          "ticks": 9600,
          "time": 73.1707,
          "velocity": 0.47244094488188976
        },
        {
          "duration": 0.7317070000000001,
          "durationTicks": 96,
          "midi": 71,
          "name": "B4",
          "ticks": 9600,
          "time": 73.1707,
          "velocity": 0.47244094488188976
        },
        {
          "duration": 0.7317070000000001,
          "durationTicks": 96,
          "midi": 68,
          "name": "G#4",
          "ticks": 9792,
          "time": 74.634114,
          "velocity": 0.47244094488188976
        },
        {
          "duration": 0.7317070000000001,
          "durationTicks": 96,
          "midi": 71,
          "name": "B4",
          "ticks": 9792,
          "time": 74.634114,
          "velocity": 0.47244094488188976
        },
        {
          "duration": 0.7317070000000001,
          "durationTicks": 96,
          "midi": 64,
          "name": "E4",
          "ticks": 9792,
          "time": 74.634114,
          "velocity": 0.47244094488188976
        },
        {
          "duration": 0.7317070000000001,
          "durationTicks": 96,
          "midi": 61,
          "name": "C#4",
          "ticks": 9984,
          "time": 76.097528,
          "velocity": 0.47244094488188976
        },
        {
          "duration": 0.7317070000000001,
          "durationTicks": 96,
          "midi": 70,
          "name": "A#4",
          "ticks": 9984,
          "time": 76.097528,
          "velocity": 0.47244094488188976
        },
        {
          "duration": 0.7317070000000001,
          "durationTicks": 96,
          "midi": 66,
          "name": "F#4",
          "ticks": 9984,
          "time": 76.097528,
          "velocity": 0.47244094488188976
        },
        {
          "duration": 0.7317070000000001,
          "durationTicks": 96,
          "midi": 63,
          "name": "D#4",
          "ticks": 10176,
          "time": 77.560942,
          "velocity": 0.47244094488188976
        },
        {
          "duration": 0.7317070000000001,
          "durationTicks": 96,
          "midi": 66,
          "name": "F#4",
          "ticks": 10176,
          "time": 77.560942,
          "velocity": 0.47244094488188976
        },
        {
          "duration": 0.7317070000000001,
          "durationTicks": 96,
          "midi": 71,
          "name": "B4",
          "ticks": 10176,
          "time": 77.560942,
          "velocity": 0.47244094488188976
        },
        {
          "duration": 0.7317070000000001,
          "durationTicks": 96,
          "midi": 68,
          "name": "G#4",
          "ticks": 10368,
          "time": 79.024356,
          "velocity": 0.47244094488188976
        },
        {
          "duration": 0.7317070000000001,
          "durationTicks": 96,
          "midi": 63,
          "name": "D#4",
          "ticks": 10368,
          "time": 79.024356,
          "velocity": 0.47244094488188976
        },
        {
          "duration": 0.7317070000000001,
          "durationTicks": 96,
          "midi": 71,
          "name": "B4",
          "ticks": 10368,
          "time": 79.024356,
          "velocity": 0.47244094488188976
        },
        {
          "duration": 0.7317070000000001,
          "durationTicks": 96,
          "midi": 68,
          "name": "G#4",
          "ticks": 10560,
          "time": 80.48777,
          "velocity": 0.47244094488188976
        },
        {
          "duration": 0.7317070000000001,
          "durationTicks": 96,
          "midi": 71,
          "name": "B4",
          "ticks": 10560,
          "time": 80.48777,
          "velocity": 0.47244094488188976
        },
        {
          "duration": 0.7317070000000001,
          "durationTicks": 96,
          "midi": 64,
          "name": "E4",
          "ticks": 10560,
          "time": 80.48777,
          "velocity": 0.47244094488188976
        },
        {
          "duration": 0.7317070000000001,
          "durationTicks": 96,
          "midi": 61,
          "name": "C#4",
          "ticks": 10752,
          "time": 81.951184,
          "velocity": 0.47244094488188976
        },
        {
          "duration": 0.7317070000000001,
          "durationTicks": 96,
          "midi": 70,
          "name": "A#4",
          "ticks": 10752,
          "time": 81.951184,
          "velocity": 0.47244094488188976
        },
        {
          "duration": 0.7317070000000001,
          "durationTicks": 96,
          "midi": 66,
          "name": "F#4",
          "ticks": 10752,
          "time": 81.951184,
          "velocity": 0.47244094488188976
        },
        {
          "duration": 0.7317070000000001,
          "durationTicks": 96,
          "midi": 71,
          "name": "B4",
          "ticks": 10944,
          "time": 83.414598,
          "velocity": 0.47244094488188976
        },
        {
          "duration": 0.7317070000000001,
          "durationTicks": 96,
          "midi": 66,
          "name": "F#4",
          "ticks": 10944,
          "time": 83.414598,
          "velocity": 0.47244094488188976
        },
        {
          "duration": 0.7317070000000001,
          "durationTicks": 96,
          "midi": 63,
          "name": "D#4",
          "ticks": 10944,
          "time": 83.414598,
          "velocity": 0.47244094488188976
        },
        {
          "duration": 0.7317070000000001,
          "durationTicks": 96,
          "midi": 71,
          "name": "B4",
          "ticks": 11136,
          "time": 84.878012,
          "velocity": 0.47244094488188976
        },
        {
          "duration": 0.7317070000000001,
          "durationTicks": 96,
          "midi": 63,
          "name": "D#4",
          "ticks": 11136,
          "time": 84.878012,
          "velocity": 0.47244094488188976
        },
        {
          "duration": 0.7317070000000001,
          "durationTicks": 96,
          "midi": 68,
          "name": "G#4",
          "ticks": 11136,
          "time": 84.878012,
          "velocity": 0.47244094488188976
        },
        {
          "duration": 0.7317070000000001,
          "durationTicks": 96,
          "midi": 68,
          "name": "G#4",
          "ticks": 11328,
          "time": 86.341426,
          "velocity": 0.47244094488188976
        },
        {
          "duration": 0.7317070000000001,
          "durationTicks": 96,
          "midi": 71,
          "name": "B4",
          "ticks": 11328,
          "time": 86.341426,
          "velocity": 0.47244094488188976
        },
        {
          "duration": 0.7317070000000001,
          "durationTicks": 96,
          "midi": 64,
          "name": "E4",
          "ticks": 11328,
          "time": 86.341426,
          "velocity": 0.47244094488188976
        },
        {
          "duration": 0.7317070000000001,
          "durationTicks": 96,
          "midi": 66,
          "name": "F#4",
          "ticks": 11520,
          "time": 87.80484,
          "velocity": 0.47244094488188976
        },
        {
          "duration": 0.7317070000000001,
          "durationTicks": 96,
          "midi": 70,
          "name": "A#4",
          "ticks": 11520,
          "time": 87.80484,
          "velocity": 0.47244094488188976
        },
        {
          "duration": 0.7317070000000001,
          "durationTicks": 96,
          "midi": 61,
          "name": "C#4",
          "ticks": 11520,
          "time": 87.80484,
          "velocity": 0.47244094488188976
        },
        {
          "duration": 0.7317070000000001,
          "durationTicks": 96,
          "midi": 63,
          "name": "D#4",
          "ticks": 11712,
          "time": 89.268254,
          "velocity": 0.47244094488188976
        },
        {
          "duration": 0.7317070000000001,
          "durationTicks": 96,
          "midi": 66,
          "name": "F#4",
          "ticks": 11712,
          "time": 89.268254,
          "velocity": 0.47244094488188976
        },
        {
          "duration": 0.7317070000000001,
          "durationTicks": 96,
          "midi": 71,
          "name": "B4",
          "ticks": 11712,
          "time": 89.268254,
          "velocity": 0.47244094488188976
        },
        {
          "duration": 0.7317070000000001,
          "durationTicks": 96,
          "midi": 71,
          "name": "B4",
          "ticks": 11904,
          "time": 90.731668,
          "velocity": 0.47244094488188976
        },
        {
          "duration": 0.7317070000000001,
          "durationTicks": 96,
          "midi": 63,
          "name": "D#4",
          "ticks": 11904,
          "time": 90.731668,
          "velocity": 0.47244094488188976
        },
        {
          "duration": 0.7317070000000001,
          "durationTicks": 96,
          "midi": 68,
          "name": "G#4",
          "ticks": 11904,
          "time": 90.731668,
          "velocity": 0.47244094488188976
        },
        {
          "duration": 0.7317070000000001,
          "durationTicks": 96,
          "midi": 68,
          "name": "G#4",
          "ticks": 12096,
          "time": 92.195082,
          "velocity": 0.47244094488188976
        },
        {
          "duration": 0.7317070000000001,
          "durationTicks": 96,
          "midi": 71,
          "name": "B4",
          "ticks": 12096,
          "time": 92.195082,
          "velocity": 0.47244094488188976
        },
        {
          "duration": 0.7317070000000001,
          "durationTicks": 96,
          "midi": 64,
          "name": "E4",
          "ticks": 12096,
          "time": 92.195082,
          "velocity": 0.47244094488188976
        },
        {
          "duration": 0.7317070000000001,
          "durationTicks": 96,
          "midi": 66,
          "name": "F#4",
          "ticks": 12288,
          "time": 93.658496,
          "velocity": 0.47244094488188976
        },
        {
          "duration": 0.7317070000000001,
          "durationTicks": 96,
          "midi": 70,
          "name": "A#4",
          "ticks": 12288,
          "time": 93.658496,
          "velocity": 0.47244094488188976
        },
        {
          "duration": 0.7317070000000001,
          "durationTicks": 96,
          "midi": 61,
          "name": "C#4",
          "ticks": 12288,
          "time": 93.658496,
          "velocity": 0.47244094488188976
        },
        {
          "duration": 1.4634140000000002,
          "durationTicks": 192,
          "midi": 63,
          "name": "D#4",
          "ticks": 12480,
          "time": 95.12191,
          "velocity": 0.47244094488188976
        },
        {
          "duration": 1.4634140000000002,
          "durationTicks": 192,
          "midi": 68,
          "name": "G#4",
          "ticks": 12480,
          "time": 95.12191,
          "velocity": 0.47244094488188976
        },
        {
          "duration": 1.4634140000000002,
          "durationTicks": 192,
          "midi": 59,
          "name": "B3",
          "ticks": 12480,
          "time": 95.12191,
          "velocity": 0.47244094488188976
        },
        {
          "duration": 1.4634140000000002,
          "durationTicks": 192,
          "midi": 71,
          "name": "B4",
          "ticks": 15744,
          "time": 119.999948,
          "velocity": 0.5039370078740157
        },
        {
          "duration": 1.4634140000000002,
          "durationTicks": 192,
          "midi": 63,
          "name": "D#4",
          "ticks": 15744,
          "time": 119.999948,
          "velocity": 0.5039370078740157
        },
        {
          "duration": 1.4634140000000002,
          "durationTicks": 192,
          "midi": 68,
          "name": "G#4",
          "ticks": 15744,
          "time": 119.999948,
          "velocity": 0.5039370078740157
        },
        {
          "duration": 1.4634140000000002,
          "durationTicks": 192,
          "midi": 71,
          "name": "B4",
          "ticks": 15936,
          "time": 121.463362,
          "velocity": 0.5039370078740157
        },
        {
          "duration": 1.4634140000000002,
          "durationTicks": 192,
          "midi": 64,
          "name": "E4",
          "ticks": 15936,
          "time": 121.463362,
          "velocity": 0.5039370078740157
        },
        {
          "duration": 1.4634140000000002,
          "durationTicks": 192,
          "midi": 68,
          "name": "G#4",
          "ticks": 15936,
          "time": 121.463362,
          "velocity": 0.5039370078740157
        },
        {
          "duration": 1.4634140000000002,
          "durationTicks": 192,
          "midi": 61,
          "name": "C#4",
          "ticks": 16128,
          "time": 122.926776,
          "velocity": 0.5039370078740157
        },
        {
          "duration": 1.4634140000000002,
          "durationTicks": 192,
          "midi": 66,
          "name": "F#4",
          "ticks": 16128,
          "time": 122.926776,
          "velocity": 0.5039370078740157
        },
        {
          "duration": 1.4634140000000002,
          "durationTicks": 192,
          "midi": 70,
          "name": "A#4",
          "ticks": 16128,
          "time": 122.926776,
          "velocity": 0.5039370078740157
        },
        {
          "duration": 1.4634140000000002,
          "durationTicks": 192,
          "midi": 71,
          "name": "B4",
          "ticks": 16320,
          "time": 124.39019,
          "velocity": 0.5039370078740157
        },
        {
          "duration": 1.4634140000000002,
          "durationTicks": 192,
          "midi": 66,
          "name": "F#4",
          "ticks": 16320,
          "time": 124.39019,
          "velocity": 0.5039370078740157
        },
        {
          "duration": 1.4634140000000002,
          "durationTicks": 192,
          "midi": 63,
          "name": "D#4",
          "ticks": 16320,
          "time": 124.39019,
          "velocity": 0.5039370078740157
        },
        {
          "duration": 1.4634140000000002,
          "durationTicks": 192,
          "midi": 68,
          "name": "G#4",
          "ticks": 16512,
          "time": 125.853604,
          "velocity": 0.5039370078740157
        },
        {
          "duration": 1.4634140000000002,
          "durationTicks": 192,
          "midi": 63,
          "name": "D#4",
          "ticks": 16512,
          "time": 125.853604,
          "velocity": 0.5039370078740157
        },
        {
          "duration": 1.4634140000000002,
          "durationTicks": 192,
          "midi": 71,
          "name": "B4",
          "ticks": 16512,
          "time": 125.853604,
          "velocity": 0.5039370078740157
        },
        {
          "duration": 1.463413999999986,
          "durationTicks": 192,
          "midi": 71,
          "name": "B4",
          "ticks": 16704,
          "time": 127.317018,
          "velocity": 0.5039370078740157
        },
        {
          "duration": 1.463413999999986,
          "durationTicks": 192,
          "midi": 64,
          "name": "E4",
          "ticks": 16704,
          "time": 127.317018,
          "velocity": 0.5039370078740157
        },
        {
          "duration": 1.463413999999986,
          "durationTicks": 192,
          "midi": 68,
          "name": "G#4",
          "ticks": 16704,
          "time": 127.317018,
          "velocity": 0.5039370078740157
        },
        {
          "duration": 1.4634140000000002,
          "durationTicks": 192,
          "midi": 70,
          "name": "A#4",
          "ticks": 16896,
          "time": 128.780432,
          "velocity": 0.5039370078740157
        },
        {
          "duration": 1.4634140000000002,
          "durationTicks": 192,
          "midi": 66,
          "name": "F#4",
          "ticks": 16896,
          "time": 128.780432,
          "velocity": 0.5039370078740157
        },
        {
          "duration": 1.4634140000000002,
          "durationTicks": 192,
          "midi": 61,
          "name": "C#4",
          "ticks": 16896,
          "time": 128.780432,
          "velocity": 0.5039370078740157
        },
        {
          "duration": 1.4634140000000002,
          "durationTicks": 192,
          "midi": 68,
          "name": "G#4",
          "ticks": 17088,
          "time": 130.243846,
          "velocity": 0.5039370078740157
        },
        {
          "duration": 1.4634140000000002,
          "durationTicks": 192,
          "midi": 59,
          "name": "B3",
          "ticks": 17088,
          "time": 130.243846,
          "velocity": 0.5039370078740157
        },
        {
          "duration": 1.4634140000000002,
          "durationTicks": 192,
          "midi": 63,
          "name": "D#4",
          "ticks": 17088,
          "time": 130.243846,
          "velocity": 0.5039370078740157
        },
        {
          "duration": 1.4634140000000002,
          "durationTicks": 192,
          "midi": 72,
          "name": "C5",
          "ticks": 17280,
          "time": 131.70726,
          "velocity": 0.5511811023622047
        },
        {
          "duration": 1.4634140000000002,
          "durationTicks": 192,
          "midi": 64,
          "name": "E4",
          "ticks": 17280,
          "time": 131.70726,
          "velocity": 0.5511811023622047
        },
        {
          "duration": 1.4634140000000002,
          "durationTicks": 192,
          "midi": 69,
          "name": "A4",
          "ticks": 17280,
          "time": 131.70726,
          "velocity": 0.5511811023622047
        },
        {
          "duration": 1.4634140000000002,
          "durationTicks": 192,
          "midi": 69,
          "name": "A4",
          "ticks": 17472,
          "time": 133.170674,
          "velocity": 0.5511811023622047
        },
        {
          "duration": 1.4634140000000002,
          "durationTicks": 192,
          "midi": 65,
          "name": "F4",
          "ticks": 17472,
          "time": 133.170674,
          "velocity": 0.5511811023622047
        },
        {
          "duration": 1.4634140000000002,
          "durationTicks": 192,
          "midi": 72,
          "name": "C5",
          "ticks": 17472,
          "time": 133.170674,
          "velocity": 0.5511811023622047
        },
        {
          "duration": 1.4634140000000002,
          "durationTicks": 192,
          "midi": 71,
          "name": "B4",
          "ticks": 17664,
          "time": 134.634088,
          "velocity": 0.5511811023622047
        },
        {
          "duration": 1.4634140000000002,
          "durationTicks": 192,
          "midi": 67,
          "name": "G4",
          "ticks": 17664,
          "time": 134.634088,
          "velocity": 0.5511811023622047
        },
        {
          "duration": 1.4634140000000002,
          "durationTicks": 192,
          "midi": 62,
          "name": "D4",
          "ticks": 17664,
          "time": 134.634088,
          "velocity": 0.5511811023622047
        },
        {
          "duration": 1.4634140000000002,
          "durationTicks": 192,
          "midi": 64,
          "name": "E4",
          "ticks": 17856,
          "time": 136.097502,
          "velocity": 0.5511811023622047
        },
        {
          "duration": 1.4634140000000002,
          "durationTicks": 192,
          "midi": 67,
          "name": "G4",
          "ticks": 17856,
          "time": 136.097502,
          "velocity": 0.5511811023622047
        },
        {
          "duration": 1.4634140000000002,
          "durationTicks": 192,
          "midi": 72,
          "name": "C5",
          "ticks": 17856,
          "time": 136.097502,
          "velocity": 0.5511811023622047
        },
        {
          "duration": 1.4634140000000002,
          "durationTicks": 192,
          "midi": 72,
          "name": "C5",
          "ticks": 18048,
          "time": 137.560916,
          "velocity": 0.5511811023622047
        },
        {
          "duration": 1.4634140000000002,
          "durationTicks": 192,
          "midi": 64,
          "name": "E4",
          "ticks": 18048,
          "time": 137.560916,
          "velocity": 0.5511811023622047
        },
        {
          "duration": 1.4634140000000002,
          "durationTicks": 192,
          "midi": 69,
          "name": "A4",
          "ticks": 18048,
          "time": 137.560916,
          "velocity": 0.5511811023622047
        },
        {
          "duration": 1.4634140000000002,
          "durationTicks": 192,
          "midi": 69,
          "name": "A4",
          "ticks": 18240,
          "time": 139.02433,
          "velocity": 0.5511811023622047
        },
        {
          "duration": 1.4634140000000002,
          "durationTicks": 192,
          "midi": 65,
          "name": "F4",
          "ticks": 18240,
          "time": 139.02433,
          "velocity": 0.5511811023622047
        },
        {
          "duration": 1.4634140000000002,
          "durationTicks": 192,
          "midi": 72,
          "name": "C5",
          "ticks": 18240,
          "time": 139.02433,
          "velocity": 0.5511811023622047
        },
        {
          "duration": 1.4634140000000002,
          "durationTicks": 192,
          "midi": 62,
          "name": "D4",
          "ticks": 18432,
          "time": 140.487744,
          "velocity": 0.5511811023622047
        },
        {
          "duration": 1.4634140000000002,
          "durationTicks": 192,
          "midi": 67,
          "name": "G4",
          "ticks": 18432,
          "time": 140.487744,
          "velocity": 0.5511811023622047
        },
        {
          "duration": 1.4634140000000002,
          "durationTicks": 192,
          "midi": 71,
          "name": "B4",
          "ticks": 18432,
          "time": 140.487744,
          "velocity": 0.5511811023622047
        },
        {
          "duration": 1.4634140000000002,
          "durationTicks": 192,
          "midi": 72,
          "name": "C5",
          "ticks": 18624,
          "time": 141.951158,
          "velocity": 0.5511811023622047
        },
        {
          "duration": 1.4634140000000002,
          "durationTicks": 192,
          "midi": 67,
          "name": "G4",
          "ticks": 18624,
          "time": 141.951158,
          "velocity": 0.5511811023622047
        },
        {
          "duration": 1.4634140000000002,
          "durationTicks": 192,
          "midi": 64,
          "name": "E4",
          "ticks": 18624,
          "time": 141.951158,
          "velocity": 0.5511811023622047
        },
        {
          "duration": 1.4634140000000002,
          "durationTicks": 192,
          "midi": 72,
          "name": "C5",
          "ticks": 18816,
          "time": 143.414572,
          "velocity": 0.5511811023622047
        },
        {
          "duration": 1.4634140000000002,
          "durationTicks": 192,
          "midi": 64,
          "name": "E4",
          "ticks": 18816,
          "time": 143.414572,
          "velocity": 0.5511811023622047
        },
        {
          "duration": 1.4634140000000002,
          "durationTicks": 192,
          "midi": 69,
          "name": "A4",
          "ticks": 18816,
          "time": 143.414572,
          "velocity": 0.5511811023622047
        },
        {
          "duration": 1.4634140000000002,
          "durationTicks": 192,
          "midi": 72,
          "name": "C5",
          "ticks": 19008,
          "time": 144.877986,
          "velocity": 0.5511811023622047
        },
        {
          "duration": 1.4634140000000002,
          "durationTicks": 192,
          "midi": 65,
          "name": "F4",
          "ticks": 19008,
          "time": 144.877986,
          "velocity": 0.5511811023622047
        },
        {
          "duration": 1.4634140000000002,
          "durationTicks": 192,
          "midi": 69,
          "name": "A4",
          "ticks": 19008,
          "time": 144.877986,
          "velocity": 0.5511811023622047
        },
        {
          "duration": 1.4634140000000002,
          "durationTicks": 192,
          "midi": 62,
          "name": "D4",
          "ticks": 19200,
          "time": 146.3414,
          "velocity": 0.5511811023622047
        },
        {
          "duration": 1.4634140000000002,
          "durationTicks": 192,
          "midi": 67,
          "name": "G4",
          "ticks": 19200,
          "time": 146.3414,
          "velocity": 0.5511811023622047
        },
        {
          "duration": 1.4634140000000002,
          "durationTicks": 192,
          "midi": 71,
          "name": "B4",
          "ticks": 19200,
          "time": 146.3414,
          "velocity": 0.5511811023622047
        },
        {
          "duration": 1.4634140000000002,
          "durationTicks": 192,
          "midi": 72,
          "name": "C5",
          "ticks": 19392,
          "time": 147.804814,
          "velocity": 0.5511811023622047
        },
        {
          "duration": 1.4634140000000002,
          "durationTicks": 192,
          "midi": 67,
          "name": "G4",
          "ticks": 19392,
          "time": 147.804814,
          "velocity": 0.5511811023622047
        },
        {
          "duration": 1.4634140000000002,
          "durationTicks": 192,
          "midi": 64,
          "name": "E4",
          "ticks": 19392,
          "time": 147.804814,
          "velocity": 0.5511811023622047
        },
        {
          "duration": 1.4634140000000002,
          "durationTicks": 192,
          "midi": 69,
          "name": "A4",
          "ticks": 19584,
          "time": 149.268228,
          "velocity": 0.5511811023622047
        },
        {
          "duration": 1.4634140000000002,
          "durationTicks": 192,
          "midi": 64,
          "name": "E4",
          "ticks": 19584,
          "time": 149.268228,
          "velocity": 0.5511811023622047
        },
        {
          "duration": 1.4634140000000002,
          "durationTicks": 192,
          "midi": 72,
          "name": "C5",
          "ticks": 19584,
          "time": 149.268228,
          "velocity": 0.5511811023622047
        },
        {
          "duration": 1.4634140000000002,
          "durationTicks": 192,
          "midi": 72,
          "name": "C5",
          "ticks": 19776,
          "time": 150.731642,
          "velocity": 0.5511811023622047
        },
        {
          "duration": 1.4634140000000002,
          "durationTicks": 192,
          "midi": 65,
          "name": "F4",
          "ticks": 19776,
          "time": 150.731642,
          "velocity": 0.5511811023622047
        },
        {
          "duration": 1.4634140000000002,
          "durationTicks": 192,
          "midi": 69,
          "name": "A4",
          "ticks": 19776,
          "time": 150.731642,
          "velocity": 0.5511811023622047
        },
        {
          "duration": 1.4634140000000002,
          "durationTicks": 192,
          "midi": 62,
          "name": "D4",
          "ticks": 19968,
          "time": 152.195056,
          "velocity": 0.5511811023622047
        },
        {
          "duration": 1.4634140000000002,
          "durationTicks": 192,
          "midi": 67,
          "name": "G4",
          "ticks": 19968,
          "time": 152.195056,
          "velocity": 0.5511811023622047
        },
        {
          "duration": 1.4634140000000002,
          "durationTicks": 192,
          "midi": 71,
          "name": "B4",
          "ticks": 19968,
          "time": 152.195056,
          "velocity": 0.5511811023622047
        },
        {
          "duration": 1.4634140000000002,
          "durationTicks": 192,
          "midi": 69,
          "name": "A4",
          "ticks": 20160,
          "time": 153.65847,
          "velocity": 0.5511811023622047
        },
        {
          "duration": 1.4634140000000002,
          "durationTicks": 192,
          "midi": 60,
          "name": "C4",
          "ticks": 20160,
          "time": 153.65847,
          "velocity": 0.5511811023622047
        },
        {
          "duration": 1.4634140000000002,
          "durationTicks": 192,
          "midi": 64,
          "name": "E4",
          "ticks": 20160,
          "time": 153.65847,
          "velocity": 0.5511811023622047
        },
        {
          "duration": 1.4634140000000002,
          "durationTicks": 192,
          "midi": 72,
          "name": "C5",
          "ticks": 20352,
          "time": 155.121884,
          "velocity": 0.5511811023622047
        },
        {
          "duration": 1.4634140000000002,
          "durationTicks": 192,
          "midi": 64,
          "name": "E4",
          "ticks": 20352,
          "time": 155.121884,
          "velocity": 0.5511811023622047
        },
        {
          "duration": 1.4634140000000002,
          "durationTicks": 192,
          "midi": 69,
          "name": "A4",
          "ticks": 20352,
          "time": 155.121884,
          "velocity": 0.5511811023622047
        },
        {
          "duration": 1.4634140000000002,
          "durationTicks": 192,
          "midi": 69,
          "name": "A4",
          "ticks": 20544,
          "time": 156.585298,
          "velocity": 0.5511811023622047
        },
        {
          "duration": 1.4634140000000002,
          "durationTicks": 192,
          "midi": 65,
          "name": "F4",
          "ticks": 20544,
          "time": 156.585298,
          "velocity": 0.5511811023622047
        },
        {
          "duration": 1.4634140000000002,
          "durationTicks": 192,
          "midi": 72,
          "name": "C5",
          "ticks": 20544,
          "time": 156.585298,
          "velocity": 0.5511811023622047
        },
        {
          "duration": 1.4634140000000002,
          "durationTicks": 192,
          "midi": 62,
          "name": "D4",
          "ticks": 20736,
          "time": 158.048712,
          "velocity": 0.5511811023622047
        },
        {
          "duration": 1.4634140000000002,
          "durationTicks": 192,
          "midi": 67,
          "name": "G4",
          "ticks": 20736,
          "time": 158.048712,
          "velocity": 0.5511811023622047
        },
        {
          "duration": 1.4634140000000002,
          "durationTicks": 192,
          "midi": 71,
          "name": "B4",
          "ticks": 20736,
          "time": 158.048712,
          "velocity": 0.5511811023622047
        },
        {
          "duration": 1.4634140000000002,
          "durationTicks": 192,
          "midi": 64,
          "name": "E4",
          "ticks": 20928,
          "time": 159.512126,
          "velocity": 0.5511811023622047
        },
        {
          "duration": 1.4634140000000002,
          "durationTicks": 192,
          "midi": 67,
          "name": "G4",
          "ticks": 20928,
          "time": 159.512126,
          "velocity": 0.5511811023622047
        },
        {
          "duration": 1.4634140000000002,
          "durationTicks": 192,
          "midi": 72,
          "name": "C5",
          "ticks": 20928,
          "time": 159.512126,
          "velocity": 0.5511811023622047
        },
        {
          "duration": 1.4634140000000002,
          "durationTicks": 192,
          "midi": 69,
          "name": "A4",
          "ticks": 21120,
          "time": 160.97554,
          "velocity": 0.5511811023622047
        },
        {
          "duration": 1.4634140000000002,
          "durationTicks": 192,
          "midi": 64,
          "name": "E4",
          "ticks": 21120,
          "time": 160.97554,
          "velocity": 0.5511811023622047
        },
        {
          "duration": 1.4634140000000002,
          "durationTicks": 192,
          "midi": 72,
          "name": "C5",
          "ticks": 21120,
          "time": 160.97554,
          "velocity": 0.5511811023622047
        },
        {
          "duration": 1.4634140000000002,
          "durationTicks": 192,
          "midi": 69,
          "name": "A4",
          "ticks": 21312,
          "time": 162.438954,
          "velocity": 0.5511811023622047
        },
        {
          "duration": 1.4634140000000002,
          "durationTicks": 192,
          "midi": 65,
          "name": "F4",
          "ticks": 21312,
          "time": 162.438954,
          "velocity": 0.5511811023622047
        },
        {
          "duration": 1.4634140000000002,
          "durationTicks": 192,
          "midi": 72,
          "name": "C5",
          "ticks": 21312,
          "time": 162.438954,
          "velocity": 0.5511811023622047
        },
        {
          "duration": 1.4634140000000002,
          "durationTicks": 192,
          "midi": 71,
          "name": "B4",
          "ticks": 21504,
          "time": 163.902368,
          "velocity": 0.5511811023622047
        },
        {
          "duration": 1.4634140000000002,
          "durationTicks": 192,
          "midi": 67,
          "name": "G4",
          "ticks": 21504,
          "time": 163.902368,
          "velocity": 0.5511811023622047
        },
        {
          "duration": 1.4634140000000002,
          "durationTicks": 192,
          "midi": 62,
          "name": "D4",
          "ticks": 21504,
          "time": 163.902368,
          "velocity": 0.5511811023622047
        },
        {
          "duration": 1.4634140000000002,
          "durationTicks": 192,
          "midi": 64,
          "name": "E4",
          "ticks": 21696,
          "time": 165.365782,
          "velocity": 0.5511811023622047
        },
        {
          "duration": 1.4634140000000002,
          "durationTicks": 192,
          "midi": 60,
          "name": "C4",
          "ticks": 21696,
          "time": 165.365782,
          "velocity": 0.5511811023622047
        },
        {
          "duration": 1.4634140000000002,
          "durationTicks": 192,
          "midi": 69,
          "name": "A4",
          "ticks": 21696,
          "time": 165.365782,
          "velocity": 0.5511811023622047
        }
      ]
    },
    {
      "channel": 0,
      "controlChanges": {
        "6": [
          {
            "number": 6,
            "ticks": 0,
            "time": 0,
            "value": 0.09448818897637795
          }
        ],
        "7": [
          {
            "number": 7,
            "ticks": 0,
            "time": 0,
            "value": 0.7874015748031497
          },
          {
            "number": 7,
            "ticks": 0,
            "time": 0,
            "value": 0.7874015748031497
          }
        ],
        "10": [
          {
            "number": 10,
            "ticks": 0,
            "time": 0,
            "value": 0.5039370078740157
          },
          {
            "number": 10,
            "ticks": 0,
            "time": 0,
            "value": 0.5039370078740157
          }
        ],
        "100": [
          {
            "number": 100,
            "ticks": 0,
            "time": 0,
            "value": 0
          }
        ],
        "101": [
          {
            "number": 101,
            "ticks": 0,
            "time": 0,
            "value": 0
          }
        ]
      },
      "pitchBends": [
        {
          "ticks": 0,
          "time": 0,
          "value": 0
        },
        {
          "ticks": 0,
          "time": 0,
          "value": 0
        }
      ],
      "instrument": {
        "family": "piano",
        "name": "acoustic grand piano",
        "number": 0
      },
      "name": "Basic",
      "notes": []
    },
    {
      "channel": 2,
      "controlChanges": {
        "6": [
          {
            "number": 6,
            "ticks": 0,
            "time": 0,
            "value": 0.09448818897637795
          },
          {
            "number": 6,
            "ticks": 22752,
            "time": 173.414559,
            "value": 0.09448818897637795
          },
          {
            "number": 6,
            "ticks": 22753,
            "time": 173.42218094791667,
            "value": 0.09448818897637795
          },
          {
            "number": 6,
            "ticks": 22753,
            "time": 173.42218094791667,
            "value": 0.09448818897637795
          }
        ],
        "7": [
          {
            "number": 7,
            "ticks": 0,
            "time": 0,
            "value": 0.7874015748031497
          },
          {
            "number": 7,
            "ticks": 0,
            "time": 0,
            "value": 0.7874015748031497
          },
          {
            "number": 7,
            "ticks": 0,
            "time": 0,
            "value": 0.7874015748031497
          },
          {
            "number": 7,
            "ticks": 22752,
            "time": 173.414559,
            "value": 0.7874015748031497
          },
          {
            "number": 7,
            "ticks": 22753,
            "time": 173.42218094791667,
            "value": 0.7874015748031497
          },
          {
            "number": 7,
            "ticks": 22753,
            "time": 173.42218094791667,
            "value": 0.7874015748031497
          }
        ],
        "10": [
          {
            "number": 10,
            "ticks": 0,
            "time": 0,
            "value": 0.5039370078740157
          },
          {
            "number": 10,
            "ticks": 0,
            "time": 0,
            "value": 0.5039370078740157
          },
          {
            "number": 10,
            "ticks": 0,
            "time": 0,
            "value": 0.5039370078740157
          },
          {
            "number": 10,
            "ticks": 22752,
            "time": 173.414559,
            "value": 0.5039370078740157
          },
          {
            "number": 10,
            "ticks": 22753,
            "time": 173.42218094791667,
            "value": 0.5039370078740157
          },
          {
            "number": 10,
            "ticks": 22753,
            "time": 173.42218094791667,
            "value": 0.5039370078740157
          }
        ],
        "91": [
          {
            "number": 91,
            "ticks": 0,
            "time": 0,
            "value": 0.5039370078740157
          },
          {
            "number": 91,
            "ticks": 0,
            "time": 0,
            "value": 0.5039370078740157
          },
          {
            "number": 91,
            "ticks": 0,
            "time": 0,
            "value": 0.5039370078740157
          },
          {
            "number": 91,
            "ticks": 0,
            "time": 0,
            "value": 0.5039370078740157
          },
          {
            "number": 91,
            "ticks": 22752,
            "time": 173.414559,
            "value": 0.5039370078740157
          },
          {
            "number": 91,
            "ticks": 22753,
            "time": 173.42218094791667,
            "value": 0.5039370078740157
          },
          {
            "number": 91,
            "ticks": 22753,
            "time": 173.42218094791667,
            "value": 0.5039370078740157
          }
        ],
        "100": [
          {
            "number": 100,
            "ticks": 0,
            "time": 0,
            "value": 0
          },
          {
            "number": 100,
            "ticks": 22752,
            "time": 173.414559,
            "value": 0
          },
          {
            "number": 100,
            "ticks": 22753,
            "time": 173.42218094791667,
            "value": 0
          },
          {
            "number": 100,
            "ticks": 22753,
            "time": 173.42218094791667,
            "value": 0
          }
        ],
        "101": [
          {
            "number": 101,
            "ticks": 0,
            "time": 0,
            "value": 0
          },
          {
            "number": 101,
            "ticks": 22752,
            "time": 173.414559,
            "value": 0
          },
          {
            "number": 101,
            "ticks": 22753,
            "time": 173.42218094791667,
            "value": 0
          },
          {
            "number": 101,
            "ticks": 22753,
            "time": 173.42218094791667,
            "value": 0
          }
        ]
      },
      "pitchBends": [
        {
          "ticks": 0,
          "time": 0,
          "value": 0
        },
        {
          "ticks": 0,
          "time": 0,
          "value": 0
        },
        {
          "ticks": 0,
          "time": 0,
          "value": 0
        },
        {
          "ticks": 22752,
          "time": 173.414559,
          "value": 0
        },
        {
          "ticks": 22753,
          "time": 173.42218094791667,
          "value": 0
        },
        {
          "ticks": 22753,
          "time": 173.42218094791667,
          "value": 0
        }
      ],
      "instrument": {
        "family": "reed",
        "name": "soprano sax",
        "number": 64
      },
      "name": "",
      "notes": [
        {
          "duration": 0.3353657083333328,
          "durationTicks": 44,
          "midi": 68,
          "name": "G#4",
          "ticks": 1968,
          "time": 14.9999935,
          "velocity": 0.6377952755905512
        },
        {
          "duration": 0.3353657083333328,
          "durationTicks": 44,
          "midi": 68,
          "name": "G#4",
          "ticks": 2016,
          "time": 15.365847,
          "velocity": 0.6377952755905512
        },
        {
          "duration": 0.152438958333331,
          "durationTicks": 20,
          "midi": 66,
          "name": "F#4",
          "ticks": 2064,
          "time": 15.7317005,
          "velocity": 0.6377952755905512
        },
        {
          "duration": 0.15243895833333276,
          "durationTicks": 20,
          "midi": 63,
          "name": "D#4",
          "ticks": 2088,
          "time": 15.91462725,
          "velocity": 0.6377952755905512
        },
        {
          "duration": 0.15243895833333454,
          "durationTicks": 20,
          "midi": 66,
          "name": "F#4",
          "ticks": 2112,
          "time": 16.097554,
          "velocity": 0.6377952755905512
        },
        {
          "duration": 0.15243895833333454,
          "durationTicks": 20,
          "midi": 66,
          "name": "F#4",
          "ticks": 2136,
          "time": 16.28048075,
          "velocity": 0.6377952755905512
        },
        {
          "duration": 0.15243895833333454,
          "durationTicks": 20,
          "midi": 66,
          "name": "F#4",
          "ticks": 2160,
          "time": 16.4634075,
          "velocity": 0.6377952755905512
        },
        {
          "duration": 0.15243895833333454,
          "durationTicks": 20,
          "midi": 68,
          "name": "G#4",
          "ticks": 2184,
          "time": 16.64633425,
          "velocity": 0.6377952755905512
        },
        {
          "duration": 0.15243895833333454,
          "durationTicks": 20,
          "midi": 66,
          "name": "F#4",
          "ticks": 2232,
          "time": 17.01218775,
          "velocity": 0.6377952755905512
        },
        {
          "duration": 0.15243895833333454,
          "durationTicks": 20,
          "midi": 66,
          "name": "F#4",
          "ticks": 2256,
          "time": 17.1951145,
          "velocity": 0.6377952755905512
        },
        {
          "duration": 0.15243895833333454,
          "durationTicks": 20,
          "midi": 63,
          "name": "D#4",
          "ticks": 2280,
          "time": 17.37804125,
          "velocity": 0.6377952755905512
        },
        {
          "duration": 0.33536570833333457,
          "durationTicks": 44,
          "midi": 66,
          "name": "F#4",
          "ticks": 2304,
          "time": 17.560968,
          "velocity": 0.6377952755905512
        },
        {
          "duration": 0.33536570833333457,
          "durationTicks": 44,
          "midi": 66,
          "name": "F#4",
          "ticks": 2352,
          "time": 17.9268215,
          "velocity": 0.6377952755905512
        },
        {
          "duration": 0.33536570833333457,
          "durationTicks": 44,
          "midi": 66,
          "name": "F#4",
          "ticks": 2400,
          "time": 18.292675,
          "velocity": 0.6377952755905512
        },
        {
          "duration": 0.15243895833333454,
          "durationTicks": 20,
          "midi": 66,
          "name": "F#4",
          "ticks": 2448,
          "time": 18.6585285,
          "velocity": 0.6377952755905512
        },
        {
          "duration": 0.15243895833333454,
          "durationTicks": 20,
          "midi": 63,
          "name": "D#4",
          "ticks": 2472,
          "time": 18.84145525,
          "velocity": 0.6377952755905512
        },
        {
          "duration": 0.15243895833333454,
          "durationTicks": 20,
          "midi": 66,
          "name": "F#4",
          "ticks": 2496,
          "time": 19.024382,
          "velocity": 0.6377952755905512
        },
        {
          "duration": 0.33536570833333457,
          "durationTicks": 44,
          "midi": 68,
          "name": "G#4",
          "ticks": 2520,
          "time": 19.20730875,
          "velocity": 0.6377952755905512
        },
        {
          "duration": 0.15243895833333454,
          "durationTicks": 20,
          "midi": 66,
          "name": "F#4",
          "ticks": 2568,
          "time": 19.57316225,
          "velocity": 0.6377952755905512
        },
        {
          "duration": 0.15243895833333454,
          "durationTicks": 20,
          "midi": 66,
          "name": "F#4",
          "ticks": 2640,
          "time": 20.1219425,
          "velocity": 0.6377952755905512
        },
        {
          "duration": 0.15243895833333454,
          "durationTicks": 20,
          "midi": 63,
          "name": "D#4",
          "ticks": 2664,
          "time": 20.30486925,
          "velocity": 0.6377952755905512
        },
        {
          "duration": 0.33536570833333457,
          "durationTicks": 44,
          "midi": 68,
          "name": "G#4",
          "ticks": 2688,
          "time": 20.487796,
          "velocity": 0.6377952755905512
        },
        {
          "duration": 0.33536570833333457,
          "durationTicks": 44,
          "midi": 68,
          "name": "G#4",
          "ticks": 2736,
          "time": 20.8536495,
          "velocity": 0.6377952755905512
        },
        {
          "duration": 0.33536570833333457,
          "durationTicks": 44,
          "midi": 68,
          "name": "G#4",
          "ticks": 2784,
          "time": 21.219503,
          "velocity": 0.6377952755905512
        },
        {
          "duration": 0.152438958333331,
          "durationTicks": 20,
          "midi": 66,
          "name": "F#4",
          "ticks": 2832,
          "time": 21.5853565,
          "velocity": 0.6377952755905512
        },
        {
          "duration": 0.152438958333331,
          "durationTicks": 20,
          "midi": 63,
          "name": "D#4",
          "ticks": 2856,
          "time": 21.76828325,
          "velocity": 0.6377952755905512
        },
        {
          "duration": 0.152438958333331,
          "durationTicks": 20,
          "midi": 66,
          "name": "F#4",
          "ticks": 2880,
          "time": 21.95121,
          "velocity": 0.6377952755905512
        },
        {
          "duration": 0.152438958333331,
          "durationTicks": 20,
          "midi": 66,
          "name": "F#4",
          "ticks": 2904,
          "time": 22.13413675,
          "velocity": 0.6377952755905512
        },
        {
          "duration": 0.152438958333331,
          "durationTicks": 20,
          "midi": 66,
          "name": "F#4",
          "ticks": 2928,
          "time": 22.3170635,
          "velocity": 0.6377952755905512
        },
        {
          "duration": 0.152438958333331,
          "durationTicks": 20,
          "midi": 68,
          "name": "G#4",
          "ticks": 2952,
          "time": 22.49999025,
          "velocity": 0.6377952755905512
        },
        {
          "duration": 0.152438958333331,
          "durationTicks": 20,
          "midi": 66,
          "name": "F#4",
          "ticks": 3024,
          "time": 23.0487705,
          "velocity": 0.6377952755905512
        },
        {
          "duration": 0.152438958333331,
          "durationTicks": 20,
          "midi": 63,
          "name": "D#4",
          "ticks": 3048,
          "time": 23.23169725,
          "velocity": 0.6377952755905512
        },
        {
          "duration": 0.33536570833333457,
          "durationTicks": 44,
          "midi": 66,
          "name": "F#4",
          "ticks": 3072,
          "time": 23.414624,
          "velocity": 0.6377952755905512
        },
        {
          "duration": 0.33536570833333457,
          "durationTicks": 44,
          "midi": 66,
          "name": "F#4",
          "ticks": 3120,
          "time": 23.7804775,
          "velocity": 0.6377952755905512
        },
        {
          "duration": 0.15243895833333454,
          "durationTicks": 20,
          "midi": 66,
          "name": "F#4",
          "ticks": 3168,
          "time": 24.146331,
          "velocity": 0.6377952755905512
        },
        {
          "duration": 0.33536570833333457,
          "durationTicks": 44,
          "midi": 68,
          "name": "G#4",
          "ticks": 3192,
          "time": 24.32925775,
          "velocity": 0.6377952755905512
        },
        {
          "duration": 0.7012192083333346,
          "durationTicks": 92,
          "midi": 66,
          "name": "F#4",
          "ticks": 3240,
          "time": 24.69511125,
          "velocity": 0.6377952755905512
        },
        {
          "duration": 0.33536570833333457,
          "durationTicks": 44,
          "midi": 68,
          "name": "G#4",
          "ticks": 3504,
          "time": 26.7073055,
          "velocity": 0.6377952755905512
        },
        {
          "duration": 0.33536570833333457,
          "durationTicks": 44,
          "midi": 68,
          "name": "G#4",
          "ticks": 3552,
          "time": 27.073159,
          "velocity": 0.6377952755905512
        },
        {
          "duration": 0.15243895833333454,
          "durationTicks": 20,
          "midi": 66,
          "name": "F#4",
          "ticks": 3600,
          "time": 27.4390125,
          "velocity": 0.6377952755905512
        },
        {
          "duration": 0.15243895833333454,
          "durationTicks": 20,
          "midi": 63,
          "name": "D#4",
          "ticks": 3624,
          "time": 27.62193925,
          "velocity": 0.6377952755905512
        },
        {
          "duration": 0.15243895833333454,
          "durationTicks": 20,
          "midi": 66,
          "name": "F#4",
          "ticks": 3648,
          "time": 27.804866,
          "velocity": 0.6377952755905512
        },
        {
          "duration": 0.15243895833333454,
          "durationTicks": 20,
          "midi": 66,
          "name": "F#4",
          "ticks": 3672,
          "time": 27.98779275,
          "velocity": 0.6377952755905512
        },
        {
          "duration": 0.15243895833333454,
          "durationTicks": 20,
          "midi": 66,
          "name": "F#4",
          "ticks": 3696,
          "time": 28.1707195,
          "velocity": 0.6377952755905512
        },
        {
          "duration": 0.15243895833333454,
          "durationTicks": 20,
          "midi": 68,
          "name": "G#4",
          "ticks": 3720,
          "time": 28.35364625,
          "velocity": 0.6377952755905512
        },
        {
          "duration": 0.15243895833333454,
          "durationTicks": 20,
          "midi": 66,
          "name": "F#4",
          "ticks": 3768,
          "time": 28.71949975,
          "velocity": 0.6377952755905512
        },
        {
          "duration": 0.15243895833333454,
          "durationTicks": 20,
          "midi": 66,
          "name": "F#4",
          "ticks": 3792,
          "time": 28.9024265,
          "velocity": 0.6377952755905512
        },
        {
          "duration": 0.15243895833333454,
          "durationTicks": 20,
          "midi": 63,
          "name": "D#4",
          "ticks": 3816,
          "time": 29.08535325,
          "velocity": 0.6377952755905512
        },
        {
          "duration": 0.33536570833333457,
          "durationTicks": 44,
          "midi": 66,
          "name": "F#4",
          "ticks": 3840,
          "time": 29.26828,
          "velocity": 0.6377952755905512
        },
        {
          "duration": 0.33536570833333457,
          "durationTicks": 44,
          "midi": 66,
          "name": "F#4",
          "ticks": 3888,
          "time": 29.6341335,
          "velocity": 0.6377952755905512
        },
        {
          "duration": 0.33536570833333457,
          "durationTicks": 44,
          "midi": 66,
          "name": "F#4",
          "ticks": 3936,
          "time": 29.999987,
          "velocity": 0.6377952755905512
        },
        {
          "duration": 0.15243895833333454,
          "durationTicks": 20,
          "midi": 66,
          "name": "F#4",
          "ticks": 3984,
          "time": 30.3658405,
          "velocity": 0.6377952755905512
        },
        {
          "duration": 0.15243895833333454,
          "durationTicks": 20,
          "midi": 63,
          "name": "D#4",
          "ticks": 4008,
          "time": 30.54876725,
          "velocity": 0.6377952755905512
        },
        {
          "duration": 0.15243895833333454,
          "durationTicks": 20,
          "midi": 66,
          "name": "F#4",
          "ticks": 4032,
          "time": 30.731694,
          "velocity": 0.6377952755905512
        },
        {
          "duration": 0.33536570833333457,
          "durationTicks": 44,
          "midi": 68,
          "name": "G#4",
          "ticks": 4056,
          "time": 30.91462075,
          "velocity": 0.6377952755905512
        },
        {
          "duration": 0.15243895833333454,
          "durationTicks": 20,
          "midi": 66,
          "name": "F#4",
          "ticks": 4104,
          "time": 31.28047425,
          "velocity": 0.6377952755905512
        },
        {
          "duration": 0.15243895833333454,
          "durationTicks": 20,
          "midi": 68,
          "name": "G#4",
          "ticks": 4176,
          "time": 31.8292545,
          "velocity": 0.6377952755905512
        },
        {
          "duration": 0.15243895833333454,
          "durationTicks": 20,
          "midi": 68,
          "name": "G#4",
          "ticks": 4200,
          "time": 32.01218125,
          "velocity": 0.6377952755905512
        },
        {
          "duration": 0.33536570833333457,
          "durationTicks": 44,
          "midi": 68,
          "name": "G#4",
          "ticks": 4224,
          "time": 32.195108,
          "velocity": 0.6377952755905512
        },
        {
          "duration": 0.33536570833333457,
          "durationTicks": 44,
          "midi": 75,
          "name": "D#5",
          "ticks": 4272,
          "time": 32.5609615,
          "velocity": 0.6377952755905512
        },
        {
          "duration": 0.33536570833333457,
          "durationTicks": 44,
          "midi": 68,
          "name": "G#4",
          "ticks": 4320,
          "time": 32.926815,
          "velocity": 0.6377952755905512
        },
        {
          "duration": 0.33536570833333457,
          "durationTicks": 44,
          "midi": 66,
          "name": "F#4",
          "ticks": 4368,
          "time": 33.2926685,
          "velocity": 0.6377952755905512
        },
        {
          "duration": 0.33536570833333457,
          "durationTicks": 44,
          "midi": 68,
          "name": "G#4",
          "ticks": 4416,
          "time": 33.658522,
          "velocity": 0.6377952755905512
        },
        {
          "duration": 0.33536570833333457,
          "durationTicks": 44,
          "midi": 75,
          "name": "D#5",
          "ticks": 4464,
          "time": 34.0243755,
          "velocity": 0.6377952755905512
        },
        {
          "duration": 0.33536570833333457,
          "durationTicks": 44,
          "midi": 68,
          "name": "G#4",
          "ticks": 4512,
          "time": 34.390229,
          "velocity": 0.6377952755905512
        },
        {
          "duration": 0.33536570833333457,
          "durationTicks": 44,
          "midi": 66,
          "name": "F#4",
          "ticks": 4560,
          "time": 34.7560825,
          "velocity": 0.6377952755905512
        },
        {
          "duration": 0.33536570833333457,
          "durationTicks": 44,
          "midi": 68,
          "name": "G#4",
          "ticks": 4608,
          "time": 35.121936,
          "velocity": 0.6377952755905512
        },
        {
          "duration": 0.33536570833333457,
          "durationTicks": 44,
          "midi": 75,
          "name": "D#5",
          "ticks": 4656,
          "time": 35.4877895,
          "velocity": 0.6377952755905512
        },
        {
          "duration": 0.33536570833333457,
          "durationTicks": 44,
          "midi": 68,
          "name": "G#4",
          "ticks": 4704,
          "time": 35.853643,
          "velocity": 0.6377952755905512
        },
        {
          "duration": 0.33536570833333457,
          "durationTicks": 44,
          "midi": 66,
          "name": "F#4",
          "ticks": 4752,
          "time": 36.2194965,
          "velocity": 0.6377952755905512
        },
        {
          "duration": 1.0670727083333347,
          "durationTicks": 140,
          "midi": 68,
          "name": "G#4",
          "ticks": 4800,
          "time": 36.58535,
          "velocity": 0.6377952755905512
        },
        {
          "duration": 0.33536570833333457,
          "durationTicks": 44,
          "midi": 63,
          "name": "D#4",
          "ticks": 4992,
          "time": 38.048764,
          "velocity": 0.6929133858267716
        },
        {
          "duration": 0.15243895833333454,
          "durationTicks": 20,
          "midi": 66,
          "name": "F#4",
          "ticks": 5064,
          "time": 38.59754425,
          "velocity": 0.6929133858267716
        },
        {
          "duration": 0.33536570833333457,
          "durationTicks": 44,
          "midi": 68,
          "name": "G#4",
          "ticks": 5088,
          "time": 38.780471,
          "velocity": 0.6929133858267716
        },
        {
          "duration": 0.33536570833333457,
          "durationTicks": 44,
          "midi": 66,
          "name": "F#4",
          "ticks": 5136,
          "time": 39.1463245,
          "velocity": 0.6929133858267716
        },
        {
          "duration": 0.33536570833333457,
          "durationTicks": 44,
          "midi": 68,
          "name": "G#4",
          "ticks": 5184,
          "time": 39.512178,
          "velocity": 0.6929133858267716
        },
        {
          "duration": 0.33536570833333457,
          "durationTicks": 44,
          "midi": 66,
          "name": "F#4",
          "ticks": 5232,
          "time": 39.8780315,
          "velocity": 0.6929133858267716
        },
        {
          "duration": 0.33536570833333457,
          "durationTicks": 44,
          "midi": 63,
          "name": "D#4",
          "ticks": 5280,
          "time": 40.243885,
          "velocity": 0.6929133858267716
        },
        {
          "duration": 0.33536570833333457,
          "durationTicks": 44,
          "midi": 61,
          "name": "C#4",
          "ticks": 5376,
          "time": 40.975592,
          "velocity": 0.6929133858267716
        },
        {
          "duration": 0.15243895833333454,
          "durationTicks": 20,
          "midi": 63,
          "name": "D#4",
          "ticks": 5448,
          "time": 41.52437225,
          "velocity": 0.6929133858267716
        },
        {
          "duration": 0.33536570833333457,
          "durationTicks": 44,
          "midi": 66,
          "name": "F#4",
          "ticks": 5472,
          "time": 41.707299,
          "velocity": 0.6929133858267716
        },
        {
          "duration": 0.33536570833333457,
          "durationTicks": 44,
          "midi": 63,
          "name": "D#4",
          "ticks": 5520,
          "time": 42.0731525,
          "velocity": 0.6929133858267716
        },
        {
          "duration": 0.33536570833333457,
          "durationTicks": 44,
          "midi": 66,
          "name": "F#4",
          "ticks": 5568,
          "time": 42.439006,
          "velocity": 0.6929133858267716
        },
        {
          "duration": 0.33536570833333457,
          "durationTicks": 44,
          "midi": 68,
          "name": "G#4",
          "ticks": 5616,
          "time": 42.8048595,
          "velocity": 0.6929133858267716
        },
        {
          "duration": 0.33536570833333457,
          "durationTicks": 44,
          "midi": 63,
          "name": "D#4",
          "ticks": 5664,
          "time": 43.170713,
          "velocity": 0.6929133858267716
        },
        {
          "duration": 0.33536570833333457,
          "durationTicks": 44,
          "midi": 63,
          "name": "D#4",
          "ticks": 5760,
          "time": 43.90242,
          "velocity": 0.6929133858267716
        },
        {
          "duration": 0.15243895833333454,
          "durationTicks": 20,
          "midi": 66,
          "name": "F#4",
          "ticks": 5832,
          "time": 44.45120025,
          "velocity": 0.6929133858267716
        },
        {
          "duration": 0.33536570833333457,
          "durationTicks": 44,
          "midi": 68,
          "name": "G#4",
          "ticks": 5856,
          "time": 44.634127,
          "velocity": 0.6929133858267716
        },
        {
          "duration": 0.33536570833333457,
          "durationTicks": 44,
          "midi": 66,
          "name": "F#4",
          "ticks": 5904,
          "time": 44.9999805,
          "velocity": 0.6929133858267716
        },
        {
          "duration": 0.33536570833333457,
          "durationTicks": 44,
          "midi": 68,
          "name": "G#4",
          "ticks": 5952,
          "time": 45.365834,
          "velocity": 0.6929133858267716
        },
        {
          "duration": 0.33536570833333457,
          "durationTicks": 44,
          "midi": 66,
          "name": "F#4",
          "ticks": 6000,
          "time": 45.7316875,
          "velocity": 0.6929133858267716
        },
        {
          "duration": 0.33536570833333457,
          "durationTicks": 44,
          "midi": 63,
          "name": "D#4",
          "ticks": 6048,
          "time": 46.097541,
          "velocity": 0.6929133858267716
        },
        {
          "duration": 0.33536570833332746,
          "durationTicks": 44,
          "midi": 61,
          "name": "C#4",
          "ticks": 6144,
          "time": 46.829248,
          "velocity": 0.6929133858267716
        },
        {
          "duration": 0.33536570833332746,
          "durationTicks": 44,
          "midi": 63,
          "name": "D#4",
          "ticks": 6192,
          "time": 47.1951015,
          "velocity": 0.6929133858267716
        },
        {
          "duration": 0.33536570833332746,
          "durationTicks": 44,
          "midi": 66,
          "name": "F#4",
          "ticks": 6240,
          "time": 47.560955,
          "velocity": 0.6929133858267716
        },
        {
          "duration": 0.33536570833332746,
          "durationTicks": 44,
          "midi": 68,
          "name": "G#4",
          "ticks": 6288,
          "time": 47.9268085,
          "velocity": 0.6929133858267716
        },
        {
          "duration": 0.7012192083333275,
          "durationTicks": 92,
          "midi": 63,
          "name": "D#4",
          "ticks": 6336,
          "time": 48.292662,
          "velocity": 0.6929133858267716
        },
        {
          "duration": 0.33536570833332746,
          "durationTicks": 44,
          "midi": 63,
          "name": "D#4",
          "ticks": 6480,
          "time": 49.3902225,
          "velocity": 0.6929133858267716
        },
        {
          "duration": 0.33536570833332746,
          "durationTicks": 44,
          "midi": 63,
          "name": "D#4",
          "ticks": 6528,
          "time": 49.756076,
          "velocity": 0.6929133858267716
        },
        {
          "duration": 0.15243895833332743,
          "durationTicks": 20,
          "midi": 66,
          "name": "F#4",
          "ticks": 6600,
          "time": 50.30485625,
          "velocity": 0.6929133858267716
        },
        {
          "duration": 0.33536570833332746,
          "durationTicks": 44,
          "midi": 68,
          "name": "G#4",
          "ticks": 6624,
          "time": 50.487783,
          "velocity": 0.6929133858267716
        },
        {
          "duration": 0.33536570833332746,
          "durationTicks": 44,
          "midi": 66,
          "name": "F#4",
          "ticks": 6672,
          "time": 50.8536365,
          "velocity": 0.6929133858267716
        },
        {
          "duration": 0.33536570833332746,
          "durationTicks": 44,
          "midi": 68,
          "name": "G#4",
          "ticks": 6720,
          "time": 51.21949,
          "velocity": 0.6929133858267716
        },
        {
          "duration": 0.33536570833332746,
          "durationTicks": 44,
          "midi": 66,
          "name": "F#4",
          "ticks": 6768,
          "time": 51.5853435,
          "velocity": 0.6929133858267716
        },
        {
          "duration": 0.33536570833332746,
          "durationTicks": 44,
          "midi": 63,
          "name": "D#4",
          "ticks": 6816,
          "time": 51.951197,
          "velocity": 0.6929133858267716
        },
        {
          "duration": 0.33536570833332746,
          "durationTicks": 44,
          "midi": 61,
          "name": "C#4",
          "ticks": 6912,
          "time": 52.682904,
          "velocity": 0.6929133858267716
        },
        {
          "duration": 0.15243895833332743,
          "durationTicks": 20,
          "midi": 63,
          "name": "D#4",
          "ticks": 6984,
          "time": 53.23168425,
          "velocity": 0.6929133858267716
        },
        {
          "duration": 0.33536570833332746,
          "durationTicks": 44,
          "midi": 66,
          "name": "F#4",
          "ticks": 7008,
          "time": 53.414611,
          "velocity": 0.6929133858267716
        },
        {
          "duration": 0.33536570833332746,
          "durationTicks": 44,
          "midi": 63,
          "name": "D#4",
          "ticks": 7056,
          "time": 53.7804645,
          "velocity": 0.6929133858267716
        },
        {
          "duration": 0.33536570833332746,
          "durationTicks": 44,
          "midi": 66,
          "name": "F#4",
          "ticks": 7104,
          "time": 54.146318,
          "velocity": 0.6929133858267716
        },
        {
          "duration": 0.33536570833332746,
          "durationTicks": 44,
          "midi": 68,
          "name": "G#4",
          "ticks": 7152,
          "time": 54.5121715,
          "velocity": 0.6929133858267716
        },
        {
          "duration": 0.33536570833332746,
          "durationTicks": 44,
          "midi": 63,
          "name": "D#4",
          "ticks": 7200,
          "time": 54.878025,
          "velocity": 0.6929133858267716
        },
        {
          "duration": 0.33536570833332746,
          "durationTicks": 44,
          "midi": 63,
          "name": "D#4",
          "ticks": 7296,
          "time": 55.609732,
          "velocity": 0.6929133858267716
        },
        {
          "duration": 0.15243895833332743,
          "durationTicks": 20,
          "midi": 66,
          "name": "F#4",
          "ticks": 7368,
          "time": 56.15851225,
          "velocity": 0.6929133858267716
        },
        {
          "duration": 0.33536570833332746,
          "durationTicks": 44,
          "midi": 68,
          "name": "G#4",
          "ticks": 7392,
          "time": 56.341439,
          "velocity": 0.6929133858267716
        },
        {
          "duration": 0.33536570833332746,
          "durationTicks": 44,
          "midi": 66,
          "name": "F#4",
          "ticks": 7440,
          "time": 56.7072925,
          "velocity": 0.6929133858267716
        },
        {
          "duration": 0.33536570833332746,
          "durationTicks": 44,
          "midi": 68,
          "name": "G#4",
          "ticks": 7488,
          "time": 57.073146,
          "velocity": 0.6929133858267716
        },
        {
          "duration": 0.33536570833332746,
          "durationTicks": 44,
          "midi": 66,
          "name": "F#4",
          "ticks": 7536,
          "time": 57.4389995,
          "velocity": 0.6929133858267716
        },
        {
          "duration": 0.33536570833332746,
          "durationTicks": 44,
          "midi": 63,
          "name": "D#4",
          "ticks": 7584,
          "time": 57.804853,
          "velocity": 0.6929133858267716
        },
        {
          "duration": 0.33536570833332746,
          "durationTicks": 44,
          "midi": 61,
          "name": "C#4",
          "ticks": 7680,
          "time": 58.53656,
          "velocity": 0.6929133858267716
        },
        {
          "duration": 0.33536570833332746,
          "durationTicks": 44,
          "midi": 63,
          "name": "D#4",
          "ticks": 7728,
          "time": 58.9024135,
          "velocity": 0.6929133858267716
        },
        {
          "duration": 0.33536570833332746,
          "durationTicks": 44,
          "midi": 61,
          "name": "C#4",
          "ticks": 7776,
          "time": 59.268267,
          "velocity": 0.6929133858267716
        },
        {
          "duration": 0.33536570833332746,
          "durationTicks": 44,
          "midi": 54,
          "name": "F#3",
          "ticks": 7824,
          "time": 59.6341205,
          "velocity": 0.6929133858267716
        },
        {
          "duration": 1.0670727083333276,
          "durationTicks": 140,
          "midi": 56,
          "name": "G#3",
          "ticks": 7872,
          "time": 59.999974,
          "velocity": 0.6929133858267716
        },
        {
          "duration": 0.33536570833332746,
          "durationTicks": 44,
          "midi": 68,
          "name": "G#4",
          "ticks": 9648,
          "time": 73.5365535,
          "velocity": 0.6377952755905512
        },
        {
          "duration": 0.33536570833332746,
          "durationTicks": 44,
          "midi": 68,
          "name": "G#4",
          "ticks": 9696,
          "time": 73.902407,
          "velocity": 0.6377952755905512
        },
        {
          "duration": 0.15243895833333454,
          "durationTicks": 20,
          "midi": 66,
          "name": "F#4",
          "ticks": 9744,
          "time": 74.2682605,
          "velocity": 0.6377952755905512
        },
        {
          "duration": 0.15243895833332033,
          "durationTicks": 20,
          "midi": 63,
          "name": "D#4",
          "ticks": 9768,
          "time": 74.45118725,
          "velocity": 0.6377952755905512
        },
        {
          "duration": 0.15243895833333454,
          "durationTicks": 20,
          "midi": 66,
          "name": "F#4",
          "ticks": 9792,
          "time": 74.634114,
          "velocity": 0.6377952755905512
        },
        {
          "duration": 0.15243895833332033,
          "durationTicks": 20,
          "midi": 66,
          "name": "F#4",
          "ticks": 9816,
          "time": 74.81704075,
          "velocity": 0.6377952755905512
        },
        {
          "duration": 0.15243895833333454,
          "durationTicks": 20,
          "midi": 66,
          "name": "F#4",
          "ticks": 9840,
          "time": 74.9999675,
          "velocity": 0.6377952755905512
        },
        {
          "duration": 0.15243895833332033,
          "durationTicks": 20,
          "midi": 68,
          "name": "G#4",
          "ticks": 9864,
          "time": 75.18289425,
          "velocity": 0.6377952755905512
        },
        {
          "duration": 0.15243895833332033,
          "durationTicks": 20,
          "midi": 66,
          "name": "F#4",
          "ticks": 9912,
          "time": 75.54874775,
          "velocity": 0.6377952755905512
        },
        {
          "duration": 0.15243895833333454,
          "durationTicks": 20,
          "midi": 66,
          "name": "F#4",
          "ticks": 9936,
          "time": 75.7316745,
          "velocity": 0.6377952755905512
        },
        {
          "duration": 0.15243895833332033,
          "durationTicks": 20,
          "midi": 63,
          "name": "D#4",
          "ticks": 9960,
          "time": 75.91460125,
          "velocity": 0.6377952755905512
        },
        {
          "duration": 0.33536570833332746,
          "durationTicks": 44,
          "midi": 66,
          "name": "F#4",
          "ticks": 9984,
          "time": 76.097528,
          "velocity": 0.6377952755905512
        },
        {
          "duration": 0.33536570833332746,
          "durationTicks": 44,
          "midi": 66,
          "name": "F#4",
          "ticks": 10032,
          "time": 76.4633815,
          "velocity": 0.6377952755905512
        },
        {
          "duration": 0.33536570833332746,
          "durationTicks": 44,
          "midi": 66,
          "name": "F#4",
          "ticks": 10080,
          "time": 76.829235,
          "velocity": 0.6377952755905512
        },
        {
          "duration": 0.15243895833333454,
          "durationTicks": 20,
          "midi": 66,
          "name": "F#4",
          "ticks": 10128,
          "time": 77.1950885,
          "velocity": 0.6377952755905512
        },
        {
          "duration": 0.15243895833332033,
          "durationTicks": 20,
          "midi": 63,
          "name": "D#4",
          "ticks": 10152,
          "time": 77.37801525,
          "velocity": 0.6377952755905512
        },
        {
          "duration": 0.15243895833333454,
          "durationTicks": 20,
          "midi": 66,
          "name": "F#4",
          "ticks": 10176,
          "time": 77.560942,
          "velocity": 0.6377952755905512
        },
        {
          "duration": 0.33536570833332746,
          "durationTicks": 44,
          "midi": 68,
          "name": "G#4",
          "ticks": 10200,
          "time": 77.74386875,
          "velocity": 0.6377952755905512
        },
        {
          "duration": 0.15243895833332033,
          "durationTicks": 20,
          "midi": 66,
          "name": "F#4",
          "ticks": 10248,
          "time": 78.10972225,
          "velocity": 0.6377952755905512
        },
        {
          "duration": 0.15243895833333454,
          "durationTicks": 20,
          "midi": 66,
          "name": "F#4",
          "ticks": 10320,
          "time": 78.6585025,
          "velocity": 0.6377952755905512
        },
        {
          "duration": 0.15243895833332033,
          "durationTicks": 20,
          "midi": 63,
          "name": "D#4",
          "ticks": 10344,
          "time": 78.84142925,
          "velocity": 0.6377952755905512
        },
        {
          "duration": 0.33536570833332746,
          "durationTicks": 44,
          "midi": 68,
          "name": "G#4",
          "ticks": 10368,
          "time": 79.024356,
          "velocity": 0.6377952755905512
        },
        {
          "duration": 0.33536570833332746,
          "durationTicks": 44,
          "midi": 68,
          "name": "G#4",
          "ticks": 10416,
          "time": 79.3902095,
          "velocity": 0.6377952755905512
        },
        {
          "duration": 0.33536570833332746,
          "durationTicks": 44,
          "midi": 68,
          "name": "G#4",
          "ticks": 10464,
          "time": 79.756063,
          "velocity": 0.6377952755905512
        },
        {
          "duration": 0.15243895833333454,
          "durationTicks": 20,
          "midi": 66,
          "name": "F#4",
          "ticks": 10512,
          "time": 80.1219165,
          "velocity": 0.6377952755905512
        },
        {
          "duration": 0.15243895833332033,
          "durationTicks": 20,
          "midi": 63,
          "name": "D#4",
          "ticks": 10536,
          "time": 80.30484325,
          "velocity": 0.6377952755905512
        },
        {
          "duration": 0.15243895833333454,
          "durationTicks": 20,
          "midi": 66,
          "name": "F#4",
          "ticks": 10560,
          "time": 80.48777,
          "velocity": 0.6377952755905512
        },
        {
          "duration": 0.15243895833332033,
          "durationTicks": 20,
          "midi": 66,
          "name": "F#4",
          "ticks": 10584,
          "time": 80.67069675,
          "velocity": 0.6377952755905512
        },
        {
          "duration": 0.15243895833333454,
          "durationTicks": 20,
          "midi": 66,
          "name": "F#4",
          "ticks": 10608,
          "time": 80.8536235,
          "velocity": 0.6377952755905512
        },
        {
          "duration": 0.15243895833332033,
          "durationTicks": 20,
          "midi": 68,
          "name": "G#4",
          "ticks": 10632,
          "time": 81.03655025,
          "velocity": 0.6377952755905512
        },
        {
          "duration": 0.15243895833333454,
          "durationTicks": 20,
          "midi": 66,
          "name": "F#4",
          "ticks": 10704,
          "time": 81.5853305,
          "velocity": 0.6377952755905512
        },
        {
          "duration": 0.15243895833332033,
          "durationTicks": 20,
          "midi": 63,
          "name": "D#4",
          "ticks": 10728,
          "time": 81.76825725,
          "velocity": 0.6377952755905512
        },
        {
          "duration": 0.33536570833332746,
          "durationTicks": 44,
          "midi": 66,
          "name": "F#4",
          "ticks": 10752,
          "time": 81.951184,
          "velocity": 0.6377952755905512
        },
        {
          "duration": 0.33536570833332746,
          "durationTicks": 44,
          "midi": 66,
          "name": "F#4",
          "ticks": 10800,
          "time": 82.3170375,
          "velocity": 0.6377952755905512
        },
        {
          "duration": 0.15243895833333454,
          "durationTicks": 20,
          "midi": 66,
          "name": "F#4",
          "ticks": 10848,
          "time": 82.682891,
          "velocity": 0.6377952755905512
        },
        {
          "duration": 0.33536570833332746,
          "durationTicks": 44,
          "midi": 68,
          "name": "G#4",
          "ticks": 10872,
          "time": 82.86581775,
          "velocity": 0.6377952755905512
        },
        {
          "duration": 0.7012192083333275,
          "durationTicks": 92,
          "midi": 66,
          "name": "F#4",
          "ticks": 10920,
          "time": 83.23167125,
          "velocity": 0.6377952755905512
        },
        {
          "duration": 0.33536570833332746,
          "durationTicks": 44,
          "midi": 68,
          "name": "G#4",
          "ticks": 11184,
          "time": 85.2438655,
          "velocity": 0.6377952755905512
        },
        {
          "duration": 0.33536570833332746,
          "durationTicks": 44,
          "midi": 68,
          "name": "G#4",
          "ticks": 11232,
          "time": 85.609719,
          "velocity": 0.6377952755905512
        },
        {
          "duration": 0.15243895833333454,
          "durationTicks": 20,
          "midi": 66,
          "name": "F#4",
          "ticks": 11280,
          "time": 85.9755725,
          "velocity": 0.6377952755905512
        },
        {
          "duration": 0.15243895833332033,
          "durationTicks": 20,
          "midi": 63,
          "name": "D#4",
          "ticks": 11304,
          "time": 86.15849925,
          "velocity": 0.6377952755905512
        },
        {
          "duration": 0.15243895833333454,
          "durationTicks": 20,
          "midi": 66,
          "name": "F#4",
          "ticks": 11328,
          "time": 86.341426,
          "velocity": 0.6377952755905512
        },
        {
          "duration": 0.15243895833332033,
          "durationTicks": 20,
          "midi": 66,
          "name": "F#4",
          "ticks": 11352,
          "time": 86.52435275,
          "velocity": 0.6377952755905512
        },
        {
          "duration": 0.15243895833333454,
          "durationTicks": 20,
          "midi": 66,
          "name": "F#4",
          "ticks": 11376,
          "time": 86.7072795,
          "velocity": 0.6377952755905512
        },
        {
          "duration": 0.15243895833332033,
          "durationTicks": 20,
          "midi": 68,
          "name": "G#4",
          "ticks": 11400,
          "time": 86.89020625,
          "velocity": 0.6377952755905512
        },
        {
          "duration": 0.15243895833332033,
          "durationTicks": 20,
          "midi": 66,
          "name": "F#4",
          "ticks": 11448,
          "time": 87.25605975,
          "velocity": 0.6377952755905512
        },
        {
          "duration": 0.15243895833333454,
          "durationTicks": 20,
          "midi": 66,
          "name": "F#4",
          "ticks": 11472,
          "time": 87.4389865,
          "velocity": 0.6377952755905512
        },
        {
          "duration": 0.15243895833332033,
          "durationTicks": 20,
          "midi": 63,
          "name": "D#4",
          "ticks": 11496,
          "time": 87.62191325,
          "velocity": 0.6377952755905512
        },
        {
          "duration": 0.33536570833332746,
          "durationTicks": 44,
          "midi": 66,
          "name": "F#4",
          "ticks": 11520,
          "time": 87.80484,
          "velocity": 0.6377952755905512
        },
        {
          "duration": 0.33536570833332746,
          "durationTicks": 44,
          "midi": 66,
          "name": "F#4",
          "ticks": 11568,
          "time": 88.1706935,
          "velocity": 0.6377952755905512
        },
        {
          "duration": 0.33536570833332746,
          "durationTicks": 44,
          "midi": 66,
          "name": "F#4",
          "ticks": 11616,
          "time": 88.536547,
          "velocity": 0.6377952755905512
        },
        {
          "duration": 0.15243895833333454,
          "durationTicks": 20,
          "midi": 66,
          "name": "F#4",
          "ticks": 11664,
          "time": 88.9024005,
          "velocity": 0.6377952755905512
        },
        {
          "duration": 0.15243895833332033,
          "durationTicks": 20,
          "midi": 63,
          "name": "D#4",
          "ticks": 11688,
          "time": 89.08532725,
          "velocity": 0.6377952755905512
        },
        {
          "duration": 0.15243895833333454,
          "durationTicks": 20,
          "midi": 66,
          "name": "F#4",
          "ticks": 11712,
          "time": 89.268254,
          "velocity": 0.6377952755905512
        },
        {
          "duration": 0.33536570833332746,
          "durationTicks": 44,
          "midi": 68,
          "name": "G#4",
          "ticks": 11736,
          "time": 89.45118075,
          "velocity": 0.6377952755905512
        },
        {
          "duration": 0.15243895833332033,
          "durationTicks": 20,
          "midi": 66,
          "name": "F#4",
          "ticks": 11784,
          "time": 89.81703425,
          "velocity": 0.6377952755905512
        },
        {
          "duration": 0.15243895833333454,
          "durationTicks": 20,
          "midi": 68,
          "name": "G#4",
          "ticks": 11856,
          "time": 90.3658145,
          "velocity": 0.6377952755905512
        },
        {
          "duration": 0.15243895833332033,
          "durationTicks": 20,
          "midi": 68,
          "name": "G#4",
          "ticks": 11880,
          "time": 90.54874125,
          "velocity": 0.6377952755905512
        },
        {
          "duration": 0.33536570833332746,
          "durationTicks": 44,
          "midi": 68,
          "name": "G#4",
          "ticks": 11904,
          "time": 90.731668,
          "velocity": 0.6377952755905512
        },
        {
          "duration": 0.33536570833332746,
          "durationTicks": 44,
          "midi": 75,
          "name": "D#5",
          "ticks": 11952,
          "time": 91.0975215,
          "velocity": 0.6377952755905512
        },
        {
          "duration": 0.33536570833332746,
          "durationTicks": 44,
          "midi": 68,
          "name": "G#4",
          "ticks": 12000,
          "time": 91.463375,
          "velocity": 0.6377952755905512
        },
        {
          "duration": 0.33536570833332746,
          "durationTicks": 44,
          "midi": 66,
          "name": "F#4",
          "ticks": 12048,
          "time": 91.8292285,
          "velocity": 0.6377952755905512
        },
        {
          "duration": 0.33536570833332746,
          "durationTicks": 44,
          "midi": 68,
          "name": "G#4",
          "ticks": 12096,
          "time": 92.195082,
          "velocity": 0.6377952755905512
        },
        {
          "duration": 0.33536570833332746,
          "durationTicks": 44,
          "midi": 75,
          "name": "D#5",
          "ticks": 12144,
          "time": 92.5609355,
          "velocity": 0.6377952755905512
        },
        {
          "duration": 0.33536570833332746,
          "durationTicks": 44,
          "midi": 68,
          "name": "G#4",
          "ticks": 12192,
          "time": 92.926789,
          "velocity": 0.6377952755905512
        },
        {
          "duration": 0.33536570833332746,
          "durationTicks": 44,
          "midi": 66,
          "name": "F#4",
          "ticks": 12240,
          "time": 93.2926425,
          "velocity": 0.6377952755905512
        },
        {
          "duration": 0.33536570833334167,
          "durationTicks": 44,
          "midi": 68,
          "name": "G#4",
          "ticks": 12288,
          "time": 93.658496,
          "velocity": 0.6377952755905512
        },
        {
          "duration": 0.33536570833334167,
          "durationTicks": 44,
          "midi": 75,
          "name": "D#5",
          "ticks": 12336,
          "time": 94.0243495,
          "velocity": 0.6377952755905512
        },
        {
          "duration": 0.33536570833334167,
          "durationTicks": 44,
          "midi": 73,
          "name": "C#5",
          "ticks": 12384,
          "time": 94.390203,
          "velocity": 0.6377952755905512
        },
        {
          "duration": 0.33536570833334167,
          "durationTicks": 44,
          "midi": 71,
          "name": "B4",
          "ticks": 12432,
          "time": 94.7560565,
          "velocity": 0.6377952755905512
        },
        {
          "duration": 1.0670727083333418,
          "durationTicks": 140,
          "midi": 68,
          "name": "G#4",
          "ticks": 12480,
          "time": 95.12191,
          "velocity": 0.6377952755905512
        },
        {
          "duration": 0.33536570833334167,
          "durationTicks": 44,
          "midi": 63,
          "name": "D#4",
          "ticks": 12672,
          "time": 96.585324,
          "velocity": 0.6929133858267716
        },
        {
          "duration": 0.15243895833334875,
          "durationTicks": 20,
          "midi": 66,
          "name": "F#4",
          "ticks": 12744,
          "time": 97.13410425,
          "velocity": 0.6929133858267716
        },
        {
          "duration": 0.33536570833334167,
          "durationTicks": 44,
          "midi": 68,
          "name": "G#4",
          "ticks": 12768,
          "time": 97.317031,
          "velocity": 0.6929133858267716
        },
        {
          "duration": 0.33536570833334167,
          "durationTicks": 44,
          "midi": 66,
          "name": "F#4",
          "ticks": 12816,
          "time": 97.6828845,
          "velocity": 0.6929133858267716
        },
        {
          "duration": 0.33536570833334167,
          "durationTicks": 44,
          "midi": 68,
          "name": "G#4",
          "ticks": 12864,
          "time": 98.048738,
          "velocity": 0.6929133858267716
        },
        {
          "duration": 0.33536570833334167,
          "durationTicks": 44,
          "midi": 66,
          "name": "F#4",
          "ticks": 12912,
          "time": 98.4145915,
          "velocity": 0.6929133858267716
        },
        {
          "duration": 0.33536570833334167,
          "durationTicks": 44,
          "midi": 63,
          "name": "D#4",
          "ticks": 12960,
          "time": 98.780445,
          "velocity": 0.6929133858267716
        },
        {
          "duration": 0.33536570833334167,
          "durationTicks": 44,
          "midi": 61,
          "name": "C#4",
          "ticks": 13056,
          "time": 99.512152,
          "velocity": 0.6929133858267716
        },
        {
          "duration": 0.15243895833334875,
          "durationTicks": 20,
          "midi": 63,
          "name": "D#4",
          "ticks": 13128,
          "time": 100.06093225,
          "velocity": 0.6929133858267716
        },
        {
          "duration": 0.33536570833334167,
          "durationTicks": 44,
          "midi": 66,
          "name": "F#4",
          "ticks": 13152,
          "time": 100.243859,
          "velocity": 0.6929133858267716
        },
        {
          "duration": 0.33536570833334167,
          "durationTicks": 44,
          "midi": 63,
          "name": "D#4",
          "ticks": 13200,
          "time": 100.6097125,
          "velocity": 0.6929133858267716
        },
        {
          "duration": 0.33536570833334167,
          "durationTicks": 44,
          "midi": 66,
          "name": "F#4",
          "ticks": 13248,
          "time": 100.975566,
          "velocity": 0.6929133858267716
        },
        {
          "duration": 0.33536570833334167,
          "durationTicks": 44,
          "midi": 68,
          "name": "G#4",
          "ticks": 13296,
          "time": 101.3414195,
          "velocity": 0.6929133858267716
        },
        {
          "duration": 0.33536570833334167,
          "durationTicks": 44,
          "midi": 63,
          "name": "D#4",
          "ticks": 13344,
          "time": 101.707273,
          "velocity": 0.6929133858267716
        },
        {
          "duration": 0.33536570833334167,
          "durationTicks": 44,
          "midi": 63,
          "name": "D#4",
          "ticks": 13440,
          "time": 102.43898,
          "velocity": 0.6929133858267716
        },
        {
          "duration": 0.15243895833334875,
          "durationTicks": 20,
          "midi": 66,
          "name": "F#4",
          "ticks": 13512,
          "time": 102.98776025,
          "velocity": 0.6929133858267716
        },
        {
          "duration": 0.33536570833334167,
          "durationTicks": 44,
          "midi": 68,
          "name": "G#4",
          "ticks": 13536,
          "time": 103.170687,
          "velocity": 0.6929133858267716
        },
        {
          "duration": 0.33536570833334167,
          "durationTicks": 44,
          "midi": 66,
          "name": "F#4",
          "ticks": 13584,
          "time": 103.5365405,
          "velocity": 0.6929133858267716
        },
        {
          "duration": 0.33536570833334167,
          "durationTicks": 44,
          "midi": 68,
          "name": "G#4",
          "ticks": 13632,
          "time": 103.902394,
          "velocity": 0.6929133858267716
        },
        {
          "duration": 0.33536570833334167,
          "durationTicks": 44,
          "midi": 66,
          "name": "F#4",
          "ticks": 13680,
          "time": 104.2682475,
          "velocity": 0.6929133858267716
        },
        {
          "duration": 0.33536570833334167,
          "durationTicks": 44,
          "midi": 63,
          "name": "D#4",
          "ticks": 13728,
          "time": 104.634101,
          "velocity": 0.6929133858267716
        },
        {
          "duration": 0.33536570833334167,
          "durationTicks": 44,
          "midi": 61,
          "name": "C#4",
          "ticks": 13824,
          "time": 105.365808,
          "velocity": 0.6929133858267716
        },
        {
          "duration": 0.33536570833334167,
          "durationTicks": 44,
          "midi": 63,
          "name": "D#4",
          "ticks": 13872,
          "time": 105.7316615,
          "velocity": 0.6929133858267716
        },
        {
          "duration": 0.33536570833334167,
          "durationTicks": 44,
          "midi": 66,
          "name": "F#4",
          "ticks": 13920,
          "time": 106.097515,
          "velocity": 0.6929133858267716
        },
        {
          "duration": 0.33536570833334167,
          "durationTicks": 44,
          "midi": 68,
          "name": "G#4",
          "ticks": 13968,
          "time": 106.4633685,
          "velocity": 0.6929133858267716
        },
        {
          "duration": 0.7012192083333417,
          "durationTicks": 92,
          "midi": 63,
          "name": "D#4",
          "ticks": 14016,
          "time": 106.829222,
          "velocity": 0.6929133858267716
        },
        {
          "duration": 0.33536570833334167,
          "durationTicks": 44,
          "midi": 63,
          "name": "D#4",
          "ticks": 14160,
          "time": 107.9267825,
          "velocity": 0.6929133858267716
        },
        {
          "duration": 0.33536570833334167,
          "durationTicks": 44,
          "midi": 63,
          "name": "D#4",
          "ticks": 14208,
          "time": 108.292636,
          "velocity": 0.6929133858267716
        },
        {
          "duration": 0.15243895833334875,
          "durationTicks": 20,
          "midi": 66,
          "name": "F#4",
          "ticks": 14280,
          "time": 108.84141625,
          "velocity": 0.6929133858267716
        },
        {
          "duration": 0.33536570833334167,
          "durationTicks": 44,
          "midi": 68,
          "name": "G#4",
          "ticks": 14304,
          "time": 109.024343,
          "velocity": 0.6929133858267716
        },
        {
          "duration": 0.33536570833334167,
          "durationTicks": 44,
          "midi": 66,
          "name": "F#4",
          "ticks": 14352,
          "time": 109.3901965,
          "velocity": 0.6929133858267716
        },
        {
          "duration": 0.33536570833334167,
          "durationTicks": 44,
          "midi": 68,
          "name": "G#4",
          "ticks": 14400,
          "time": 109.75605,
          "velocity": 0.6929133858267716
        },
        {
          "duration": 0.33536570833334167,
          "durationTicks": 44,
          "midi": 66,
          "name": "F#4",
          "ticks": 14448,
          "time": 110.1219035,
          "velocity": 0.6929133858267716
        },
        {
          "duration": 0.33536570833334167,
          "durationTicks": 44,
          "midi": 63,
          "name": "D#4",
          "ticks": 14496,
          "time": 110.487757,
          "velocity": 0.6929133858267716
        },
        {
          "duration": 0.33536570833334167,
          "durationTicks": 44,
          "midi": 61,
          "name": "C#4",
          "ticks": 14592,
          "time": 111.219464,
          "velocity": 0.6929133858267716
        },
        {
          "duration": 0.15243895833334875,
          "durationTicks": 20,
          "midi": 63,
          "name": "D#4",
          "ticks": 14664,
          "time": 111.76824425,
          "velocity": 0.6929133858267716
        },
        {
          "duration": 0.33536570833334167,
          "durationTicks": 44,
          "midi": 66,
          "name": "F#4",
          "ticks": 14688,
          "time": 111.951171,
          "velocity": 0.6929133858267716
        },
        {
          "duration": 0.33536570833334167,
          "durationTicks": 44,
          "midi": 63,
          "name": "D#4",
          "ticks": 14736,
          "time": 112.3170245,
          "velocity": 0.6929133858267716
        },
        {
          "duration": 0.33536570833334167,
          "durationTicks": 44,
          "midi": 66,
          "name": "F#4",
          "ticks": 14784,
          "time": 112.682878,
          "velocity": 0.6929133858267716
        },
        {
          "duration": 0.33536570833334167,
          "durationTicks": 44,
          "midi": 68,
          "name": "G#4",
          "ticks": 14832,
          "time": 113.0487315,
          "velocity": 0.6929133858267716
        },
        {
          "duration": 0.33536570833334167,
          "durationTicks": 44,
          "midi": 63,
          "name": "D#4",
          "ticks": 14880,
          "time": 113.414585,
          "velocity": 0.6929133858267716
        },
        {
          "duration": 0.33536570833334167,
          "durationTicks": 44,
          "midi": 63,
          "name": "D#4",
          "ticks": 14976,
          "time": 114.146292,
          "velocity": 0.6929133858267716
        },
        {
          "duration": 0.15243895833334875,
          "durationTicks": 20,
          "midi": 66,
          "name": "F#4",
          "ticks": 15048,
          "time": 114.69507225,
          "velocity": 0.6929133858267716
        },
        {
          "duration": 0.33536570833334167,
          "durationTicks": 44,
          "midi": 68,
          "name": "G#4",
          "ticks": 15072,
          "time": 114.877999,
          "velocity": 0.6929133858267716
        },
        {
          "duration": 0.33536570833334167,
          "durationTicks": 44,
          "midi": 66,
          "name": "F#4",
          "ticks": 15120,
          "time": 115.2438525,
          "velocity": 0.6929133858267716
        },
        {
          "duration": 0.33536570833334167,
          "durationTicks": 44,
          "midi": 68,
          "name": "G#4",
          "ticks": 15168,
          "time": 115.609706,
          "velocity": 0.6929133858267716
        },
        {
          "duration": 0.33536570833334167,
          "durationTicks": 44,
          "midi": 66,
          "name": "F#4",
          "ticks": 15216,
          "time": 115.9755595,
          "velocity": 0.6929133858267716
        },
        {
          "duration": 0.33536570833334167,
          "durationTicks": 44,
          "midi": 63,
          "name": "D#4",
          "ticks": 15264,
          "time": 116.341413,
          "velocity": 0.6929133858267716
        },
        {
          "duration": 0.33536570833334167,
          "durationTicks": 44,
          "midi": 61,
          "name": "C#4",
          "ticks": 15360,
          "time": 117.07312,
          "velocity": 0.6929133858267716
        },
        {
          "duration": 0.33536570833334167,
          "durationTicks": 44,
          "midi": 63,
          "name": "D#4",
          "ticks": 15408,
          "time": 117.4389735,
          "velocity": 0.6929133858267716
        },
        {
          "duration": 0.33536570833334167,
          "durationTicks": 44,
          "midi": 61,
          "name": "C#4",
          "ticks": 15456,
          "time": 117.804827,
          "velocity": 0.6929133858267716
        },
        {
          "duration": 0.33536570833334167,
          "durationTicks": 44,
          "midi": 59,
          "name": "B3",
          "ticks": 15504,
          "time": 118.1706805,
          "velocity": 0.6929133858267716
        },
        {
          "duration": 1.0670727083333418,
          "durationTicks": 140,
          "midi": 56,
          "name": "G#3",
          "ticks": 15552,
          "time": 118.536534,
          "velocity": 0.6929133858267716
        },
        {
          "duration": 0.33536570833334167,
          "durationTicks": 44,
          "midi": 64,
          "name": "E4",
          "ticks": 17280,
          "time": 131.70726,
          "velocity": 0.7716535433070866
        },
        {
          "duration": 0.15243895833333454,
          "durationTicks": 20,
          "midi": 67,
          "name": "G4",
          "ticks": 17352,
          "time": 132.25604025,
          "velocity": 0.7716535433070866
        },
        {
          "duration": 0.33536570833334167,
          "durationTicks": 44,
          "midi": 69,
          "name": "A4",
          "ticks": 17376,
          "time": 132.438967,
          "velocity": 0.7716535433070866
        },
        {
          "duration": 0.33536570833334167,
          "durationTicks": 44,
          "midi": 67,
          "name": "G4",
          "ticks": 17424,
          "time": 132.8048205,
          "velocity": 0.7716535433070866
        },
        {
          "duration": 0.33536570833334167,
          "durationTicks": 44,
          "midi": 69,
          "name": "A4",
          "ticks": 17472,
          "time": 133.170674,
          "velocity": 0.7716535433070866
        },
        {
          "duration": 0.33536570833334167,
          "durationTicks": 44,
          "midi": 67,
          "name": "G4",
          "ticks": 17520,
          "time": 133.5365275,
          "velocity": 0.7716535433070866
        },
        {
          "duration": 0.33536570833334167,
          "durationTicks": 44,
          "midi": 64,
          "name": "E4",
          "ticks": 17568,
          "time": 133.902381,
          "velocity": 0.7716535433070866
        },
        {
          "duration": 0.33536570833334167,
          "durationTicks": 44,
          "midi": 62,
          "name": "D4",
          "ticks": 17664,
          "time": 134.634088,
          "velocity": 0.7716535433070866
        },
        {
          "duration": 0.15243895833333454,
          "durationTicks": 20,
          "midi": 64,
          "name": "E4",
          "ticks": 17736,
          "time": 135.18286825,
          "velocity": 0.7716535433070866
        },
        {
          "duration": 0.33536570833334167,
          "durationTicks": 44,
          "midi": 67,
          "name": "G4",
          "ticks": 17760,
          "time": 135.365795,
          "velocity": 0.7716535433070866
        },
        {
          "duration": 0.33536570833334167,
          "durationTicks": 44,
          "midi": 64,
          "name": "E4",
          "ticks": 17808,
          "time": 135.7316485,
          "velocity": 0.7716535433070866
        },
        {
          "duration": 0.33536570833334167,
          "durationTicks": 44,
          "midi": 67,
          "name": "G4",
          "ticks": 17856,
          "time": 136.097502,
          "velocity": 0.7716535433070866
        },
        {
          "duration": 0.33536570833334167,
          "durationTicks": 44,
          "midi": 69,
          "name": "A4",
          "ticks": 17904,
          "time": 136.4633555,
          "velocity": 0.7716535433070866
        },
        {
          "duration": 0.33536570833334167,
          "durationTicks": 44,
          "midi": 64,
          "name": "E4",
          "ticks": 17952,
          "time": 136.829209,
          "velocity": 0.7716535433070866
        },
        {
          "duration": 0.33536570833334167,
          "durationTicks": 44,
          "midi": 64,
          "name": "E4",
          "ticks": 18048,
          "time": 137.560916,
          "velocity": 0.7716535433070866
        },
        {
          "duration": 0.15243895833333454,
          "durationTicks": 20,
          "midi": 67,
          "name": "G4",
          "ticks": 18120,
          "time": 138.10969625,
          "velocity": 0.7716535433070866
        },
        {
          "duration": 0.33536570833334167,
          "durationTicks": 44,
          "midi": 69,
          "name": "A4",
          "ticks": 18144,
          "time": 138.292623,
          "velocity": 0.7716535433070866
        },
        {
          "duration": 0.33536570833334167,
          "durationTicks": 44,
          "midi": 67,
          "name": "G4",
          "ticks": 18192,
          "time": 138.6584765,
          "velocity": 0.7716535433070866
        },
        {
          "duration": 0.33536570833334167,
          "durationTicks": 44,
          "midi": 69,
          "name": "A4",
          "ticks": 18240,
          "time": 139.02433,
          "velocity": 0.7716535433070866
        },
        {
          "duration": 0.33536570833334167,
          "durationTicks": 44,
          "midi": 67,
          "name": "G4",
          "ticks": 18288,
          "time": 139.3901835,
          "velocity": 0.7716535433070866
        },
        {
          "duration": 0.33536570833334167,
          "durationTicks": 44,
          "midi": 64,
          "name": "E4",
          "ticks": 18336,
          "time": 139.756037,
          "velocity": 0.7716535433070866
        },
        {
          "duration": 0.33536570833334167,
          "durationTicks": 44,
          "midi": 62,
          "name": "D4",
          "ticks": 18432,
          "time": 140.487744,
          "velocity": 0.7716535433070866
        },
        {
          "duration": 0.33536570833334167,
          "durationTicks": 44,
          "midi": 64,
          "name": "E4",
          "ticks": 18480,
          "time": 140.8535975,
          "velocity": 0.7716535433070866
        },
        {
          "duration": 0.33536570833334167,
          "durationTicks": 44,
          "midi": 67,
          "name": "G4",
          "ticks": 18528,
          "time": 141.219451,
          "velocity": 0.7716535433070866
        },
        {
          "duration": 0.33536570833334167,
          "durationTicks": 44,
          "midi": 69,
          "name": "A4",
          "ticks": 18576,
          "time": 141.5853045,
          "velocity": 0.7716535433070866
        },
        {
          "duration": 0.7469508958333506,
          "durationTicks": 98,
          "midi": 64,
          "name": "E4",
          "ticks": 18624,
          "time": 141.951158,
          "velocity": 0.7716535433070866
        },
        {
          "duration": 0.33536570833334167,
          "durationTicks": 44,
          "midi": 64,
          "name": "E4",
          "ticks": 18768,
          "time": 143.0487185,
          "velocity": 0.7716535433070866
        },
        {
          "duration": 0.33536570833334167,
          "durationTicks": 44,
          "midi": 64,
          "name": "E4",
          "ticks": 18816,
          "time": 143.414572,
          "velocity": 0.7716535433070866
        },
        {
          "duration": 0.15243895833336296,
          "durationTicks": 20,
          "midi": 67,
          "name": "G4",
          "ticks": 18888,
          "time": 143.96335224999999,
          "velocity": 0.7716535433070866
        },
        {
          "duration": 0.33536570833334167,
          "durationTicks": 44,
          "midi": 69,
          "name": "A4",
          "ticks": 18912,
          "time": 144.146279,
          "velocity": 0.7716535433070866
        },
        {
          "duration": 0.33536570833334167,
          "durationTicks": 44,
          "midi": 67,
          "name": "G4",
          "ticks": 18960,
          "time": 144.5121325,
          "velocity": 0.7716535433070866
        },
        {
          "duration": 0.33536570833334167,
          "durationTicks": 44,
          "midi": 69,
          "name": "A4",
          "ticks": 19008,
          "time": 144.877986,
          "velocity": 0.7716535433070866
        },
        {
          "duration": 0.33536570833334167,
          "durationTicks": 44,
          "midi": 67,
          "name": "G4",
          "ticks": 19056,
          "time": 145.2438395,
          "velocity": 0.7716535433070866
        },
        {
          "duration": 0.33536570833334167,
          "durationTicks": 44,
          "midi": 64,
          "name": "E4",
          "ticks": 19104,
          "time": 145.609693,
          "velocity": 0.7716535433070866
        },
        {
          "duration": 0.33536570833334167,
          "durationTicks": 44,
          "midi": 62,
          "name": "D4",
          "ticks": 19200,
          "time": 146.3414,
          "velocity": 0.7716535433070866
        },
        {
          "duration": 0.15243895833336296,
          "durationTicks": 20,
          "midi": 64,
          "name": "E4",
          "ticks": 19272,
          "time": 146.89018025,
          "velocity": 0.7716535433070866
        },
        {
          "duration": 0.33536570833334167,
          "durationTicks": 44,
          "midi": 67,
          "name": "G4",
          "ticks": 19296,
          "time": 147.073107,
          "velocity": 0.7716535433070866
        },
        {
          "duration": 0.33536570833334167,
          "durationTicks": 44,
          "midi": 64,
          "name": "E4",
          "ticks": 19344,
          "time": 147.4389605,
          "velocity": 0.7716535433070866
        },
        {
          "duration": 0.33536570833334167,
          "durationTicks": 44,
          "midi": 67,
          "name": "G4",
          "ticks": 19392,
          "time": 147.804814,
          "velocity": 0.7716535433070866
        },
        {
          "duration": 0.33536570833334167,
          "durationTicks": 44,
          "midi": 69,
          "name": "A4",
          "ticks": 19440,
          "time": 148.1706675,
          "velocity": 0.7716535433070866
        },
        {
          "duration": 0.33536570833334167,
          "durationTicks": 44,
          "midi": 64,
          "name": "E4",
          "ticks": 19488,
          "time": 148.536521,
          "velocity": 0.7716535433070866
        },
        {
          "duration": 0.33536570833334167,
          "durationTicks": 44,
          "midi": 64,
          "name": "E4",
          "ticks": 19584,
          "time": 149.268228,
          "velocity": 0.7716535433070866
        },
        {
          "duration": 0.15243895833336296,
          "durationTicks": 20,
          "midi": 67,
          "name": "G4",
          "ticks": 19656,
          "time": 149.81700825,
          "velocity": 0.7716535433070866
        },
        {
          "duration": 0.33536570833334167,
          "durationTicks": 44,
          "midi": 69,
          "name": "A4",
          "ticks": 19680,
          "time": 149.999935,
          "velocity": 0.7716535433070866
        },
        {
          "duration": 0.33536570833334167,
          "durationTicks": 44,
          "midi": 67,
          "name": "G4",
          "ticks": 19728,
          "time": 150.3657885,
          "velocity": 0.7716535433070866
        },
        {
          "duration": 0.33536570833334167,
          "durationTicks": 44,
          "midi": 69,
          "name": "A4",
          "ticks": 19776,
          "time": 150.731642,
          "velocity": 0.7716535433070866
        },
        {
          "duration": 0.33536570833334167,
          "durationTicks": 44,
          "midi": 67,
          "name": "G4",
          "ticks": 19824,
          "time": 151.0974955,
          "velocity": 0.7716535433070866
        },
        {
          "duration": 0.33536570833334167,
          "durationTicks": 44,
          "midi": 64,
          "name": "E4",
          "ticks": 19872,
          "time": 151.463349,
          "velocity": 0.7716535433070866
        },
        {
          "duration": 0.33536570833334167,
          "durationTicks": 44,
          "midi": 62,
          "name": "D4",
          "ticks": 19968,
          "time": 152.195056,
          "velocity": 0.7716535433070866
        },
        {
          "duration": 0.33536570833334167,
          "durationTicks": 44,
          "midi": 64,
          "name": "E4",
          "ticks": 20016,
          "time": 152.5609095,
          "velocity": 0.7716535433070866
        },
        {
          "duration": 0.33536570833334167,
          "durationTicks": 44,
          "midi": 62,
          "name": "D4",
          "ticks": 20064,
          "time": 152.926763,
          "velocity": 0.7716535433070866
        },
        {
          "duration": 0.33536570833334167,
          "durationTicks": 44,
          "midi": 55,
          "name": "G3",
          "ticks": 20112,
          "time": 153.2926165,
          "velocity": 0.7716535433070866
        },
        {
          "duration": 1.1128043958333365,
          "durationTicks": 146,
          "midi": 57,
          "name": "A3",
          "ticks": 20160,
          "time": 153.65847,
          "velocity": 0.7716535433070866
        }
      ]
    },
    {
      "channel": 0,
      "controlChanges": {
        "6": [
          {
            "number": 6,
            "ticks": 0,
            "time": 0,
            "value": 0.09448818897637795
          }
        ],
        "7": [
          {
            "number": 7,
            "ticks": 0,
            "time": 0,
            "value": 0.7874015748031497
          },
          {
            "number": 7,
            "ticks": 0,
            "time": 0,
            "value": 0.7874015748031497
          }
        ],
        "10": [
          {
            "number": 10,
            "ticks": 0,
            "time": 0,
            "value": 0.5039370078740157
          },
          {
            "number": 10,
            "ticks": 0,
            "time": 0,
            "value": 0.5039370078740157
          }
        ],
        "100": [
          {
            "number": 100,
            "ticks": 0,
            "time": 0,
            "value": 0
          }
        ],
        "101": [
          {
            "number": 101,
            "ticks": 0,
            "time": 0,
            "value": 0
          }
        ]
      },
      "pitchBends": [
        {
          "ticks": 0,
          "time": 0,
          "value": 0
        },
        {
          "ticks": 0,
          "time": 0,
          "value": 0
        }
      ],
      "instrument": {
        "family": "piano",
        "name": "acoustic grand piano",
        "number": 0
      },
      "name": "Voice",
      "notes": []
    },
    {
      "channel": 3,
      "controlChanges": {
        "6": [
          {
            "number": 6,
            "ticks": 0,
            "time": 0,
            "value": 0.09448818897637795
          },
          {
            "number": 6,
            "ticks": 22752,
            "time": 173.414559,
            "value": 0.09448818897637795
          },
          {
            "number": 6,
            "ticks": 22753,
            "time": 173.42218094791667,
            "value": 0.09448818897637795
          },
          {
            "number": 6,
            "ticks": 22753,
            "time": 173.42218094791667,
            "value": 0.09448818897637795
          }
        ],
        "7": [
          {
            "number": 7,
            "ticks": 0,
            "time": 0,
            "value": 0.7874015748031497
          },
          {
            "number": 7,
            "ticks": 0,
            "time": 0,
            "value": 0.7874015748031497
          },
          {
            "number": 7,
            "ticks": 0,
            "time": 0,
            "value": 0.7874015748031497
          },
          {
            "number": 7,
            "ticks": 22752,
            "time": 173.414559,
            "value": 0.7874015748031497
          },
          {
            "number": 7,
            "ticks": 22753,
            "time": 173.42218094791667,
            "value": 0.7874015748031497
          },
          {
            "number": 7,
            "ticks": 22753,
            "time": 173.42218094791667,
            "value": 0.7874015748031497
          }
        ],
        "10": [
          {
            "number": 10,
            "ticks": 0,
            "time": 0,
            "value": 0.5039370078740157
          },
          {
            "number": 10,
            "ticks": 0,
            "time": 0,
            "value": 0.5039370078740157
          },
          {
            "number": 10,
            "ticks": 0,
            "time": 0,
            "value": 0.5039370078740157
          },
          {
            "number": 10,
            "ticks": 22752,
            "time": 173.414559,
            "value": 0.5039370078740157
          },
          {
            "number": 10,
            "ticks": 22753,
            "time": 173.42218094791667,
            "value": 0.5039370078740157
          },
          {
            "number": 10,
            "ticks": 22753,
            "time": 173.42218094791667,
            "value": 0.5039370078740157
          }
        ],
        "91": [
          {
            "number": 91,
            "ticks": 0,
            "time": 0,
            "value": 0.5039370078740157
          },
          {
            "number": 91,
            "ticks": 0,
            "time": 0,
            "value": 0.5039370078740157
          },
          {
            "number": 91,
            "ticks": 0,
            "time": 0,
            "value": 0.5039370078740157
          },
          {
            "number": 91,
            "ticks": 0,
            "time": 0,
            "value": 0.5039370078740157
          },
          {
            "number": 91,
            "ticks": 22752,
            "time": 173.414559,
            "value": 0.5039370078740157
          },
          {
            "number": 91,
            "ticks": 22753,
            "time": 173.42218094791667,
            "value": 0.5039370078740157
          },
          {
            "number": 91,
            "ticks": 22753,
            "time": 173.42218094791667,
            "value": 0.5039370078740157
          }
        ],
        "93": [
          {
            "number": 93,
            "ticks": 0,
            "time": 0,
            "value": 0.25196850393700787
          },
          {
            "number": 93,
            "ticks": 0,
            "time": 0,
            "value": 0.25196850393700787
          },
          {
            "number": 93,
            "ticks": 0,
            "time": 0,
            "value": 0.25196850393700787
          },
          {
            "number": 93,
            "ticks": 0,
            "time": 0,
            "value": 0.25196850393700787
          },
          {
            "number": 93,
            "ticks": 22752,
            "time": 173.414559,
            "value": 0.25196850393700787
          },
          {
            "number": 93,
            "ticks": 22753,
            "time": 173.42218094791667,
            "value": 0.25196850393700787
          },
          {
            "number": 93,
            "ticks": 22753,
            "time": 173.42218094791667,
            "value": 0.25196850393700787
          }
        ],
        "100": [
          {
            "number": 100,
            "ticks": 0,
            "time": 0,
            "value": 0
          },
          {
            "number": 100,
            "ticks": 22752,
            "time": 173.414559,
            "value": 0
          },
          {
            "number": 100,
            "ticks": 22753,
            "time": 173.42218094791667,
            "value": 0
          },
          {
            "number": 100,
            "ticks": 22753,
            "time": 173.42218094791667,
            "value": 0
          }
        ],
        "101": [
          {
            "number": 101,
            "ticks": 0,
            "time": 0,
            "value": 0
          },
          {
            "number": 101,
            "ticks": 22752,
            "time": 173.414559,
            "value": 0
          },
          {
            "number": 101,
            "ticks": 22753,
            "time": 173.42218094791667,
            "value": 0
          },
          {
            "number": 101,
            "ticks": 22753,
            "time": 173.42218094791667,
            "value": 0
          }
        ]
      },
      "pitchBends": [
        {
          "ticks": 0,
          "time": 0,
          "value": 0
        },
        {
          "ticks": 0,
          "time": 0,
          "value": 0
        },
        {
          "ticks": 0,
          "time": 0,
          "value": 0
        },
        {
          "ticks": 22752,
          "time": 173.414559,
          "value": 0
        },
        {
          "ticks": 22753,
          "time": 173.42218094791667,
          "value": 0
        },
        {
          "ticks": 22753,
          "time": 173.42218094791667,
          "value": 0
        }
      ],
      "instrument": {
        "family": "ensemble",
        "name": "voice oohs",
        "number": 53
      },
      "name": "",
      "notes": [
        {
          "duration": 0.33536570833333457,
          "durationTicks": 44,
          "midi": 63,
          "name": "D#4",
          "ticks": 4992,
          "time": 38.048764,
          "velocity": 0.6062992125984252
        },
        {
          "duration": 0.33536570833333457,
          "durationTicks": 44,
          "midi": 59,
          "name": "B3",
          "ticks": 4992,
          "time": 38.048764,
          "velocity": 0.6062992125984252
        },
        {
          "duration": 0.15243895833333454,
          "durationTicks": 20,
          "midi": 66,
          "name": "F#4",
          "ticks": 5064,
          "time": 38.59754425,
          "velocity": 0.6062992125984252
        },
        {
          "duration": 0.15243895833333454,
          "durationTicks": 20,
          "midi": 61,
          "name": "C#4",
          "ticks": 5064,
          "time": 38.59754425,
          "velocity": 0.6062992125984252
        },
        {
          "duration": 0.33536570833333457,
          "durationTicks": 44,
          "midi": 68,
          "name": "G#4",
          "ticks": 5088,
          "time": 38.780471,
          "velocity": 0.6062992125984252
        },
        {
          "duration": 0.33536570833333457,
          "durationTicks": 44,
          "midi": 63,
          "name": "D#4",
          "ticks": 5088,
          "time": 38.780471,
          "velocity": 0.6062992125984252
        },
        {
          "duration": 0.33536570833333457,
          "durationTicks": 44,
          "midi": 66,
          "name": "F#4",
          "ticks": 5136,
          "time": 39.1463245,
          "velocity": 0.6062992125984252
        },
        {
          "duration": 0.33536570833333457,
          "durationTicks": 44,
          "midi": 61,
          "name": "C#4",
          "ticks": 5136,
          "time": 39.1463245,
          "velocity": 0.6062992125984252
        },
        {
          "duration": 0.33536570833333457,
          "durationTicks": 44,
          "midi": 68,
          "name": "G#4",
          "ticks": 5184,
          "time": 39.512178,
          "velocity": 0.6062992125984252
        },
        {
          "duration": 0.33536570833333457,
          "durationTicks": 44,
          "midi": 63,
          "name": "D#4",
          "ticks": 5184,
          "time": 39.512178,
          "velocity": 0.6062992125984252
        },
        {
          "duration": 0.33536570833333457,
          "durationTicks": 44,
          "midi": 66,
          "name": "F#4",
          "ticks": 5232,
          "time": 39.8780315,
          "velocity": 0.6062992125984252
        },
        {
          "duration": 0.33536570833333457,
          "durationTicks": 44,
          "midi": 61,
          "name": "C#4",
          "ticks": 5232,
          "time": 39.8780315,
          "velocity": 0.6062992125984252
        },
        {
          "duration": 0.33536570833333457,
          "durationTicks": 44,
          "midi": 63,
          "name": "D#4",
          "ticks": 5280,
          "time": 40.243885,
          "velocity": 0.6062992125984252
        },
        {
          "duration": 0.33536570833333457,
          "durationTicks": 44,
          "midi": 59,
          "name": "B3",
          "ticks": 5280,
          "time": 40.243885,
          "velocity": 0.6062992125984252
        },
        {
          "duration": 0.33536570833333457,
          "durationTicks": 44,
          "midi": 61,
          "name": "C#4",
          "ticks": 5376,
          "time": 40.975592,
          "velocity": 0.6062992125984252
        },
        {
          "duration": 0.33536570833333457,
          "durationTicks": 44,
          "midi": 58,
          "name": "A#3",
          "ticks": 5376,
          "time": 40.975592,
          "velocity": 0.6062992125984252
        },
        {
          "duration": 0.15243895833333454,
          "durationTicks": 20,
          "midi": 63,
          "name": "D#4",
          "ticks": 5448,
          "time": 41.52437225,
          "velocity": 0.6062992125984252
        },
        {
          "duration": 0.15243895833333454,
          "durationTicks": 20,
          "midi": 58,
          "name": "A#3",
          "ticks": 5448,
          "time": 41.52437225,
          "velocity": 0.6062992125984252
        },
        {
          "duration": 0.33536570833333457,
          "durationTicks": 44,
          "midi": 66,
          "name": "F#4",
          "ticks": 5472,
          "time": 41.707299,
          "velocity": 0.6062992125984252
        },
        {
          "duration": 0.33536570833333457,
          "durationTicks": 44,
          "midi": 61,
          "name": "C#4",
          "ticks": 5472,
          "time": 41.707299,
          "velocity": 0.6062992125984252
        },
        {
          "duration": 0.33536570833333457,
          "durationTicks": 44,
          "midi": 63,
          "name": "D#4",
          "ticks": 5520,
          "time": 42.0731525,
          "velocity": 0.6062992125984252
        },
        {
          "duration": 0.33536570833333457,
          "durationTicks": 44,
          "midi": 58,
          "name": "A#3",
          "ticks": 5520,
          "time": 42.0731525,
          "velocity": 0.6062992125984252
        },
        {
          "duration": 0.33536570833333457,
          "durationTicks": 44,
          "midi": 66,
          "name": "F#4",
          "ticks": 5568,
          "time": 42.439006,
          "velocity": 0.6062992125984252
        },
        {
          "duration": 0.33536570833333457,
          "durationTicks": 44,
          "midi": 61,
          "name": "C#4",
          "ticks": 5568,
          "time": 42.439006,
          "velocity": 0.6062992125984252
        },
        {
          "duration": 0.33536570833333457,
          "durationTicks": 44,
          "midi": 68,
          "name": "G#4",
          "ticks": 5616,
          "time": 42.8048595,
          "velocity": 0.6062992125984252
        },
        {
          "duration": 0.33536570833333457,
          "durationTicks": 44,
          "midi": 63,
          "name": "D#4",
          "ticks": 5616,
          "time": 42.8048595,
          "velocity": 0.6062992125984252
        },
        {
          "duration": 0.33536570833333457,
          "durationTicks": 44,
          "midi": 63,
          "name": "D#4",
          "ticks": 5664,
          "time": 43.170713,
          "velocity": 0.6062992125984252
        },
        {
          "duration": 0.33536570833333457,
          "durationTicks": 44,
          "midi": 59,
          "name": "B3",
          "ticks": 5664,
          "time": 43.170713,
          "velocity": 0.6062992125984252
        },
        {
          "duration": 0.33536570833333457,
          "durationTicks": 44,
          "midi": 63,
          "name": "D#4",
          "ticks": 5760,
          "time": 43.90242,
          "velocity": 0.6062992125984252
        },
        {
          "duration": 0.33536570833333457,
          "durationTicks": 44,
          "midi": 59,
          "name": "B3",
          "ticks": 5760,
          "time": 43.90242,
          "velocity": 0.6062992125984252
        },
        {
          "duration": 0.15243895833333454,
          "durationTicks": 20,
          "midi": 66,
          "name": "F#4",
          "ticks": 5832,
          "time": 44.45120025,
          "velocity": 0.6062992125984252
        },
        {
          "duration": 0.15243895833333454,
          "durationTicks": 20,
          "midi": 61,
          "name": "C#4",
          "ticks": 5832,
          "time": 44.45120025,
          "velocity": 0.6062992125984252
        },
        {
          "duration": 0.33536570833333457,
          "durationTicks": 44,
          "midi": 68,
          "name": "G#4",
          "ticks": 5856,
          "time": 44.634127,
          "velocity": 0.6062992125984252
        },
        {
          "duration": 0.33536570833333457,
          "durationTicks": 44,
          "midi": 63,
          "name": "D#4",
          "ticks": 5856,
          "time": 44.634127,
          "velocity": 0.6062992125984252
        },
        {
          "duration": 0.33536570833333457,
          "durationTicks": 44,
          "midi": 66,
          "name": "F#4",
          "ticks": 5904,
          "time": 44.9999805,
          "velocity": 0.6062992125984252
        },
        {
          "duration": 0.33536570833333457,
          "durationTicks": 44,
          "midi": 61,
          "name": "C#4",
          "ticks": 5904,
          "time": 44.9999805,
          "velocity": 0.6062992125984252
        },
        {
          "duration": 0.33536570833333457,
          "durationTicks": 44,
          "midi": 68,
          "name": "G#4",
          "ticks": 5952,
          "time": 45.365834,
          "velocity": 0.6062992125984252
        },
        {
          "duration": 0.33536570833333457,
          "durationTicks": 44,
          "midi": 63,
          "name": "D#4",
          "ticks": 5952,
          "time": 45.365834,
          "velocity": 0.6062992125984252
        },
        {
          "duration": 0.33536570833333457,
          "durationTicks": 44,
          "midi": 66,
          "name": "F#4",
          "ticks": 6000,
          "time": 45.7316875,
          "velocity": 0.6062992125984252
        },
        {
          "duration": 0.33536570833333457,
          "durationTicks": 44,
          "midi": 61,
          "name": "C#4",
          "ticks": 6000,
          "time": 45.7316875,
          "velocity": 0.6062992125984252
        },
        {
          "duration": 0.33536570833333457,
          "durationTicks": 44,
          "midi": 63,
          "name": "D#4",
          "ticks": 6048,
          "time": 46.097541,
          "velocity": 0.6062992125984252
        },
        {
          "duration": 0.33536570833333457,
          "durationTicks": 44,
          "midi": 59,
          "name": "B3",
          "ticks": 6048,
          "time": 46.097541,
          "velocity": 0.6062992125984252
        },
        {
          "duration": 0.33536570833332746,
          "durationTicks": 44,
          "midi": 61,
          "name": "C#4",
          "ticks": 6144,
          "time": 46.829248,
          "velocity": 0.6062992125984252
        },
        {
          "duration": 0.33536570833332746,
          "durationTicks": 44,
          "midi": 58,
          "name": "A#3",
          "ticks": 6144,
          "time": 46.829248,
          "velocity": 0.6062992125984252
        },
        {
          "duration": 0.33536570833332746,
          "durationTicks": 44,
          "midi": 63,
          "name": "D#4",
          "ticks": 6192,
          "time": 47.1951015,
          "velocity": 0.6062992125984252
        },
        {
          "duration": 0.33536570833332746,
          "durationTicks": 44,
          "midi": 58,
          "name": "A#3",
          "ticks": 6192,
          "time": 47.1951015,
          "velocity": 0.6062992125984252
        },
        {
          "duration": 0.33536570833332746,
          "durationTicks": 44,
          "midi": 66,
          "name": "F#4",
          "ticks": 6240,
          "time": 47.560955,
          "velocity": 0.6062992125984252
        },
        {
          "duration": 0.33536570833332746,
          "durationTicks": 44,
          "midi": 61,
          "name": "C#4",
          "ticks": 6240,
          "time": 47.560955,
          "velocity": 0.6062992125984252
        },
        {
          "duration": 0.33536570833332746,
          "durationTicks": 44,
          "midi": 68,
          "name": "G#4",
          "ticks": 6288,
          "time": 47.9268085,
          "velocity": 0.6062992125984252
        },
        {
          "duration": 0.33536570833332746,
          "durationTicks": 44,
          "midi": 63,
          "name": "D#4",
          "ticks": 6288,
          "time": 47.9268085,
          "velocity": 0.6062992125984252
        },
        {
          "duration": 0.7012192083333275,
          "durationTicks": 92,
          "midi": 63,
          "name": "D#4",
          "ticks": 6336,
          "time": 48.292662,
          "velocity": 0.6062992125984252
        },
        {
          "duration": 0.7012192083333275,
          "durationTicks": 92,
          "midi": 59,
          "name": "B3",
          "ticks": 6336,
          "time": 48.292662,
          "velocity": 0.6062992125984252
        },
        {
          "duration": 0.33536570833332746,
          "durationTicks": 44,
          "midi": 63,
          "name": "D#4",
          "ticks": 6480,
          "time": 49.3902225,
          "velocity": 0.6062992125984252
        },
        {
          "duration": 0.33536570833332746,
          "durationTicks": 44,
          "midi": 59,
          "name": "B3",
          "ticks": 6480,
          "time": 49.3902225,
          "velocity": 0.6062992125984252
        },
        {
          "duration": 0.33536570833332746,
          "durationTicks": 44,
          "midi": 63,
          "name": "D#4",
          "ticks": 6528,
          "time": 49.756076,
          "velocity": 0.6062992125984252
        },
        {
          "duration": 0.33536570833332746,
          "durationTicks": 44,
          "midi": 59,
          "name": "B3",
          "ticks": 6528,
          "time": 49.756076,
          "velocity": 0.6062992125984252
        },
        {
          "duration": 0.15243895833332743,
          "durationTicks": 20,
          "midi": 66,
          "name": "F#4",
          "ticks": 6600,
          "time": 50.30485625,
          "velocity": 0.6062992125984252
        },
        {
          "duration": 0.15243895833332743,
          "durationTicks": 20,
          "midi": 61,
          "name": "C#4",
          "ticks": 6600,
          "time": 50.30485625,
          "velocity": 0.6062992125984252
        },
        {
          "duration": 0.33536570833332746,
          "durationTicks": 44,
          "midi": 68,
          "name": "G#4",
          "ticks": 6624,
          "time": 50.487783,
          "velocity": 0.6062992125984252
        },
        {
          "duration": 0.33536570833332746,
          "durationTicks": 44,
          "midi": 63,
          "name": "D#4",
          "ticks": 6624,
          "time": 50.487783,
          "velocity": 0.6062992125984252
        },
        {
          "duration": 0.33536570833332746,
          "durationTicks": 44,
          "midi": 66,
          "name": "F#4",
          "ticks": 6672,
          "time": 50.8536365,
          "velocity": 0.6062992125984252
        },
        {
          "duration": 0.33536570833332746,
          "durationTicks": 44,
          "midi": 61,
          "name": "C#4",
          "ticks": 6672,
          "time": 50.8536365,
          "velocity": 0.6062992125984252
        },
        {
          "duration": 0.33536570833332746,
          "durationTicks": 44,
          "midi": 68,
          "name": "G#4",
          "ticks": 6720,
          "time": 51.21949,
          "velocity": 0.6062992125984252
        },
        {
          "duration": 0.33536570833332746,
          "durationTicks": 44,
          "midi": 63,
          "name": "D#4",
          "ticks": 6720,
          "time": 51.21949,
          "velocity": 0.6062992125984252
        },
        {
          "duration": 0.33536570833332746,
          "durationTicks": 44,
          "midi": 66,
          "name": "F#4",
          "ticks": 6768,
          "time": 51.5853435,
          "velocity": 0.6062992125984252
        },
        {
          "duration": 0.33536570833332746,
          "durationTicks": 44,
          "midi": 61,
          "name": "C#4",
          "ticks": 6768,
          "time": 51.5853435,
          "velocity": 0.6062992125984252
        },
        {
          "duration": 0.33536570833332746,
          "durationTicks": 44,
          "midi": 63,
          "name": "D#4",
          "ticks": 6816,
          "time": 51.951197,
          "velocity": 0.6062992125984252
        },
        {
          "duration": 0.33536570833332746,
          "durationTicks": 44,
          "midi": 59,
          "name": "B3",
          "ticks": 6816,
          "time": 51.951197,
          "velocity": 0.6062992125984252
        },
        {
          "duration": 0.33536570833332746,
          "durationTicks": 44,
          "midi": 61,
          "name": "C#4",
          "ticks": 6912,
          "time": 52.682904,
          "velocity": 0.6062992125984252
        },
        {
          "duration": 0.33536570833332746,
          "durationTicks": 44,
          "midi": 58,
          "name": "A#3",
          "ticks": 6912,
          "time": 52.682904,
          "velocity": 0.6062992125984252
        },
        {
          "duration": 0.15243895833332743,
          "durationTicks": 20,
          "midi": 63,
          "name": "D#4",
          "ticks": 6984,
          "time": 53.23168425,
          "velocity": 0.6062992125984252
        },
        {
          "duration": 0.15243895833332743,
          "durationTicks": 20,
          "midi": 58,
          "name": "A#3",
          "ticks": 6984,
          "time": 53.23168425,
          "velocity": 0.6062992125984252
        },
        {
          "duration": 0.33536570833332746,
          "durationTicks": 44,
          "midi": 66,
          "name": "F#4",
          "ticks": 7008,
          "time": 53.414611,
          "velocity": 0.6062992125984252
        },
        {
          "duration": 0.33536570833332746,
          "durationTicks": 44,
          "midi": 61,
          "name": "C#4",
          "ticks": 7008,
          "time": 53.414611,
          "velocity": 0.6062992125984252
        },
        {
          "duration": 0.33536570833332746,
          "durationTicks": 44,
          "midi": 63,
          "name": "D#4",
          "ticks": 7056,
          "time": 53.7804645,
          "velocity": 0.6062992125984252
        },
        {
          "duration": 0.33536570833332746,
          "durationTicks": 44,
          "midi": 58,
          "name": "A#3",
          "ticks": 7056,
          "time": 53.7804645,
          "velocity": 0.6062992125984252
        },
        {
          "duration": 0.33536570833332746,
          "durationTicks": 44,
          "midi": 66,
          "name": "F#4",
          "ticks": 7104,
          "time": 54.146318,
          "velocity": 0.6062992125984252
        },
        {
          "duration": 0.33536570833332746,
          "durationTicks": 44,
          "midi": 61,
          "name": "C#4",
          "ticks": 7104,
          "time": 54.146318,
          "velocity": 0.6062992125984252
        },
        {
          "duration": 0.33536570833332746,
          "durationTicks": 44,
          "midi": 68,
          "name": "G#4",
          "ticks": 7152,
          "time": 54.5121715,
          "velocity": 0.6062992125984252
        },
        {
          "duration": 0.33536570833332746,
          "durationTicks": 44,
          "midi": 63,
          "name": "D#4",
          "ticks": 7152,
          "time": 54.5121715,
          "velocity": 0.6062992125984252
        },
        {
          "duration": 0.33536570833332746,
          "durationTicks": 44,
          "midi": 59,
          "name": "B3",
          "ticks": 7200,
          "time": 54.878025,
          "velocity": 0.6062992125984252
        },
        {
          "duration": 0.33536570833332746,
          "durationTicks": 44,
          "midi": 63,
          "name": "D#4",
          "ticks": 7200,
          "time": 54.878025,
          "velocity": 0.6062992125984252
        },
        {
          "duration": 0.33536570833332746,
          "durationTicks": 44,
          "midi": 63,
          "name": "D#4",
          "ticks": 7296,
          "time": 55.609732,
          "velocity": 0.6062992125984252
        },
        {
          "duration": 0.33536570833332746,
          "durationTicks": 44,
          "midi": 59,
          "name": "B3",
          "ticks": 7296,
          "time": 55.609732,
          "velocity": 0.6062992125984252
        },
        {
          "duration": 0.15243895833332743,
          "durationTicks": 20,
          "midi": 61,
          "name": "C#4",
          "ticks": 7368,
          "time": 56.15851225,
          "velocity": 0.6062992125984252
        },
        {
          "duration": 0.15243895833332743,
          "durationTicks": 20,
          "midi": 66,
          "name": "F#4",
          "ticks": 7368,
          "time": 56.15851225,
          "velocity": 0.6062992125984252
        },
        {
          "duration": 0.33536570833332746,
          "durationTicks": 44,
          "midi": 68,
          "name": "G#4",
          "ticks": 7392,
          "time": 56.341439,
          "velocity": 0.6062992125984252
        },
        {
          "duration": 0.33536570833332746,
          "durationTicks": 44,
          "midi": 63,
          "name": "D#4",
          "ticks": 7392,
          "time": 56.341439,
          "velocity": 0.6062992125984252
        },
        {
          "duration": 0.33536570833332746,
          "durationTicks": 44,
          "midi": 61,
          "name": "C#4",
          "ticks": 7440,
          "time": 56.7072925,
          "velocity": 0.6062992125984252
        },
        {
          "duration": 0.33536570833332746,
          "durationTicks": 44,
          "midi": 66,
          "name": "F#4",
          "ticks": 7440,
          "time": 56.7072925,
          "velocity": 0.6062992125984252
        },
        {
          "duration": 0.33536570833332746,
          "durationTicks": 44,
          "midi": 63,
          "name": "D#4",
          "ticks": 7488,
          "time": 57.073146,
          "velocity": 0.6062992125984252
        },
        {
          "duration": 0.33536570833332746,
          "durationTicks": 44,
          "midi": 68,
          "name": "G#4",
          "ticks": 7488,
          "time": 57.073146,
          "velocity": 0.6062992125984252
        },
        {
          "duration": 0.33536570833332746,
          "durationTicks": 44,
          "midi": 66,
          "name": "F#4",
          "ticks": 7536,
          "time": 57.4389995,
          "velocity": 0.6062992125984252
        },
        {
          "duration": 0.33536570833332746,
          "durationTicks": 44,
          "midi": 61,
          "name": "C#4",
          "ticks": 7536,
          "time": 57.4389995,
          "velocity": 0.6062992125984252
        },
        {
          "duration": 0.33536570833332746,
          "durationTicks": 44,
          "midi": 59,
          "name": "B3",
          "ticks": 7584,
          "time": 57.804853,
          "velocity": 0.6062992125984252
        },
        {
          "duration": 0.33536570833332746,
          "durationTicks": 44,
          "midi": 63,
          "name": "D#4",
          "ticks": 7584,
          "time": 57.804853,
          "velocity": 0.6062992125984252
        },
        {
          "duration": 0.33536570833332746,
          "durationTicks": 44,
          "midi": 61,
          "name": "C#4",
          "ticks": 7680,
          "time": 58.53656,
          "velocity": 0.6062992125984252
        },
        {
          "duration": 0.33536570833332746,
          "durationTicks": 44,
          "midi": 58,
          "name": "A#3",
          "ticks": 7680,
          "time": 58.53656,
          "velocity": 0.6062992125984252
        },
        {
          "duration": 0.33536570833332746,
          "durationTicks": 44,
          "midi": 63,
          "name": "D#4",
          "ticks": 7728,
          "time": 58.9024135,
          "velocity": 0.6062992125984252
        },
        {
          "duration": 0.33536570833332746,
          "durationTicks": 44,
          "midi": 58,
          "name": "A#3",
          "ticks": 7728,
          "time": 58.9024135,
          "velocity": 0.6062992125984252
        },
        {
          "duration": 0.33536570833332746,
          "durationTicks": 44,
          "midi": 61,
          "name": "C#4",
          "ticks": 7776,
          "time": 59.268267,
          "velocity": 0.6062992125984252
        },
        {
          "duration": 0.33536570833332746,
          "durationTicks": 44,
          "midi": 58,
          "name": "A#3",
          "ticks": 7776,
          "time": 59.268267,
          "velocity": 0.6062992125984252
        },
        {
          "duration": 0.33536570833332746,
          "durationTicks": 44,
          "midi": 49,
          "name": "C#3",
          "ticks": 7824,
          "time": 59.6341205,
          "velocity": 0.6062992125984252
        },
        {
          "duration": 0.33536570833332746,
          "durationTicks": 44,
          "midi": 54,
          "name": "F#3",
          "ticks": 7824,
          "time": 59.6341205,
          "velocity": 0.6062992125984252
        },
        {
          "duration": 1.0670727083333276,
          "durationTicks": 140,
          "midi": 51,
          "name": "D#3",
          "ticks": 7872,
          "time": 59.999974,
          "velocity": 0.6062992125984252
        },
        {
          "duration": 1.0670727083333276,
          "durationTicks": 140,
          "midi": 56,
          "name": "G#3",
          "ticks": 7872,
          "time": 59.999974,
          "velocity": 0.6062992125984252
        },
        {
          "duration": 0.15243895833333454,
          "durationTicks": 20,
          "midi": 66,
          "name": "F#4",
          "ticks": 10704,
          "time": 81.5853305,
          "velocity": 0.5590551181102362
        },
        {
          "duration": 0.15243895833332033,
          "durationTicks": 20,
          "midi": 63,
          "name": "D#4",
          "ticks": 10728,
          "time": 81.76825725,
          "velocity": 0.5590551181102362
        },
        {
          "duration": 0.33536570833332746,
          "durationTicks": 44,
          "midi": 66,
          "name": "F#4",
          "ticks": 10752,
          "time": 81.951184,
          "velocity": 0.5590551181102362
        },
        {
          "duration": 0.33536570833332746,
          "durationTicks": 44,
          "midi": 66,
          "name": "F#4",
          "ticks": 10800,
          "time": 82.3170375,
          "velocity": 0.5590551181102362
        },
        {
          "duration": 0.15243895833333454,
          "durationTicks": 20,
          "midi": 66,
          "name": "F#4",
          "ticks": 10848,
          "time": 82.682891,
          "velocity": 0.5590551181102362
        },
        {
          "duration": 0.33536570833332746,
          "durationTicks": 44,
          "midi": 68,
          "name": "G#4",
          "ticks": 10872,
          "time": 82.86581775,
          "velocity": 0.5590551181102362
        },
        {
          "duration": 0.7012192083333275,
          "durationTicks": 92,
          "midi": 63,
          "name": "D#4",
          "ticks": 10920,
          "time": 83.23167125,
          "velocity": 0.5590551181102362
        },
        {
          "duration": 0.33536570833332746,
          "durationTicks": 44,
          "midi": 68,
          "name": "G#4",
          "ticks": 11184,
          "time": 85.2438655,
          "velocity": 0.5590551181102362
        },
        {
          "duration": 0.33536570833332746,
          "durationTicks": 44,
          "midi": 68,
          "name": "G#4",
          "ticks": 11232,
          "time": 85.609719,
          "velocity": 0.5590551181102362
        },
        {
          "duration": 0.15243895833333454,
          "durationTicks": 20,
          "midi": 66,
          "name": "F#4",
          "ticks": 11280,
          "time": 85.9755725,
          "velocity": 0.5590551181102362
        },
        {
          "duration": 0.15243895833332033,
          "durationTicks": 20,
          "midi": 63,
          "name": "D#4",
          "ticks": 11304,
          "time": 86.15849925,
          "velocity": 0.5590551181102362
        },
        {
          "duration": 0.15243895833333454,
          "durationTicks": 20,
          "midi": 66,
          "name": "F#4",
          "ticks": 11328,
          "time": 86.341426,
          "velocity": 0.5590551181102362
        },
        {
          "duration": 0.15243895833332033,
          "durationTicks": 20,
          "midi": 66,
          "name": "F#4",
          "ticks": 11352,
          "time": 86.52435275,
          "velocity": 0.5590551181102362
        },
        {
          "duration": 0.15243895833333454,
          "durationTicks": 20,
          "midi": 66,
          "name": "F#4",
          "ticks": 11376,
          "time": 86.7072795,
          "velocity": 0.5590551181102362
        },
        {
          "duration": 0.15243895833332033,
          "durationTicks": 20,
          "midi": 68,
          "name": "G#4",
          "ticks": 11400,
          "time": 86.89020625,
          "velocity": 0.5590551181102362
        },
        {
          "duration": 0.33536570833332746,
          "durationTicks": 44,
          "midi": 68,
          "name": "G#4",
          "ticks": 11904,
          "time": 90.731668,
          "velocity": 0.5590551181102362
        },
        {
          "duration": 0.33536570833332746,
          "durationTicks": 44,
          "midi": 75,
          "name": "D#5",
          "ticks": 11952,
          "time": 91.0975215,
          "velocity": 0.5590551181102362
        },
        {
          "duration": 0.33536570833332746,
          "durationTicks": 44,
          "midi": 68,
          "name": "G#4",
          "ticks": 12000,
          "time": 91.463375,
          "velocity": 0.5590551181102362
        },
        {
          "duration": 0.33536570833332746,
          "durationTicks": 44,
          "midi": 66,
          "name": "F#4",
          "ticks": 12048,
          "time": 91.8292285,
          "velocity": 0.5590551181102362
        },
        {
          "duration": 0.33536570833332746,
          "durationTicks": 44,
          "midi": 68,
          "name": "G#4",
          "ticks": 12096,
          "time": 92.195082,
          "velocity": 0.5590551181102362
        },
        {
          "duration": 0.33536570833332746,
          "durationTicks": 44,
          "midi": 75,
          "name": "D#5",
          "ticks": 12144,
          "time": 92.5609355,
          "velocity": 0.5590551181102362
        },
        {
          "duration": 0.33536570833332746,
          "durationTicks": 44,
          "midi": 68,
          "name": "G#4",
          "ticks": 12192,
          "time": 92.926789,
          "velocity": 0.5590551181102362
        },
        {
          "duration": 0.33536570833332746,
          "durationTicks": 44,
          "midi": 66,
          "name": "F#4",
          "ticks": 12240,
          "time": 93.2926425,
          "velocity": 0.5590551181102362
        },
        {
          "duration": 0.33536570833334167,
          "durationTicks": 44,
          "midi": 68,
          "name": "G#4",
          "ticks": 12288,
          "time": 93.658496,
          "velocity": 0.5590551181102362
        },
        {
          "duration": 0.33536570833334167,
          "durationTicks": 44,
          "midi": 75,
          "name": "D#5",
          "ticks": 12336,
          "time": 94.0243495,
          "velocity": 0.5590551181102362
        },
        {
          "duration": 0.33536570833334167,
          "durationTicks": 44,
          "midi": 73,
          "name": "C#5",
          "ticks": 12384,
          "time": 94.390203,
          "velocity": 0.5590551181102362
        },
        {
          "duration": 0.33536570833334167,
          "durationTicks": 44,
          "midi": 71,
          "name": "B4",
          "ticks": 12432,
          "time": 94.7560565,
          "velocity": 0.5590551181102362
        },
        {
          "duration": 1.0670727083333418,
          "durationTicks": 140,
          "midi": 68,
          "name": "G#4",
          "ticks": 12480,
          "time": 95.12191,
          "velocity": 0.5590551181102362
        },
        {
          "duration": 0.33536570833334167,
          "durationTicks": 44,
          "midi": 59,
          "name": "B3",
          "ticks": 12672,
          "time": 96.585324,
          "velocity": 0.6062992125984252
        },
        {
          "duration": 0.33536570833334167,
          "durationTicks": 44,
          "midi": 63,
          "name": "D#4",
          "ticks": 12672,
          "time": 96.585324,
          "velocity": 0.6062992125984252
        },
        {
          "duration": 0.15243895833334875,
          "durationTicks": 20,
          "midi": 61,
          "name": "C#4",
          "ticks": 12744,
          "time": 97.13410425,
          "velocity": 0.6062992125984252
        },
        {
          "duration": 0.15243895833334875,
          "durationTicks": 20,
          "midi": 66,
          "name": "F#4",
          "ticks": 12744,
          "time": 97.13410425,
          "velocity": 0.6062992125984252
        },
        {
          "duration": 0.33536570833334167,
          "durationTicks": 44,
          "midi": 63,
          "name": "D#4",
          "ticks": 12768,
          "time": 97.317031,
          "velocity": 0.6062992125984252
        },
        {
          "duration": 0.33536570833334167,
          "durationTicks": 44,
          "midi": 68,
          "name": "G#4",
          "ticks": 12768,
          "time": 97.317031,
          "velocity": 0.6062992125984252
        },
        {
          "duration": 0.33536570833334167,
          "durationTicks": 44,
          "midi": 61,
          "name": "C#4",
          "ticks": 12816,
          "time": 97.6828845,
          "velocity": 0.6062992125984252
        },
        {
          "duration": 0.33536570833334167,
          "durationTicks": 44,
          "midi": 66,
          "name": "F#4",
          "ticks": 12816,
          "time": 97.6828845,
          "velocity": 0.6062992125984252
        },
        {
          "duration": 0.33536570833334167,
          "durationTicks": 44,
          "midi": 63,
          "name": "D#4",
          "ticks": 12864,
          "time": 98.048738,
          "velocity": 0.6062992125984252
        },
        {
          "duration": 0.33536570833334167,
          "durationTicks": 44,
          "midi": 68,
          "name": "G#4",
          "ticks": 12864,
          "time": 98.048738,
          "velocity": 0.6062992125984252
        },
        {
          "duration": 0.33536570833334167,
          "durationTicks": 44,
          "midi": 61,
          "name": "C#4",
          "ticks": 12912,
          "time": 98.4145915,
          "velocity": 0.6062992125984252
        },
        {
          "duration": 0.33536570833334167,
          "durationTicks": 44,
          "midi": 66,
          "name": "F#4",
          "ticks": 12912,
          "time": 98.4145915,
          "velocity": 0.6062992125984252
        },
        {
          "duration": 0.33536570833334167,
          "durationTicks": 44,
          "midi": 59,
          "name": "B3",
          "ticks": 12960,
          "time": 98.780445,
          "velocity": 0.6062992125984252
        },
        {
          "duration": 0.33536570833334167,
          "durationTicks": 44,
          "midi": 63,
          "name": "D#4",
          "ticks": 12960,
          "time": 98.780445,
          "velocity": 0.6062992125984252
        },
        {
          "duration": 0.33536570833334167,
          "durationTicks": 44,
          "midi": 58,
          "name": "A#3",
          "ticks": 13056,
          "time": 99.512152,
          "velocity": 0.6062992125984252
        },
        {
          "duration": 0.33536570833334167,
          "durationTicks": 44,
          "midi": 61,
          "name": "C#4",
          "ticks": 13056,
          "time": 99.512152,
          "velocity": 0.6062992125984252
        },
        {
          "duration": 0.15243895833334875,
          "durationTicks": 20,
          "midi": 58,
          "name": "A#3",
          "ticks": 13128,
          "time": 100.06093225,
          "velocity": 0.6062992125984252
        },
        {
          "duration": 0.15243895833334875,
          "durationTicks": 20,
          "midi": 63,
          "name": "D#4",
          "ticks": 13128,
          "time": 100.06093225,
          "velocity": 0.6062992125984252
        },
        {
          "duration": 0.33536570833334167,
          "durationTicks": 44,
          "midi": 61,
          "name": "C#4",
          "ticks": 13152,
          "time": 100.243859,
          "velocity": 0.6062992125984252
        },
        {
          "duration": 0.33536570833334167,
          "durationTicks": 44,
          "midi": 66,
          "name": "F#4",
          "ticks": 13152,
          "time": 100.243859,
          "velocity": 0.6062992125984252
        },
        {
          "duration": 0.33536570833334167,
          "durationTicks": 44,
          "midi": 58,
          "name": "A#3",
          "ticks": 13200,
          "time": 100.6097125,
          "velocity": 0.6062992125984252
        },
        {
          "duration": 0.33536570833334167,
          "durationTicks": 44,
          "midi": 63,
          "name": "D#4",
          "ticks": 13200,
          "time": 100.6097125,
          "velocity": 0.6062992125984252
        },
        {
          "duration": 0.33536570833334167,
          "durationTicks": 44,
          "midi": 61,
          "name": "C#4",
          "ticks": 13248,
          "time": 100.975566,
          "velocity": 0.6062992125984252
        },
        {
          "duration": 0.33536570833334167,
          "durationTicks": 44,
          "midi": 66,
          "name": "F#4",
          "ticks": 13248,
          "time": 100.975566,
          "velocity": 0.6062992125984252
        },
        {
          "duration": 0.33536570833334167,
          "durationTicks": 44,
          "midi": 63,
          "name": "D#4",
          "ticks": 13296,
          "time": 101.3414195,
          "velocity": 0.6062992125984252
        },
        {
          "duration": 0.33536570833334167,
          "durationTicks": 44,
          "midi": 68,
          "name": "G#4",
          "ticks": 13296,
          "time": 101.3414195,
          "velocity": 0.6062992125984252
        },
        {
          "duration": 0.33536570833334167,
          "durationTicks": 44,
          "midi": 59,
          "name": "B3",
          "ticks": 13344,
          "time": 101.707273,
          "velocity": 0.6062992125984252
        },
        {
          "duration": 0.33536570833334167,
          "durationTicks": 44,
          "midi": 63,
          "name": "D#4",
          "ticks": 13344,
          "time": 101.707273,
          "velocity": 0.6062992125984252
        },
        {
          "duration": 0.33536570833334167,
          "durationTicks": 44,
          "midi": 59,
          "name": "B3",
          "ticks": 13440,
          "time": 102.43898,
          "velocity": 0.6062992125984252
        },
        {
          "duration": 0.33536570833334167,
          "durationTicks": 44,
          "midi": 63,
          "name": "D#4",
          "ticks": 13440,
          "time": 102.43898,
          "velocity": 0.6062992125984252
        },
        {
          "duration": 0.15243895833334875,
          "durationTicks": 20,
          "midi": 61,
          "name": "C#4",
          "ticks": 13512,
          "time": 102.98776025,
          "velocity": 0.6062992125984252
        },
        {
          "duration": 0.15243895833334875,
          "durationTicks": 20,
          "midi": 66,
          "name": "F#4",
          "ticks": 13512,
          "time": 102.98776025,
          "velocity": 0.6062992125984252
        },
        {
          "duration": 0.33536570833334167,
          "durationTicks": 44,
          "midi": 63,
          "name": "D#4",
          "ticks": 13536,
          "time": 103.170687,
          "velocity": 0.6062992125984252
        },
        {
          "duration": 0.33536570833334167,
          "durationTicks": 44,
          "midi": 68,
          "name": "G#4",
          "ticks": 13536,
          "time": 103.170687,
          "velocity": 0.6062992125984252
        },
        {
          "duration": 0.33536570833334167,
          "durationTicks": 44,
          "midi": 61,
          "name": "C#4",
          "ticks": 13584,
          "time": 103.5365405,
          "velocity": 0.6062992125984252
        },
        {
          "duration": 0.33536570833334167,
          "durationTicks": 44,
          "midi": 66,
          "name": "F#4",
          "ticks": 13584,
          "time": 103.5365405,
          "velocity": 0.6062992125984252
        },
        {
          "duration": 0.33536570833334167,
          "durationTicks": 44,
          "midi": 63,
          "name": "D#4",
          "ticks": 13632,
          "time": 103.902394,
          "velocity": 0.6062992125984252
        },
        {
          "duration": 0.33536570833334167,
          "durationTicks": 44,
          "midi": 68,
          "name": "G#4",
          "ticks": 13632,
          "time": 103.902394,
          "velocity": 0.6062992125984252
        },
        {
          "duration": 0.33536570833334167,
          "durationTicks": 44,
          "midi": 61,
          "name": "C#4",
          "ticks": 13680,
          "time": 104.2682475,
          "velocity": 0.6062992125984252
        },
        {
          "duration": 0.33536570833334167,
          "durationTicks": 44,
          "midi": 66,
          "name": "F#4",
          "ticks": 13680,
          "time": 104.2682475,
          "velocity": 0.6062992125984252
        },
        {
          "duration": 0.33536570833334167,
          "durationTicks": 44,
          "midi": 59,
          "name": "B3",
          "ticks": 13728,
          "time": 104.634101,
          "velocity": 0.6062992125984252
        },
        {
          "duration": 0.33536570833334167,
          "durationTicks": 44,
          "midi": 63,
          "name": "D#4",
          "ticks": 13728,
          "time": 104.634101,
          "velocity": 0.6062992125984252
        },
        {
          "duration": 0.33536570833334167,
          "durationTicks": 44,
          "midi": 58,
          "name": "A#3",
          "ticks": 13824,
          "time": 105.365808,
          "velocity": 0.6062992125984252
        },
        {
          "duration": 0.33536570833334167,
          "durationTicks": 44,
          "midi": 61,
          "name": "C#4",
          "ticks": 13824,
          "time": 105.365808,
          "velocity": 0.6062992125984252
        },
        {
          "duration": 0.33536570833334167,
          "durationTicks": 44,
          "midi": 58,
          "name": "A#3",
          "ticks": 13872,
          "time": 105.7316615,
          "velocity": 0.6062992125984252
        },
        {
          "duration": 0.33536570833334167,
          "durationTicks": 44,
          "midi": 63,
          "name": "D#4",
          "ticks": 13872,
          "time": 105.7316615,
          "velocity": 0.6062992125984252
        },
        {
          "duration": 0.33536570833334167,
          "durationTicks": 44,
          "midi": 61,
          "name": "C#4",
          "ticks": 13920,
          "time": 106.097515,
          "velocity": 0.6062992125984252
        },
        {
          "duration": 0.33536570833334167,
          "durationTicks": 44,
          "midi": 66,
          "name": "F#4",
          "ticks": 13920,
          "time": 106.097515,
          "velocity": 0.6062992125984252
        },
        {
          "duration": 0.33536570833334167,
          "durationTicks": 44,
          "midi": 63,
          "name": "D#4",
          "ticks": 13968,
          "time": 106.4633685,
          "velocity": 0.6062992125984252
        },
        {
          "duration": 0.33536570833334167,
          "durationTicks": 44,
          "midi": 68,
          "name": "G#4",
          "ticks": 13968,
          "time": 106.4633685,
          "velocity": 0.6062992125984252
        },
        {
          "duration": 0.7012192083333417,
          "durationTicks": 92,
          "midi": 59,
          "name": "B3",
          "ticks": 14016,
          "time": 106.829222,
          "velocity": 0.6062992125984252
        },
        {
          "duration": 0.7012192083333417,
          "durationTicks": 92,
          "midi": 63,
          "name": "D#4",
          "ticks": 14016,
          "time": 106.829222,
          "velocity": 0.6062992125984252
        },
        {
          "duration": 0.33536570833334167,
          "durationTicks": 44,
          "midi": 59,
          "name": "B3",
          "ticks": 14160,
          "time": 107.9267825,
          "velocity": 0.6062992125984252
        },
        {
          "duration": 0.33536570833334167,
          "durationTicks": 44,
          "midi": 63,
          "name": "D#4",
          "ticks": 14160,
          "time": 107.9267825,
          "velocity": 0.6062992125984252
        },
        {
          "duration": 0.33536570833334167,
          "durationTicks": 44,
          "midi": 59,
          "name": "B3",
          "ticks": 14208,
          "time": 108.292636,
          "velocity": 0.6062992125984252
        },
        {
          "duration": 0.33536570833334167,
          "durationTicks": 44,
          "midi": 63,
          "name": "D#4",
          "ticks": 14208,
          "time": 108.292636,
          "velocity": 0.6062992125984252
        },
        {
          "duration": 0.15243895833334875,
          "durationTicks": 20,
          "midi": 61,
          "name": "C#4",
          "ticks": 14280,
          "time": 108.84141625,
          "velocity": 0.6062992125984252
        },
        {
          "duration": 0.15243895833334875,
          "durationTicks": 20,
          "midi": 66,
          "name": "F#4",
          "ticks": 14280,
          "time": 108.84141625,
          "velocity": 0.6062992125984252
        },
        {
          "duration": 0.33536570833334167,
          "durationTicks": 44,
          "midi": 63,
          "name": "D#4",
          "ticks": 14304,
          "time": 109.024343,
          "velocity": 0.6062992125984252
        },
        {
          "duration": 0.33536570833334167,
          "durationTicks": 44,
          "midi": 68,
          "name": "G#4",
          "ticks": 14304,
          "time": 109.024343,
          "velocity": 0.6062992125984252
        },
        {
          "duration": 0.33536570833334167,
          "durationTicks": 44,
          "midi": 61,
          "name": "C#4",
          "ticks": 14352,
          "time": 109.3901965,
          "velocity": 0.6062992125984252
        },
        {
          "duration": 0.33536570833334167,
          "durationTicks": 44,
          "midi": 66,
          "name": "F#4",
          "ticks": 14352,
          "time": 109.3901965,
          "velocity": 0.6062992125984252
        },
        {
          "duration": 0.33536570833334167,
          "durationTicks": 44,
          "midi": 63,
          "name": "D#4",
          "ticks": 14400,
          "time": 109.75605,
          "velocity": 0.6062992125984252
        },
        {
          "duration": 0.33536570833334167,
          "durationTicks": 44,
          "midi": 68,
          "name": "G#4",
          "ticks": 14400,
          "time": 109.75605,
          "velocity": 0.6062992125984252
        },
        {
          "duration": 0.33536570833334167,
          "durationTicks": 44,
          "midi": 61,
          "name": "C#4",
          "ticks": 14448,
          "time": 110.1219035,
          "velocity": 0.6062992125984252
        },
        {
          "duration": 0.33536570833334167,
          "durationTicks": 44,
          "midi": 66,
          "name": "F#4",
          "ticks": 14448,
          "time": 110.1219035,
          "velocity": 0.6062992125984252
        },
        {
          "duration": 0.33536570833334167,
          "durationTicks": 44,
          "midi": 59,
          "name": "B3",
          "ticks": 14496,
          "time": 110.487757,
          "velocity": 0.6062992125984252
        },
        {
          "duration": 0.33536570833334167,
          "durationTicks": 44,
          "midi": 63,
          "name": "D#4",
          "ticks": 14496,
          "time": 110.487757,
          "velocity": 0.6062992125984252
        },
        {
          "duration": 0.33536570833334167,
          "durationTicks": 44,
          "midi": 58,
          "name": "A#3",
          "ticks": 14592,
          "time": 111.219464,
          "velocity": 0.6062992125984252
        },
        {
          "duration": 0.33536570833334167,
          "durationTicks": 44,
          "midi": 61,
          "name": "C#4",
          "ticks": 14592,
          "time": 111.219464,
          "velocity": 0.6062992125984252
        },
        {
          "duration": 0.15243895833334875,
          "durationTicks": 20,
          "midi": 58,
          "name": "A#3",
          "ticks": 14664,
          "time": 111.76824425,
          "velocity": 0.6062992125984252
        },
        {
          "duration": 0.15243895833334875,
          "durationTicks": 20,
          "midi": 63,
          "name": "D#4",
          "ticks": 14664,
          "time": 111.76824425,
          "velocity": 0.6062992125984252
        },
        {
          "duration": 0.33536570833334167,
          "durationTicks": 44,
          "midi": 61,
          "name": "C#4",
          "ticks": 14688,
          "time": 111.951171,
          "velocity": 0.6062992125984252
        },
        {
          "duration": 0.33536570833334167,
          "durationTicks": 44,
          "midi": 66,
          "name": "F#4",
          "ticks": 14688,
          "time": 111.951171,
          "velocity": 0.6062992125984252
        },
        {
          "duration": 0.33536570833334167,
          "durationTicks": 44,
          "midi": 58,
          "name": "A#3",
          "ticks": 14736,
          "time": 112.3170245,
          "velocity": 0.6062992125984252
        },
        {
          "duration": 0.33536570833334167,
          "durationTicks": 44,
          "midi": 63,
          "name": "D#4",
          "ticks": 14736,
          "time": 112.3170245,
          "velocity": 0.6062992125984252
        },
        {
          "duration": 0.33536570833334167,
          "durationTicks": 44,
          "midi": 61,
          "name": "C#4",
          "ticks": 14784,
          "time": 112.682878,
          "velocity": 0.6062992125984252
        },
        {
          "duration": 0.33536570833334167,
          "durationTicks": 44,
          "midi": 66,
          "name": "F#4",
          "ticks": 14784,
          "time": 112.682878,
          "velocity": 0.6062992125984252
        },
        {
          "duration": 0.33536570833334167,
          "durationTicks": 44,
          "midi": 63,
          "name": "D#4",
          "ticks": 14832,
          "time": 113.0487315,
          "velocity": 0.6062992125984252
        },
        {
          "duration": 0.33536570833334167,
          "durationTicks": 44,
          "midi": 68,
          "name": "G#4",
          "ticks": 14832,
          "time": 113.0487315,
          "velocity": 0.6062992125984252
        },
        {
          "duration": 0.33536570833334167,
          "durationTicks": 44,
          "midi": 63,
          "name": "D#4",
          "ticks": 14880,
          "time": 113.414585,
          "velocity": 0.6062992125984252
        },
        {
          "duration": 0.33536570833334167,
          "durationTicks": 44,
          "midi": 59,
          "name": "B3",
          "ticks": 14880,
          "time": 113.414585,
          "velocity": 0.6062992125984252
        },
        {
          "duration": 0.33536570833334167,
          "durationTicks": 44,
          "midi": 59,
          "name": "B3",
          "ticks": 14976,
          "time": 114.146292,
          "velocity": 0.6062992125984252
        },
        {
          "duration": 0.33536570833334167,
          "durationTicks": 44,
          "midi": 63,
          "name": "D#4",
          "ticks": 14976,
          "time": 114.146292,
          "velocity": 0.6062992125984252
        },
        {
          "duration": 0.15243895833334875,
          "durationTicks": 20,
          "midi": 66,
          "name": "F#4",
          "ticks": 15048,
          "time": 114.69507225,
          "velocity": 0.6062992125984252
        },
        {
          "duration": 0.15243895833334875,
          "durationTicks": 20,
          "midi": 61,
          "name": "C#4",
          "ticks": 15048,
          "time": 114.69507225,
          "velocity": 0.6062992125984252
        },
        {
          "duration": 0.33536570833334167,
          "durationTicks": 44,
          "midi": 63,
          "name": "D#4",
          "ticks": 15072,
          "time": 114.877999,
          "velocity": 0.6062992125984252
        },
        {
          "duration": 0.33536570833334167,
          "durationTicks": 44,
          "midi": 68,
          "name": "G#4",
          "ticks": 15072,
          "time": 114.877999,
          "velocity": 0.6062992125984252
        },
        {
          "duration": 0.33536570833334167,
          "durationTicks": 44,
          "midi": 66,
          "name": "F#4",
          "ticks": 15120,
          "time": 115.2438525,
          "velocity": 0.6062992125984252
        },
        {
          "duration": 0.33536570833334167,
          "durationTicks": 44,
          "midi": 61,
          "name": "C#4",
          "ticks": 15120,
          "time": 115.2438525,
          "velocity": 0.6062992125984252
        },
        {
          "duration": 0.33536570833334167,
          "durationTicks": 44,
          "midi": 63,
          "name": "D#4",
          "ticks": 15168,
          "time": 115.609706,
          "velocity": 0.6062992125984252
        },
        {
          "duration": 0.33536570833334167,
          "durationTicks": 44,
          "midi": 68,
          "name": "G#4",
          "ticks": 15168,
          "time": 115.609706,
          "velocity": 0.6062992125984252
        },
        {
          "duration": 0.33536570833334167,
          "durationTicks": 44,
          "midi": 66,
          "name": "F#4",
          "ticks": 15216,
          "time": 115.9755595,
          "velocity": 0.6062992125984252
        },
        {
          "duration": 0.33536570833334167,
          "durationTicks": 44,
          "midi": 61,
          "name": "C#4",
          "ticks": 15216,
          "time": 115.9755595,
          "velocity": 0.6062992125984252
        },
        {
          "duration": 0.33536570833334167,
          "durationTicks": 44,
          "midi": 59,
          "name": "B3",
          "ticks": 15264,
          "time": 116.341413,
          "velocity": 0.6062992125984252
        },
        {
          "duration": 0.33536570833334167,
          "durationTicks": 44,
          "midi": 63,
          "name": "D#4",
          "ticks": 15264,
          "time": 116.341413,
          "velocity": 0.6062992125984252
        },
        {
          "duration": 0.33536570833334167,
          "durationTicks": 44,
          "midi": 61,
          "name": "C#4",
          "ticks": 15360,
          "time": 117.07312,
          "velocity": 0.6062992125984252
        },
        {
          "duration": 0.33536570833334167,
          "durationTicks": 44,
          "midi": 58,
          "name": "A#3",
          "ticks": 15360,
          "time": 117.07312,
          "velocity": 0.6062992125984252
        },
        {
          "duration": 0.33536570833334167,
          "durationTicks": 44,
          "midi": 63,
          "name": "D#4",
          "ticks": 15408,
          "time": 117.4389735,
          "velocity": 0.6062992125984252
        },
        {
          "duration": 0.33536570833334167,
          "durationTicks": 44,
          "midi": 58,
          "name": "A#3",
          "ticks": 15408,
          "time": 117.4389735,
          "velocity": 0.6062992125984252
        },
        {
          "duration": 0.33536570833334167,
          "durationTicks": 44,
          "midi": 61,
          "name": "C#4",
          "ticks": 15456,
          "time": 117.804827,
          "velocity": 0.6062992125984252
        },
        {
          "duration": 0.33536570833334167,
          "durationTicks": 44,
          "midi": 58,
          "name": "A#3",
          "ticks": 15456,
          "time": 117.804827,
          "velocity": 0.6062992125984252
        },
        {
          "duration": 0.33536570833334167,
          "durationTicks": 44,
          "midi": 49,
          "name": "C#3",
          "ticks": 15504,
          "time": 118.1706805,
          "velocity": 0.6062992125984252
        },
        {
          "duration": 0.33536570833334167,
          "durationTicks": 44,
          "midi": 54,
          "name": "F#3",
          "ticks": 15504,
          "time": 118.1706805,
          "velocity": 0.6062992125984252
        },
        {
          "duration": 1.0670727083333418,
          "durationTicks": 140,
          "midi": 56,
          "name": "G#3",
          "ticks": 15552,
          "time": 118.536534,
          "velocity": 0.6062992125984252
        },
        {
          "duration": 1.0670727083333418,
          "durationTicks": 140,
          "midi": 51,
          "name": "D#3",
          "ticks": 15552,
          "time": 118.536534,
          "velocity": 0.6062992125984252
        },
        {
          "duration": 0.33536570833334167,
          "durationTicks": 44,
          "midi": 64,
          "name": "E4",
          "ticks": 17280,
          "time": 131.70726,
          "velocity": 0.6456692913385826
        },
        {
          "duration": 0.33536570833334167,
          "durationTicks": 44,
          "midi": 60,
          "name": "C4",
          "ticks": 17280,
          "time": 131.70726,
          "velocity": 0.6456692913385826
        },
        {
          "duration": 0.33536570833334167,
          "durationTicks": 44,
          "midi": 57,
          "name": "A3",
          "ticks": 17280,
          "time": 131.70726,
          "velocity": 0.6456692913385826
        },
        {
          "duration": 0.15243895833333454,
          "durationTicks": 20,
          "midi": 59,
          "name": "B3",
          "ticks": 17352,
          "time": 132.25604025,
          "velocity": 0.6456692913385826
        },
        {
          "duration": 0.15243895833333454,
          "durationTicks": 20,
          "midi": 62,
          "name": "D4",
          "ticks": 17352,
          "time": 132.25604025,
          "velocity": 0.6456692913385826
        },
        {
          "duration": 0.15243895833333454,
          "durationTicks": 20,
          "midi": 67,
          "name": "G4",
          "ticks": 17352,
          "time": 132.25604025,
          "velocity": 0.6456692913385826
        },
        {
          "duration": 0.33536570833334167,
          "durationTicks": 44,
          "midi": 60,
          "name": "C4",
          "ticks": 17376,
          "time": 132.438967,
          "velocity": 0.6456692913385826
        },
        {
          "duration": 0.33536570833334167,
          "durationTicks": 44,
          "midi": 64,
          "name": "E4",
          "ticks": 17376,
          "time": 132.438967,
          "velocity": 0.6456692913385826
        },
        {
          "duration": 0.33536570833334167,
          "durationTicks": 44,
          "midi": 69,
          "name": "A4",
          "ticks": 17376,
          "time": 132.438967,
          "velocity": 0.6456692913385826
        },
        {
          "duration": 0.33536570833334167,
          "durationTicks": 44,
          "midi": 67,
          "name": "G4",
          "ticks": 17424,
          "time": 132.8048205,
          "velocity": 0.6456692913385826
        },
        {
          "duration": 0.33536570833334167,
          "durationTicks": 44,
          "midi": 62,
          "name": "D4",
          "ticks": 17424,
          "time": 132.8048205,
          "velocity": 0.6456692913385826
        },
        {
          "duration": 0.33536570833334167,
          "durationTicks": 44,
          "midi": 59,
          "name": "B3",
          "ticks": 17424,
          "time": 132.8048205,
          "velocity": 0.6456692913385826
        },
        {
          "duration": 0.33536570833334167,
          "durationTicks": 44,
          "midi": 69,
          "name": "A4",
          "ticks": 17472,
          "time": 133.170674,
          "velocity": 0.6456692913385826
        },
        {
          "duration": 0.33536570833334167,
          "durationTicks": 44,
          "midi": 64,
          "name": "E4",
          "ticks": 17472,
          "time": 133.170674,
          "velocity": 0.6456692913385826
        },
        {
          "duration": 0.33536570833334167,
          "durationTicks": 44,
          "midi": 60,
          "name": "C4",
          "ticks": 17472,
          "time": 133.170674,
          "velocity": 0.6456692913385826
        },
        {
          "duration": 0.33536570833334167,
          "durationTicks": 44,
          "midi": 59,
          "name": "B3",
          "ticks": 17520,
          "time": 133.5365275,
          "velocity": 0.6456692913385826
        },
        {
          "duration": 0.33536570833334167,
          "durationTicks": 44,
          "midi": 62,
          "name": "D4",
          "ticks": 17520,
          "time": 133.5365275,
          "velocity": 0.6456692913385826
        },
        {
          "duration": 0.33536570833334167,
          "durationTicks": 44,
          "midi": 67,
          "name": "G4",
          "ticks": 17520,
          "time": 133.5365275,
          "velocity": 0.6456692913385826
        },
        {
          "duration": 0.33536570833334167,
          "durationTicks": 44,
          "midi": 57,
          "name": "A3",
          "ticks": 17568,
          "time": 133.902381,
          "velocity": 0.6456692913385826
        },
        {
          "duration": 0.33536570833334167,
          "durationTicks": 44,
          "midi": 60,
          "name": "C4",
          "ticks": 17568,
          "time": 133.902381,
          "velocity": 0.6456692913385826
        },
        {
          "duration": 0.33536570833334167,
          "durationTicks": 44,
          "midi": 64,
          "name": "E4",
          "ticks": 17568,
          "time": 133.902381,
          "velocity": 0.6456692913385826
        },
        {
          "duration": 0.33536570833334167,
          "durationTicks": 44,
          "midi": 55,
          "name": "G3",
          "ticks": 17664,
          "time": 134.634088,
          "velocity": 0.6456692913385826
        },
        {
          "duration": 0.33536570833334167,
          "durationTicks": 44,
          "midi": 59,
          "name": "B3",
          "ticks": 17664,
          "time": 134.634088,
          "velocity": 0.6456692913385826
        },
        {
          "duration": 0.33536570833334167,
          "durationTicks": 44,
          "midi": 62,
          "name": "D4",
          "ticks": 17664,
          "time": 134.634088,
          "velocity": 0.6456692913385826
        },
        {
          "duration": 0.15243895833333454,
          "durationTicks": 20,
          "midi": 55,
          "name": "G3",
          "ticks": 17736,
          "time": 135.18286825,
          "velocity": 0.6456692913385826
        },
        {
          "duration": 0.15243895833333454,
          "durationTicks": 20,
          "midi": 59,
          "name": "B3",
          "ticks": 17736,
          "time": 135.18286825,
          "velocity": 0.6456692913385826
        },
        {
          "duration": 0.15243895833333454,
          "durationTicks": 20,
          "midi": 64,
          "name": "E4",
          "ticks": 17736,
          "time": 135.18286825,
          "velocity": 0.6456692913385826
        },
        {
          "duration": 0.33536570833334167,
          "durationTicks": 44,
          "midi": 55,
          "name": "G3",
          "ticks": 17760,
          "time": 135.365795,
          "velocity": 0.6456692913385826
        },
        {
          "duration": 0.33536570833334167,
          "durationTicks": 44,
          "midi": 59,
          "name": "B3",
          "ticks": 17760,
          "time": 135.365795,
          "velocity": 0.6456692913385826
        },
        {
          "duration": 0.33536570833334167,
          "durationTicks": 44,
          "midi": 67,
          "name": "G4",
          "ticks": 17760,
          "time": 135.365795,
          "velocity": 0.6456692913385826
        },
        {
          "duration": 0.33536570833334167,
          "durationTicks": 44,
          "midi": 55,
          "name": "G3",
          "ticks": 17808,
          "time": 135.7316485,
          "velocity": 0.6456692913385826
        },
        {
          "duration": 0.33536570833334167,
          "durationTicks": 44,
          "midi": 59,
          "name": "B3",
          "ticks": 17808,
          "time": 135.7316485,
          "velocity": 0.6456692913385826
        },
        {
          "duration": 0.33536570833334167,
          "durationTicks": 44,
          "midi": 64,
          "name": "E4",
          "ticks": 17808,
          "time": 135.7316485,
          "velocity": 0.6456692913385826
        },
        {
          "duration": 0.33536570833334167,
          "durationTicks": 44,
          "midi": 67,
          "name": "G4",
          "ticks": 17856,
          "time": 136.097502,
          "velocity": 0.6456692913385826
        },
        {
          "duration": 0.33536570833334167,
          "durationTicks": 44,
          "midi": 64,
          "name": "E4",
          "ticks": 17856,
          "time": 136.097502,
          "velocity": 0.6456692913385826
        },
        {
          "duration": 0.33536570833334167,
          "durationTicks": 44,
          "midi": 60,
          "name": "C4",
          "ticks": 17856,
          "time": 136.097502,
          "velocity": 0.6456692913385826
        },
        {
          "duration": 0.33536570833334167,
          "durationTicks": 44,
          "midi": 69,
          "name": "A4",
          "ticks": 17904,
          "time": 136.4633555,
          "velocity": 0.6456692913385826
        },
        {
          "duration": 0.33536570833334167,
          "durationTicks": 44,
          "midi": 60,
          "name": "C4",
          "ticks": 17904,
          "time": 136.4633555,
          "velocity": 0.6456692913385826
        },
        {
          "duration": 0.33536570833334167,
          "durationTicks": 44,
          "midi": 64,
          "name": "E4",
          "ticks": 17904,
          "time": 136.4633555,
          "velocity": 0.6456692913385826
        },
        {
          "duration": 0.33536570833334167,
          "durationTicks": 44,
          "midi": 55,
          "name": "G3",
          "ticks": 17952,
          "time": 136.829209,
          "velocity": 0.6456692913385826
        },
        {
          "duration": 0.33536570833334167,
          "durationTicks": 44,
          "midi": 60,
          "name": "C4",
          "ticks": 17952,
          "time": 136.829209,
          "velocity": 0.6456692913385826
        },
        {
          "duration": 0.33536570833334167,
          "durationTicks": 44,
          "midi": 64,
          "name": "E4",
          "ticks": 17952,
          "time": 136.829209,
          "velocity": 0.6456692913385826
        },
        {
          "duration": 0.33536570833334167,
          "durationTicks": 44,
          "midi": 57,
          "name": "A3",
          "ticks": 18048,
          "time": 137.560916,
          "velocity": 0.6456692913385826
        },
        {
          "duration": 0.33536570833334167,
          "durationTicks": 44,
          "midi": 60,
          "name": "C4",
          "ticks": 18048,
          "time": 137.560916,
          "velocity": 0.6456692913385826
        },
        {
          "duration": 0.33536570833334167,
          "durationTicks": 44,
          "midi": 64,
          "name": "E4",
          "ticks": 18048,
          "time": 137.560916,
          "velocity": 0.6456692913385826
        },
        {
          "duration": 0.15243895833333454,
          "durationTicks": 20,
          "midi": 59,
          "name": "B3",
          "ticks": 18120,
          "time": 138.10969625,
          "velocity": 0.6456692913385826
        },
        {
          "duration": 0.15243895833333454,
          "durationTicks": 20,
          "midi": 62,
          "name": "D4",
          "ticks": 18120,
          "time": 138.10969625,
          "velocity": 0.6456692913385826
        },
        {
          "duration": 0.15243895833333454,
          "durationTicks": 20,
          "midi": 67,
          "name": "G4",
          "ticks": 18120,
          "time": 138.10969625,
          "velocity": 0.6456692913385826
        },
        {
          "duration": 0.33536570833334167,
          "durationTicks": 44,
          "midi": 60,
          "name": "C4",
          "ticks": 18144,
          "time": 138.292623,
          "velocity": 0.6456692913385826
        },
        {
          "duration": 0.33536570833334167,
          "durationTicks": 44,
          "midi": 64,
          "name": "E4",
          "ticks": 18144,
          "time": 138.292623,
          "velocity": 0.6456692913385826
        },
        {
          "duration": 0.33536570833334167,
          "durationTicks": 44,
          "midi": 69,
          "name": "A4",
          "ticks": 18144,
          "time": 138.292623,
          "velocity": 0.6456692913385826
        },
        {
          "duration": 0.33536570833334167,
          "durationTicks": 44,
          "midi": 67,
          "name": "G4",
          "ticks": 18192,
          "time": 138.6584765,
          "velocity": 0.6456692913385826
        },
        {
          "duration": 0.33536570833334167,
          "durationTicks": 44,
          "midi": 62,
          "name": "D4",
          "ticks": 18192,
          "time": 138.6584765,
          "velocity": 0.6456692913385826
        },
        {
          "duration": 0.33536570833334167,
          "durationTicks": 44,
          "midi": 59,
          "name": "B3",
          "ticks": 18192,
          "time": 138.6584765,
          "velocity": 0.6456692913385826
        },
        {
          "duration": 0.33536570833334167,
          "durationTicks": 44,
          "midi": 69,
          "name": "A4",
          "ticks": 18240,
          "time": 139.02433,
          "velocity": 0.6456692913385826
        },
        {
          "duration": 0.33536570833334167,
          "durationTicks": 44,
          "midi": 64,
          "name": "E4",
          "ticks": 18240,
          "time": 139.02433,
          "velocity": 0.6456692913385826
        },
        {
          "duration": 0.33536570833334167,
          "durationTicks": 44,
          "midi": 60,
          "name": "C4",
          "ticks": 18240,
          "time": 139.02433,
          "velocity": 0.6456692913385826
        },
        {
          "duration": 0.33536570833334167,
          "durationTicks": 44,
          "midi": 59,
          "name": "B3",
          "ticks": 18288,
          "time": 139.3901835,
          "velocity": 0.6456692913385826
        },
        {
          "duration": 0.33536570833334167,
          "durationTicks": 44,
          "midi": 62,
          "name": "D4",
          "ticks": 18288,
          "time": 139.3901835,
          "velocity": 0.6456692913385826
        },
        {
          "duration": 0.33536570833334167,
          "durationTicks": 44,
          "midi": 67,
          "name": "G4",
          "ticks": 18288,
          "time": 139.3901835,
          "velocity": 0.6456692913385826
        },
        {
          "duration": 0.33536570833334167,
          "durationTicks": 44,
          "midi": 57,
          "name": "A3",
          "ticks": 18336,
          "time": 139.756037,
          "velocity": 0.6456692913385826
        },
        {
          "duration": 0.33536570833334167,
          "durationTicks": 44,
          "midi": 60,
          "name": "C4",
          "ticks": 18336,
          "time": 139.756037,
          "velocity": 0.6456692913385826
        },
        {
          "duration": 0.33536570833334167,
          "durationTicks": 44,
          "midi": 64,
          "name": "E4",
          "ticks": 18336,
          "time": 139.756037,
          "velocity": 0.6456692913385826
        },
        {
          "duration": 0.33536570833334167,
          "durationTicks": 44,
          "midi": 55,
          "name": "G3",
          "ticks": 18432,
          "time": 140.487744,
          "velocity": 0.6456692913385826
        },
        {
          "duration": 0.33536570833334167,
          "durationTicks": 44,
          "midi": 59,
          "name": "B3",
          "ticks": 18432,
          "time": 140.487744,
          "velocity": 0.6456692913385826
        },
        {
          "duration": 0.33536570833334167,
          "durationTicks": 44,
          "midi": 62,
          "name": "D4",
          "ticks": 18432,
          "time": 140.487744,
          "velocity": 0.6456692913385826
        },
        {
          "duration": 0.33536570833334167,
          "durationTicks": 44,
          "midi": 55,
          "name": "G3",
          "ticks": 18480,
          "time": 140.8535975,
          "velocity": 0.6456692913385826
        },
        {
          "duration": 0.33536570833334167,
          "durationTicks": 44,
          "midi": 59,
          "name": "B3",
          "ticks": 18480,
          "time": 140.8535975,
          "velocity": 0.6456692913385826
        },
        {
          "duration": 0.33536570833334167,
          "durationTicks": 44,
          "midi": 64,
          "name": "E4",
          "ticks": 18480,
          "time": 140.8535975,
          "velocity": 0.6456692913385826
        },
        {
          "duration": 0.33536570833334167,
          "durationTicks": 44,
          "midi": 59,
          "name": "B3",
          "ticks": 18528,
          "time": 141.219451,
          "velocity": 0.6456692913385826
        },
        {
          "duration": 0.33536570833334167,
          "durationTicks": 44,
          "midi": 62,
          "name": "D4",
          "ticks": 18528,
          "time": 141.219451,
          "velocity": 0.6456692913385826
        },
        {
          "duration": 0.33536570833334167,
          "durationTicks": 44,
          "midi": 67,
          "name": "G4",
          "ticks": 18528,
          "time": 141.219451,
          "velocity": 0.6456692913385826
        },
        {
          "duration": 0.33536570833334167,
          "durationTicks": 44,
          "midi": 67,
          "name": "G4",
          "ticks": 18576,
          "time": 141.5853045,
          "velocity": 0.6456692913385826
        },
        {
          "duration": 0.33536570833334167,
          "durationTicks": 44,
          "midi": 62,
          "name": "D4",
          "ticks": 18576,
          "time": 141.5853045,
          "velocity": 0.6456692913385826
        },
        {
          "duration": 0.33536570833334167,
          "durationTicks": 44,
          "midi": 59,
          "name": "B3",
          "ticks": 18576,
          "time": 141.5853045,
          "velocity": 0.6456692913385826
        },
        {
          "duration": 0.7926825833333453,
          "durationTicks": 104,
          "midi": 64,
          "name": "E4",
          "ticks": 18624,
          "time": 141.951158,
          "velocity": 0.6456692913385826
        },
        {
          "duration": 0.7926825833333453,
          "durationTicks": 104,
          "midi": 60,
          "name": "C4",
          "ticks": 18624,
          "time": 141.951158,
          "velocity": 0.6456692913385826
        },
        {
          "duration": 0.7926825833333453,
          "durationTicks": 104,
          "midi": 55,
          "name": "G3",
          "ticks": 18624,
          "time": 141.951158,
          "velocity": 0.6456692913385826
        },
        {
          "duration": 0.33536570833334167,
          "durationTicks": 44,
          "midi": 64,
          "name": "E4",
          "ticks": 18768,
          "time": 143.0487185,
          "velocity": 0.6456692913385826
        },
        {
          "duration": 0.33536570833334167,
          "durationTicks": 44,
          "midi": 60,
          "name": "C4",
          "ticks": 18768,
          "time": 143.0487185,
          "velocity": 0.6456692913385826
        },
        {
          "duration": 0.33536570833334167,
          "durationTicks": 44,
          "midi": 57,
          "name": "A3",
          "ticks": 18768,
          "time": 143.0487185,
          "velocity": 0.6456692913385826
        },
        {
          "duration": 0.33536570833334167,
          "durationTicks": 44,
          "midi": 64,
          "name": "E4",
          "ticks": 18816,
          "time": 143.414572,
          "velocity": 0.6456692913385826
        },
        {
          "duration": 0.33536570833334167,
          "durationTicks": 44,
          "midi": 60,
          "name": "C4",
          "ticks": 18816,
          "time": 143.414572,
          "velocity": 0.6456692913385826
        },
        {
          "duration": 0.33536570833334167,
          "durationTicks": 44,
          "midi": 57,
          "name": "A3",
          "ticks": 18816,
          "time": 143.414572,
          "velocity": 0.6456692913385826
        },
        {
          "duration": 0.15243895833336296,
          "durationTicks": 20,
          "midi": 67,
          "name": "G4",
          "ticks": 18888,
          "time": 143.96335224999999,
          "velocity": 0.6456692913385826
        },
        {
          "duration": 0.15243895833336296,
          "durationTicks": 20,
          "midi": 62,
          "name": "D4",
          "ticks": 18888,
          "time": 143.96335224999999,
          "velocity": 0.6456692913385826
        },
        {
          "duration": 0.15243895833336296,
          "durationTicks": 20,
          "midi": 59,
          "name": "B3",
          "ticks": 18888,
          "time": 143.96335224999999,
          "velocity": 0.6456692913385826
        },
        {
          "duration": 0.33536570833334167,
          "durationTicks": 44,
          "midi": 69,
          "name": "A4",
          "ticks": 18912,
          "time": 144.146279,
          "velocity": 0.6456692913385826
        },
        {
          "duration": 0.33536570833334167,
          "durationTicks": 44,
          "midi": 64,
          "name": "E4",
          "ticks": 18912,
          "time": 144.146279,
          "velocity": 0.6456692913385826
        },
        {
          "duration": 0.33536570833334167,
          "durationTicks": 44,
          "midi": 60,
          "name": "C4",
          "ticks": 18912,
          "time": 144.146279,
          "velocity": 0.6456692913385826
        },
        {
          "duration": 0.33536570833334167,
          "durationTicks": 44,
          "midi": 59,
          "name": "B3",
          "ticks": 18960,
          "time": 144.5121325,
          "velocity": 0.6456692913385826
        },
        {
          "duration": 0.33536570833334167,
          "durationTicks": 44,
          "midi": 62,
          "name": "D4",
          "ticks": 18960,
          "time": 144.5121325,
          "velocity": 0.6456692913385826
        },
        {
          "duration": 0.33536570833334167,
          "durationTicks": 44,
          "midi": 67,
          "name": "G4",
          "ticks": 18960,
          "time": 144.5121325,
          "velocity": 0.6456692913385826
        },
        {
          "duration": 0.33536570833334167,
          "durationTicks": 44,
          "midi": 60,
          "name": "C4",
          "ticks": 19008,
          "time": 144.877986,
          "velocity": 0.6456692913385826
        },
        {
          "duration": 0.33536570833334167,
          "durationTicks": 44,
          "midi": 64,
          "name": "E4",
          "ticks": 19008,
          "time": 144.877986,
          "velocity": 0.6456692913385826
        },
        {
          "duration": 0.33536570833334167,
          "durationTicks": 44,
          "midi": 69,
          "name": "A4",
          "ticks": 19008,
          "time": 144.877986,
          "velocity": 0.6456692913385826
        },
        {
          "duration": 0.33536570833334167,
          "durationTicks": 44,
          "midi": 67,
          "name": "G4",
          "ticks": 19056,
          "time": 145.2438395,
          "velocity": 0.6456692913385826
        },
        {
          "duration": 0.33536570833334167,
          "durationTicks": 44,
          "midi": 62,
          "name": "D4",
          "ticks": 19056,
          "time": 145.2438395,
          "velocity": 0.6456692913385826
        },
        {
          "duration": 0.33536570833334167,
          "durationTicks": 44,
          "midi": 59,
          "name": "B3",
          "ticks": 19056,
          "time": 145.2438395,
          "velocity": 0.6456692913385826
        },
        {
          "duration": 0.33536570833334167,
          "durationTicks": 44,
          "midi": 64,
          "name": "E4",
          "ticks": 19104,
          "time": 145.609693,
          "velocity": 0.6456692913385826
        },
        {
          "duration": 0.33536570833334167,
          "durationTicks": 44,
          "midi": 60,
          "name": "C4",
          "ticks": 19104,
          "time": 145.609693,
          "velocity": 0.6456692913385826
        },
        {
          "duration": 0.33536570833334167,
          "durationTicks": 44,
          "midi": 57,
          "name": "A3",
          "ticks": 19104,
          "time": 145.609693,
          "velocity": 0.6456692913385826
        },
        {
          "duration": 0.33536570833334167,
          "durationTicks": 44,
          "midi": 62,
          "name": "D4",
          "ticks": 19200,
          "time": 146.3414,
          "velocity": 0.6456692913385826
        },
        {
          "duration": 0.33536570833334167,
          "durationTicks": 44,
          "midi": 59,
          "name": "B3",
          "ticks": 19200,
          "time": 146.3414,
          "velocity": 0.6456692913385826
        },
        {
          "duration": 0.33536570833334167,
          "durationTicks": 44,
          "midi": 55,
          "name": "G3",
          "ticks": 19200,
          "time": 146.3414,
          "velocity": 0.6456692913385826
        },
        {
          "duration": 0.15243895833336296,
          "durationTicks": 20,
          "midi": 55,
          "name": "G3",
          "ticks": 19272,
          "time": 146.89018025,
          "velocity": 0.6456692913385826
        },
        {
          "duration": 0.15243895833336296,
          "durationTicks": 20,
          "midi": 64,
          "name": "E4",
          "ticks": 19272,
          "time": 146.89018025,
          "velocity": 0.6456692913385826
        },
        {
          "duration": 0.15243895833336296,
          "durationTicks": 20,
          "midi": 59,
          "name": "B3",
          "ticks": 19272,
          "time": 146.89018025,
          "velocity": 0.6456692913385826
        },
        {
          "duration": 0.33536570833334167,
          "durationTicks": 44,
          "midi": 62,
          "name": "D4",
          "ticks": 19296,
          "time": 147.073107,
          "velocity": 0.6456692913385826
        },
        {
          "duration": 0.33536570833334167,
          "durationTicks": 44,
          "midi": 59,
          "name": "B3",
          "ticks": 19296,
          "time": 147.073107,
          "velocity": 0.6456692913385826
        },
        {
          "duration": 0.33536570833334167,
          "durationTicks": 44,
          "midi": 67,
          "name": "G4",
          "ticks": 19296,
          "time": 147.073107,
          "velocity": 0.6456692913385826
        },
        {
          "duration": 0.33536570833334167,
          "durationTicks": 44,
          "midi": 64,
          "name": "E4",
          "ticks": 19344,
          "time": 147.4389605,
          "velocity": 0.6456692913385826
        },
        {
          "duration": 0.33536570833334167,
          "durationTicks": 44,
          "midi": 55,
          "name": "G3",
          "ticks": 19344,
          "time": 147.4389605,
          "velocity": 0.6456692913385826
        },
        {
          "duration": 0.33536570833334167,
          "durationTicks": 44,
          "midi": 59,
          "name": "B3",
          "ticks": 19344,
          "time": 147.4389605,
          "velocity": 0.6456692913385826
        },
        {
          "duration": 0.33536570833334167,
          "durationTicks": 44,
          "midi": 67,
          "name": "G4",
          "ticks": 19392,
          "time": 147.804814,
          "velocity": 0.6456692913385826
        },
        {
          "duration": 0.33536570833334167,
          "durationTicks": 44,
          "midi": 60,
          "name": "C4",
          "ticks": 19392,
          "time": 147.804814,
          "velocity": 0.6456692913385826
        },
        {
          "duration": 0.33536570833334167,
          "durationTicks": 44,
          "midi": 64,
          "name": "E4",
          "ticks": 19392,
          "time": 147.804814,
          "velocity": 0.6456692913385826
        },
        {
          "duration": 0.33536570833334167,
          "durationTicks": 44,
          "midi": 64,
          "name": "E4",
          "ticks": 19440,
          "time": 148.1706675,
          "velocity": 0.6456692913385826
        },
        {
          "duration": 0.33536570833334167,
          "durationTicks": 44,
          "midi": 60,
          "name": "C4",
          "ticks": 19440,
          "time": 148.1706675,
          "velocity": 0.6456692913385826
        },
        {
          "duration": 0.33536570833334167,
          "durationTicks": 44,
          "midi": 69,
          "name": "A4",
          "ticks": 19440,
          "time": 148.1706675,
          "velocity": 0.6456692913385826
        },
        {
          "duration": 0.33536570833334167,
          "durationTicks": 44,
          "midi": 60,
          "name": "C4",
          "ticks": 19488,
          "time": 148.536521,
          "velocity": 0.6456692913385826
        },
        {
          "duration": 0.33536570833334167,
          "durationTicks": 44,
          "midi": 64,
          "name": "E4",
          "ticks": 19488,
          "time": 148.536521,
          "velocity": 0.6456692913385826
        },
        {
          "duration": 0.33536570833334167,
          "durationTicks": 44,
          "midi": 55,
          "name": "G3",
          "ticks": 19488,
          "time": 148.536521,
          "velocity": 0.6456692913385826
        },
        {
          "duration": 0.33536570833334167,
          "durationTicks": 44,
          "midi": 64,
          "name": "E4",
          "ticks": 19584,
          "time": 149.268228,
          "velocity": 0.6456692913385826
        },
        {
          "duration": 0.33536570833334167,
          "durationTicks": 44,
          "midi": 60,
          "name": "C4",
          "ticks": 19584,
          "time": 149.268228,
          "velocity": 0.6456692913385826
        },
        {
          "duration": 0.33536570833334167,
          "durationTicks": 44,
          "midi": 57,
          "name": "A3",
          "ticks": 19584,
          "time": 149.268228,
          "velocity": 0.6456692913385826
        },
        {
          "duration": 0.15243895833336296,
          "durationTicks": 20,
          "midi": 67,
          "name": "G4",
          "ticks": 19656,
          "time": 149.81700825,
          "velocity": 0.6456692913385826
        },
        {
          "duration": 0.15243895833336296,
          "durationTicks": 20,
          "midi": 62,
          "name": "D4",
          "ticks": 19656,
          "time": 149.81700825,
          "velocity": 0.6456692913385826
        },
        {
          "duration": 0.15243895833336296,
          "durationTicks": 20,
          "midi": 59,
          "name": "B3",
          "ticks": 19656,
          "time": 149.81700825,
          "velocity": 0.6456692913385826
        },
        {
          "duration": 0.33536570833334167,
          "durationTicks": 44,
          "midi": 69,
          "name": "A4",
          "ticks": 19680,
          "time": 149.999935,
          "velocity": 0.6456692913385826
        },
        {
          "duration": 0.33536570833334167,
          "durationTicks": 44,
          "midi": 64,
          "name": "E4",
          "ticks": 19680,
          "time": 149.999935,
          "velocity": 0.6456692913385826
        },
        {
          "duration": 0.33536570833334167,
          "durationTicks": 44,
          "midi": 60,
          "name": "C4",
          "ticks": 19680,
          "time": 149.999935,
          "velocity": 0.6456692913385826
        },
        {
          "duration": 0.33536570833334167,
          "durationTicks": 44,
          "midi": 59,
          "name": "B3",
          "ticks": 19728,
          "time": 150.3657885,
          "velocity": 0.6456692913385826
        },
        {
          "duration": 0.33536570833334167,
          "durationTicks": 44,
          "midi": 67,
          "name": "G4",
          "ticks": 19728,
          "time": 150.3657885,
          "velocity": 0.6456692913385826
        },
        {
          "duration": 0.33536570833334167,
          "durationTicks": 44,
          "midi": 62,
          "name": "D4",
          "ticks": 19728,
          "time": 150.3657885,
          "velocity": 0.6456692913385826
        },
        {
          "duration": 0.33536570833334167,
          "durationTicks": 44,
          "midi": 60,
          "name": "C4",
          "ticks": 19776,
          "time": 150.731642,
          "velocity": 0.6456692913385826
        },
        {
          "duration": 0.33536570833334167,
          "durationTicks": 44,
          "midi": 69,
          "name": "A4",
          "ticks": 19776,
          "time": 150.731642,
          "velocity": 0.6456692913385826
        },
        {
          "duration": 0.33536570833334167,
          "durationTicks": 44,
          "midi": 64,
          "name": "E4",
          "ticks": 19776,
          "time": 150.731642,
          "velocity": 0.6456692913385826
        },
        {
          "duration": 0.33536570833334167,
          "durationTicks": 44,
          "midi": 67,
          "name": "G4",
          "ticks": 19824,
          "time": 151.0974955,
          "velocity": 0.6456692913385826
        },
        {
          "duration": 0.33536570833334167,
          "durationTicks": 44,
          "midi": 62,
          "name": "D4",
          "ticks": 19824,
          "time": 151.0974955,
          "velocity": 0.6456692913385826
        },
        {
          "duration": 0.33536570833334167,
          "durationTicks": 44,
          "midi": 59,
          "name": "B3",
          "ticks": 19824,
          "time": 151.0974955,
          "velocity": 0.6456692913385826
        },
        {
          "duration": 0.33536570833334167,
          "durationTicks": 44,
          "midi": 60,
          "name": "C4",
          "ticks": 19872,
          "time": 151.463349,
          "velocity": 0.6456692913385826
        },
        {
          "duration": 0.33536570833334167,
          "durationTicks": 44,
          "midi": 64,
          "name": "E4",
          "ticks": 19872,
          "time": 151.463349,
          "velocity": 0.6456692913385826
        },
        {
          "duration": 0.33536570833334167,
          "durationTicks": 44,
          "midi": 57,
          "name": "A3",
          "ticks": 19872,
          "time": 151.463349,
          "velocity": 0.6456692913385826
        },
        {
          "duration": 0.33536570833334167,
          "durationTicks": 44,
          "midi": 55,
          "name": "G3",
          "ticks": 19968,
          "time": 152.195056,
          "velocity": 0.6456692913385826
        },
        {
          "duration": 0.33536570833334167,
          "durationTicks": 44,
          "midi": 59,
          "name": "B3",
          "ticks": 19968,
          "time": 152.195056,
          "velocity": 0.6456692913385826
        },
        {
          "duration": 0.33536570833334167,
          "durationTicks": 44,
          "midi": 62,
          "name": "D4",
          "ticks": 19968,
          "time": 152.195056,
          "velocity": 0.6456692913385826
        },
        {
          "duration": 0.33536570833334167,
          "durationTicks": 44,
          "midi": 64,
          "name": "E4",
          "ticks": 20016,
          "time": 152.5609095,
          "velocity": 0.6456692913385826
        },
        {
          "duration": 0.33536570833334167,
          "durationTicks": 44,
          "midi": 59,
          "name": "B3",
          "ticks": 20016,
          "time": 152.5609095,
          "velocity": 0.6456692913385826
        },
        {
          "duration": 0.33536570833334167,
          "durationTicks": 44,
          "midi": 55,
          "name": "G3",
          "ticks": 20016,
          "time": 152.5609095,
          "velocity": 0.6456692913385826
        },
        {
          "duration": 0.33536570833334167,
          "durationTicks": 44,
          "midi": 55,
          "name": "G3",
          "ticks": 20064,
          "time": 152.926763,
          "velocity": 0.6456692913385826
        },
        {
          "duration": 0.33536570833334167,
          "durationTicks": 44,
          "midi": 59,
          "name": "B3",
          "ticks": 20064,
          "time": 152.926763,
          "velocity": 0.6456692913385826
        },
        {
          "duration": 0.33536570833334167,
          "durationTicks": 44,
          "midi": 62,
          "name": "D4",
          "ticks": 20064,
          "time": 152.926763,
          "velocity": 0.6456692913385826
        },
        {
          "duration": 0.33536570833334167,
          "durationTicks": 44,
          "midi": 59,
          "name": "B3",
          "ticks": 20112,
          "time": 153.2926165,
          "velocity": 0.6456692913385826
        },
        {
          "duration": 0.33536570833334167,
          "durationTicks": 44,
          "midi": 55,
          "name": "G3",
          "ticks": 20112,
          "time": 153.2926165,
          "velocity": 0.6456692913385826
        },
        {
          "duration": 1.1128043958333365,
          "durationTicks": 146,
          "midi": 60,
          "name": "C4",
          "ticks": 20160,
          "time": 153.65847,
          "velocity": 0.6456692913385826
        },
        {
          "duration": 1.1128043958333365,
          "durationTicks": 146,
          "midi": 57,
          "name": "A3",
          "ticks": 20160,
          "time": 153.65847,
          "velocity": 0.6456692913385826
        },
        {
          "duration": 1.1128043958333365,
          "durationTicks": 146,
          "midi": 52,
          "name": "E3",
          "ticks": 20160,
          "time": 153.65847,
          "velocity": 0.6456692913385826
        }
      ]
    },
    {
      "channel": 0,
      "controlChanges": {
        "6": [
          {
            "number": 6,
            "ticks": 0,
            "time": 0,
            "value": 0.09448818897637795
          }
        ],
        "7": [
          {
            "number": 7,
            "ticks": 0,
            "time": 0,
            "value": 0.7874015748031497
          },
          {
            "number": 7,
            "ticks": 0,
            "time": 0,
            "value": 0.7874015748031497
          }
        ],
        "10": [
          {
            "number": 10,
            "ticks": 0,
            "time": 0,
            "value": 0.5039370078740157
          },
          {
            "number": 10,
            "ticks": 0,
            "time": 0,
            "value": 0.5039370078740157
          }
        ],
        "100": [
          {
            "number": 100,
            "ticks": 0,
            "time": 0,
            "value": 0
          }
        ],
        "101": [
          {
            "number": 101,
            "ticks": 0,
            "time": 0,
            "value": 0
          }
        ]
      },
      "pitchBends": [
        {
          "ticks": 0,
          "time": 0,
          "value": 0
        },
        {
          "ticks": 0,
          "time": 0,
          "value": 0
        }
      ],
      "instrument": {
        "family": "piano",
        "name": "acoustic grand piano",
        "number": 0
      },
      "name": "Koto",
      "notes": []
    },
    {
      "channel": 4,
      "controlChanges": {
        "6": [
          {
            "number": 6,
            "ticks": 0,
            "time": 0,
            "value": 0.09448818897637795
          },
          {
            "number": 6,
            "ticks": 22752,
            "time": 173.414559,
            "value": 0.09448818897637795
          },
          {
            "number": 6,
            "ticks": 22753,
            "time": 173.42218094791667,
            "value": 0.09448818897637795
          },
          {
            "number": 6,
            "ticks": 22753,
            "time": 173.42218094791667,
            "value": 0.09448818897637795
          }
        ],
        "7": [
          {
            "number": 7,
            "ticks": 0,
            "time": 0,
            "value": 0.7874015748031497
          },
          {
            "number": 7,
            "ticks": 0,
            "time": 0,
            "value": 0.7874015748031497
          },
          {
            "number": 7,
            "ticks": 0,
            "time": 0,
            "value": 0.7874015748031497
          },
          {
            "number": 7,
            "ticks": 22752,
            "time": 173.414559,
            "value": 0.7874015748031497
          },
          {
            "number": 7,
            "ticks": 22753,
            "time": 173.42218094791667,
            "value": 0.7874015748031497
          },
          {
            "number": 7,
            "ticks": 22753,
            "time": 173.42218094791667,
            "value": 0.7874015748031497
          }
        ],
        "10": [
          {
            "number": 10,
            "ticks": 0,
            "time": 0,
            "value": 0.5039370078740157
          },
          {
            "number": 10,
            "ticks": 0,
            "time": 0,
            "value": 0.5039370078740157
          },
          {
            "number": 10,
            "ticks": 0,
            "time": 0,
            "value": 0.5039370078740157
          },
          {
            "number": 10,
            "ticks": 22752,
            "time": 173.414559,
            "value": 0.5039370078740157
          },
          {
            "number": 10,
            "ticks": 22753,
            "time": 173.42218094791667,
            "value": 0.5039370078740157
          },
          {
            "number": 10,
            "ticks": 22753,
            "time": 173.42218094791667,
            "value": 0.5039370078740157
          }
        ],
        "91": [
          {
            "number": 91,
            "ticks": 0,
            "time": 0,
            "value": 0.5039370078740157
          },
          {
            "number": 91,
            "ticks": 0,
            "time": 0,
            "value": 0.5039370078740157
          },
          {
            "number": 91,
            "ticks": 0,
            "time": 0,
            "value": 0.5039370078740157
          },
          {
            "number": 91,
            "ticks": 0,
            "time": 0,
            "value": 0.5039370078740157
          },
          {
            "number": 91,
            "ticks": 22752,
            "time": 173.414559,
            "value": 0.5039370078740157
          },
          {
            "number": 91,
            "ticks": 22753,
            "time": 173.42218094791667,
            "value": 0.5039370078740157
          },
          {
            "number": 91,
            "ticks": 22753,
            "time": 173.42218094791667,
            "value": 0.5039370078740157
          }
        ],
        "100": [
          {
            "number": 100,
            "ticks": 0,
            "time": 0,
            "value": 0
          },
          {
            "number": 100,
            "ticks": 22752,
            "time": 173.414559,
            "value": 0
          },
          {
            "number": 100,
            "ticks": 22753,
            "time": 173.42218094791667,
            "value": 0
          },
          {
            "number": 100,
            "ticks": 22753,
            "time": 173.42218094791667,
            "value": 0
          }
        ],
        "101": [
          {
            "number": 101,
            "ticks": 0,
            "time": 0,
            "value": 0
          },
          {
            "number": 101,
            "ticks": 22752,
            "time": 173.414559,
            "value": 0
          },
          {
            "number": 101,
            "ticks": 22753,
            "time": 173.42218094791667,
            "value": 0
          },
          {
            "number": 101,
            "ticks": 22753,
            "time": 173.42218094791667,
            "value": 0
          }
        ]
      },
      "pitchBends": [
        {
          "ticks": 0,
          "time": 0,
          "value": 0
        },
        {
          "ticks": 0,
          "time": 0,
          "value": 0
        },
        {
          "ticks": 0,
          "time": 0,
          "value": 0
        },
        {
          "ticks": 22752,
          "time": 173.414559,
          "value": 0
        },
        {
          "ticks": 22753,
          "time": 173.42218094791667,
          "value": 0
        },
        {
          "ticks": 22753,
          "time": 173.42218094791667,
          "value": 0
        }
      ],
      "instrument": {
        "family": "world",
        "name": "koto",
        "number": 107
      },
      "name": "",
      "notes": [
        {
          "duration": 0.09146337500000357,
          "durationTicks": 12,
          "midi": 80,
          "name": "G#5",
          "ticks": 4776,
          "time": 36.40242325,
          "velocity": 0.6141732283464567
        },
        {
          "duration": 0.09146337499999646,
          "durationTicks": 12,
          "midi": 78,
          "name": "F#5",
          "ticks": 4788,
          "time": 36.493886625,
          "velocity": 0.6141732283464567
        },
        {
          "duration": 0.09146337500000357,
          "durationTicks": 12,
          "midi": 75,
          "name": "D#5",
          "ticks": 4800,
          "time": 36.58535,
          "velocity": 0.6220472440944882
        },
        {
          "duration": 0.09146337499999646,
          "durationTicks": 12,
          "midi": 73,
          "name": "C#5",
          "ticks": 4812,
          "time": 36.676813375,
          "velocity": 0.6220472440944882
        },
        {
          "duration": 0.09146337500000357,
          "durationTicks": 12,
          "midi": 71,
          "name": "B4",
          "ticks": 4824,
          "time": 36.76827675,
          "velocity": 0.6377952755905512
        },
        {
          "duration": 0.09146337500000357,
          "durationTicks": 12,
          "midi": 73,
          "name": "C#5",
          "ticks": 4848,
          "time": 36.9512035,
          "velocity": 0.6456692913385826
        },
        {
          "duration": 0.09146337500000357,
          "durationTicks": 12,
          "midi": 75,
          "name": "D#5",
          "ticks": 4872,
          "time": 37.13413025,
          "velocity": 0.6535433070866141
        },
        {
          "duration": 0.09146337500000357,
          "durationTicks": 12,
          "midi": 71,
          "name": "B4",
          "ticks": 4896,
          "time": 37.317057,
          "velocity": 0.6614173228346457
        },
        {
          "duration": 0.09146337500000357,
          "durationTicks": 12,
          "midi": 73,
          "name": "C#5",
          "ticks": 4920,
          "time": 37.49998375,
          "velocity": 0.6692913385826772
        },
        {
          "duration": 0.09146337500000357,
          "durationTicks": 12,
          "midi": 75,
          "name": "D#5",
          "ticks": 4944,
          "time": 37.6829105,
          "velocity": 0.6771653543307087
        },
        {
          "duration": 0.09146337500000357,
          "durationTicks": 12,
          "midi": 78,
          "name": "F#5",
          "ticks": 4968,
          "time": 37.86583725,
          "velocity": 0.6850393700787402
        },
        {
          "duration": 0.09146337500000357,
          "durationTicks": 12,
          "midi": 80,
          "name": "G#5",
          "ticks": 4992,
          "time": 38.048764,
          "velocity": 0.6929133858267716
        },
        {
          "duration": 0.09146337500000357,
          "durationTicks": 12,
          "midi": 73,
          "name": "C#5",
          "ticks": 5712,
          "time": 43.5365665,
          "velocity": 0.6771653543307087
        },
        {
          "duration": 0.09146337500000357,
          "durationTicks": 12,
          "midi": 75,
          "name": "D#5",
          "ticks": 5736,
          "time": 43.71949325,
          "velocity": 0.6850393700787402
        },
        {
          "duration": 0.09146337500000357,
          "durationTicks": 12,
          "midi": 80,
          "name": "G#5",
          "ticks": 5760,
          "time": 43.90242,
          "velocity": 0.7165354330708661
        },
        {
          "duration": 0.09146337499999646,
          "durationTicks": 12,
          "midi": 80,
          "name": "G#5",
          "ticks": 6408,
          "time": 48.84144225,
          "velocity": 0.6220472440944882
        },
        {
          "duration": 0.09146337500000357,
          "durationTicks": 12,
          "midi": 78,
          "name": "F#5",
          "ticks": 6420,
          "time": 48.932905625,
          "velocity": 0.6456692913385826
        },
        {
          "duration": 0.09146337499999646,
          "durationTicks": 12,
          "midi": 75,
          "name": "D#5",
          "ticks": 6432,
          "time": 49.024369,
          "velocity": 0.6456692913385826
        },
        {
          "duration": 0.09146337500000357,
          "durationTicks": 12,
          "midi": 73,
          "name": "C#5",
          "ticks": 6444,
          "time": 49.115832375,
          "velocity": 0.6535433070866141
        },
        {
          "duration": 0.09146337499999646,
          "durationTicks": 12,
          "midi": 71,
          "name": "B4",
          "ticks": 6456,
          "time": 49.20729575,
          "velocity": 0.6614173228346457
        },
        {
          "duration": 0.09146337499999646,
          "durationTicks": 12,
          "midi": 73,
          "name": "C#5",
          "ticks": 6480,
          "time": 49.3902225,
          "velocity": 0.6771653543307087
        },
        {
          "duration": 0.09146337499999646,
          "durationTicks": 12,
          "midi": 75,
          "name": "D#5",
          "ticks": 6504,
          "time": 49.57314925,
          "velocity": 0.6850393700787402
        },
        {
          "duration": 0.09146337499999646,
          "durationTicks": 12,
          "midi": 80,
          "name": "G#5",
          "ticks": 6528,
          "time": 49.756076,
          "velocity": 0.7165354330708661
        },
        {
          "duration": 0.09146337499999646,
          "durationTicks": 12,
          "midi": 80,
          "name": "G#5",
          "ticks": 7248,
          "time": 55.2438785,
          "velocity": 0.7165354330708661
        },
        {
          "duration": 0.09146337499999646,
          "durationTicks": 12,
          "midi": 78,
          "name": "F#5",
          "ticks": 7272,
          "time": 55.42680525,
          "velocity": 0.6850393700787402
        },
        {
          "duration": 0.09146337499999646,
          "durationTicks": 12,
          "midi": 75,
          "name": "D#5",
          "ticks": 7296,
          "time": 55.609732,
          "velocity": 0.6692913385826772
        },
        {
          "duration": 0.09146337499999646,
          "durationTicks": 12,
          "midi": 75,
          "name": "D#5",
          "ticks": 7632,
          "time": 58.1707065,
          "velocity": 0.6456692913385826
        },
        {
          "duration": 0.09146337499999646,
          "durationTicks": 12,
          "midi": 78,
          "name": "F#5",
          "ticks": 7656,
          "time": 58.35363325,
          "velocity": 0.6771653543307087
        },
        {
          "duration": 0.09146337499999646,
          "durationTicks": 12,
          "midi": 73,
          "name": "C#5",
          "ticks": 7680,
          "time": 58.53656,
          "velocity": 0.7165354330708661
        },
        {
          "duration": 0.09146337499999646,
          "durationTicks": 12,
          "midi": 71,
          "name": "B4",
          "ticks": 7824,
          "time": 59.6341205,
          "velocity": 0.6456692913385826
        },
        {
          "duration": 0.09146337499999646,
          "durationTicks": 12,
          "midi": 70,
          "name": "A#4",
          "ticks": 7848,
          "time": 59.81704725,
          "velocity": 0.6771653543307087
        },
        {
          "duration": 0.09146337499999646,
          "durationTicks": 12,
          "midi": 68,
          "name": "G#4",
          "ticks": 7872,
          "time": 59.999974,
          "velocity": 0.7165354330708661
        },
        {
          "duration": 0.09146337499999646,
          "durationTicks": 12,
          "midi": 73,
          "name": "C#5",
          "ticks": 8016,
          "time": 61.0975345,
          "velocity": 0.6771653543307087
        },
        {
          "duration": 0.09146337499999646,
          "durationTicks": 12,
          "midi": 75,
          "name": "D#5",
          "ticks": 8040,
          "time": 61.28046125,
          "velocity": 0.6850393700787402
        },
        {
          "duration": 0.09146337499999646,
          "durationTicks": 12,
          "midi": 80,
          "name": "G#5",
          "ticks": 8064,
          "time": 61.463388,
          "velocity": 0.7165354330708661
        },
        {
          "duration": 0.09146337500000357,
          "durationTicks": 12,
          "midi": 80,
          "name": "G#5",
          "ticks": 8712,
          "time": 66.40241025,
          "velocity": 0.6220472440944882
        },
        {
          "duration": 0.09146337499998936,
          "durationTicks": 12,
          "midi": 78,
          "name": "F#5",
          "ticks": 8724,
          "time": 66.493873625,
          "velocity": 0.6456692913385826
        },
        {
          "duration": 0.09146337500000357,
          "durationTicks": 12,
          "midi": 75,
          "name": "D#5",
          "ticks": 8736,
          "time": 66.585337,
          "velocity": 0.6456692913385826
        },
        {
          "duration": 0.09146337500000357,
          "durationTicks": 12,
          "midi": 73,
          "name": "C#5",
          "ticks": 8748,
          "time": 66.676800375,
          "velocity": 0.6535433070866141
        },
        {
          "duration": 0.09146337500000357,
          "durationTicks": 12,
          "midi": 71,
          "name": "B4",
          "ticks": 8760,
          "time": 66.76826375,
          "velocity": 0.6614173228346457
        },
        {
          "duration": 0.09146337500000357,
          "durationTicks": 12,
          "midi": 73,
          "name": "C#5",
          "ticks": 8784,
          "time": 66.9511905,
          "velocity": 0.6771653543307087
        },
        {
          "duration": 0.09146337500000357,
          "durationTicks": 12,
          "midi": 75,
          "name": "D#5",
          "ticks": 8808,
          "time": 67.13411725,
          "velocity": 0.6850393700787402
        },
        {
          "duration": 0.09146337500000357,
          "durationTicks": 12,
          "midi": 80,
          "name": "G#5",
          "ticks": 8832,
          "time": 67.317044,
          "velocity": 0.7165354330708661
        },
        {
          "duration": 0.09146337500000357,
          "durationTicks": 12,
          "midi": 75,
          "name": "D#5",
          "ticks": 9168,
          "time": 69.8780185,
          "velocity": 0.7165354330708661
        },
        {
          "duration": 0.09146337500000357,
          "durationTicks": 12,
          "midi": 78,
          "name": "F#5",
          "ticks": 9192,
          "time": 70.06094525,
          "velocity": 0.6850393700787402
        },
        {
          "duration": 0.09146337500000357,
          "durationTicks": 12,
          "midi": 73,
          "name": "C#5",
          "ticks": 9216,
          "time": 70.243872,
          "velocity": 0.6692913385826772
        },
        {
          "duration": 0.09146337500000357,
          "durationTicks": 12,
          "midi": 71,
          "name": "B4",
          "ticks": 9360,
          "time": 71.3414325,
          "velocity": 0.6456692913385826
        },
        {
          "duration": 0.09146337499998936,
          "durationTicks": 12,
          "midi": 70,
          "name": "A#4",
          "ticks": 9384,
          "time": 71.52435925,
          "velocity": 0.6771653543307087
        },
        {
          "duration": 0.09146337500000357,
          "durationTicks": 12,
          "midi": 68,
          "name": "G#4",
          "ticks": 9408,
          "time": 71.707286,
          "velocity": 0.7165354330708661
        },
        {
          "duration": 0.09146337500000357,
          "durationTicks": 12,
          "midi": 80,
          "name": "G#5",
          "ticks": 12456,
          "time": 94.93898324999999,
          "velocity": 0.4881889763779528
        },
        {
          "duration": 0.09146337500000357,
          "durationTicks": 12,
          "midi": 78,
          "name": "F#5",
          "ticks": 12468,
          "time": 95.030446625,
          "velocity": 0.49606299212598426
        },
        {
          "duration": 0.09146337500000357,
          "durationTicks": 12,
          "midi": 75,
          "name": "D#5",
          "ticks": 12480,
          "time": 95.12191,
          "velocity": 0.49606299212598426
        },
        {
          "duration": 0.09146337499998936,
          "durationTicks": 12,
          "midi": 73,
          "name": "C#5",
          "ticks": 12492,
          "time": 95.213373375,
          "velocity": 0.5039370078740157
        },
        {
          "duration": 0.09146337500000357,
          "durationTicks": 12,
          "midi": 71,
          "name": "B4",
          "ticks": 12504,
          "time": 95.30483674999999,
          "velocity": 0.5118110236220472
        },
        {
          "duration": 0.09146337500000357,
          "durationTicks": 12,
          "midi": 73,
          "name": "C#5",
          "ticks": 12528,
          "time": 95.4877635,
          "velocity": 0.5275590551181102
        },
        {
          "duration": 0.09146337500000357,
          "durationTicks": 12,
          "midi": 75,
          "name": "D#5",
          "ticks": 12552,
          "time": 95.67069024999999,
          "velocity": 0.5433070866141733
        },
        {
          "duration": 0.09146337500000357,
          "durationTicks": 12,
          "midi": 71,
          "name": "B4",
          "ticks": 12576,
          "time": 95.853617,
          "velocity": 0.5590551181102362
        },
        {
          "duration": 0.09146337500000357,
          "durationTicks": 12,
          "midi": 73,
          "name": "C#5",
          "ticks": 12600,
          "time": 96.03654374999999,
          "velocity": 0.5748031496062992
        },
        {
          "duration": 0.09146337500000357,
          "durationTicks": 12,
          "midi": 75,
          "name": "D#5",
          "ticks": 12624,
          "time": 96.2194705,
          "velocity": 0.5984251968503937
        },
        {
          "duration": 0.09146337500000357,
          "durationTicks": 12,
          "midi": 78,
          "name": "F#5",
          "ticks": 12648,
          "time": 96.40239724999999,
          "velocity": 0.6141732283464567
        },
        {
          "duration": 0.09146337500000357,
          "durationTicks": 12,
          "midi": 80,
          "name": "G#5",
          "ticks": 12672,
          "time": 96.585324,
          "velocity": 0.6299212598425197
        },
        {
          "duration": 0.09146337500000357,
          "durationTicks": 12,
          "midi": 73,
          "name": "C#5",
          "ticks": 13392,
          "time": 102.0731265,
          "velocity": 0.6141732283464567
        },
        {
          "duration": 0.09146337500000357,
          "durationTicks": 12,
          "midi": 75,
          "name": "D#5",
          "ticks": 13416,
          "time": 102.25605325,
          "velocity": 0.6220472440944882
        },
        {
          "duration": 0.09146337500000357,
          "durationTicks": 12,
          "midi": 80,
          "name": "G#5",
          "ticks": 13440,
          "time": 102.43898,
          "velocity": 0.6456692913385826
        },
        {
          "duration": 0.09146337500000357,
          "durationTicks": 12,
          "midi": 80,
          "name": "G#5",
          "ticks": 14088,
          "time": 107.37800225,
          "velocity": 0.5669291338582677
        },
        {
          "duration": 0.09146337500000357,
          "durationTicks": 12,
          "midi": 78,
          "name": "F#5",
          "ticks": 14100,
          "time": 107.469465625,
          "velocity": 0.5826771653543307
        },
        {
          "duration": 0.09146337500000357,
          "durationTicks": 12,
          "midi": 75,
          "name": "D#5",
          "ticks": 14112,
          "time": 107.560929,
          "velocity": 0.5826771653543307
        },
        {
          "duration": 0.09146337499998936,
          "durationTicks": 12,
          "midi": 73,
          "name": "C#5",
          "ticks": 14124,
          "time": 107.652392375,
          "velocity": 0.5905511811023622
        },
        {
          "duration": 0.09146337500000357,
          "durationTicks": 12,
          "midi": 71,
          "name": "B4",
          "ticks": 14136,
          "time": 107.74385575,
          "velocity": 0.5984251968503937
        },
        {
          "duration": 0.09146337500000357,
          "durationTicks": 12,
          "midi": 73,
          "name": "C#5",
          "ticks": 14160,
          "time": 107.9267825,
          "velocity": 0.6141732283464567
        },
        {
          "duration": 0.09146337500000357,
          "durationTicks": 12,
          "midi": 75,
          "name": "D#5",
          "ticks": 14184,
          "time": 108.10970925,
          "velocity": 0.6220472440944882
        },
        {
          "duration": 0.09146337500000357,
          "durationTicks": 12,
          "midi": 80,
          "name": "G#5",
          "ticks": 14208,
          "time": 108.292636,
          "velocity": 0.6456692913385826
        },
        {
          "duration": 0.09146337500000357,
          "durationTicks": 12,
          "midi": 80,
          "name": "G#5",
          "ticks": 14928,
          "time": 113.7804385,
          "velocity": 0.6456692913385826
        },
        {
          "duration": 0.09146337500000357,
          "durationTicks": 12,
          "midi": 78,
          "name": "F#5",
          "ticks": 14952,
          "time": 113.96336525,
          "velocity": 0.6220472440944882
        },
        {
          "duration": 0.09146337500000357,
          "durationTicks": 12,
          "midi": 75,
          "name": "D#5",
          "ticks": 14976,
          "time": 114.146292,
          "velocity": 0.6062992125984252
        },
        {
          "duration": 0.09146337500000357,
          "durationTicks": 12,
          "midi": 75,
          "name": "D#5",
          "ticks": 15312,
          "time": 116.7072665,
          "velocity": 0.5826771653543307
        },
        {
          "duration": 0.09146337500000357,
          "durationTicks": 12,
          "midi": 78,
          "name": "F#5",
          "ticks": 15336,
          "time": 116.89019325,
          "velocity": 0.6141732283464567
        },
        {
          "duration": 0.09146337499998936,
          "durationTicks": 12,
          "midi": 73,
          "name": "C#5",
          "ticks": 15360,
          "time": 117.07312,
          "velocity": 0.6456692913385826
        },
        {
          "duration": 0.09146337499998936,
          "durationTicks": 12,
          "midi": 71,
          "name": "B4",
          "ticks": 15504,
          "time": 118.1706805,
          "velocity": 0.5826771653543307
        },
        {
          "duration": 0.09146337500000357,
          "durationTicks": 12,
          "midi": 70,
          "name": "A#4",
          "ticks": 15528,
          "time": 118.35360725,
          "velocity": 0.6141732283464567
        },
        {
          "duration": 0.09146337499998936,
          "durationTicks": 12,
          "midi": 68,
          "name": "G#4",
          "ticks": 15552,
          "time": 118.536534,
          "velocity": 0.6456692913385826
        },
        {
          "duration": 0.09146337499998936,
          "durationTicks": 12,
          "midi": 73,
          "name": "C#5",
          "ticks": 15696,
          "time": 119.6340945,
          "velocity": 0.6141732283464567
        },
        {
          "duration": 0.09146337500000357,
          "durationTicks": 12,
          "midi": 75,
          "name": "D#5",
          "ticks": 15720,
          "time": 119.81702125,
          "velocity": 0.6220472440944882
        },
        {
          "duration": 0.09146337499998936,
          "durationTicks": 12,
          "midi": 80,
          "name": "G#5",
          "ticks": 15744,
          "time": 119.999948,
          "velocity": 0.6456692913385826
        },
        {
          "duration": 0.09146337500000357,
          "durationTicks": 12,
          "midi": 80,
          "name": "G#5",
          "ticks": 16392,
          "time": 124.93897025,
          "velocity": 0.5669291338582677
        },
        {
          "duration": 0.09146337500000357,
          "durationTicks": 12,
          "midi": 78,
          "name": "F#5",
          "ticks": 16404,
          "time": 125.030433625,
          "velocity": 0.5826771653543307
        },
        {
          "duration": 0.09146337499998936,
          "durationTicks": 12,
          "midi": 75,
          "name": "D#5",
          "ticks": 16416,
          "time": 125.121897,
          "velocity": 0.5826771653543307
        },
        {
          "duration": 0.09146337500000357,
          "durationTicks": 12,
          "midi": 73,
          "name": "C#5",
          "ticks": 16428,
          "time": 125.213360375,
          "velocity": 0.5905511811023622
        },
        {
          "duration": 0.09146337500000357,
          "durationTicks": 12,
          "midi": 71,
          "name": "B4",
          "ticks": 16440,
          "time": 125.30482375,
          "velocity": 0.5984251968503937
        },
        {
          "duration": 0.09146337499998936,
          "durationTicks": 12,
          "midi": 73,
          "name": "C#5",
          "ticks": 16464,
          "time": 125.4877505,
          "velocity": 0.6141732283464567
        },
        {
          "duration": 0.09146337500000357,
          "durationTicks": 12,
          "midi": 75,
          "name": "D#5",
          "ticks": 16488,
          "time": 125.67067725,
          "velocity": 0.6220472440944882
        },
        {
          "duration": 0.09146337499998936,
          "durationTicks": 12,
          "midi": 80,
          "name": "G#5",
          "ticks": 16512,
          "time": 125.853604,
          "velocity": 0.6456692913385826
        },
        {
          "duration": 0.09146337499998936,
          "durationTicks": 12,
          "midi": 75,
          "name": "D#5",
          "ticks": 16848,
          "time": 128.4145785,
          "velocity": 0.6456692913385826
        },
        {
          "duration": 0.09146337499998936,
          "durationTicks": 12,
          "midi": 78,
          "name": "F#5",
          "ticks": 16872,
          "time": 128.59750525,
          "velocity": 0.6220472440944882
        },
        {
          "duration": 0.09146337500001778,
          "durationTicks": 12,
          "midi": 73,
          "name": "C#5",
          "ticks": 16896,
          "time": 128.780432,
          "velocity": 0.6062992125984252
        },
        {
          "duration": 0.09146337499998936,
          "durationTicks": 12,
          "midi": 80,
          "name": "G#5",
          "ticks": 17064,
          "time": 130.06091925,
          "velocity": 0.6771653543307087
        },
        {
          "duration": 0.09146337499998936,
          "durationTicks": 12,
          "midi": 78,
          "name": "F#5",
          "ticks": 17076,
          "time": 130.152382625,
          "velocity": 0.6850393700787402
        },
        {
          "duration": 0.09146337500001778,
          "durationTicks": 12,
          "midi": 75,
          "name": "D#5",
          "ticks": 17088,
          "time": 130.243846,
          "velocity": 0.6850393700787402
        },
        {
          "duration": 0.09146337499998936,
          "durationTicks": 12,
          "midi": 73,
          "name": "C#5",
          "ticks": 17100,
          "time": 130.335309375,
          "velocity": 0.6929133858267716
        },
        {
          "duration": 0.09146337499998936,
          "durationTicks": 12,
          "midi": 71,
          "name": "B4",
          "ticks": 17112,
          "time": 130.42677275,
          "velocity": 0.7007874015748031
        },
        {
          "duration": 0.09146337499998936,
          "durationTicks": 12,
          "midi": 73,
          "name": "C#5",
          "ticks": 17136,
          "time": 130.6096995,
          "velocity": 0.7165354330708661
        },
        {
          "duration": 0.09146337499998936,
          "durationTicks": 12,
          "midi": 75,
          "name": "D#5",
          "ticks": 17160,
          "time": 130.79262625,
          "velocity": 0.7244094488188977
        },
        {
          "duration": 0.09146337500001778,
          "durationTicks": 12,
          "midi": 71,
          "name": "B4",
          "ticks": 17184,
          "time": 130.975553,
          "velocity": 0.7401574803149606
        },
        {
          "duration": 0.09146337499998936,
          "durationTicks": 12,
          "midi": 73,
          "name": "C#5",
          "ticks": 17208,
          "time": 131.15847975,
          "velocity": 0.7559055118110236
        },
        {
          "duration": 0.09146337499998936,
          "durationTicks": 12,
          "midi": 75,
          "name": "D#5",
          "ticks": 17232,
          "time": 131.3414065,
          "velocity": 0.7637795275590551
        },
        {
          "duration": 0.09146337499998936,
          "durationTicks": 12,
          "midi": 79,
          "name": "G5",
          "ticks": 17256,
          "time": 131.52433325,
          "velocity": 0.7795275590551181
        },
        {
          "duration": 0.09146337500001778,
          "durationTicks": 12,
          "midi": 81,
          "name": "A5",
          "ticks": 17280,
          "time": 131.70726,
          "velocity": 0.7874015748031497
        },
        {
          "duration": 0.09146337499998936,
          "durationTicks": 12,
          "midi": 74,
          "name": "D5",
          "ticks": 18000,
          "time": 137.1950625,
          "velocity": 0.7086614173228346
        },
        {
          "duration": 0.09146337499998936,
          "durationTicks": 12,
          "midi": 76,
          "name": "E5",
          "ticks": 18024,
          "time": 137.37798925,
          "velocity": 0.7165354330708661
        },
        {
          "duration": 0.09146337500001778,
          "durationTicks": 12,
          "midi": 81,
          "name": "A5",
          "ticks": 18048,
          "time": 137.560916,
          "velocity": 0.7480314960629921
        },
        {
          "duration": 0.09146337500001778,
          "durationTicks": 12,
          "midi": 81,
          "name": "A5",
          "ticks": 18696,
          "time": 142.49993824999999,
          "velocity": 0.6535433070866141
        },
        {
          "duration": 0.09146337499998936,
          "durationTicks": 12,
          "midi": 79,
          "name": "G5",
          "ticks": 18708,
          "time": 142.591401625,
          "velocity": 0.6692913385826772
        },
        {
          "duration": 0.09146337500001778,
          "durationTicks": 12,
          "midi": 76,
          "name": "E5",
          "ticks": 18720,
          "time": 142.682865,
          "velocity": 0.6692913385826772
        },
        {
          "duration": 0.09146337499998936,
          "durationTicks": 12,
          "midi": 74,
          "name": "D5",
          "ticks": 18732,
          "time": 142.774328375,
          "velocity": 0.6850393700787402
        },
        {
          "duration": 0.09146337499998936,
          "durationTicks": 12,
          "midi": 72,
          "name": "C5",
          "ticks": 18744,
          "time": 142.86579175,
          "velocity": 0.6929133858267716
        },
        {
          "duration": 0.09146337499998936,
          "durationTicks": 12,
          "midi": 74,
          "name": "D5",
          "ticks": 18768,
          "time": 143.0487185,
          "velocity": 0.7086614173228346
        },
        {
          "duration": 0.09146337500001778,
          "durationTicks": 12,
          "midi": 76,
          "name": "E5",
          "ticks": 18792,
          "time": 143.23164524999999,
          "velocity": 0.7165354330708661
        },
        {
          "duration": 0.09146337500001778,
          "durationTicks": 12,
          "midi": 81,
          "name": "A5",
          "ticks": 18816,
          "time": 143.414572,
          "velocity": 0.7480314960629921
        },
        {
          "duration": 0.09146337499998936,
          "durationTicks": 12,
          "midi": 81,
          "name": "A5",
          "ticks": 19536,
          "time": 148.9023745,
          "velocity": 0.7480314960629921
        },
        {
          "duration": 0.09146337500001778,
          "durationTicks": 12,
          "midi": 79,
          "name": "G5",
          "ticks": 19560,
          "time": 149.08530125,
          "velocity": 0.7165354330708661
        },
        {
          "duration": 0.09146337500001778,
          "durationTicks": 12,
          "midi": 76,
          "name": "E5",
          "ticks": 19584,
          "time": 149.268228,
          "velocity": 0.7007874015748031
        },
        {
          "duration": 0.09146337499998936,
          "durationTicks": 12,
          "midi": 76,
          "name": "E5",
          "ticks": 19920,
          "time": 151.8292025,
          "velocity": 0.6692913385826772
        },
        {
          "duration": 0.09146337500001778,
          "durationTicks": 12,
          "midi": 79,
          "name": "G5",
          "ticks": 19944,
          "time": 152.01212925,
          "velocity": 0.7086614173228346
        },
        {
          "duration": 0.09146337500001778,
          "durationTicks": 12,
          "midi": 74,
          "name": "D5",
          "ticks": 19968,
          "time": 152.195056,
          "velocity": 0.7480314960629921
        },
        {
          "duration": 0.09146337499998936,
          "durationTicks": 12,
          "midi": 72,
          "name": "C5",
          "ticks": 20112,
          "time": 153.2926165,
          "velocity": 0.6692913385826772
        },
        {
          "duration": 0.09146337500001778,
          "durationTicks": 12,
          "midi": 71,
          "name": "B4",
          "ticks": 20136,
          "time": 153.47554325,
          "velocity": 0.7086614173228346
        },
        {
          "duration": 0.09146337500001778,
          "durationTicks": 12,
          "midi": 69,
          "name": "A4",
          "ticks": 20160,
          "time": 153.65847,
          "velocity": 0.7480314960629921
        },
        {
          "duration": 0.09146337499998936,
          "durationTicks": 12,
          "midi": 74,
          "name": "D5",
          "ticks": 20304,
          "time": 154.7560305,
          "velocity": 0.7086614173228346
        },
        {
          "duration": 0.09146337500001778,
          "durationTicks": 12,
          "midi": 76,
          "name": "E5",
          "ticks": 20328,
          "time": 154.93895725,
          "velocity": 0.7165354330708661
        },
        {
          "duration": 0.09146337500001778,
          "durationTicks": 12,
          "midi": 81,
          "name": "A5",
          "ticks": 20352,
          "time": 155.121884,
          "velocity": 0.7480314960629921
        },
        {
          "duration": 0.09146337500001778,
          "durationTicks": 12,
          "midi": 81,
          "name": "A5",
          "ticks": 21000,
          "time": 160.06090625,
          "velocity": 0.6535433070866141
        },
        {
          "duration": 0.09146337499998936,
          "durationTicks": 12,
          "midi": 79,
          "name": "G5",
          "ticks": 21012,
          "time": 160.152369625,
          "velocity": 0.6692913385826772
        },
        {
          "duration": 0.09146337500001778,
          "durationTicks": 12,
          "midi": 76,
          "name": "E5",
          "ticks": 21024,
          "time": 160.243833,
          "velocity": 0.6692913385826772
        },
        {
          "duration": 0.09146337499998936,
          "durationTicks": 12,
          "midi": 74,
          "name": "D5",
          "ticks": 21036,
          "time": 160.335296375,
          "velocity": 0.6850393700787402
        },
        {
          "duration": 0.09146337499998936,
          "durationTicks": 12,
          "midi": 72,
          "name": "C5",
          "ticks": 21048,
          "time": 160.42675975,
          "velocity": 0.6929133858267716
        },
        {
          "duration": 0.09146337499998936,
          "durationTicks": 12,
          "midi": 74,
          "name": "D5",
          "ticks": 21072,
          "time": 160.6096865,
          "velocity": 0.7086614173228346
        },
        {
          "duration": 0.09146337500001778,
          "durationTicks": 12,
          "midi": 76,
          "name": "E5",
          "ticks": 21096,
          "time": 160.79261325,
          "velocity": 0.7165354330708661
        },
        {
          "duration": 0.09146337500001778,
          "durationTicks": 12,
          "midi": 81,
          "name": "A5",
          "ticks": 21120,
          "time": 160.97554,
          "velocity": 0.7480314960629921
        },
        {
          "duration": 0.09146337499998936,
          "durationTicks": 12,
          "midi": 76,
          "name": "E5",
          "ticks": 21456,
          "time": 163.5365145,
          "velocity": 0.7480314960629921
        },
        {
          "duration": 0.09146337500001778,
          "durationTicks": 12,
          "midi": 79,
          "name": "G5",
          "ticks": 21480,
          "time": 163.71944125,
          "velocity": 0.7165354330708661
        },
        {
          "duration": 0.09146337499998936,
          "durationTicks": 12,
          "midi": 74,
          "name": "D5",
          "ticks": 21504,
          "time": 163.902368,
          "velocity": 0.7007874015748031
        },
        {
          "duration": 0.09146337499998936,
          "durationTicks": 12,
          "midi": 72,
          "name": "C5",
          "ticks": 21648,
          "time": 164.9999285,
          "velocity": 0.6692913385826772
        },
        {
          "duration": 0.09146337500001778,
          "durationTicks": 12,
          "midi": 71,
          "name": "B4",
          "ticks": 21672,
          "time": 165.18285525,
          "velocity": 0.7086614173228346
        },
        {
          "duration": 0.09146337499998936,
          "durationTicks": 12,
          "midi": 69,
          "name": "A4",
          "ticks": 21696,
          "time": 165.365782,
          "velocity": 0.7480314960629921
        },
        {
          "duration": 0.09146337499998936,
          "durationTicks": 12,
          "midi": 74,
          "name": "D5",
          "ticks": 21840,
          "time": 166.4633425,
          "velocity": 0.6614173228346457
        },
        {
          "duration": 0.09146337500001778,
          "durationTicks": 12,
          "midi": 76,
          "name": "E5",
          "ticks": 21864,
          "time": 166.64626925,
          "velocity": 0.7165354330708661
        },
        {
          "duration": 0.04573168749999468,
          "durationTicks": 6,
          "midi": 72,
          "name": "C5",
          "ticks": 21876,
          "time": 166.737732625,
          "velocity": 0.6614173228346457
        },
        {
          "duration": 0.04573168749999468,
          "durationTicks": 6,
          "midi": 76,
          "name": "E5",
          "ticks": 21882,
          "time": 166.7834643125,
          "velocity": 0.6614173228346457
        },
        {
          "duration": 0.18292675000000713,
          "durationTicks": 24,
          "midi": 81,
          "name": "A5",
          "ticks": 21888,
          "time": 166.829196,
          "velocity": 0.7480314960629921
        }
      ]
    },
    {
      "channel": 0,
      "controlChanges": {
        "6": [
          {
            "number": 6,
            "ticks": 0,
            "time": 0,
            "value": 0.09448818897637795
          }
        ],
        "7": [
          {
            "number": 7,
            "ticks": 0,
            "time": 0,
            "value": 0.7874015748031497
          },
          {
            "number": 7,
            "ticks": 0,
            "time": 0,
            "value": 0.7874015748031497
          }
        ],
        "10": [
          {
            "number": 10,
            "ticks": 0,
            "time": 0,
            "value": 0.5039370078740157
          },
          {
            "number": 10,
            "ticks": 0,
            "time": 0,
            "value": 0.5039370078740157
          }
        ],
        "100": [
          {
            "number": 100,
            "ticks": 0,
            "time": 0,
            "value": 0
          }
        ],
        "101": [
          {
            "number": 101,
            "ticks": 0,
            "time": 0,
            "value": 0
          }
        ]
      },
      "pitchBends": [
        {
          "ticks": 0,
          "time": 0,
          "value": 0
        },
        {
          "ticks": 0,
          "time": 0,
          "value": 0
        }
      ],
      "instrument": {
        "family": "piano",
        "name": "acoustic grand piano",
        "number": 0
      },
      "name": "Elec.Guitar",
      "notes": []
    },
    {
      "channel": 5,
      "controlChanges": {
        "6": [
          {
            "number": 6,
            "ticks": 0,
            "time": 0,
            "value": 0.09448818897637795
          },
          {
            "number": 6,
            "ticks": 22752,
            "time": 173.414559,
            "value": 0.09448818897637795
          },
          {
            "number": 6,
            "ticks": 22753,
            "time": 173.42218094791667,
            "value": 0.09448818897637795
          },
          {
            "number": 6,
            "ticks": 22753,
            "time": 173.42218094791667,
            "value": 0.09448818897637795
          }
        ],
        "7": [
          {
            "number": 7,
            "ticks": 0,
            "time": 0,
            "value": 0.7874015748031497
          },
          {
            "number": 7,
            "ticks": 0,
            "time": 0,
            "value": 0.7874015748031497
          },
          {
            "number": 7,
            "ticks": 0,
            "time": 0,
            "value": 0.7874015748031497
          },
          {
            "number": 7,
            "ticks": 22752,
            "time": 173.414559,
            "value": 0.7874015748031497
          },
          {
            "number": 7,
            "ticks": 22753,
            "time": 173.42218094791667,
            "value": 0.7874015748031497
          },
          {
            "number": 7,
            "ticks": 22753,
            "time": 173.42218094791667,
            "value": 0.7874015748031497
          }
        ],
        "10": [
          {
            "number": 10,
            "ticks": 0,
            "time": 0,
            "value": 0.5039370078740157
          },
          {
            "number": 10,
            "ticks": 0,
            "time": 0,
            "value": 0.5039370078740157
          },
          {
            "number": 10,
            "ticks": 0,
            "time": 0,
            "value": 0.5039370078740157
          },
          {
            "number": 10,
            "ticks": 22752,
            "time": 173.414559,
            "value": 0.5039370078740157
          },
          {
            "number": 10,
            "ticks": 22753,
            "time": 173.42218094791667,
            "value": 0.5039370078740157
          },
          {
            "number": 10,
            "ticks": 22753,
            "time": 173.42218094791667,
            "value": 0.5039370078740157
          }
        ],
        "91": [
          {
            "number": 91,
            "ticks": 0,
            "time": 0,
            "value": 0.5039370078740157
          },
          {
            "number": 91,
            "ticks": 0,
            "time": 0,
            "value": 0.5039370078740157
          },
          {
            "number": 91,
            "ticks": 0,
            "time": 0,
            "value": 0.5039370078740157
          },
          {
            "number": 91,
            "ticks": 0,
            "time": 0,
            "value": 0.5039370078740157
          },
          {
            "number": 91,
            "ticks": 22752,
            "time": 173.414559,
            "value": 0.5039370078740157
          },
          {
            "number": 91,
            "ticks": 22753,
            "time": 173.42218094791667,
            "value": 0.5039370078740157
          },
          {
            "number": 91,
            "ticks": 22753,
            "time": 173.42218094791667,
            "value": 0.5039370078740157
          }
        ],
        "93": [
          {
            "number": 93,
            "ticks": 0,
            "time": 0,
            "value": 0.5039370078740157
          },
          {
            "number": 93,
            "ticks": 0,
            "time": 0,
            "value": 0.5039370078740157
          },
          {
            "number": 93,
            "ticks": 0,
            "time": 0,
            "value": 0.5039370078740157
          },
          {
            "number": 93,
            "ticks": 0,
            "time": 0,
            "value": 0.5039370078740157
          },
          {
            "number": 93,
            "ticks": 22752,
            "time": 173.414559,
            "value": 0.5039370078740157
          },
          {
            "number": 93,
            "ticks": 22753,
            "time": 173.42218094791667,
            "value": 0.5039370078740157
          },
          {
            "number": 93,
            "ticks": 22753,
            "time": 173.42218094791667,
            "value": 0.5039370078740157
          }
        ],
        "100": [
          {
            "number": 100,
            "ticks": 0,
            "time": 0,
            "value": 0
          },
          {
            "number": 100,
            "ticks": 22752,
            "time": 173.414559,
            "value": 0
          },
          {
            "number": 100,
            "ticks": 22753,
            "time": 173.42218094791667,
            "value": 0
          },
          {
            "number": 100,
            "ticks": 22753,
            "time": 173.42218094791667,
            "value": 0
          }
        ],
        "101": [
          {
            "number": 101,
            "ticks": 0,
            "time": 0,
            "value": 0
          },
          {
            "number": 101,
            "ticks": 22752,
            "time": 173.414559,
            "value": 0
          },
          {
            "number": 101,
            "ticks": 22753,
            "time": 173.42218094791667,
            "value": 0
          },
          {
            "number": 101,
            "ticks": 22753,
            "time": 173.42218094791667,
            "value": 0
          }
        ]
      },
      "pitchBends": [
        {
          "ticks": 0,
          "time": 0,
          "value": 0
        },
        {
          "ticks": 0,
          "time": 0,
          "value": 0
        },
        {
          "ticks": 0,
          "time": 0,
          "value": 0
        },
        {
          "ticks": 22752,
          "time": 173.414559,
          "value": 0
        },
        {
          "ticks": 22753,
          "time": 173.42218094791667,
          "value": 0
        },
        {
          "ticks": 22753,
          "time": 173.42218094791667,
          "value": 0
        }
      ],
      "instrument": {
        "family": "guitar",
        "name": "electric guitar (muted)",
        "number": 28
      },
      "name": "",
      "notes": [
        {
          "duration": 0.04573168750000178,
          "durationTicks": 6,
          "midi": 68,
          "name": "G#4",
          "ticks": 3438,
          "time": 26.2042569375,
          "velocity": 0.5118110236220472
        },
        {
          "duration": 0.04573168749999823,
          "durationTicks": 6,
          "midi": 71,
          "name": "B4",
          "ticks": 3444,
          "time": 26.249988625,
          "velocity": 0.5118110236220472
        },
        {
          "duration": 0.04573168750000178,
          "durationTicks": 6,
          "midi": 73,
          "name": "C#5",
          "ticks": 3450,
          "time": 26.2957203125,
          "velocity": 0.5118110236220472
        },
        {
          "duration": 0.09146337500000001,
          "durationTicks": 12,
          "midi": 75,
          "name": "D#5",
          "ticks": 3456,
          "time": 26.341452,
          "velocity": 0.5118110236220472
        },
        {
          "duration": 0.09146337500000001,
          "durationTicks": 12,
          "midi": 75,
          "name": "D#5",
          "ticks": 3528,
          "time": 26.89023225,
          "velocity": 0.48031496062992124
        },
        {
          "duration": 0.09146337500000001,
          "durationTicks": 12,
          "midi": 75,
          "name": "D#5",
          "ticks": 3600,
          "time": 27.4390125,
          "velocity": 0.4409448818897638
        },
        {
          "duration": 0.09146337500000001,
          "durationTicks": 12,
          "midi": 73,
          "name": "C#5",
          "ticks": 3840,
          "time": 29.26828,
          "velocity": 0.5118110236220472
        },
        {
          "duration": 0.09146337500000001,
          "durationTicks": 12,
          "midi": 73,
          "name": "C#5",
          "ticks": 3912,
          "time": 29.81706025,
          "velocity": 0.48031496062992124
        },
        {
          "duration": 0.09146337500000001,
          "durationTicks": 12,
          "midi": 73,
          "name": "C#5",
          "ticks": 3984,
          "time": 30.3658405,
          "velocity": 0.4409448818897638
        },
        {
          "duration": 0.09146337500000357,
          "durationTicks": 12,
          "midi": 75,
          "name": "D#5",
          "ticks": 4224,
          "time": 32.195108,
          "velocity": 0.5118110236220472
        },
        {
          "duration": 0.09146337500000357,
          "durationTicks": 12,
          "midi": 75,
          "name": "D#5",
          "ticks": 4296,
          "time": 32.74388825,
          "velocity": 0.48031496062992124
        },
        {
          "duration": 0.09146337500000357,
          "durationTicks": 12,
          "midi": 75,
          "name": "D#5",
          "ticks": 4368,
          "time": 33.2926685,
          "velocity": 0.4409448818897638
        },
        {
          "duration": 0.09146337500000357,
          "durationTicks": 12,
          "midi": 73,
          "name": "C#5",
          "ticks": 4608,
          "time": 35.121936,
          "velocity": 0.5118110236220472
        },
        {
          "duration": 0.09146337500000357,
          "durationTicks": 12,
          "midi": 73,
          "name": "C#5",
          "ticks": 4680,
          "time": 35.67071625,
          "velocity": 0.48031496062992124
        },
        {
          "duration": 0.09146337500000357,
          "durationTicks": 12,
          "midi": 75,
          "name": "D#5",
          "ticks": 4752,
          "time": 36.2194965,
          "velocity": 0.4409448818897638
        },
        {
          "duration": 0.04573168750000178,
          "durationTicks": 6,
          "midi": 68,
          "name": "G#4",
          "ticks": 4974,
          "time": 37.9115689375,
          "velocity": 0.5826771653543307
        },
        {
          "duration": 0.04573168749999468,
          "durationTicks": 6,
          "midi": 71,
          "name": "B4",
          "ticks": 4980,
          "time": 37.957300625,
          "velocity": 0.5826771653543307
        },
        {
          "duration": 0.04573168750000178,
          "durationTicks": 6,
          "midi": 73,
          "name": "C#5",
          "ticks": 4986,
          "time": 38.0030323125,
          "velocity": 0.5826771653543307
        },
        {
          "duration": 0.09146337500000357,
          "durationTicks": 12,
          "midi": 75,
          "name": "D#5",
          "ticks": 4992,
          "time": 38.048764,
          "velocity": 0.5826771653543307
        },
        {
          "duration": 0.09146337500000357,
          "durationTicks": 12,
          "midi": 75,
          "name": "D#5",
          "ticks": 5064,
          "time": 38.59754425,
          "velocity": 0.5433070866141733
        },
        {
          "duration": 0.09146337500000357,
          "durationTicks": 12,
          "midi": 75,
          "name": "D#5",
          "ticks": 5136,
          "time": 39.1463245,
          "velocity": 0.49606299212598426
        },
        {
          "duration": 0.09146337500000357,
          "durationTicks": 12,
          "midi": 73,
          "name": "C#5",
          "ticks": 5376,
          "time": 40.975592,
          "velocity": 0.5826771653543307
        },
        {
          "duration": 0.09146337500000357,
          "durationTicks": 12,
          "midi": 73,
          "name": "C#5",
          "ticks": 5448,
          "time": 41.52437225,
          "velocity": 0.5433070866141733
        },
        {
          "duration": 0.09146337500000357,
          "durationTicks": 12,
          "midi": 73,
          "name": "C#5",
          "ticks": 5520,
          "time": 42.0731525,
          "velocity": 0.49606299212598426
        },
        {
          "duration": 0.09146337500000357,
          "durationTicks": 12,
          "midi": 75,
          "name": "D#5",
          "ticks": 5760,
          "time": 43.90242,
          "velocity": 0.5826771653543307
        },
        {
          "duration": 0.09146337500000357,
          "durationTicks": 12,
          "midi": 75,
          "name": "D#5",
          "ticks": 5832,
          "time": 44.45120025,
          "velocity": 0.5433070866141733
        },
        {
          "duration": 0.09146337500000357,
          "durationTicks": 12,
          "midi": 75,
          "name": "D#5",
          "ticks": 5904,
          "time": 44.9999805,
          "velocity": 0.49606299212598426
        },
        {
          "duration": 0.09146337499999646,
          "durationTicks": 12,
          "midi": 73,
          "name": "C#5",
          "ticks": 6144,
          "time": 46.829248,
          "velocity": 0.5826771653543307
        },
        {
          "duration": 0.09146337499999646,
          "durationTicks": 12,
          "midi": 73,
          "name": "C#5",
          "ticks": 6216,
          "time": 47.37802825,
          "velocity": 0.5433070866141733
        },
        {
          "duration": 0.09146337499999646,
          "durationTicks": 12,
          "midi": 73,
          "name": "C#5",
          "ticks": 6288,
          "time": 47.9268085,
          "velocity": 0.49606299212598426
        },
        {
          "duration": 0.04573168749999468,
          "durationTicks": 6,
          "midi": 68,
          "name": "G#4",
          "ticks": 6510,
          "time": 49.6188809375,
          "velocity": 0.5826771653543307
        },
        {
          "duration": 0.04573168750000178,
          "durationTicks": 6,
          "midi": 71,
          "name": "B4",
          "ticks": 6516,
          "time": 49.664612625,
          "velocity": 0.5826771653543307
        },
        {
          "duration": 0.04573168750000178,
          "durationTicks": 6,
          "midi": 73,
          "name": "C#5",
          "ticks": 6522,
          "time": 49.7103443125,
          "velocity": 0.5826771653543307
        },
        {
          "duration": 0.09146337499999646,
          "durationTicks": 12,
          "midi": 75,
          "name": "D#5",
          "ticks": 6528,
          "time": 49.756076,
          "velocity": 0.5826771653543307
        },
        {
          "duration": 0.09146337499999646,
          "durationTicks": 12,
          "midi": 75,
          "name": "D#5",
          "ticks": 6600,
          "time": 50.30485625,
          "velocity": 0.5433070866141733
        },
        {
          "duration": 0.09146337499999646,
          "durationTicks": 12,
          "midi": 75,
          "name": "D#5",
          "ticks": 6672,
          "time": 50.8536365,
          "velocity": 0.49606299212598426
        },
        {
          "duration": 0.09146337499999646,
          "durationTicks": 12,
          "midi": 73,
          "name": "C#5",
          "ticks": 6912,
          "time": 52.682904,
          "velocity": 0.5826771653543307
        },
        {
          "duration": 0.09146337499999646,
          "durationTicks": 12,
          "midi": 73,
          "name": "C#5",
          "ticks": 6984,
          "time": 53.23168425,
          "velocity": 0.5433070866141733
        },
        {
          "duration": 0.09146337499999646,
          "durationTicks": 12,
          "midi": 73,
          "name": "C#5",
          "ticks": 7056,
          "time": 53.7804645,
          "velocity": 0.49606299212598426
        },
        {
          "duration": 0.09146337499999646,
          "durationTicks": 12,
          "midi": 75,
          "name": "D#5",
          "ticks": 7296,
          "time": 55.609732,
          "velocity": 0.5826771653543307
        },
        {
          "duration": 0.09146337499999646,
          "durationTicks": 12,
          "midi": 75,
          "name": "D#5",
          "ticks": 7368,
          "time": 56.15851225,
          "velocity": 0.5433070866141733
        },
        {
          "duration": 0.09146337499999646,
          "durationTicks": 12,
          "midi": 75,
          "name": "D#5",
          "ticks": 7440,
          "time": 56.7072925,
          "velocity": 0.49606299212598426
        },
        {
          "duration": 0.09146337499999646,
          "durationTicks": 12,
          "midi": 73,
          "name": "C#5",
          "ticks": 7680,
          "time": 58.53656,
          "velocity": 0.5826771653543307
        },
        {
          "duration": 0.09146337499999646,
          "durationTicks": 12,
          "midi": 73,
          "name": "C#5",
          "ticks": 7752,
          "time": 59.08534025,
          "velocity": 0.5433070866141733
        },
        {
          "duration": 0.09146337499999646,
          "durationTicks": 12,
          "midi": 75,
          "name": "D#5",
          "ticks": 7824,
          "time": 59.6341205,
          "velocity": 0.49606299212598426
        },
        {
          "duration": 0.04573168750000178,
          "durationTicks": 6,
          "midi": 68,
          "name": "G#4",
          "ticks": 8046,
          "time": 61.3261929375,
          "velocity": 0.5826771653543307
        },
        {
          "duration": 0.04573168750000178,
          "durationTicks": 6,
          "midi": 71,
          "name": "B4",
          "ticks": 8052,
          "time": 61.371924625,
          "velocity": 0.5826771653543307
        },
        {
          "duration": 0.04573168750000178,
          "durationTicks": 6,
          "midi": 73,
          "name": "C#5",
          "ticks": 8058,
          "time": 61.4176563125,
          "velocity": 0.5826771653543307
        },
        {
          "duration": 0.09146337499999646,
          "durationTicks": 12,
          "midi": 75,
          "name": "D#5",
          "ticks": 8064,
          "time": 61.463388,
          "velocity": 0.5826771653543307
        },
        {
          "duration": 0.09146337499999646,
          "durationTicks": 12,
          "midi": 75,
          "name": "D#5",
          "ticks": 8136,
          "time": 62.01216825,
          "velocity": 0.5433070866141733
        },
        {
          "duration": 0.09146337499999646,
          "durationTicks": 12,
          "midi": 75,
          "name": "D#5",
          "ticks": 8208,
          "time": 62.5609485,
          "velocity": 0.49606299212598426
        },
        {
          "duration": 0.09146337500000357,
          "durationTicks": 12,
          "midi": 73,
          "name": "C#5",
          "ticks": 8448,
          "time": 64.390216,
          "velocity": 0.5826771653543307
        },
        {
          "duration": 0.09146337500000357,
          "durationTicks": 12,
          "midi": 73,
          "name": "C#5",
          "ticks": 8520,
          "time": 64.93899625,
          "velocity": 0.5433070866141733
        },
        {
          "duration": 0.09146337500000357,
          "durationTicks": 12,
          "midi": 73,
          "name": "C#5",
          "ticks": 8592,
          "time": 65.4877765,
          "velocity": 0.49606299212598426
        },
        {
          "duration": 0.09146337500000357,
          "durationTicks": 12,
          "midi": 75,
          "name": "D#5",
          "ticks": 8832,
          "time": 67.317044,
          "velocity": 0.5826771653543307
        },
        {
          "duration": 0.09146337500000357,
          "durationTicks": 12,
          "midi": 75,
          "name": "D#5",
          "ticks": 8904,
          "time": 67.86582425,
          "velocity": 0.5433070866141733
        },
        {
          "duration": 0.09146337500000357,
          "durationTicks": 12,
          "midi": 75,
          "name": "D#5",
          "ticks": 8976,
          "time": 68.4146045,
          "velocity": 0.49606299212598426
        },
        {
          "duration": 0.09146337500000357,
          "durationTicks": 12,
          "midi": 73,
          "name": "C#5",
          "ticks": 9216,
          "time": 70.243872,
          "velocity": 0.5826771653543307
        },
        {
          "duration": 0.09146337499998936,
          "durationTicks": 12,
          "midi": 73,
          "name": "C#5",
          "ticks": 9288,
          "time": 70.79265225,
          "velocity": 0.5433070866141733
        },
        {
          "duration": 0.09146337500000357,
          "durationTicks": 12,
          "midi": 75,
          "name": "D#5",
          "ticks": 9360,
          "time": 71.3414325,
          "velocity": 0.49606299212598426
        },
        {
          "duration": 0.04573168749999468,
          "durationTicks": 6,
          "midi": 68,
          "name": "G#4",
          "ticks": 9582,
          "time": 73.0335049375,
          "velocity": 0.5118110236220472
        },
        {
          "duration": 0.04573168750000889,
          "durationTicks": 6,
          "midi": 71,
          "name": "B4",
          "ticks": 9588,
          "time": 73.079236625,
          "velocity": 0.5118110236220472
        },
        {
          "duration": 0.04573168749999468,
          "durationTicks": 6,
          "midi": 73,
          "name": "C#5",
          "ticks": 9594,
          "time": 73.1249683125,
          "velocity": 0.5118110236220472
        },
        {
          "duration": 0.09146337500000357,
          "durationTicks": 12,
          "midi": 75,
          "name": "D#5",
          "ticks": 9600,
          "time": 73.1707,
          "velocity": 0.5118110236220472
        },
        {
          "duration": 0.09146337499998936,
          "durationTicks": 12,
          "midi": 75,
          "name": "D#5",
          "ticks": 9672,
          "time": 73.71948025,
          "velocity": 0.48031496062992124
        },
        {
          "duration": 0.09146337500000357,
          "durationTicks": 12,
          "midi": 75,
          "name": "D#5",
          "ticks": 9744,
          "time": 74.2682605,
          "velocity": 0.4409448818897638
        },
        {
          "duration": 0.09146337500000357,
          "durationTicks": 12,
          "midi": 73,
          "name": "C#5",
          "ticks": 9984,
          "time": 76.097528,
          "velocity": 0.5118110236220472
        },
        {
          "duration": 0.09146337499998936,
          "durationTicks": 12,
          "midi": 73,
          "name": "C#5",
          "ticks": 10056,
          "time": 76.64630825,
          "velocity": 0.48031496062992124
        },
        {
          "duration": 0.09146337500000357,
          "durationTicks": 12,
          "midi": 73,
          "name": "C#5",
          "ticks": 10128,
          "time": 77.1950885,
          "velocity": 0.4409448818897638
        },
        {
          "duration": 0.09146337500000357,
          "durationTicks": 12,
          "midi": 75,
          "name": "D#5",
          "ticks": 10368,
          "time": 79.024356,
          "velocity": 0.5118110236220472
        },
        {
          "duration": 0.09146337499998936,
          "durationTicks": 12,
          "midi": 75,
          "name": "D#5",
          "ticks": 10440,
          "time": 79.57313625,
          "velocity": 0.48031496062992124
        },
        {
          "duration": 0.09146337500000357,
          "durationTicks": 12,
          "midi": 75,
          "name": "D#5",
          "ticks": 10512,
          "time": 80.1219165,
          "velocity": 0.4409448818897638
        },
        {
          "duration": 0.09146337500000357,
          "durationTicks": 12,
          "midi": 73,
          "name": "C#5",
          "ticks": 10752,
          "time": 81.951184,
          "velocity": 0.5118110236220472
        },
        {
          "duration": 0.09146337499998936,
          "durationTicks": 12,
          "midi": 73,
          "name": "C#5",
          "ticks": 10824,
          "time": 82.49996425,
          "velocity": 0.48031496062992124
        },
        {
          "duration": 0.09146337500000357,
          "durationTicks": 12,
          "midi": 73,
          "name": "C#5",
          "ticks": 10896,
          "time": 83.0487445,
          "velocity": 0.4409448818897638
        },
        {
          "duration": 0.04573168749999468,
          "durationTicks": 6,
          "midi": 68,
          "name": "G#4",
          "ticks": 11118,
          "time": 84.7408169375,
          "velocity": 0.5118110236220472
        },
        {
          "duration": 0.04573168750000889,
          "durationTicks": 6,
          "midi": 71,
          "name": "B4",
          "ticks": 11124,
          "time": 84.786548625,
          "velocity": 0.5118110236220472
        },
        {
          "duration": 0.04573168749999468,
          "durationTicks": 6,
          "midi": 73,
          "name": "C#5",
          "ticks": 11130,
          "time": 84.8322803125,
          "velocity": 0.5118110236220472
        },
        {
          "duration": 0.09146337500000357,
          "durationTicks": 12,
          "midi": 75,
          "name": "D#5",
          "ticks": 11136,
          "time": 84.878012,
          "velocity": 0.5118110236220472
        },
        {
          "duration": 0.09146337499998936,
          "durationTicks": 12,
          "midi": 75,
          "name": "D#5",
          "ticks": 11208,
          "time": 85.42679225,
          "velocity": 0.48031496062992124
        },
        {
          "duration": 0.09146337500000357,
          "durationTicks": 12,
          "midi": 75,
          "name": "D#5",
          "ticks": 11280,
          "time": 85.9755725,
          "velocity": 0.4409448818897638
        },
        {
          "duration": 0.09146337500000357,
          "durationTicks": 12,
          "midi": 73,
          "name": "C#5",
          "ticks": 11520,
          "time": 87.80484,
          "velocity": 0.5118110236220472
        },
        {
          "duration": 0.09146337499998936,
          "durationTicks": 12,
          "midi": 73,
          "name": "C#5",
          "ticks": 11592,
          "time": 88.35362025,
          "velocity": 0.48031496062992124
        },
        {
          "duration": 0.09146337500000357,
          "durationTicks": 12,
          "midi": 73,
          "name": "C#5",
          "ticks": 11664,
          "time": 88.9024005,
          "velocity": 0.4409448818897638
        },
        {
          "duration": 0.09146337500000357,
          "durationTicks": 12,
          "midi": 75,
          "name": "D#5",
          "ticks": 11904,
          "time": 90.731668,
          "velocity": 0.5118110236220472
        },
        {
          "duration": 0.09146337499998936,
          "durationTicks": 12,
          "midi": 75,
          "name": "D#5",
          "ticks": 11976,
          "time": 91.28044825,
          "velocity": 0.48031496062992124
        },
        {
          "duration": 0.09146337500000357,
          "durationTicks": 12,
          "midi": 75,
          "name": "D#5",
          "ticks": 12048,
          "time": 91.8292285,
          "velocity": 0.4409448818897638
        },
        {
          "duration": 0.09146337500000357,
          "durationTicks": 12,
          "midi": 73,
          "name": "C#5",
          "ticks": 12288,
          "time": 93.658496,
          "velocity": 0.5118110236220472
        },
        {
          "duration": 0.09146337500000357,
          "durationTicks": 12,
          "midi": 73,
          "name": "C#5",
          "ticks": 12360,
          "time": 94.20727624999999,
          "velocity": 0.48031496062992124
        },
        {
          "duration": 0.09146337500000357,
          "durationTicks": 12,
          "midi": 75,
          "name": "D#5",
          "ticks": 12432,
          "time": 94.7560565,
          "velocity": 0.4409448818897638
        },
        {
          "duration": 0.04573168749999468,
          "durationTicks": 6,
          "midi": 68,
          "name": "G#4",
          "ticks": 12654,
          "time": 96.4481289375,
          "velocity": 0.5669291338582677
        },
        {
          "duration": 0.04573168750000889,
          "durationTicks": 6,
          "midi": 71,
          "name": "B4",
          "ticks": 12660,
          "time": 96.493860625,
          "velocity": 0.5669291338582677
        },
        {
          "duration": 0.04573168749999468,
          "durationTicks": 6,
          "midi": 73,
          "name": "C#5",
          "ticks": 12666,
          "time": 96.5395923125,
          "velocity": 0.5669291338582677
        },
        {
          "duration": 0.09146337500000357,
          "durationTicks": 12,
          "midi": 75,
          "name": "D#5",
          "ticks": 12672,
          "time": 96.585324,
          "velocity": 0.5669291338582677
        },
        {
          "duration": 0.09146337500000357,
          "durationTicks": 12,
          "midi": 75,
          "name": "D#5",
          "ticks": 12744,
          "time": 97.13410425,
          "velocity": 0.5275590551181102
        },
        {
          "duration": 0.09146337500000357,
          "durationTicks": 12,
          "midi": 75,
          "name": "D#5",
          "ticks": 12816,
          "time": 97.6828845,
          "velocity": 0.4881889763779528
        },
        {
          "duration": 0.09146337500000357,
          "durationTicks": 12,
          "midi": 73,
          "name": "C#5",
          "ticks": 13056,
          "time": 99.512152,
          "velocity": 0.5669291338582677
        },
        {
          "duration": 0.09146337500000357,
          "durationTicks": 12,
          "midi": 73,
          "name": "C#5",
          "ticks": 13128,
          "time": 100.06093225,
          "velocity": 0.5275590551181102
        },
        {
          "duration": 0.09146337500000357,
          "durationTicks": 12,
          "midi": 73,
          "name": "C#5",
          "ticks": 13200,
          "time": 100.6097125,
          "velocity": 0.4881889763779528
        },
        {
          "duration": 0.09146337500000357,
          "durationTicks": 12,
          "midi": 75,
          "name": "D#5",
          "ticks": 13440,
          "time": 102.43898,
          "velocity": 0.5669291338582677
        },
        {
          "duration": 0.09146337500000357,
          "durationTicks": 12,
          "midi": 75,
          "name": "D#5",
          "ticks": 13512,
          "time": 102.98776025,
          "velocity": 0.5275590551181102
        },
        {
          "duration": 0.09146337500000357,
          "durationTicks": 12,
          "midi": 75,
          "name": "D#5",
          "ticks": 13584,
          "time": 103.5365405,
          "velocity": 0.4881889763779528
        },
        {
          "duration": 0.09146337500000357,
          "durationTicks": 12,
          "midi": 73,
          "name": "C#5",
          "ticks": 13824,
          "time": 105.365808,
          "velocity": 0.5669291338582677
        },
        {
          "duration": 0.09146337500000357,
          "durationTicks": 12,
          "midi": 73,
          "name": "C#5",
          "ticks": 13896,
          "time": 105.91458825,
          "velocity": 0.5275590551181102
        },
        {
          "duration": 0.09146337500000357,
          "durationTicks": 12,
          "midi": 73,
          "name": "C#5",
          "ticks": 13968,
          "time": 106.4633685,
          "velocity": 0.4881889763779528
        },
        {
          "duration": 0.04573168749999468,
          "durationTicks": 6,
          "midi": 68,
          "name": "G#4",
          "ticks": 14190,
          "time": 108.1554409375,
          "velocity": 0.5669291338582677
        },
        {
          "duration": 0.04573168749999468,
          "durationTicks": 6,
          "midi": 71,
          "name": "B4",
          "ticks": 14196,
          "time": 108.201172625,
          "velocity": 0.5669291338582677
        },
        {
          "duration": 0.04573168750000889,
          "durationTicks": 6,
          "midi": 73,
          "name": "C#5",
          "ticks": 14202,
          "time": 108.24690431249999,
          "velocity": 0.5669291338582677
        },
        {
          "duration": 0.09146337500000357,
          "durationTicks": 12,
          "midi": 75,
          "name": "D#5",
          "ticks": 14208,
          "time": 108.292636,
          "velocity": 0.5669291338582677
        },
        {
          "duration": 0.09146337500000357,
          "durationTicks": 12,
          "midi": 75,
          "name": "D#5",
          "ticks": 14280,
          "time": 108.84141625,
          "velocity": 0.5275590551181102
        },
        {
          "duration": 0.09146337500000357,
          "durationTicks": 12,
          "midi": 75,
          "name": "D#5",
          "ticks": 14352,
          "time": 109.3901965,
          "velocity": 0.4881889763779528
        },
        {
          "duration": 0.09146337500000357,
          "durationTicks": 12,
          "midi": 73,
          "name": "C#5",
          "ticks": 14592,
          "time": 111.219464,
          "velocity": 0.5669291338582677
        },
        {
          "duration": 0.09146337500000357,
          "durationTicks": 12,
          "midi": 73,
          "name": "C#5",
          "ticks": 14664,
          "time": 111.76824425,
          "velocity": 0.5275590551181102
        },
        {
          "duration": 0.09146337500000357,
          "durationTicks": 12,
          "midi": 73,
          "name": "C#5",
          "ticks": 14736,
          "time": 112.3170245,
          "velocity": 0.4881889763779528
        },
        {
          "duration": 0.09146337500000357,
          "durationTicks": 12,
          "midi": 75,
          "name": "D#5",
          "ticks": 14976,
          "time": 114.146292,
          "velocity": 0.5669291338582677
        },
        {
          "duration": 0.09146337500000357,
          "durationTicks": 12,
          "midi": 75,
          "name": "D#5",
          "ticks": 15048,
          "time": 114.69507225,
          "velocity": 0.5275590551181102
        },
        {
          "duration": 0.09146337500000357,
          "durationTicks": 12,
          "midi": 75,
          "name": "D#5",
          "ticks": 15120,
          "time": 115.2438525,
          "velocity": 0.4881889763779528
        },
        {
          "duration": 0.09146337499998936,
          "durationTicks": 12,
          "midi": 73,
          "name": "C#5",
          "ticks": 15360,
          "time": 117.07312,
          "velocity": 0.5669291338582677
        },
        {
          "duration": 0.09146337500000357,
          "durationTicks": 12,
          "midi": 73,
          "name": "C#5",
          "ticks": 15432,
          "time": 117.62190025,
          "velocity": 0.5275590551181102
        },
        {
          "duration": 0.09146337499998936,
          "durationTicks": 12,
          "midi": 75,
          "name": "D#5",
          "ticks": 15504,
          "time": 118.1706805,
          "velocity": 0.4881889763779528
        },
        {
          "duration": 0.04573168749999468,
          "durationTicks": 6,
          "midi": 69,
          "name": "A4",
          "ticks": 17262,
          "time": 131.5700649375,
          "velocity": 0.6299212598425197
        },
        {
          "duration": 0.04573168749999468,
          "durationTicks": 6,
          "midi": 72,
          "name": "C5",
          "ticks": 17268,
          "time": 131.615796625,
          "velocity": 0.6299212598425197
        },
        {
          "duration": 0.04573168749999468,
          "durationTicks": 6,
          "midi": 74,
          "name": "D5",
          "ticks": 17274,
          "time": 131.6615283125,
          "velocity": 0.6299212598425197
        },
        {
          "duration": 0.09146337500001778,
          "durationTicks": 12,
          "midi": 76,
          "name": "E5",
          "ticks": 17280,
          "time": 131.70726,
          "velocity": 0.6299212598425197
        },
        {
          "duration": 0.09146337499998936,
          "durationTicks": 12,
          "midi": 76,
          "name": "E5",
          "ticks": 17352,
          "time": 132.25604025,
          "velocity": 0.5905511811023622
        },
        {
          "duration": 0.09146337499998936,
          "durationTicks": 12,
          "midi": 76,
          "name": "E5",
          "ticks": 17424,
          "time": 132.8048205,
          "velocity": 0.5354330708661418
        },
        {
          "duration": 0.09146337500001778,
          "durationTicks": 12,
          "midi": 74,
          "name": "D5",
          "ticks": 17664,
          "time": 134.634088,
          "velocity": 0.6299212598425197
        },
        {
          "duration": 0.09146337499998936,
          "durationTicks": 12,
          "midi": 74,
          "name": "D5",
          "ticks": 17736,
          "time": 135.18286825,
          "velocity": 0.5905511811023622
        },
        {
          "duration": 0.09146337499998936,
          "durationTicks": 12,
          "midi": 74,
          "name": "D5",
          "ticks": 17808,
          "time": 135.7316485,
          "velocity": 0.5354330708661418
        },
        {
          "duration": 0.09146337500001778,
          "durationTicks": 12,
          "midi": 76,
          "name": "E5",
          "ticks": 18048,
          "time": 137.560916,
          "velocity": 0.6299212598425197
        },
        {
          "duration": 0.09146337499998936,
          "durationTicks": 12,
          "midi": 76,
          "name": "E5",
          "ticks": 18120,
          "time": 138.10969625,
          "velocity": 0.5905511811023622
        },
        {
          "duration": 0.09146337499998936,
          "durationTicks": 12,
          "midi": 76,
          "name": "E5",
          "ticks": 18192,
          "time": 138.6584765,
          "velocity": 0.5354330708661418
        },
        {
          "duration": 0.09146337500001778,
          "durationTicks": 12,
          "midi": 74,
          "name": "D5",
          "ticks": 18432,
          "time": 140.487744,
          "velocity": 0.6299212598425197
        },
        {
          "duration": 0.09146337500001778,
          "durationTicks": 12,
          "midi": 74,
          "name": "D5",
          "ticks": 18504,
          "time": 141.03652424999999,
          "velocity": 0.5905511811023622
        },
        {
          "duration": 0.09146337499998936,
          "durationTicks": 12,
          "midi": 74,
          "name": "D5",
          "ticks": 18576,
          "time": 141.5853045,
          "velocity": 0.5354330708661418
        },
        {
          "duration": 0.04573168749999468,
          "durationTicks": 6,
          "midi": 69,
          "name": "A4",
          "ticks": 18798,
          "time": 143.2773769375,
          "velocity": 0.6299212598425197
        },
        {
          "duration": 0.04573168749999468,
          "durationTicks": 6,
          "midi": 72,
          "name": "C5",
          "ticks": 18804,
          "time": 143.323108625,
          "velocity": 0.6299212598425197
        },
        {
          "duration": 0.04573168749999468,
          "durationTicks": 6,
          "midi": 74,
          "name": "D5",
          "ticks": 18810,
          "time": 143.3688403125,
          "velocity": 0.6299212598425197
        },
        {
          "duration": 0.09146337500001778,
          "durationTicks": 12,
          "midi": 76,
          "name": "E5",
          "ticks": 18816,
          "time": 143.414572,
          "velocity": 0.6299212598425197
        },
        {
          "duration": 0.09146337500001778,
          "durationTicks": 12,
          "midi": 76,
          "name": "E5",
          "ticks": 18888,
          "time": 143.96335224999999,
          "velocity": 0.5905511811023622
        },
        {
          "duration": 0.09146337499998936,
          "durationTicks": 12,
          "midi": 76,
          "name": "E5",
          "ticks": 18960,
          "time": 144.5121325,
          "velocity": 0.5354330708661418
        },
        {
          "duration": 0.09146337500001778,
          "durationTicks": 12,
          "midi": 74,
          "name": "D5",
          "ticks": 19200,
          "time": 146.3414,
          "velocity": 0.6299212598425197
        },
        {
          "duration": 0.09146337500001778,
          "durationTicks": 12,
          "midi": 74,
          "name": "D5",
          "ticks": 19272,
          "time": 146.89018025,
          "velocity": 0.5905511811023622
        },
        {
          "duration": 0.09146337499998936,
          "durationTicks": 12,
          "midi": 74,
          "name": "D5",
          "ticks": 19344,
          "time": 147.4389605,
          "velocity": 0.5354330708661418
        },
        {
          "duration": 0.09146337500001778,
          "durationTicks": 12,
          "midi": 76,
          "name": "E5",
          "ticks": 19584,
          "time": 149.268228,
          "velocity": 0.6299212598425197
        },
        {
          "duration": 0.09146337500001778,
          "durationTicks": 12,
          "midi": 76,
          "name": "E5",
          "ticks": 19656,
          "time": 149.81700825,
          "velocity": 0.5905511811023622
        },
        {
          "duration": 0.09146337499998936,
          "durationTicks": 12,
          "midi": 76,
          "name": "E5",
          "ticks": 19728,
          "time": 150.3657885,
          "velocity": 0.5354330708661418
        },
        {
          "duration": 0.09146337500001778,
          "durationTicks": 12,
          "midi": 74,
          "name": "D5",
          "ticks": 19968,
          "time": 152.195056,
          "velocity": 0.6299212598425197
        },
        {
          "duration": 0.09146337500001778,
          "durationTicks": 12,
          "midi": 74,
          "name": "D5",
          "ticks": 20040,
          "time": 152.74383625,
          "velocity": 0.5905511811023622
        },
        {
          "duration": 0.09146337499998936,
          "durationTicks": 12,
          "midi": 76,
          "name": "E5",
          "ticks": 20112,
          "time": 153.2926165,
          "velocity": 0.5354330708661418
        },
        {
          "duration": 0.04573168749999468,
          "durationTicks": 6,
          "midi": 69,
          "name": "A4",
          "ticks": 20334,
          "time": 154.9846889375,
          "velocity": 0.6299212598425197
        },
        {
          "duration": 0.04573168749999468,
          "durationTicks": 6,
          "midi": 72,
          "name": "C5",
          "ticks": 20340,
          "time": 155.030420625,
          "velocity": 0.6299212598425197
        },
        {
          "duration": 0.04573168749999468,
          "durationTicks": 6,
          "midi": 74,
          "name": "D5",
          "ticks": 20346,
          "time": 155.0761523125,
          "velocity": 0.6299212598425197
        },
        {
          "duration": 0.09146337500001778,
          "durationTicks": 12,
          "midi": 76,
          "name": "E5",
          "ticks": 20352,
          "time": 155.121884,
          "velocity": 0.6299212598425197
        },
        {
          "duration": 0.09146337500001778,
          "durationTicks": 12,
          "midi": 76,
          "name": "E5",
          "ticks": 20424,
          "time": 155.67066425,
          "velocity": 0.5905511811023622
        },
        {
          "duration": 0.09146337499998936,
          "durationTicks": 12,
          "midi": 76,
          "name": "E5",
          "ticks": 20496,
          "time": 156.2194445,
          "velocity": 0.5354330708661418
        },
        {
          "duration": 0.09146337500001778,
          "durationTicks": 12,
          "midi": 74,
          "name": "D5",
          "ticks": 20736,
          "time": 158.048712,
          "velocity": 0.6299212598425197
        },
        {
          "duration": 0.09146337500001778,
          "durationTicks": 12,
          "midi": 74,
          "name": "D5",
          "ticks": 20808,
          "time": 158.59749225,
          "velocity": 0.5905511811023622
        },
        {
          "duration": 0.09146337499998936,
          "durationTicks": 12,
          "midi": 74,
          "name": "D5",
          "ticks": 20880,
          "time": 159.1462725,
          "velocity": 0.5354330708661418
        },
        {
          "duration": 0.09146337500001778,
          "durationTicks": 12,
          "midi": 76,
          "name": "E5",
          "ticks": 21120,
          "time": 160.97554,
          "velocity": 0.6299212598425197
        },
        {
          "duration": 0.09146337500001778,
          "durationTicks": 12,
          "midi": 76,
          "name": "E5",
          "ticks": 21192,
          "time": 161.52432025,
          "velocity": 0.5905511811023622
        },
        {
          "duration": 0.09146337499998936,
          "durationTicks": 12,
          "midi": 76,
          "name": "E5",
          "ticks": 21264,
          "time": 162.0731005,
          "velocity": 0.5354330708661418
        },
        {
          "duration": 0.09146337499998936,
          "durationTicks": 12,
          "midi": 74,
          "name": "D5",
          "ticks": 21504,
          "time": 163.902368,
          "velocity": 0.6299212598425197
        },
        {
          "duration": 0.09146337500001778,
          "durationTicks": 12,
          "midi": 74,
          "name": "D5",
          "ticks": 21576,
          "time": 164.45114825,
          "velocity": 0.5905511811023622
        },
        {
          "duration": 0.09146337499998936,
          "durationTicks": 12,
          "midi": 76,
          "name": "E5",
          "ticks": 21648,
          "time": 164.9999285,
          "velocity": 0.5354330708661418
        },
        {
          "duration": 0.04573168749999468,
          "durationTicks": 6,
          "midi": 69,
          "name": "A4",
          "ticks": 21870,
          "time": 166.6920009375,
          "velocity": 0.6220472440944882
        },
        {
          "duration": 0.04573168749999468,
          "durationTicks": 6,
          "midi": 72,
          "name": "C5",
          "ticks": 21876,
          "time": 166.737732625,
          "velocity": 0.6377952755905512
        },
        {
          "duration": 0.04573168749999468,
          "durationTicks": 6,
          "midi": 76,
          "name": "E5",
          "ticks": 21882,
          "time": 166.7834643125,
          "velocity": 0.6535433070866141
        },
        {
          "duration": 0.18292675000000713,
          "durationTicks": 24,
          "midi": 81,
          "name": "A5",
          "ticks": 21888,
          "time": 166.829196,
          "velocity": 0.6614173228346457
        }
      ]
    },
    {
      "channel": 0,
      "controlChanges": {
        "6": [
          {
            "number": 6,
            "ticks": 0,
            "time": 0,
            "value": 0.09448818897637795
          }
        ],
        "7": [
          {
            "number": 7,
            "ticks": 0,
            "time": 0,
            "value": 0.7874015748031497
          },
          {
            "number": 7,
            "ticks": 0,
            "time": 0,
            "value": 0.7874015748031497
          }
        ],
        "10": [
          {
            "number": 10,
            "ticks": 0,
            "time": 0,
            "value": 0.5039370078740157
          },
          {
            "number": 10,
            "ticks": 0,
            "time": 0,
            "value": 0.5039370078740157
          }
        ],
        "100": [
          {
            "number": 100,
            "ticks": 0,
            "time": 0,
            "value": 0
          }
        ],
        "101": [
          {
            "number": 101,
            "ticks": 0,
            "time": 0,
            "value": 0
          }
        ]
      },
      "pitchBends": [
        {
          "ticks": 0,
          "time": 0,
          "value": 0
        },
        {
          "ticks": 0,
          "time": 0,
          "value": 0
        }
      ],
      "instrument": {
        "family": "piano",
        "name": "acoustic grand piano",
        "number": 0
      },
      "name": "Shakuhachi",
      "notes": []
    },
    {
      "channel": 6,
      "controlChanges": {
        "1": [
          {
            "number": 1,
            "ticks": 0,
            "time": 0,
            "value": 0
          },
          {
            "number": 1,
            "ticks": 0,
            "time": 0,
            "value": 0
          },
          {
            "number": 1,
            "ticks": 0,
            "time": 0,
            "value": 0
          },
          {
            "number": 1,
            "ticks": 0,
            "time": 0,
            "value": 0
          },
          {
            "number": 1,
            "ticks": 4995,
            "time": 38.07162984375,
            "value": 0.007874015748031496
          },
          {
            "number": 1,
            "ticks": 5000,
            "time": 38.10973958333334,
            "value": 0.015748031496062992
          },
          {
            "number": 1,
            "ticks": 5004,
            "time": 38.140227375,
            "value": 0.023622047244094488
          },
          {
            "number": 1,
            "ticks": 5009,
            "time": 38.178337114583336,
            "value": 0.031496062992125984
          },
          {
            "number": 1,
            "ticks": 5013,
            "time": 38.20882490625,
            "value": 0.03937007874015748
          },
          {
            "number": 1,
            "ticks": 5018,
            "time": 38.246934645833335,
            "value": 0.047244094488188976
          },
          {
            "number": 1,
            "ticks": 5022,
            "time": 38.2774224375,
            "value": 0.05511811023622047
          },
          {
            "number": 1,
            "ticks": 5027,
            "time": 38.315532177083334,
            "value": 0.06299212598425197
          },
          {
            "number": 1,
            "ticks": 5031,
            "time": 38.34601996875,
            "value": 0.07086614173228346
          },
          {
            "number": 1,
            "ticks": 5036,
            "time": 38.38412970833333,
            "value": 0.07874015748031496
          },
          {
            "number": 1,
            "ticks": 5040,
            "time": 38.4146175,
            "value": 0.08661417322834646
          },
          {
            "number": 1,
            "ticks": 5045,
            "time": 38.45272723958333,
            "value": 0.09448818897637795
          },
          {
            "number": 1,
            "ticks": 5049,
            "time": 38.48321503125,
            "value": 0.10236220472440945
          },
          {
            "number": 1,
            "ticks": 5054,
            "time": 38.52132477083334,
            "value": 0.11023622047244094
          },
          {
            "number": 1,
            "ticks": 5058,
            "time": 38.5518125625,
            "value": 0.11811023622047244
          },
          {
            "number": 1,
            "ticks": 5063,
            "time": 38.58992230208334,
            "value": 0.12598425196850394
          },
          {
            "number": 1,
            "ticks": 5067,
            "time": 38.62041009375,
            "value": 0.13385826771653545
          },
          {
            "number": 1,
            "ticks": 5072,
            "time": 38.65851983333334,
            "value": 0.14173228346456693
          },
          {
            "number": 1,
            "ticks": 5076,
            "time": 38.689007625,
            "value": 0.14960629921259844
          },
          {
            "number": 1,
            "ticks": 5081,
            "time": 38.727117364583336,
            "value": 0.15748031496062992
          },
          {
            "number": 1,
            "ticks": 5085,
            "time": 38.75760515625,
            "value": 0.16535433070866143
          },
          {
            "number": 1,
            "ticks": 5090,
            "time": 38.795714895833335,
            "value": 0.1732283464566929
          },
          {
            "number": 1,
            "ticks": 5094,
            "time": 38.8262026875,
            "value": 0.18110236220472442
          },
          {
            "number": 1,
            "ticks": 5099,
            "time": 38.864312427083334,
            "value": 0.1889763779527559
          },
          {
            "number": 1,
            "ticks": 5103,
            "time": 38.89480021875,
            "value": 0.1968503937007874
          },
          {
            "number": 1,
            "ticks": 5108,
            "time": 38.93290995833333,
            "value": 0.2047244094488189
          },
          {
            "number": 1,
            "ticks": 5112,
            "time": 38.96339775,
            "value": 0.2125984251968504
          },
          {
            "number": 1,
            "ticks": 5117,
            "time": 39.00150748958333,
            "value": 0.2204724409448819
          },
          {
            "number": 1,
            "ticks": 5121,
            "time": 39.03199528125,
            "value": 0.2283464566929134
          },
          {
            "number": 1,
            "ticks": 5126,
            "time": 39.07010502083333,
            "value": 0.23622047244094488
          },
          {
            "number": 1,
            "ticks": 5130,
            "time": 39.1005928125,
            "value": 0.2440944881889764
          },
          {
            "number": 1,
            "ticks": 5135,
            "time": 39.13870255208334,
            "value": 0.25196850393700787
          },
          {
            "number": 1,
            "ticks": 5140,
            "time": 39.176812291666664,
            "value": 0.25984251968503935
          },
          {
            "number": 1,
            "ticks": 5144,
            "time": 39.20730008333334,
            "value": 0.2677165354330709
          },
          {
            "number": 1,
            "ticks": 5149,
            "time": 39.24540982291666,
            "value": 0.2755905511811024
          },
          {
            "number": 1,
            "ticks": 5153,
            "time": 39.275897614583336,
            "value": 0.28346456692913385
          },
          {
            "number": 1,
            "ticks": 5158,
            "time": 39.31400735416666,
            "value": 0.29133858267716534
          },
          {
            "number": 1,
            "ticks": 5162,
            "time": 39.344495145833335,
            "value": 0.2992125984251969
          },
          {
            "number": 1,
            "ticks": 5167,
            "time": 39.38260488541666,
            "value": 0.30708661417322836
          },
          {
            "number": 1,
            "ticks": 5171,
            "time": 39.413092677083334,
            "value": 0.31496062992125984
          },
          {
            "number": 1,
            "ticks": 5176,
            "time": 39.45120241666667,
            "value": 0.3228346456692913
          },
          {
            "number": 1,
            "ticks": 5180,
            "time": 39.48169020833333,
            "value": 0.33070866141732286
          },
          {
            "number": 1,
            "ticks": 5185,
            "time": 39.51979994791667,
            "value": 0.33858267716535434
          },
          {
            "number": 1,
            "ticks": 5189,
            "time": 39.55028773958333,
            "value": 0.3464566929133858
          },
          {
            "number": 1,
            "ticks": 5194,
            "time": 39.588397479166666,
            "value": 0.3543307086614173
          },
          {
            "number": 1,
            "ticks": 5198,
            "time": 39.61888527083333,
            "value": 0.36220472440944884
          },
          {
            "number": 1,
            "ticks": 5203,
            "time": 39.656995010416665,
            "value": 0.3700787401574803
          },
          {
            "number": 1,
            "ticks": 5207,
            "time": 39.68748280208334,
            "value": 0.3779527559055118
          },
          {
            "number": 1,
            "ticks": 5212,
            "time": 39.725592541666664,
            "value": 0.3858267716535433
          },
          {
            "number": 1,
            "ticks": 5216,
            "time": 39.75608033333334,
            "value": 0.3937007874015748
          },
          {
            "number": 1,
            "ticks": 5221,
            "time": 39.79419007291666,
            "value": 0.4015748031496063
          },
          {
            "number": 1,
            "ticks": 5225,
            "time": 39.824677864583336,
            "value": 0.4094488188976378
          },
          {
            "number": 1,
            "ticks": 5230,
            "time": 39.86278760416666,
            "value": 0.41732283464566927
          },
          {
            "number": 1,
            "ticks": 5234,
            "time": 39.893275395833335,
            "value": 0.4251968503937008
          },
          {
            "number": 1,
            "ticks": 5239,
            "time": 39.93138513541666,
            "value": 0.4330708661417323
          },
          {
            "number": 1,
            "ticks": 5243,
            "time": 39.961872927083334,
            "value": 0.4409448818897638
          },
          {
            "number": 1,
            "ticks": 5248,
            "time": 39.99998266666667,
            "value": 0.44881889763779526
          },
          {
            "number": 1,
            "ticks": 5252,
            "time": 40.03047045833333,
            "value": 0.4566929133858268
          },
          {
            "number": 1,
            "ticks": 5257,
            "time": 40.06858019791667,
            "value": 0.4645669291338583
          },
          {
            "number": 1,
            "ticks": 5261,
            "time": 40.09906798958333,
            "value": 0.47244094488188976
          },
          {
            "number": 1,
            "ticks": 5266,
            "time": 40.137177729166666,
            "value": 0.48031496062992124
          },
          {
            "number": 1,
            "ticks": 5270,
            "time": 40.16766552083333,
            "value": 0.4881889763779528
          },
          {
            "number": 1,
            "ticks": 5275,
            "time": 40.205775260416665,
            "value": 0.49606299212598426
          },
          {
            "number": 1,
            "ticks": 5279,
            "time": 40.23626305208334,
            "value": 0.5039370078740157
          },
          {
            "number": 1,
            "ticks": 5281,
            "time": 40.25150694791667,
            "value": 0.4094488188976378
          },
          {
            "number": 1,
            "ticks": 5282,
            "time": 40.259128895833335,
            "value": 0.5039370078740157
          },
          {
            "number": 1,
            "ticks": 5382,
            "time": 41.0213236875,
            "value": 0.49606299212598426
          },
          {
            "number": 1,
            "ticks": 5383,
            "time": 41.02894563541666,
            "value": 0.4881889763779528
          },
          {
            "number": 1,
            "ticks": 5384,
            "time": 41.03656758333334,
            "value": 0.48031496062992124
          },
          {
            "number": 1,
            "ticks": 5385,
            "time": 41.04418953125,
            "value": 0.47244094488188976
          },
          {
            "number": 1,
            "ticks": 5387,
            "time": 41.059433427083334,
            "value": 0.4645669291338583
          },
          {
            "number": 1,
            "ticks": 5388,
            "time": 41.067055375,
            "value": 0.4566929133858268
          },
          {
            "number": 1,
            "ticks": 5389,
            "time": 41.07467732291666,
            "value": 0.44881889763779526
          },
          {
            "number": 1,
            "ticks": 5390,
            "time": 41.08229927083333,
            "value": 0.4409448818897638
          },
          {
            "number": 1,
            "ticks": 5391,
            "time": 41.08992121875,
            "value": 0.4330708661417323
          },
          {
            "number": 1,
            "ticks": 5393,
            "time": 41.105165114583336,
            "value": 0.4251968503937008
          },
          {
            "number": 1,
            "ticks": 5394,
            "time": 41.1127870625,
            "value": 0.41732283464566927
          },
          {
            "number": 1,
            "ticks": 5395,
            "time": 41.120409010416665,
            "value": 0.4094488188976378
          },
          {
            "number": 1,
            "ticks": 5396,
            "time": 41.12803095833333,
            "value": 0.4015748031496063
          },
          {
            "number": 1,
            "ticks": 5398,
            "time": 41.14327485416666,
            "value": 0.3937007874015748
          },
          {
            "number": 1,
            "ticks": 5399,
            "time": 41.15089680208334,
            "value": 0.3858267716535433
          },
          {
            "number": 1,
            "ticks": 5400,
            "time": 41.15851875,
            "value": 0.3779527559055118
          },
          {
            "number": 1,
            "ticks": 5401,
            "time": 41.16614069791667,
            "value": 0.3700787401574803
          },
          {
            "number": 1,
            "ticks": 5402,
            "time": 41.173762645833335,
            "value": 0.36220472440944884
          },
          {
            "number": 1,
            "ticks": 5404,
            "time": 41.189006541666664,
            "value": 0.3543307086614173
          },
          {
            "number": 1,
            "ticks": 5405,
            "time": 41.19662848958333,
            "value": 0.3464566929133858
          },
          {
            "number": 1,
            "ticks": 5406,
            "time": 41.2042504375,
            "value": 0.33858267716535434
          },
          {
            "number": 1,
            "ticks": 5407,
            "time": 41.21187238541666,
            "value": 0.33070866141732286
          },
          {
            "number": 1,
            "ticks": 5409,
            "time": 41.22711628125,
            "value": 0.3228346456692913
          },
          {
            "number": 1,
            "ticks": 5410,
            "time": 41.234738229166666,
            "value": 0.31496062992125984
          },
          {
            "number": 1,
            "ticks": 5411,
            "time": 41.242360177083334,
            "value": 0.30708661417322836
          },
          {
            "number": 1,
            "ticks": 5412,
            "time": 41.249982125,
            "value": 0.2992125984251969
          },
          {
            "number": 1,
            "ticks": 5413,
            "time": 41.25760407291666,
            "value": 0.29133858267716534
          },
          {
            "number": 1,
            "ticks": 5415,
            "time": 41.27284796875,
            "value": 0.28346456692913385
          },
          {
            "number": 1,
            "ticks": 5416,
            "time": 41.28046991666667,
            "value": 0.2755905511811024
          },
          {
            "number": 1,
            "ticks": 5417,
            "time": 41.288091864583336,
            "value": 0.2677165354330709
          },
          {
            "number": 1,
            "ticks": 5418,
            "time": 41.2957138125,
            "value": 0.25984251968503935
          },
          {
            "number": 1,
            "ticks": 5419,
            "time": 41.303335760416665,
            "value": 0.25196850393700787
          },
          {
            "number": 1,
            "ticks": 5421,
            "time": 41.31857965625,
            "value": 0.2440944881889764
          },
          {
            "number": 1,
            "ticks": 5422,
            "time": 41.32620160416666,
            "value": 0.23622047244094488
          },
          {
            "number": 1,
            "ticks": 5423,
            "time": 41.33382355208334,
            "value": 0.2283464566929134
          },
          {
            "number": 1,
            "ticks": 5424,
            "time": 41.3414455,
            "value": 0.2204724409448819
          },
          {
            "number": 1,
            "ticks": 5426,
            "time": 41.356689395833335,
            "value": 0.2125984251968504
          },
          {
            "number": 1,
            "ticks": 5427,
            "time": 41.364311343749996,
            "value": 0.2047244094488189
          },
          {
            "number": 1,
            "ticks": 5428,
            "time": 41.371933291666664,
            "value": 0.1968503937007874
          },
          {
            "number": 1,
            "ticks": 5429,
            "time": 41.37955523958333,
            "value": 0.1889763779527559
          },
          {
            "number": 1,
            "ticks": 5430,
            "time": 41.3871771875,
            "value": 0.18110236220472442
          },
          {
            "number": 1,
            "ticks": 5432,
            "time": 41.40242108333334,
            "value": 0.1732283464566929
          },
          {
            "number": 1,
            "ticks": 5433,
            "time": 41.41004303125,
            "value": 0.16535433070866143
          },
          {
            "number": 1,
            "ticks": 5434,
            "time": 41.417664979166666,
            "value": 0.15748031496062992
          },
          {
            "number": 1,
            "ticks": 5435,
            "time": 41.425286927083334,
            "value": 0.14960629921259844
          },
          {
            "number": 1,
            "ticks": 5437,
            "time": 41.440530822916664,
            "value": 0.14173228346456693
          },
          {
            "number": 1,
            "ticks": 5438,
            "time": 41.44815277083333,
            "value": 0.13385826771653545
          },
          {
            "number": 1,
            "ticks": 5439,
            "time": 41.45577471875,
            "value": 0.12598425196850394
          },
          {
            "number": 1,
            "ticks": 5440,
            "time": 41.46339666666667,
            "value": 0.11811023622047244
          },
          {
            "number": 1,
            "ticks": 5441,
            "time": 41.471018614583336,
            "value": 0.11023622047244094
          },
          {
            "number": 1,
            "ticks": 5443,
            "time": 41.486262510416665,
            "value": 0.10236220472440945
          },
          {
            "number": 1,
            "ticks": 5444,
            "time": 41.49388445833333,
            "value": 0.09448818897637795
          },
          {
            "number": 1,
            "ticks": 5445,
            "time": 41.50150640625,
            "value": 0.08661417322834646
          },
          {
            "number": 1,
            "ticks": 5446,
            "time": 41.50912835416666,
            "value": 0.07874015748031496
          },
          {
            "number": 1,
            "ticks": 5448,
            "time": 41.52437225,
            "value": 0.07086614173228346
          },
          {
            "number": 1,
            "ticks": 5449,
            "time": 41.53199419791667,
            "value": 0.06299212598425197
          },
          {
            "number": 1,
            "ticks": 5450,
            "time": 41.539616145833335,
            "value": 0.05511811023622047
          },
          {
            "number": 1,
            "ticks": 5451,
            "time": 41.547238093749996,
            "value": 0.047244094488188976
          },
          {
            "number": 1,
            "ticks": 5452,
            "time": 41.554860041666664,
            "value": 0.03937007874015748
          },
          {
            "number": 1,
            "ticks": 5454,
            "time": 41.5701039375,
            "value": 0.031496062992125984
          },
          {
            "number": 1,
            "ticks": 5455,
            "time": 41.57772588541666,
            "value": 0.023622047244094488
          },
          {
            "number": 1,
            "ticks": 5456,
            "time": 41.58534783333334,
            "value": 0.015748031496062992
          },
          {
            "number": 1,
            "ticks": 5457,
            "time": 41.59296978125,
            "value": 0.007874015748031496
          },
          {
            "number": 1,
            "ticks": 5458,
            "time": 41.600591729166666,
            "value": 0
          },
          {
            "number": 1,
            "ticks": 5762,
            "time": 43.917663895833336,
            "value": 0.007874015748031496
          },
          {
            "number": 1,
            "ticks": 5767,
            "time": 43.95577363541666,
            "value": 0.015748031496062992
          },
          {
            "number": 1,
            "ticks": 5772,
            "time": 43.993883375,
            "value": 0.023622047244094488
          },
          {
            "number": 1,
            "ticks": 5777,
            "time": 44.03199311458334,
            "value": 0.031496062992125984
          },
          {
            "number": 1,
            "ticks": 5782,
            "time": 44.07010285416666,
            "value": 0.03937007874015748
          },
          {
            "number": 1,
            "ticks": 5787,
            "time": 44.10821259375,
            "value": 0.047244094488188976
          },
          {
            "number": 1,
            "ticks": 5791,
            "time": 44.13870038541666,
            "value": 0.05511811023622047
          },
          {
            "number": 1,
            "ticks": 5796,
            "time": 44.176810125,
            "value": 0.06299212598425197
          },
          {
            "number": 1,
            "ticks": 5801,
            "time": 44.21491986458334,
            "value": 0.07086614173228346
          },
          {
            "number": 1,
            "ticks": 5806,
            "time": 44.25302960416666,
            "value": 0.07874015748031496
          },
          {
            "number": 1,
            "ticks": 5811,
            "time": 44.29113934375,
            "value": 0.08661417322834646
          },
          {
            "number": 1,
            "ticks": 5816,
            "time": 44.32924908333334,
            "value": 0.09448818897637795
          },
          {
            "number": 1,
            "ticks": 5821,
            "time": 44.367358822916664,
            "value": 0.10236220472440945
          },
          {
            "number": 1,
            "ticks": 5825,
            "time": 44.39784661458334,
            "value": 0.11023622047244094
          },
          {
            "number": 1,
            "ticks": 5830,
            "time": 44.43595635416666,
            "value": 0.11811023622047244
          },
          {
            "number": 1,
            "ticks": 5835,
            "time": 44.47406609375,
            "value": 0.12598425196850394
          },
          {
            "number": 1,
            "ticks": 5840,
            "time": 44.51217583333334,
            "value": 0.13385826771653545
          },
          {
            "number": 1,
            "ticks": 5845,
            "time": 44.550285572916664,
            "value": 0.14173228346456693
          },
          {
            "number": 1,
            "ticks": 5850,
            "time": 44.5883953125,
            "value": 0.14960629921259844
          },
          {
            "number": 1,
            "ticks": 5855,
            "time": 44.62650505208333,
            "value": 0.15748031496062992
          },
          {
            "number": 1,
            "ticks": 5859,
            "time": 44.65699284375,
            "value": 0.16535433070866143
          },
          {
            "number": 1,
            "ticks": 5864,
            "time": 44.69510258333334,
            "value": 0.1732283464566929
          },
          {
            "number": 1,
            "ticks": 5869,
            "time": 44.733212322916664,
            "value": 0.18110236220472442
          },
          {
            "number": 1,
            "ticks": 5874,
            "time": 44.7713220625,
            "value": 0.1889763779527559
          },
          {
            "number": 1,
            "ticks": 5879,
            "time": 44.80943180208333,
            "value": 0.1968503937007874
          },
          {
            "number": 1,
            "ticks": 5884,
            "time": 44.847541541666665,
            "value": 0.2047244094488189
          },
          {
            "number": 1,
            "ticks": 5889,
            "time": 44.88565128125,
            "value": 0.2125984251968504
          },
          {
            "number": 1,
            "ticks": 5893,
            "time": 44.916139072916664,
            "value": 0.2204724409448819
          },
          {
            "number": 1,
            "ticks": 5898,
            "time": 44.9542488125,
            "value": 0.2283464566929134
          },
          {
            "number": 1,
            "ticks": 5903,
            "time": 44.99235855208333,
            "value": 0.23622047244094488
          },
          {
            "number": 1,
            "ticks": 5908,
            "time": 45.030468291666665,
            "value": 0.2440944881889764
          },
          {
            "number": 1,
            "ticks": 5913,
            "time": 45.06857803125,
            "value": 0.25196850393700787
          },
          {
            "number": 1,
            "ticks": 5918,
            "time": 45.10668777083333,
            "value": 0.25984251968503935
          },
          {
            "number": 1,
            "ticks": 5923,
            "time": 45.144797510416666,
            "value": 0.2677165354330709
          },
          {
            "number": 1,
            "ticks": 5927,
            "time": 45.17528530208333,
            "value": 0.2755905511811024
          },
          {
            "number": 1,
            "ticks": 5932,
            "time": 45.213395041666665,
            "value": 0.28346456692913385
          },
          {
            "number": 1,
            "ticks": 5937,
            "time": 45.25150478125,
            "value": 0.29133858267716534
          },
          {
            "number": 1,
            "ticks": 5942,
            "time": 45.28961452083333,
            "value": 0.2992125984251969
          },
          {
            "number": 1,
            "ticks": 5947,
            "time": 45.327724260416666,
            "value": 0.30708661417322836
          },
          {
            "number": 1,
            "ticks": 5952,
            "time": 45.365834,
            "value": 0.31496062992125984
          },
          {
            "number": 1,
            "ticks": 5957,
            "time": 45.40394373958333,
            "value": 0.3228346456692913
          },
          {
            "number": 1,
            "ticks": 5961,
            "time": 45.43443153125,
            "value": 0.33070866141732286
          },
          {
            "number": 1,
            "ticks": 5966,
            "time": 45.47254127083333,
            "value": 0.33858267716535434
          },
          {
            "number": 1,
            "ticks": 5971,
            "time": 45.510651010416666,
            "value": 0.3464566929133858
          },
          {
            "number": 1,
            "ticks": 5976,
            "time": 45.54876075,
            "value": 0.3543307086614173
          },
          {
            "number": 1,
            "ticks": 5981,
            "time": 45.58687048958333,
            "value": 0.36220472440944884
          },
          {
            "number": 1,
            "ticks": 5986,
            "time": 45.62498022916667,
            "value": 0.3700787401574803
          },
          {
            "number": 1,
            "ticks": 5991,
            "time": 45.66308996875,
            "value": 0.3779527559055118
          },
          {
            "number": 1,
            "ticks": 5995,
            "time": 45.693577760416666,
            "value": 0.3858267716535433
          },
          {
            "number": 1,
            "ticks": 6000,
            "time": 45.7316875,
            "value": 0.3937007874015748
          },
          {
            "number": 1,
            "ticks": 6005,
            "time": 45.76979723958333,
            "value": 0.4015748031496063
          },
          {
            "number": 1,
            "ticks": 6010,
            "time": 45.80790697916667,
            "value": 0.4094488188976378
          },
          {
            "number": 1,
            "ticks": 6015,
            "time": 45.84601671875,
            "value": 0.41732283464566927
          },
          {
            "number": 1,
            "ticks": 6020,
            "time": 45.884126458333334,
            "value": 0.4251968503937008
          },
          {
            "number": 1,
            "ticks": 6025,
            "time": 45.92223619791667,
            "value": 0.4330708661417323
          },
          {
            "number": 1,
            "ticks": 6029,
            "time": 45.95272398958333,
            "value": 0.4409448818897638
          },
          {
            "number": 1,
            "ticks": 6034,
            "time": 45.99083372916667,
            "value": 0.44881889763779526
          },
          {
            "number": 1,
            "ticks": 6039,
            "time": 46.02894346875,
            "value": 0.4566929133858268
          },
          {
            "number": 1,
            "ticks": 6044,
            "time": 46.067053208333334,
            "value": 0.4645669291338583
          },
          {
            "number": 1,
            "ticks": 6049,
            "time": 46.10516294791667,
            "value": 0.47244094488188976
          },
          {
            "number": 1,
            "ticks": 6054,
            "time": 46.1432726875,
            "value": 0.48031496062992124
          },
          {
            "number": 1,
            "ticks": 6059,
            "time": 46.181382427083335,
            "value": 0.4881889763779528
          },
          {
            "number": 1,
            "ticks": 6063,
            "time": 46.21187021875,
            "value": 0.49606299212598426
          },
          {
            "number": 1,
            "ticks": 6068,
            "time": 46.249979958333334,
            "value": 0.5039370078740157
          },
          {
            "number": 1,
            "ticks": 6073,
            "time": 46.28808969791667,
            "value": 0.5118110236220472
          },
          {
            "number": 1,
            "ticks": 6078,
            "time": 46.3261994375,
            "value": 0.5196850393700787
          },
          {
            "number": 1,
            "ticks": 6083,
            "time": 46.364309177083335,
            "value": 0.5275590551181102
          },
          {
            "number": 1,
            "ticks": 6088,
            "time": 46.40241891666666,
            "value": 0.5354330708661418
          },
          {
            "number": 1,
            "ticks": 6093,
            "time": 46.44052865625,
            "value": 0.5433070866141733
          },
          {
            "number": 1,
            "ticks": 6097,
            "time": 46.47101644791667,
            "value": 0.5511811023622047
          },
          {
            "number": 1,
            "ticks": 6147,
            "time": 46.85211384375,
            "value": 0.5433070866141733
          },
          {
            "number": 1,
            "ticks": 6148,
            "time": 46.85973579166667,
            "value": 0.5275590551181102
          },
          {
            "number": 1,
            "ticks": 6149,
            "time": 46.867357739583326,
            "value": 0.5196850393700787
          },
          {
            "number": 1,
            "ticks": 6150,
            "time": 46.8749796875,
            "value": 0.5039370078740157
          },
          {
            "number": 1,
            "ticks": 6151,
            "time": 46.88260163541667,
            "value": 0.49606299212598426
          },
          {
            "number": 1,
            "ticks": 6152,
            "time": 46.89022358333333,
            "value": 0.48031496062992124
          },
          {
            "number": 1,
            "ticks": 6153,
            "time": 46.89784553125,
            "value": 0.47244094488188976
          },
          {
            "number": 1,
            "ticks": 6154,
            "time": 46.90546747916667,
            "value": 0.4566929133858268
          },
          {
            "number": 1,
            "ticks": 6155,
            "time": 46.91308942708333,
            "value": 0.44881889763779526
          },
          {
            "number": 1,
            "ticks": 6156,
            "time": 46.920711374999996,
            "value": 0.4330708661417323
          },
          {
            "number": 1,
            "ticks": 6157,
            "time": 46.92833332291667,
            "value": 0.4251968503937008
          },
          {
            "number": 1,
            "ticks": 6158,
            "time": 46.93595527083333,
            "value": 0.4094488188976378
          },
          {
            "number": 1,
            "ticks": 6159,
            "time": 46.94357721875,
            "value": 0.4015748031496063
          },
          {
            "number": 1,
            "ticks": 6160,
            "time": 46.95119916666667,
            "value": 0.3858267716535433
          },
          {
            "number": 1,
            "ticks": 6161,
            "time": 46.95882111458333,
            "value": 0.3779527559055118
          },
          {
            "number": 1,
            "ticks": 6162,
            "time": 46.9664430625,
            "value": 0.36220472440944884
          },
          {
            "number": 1,
            "ticks": 6163,
            "time": 46.97406501041667,
            "value": 0.3543307086614173
          },
          {
            "number": 1,
            "ticks": 6164,
            "time": 46.98168695833333,
            "value": 0.33858267716535434
          },
          {
            "number": 1,
            "ticks": 6165,
            "time": 46.98930890625,
            "value": 0.33070866141732286
          },
          {
            "number": 1,
            "ticks": 6166,
            "time": 46.99693085416667,
            "value": 0.31496062992125984
          },
          {
            "number": 1,
            "ticks": 6167,
            "time": 47.00455280208333,
            "value": 0.30708661417322836
          },
          {
            "number": 1,
            "ticks": 6168,
            "time": 47.01217475,
            "value": 0.29133858267716534
          },
          {
            "number": 1,
            "ticks": 6169,
            "time": 47.01979669791667,
            "value": 0.2755905511811024
          },
          {
            "number": 1,
            "ticks": 6170,
            "time": 47.02741864583333,
            "value": 0.2677165354330709
          },
          {
            "number": 1,
            "ticks": 6171,
            "time": 47.03504059375,
            "value": 0.25196850393700787
          },
          {
            "number": 1,
            "ticks": 6172,
            "time": 47.04266254166667,
            "value": 0.2440944881889764
          },
          {
            "number": 1,
            "ticks": 6173,
            "time": 47.050284489583326,
            "value": 0.2283464566929134
          },
          {
            "number": 1,
            "ticks": 6174,
            "time": 47.0579064375,
            "value": 0.2204724409448819
          },
          {
            "number": 1,
            "ticks": 6175,
            "time": 47.06552838541667,
            "value": 0.2047244094488189
          },
          {
            "number": 1,
            "ticks": 6176,
            "time": 47.07315033333333,
            "value": 0.1968503937007874
          },
          {
            "number": 1,
            "ticks": 6177,
            "time": 47.08077228125,
            "value": 0.18110236220472442
          },
          {
            "number": 1,
            "ticks": 6178,
            "time": 47.08839422916667,
            "value": 0.1732283464566929
          },
          {
            "number": 1,
            "ticks": 6179,
            "time": 47.09601617708333,
            "value": 0.15748031496062992
          },
          {
            "number": 1,
            "ticks": 6180,
            "time": 47.103638124999996,
            "value": 0.14960629921259844
          },
          {
            "number": 1,
            "ticks": 6181,
            "time": 47.11126007291667,
            "value": 0.13385826771653545
          },
          {
            "number": 1,
            "ticks": 6182,
            "time": 47.11888202083333,
            "value": 0.12598425196850394
          },
          {
            "number": 1,
            "ticks": 6183,
            "time": 47.12650396875,
            "value": 0.11023622047244094
          },
          {
            "number": 1,
            "ticks": 6184,
            "time": 47.13412591666667,
            "value": 0.10236220472440945
          },
          {
            "number": 1,
            "ticks": 6185,
            "time": 47.14174786458333,
            "value": 0.08661417322834646
          },
          {
            "number": 1,
            "ticks": 6186,
            "time": 47.1493698125,
            "value": 0.07874015748031496
          },
          {
            "number": 1,
            "ticks": 6187,
            "time": 47.15699176041667,
            "value": 0.06299212598425197
          },
          {
            "number": 1,
            "ticks": 6188,
            "time": 47.16461370833333,
            "value": 0.05511811023622047
          },
          {
            "number": 1,
            "ticks": 6189,
            "time": 47.17223565625,
            "value": 0.03937007874015748
          },
          {
            "number": 1,
            "ticks": 6190,
            "time": 47.17985760416667,
            "value": 0.031496062992125984
          },
          {
            "number": 1,
            "ticks": 6191,
            "time": 47.18747955208333,
            "value": 0.015748031496062992
          },
          {
            "number": 1,
            "ticks": 6192,
            "time": 47.1951015,
            "value": 0
          },
          {
            "number": 1,
            "ticks": 6533,
            "time": 49.79418573958333,
            "value": 0.007874015748031496
          },
          {
            "number": 1,
            "ticks": 6537,
            "time": 49.82467353125,
            "value": 0.015748031496062992
          },
          {
            "number": 1,
            "ticks": 6540,
            "time": 49.847539375,
            "value": 0.023622047244094488
          },
          {
            "number": 1,
            "ticks": 6544,
            "time": 49.87802716666667,
            "value": 0.031496062992125984
          },
          {
            "number": 1,
            "ticks": 6547,
            "time": 49.90089301041667,
            "value": 0.03937007874015748
          },
          {
            "number": 1,
            "ticks": 6551,
            "time": 49.93138080208333,
            "value": 0.047244094488188976
          },
          {
            "number": 1,
            "ticks": 6555,
            "time": 49.96186859375,
            "value": 0.05511811023622047
          },
          {
            "number": 1,
            "ticks": 6558,
            "time": 49.9847344375,
            "value": 0.06299212598425197
          },
          {
            "number": 1,
            "ticks": 6562,
            "time": 50.01522222916667,
            "value": 0.07086614173228346
          },
          {
            "number": 1,
            "ticks": 6565,
            "time": 50.03808807291667,
            "value": 0.07874015748031496
          },
          {
            "number": 1,
            "ticks": 6569,
            "time": 50.06857586458333,
            "value": 0.08661417322834646
          },
          {
            "number": 1,
            "ticks": 6572,
            "time": 50.09144170833333,
            "value": 0.09448818897637795
          },
          {
            "number": 1,
            "ticks": 6576,
            "time": 50.1219295,
            "value": 0.10236220472440945
          },
          {
            "number": 1,
            "ticks": 6580,
            "time": 50.15241729166667,
            "value": 0.11023622047244094
          },
          {
            "number": 1,
            "ticks": 6583,
            "time": 50.17528313541667,
            "value": 0.11811023622047244
          },
          {
            "number": 1,
            "ticks": 6587,
            "time": 50.20577092708333,
            "value": 0.12598425196850394
          },
          {
            "number": 1,
            "ticks": 6590,
            "time": 50.22863677083333,
            "value": 0.13385826771653545
          },
          {
            "number": 1,
            "ticks": 6594,
            "time": 50.2591245625,
            "value": 0.14173228346456693
          },
          {
            "number": 1,
            "ticks": 6597,
            "time": 50.28199040625,
            "value": 0.14960629921259844
          },
          {
            "number": 1,
            "ticks": 6601,
            "time": 50.31247819791667,
            "value": 0.15748031496062992
          },
          {
            "number": 1,
            "ticks": 6605,
            "time": 50.34296598958333,
            "value": 0.16535433070866143
          },
          {
            "number": 1,
            "ticks": 6608,
            "time": 50.36583183333333,
            "value": 0.1732283464566929
          },
          {
            "number": 1,
            "ticks": 6612,
            "time": 50.396319625,
            "value": 0.18110236220472442
          },
          {
            "number": 1,
            "ticks": 6615,
            "time": 50.41918546875,
            "value": 0.1889763779527559
          },
          {
            "number": 1,
            "ticks": 6619,
            "time": 50.44967326041667,
            "value": 0.1968503937007874
          },
          {
            "number": 1,
            "ticks": 6622,
            "time": 50.47253910416667,
            "value": 0.2047244094488189
          },
          {
            "number": 1,
            "ticks": 6626,
            "time": 50.50302689583333,
            "value": 0.2125984251968504
          },
          {
            "number": 1,
            "ticks": 6630,
            "time": 50.5335146875,
            "value": 0.2204724409448819
          },
          {
            "number": 1,
            "ticks": 6633,
            "time": 50.55638053125,
            "value": 0.2283464566929134
          },
          {
            "number": 1,
            "ticks": 6637,
            "time": 50.58686832291667,
            "value": 0.23622047244094488
          },
          {
            "number": 1,
            "ticks": 6640,
            "time": 50.60973416666667,
            "value": 0.2440944881889764
          },
          {
            "number": 1,
            "ticks": 6644,
            "time": 50.64022195833333,
            "value": 0.25196850393700787
          },
          {
            "number": 1,
            "ticks": 6647,
            "time": 50.66308780208333,
            "value": 0.25984251968503935
          },
          {
            "number": 1,
            "ticks": 6651,
            "time": 50.69357559375,
            "value": 0.2677165354330709
          },
          {
            "number": 1,
            "ticks": 6655,
            "time": 50.72406338541667,
            "value": 0.2755905511811024
          },
          {
            "number": 1,
            "ticks": 6658,
            "time": 50.74692922916667,
            "value": 0.28346456692913385
          },
          {
            "number": 1,
            "ticks": 6662,
            "time": 50.77741702083333,
            "value": 0.29133858267716534
          },
          {
            "number": 1,
            "ticks": 6665,
            "time": 50.80028286458333,
            "value": 0.2992125984251969
          },
          {
            "number": 1,
            "ticks": 6669,
            "time": 50.83077065625,
            "value": 0.30708661417322836
          },
          {
            "number": 1,
            "ticks": 6672,
            "time": 50.8536365,
            "value": 0.31496062992125984
          },
          {
            "number": 1,
            "ticks": 6676,
            "time": 50.88412429166667,
            "value": 0.3228346456692913
          },
          {
            "number": 1,
            "ticks": 6680,
            "time": 50.91461208333333,
            "value": 0.33070866141732286
          },
          {
            "number": 1,
            "ticks": 6683,
            "time": 50.93747792708333,
            "value": 0.33858267716535434
          },
          {
            "number": 1,
            "ticks": 6687,
            "time": 50.96796571875,
            "value": 0.3464566929133858
          },
          {
            "number": 1,
            "ticks": 6690,
            "time": 50.9908315625,
            "value": 0.3543307086614173
          },
          {
            "number": 1,
            "ticks": 6694,
            "time": 51.02131935416667,
            "value": 0.36220472440944884
          },
          {
            "number": 1,
            "ticks": 6698,
            "time": 51.05180714583333,
            "value": 0.3700787401574803
          },
          {
            "number": 1,
            "ticks": 6701,
            "time": 51.07467298958333,
            "value": 0.3779527559055118
          },
          {
            "number": 1,
            "ticks": 6705,
            "time": 51.10516078125,
            "value": 0.3858267716535433
          },
          {
            "number": 1,
            "ticks": 6708,
            "time": 51.128026625,
            "value": 0.3937007874015748
          },
          {
            "number": 1,
            "ticks": 6712,
            "time": 51.15851441666667,
            "value": 0.4015748031496063
          },
          {
            "number": 1,
            "ticks": 6715,
            "time": 51.18138026041667,
            "value": 0.4094488188976378
          },
          {
            "number": 1,
            "ticks": 6719,
            "time": 51.21186805208333,
            "value": 0.41732283464566927
          },
          {
            "number": 1,
            "ticks": 6723,
            "time": 51.24235584375,
            "value": 0.4251968503937008
          },
          {
            "number": 1,
            "ticks": 6726,
            "time": 51.2652216875,
            "value": 0.4330708661417323
          },
          {
            "number": 1,
            "ticks": 6730,
            "time": 51.29570947916667,
            "value": 0.4409448818897638
          },
          {
            "number": 1,
            "ticks": 6733,
            "time": 51.31857532291667,
            "value": 0.44881889763779526
          },
          {
            "number": 1,
            "ticks": 6737,
            "time": 51.34906311458333,
            "value": 0.4566929133858268
          },
          {
            "number": 1,
            "ticks": 6740,
            "time": 51.37192895833333,
            "value": 0.4645669291338583
          },
          {
            "number": 1,
            "ticks": 6744,
            "time": 51.40241675,
            "value": 0.47244094488188976
          },
          {
            "number": 1,
            "ticks": 6748,
            "time": 51.43290454166667,
            "value": 0.48031496062992124
          },
          {
            "number": 1,
            "ticks": 6751,
            "time": 51.45577038541667,
            "value": 0.4881889763779528
          },
          {
            "number": 1,
            "ticks": 6755,
            "time": 51.48625817708333,
            "value": 0.49606299212598426
          },
          {
            "number": 1,
            "ticks": 6758,
            "time": 51.509124020833326,
            "value": 0.5039370078740157
          },
          {
            "number": 1,
            "ticks": 6762,
            "time": 51.5396118125,
            "value": 0.5118110236220472
          },
          {
            "number": 1,
            "ticks": 6765,
            "time": 51.56247765625,
            "value": 0.5196850393700787
          },
          {
            "number": 1,
            "ticks": 6769,
            "time": 51.59296544791667,
            "value": 0.5275590551181102
          },
          {
            "number": 1,
            "ticks": 6773,
            "time": 51.62345323958333,
            "value": 0.5354330708661418
          },
          {
            "number": 1,
            "ticks": 6776,
            "time": 51.64631908333333,
            "value": 0.5433070866141733
          },
          {
            "number": 1,
            "ticks": 6780,
            "time": 51.676806875,
            "value": 0.5511811023622047
          },
          {
            "number": 1,
            "ticks": 6783,
            "time": 51.69967271875,
            "value": 0.5590551181102362
          },
          {
            "number": 1,
            "ticks": 6787,
            "time": 51.73016051041667,
            "value": 0.5669291338582677
          },
          {
            "number": 1,
            "ticks": 6790,
            "time": 51.75302635416667,
            "value": 0.5748031496062992
          },
          {
            "number": 1,
            "ticks": 6794,
            "time": 51.78351414583333,
            "value": 0.5826771653543307
          },
          {
            "number": 1,
            "ticks": 6798,
            "time": 51.8140019375,
            "value": 0.5905511811023622
          },
          {
            "number": 1,
            "ticks": 6801,
            "time": 51.83686778125,
            "value": 0.5984251968503937
          },
          {
            "number": 1,
            "ticks": 6805,
            "time": 51.86735557291667,
            "value": 0.6062992125984252
          },
          {
            "number": 1,
            "ticks": 6808,
            "time": 51.89022141666667,
            "value": 0.6141732283464567
          },
          {
            "number": 1,
            "ticks": 6812,
            "time": 51.92070920833333,
            "value": 0.6220472440944882
          },
          {
            "number": 1,
            "ticks": 6815,
            "time": 51.94357505208333,
            "value": 0.6299212598425197
          },
          {
            "number": 1,
            "ticks": 6915,
            "time": 52.70576984375,
            "value": 0.6220472440944882
          },
          {
            "number": 1,
            "ticks": 6916,
            "time": 52.71339179166667,
            "value": 0.6141732283464567
          },
          {
            "number": 1,
            "ticks": 6917,
            "time": 52.72101373958333,
            "value": 0.6062992125984252
          },
          {
            "number": 1,
            "ticks": 6918,
            "time": 52.7286356875,
            "value": 0.5984251968503937
          },
          {
            "number": 1,
            "ticks": 6919,
            "time": 52.73625763541667,
            "value": 0.5905511811023622
          },
          {
            "number": 1,
            "ticks": 6920,
            "time": 52.74387958333333,
            "value": 0.5826771653543307
          },
          {
            "number": 1,
            "ticks": 6921,
            "time": 52.75150153125,
            "value": 0.5748031496062992
          },
          {
            "number": 1,
            "ticks": 6922,
            "time": 52.75912347916667,
            "value": 0.5669291338582677
          },
          {
            "number": 1,
            "ticks": 6923,
            "time": 52.76674542708333,
            "value": 0.5590551181102362
          },
          {
            "number": 1,
            "ticks": 6924,
            "time": 52.774367375,
            "value": 0.5511811023622047
          },
          {
            "number": 1,
            "ticks": 6925,
            "time": 52.78198932291667,
            "value": 0.5433070866141733
          },
          {
            "number": 1,
            "ticks": 6926,
            "time": 52.789611270833326,
            "value": 0.5354330708661418
          },
          {
            "number": 1,
            "ticks": 6927,
            "time": 52.79723321875,
            "value": 0.5275590551181102
          },
          {
            "number": 1,
            "ticks": 6929,
            "time": 52.81247711458333,
            "value": 0.5196850393700787
          },
          {
            "number": 1,
            "ticks": 6930,
            "time": 52.8200990625,
            "value": 0.5118110236220472
          },
          {
            "number": 1,
            "ticks": 6931,
            "time": 52.82772101041667,
            "value": 0.5039370078740157
          },
          {
            "number": 1,
            "ticks": 6932,
            "time": 52.83534295833333,
            "value": 0.49606299212598426
          },
          {
            "number": 1,
            "ticks": 6933,
            "time": 52.842964906249996,
            "value": 0.4881889763779528
          },
          {
            "number": 1,
            "ticks": 6934,
            "time": 52.85058685416667,
            "value": 0.48031496062992124
          },
          {
            "number": 1,
            "ticks": 6935,
            "time": 52.85820880208333,
            "value": 0.47244094488188976
          },
          {
            "number": 1,
            "ticks": 6936,
            "time": 52.86583075,
            "value": 0.4645669291338583
          },
          {
            "number": 1,
            "ticks": 6937,
            "time": 52.87345269791667,
            "value": 0.4566929133858268
          },
          {
            "number": 1,
            "ticks": 6938,
            "time": 52.88107464583333,
            "value": 0.44881889763779526
          },
          {
            "number": 1,
            "ticks": 6939,
            "time": 52.88869659375,
            "value": 0.4409448818897638
          },
          {
            "number": 1,
            "ticks": 6940,
            "time": 52.89631854166667,
            "value": 0.4330708661417323
          },
          {
            "number": 1,
            "ticks": 6941,
            "time": 52.90394048958333,
            "value": 0.4251968503937008
          },
          {
            "number": 1,
            "ticks": 6943,
            "time": 52.91918438541667,
            "value": 0.41732283464566927
          },
          {
            "number": 1,
            "ticks": 6944,
            "time": 52.92680633333333,
            "value": 0.4094488188976378
          },
          {
            "number": 1,
            "ticks": 6945,
            "time": 52.93442828125,
            "value": 0.4015748031496063
          },
          {
            "number": 1,
            "ticks": 6946,
            "time": 52.94205022916667,
            "value": 0.3937007874015748
          },
          {
            "number": 1,
            "ticks": 6947,
            "time": 52.94967217708333,
            "value": 0.3858267716535433
          },
          {
            "number": 1,
            "ticks": 6948,
            "time": 52.957294125,
            "value": 0.3779527559055118
          },
          {
            "number": 1,
            "ticks": 6949,
            "time": 52.96491607291667,
            "value": 0.3700787401574803
          },
          {
            "number": 1,
            "ticks": 6950,
            "time": 52.972538020833326,
            "value": 0.36220472440944884
          },
          {
            "number": 1,
            "ticks": 6951,
            "time": 52.98015996875,
            "value": 0.3543307086614173
          },
          {
            "number": 1,
            "ticks": 6952,
            "time": 52.98778191666667,
            "value": 0.3464566929133858
          },
          {
            "number": 1,
            "ticks": 6953,
            "time": 52.99540386458333,
            "value": 0.33858267716535434
          },
          {
            "number": 1,
            "ticks": 6954,
            "time": 53.0030258125,
            "value": 0.33070866141732286
          },
          {
            "number": 1,
            "ticks": 6955,
            "time": 53.01064776041667,
            "value": 0.3228346456692913
          },
          {
            "number": 1,
            "ticks": 6956,
            "time": 53.01826970833333,
            "value": 0.31496062992125984
          },
          {
            "number": 1,
            "ticks": 6958,
            "time": 53.03351360416667,
            "value": 0.30708661417322836
          },
          {
            "number": 1,
            "ticks": 6959,
            "time": 53.04113555208333,
            "value": 0.2992125984251969
          },
          {
            "number": 1,
            "ticks": 6960,
            "time": 53.0487575,
            "value": 0.29133858267716534
          },
          {
            "number": 1,
            "ticks": 6961,
            "time": 53.05637944791667,
            "value": 0.28346456692913385
          },
          {
            "number": 1,
            "ticks": 6962,
            "time": 53.06400139583333,
            "value": 0.2755905511811024
          },
          {
            "number": 1,
            "ticks": 6963,
            "time": 53.07162334375,
            "value": 0.2677165354330709
          },
          {
            "number": 1,
            "ticks": 6964,
            "time": 53.07924529166667,
            "value": 0.25984251968503935
          },
          {
            "number": 1,
            "ticks": 6965,
            "time": 53.08686723958333,
            "value": 0.25196850393700787
          },
          {
            "number": 1,
            "ticks": 6966,
            "time": 53.0944891875,
            "value": 0.2440944881889764
          },
          {
            "number": 1,
            "ticks": 6967,
            "time": 53.10211113541667,
            "value": 0.23622047244094488
          },
          {
            "number": 1,
            "ticks": 6968,
            "time": 53.10973308333333,
            "value": 0.2283464566929134
          },
          {
            "number": 1,
            "ticks": 6969,
            "time": 53.11735503125,
            "value": 0.2204724409448819
          },
          {
            "number": 1,
            "ticks": 6970,
            "time": 53.12497697916667,
            "value": 0.2125984251968504
          },
          {
            "number": 1,
            "ticks": 6972,
            "time": 53.140220875,
            "value": 0.2047244094488189
          },
          {
            "number": 1,
            "ticks": 6973,
            "time": 53.14784282291667,
            "value": 0.1968503937007874
          },
          {
            "number": 1,
            "ticks": 6974,
            "time": 53.155464770833326,
            "value": 0.1889763779527559
          },
          {
            "number": 1,
            "ticks": 6975,
            "time": 53.16308671875,
            "value": 0.18110236220472442
          },
          {
            "number": 1,
            "ticks": 6976,
            "time": 53.17070866666667,
            "value": 0.1732283464566929
          },
          {
            "number": 1,
            "ticks": 6977,
            "time": 53.17833061458333,
            "value": 0.16535433070866143
          },
          {
            "number": 1,
            "ticks": 6978,
            "time": 53.1859525625,
            "value": 0.15748031496062992
          },
          {
            "number": 1,
            "ticks": 6979,
            "time": 53.19357451041667,
            "value": 0.14960629921259844
          },
          {
            "number": 1,
            "ticks": 6980,
            "time": 53.20119645833333,
            "value": 0.14173228346456693
          },
          {
            "number": 1,
            "ticks": 6981,
            "time": 53.208818406249996,
            "value": 0.13385826771653545
          },
          {
            "number": 1,
            "ticks": 6982,
            "time": 53.21644035416667,
            "value": 0.12598425196850394
          },
          {
            "number": 1,
            "ticks": 6983,
            "time": 53.22406230208333,
            "value": 0.11811023622047244
          },
          {
            "number": 1,
            "ticks": 6984,
            "time": 53.23168425,
            "value": 0.11023622047244094
          },
          {
            "number": 1,
            "ticks": 6986,
            "time": 53.24692814583333,
            "value": 0.10236220472440945
          },
          {
            "number": 1,
            "ticks": 6987,
            "time": 53.25455009375,
            "value": 0.09448818897637795
          },
          {
            "number": 1,
            "ticks": 6988,
            "time": 53.26217204166667,
            "value": 0.08661417322834646
          },
          {
            "number": 1,
            "ticks": 6989,
            "time": 53.26979398958333,
            "value": 0.07874015748031496
          },
          {
            "number": 1,
            "ticks": 6990,
            "time": 53.2774159375,
            "value": 0.07086614173228346
          },
          {
            "number": 1,
            "ticks": 6991,
            "time": 53.28503788541667,
            "value": 0.06299212598425197
          },
          {
            "number": 1,
            "ticks": 6992,
            "time": 53.29265983333333,
            "value": 0.05511811023622047
          },
          {
            "number": 1,
            "ticks": 6993,
            "time": 53.30028178125,
            "value": 0.047244094488188976
          },
          {
            "number": 1,
            "ticks": 6994,
            "time": 53.30790372916667,
            "value": 0.03937007874015748
          },
          {
            "number": 1,
            "ticks": 6995,
            "time": 53.31552567708333,
            "value": 0.031496062992125984
          },
          {
            "number": 1,
            "ticks": 6996,
            "time": 53.323147625,
            "value": 0.023622047244094488
          },
          {
            "number": 1,
            "ticks": 6997,
            "time": 53.33076957291667,
            "value": 0.015748031496062992
          },
          {
            "number": 1,
            "ticks": 6998,
            "time": 53.338391520833326,
            "value": 0.007874015748031496
          },
          {
            "number": 1,
            "ticks": 6999,
            "time": 53.34601346875,
            "value": 0
          },
          {
            "number": 1,
            "ticks": 7295,
            "time": 55.60211005208333,
            "value": 0.007874015748031496
          },
          {
            "number": 1,
            "ticks": 7299,
            "time": 55.63259784375,
            "value": 0.015748031496062992
          },
          {
            "number": 1,
            "ticks": 7303,
            "time": 55.66308563541667,
            "value": 0.023622047244094488
          },
          {
            "number": 1,
            "ticks": 7307,
            "time": 55.69357342708333,
            "value": 0.031496062992125984
          },
          {
            "number": 1,
            "ticks": 7311,
            "time": 55.72406121875,
            "value": 0.03937007874015748
          },
          {
            "number": 1,
            "ticks": 7316,
            "time": 55.76217095833333,
            "value": 0.047244094488188976
          },
          {
            "number": 1,
            "ticks": 7320,
            "time": 55.79265875,
            "value": 0.05511811023622047
          },
          {
            "number": 1,
            "ticks": 7324,
            "time": 55.82314654166667,
            "value": 0.06299212598425197
          },
          {
            "number": 1,
            "ticks": 7328,
            "time": 55.85363433333333,
            "value": 0.07086614173228346
          },
          {
            "number": 1,
            "ticks": 7332,
            "time": 55.884122125,
            "value": 0.07874015748031496
          },
          {
            "number": 1,
            "ticks": 7337,
            "time": 55.92223186458333,
            "value": 0.08661417322834646
          },
          {
            "number": 1,
            "ticks": 7341,
            "time": 55.95271965625,
            "value": 0.09448818897637795
          },
          {
            "number": 1,
            "ticks": 7345,
            "time": 55.98320744791667,
            "value": 0.10236220472440945
          },
          {
            "number": 1,
            "ticks": 7349,
            "time": 56.01369523958333,
            "value": 0.11023622047244094
          },
          {
            "number": 1,
            "ticks": 7353,
            "time": 56.04418303125,
            "value": 0.11811023622047244
          },
          {
            "number": 1,
            "ticks": 7358,
            "time": 56.08229277083333,
            "value": 0.12598425196850394
          },
          {
            "number": 1,
            "ticks": 7362,
            "time": 56.1127805625,
            "value": 0.13385826771653545
          },
          {
            "number": 1,
            "ticks": 7366,
            "time": 56.14326835416667,
            "value": 0.14173228346456693
          },
          {
            "number": 1,
            "ticks": 7370,
            "time": 56.17375614583333,
            "value": 0.14960629921259844
          },
          {
            "number": 1,
            "ticks": 7374,
            "time": 56.2042439375,
            "value": 0.15748031496062992
          },
          {
            "number": 1,
            "ticks": 7379,
            "time": 56.24235367708333,
            "value": 0.16535433070866143
          },
          {
            "number": 1,
            "ticks": 7383,
            "time": 56.27284146875,
            "value": 0.1732283464566929
          },
          {
            "number": 1,
            "ticks": 7387,
            "time": 56.30332926041667,
            "value": 0.18110236220472442
          },
          {
            "number": 1,
            "ticks": 7391,
            "time": 56.33381705208333,
            "value": 0.1889763779527559
          },
          {
            "number": 1,
            "ticks": 7395,
            "time": 56.36430484375,
            "value": 0.1968503937007874
          },
          {
            "number": 1,
            "ticks": 7400,
            "time": 56.40241458333333,
            "value": 0.2047244094488189
          },
          {
            "number": 1,
            "ticks": 7404,
            "time": 56.432902375,
            "value": 0.2125984251968504
          },
          {
            "number": 1,
            "ticks": 7408,
            "time": 56.46339016666667,
            "value": 0.2204724409448819
          },
          {
            "number": 1,
            "ticks": 7412,
            "time": 56.49387795833333,
            "value": 0.2283464566929134
          },
          {
            "number": 1,
            "ticks": 7416,
            "time": 56.52436575,
            "value": 0.23622047244094488
          },
          {
            "number": 1,
            "ticks": 7421,
            "time": 56.56247548958333,
            "value": 0.2440944881889764
          },
          {
            "number": 1,
            "ticks": 7425,
            "time": 56.59296328125,
            "value": 0.25196850393700787
          },
          {
            "number": 1,
            "ticks": 7429,
            "time": 56.62345107291667,
            "value": 0.25984251968503935
          },
          {
            "number": 1,
            "ticks": 7433,
            "time": 56.65393886458333,
            "value": 0.2677165354330709
          },
          {
            "number": 1,
            "ticks": 7437,
            "time": 56.68442665625,
            "value": 0.2755905511811024
          },
          {
            "number": 1,
            "ticks": 7442,
            "time": 56.72253639583333,
            "value": 0.28346456692913385
          },
          {
            "number": 1,
            "ticks": 7446,
            "time": 56.7530241875,
            "value": 0.29133858267716534
          },
          {
            "number": 1,
            "ticks": 7450,
            "time": 56.78351197916667,
            "value": 0.2992125984251969
          },
          {
            "number": 1,
            "ticks": 7454,
            "time": 56.81399977083333,
            "value": 0.30708661417322836
          },
          {
            "number": 1,
            "ticks": 7458,
            "time": 56.8444875625,
            "value": 0.31496062992125984
          },
          {
            "number": 1,
            "ticks": 7463,
            "time": 56.88259730208333,
            "value": 0.3228346456692913
          },
          {
            "number": 1,
            "ticks": 7467,
            "time": 56.91308509375,
            "value": 0.33070866141732286
          },
          {
            "number": 1,
            "ticks": 7471,
            "time": 56.94357288541667,
            "value": 0.33858267716535434
          },
          {
            "number": 1,
            "ticks": 7475,
            "time": 56.97406067708333,
            "value": 0.3464566929133858
          },
          {
            "number": 1,
            "ticks": 7479,
            "time": 57.00454846875,
            "value": 0.3543307086614173
          },
          {
            "number": 1,
            "ticks": 7484,
            "time": 57.04265820833333,
            "value": 0.36220472440944884
          },
          {
            "number": 1,
            "ticks": 7488,
            "time": 57.073146,
            "value": 0.3700787401574803
          },
          {
            "number": 1,
            "ticks": 7492,
            "time": 57.10363379166667,
            "value": 0.3779527559055118
          },
          {
            "number": 1,
            "ticks": 7496,
            "time": 57.13412158333333,
            "value": 0.3858267716535433
          },
          {
            "number": 1,
            "ticks": 7500,
            "time": 57.164609375,
            "value": 0.3937007874015748
          },
          {
            "number": 1,
            "ticks": 7505,
            "time": 57.20271911458333,
            "value": 0.4015748031496063
          },
          {
            "number": 1,
            "ticks": 7509,
            "time": 57.23320690625,
            "value": 0.4094488188976378
          },
          {
            "number": 1,
            "ticks": 7513,
            "time": 57.26369469791667,
            "value": 0.41732283464566927
          },
          {
            "number": 1,
            "ticks": 7517,
            "time": 57.29418248958333,
            "value": 0.4251968503937008
          },
          {
            "number": 1,
            "ticks": 7521,
            "time": 57.32467028125,
            "value": 0.4330708661417323
          },
          {
            "number": 1,
            "ticks": 7526,
            "time": 57.36278002083333,
            "value": 0.4409448818897638
          },
          {
            "number": 1,
            "ticks": 7530,
            "time": 57.3932678125,
            "value": 0.44881889763779526
          },
          {
            "number": 1,
            "ticks": 7534,
            "time": 57.42375560416667,
            "value": 0.4566929133858268
          },
          {
            "number": 1,
            "ticks": 7538,
            "time": 57.45424339583333,
            "value": 0.4645669291338583
          },
          {
            "number": 1,
            "ticks": 7542,
            "time": 57.4847311875,
            "value": 0.47244094488188976
          },
          {
            "number": 1,
            "ticks": 7547,
            "time": 57.52284092708333,
            "value": 0.48031496062992124
          },
          {
            "number": 1,
            "ticks": 7551,
            "time": 57.55332871875,
            "value": 0.4881889763779528
          },
          {
            "number": 1,
            "ticks": 7555,
            "time": 57.58381651041667,
            "value": 0.49606299212598426
          },
          {
            "number": 1,
            "ticks": 7559,
            "time": 57.614304302083326,
            "value": 0.5039370078740157
          },
          {
            "number": 1,
            "ticks": 7563,
            "time": 57.64479209375,
            "value": 0.5118110236220472
          },
          {
            "number": 1,
            "ticks": 7568,
            "time": 57.68290183333333,
            "value": 0.5196850393700787
          },
          {
            "number": 1,
            "ticks": 7572,
            "time": 57.713389625,
            "value": 0.5275590551181102
          },
          {
            "number": 1,
            "ticks": 7576,
            "time": 57.74387741666667,
            "value": 0.5354330708661418
          },
          {
            "number": 1,
            "ticks": 7580,
            "time": 57.77436520833333,
            "value": 0.5433070866141733
          },
          {
            "number": 1,
            "ticks": 7584,
            "time": 57.804853,
            "value": 0.5511811023622047
          },
          {
            "number": 1,
            "ticks": 7680,
            "time": 58.53656,
            "value": 0.5433070866141733
          },
          {
            "number": 1,
            "ticks": 7681,
            "time": 58.54418194791667,
            "value": 0.5354330708661418
          },
          {
            "number": 1,
            "ticks": 7682,
            "time": 58.55180389583333,
            "value": 0.5275590551181102
          },
          {
            "number": 1,
            "ticks": 7683,
            "time": 58.55942584375,
            "value": 0.5196850393700787
          },
          {
            "number": 1,
            "ticks": 7684,
            "time": 58.56704779166667,
            "value": 0.5118110236220472
          },
          {
            "number": 1,
            "ticks": 7685,
            "time": 58.57466973958333,
            "value": 0.5039370078740157
          },
          {
            "number": 1,
            "ticks": 7686,
            "time": 58.582291687499996,
            "value": 0.49606299212598426
          },
          {
            "number": 1,
            "ticks": 7687,
            "time": 58.58991363541667,
            "value": 0.4881889763779528
          },
          {
            "number": 1,
            "ticks": 7688,
            "time": 58.59753558333333,
            "value": 0.48031496062992124
          },
          {
            "number": 1,
            "ticks": 7689,
            "time": 58.60515753125,
            "value": 0.47244094488188976
          },
          {
            "number": 1,
            "ticks": 7690,
            "time": 58.61277947916667,
            "value": 0.4645669291338583
          },
          {
            "number": 1,
            "ticks": 7691,
            "time": 58.62040142708333,
            "value": 0.4566929133858268
          },
          {
            "number": 1,
            "ticks": 7692,
            "time": 58.628023375,
            "value": 0.44881889763779526
          },
          {
            "number": 1,
            "ticks": 7693,
            "time": 58.63564532291667,
            "value": 0.4409448818897638
          },
          {
            "number": 1,
            "ticks": 7694,
            "time": 58.64326727083333,
            "value": 0.4330708661417323
          },
          {
            "number": 1,
            "ticks": 7695,
            "time": 58.65088921875,
            "value": 0.4251968503937008
          },
          {
            "number": 1,
            "ticks": 7696,
            "time": 58.65851116666667,
            "value": 0.41732283464566927
          },
          {
            "number": 1,
            "ticks": 7697,
            "time": 58.66613311458333,
            "value": 0.4094488188976378
          },
          {
            "number": 1,
            "ticks": 7698,
            "time": 58.6737550625,
            "value": 0.4015748031496063
          },
          {
            "number": 1,
            "ticks": 7699,
            "time": 58.68137701041667,
            "value": 0.3937007874015748
          },
          {
            "number": 1,
            "ticks": 7700,
            "time": 58.68899895833333,
            "value": 0.3858267716535433
          },
          {
            "number": 1,
            "ticks": 7701,
            "time": 58.69662090625,
            "value": 0.3779527559055118
          },
          {
            "number": 1,
            "ticks": 7702,
            "time": 58.70424285416667,
            "value": 0.3700787401574803
          },
          {
            "number": 1,
            "ticks": 7703,
            "time": 58.711864802083326,
            "value": 0.36220472440944884
          },
          {
            "number": 1,
            "ticks": 7704,
            "time": 58.71948675,
            "value": 0.3543307086614173
          },
          {
            "number": 1,
            "ticks": 7705,
            "time": 58.72710869791667,
            "value": 0.3464566929133858
          },
          {
            "number": 1,
            "ticks": 7706,
            "time": 58.73473064583333,
            "value": 0.33858267716535434
          },
          {
            "number": 1,
            "ticks": 7707,
            "time": 58.74235259375,
            "value": 0.33070866141732286
          },
          {
            "number": 1,
            "ticks": 7708,
            "time": 58.74997454166667,
            "value": 0.3228346456692913
          },
          {
            "number": 1,
            "ticks": 7709,
            "time": 58.75759648958333,
            "value": 0.31496062992125984
          },
          {
            "number": 1,
            "ticks": 7710,
            "time": 58.765218437499996,
            "value": 0.30708661417322836
          },
          {
            "number": 1,
            "ticks": 7711,
            "time": 58.77284038541667,
            "value": 0.2992125984251969
          },
          {
            "number": 1,
            "ticks": 7712,
            "time": 58.78046233333333,
            "value": 0.29133858267716534
          },
          {
            "number": 1,
            "ticks": 7713,
            "time": 58.78808428125,
            "value": 0.28346456692913385
          },
          {
            "number": 1,
            "ticks": 7714,
            "time": 58.79570622916667,
            "value": 0.2755905511811024
          },
          {
            "number": 1,
            "ticks": 7715,
            "time": 58.80332817708333,
            "value": 0.2677165354330709
          },
          {
            "number": 1,
            "ticks": 7716,
            "time": 58.810950125,
            "value": 0.25984251968503935
          },
          {
            "number": 1,
            "ticks": 7717,
            "time": 58.81857207291667,
            "value": 0.25196850393700787
          },
          {
            "number": 1,
            "ticks": 7718,
            "time": 58.82619402083333,
            "value": 0.2440944881889764
          },
          {
            "number": 1,
            "ticks": 7719,
            "time": 58.83381596875,
            "value": 0.23622047244094488
          },
          {
            "number": 1,
            "ticks": 7720,
            "time": 58.84143791666667,
            "value": 0.2283464566929134
          },
          {
            "number": 1,
            "ticks": 7721,
            "time": 58.84905986458333,
            "value": 0.2204724409448819
          },
          {
            "number": 1,
            "ticks": 7722,
            "time": 58.8566818125,
            "value": 0.2125984251968504
          },
          {
            "number": 1,
            "ticks": 7723,
            "time": 58.86430376041667,
            "value": 0.2047244094488189
          },
          {
            "number": 1,
            "ticks": 7724,
            "time": 58.87192570833333,
            "value": 0.1968503937007874
          },
          {
            "number": 1,
            "ticks": 7725,
            "time": 58.87954765625,
            "value": 0.1889763779527559
          },
          {
            "number": 1,
            "ticks": 7726,
            "time": 58.88716960416667,
            "value": 0.18110236220472442
          },
          {
            "number": 1,
            "ticks": 7727,
            "time": 58.894791552083326,
            "value": 0.1732283464566929
          },
          {
            "number": 1,
            "ticks": 7728,
            "time": 58.9024135,
            "value": 0.16535433070866143
          },
          {
            "number": 1,
            "ticks": 7729,
            "time": 58.91003544791667,
            "value": 0.15748031496062992
          },
          {
            "number": 1,
            "ticks": 7730,
            "time": 58.91765739583333,
            "value": 0.14960629921259844
          },
          {
            "number": 1,
            "ticks": 7731,
            "time": 58.92527934375,
            "value": 0.14173228346456693
          },
          {
            "number": 1,
            "ticks": 7732,
            "time": 58.93290129166667,
            "value": 0.13385826771653545
          },
          {
            "number": 1,
            "ticks": 7733,
            "time": 58.94052323958333,
            "value": 0.12598425196850394
          },
          {
            "number": 1,
            "ticks": 7734,
            "time": 58.948145187499996,
            "value": 0.11811023622047244
          },
          {
            "number": 1,
            "ticks": 7735,
            "time": 58.95576713541667,
            "value": 0.11023622047244094
          },
          {
            "number": 1,
            "ticks": 7736,
            "time": 58.96338908333333,
            "value": 0.10236220472440945
          },
          {
            "number": 1,
            "ticks": 7737,
            "time": 58.97101103125,
            "value": 0.09448818897637795
          },
          {
            "number": 1,
            "ticks": 7738,
            "time": 58.97863297916667,
            "value": 0.08661417322834646
          },
          {
            "number": 1,
            "ticks": 7739,
            "time": 58.98625492708333,
            "value": 0.07874015748031496
          },
          {
            "number": 1,
            "ticks": 7740,
            "time": 58.993876875,
            "value": 0.07086614173228346
          },
          {
            "number": 1,
            "ticks": 7741,
            "time": 59.00149882291667,
            "value": 0.06299212598425197
          },
          {
            "number": 1,
            "ticks": 7742,
            "time": 59.00912077083333,
            "value": 0.05511811023622047
          },
          {
            "number": 1,
            "ticks": 7743,
            "time": 59.01674271875,
            "value": 0.047244094488188976
          },
          {
            "number": 1,
            "ticks": 7744,
            "time": 59.02436466666667,
            "value": 0.03937007874015748
          },
          {
            "number": 1,
            "ticks": 7745,
            "time": 59.03198661458333,
            "value": 0.031496062992125984
          },
          {
            "number": 1,
            "ticks": 7746,
            "time": 59.0396085625,
            "value": 0.023622047244094488
          },
          {
            "number": 1,
            "ticks": 7747,
            "time": 59.04723051041667,
            "value": 0.015748031496062992
          },
          {
            "number": 1,
            "ticks": 7748,
            "time": 59.05485245833333,
            "value": 0
          },
          {
            "number": 1,
            "ticks": 12675,
            "time": 96.60818984375,
            "value": 0.007874015748031496
          },
          {
            "number": 1,
            "ticks": 12680,
            "time": 96.64629958333335,
            "value": 0.015748031496062992
          },
          {
            "number": 1,
            "ticks": 12684,
            "time": 96.676787375,
            "value": 0.023622047244094488
          },
          {
            "number": 1,
            "ticks": 12689,
            "time": 96.71489711458334,
            "value": 0.031496062992125984
          },
          {
            "number": 1,
            "ticks": 12693,
            "time": 96.74538490625,
            "value": 0.03937007874015748
          },
          {
            "number": 1,
            "ticks": 12698,
            "time": 96.78349464583334,
            "value": 0.047244094488188976
          },
          {
            "number": 1,
            "ticks": 12702,
            "time": 96.8139824375,
            "value": 0.05511811023622047
          },
          {
            "number": 1,
            "ticks": 12707,
            "time": 96.85209217708334,
            "value": 0.06299212598425197
          },
          {
            "number": 1,
            "ticks": 12711,
            "time": 96.88257996875,
            "value": 0.07086614173228346
          },
          {
            "number": 1,
            "ticks": 12716,
            "time": 96.92068970833334,
            "value": 0.07874015748031496
          },
          {
            "number": 1,
            "ticks": 12720,
            "time": 96.9511775,
            "value": 0.08661417322834646
          },
          {
            "number": 1,
            "ticks": 12725,
            "time": 96.98928723958333,
            "value": 0.09448818897637795
          },
          {
            "number": 1,
            "ticks": 12729,
            "time": 97.01977503125,
            "value": 0.10236220472440945
          },
          {
            "number": 1,
            "ticks": 12734,
            "time": 97.05788477083334,
            "value": 0.11023622047244094
          },
          {
            "number": 1,
            "ticks": 12738,
            "time": 97.0883725625,
            "value": 0.11811023622047244
          },
          {
            "number": 1,
            "ticks": 12743,
            "time": 97.12648230208335,
            "value": 0.12598425196850394
          },
          {
            "number": 1,
            "ticks": 12747,
            "time": 97.15697009375,
            "value": 0.13385826771653545
          },
          {
            "number": 1,
            "ticks": 12752,
            "time": 97.19507983333334,
            "value": 0.14173228346456693
          },
          {
            "number": 1,
            "ticks": 12756,
            "time": 97.225567625,
            "value": 0.14960629921259844
          },
          {
            "number": 1,
            "ticks": 12761,
            "time": 97.26367736458334,
            "value": 0.15748031496062992
          },
          {
            "number": 1,
            "ticks": 12765,
            "time": 97.29416515625,
            "value": 0.16535433070866143
          },
          {
            "number": 1,
            "ticks": 12770,
            "time": 97.33227489583334,
            "value": 0.1732283464566929
          },
          {
            "number": 1,
            "ticks": 12774,
            "time": 97.3627626875,
            "value": 0.18110236220472442
          },
          {
            "number": 1,
            "ticks": 12779,
            "time": 97.40087242708334,
            "value": 0.1889763779527559
          },
          {
            "number": 1,
            "ticks": 12783,
            "time": 97.43136021875,
            "value": 0.1968503937007874
          },
          {
            "number": 1,
            "ticks": 12788,
            "time": 97.46946995833333,
            "value": 0.2047244094488189
          },
          {
            "number": 1,
            "ticks": 12792,
            "time": 97.49995775,
            "value": 0.2125984251968504
          },
          {
            "number": 1,
            "ticks": 12797,
            "time": 97.53806748958334,
            "value": 0.2204724409448819
          },
          {
            "number": 1,
            "ticks": 12801,
            "time": 97.56855528125,
            "value": 0.2283464566929134
          },
          {
            "number": 1,
            "ticks": 12806,
            "time": 97.60666502083333,
            "value": 0.23622047244094488
          },
          {
            "number": 1,
            "ticks": 12810,
            "time": 97.6371528125,
            "value": 0.2440944881889764
          },
          {
            "number": 1,
            "ticks": 12815,
            "time": 97.67526255208334,
            "value": 0.25196850393700787
          },
          {
            "number": 1,
            "ticks": 12820,
            "time": 97.71337229166666,
            "value": 0.25984251968503935
          },
          {
            "number": 1,
            "ticks": 12824,
            "time": 97.74386008333335,
            "value": 0.2677165354330709
          },
          {
            "number": 1,
            "ticks": 12829,
            "time": 97.78196982291666,
            "value": 0.2755905511811024
          },
          {
            "number": 1,
            "ticks": 12833,
            "time": 97.81245761458334,
            "value": 0.28346456692913385
          },
          {
            "number": 1,
            "ticks": 12838,
            "time": 97.85056735416666,
            "value": 0.29133858267716534
          },
          {
            "number": 1,
            "ticks": 12842,
            "time": 97.88105514583334,
            "value": 0.2992125984251969
          },
          {
            "number": 1,
            "ticks": 12847,
            "time": 97.91916488541666,
            "value": 0.30708661417322836
          },
          {
            "number": 1,
            "ticks": 12851,
            "time": 97.94965267708334,
            "value": 0.31496062992125984
          },
          {
            "number": 1,
            "ticks": 12856,
            "time": 97.98776241666665,
            "value": 0.3228346456692913
          },
          {
            "number": 1,
            "ticks": 12860,
            "time": 98.01825020833334,
            "value": 0.33070866141732286
          },
          {
            "number": 1,
            "ticks": 12865,
            "time": 98.05635994791666,
            "value": 0.33858267716535434
          },
          {
            "number": 1,
            "ticks": 12869,
            "time": 98.08684773958333,
            "value": 0.3464566929133858
          },
          {
            "number": 1,
            "ticks": 12874,
            "time": 98.12495747916665,
            "value": 0.3543307086614173
          },
          {
            "number": 1,
            "ticks": 12878,
            "time": 98.15544527083334,
            "value": 0.36220472440944884
          },
          {
            "number": 1,
            "ticks": 12883,
            "time": 98.19355501041666,
            "value": 0.3700787401574803
          },
          {
            "number": 1,
            "ticks": 12887,
            "time": 98.22404280208335,
            "value": 0.3779527559055118
          },
          {
            "number": 1,
            "ticks": 12892,
            "time": 98.26215254166667,
            "value": 0.3858267716535433
          },
          {
            "number": 1,
            "ticks": 12896,
            "time": 98.29264033333334,
            "value": 0.3937007874015748
          },
          {
            "number": 1,
            "ticks": 12901,
            "time": 98.33075007291666,
            "value": 0.4015748031496063
          },
          {
            "number": 1,
            "ticks": 12905,
            "time": 98.36123786458334,
            "value": 0.4094488188976378
          },
          {
            "number": 1,
            "ticks": 12910,
            "time": 98.39934760416666,
            "value": 0.41732283464566927
          },
          {
            "number": 1,
            "ticks": 12914,
            "time": 98.42983539583334,
            "value": 0.4251968503937008
          },
          {
            "number": 1,
            "ticks": 12919,
            "time": 98.46794513541666,
            "value": 0.4330708661417323
          },
          {
            "number": 1,
            "ticks": 12923,
            "time": 98.49843292708334,
            "value": 0.4409448818897638
          },
          {
            "number": 1,
            "ticks": 12928,
            "time": 98.53654266666666,
            "value": 0.44881889763779526
          },
          {
            "number": 1,
            "ticks": 12932,
            "time": 98.56703045833333,
            "value": 0.4566929133858268
          },
          {
            "number": 1,
            "ticks": 12937,
            "time": 98.60514019791665,
            "value": 0.4645669291338583
          },
          {
            "number": 1,
            "ticks": 12941,
            "time": 98.63562798958334,
            "value": 0.47244094488188976
          },
          {
            "number": 1,
            "ticks": 12946,
            "time": 98.67373772916666,
            "value": 0.48031496062992124
          },
          {
            "number": 1,
            "ticks": 12950,
            "time": 98.70422552083333,
            "value": 0.4881889763779528
          },
          {
            "number": 1,
            "ticks": 12955,
            "time": 98.74233526041665,
            "value": 0.49606299212598426
          },
          {
            "number": 1,
            "ticks": 12959,
            "time": 98.77282305208334,
            "value": 0.5039370078740157
          },
          {
            "number": 1,
            "ticks": 12961,
            "time": 98.78806694791666,
            "value": 0.4094488188976378
          },
          {
            "number": 1,
            "ticks": 12962,
            "time": 98.79568889583334,
            "value": 0.5039370078740157
          },
          {
            "number": 1,
            "ticks": 13062,
            "time": 99.5578836875,
            "value": 0.49606299212598426
          },
          {
            "number": 1,
            "ticks": 13063,
            "time": 99.56550563541666,
            "value": 0.4881889763779528
          },
          {
            "number": 1,
            "ticks": 13064,
            "time": 99.57312758333335,
            "value": 0.48031496062992124
          },
          {
            "number": 1,
            "ticks": 13065,
            "time": 99.58074953124999,
            "value": 0.47244094488188976
          },
          {
            "number": 1,
            "ticks": 13067,
            "time": 99.59599342708334,
            "value": 0.4645669291338583
          },
          {
            "number": 1,
            "ticks": 13068,
            "time": 99.603615375,
            "value": 0.4566929133858268
          },
          {
            "number": 1,
            "ticks": 13069,
            "time": 99.61123732291666,
            "value": 0.44881889763779526
          },
          {
            "number": 1,
            "ticks": 13070,
            "time": 99.61885927083334,
            "value": 0.4409448818897638
          },
          {
            "number": 1,
            "ticks": 13071,
            "time": 99.62648121875,
            "value": 0.4330708661417323
          },
          {
            "number": 1,
            "ticks": 13073,
            "time": 99.64172511458334,
            "value": 0.4251968503937008
          },
          {
            "number": 1,
            "ticks": 13074,
            "time": 99.6493470625,
            "value": 0.41732283464566927
          },
          {
            "number": 1,
            "ticks": 13075,
            "time": 99.65696901041666,
            "value": 0.4094488188976378
          },
          {
            "number": 1,
            "ticks": 13076,
            "time": 99.66459095833333,
            "value": 0.4015748031496063
          },
          {
            "number": 1,
            "ticks": 13078,
            "time": 99.67983485416666,
            "value": 0.3937007874015748
          },
          {
            "number": 1,
            "ticks": 13079,
            "time": 99.68745680208335,
            "value": 0.3858267716535433
          },
          {
            "number": 1,
            "ticks": 13080,
            "time": 99.69507875,
            "value": 0.3779527559055118
          },
          {
            "number": 1,
            "ticks": 13081,
            "time": 99.70270069791665,
            "value": 0.3700787401574803
          },
          {
            "number": 1,
            "ticks": 13082,
            "time": 99.71032264583334,
            "value": 0.36220472440944884
          },
          {
            "number": 1,
            "ticks": 13084,
            "time": 99.72556654166667,
            "value": 0.3543307086614173
          },
          {
            "number": 1,
            "ticks": 13085,
            "time": 99.73318848958334,
            "value": 0.3464566929133858
          },
          {
            "number": 1,
            "ticks": 13086,
            "time": 99.7408104375,
            "value": 0.33858267716535434
          },
          {
            "number": 1,
            "ticks": 13087,
            "time": 99.74843238541666,
            "value": 0.33070866141732286
          },
          {
            "number": 1,
            "ticks": 13089,
            "time": 99.76367628125,
            "value": 0.3228346456692913
          },
          {
            "number": 1,
            "ticks": 13090,
            "time": 99.77129822916666,
            "value": 0.31496062992125984
          },
          {
            "number": 1,
            "ticks": 13091,
            "time": 99.77892017708334,
            "value": 0.30708661417322836
          },
          {
            "number": 1,
            "ticks": 13092,
            "time": 99.786542125,
            "value": 0.2992125984251969
          },
          {
            "number": 1,
            "ticks": 13093,
            "time": 99.79416407291666,
            "value": 0.29133858267716534
          },
          {
            "number": 1,
            "ticks": 13095,
            "time": 99.80940796875,
            "value": 0.28346456692913385
          },
          {
            "number": 1,
            "ticks": 13096,
            "time": 99.81702991666666,
            "value": 0.2755905511811024
          },
          {
            "number": 1,
            "ticks": 13097,
            "time": 99.82465186458334,
            "value": 0.2677165354330709
          },
          {
            "number": 1,
            "ticks": 13098,
            "time": 99.8322738125,
            "value": 0.25984251968503935
          },
          {
            "number": 1,
            "ticks": 13099,
            "time": 99.83989576041665,
            "value": 0.25196850393700787
          },
          {
            "number": 1,
            "ticks": 13101,
            "time": 99.85513965625,
            "value": 0.2440944881889764
          },
          {
            "number": 1,
            "ticks": 13102,
            "time": 99.86276160416666,
            "value": 0.23622047244094488
          },
          {
            "number": 1,
            "ticks": 13103,
            "time": 99.87038355208334,
            "value": 0.2283464566929134
          },
          {
            "number": 1,
            "ticks": 13104,
            "time": 99.8780055,
            "value": 0.2204724409448819
          },
          {
            "number": 1,
            "ticks": 13106,
            "time": 99.89324939583334,
            "value": 0.2125984251968504
          },
          {
            "number": 1,
            "ticks": 13107,
            "time": 99.90087134375,
            "value": 0.2047244094488189
          },
          {
            "number": 1,
            "ticks": 13108,
            "time": 99.90849329166666,
            "value": 0.1968503937007874
          },
          {
            "number": 1,
            "ticks": 13109,
            "time": 99.91611523958333,
            "value": 0.1889763779527559
          },
          {
            "number": 1,
            "ticks": 13110,
            "time": 99.9237371875,
            "value": 0.18110236220472442
          },
          {
            "number": 1,
            "ticks": 13112,
            "time": 99.93898108333335,
            "value": 0.1732283464566929
          },
          {
            "number": 1,
            "ticks": 13113,
            "time": 99.94660303124999,
            "value": 0.16535433070866143
          },
          {
            "number": 1,
            "ticks": 13114,
            "time": 99.95422497916665,
            "value": 0.15748031496062992
          },
          {
            "number": 1,
            "ticks": 13115,
            "time": 99.96184692708334,
            "value": 0.14960629921259844
          },
          {
            "number": 1,
            "ticks": 13117,
            "time": 99.97709082291667,
            "value": 0.14173228346456693
          },
          {
            "number": 1,
            "ticks": 13118,
            "time": 99.98471277083334,
            "value": 0.13385826771653545
          },
          {
            "number": 1,
            "ticks": 13119,
            "time": 99.99233471875,
            "value": 0.12598425196850394
          },
          {
            "number": 1,
            "ticks": 13120,
            "time": 99.99995666666666,
            "value": 0.11811023622047244
          },
          {
            "number": 1,
            "ticks": 13121,
            "time": 100.00757861458334,
            "value": 0.11023622047244094
          },
          {
            "number": 1,
            "ticks": 13123,
            "time": 100.02282251041666,
            "value": 0.10236220472440945
          },
          {
            "number": 1,
            "ticks": 13124,
            "time": 100.03044445833333,
            "value": 0.09448818897637795
          },
          {
            "number": 1,
            "ticks": 13125,
            "time": 100.03806640625,
            "value": 0.08661417322834646
          },
          {
            "number": 1,
            "ticks": 13126,
            "time": 100.04568835416666,
            "value": 0.07874015748031496
          },
          {
            "number": 1,
            "ticks": 13128,
            "time": 100.06093225,
            "value": 0.07086614173228346
          },
          {
            "number": 1,
            "ticks": 13129,
            "time": 100.06855419791665,
            "value": 0.06299212598425197
          },
          {
            "number": 1,
            "ticks": 13130,
            "time": 100.07617614583334,
            "value": 0.05511811023622047
          },
          {
            "number": 1,
            "ticks": 13131,
            "time": 100.08379809375,
            "value": 0.047244094488188976
          },
          {
            "number": 1,
            "ticks": 13132,
            "time": 100.09142004166667,
            "value": 0.03937007874015748
          },
          {
            "number": 1,
            "ticks": 13134,
            "time": 100.1066639375,
            "value": 0.031496062992125984
          },
          {
            "number": 1,
            "ticks": 13135,
            "time": 100.11428588541666,
            "value": 0.023622047244094488
          },
          {
            "number": 1,
            "ticks": 13136,
            "time": 100.12190783333334,
            "value": 0.015748031496062992
          },
          {
            "number": 1,
            "ticks": 13137,
            "time": 100.12952978125,
            "value": 0.007874015748031496
          },
          {
            "number": 1,
            "ticks": 13138,
            "time": 100.13715172916666,
            "value": 0
          },
          {
            "number": 1,
            "ticks": 13442,
            "time": 102.45422389583334,
            "value": 0.007874015748031496
          },
          {
            "number": 1,
            "ticks": 13447,
            "time": 102.49233363541666,
            "value": 0.015748031496062992
          },
          {
            "number": 1,
            "ticks": 13452,
            "time": 102.530443375,
            "value": 0.023622047244094488
          },
          {
            "number": 1,
            "ticks": 13457,
            "time": 102.56855311458334,
            "value": 0.031496062992125984
          },
          {
            "number": 1,
            "ticks": 13462,
            "time": 102.60666285416666,
            "value": 0.03937007874015748
          },
          {
            "number": 1,
            "ticks": 13467,
            "time": 102.64477259375,
            "value": 0.047244094488188976
          },
          {
            "number": 1,
            "ticks": 13471,
            "time": 102.67526038541666,
            "value": 0.05511811023622047
          },
          {
            "number": 1,
            "ticks": 13476,
            "time": 102.713370125,
            "value": 0.06299212598425197
          },
          {
            "number": 1,
            "ticks": 13481,
            "time": 102.75147986458335,
            "value": 0.07086614173228346
          },
          {
            "number": 1,
            "ticks": 13486,
            "time": 102.78958960416666,
            "value": 0.07874015748031496
          },
          {
            "number": 1,
            "ticks": 13491,
            "time": 102.82769934375,
            "value": 0.08661417322834646
          },
          {
            "number": 1,
            "ticks": 13496,
            "time": 102.86580908333335,
            "value": 0.09448818897637795
          },
          {
            "number": 1,
            "ticks": 13501,
            "time": 102.90391882291667,
            "value": 0.10236220472440945
          },
          {
            "number": 1,
            "ticks": 13505,
            "time": 102.93440661458334,
            "value": 0.11023622047244094
          },
          {
            "number": 1,
            "ticks": 13510,
            "time": 102.97251635416666,
            "value": 0.11811023622047244
          },
          {
            "number": 1,
            "ticks": 13515,
            "time": 103.01062609375,
            "value": 0.12598425196850394
          },
          {
            "number": 1,
            "ticks": 13520,
            "time": 103.04873583333334,
            "value": 0.13385826771653545
          },
          {
            "number": 1,
            "ticks": 13525,
            "time": 103.08684557291666,
            "value": 0.14173228346456693
          },
          {
            "number": 1,
            "ticks": 13530,
            "time": 103.1249553125,
            "value": 0.14960629921259844
          },
          {
            "number": 1,
            "ticks": 13535,
            "time": 103.16306505208334,
            "value": 0.15748031496062992
          },
          {
            "number": 1,
            "ticks": 13539,
            "time": 103.19355284375,
            "value": 0.16535433070866143
          },
          {
            "number": 1,
            "ticks": 13544,
            "time": 103.23166258333335,
            "value": 0.1732283464566929
          },
          {
            "number": 1,
            "ticks": 13549,
            "time": 103.26977232291667,
            "value": 0.18110236220472442
          },
          {
            "number": 1,
            "ticks": 13554,
            "time": 103.3078820625,
            "value": 0.1889763779527559
          },
          {
            "number": 1,
            "ticks": 13559,
            "time": 103.34599180208333,
            "value": 0.1968503937007874
          },
          {
            "number": 1,
            "ticks": 13564,
            "time": 103.38410154166665,
            "value": 0.2047244094488189
          },
          {
            "number": 1,
            "ticks": 13569,
            "time": 103.42221128125,
            "value": 0.2125984251968504
          },
          {
            "number": 1,
            "ticks": 13573,
            "time": 103.45269907291666,
            "value": 0.2204724409448819
          },
          {
            "number": 1,
            "ticks": 13578,
            "time": 103.4908088125,
            "value": 0.2283464566929134
          },
          {
            "number": 1,
            "ticks": 13583,
            "time": 103.52891855208334,
            "value": 0.23622047244094488
          },
          {
            "number": 1,
            "ticks": 13588,
            "time": 103.56702829166666,
            "value": 0.2440944881889764
          },
          {
            "number": 1,
            "ticks": 13593,
            "time": 103.60513803125,
            "value": 0.25196850393700787
          },
          {
            "number": 1,
            "ticks": 13598,
            "time": 103.64324777083334,
            "value": 0.25984251968503935
          },
          {
            "number": 1,
            "ticks": 13603,
            "time": 103.68135751041666,
            "value": 0.2677165354330709
          },
          {
            "number": 1,
            "ticks": 13607,
            "time": 103.71184530208333,
            "value": 0.2755905511811024
          },
          {
            "number": 1,
            "ticks": 13612,
            "time": 103.74995504166665,
            "value": 0.28346456692913385
          },
          {
            "number": 1,
            "ticks": 13617,
            "time": 103.78806478125,
            "value": 0.29133858267716534
          },
          {
            "number": 1,
            "ticks": 13622,
            "time": 103.82617452083333,
            "value": 0.2992125984251969
          },
          {
            "number": 1,
            "ticks": 13627,
            "time": 103.86428426041665,
            "value": 0.30708661417322836
          },
          {
            "number": 1,
            "ticks": 13632,
            "time": 103.902394,
            "value": 0.31496062992125984
          },
          {
            "number": 1,
            "ticks": 13637,
            "time": 103.94050373958333,
            "value": 0.3228346456692913
          },
          {
            "number": 1,
            "ticks": 13641,
            "time": 103.97099153125,
            "value": 0.33070866141732286
          },
          {
            "number": 1,
            "ticks": 13646,
            "time": 104.00910127083334,
            "value": 0.33858267716535434
          },
          {
            "number": 1,
            "ticks": 13651,
            "time": 104.04721101041666,
            "value": 0.3464566929133858
          },
          {
            "number": 1,
            "ticks": 13656,
            "time": 104.08532075,
            "value": 0.3543307086614173
          },
          {
            "number": 1,
            "ticks": 13661,
            "time": 104.12343048958334,
            "value": 0.36220472440944884
          },
          {
            "number": 1,
            "ticks": 13666,
            "time": 104.16154022916666,
            "value": 0.3700787401574803
          },
          {
            "number": 1,
            "ticks": 13671,
            "time": 104.19964996875,
            "value": 0.3779527559055118
          },
          {
            "number": 1,
            "ticks": 13675,
            "time": 104.23013776041665,
            "value": 0.3858267716535433
          },
          {
            "number": 1,
            "ticks": 13680,
            "time": 104.2682475,
            "value": 0.3937007874015748
          },
          {
            "number": 1,
            "ticks": 13685,
            "time": 104.30635723958333,
            "value": 0.4015748031496063
          },
          {
            "number": 1,
            "ticks": 13690,
            "time": 104.34446697916665,
            "value": 0.4094488188976378
          },
          {
            "number": 1,
            "ticks": 13695,
            "time": 104.38257671875,
            "value": 0.41732283464566927
          },
          {
            "number": 1,
            "ticks": 13700,
            "time": 104.42068645833334,
            "value": 0.4251968503937008
          },
          {
            "number": 1,
            "ticks": 13705,
            "time": 104.45879619791666,
            "value": 0.4330708661417323
          },
          {
            "number": 1,
            "ticks": 13709,
            "time": 104.48928398958334,
            "value": 0.4409448818897638
          },
          {
            "number": 1,
            "ticks": 13714,
            "time": 104.52739372916666,
            "value": 0.44881889763779526
          },
          {
            "number": 1,
            "ticks": 13719,
            "time": 104.56550346875,
            "value": 0.4566929133858268
          },
          {
            "number": 1,
            "ticks": 13724,
            "time": 104.60361320833334,
            "value": 0.4645669291338583
          },
          {
            "number": 1,
            "ticks": 13729,
            "time": 104.64172294791666,
            "value": 0.47244094488188976
          },
          {
            "number": 1,
            "ticks": 13734,
            "time": 104.6798326875,
            "value": 0.48031496062992124
          },
          {
            "number": 1,
            "ticks": 13739,
            "time": 104.71794242708334,
            "value": 0.4881889763779528
          },
          {
            "number": 1,
            "ticks": 13743,
            "time": 104.74843021875,
            "value": 0.49606299212598426
          },
          {
            "number": 1,
            "ticks": 13748,
            "time": 104.78653995833334,
            "value": 0.5039370078740157
          },
          {
            "number": 1,
            "ticks": 13753,
            "time": 104.82464969791666,
            "value": 0.5118110236220472
          },
          {
            "number": 1,
            "ticks": 13758,
            "time": 104.8627594375,
            "value": 0.5196850393700787
          },
          {
            "number": 1,
            "ticks": 13763,
            "time": 104.90086917708334,
            "value": 0.5275590551181102
          },
          {
            "number": 1,
            "ticks": 13768,
            "time": 104.93897891666666,
            "value": 0.5354330708661418
          },
          {
            "number": 1,
            "ticks": 13773,
            "time": 104.97708865625,
            "value": 0.5433070866141733
          },
          {
            "number": 1,
            "ticks": 13777,
            "time": 105.00757644791666,
            "value": 0.5511811023622047
          },
          {
            "number": 1,
            "ticks": 13827,
            "time": 105.38867384375,
            "value": 0.5433070866141733
          },
          {
            "number": 1,
            "ticks": 13828,
            "time": 105.39629579166666,
            "value": 0.5275590551181102
          },
          {
            "number": 1,
            "ticks": 13829,
            "time": 105.40391773958333,
            "value": 0.5196850393700787
          },
          {
            "number": 1,
            "ticks": 13830,
            "time": 105.4115396875,
            "value": 0.5039370078740157
          },
          {
            "number": 1,
            "ticks": 13831,
            "time": 105.41916163541666,
            "value": 0.49606299212598426
          },
          {
            "number": 1,
            "ticks": 13832,
            "time": 105.42678358333335,
            "value": 0.48031496062992124
          },
          {
            "number": 1,
            "ticks": 13833,
            "time": 105.43440553125,
            "value": 0.47244094488188976
          },
          {
            "number": 1,
            "ticks": 13834,
            "time": 105.44202747916665,
            "value": 0.4566929133858268
          },
          {
            "number": 1,
            "ticks": 13835,
            "time": 105.44964942708334,
            "value": 0.44881889763779526
          },
          {
            "number": 1,
            "ticks": 13836,
            "time": 105.457271375,
            "value": 0.4330708661417323
          },
          {
            "number": 1,
            "ticks": 13837,
            "time": 105.46489332291667,
            "value": 0.4251968503937008
          },
          {
            "number": 1,
            "ticks": 13838,
            "time": 105.47251527083334,
            "value": 0.4094488188976378
          },
          {
            "number": 1,
            "ticks": 13839,
            "time": 105.48013721875,
            "value": 0.4015748031496063
          },
          {
            "number": 1,
            "ticks": 13840,
            "time": 105.48775916666666,
            "value": 0.3858267716535433
          },
          {
            "number": 1,
            "ticks": 13841,
            "time": 105.49538111458334,
            "value": 0.3779527559055118
          },
          {
            "number": 1,
            "ticks": 13842,
            "time": 105.5030030625,
            "value": 0.36220472440944884
          },
          {
            "number": 1,
            "ticks": 13843,
            "time": 105.51062501041666,
            "value": 0.3543307086614173
          },
          {
            "number": 1,
            "ticks": 13844,
            "time": 105.51824695833334,
            "value": 0.33858267716535434
          },
          {
            "number": 1,
            "ticks": 13845,
            "time": 105.52586890625,
            "value": 0.33070866141732286
          },
          {
            "number": 1,
            "ticks": 13846,
            "time": 105.53349085416666,
            "value": 0.31496062992125984
          },
          {
            "number": 1,
            "ticks": 13847,
            "time": 105.54111280208333,
            "value": 0.30708661417322836
          },
          {
            "number": 1,
            "ticks": 13848,
            "time": 105.54873475,
            "value": 0.29133858267716534
          },
          {
            "number": 1,
            "ticks": 13849,
            "time": 105.55635669791666,
            "value": 0.2755905511811024
          },
          {
            "number": 1,
            "ticks": 13850,
            "time": 105.56397864583334,
            "value": 0.2677165354330709
          },
          {
            "number": 1,
            "ticks": 13851,
            "time": 105.57160059375,
            "value": 0.25196850393700787
          },
          {
            "number": 1,
            "ticks": 13852,
            "time": 105.57922254166665,
            "value": 0.2440944881889764
          },
          {
            "number": 1,
            "ticks": 13853,
            "time": 105.58684448958334,
            "value": 0.2283464566929134
          },
          {
            "number": 1,
            "ticks": 13854,
            "time": 105.5944664375,
            "value": 0.2204724409448819
          },
          {
            "number": 1,
            "ticks": 13855,
            "time": 105.60208838541666,
            "value": 0.2047244094488189
          },
          {
            "number": 1,
            "ticks": 13856,
            "time": 105.60971033333334,
            "value": 0.1968503937007874
          },
          {
            "number": 1,
            "ticks": 13857,
            "time": 105.61733228125,
            "value": 0.18110236220472442
          },
          {
            "number": 1,
            "ticks": 13858,
            "time": 105.62495422916666,
            "value": 0.1732283464566929
          },
          {
            "number": 1,
            "ticks": 13859,
            "time": 105.63257617708334,
            "value": 0.15748031496062992
          },
          {
            "number": 1,
            "ticks": 13860,
            "time": 105.640198125,
            "value": 0.14960629921259844
          },
          {
            "number": 1,
            "ticks": 13861,
            "time": 105.64782007291666,
            "value": 0.13385826771653545
          },
          {
            "number": 1,
            "ticks": 13862,
            "time": 105.65544202083333,
            "value": 0.12598425196850394
          },
          {
            "number": 1,
            "ticks": 13863,
            "time": 105.66306396875,
            "value": 0.11023622047244094
          },
          {
            "number": 1,
            "ticks": 13864,
            "time": 105.67068591666666,
            "value": 0.10236220472440945
          },
          {
            "number": 1,
            "ticks": 13865,
            "time": 105.67830786458335,
            "value": 0.08661417322834646
          },
          {
            "number": 1,
            "ticks": 13866,
            "time": 105.68592981249999,
            "value": 0.07874015748031496
          },
          {
            "number": 1,
            "ticks": 13867,
            "time": 105.69355176041665,
            "value": 0.06299212598425197
          },
          {
            "number": 1,
            "ticks": 13868,
            "time": 105.70117370833334,
            "value": 0.05511811023622047
          },
          {
            "number": 1,
            "ticks": 13869,
            "time": 105.70879565625,
            "value": 0.03937007874015748
          },
          {
            "number": 1,
            "ticks": 13870,
            "time": 105.71641760416667,
            "value": 0.031496062992125984
          },
          {
            "number": 1,
            "ticks": 13871,
            "time": 105.72403955208334,
            "value": 0.015748031496062992
          },
          {
            "number": 1,
            "ticks": 13872,
            "time": 105.7316615,
            "value": 0
          },
          {
            "number": 1,
            "ticks": 14213,
            "time": 108.33074573958334,
            "value": 0.007874015748031496
          },
          {
            "number": 1,
            "ticks": 14217,
            "time": 108.36123353125,
            "value": 0.015748031496062992
          },
          {
            "number": 1,
            "ticks": 14220,
            "time": 108.384099375,
            "value": 0.023622047244094488
          },
          {
            "number": 1,
            "ticks": 14224,
            "time": 108.41458716666666,
            "value": 0.031496062992125984
          },
          {
            "number": 1,
            "ticks": 14227,
            "time": 108.43745301041666,
            "value": 0.03937007874015748
          },
          {
            "number": 1,
            "ticks": 14231,
            "time": 108.46794080208333,
            "value": 0.047244094488188976
          },
          {
            "number": 1,
            "ticks": 14235,
            "time": 108.49842859375,
            "value": 0.05511811023622047
          },
          {
            "number": 1,
            "ticks": 14238,
            "time": 108.5212944375,
            "value": 0.06299212598425197
          },
          {
            "number": 1,
            "ticks": 14242,
            "time": 108.55178222916666,
            "value": 0.07086614173228346
          },
          {
            "number": 1,
            "ticks": 14245,
            "time": 108.57464807291666,
            "value": 0.07874015748031496
          },
          {
            "number": 1,
            "ticks": 14249,
            "time": 108.60513586458335,
            "value": 0.08661417322834646
          },
          {
            "number": 1,
            "ticks": 14252,
            "time": 108.62800170833334,
            "value": 0.09448818897637795
          },
          {
            "number": 1,
            "ticks": 14256,
            "time": 108.6584895,
            "value": 0.10236220472440945
          },
          {
            "number": 1,
            "ticks": 14260,
            "time": 108.68897729166666,
            "value": 0.11023622047244094
          },
          {
            "number": 1,
            "ticks": 14263,
            "time": 108.71184313541666,
            "value": 0.11811023622047244
          },
          {
            "number": 1,
            "ticks": 14267,
            "time": 108.74233092708334,
            "value": 0.12598425196850394
          },
          {
            "number": 1,
            "ticks": 14270,
            "time": 108.76519677083334,
            "value": 0.13385826771653545
          },
          {
            "number": 1,
            "ticks": 14274,
            "time": 108.7956845625,
            "value": 0.14173228346456693
          },
          {
            "number": 1,
            "ticks": 14277,
            "time": 108.81855040625,
            "value": 0.14960629921259844
          },
          {
            "number": 1,
            "ticks": 14281,
            "time": 108.84903819791666,
            "value": 0.15748031496062992
          },
          {
            "number": 1,
            "ticks": 14285,
            "time": 108.87952598958334,
            "value": 0.16535433070866143
          },
          {
            "number": 1,
            "ticks": 14288,
            "time": 108.90239183333334,
            "value": 0.1732283464566929
          },
          {
            "number": 1,
            "ticks": 14292,
            "time": 108.932879625,
            "value": 0.18110236220472442
          },
          {
            "number": 1,
            "ticks": 14295,
            "time": 108.95574546875,
            "value": 0.1889763779527559
          },
          {
            "number": 1,
            "ticks": 14299,
            "time": 108.98623326041665,
            "value": 0.1968503937007874
          },
          {
            "number": 1,
            "ticks": 14302,
            "time": 109.00909910416667,
            "value": 0.2047244094488189
          },
          {
            "number": 1,
            "ticks": 14306,
            "time": 109.03958689583334,
            "value": 0.2125984251968504
          },
          {
            "number": 1,
            "ticks": 14310,
            "time": 109.0700746875,
            "value": 0.2204724409448819
          },
          {
            "number": 1,
            "ticks": 14313,
            "time": 109.09294053125,
            "value": 0.2283464566929134
          },
          {
            "number": 1,
            "ticks": 14317,
            "time": 109.12342832291665,
            "value": 0.23622047244094488
          },
          {
            "number": 1,
            "ticks": 14320,
            "time": 109.14629416666666,
            "value": 0.2440944881889764
          },
          {
            "number": 1,
            "ticks": 14324,
            "time": 109.17678195833334,
            "value": 0.25196850393700787
          },
          {
            "number": 1,
            "ticks": 14327,
            "time": 109.19964780208333,
            "value": 0.25984251968503935
          },
          {
            "number": 1,
            "ticks": 14331,
            "time": 109.23013559375,
            "value": 0.2677165354330709
          },
          {
            "number": 1,
            "ticks": 14335,
            "time": 109.26062338541666,
            "value": 0.2755905511811024
          },
          {
            "number": 1,
            "ticks": 14338,
            "time": 109.28348922916666,
            "value": 0.28346456692913385
          },
          {
            "number": 1,
            "ticks": 14342,
            "time": 109.31397702083333,
            "value": 0.29133858267716534
          },
          {
            "number": 1,
            "ticks": 14345,
            "time": 109.33684286458335,
            "value": 0.2992125984251969
          },
          {
            "number": 1,
            "ticks": 14349,
            "time": 109.36733065625,
            "value": 0.30708661417322836
          },
          {
            "number": 1,
            "ticks": 14352,
            "time": 109.3901965,
            "value": 0.31496062992125984
          },
          {
            "number": 1,
            "ticks": 14356,
            "time": 109.42068429166666,
            "value": 0.3228346456692913
          },
          {
            "number": 1,
            "ticks": 14360,
            "time": 109.45117208333333,
            "value": 0.33070866141732286
          },
          {
            "number": 1,
            "ticks": 14363,
            "time": 109.47403792708334,
            "value": 0.33858267716535434
          },
          {
            "number": 1,
            "ticks": 14367,
            "time": 109.50452571875,
            "value": 0.3464566929133858
          },
          {
            "number": 1,
            "ticks": 14370,
            "time": 109.5273915625,
            "value": 0.3543307086614173
          },
          {
            "number": 1,
            "ticks": 14374,
            "time": 109.55787935416666,
            "value": 0.36220472440944884
          },
          {
            "number": 1,
            "ticks": 14378,
            "time": 109.58836714583335,
            "value": 0.3700787401574803
          },
          {
            "number": 1,
            "ticks": 14381,
            "time": 109.61123298958334,
            "value": 0.3779527559055118
          },
          {
            "number": 1,
            "ticks": 14385,
            "time": 109.64172078125,
            "value": 0.3858267716535433
          },
          {
            "number": 1,
            "ticks": 14388,
            "time": 109.664586625,
            "value": 0.3937007874015748
          },
          {
            "number": 1,
            "ticks": 14392,
            "time": 109.69507441666666,
            "value": 0.4015748031496063
          },
          {
            "number": 1,
            "ticks": 14395,
            "time": 109.71794026041665,
            "value": 0.4094488188976378
          },
          {
            "number": 1,
            "ticks": 14399,
            "time": 109.74842805208334,
            "value": 0.41732283464566927
          },
          {
            "number": 1,
            "ticks": 14403,
            "time": 109.77891584375,
            "value": 0.4251968503937008
          },
          {
            "number": 1,
            "ticks": 14406,
            "time": 109.8017816875,
            "value": 0.4330708661417323
          },
          {
            "number": 1,
            "ticks": 14410,
            "time": 109.83226947916665,
            "value": 0.4409448818897638
          },
          {
            "number": 1,
            "ticks": 14413,
            "time": 109.85513532291665,
            "value": 0.44881889763779526
          },
          {
            "number": 1,
            "ticks": 14417,
            "time": 109.88562311458334,
            "value": 0.4566929133858268
          },
          {
            "number": 1,
            "ticks": 14420,
            "time": 109.90848895833334,
            "value": 0.4645669291338583
          },
          {
            "number": 1,
            "ticks": 14424,
            "time": 109.93897675,
            "value": 0.47244094488188976
          },
          {
            "number": 1,
            "ticks": 14428,
            "time": 109.96946454166665,
            "value": 0.48031496062992124
          },
          {
            "number": 1,
            "ticks": 14431,
            "time": 109.99233038541666,
            "value": 0.4881889763779528
          },
          {
            "number": 1,
            "ticks": 14435,
            "time": 110.02281817708334,
            "value": 0.49606299212598426
          },
          {
            "number": 1,
            "ticks": 14438,
            "time": 110.04568402083333,
            "value": 0.5039370078740157
          },
          {
            "number": 1,
            "ticks": 14442,
            "time": 110.0761718125,
            "value": 0.5118110236220472
          },
          {
            "number": 1,
            "ticks": 14445,
            "time": 110.09903765625,
            "value": 0.5196850393700787
          },
          {
            "number": 1,
            "ticks": 14449,
            "time": 110.12952544791666,
            "value": 0.5275590551181102
          },
          {
            "number": 1,
            "ticks": 14453,
            "time": 110.16001323958334,
            "value": 0.5354330708661418
          },
          {
            "number": 1,
            "ticks": 14456,
            "time": 110.18287908333333,
            "value": 0.5433070866141733
          },
          {
            "number": 1,
            "ticks": 14460,
            "time": 110.213366875,
            "value": 0.5511811023622047
          },
          {
            "number": 1,
            "ticks": 14463,
            "time": 110.23623271875,
            "value": 0.5590551181102362
          },
          {
            "number": 1,
            "ticks": 14467,
            "time": 110.26672051041666,
            "value": 0.5669291338582677
          },
          {
            "number": 1,
            "ticks": 14470,
            "time": 110.28958635416666,
            "value": 0.5748031496062992
          },
          {
            "number": 1,
            "ticks": 14474,
            "time": 110.32007414583335,
            "value": 0.5826771653543307
          },
          {
            "number": 1,
            "ticks": 14478,
            "time": 110.3505619375,
            "value": 0.5905511811023622
          },
          {
            "number": 1,
            "ticks": 14481,
            "time": 110.37342778125,
            "value": 0.5984251968503937
          },
          {
            "number": 1,
            "ticks": 14485,
            "time": 110.40391557291666,
            "value": 0.6062992125984252
          },
          {
            "number": 1,
            "ticks": 14488,
            "time": 110.42678141666666,
            "value": 0.6141732283464567
          },
          {
            "number": 1,
            "ticks": 14492,
            "time": 110.45726920833334,
            "value": 0.6220472440944882
          },
          {
            "number": 1,
            "ticks": 14495,
            "time": 110.48013505208334,
            "value": 0.6299212598425197
          },
          {
            "number": 1,
            "ticks": 14595,
            "time": 111.24232984375,
            "value": 0.6220472440944882
          },
          {
            "number": 1,
            "ticks": 14596,
            "time": 111.24995179166666,
            "value": 0.6141732283464567
          },
          {
            "number": 1,
            "ticks": 14597,
            "time": 111.25757373958334,
            "value": 0.6062992125984252
          },
          {
            "number": 1,
            "ticks": 14598,
            "time": 111.2651956875,
            "value": 0.5984251968503937
          },
          {
            "number": 1,
            "ticks": 14599,
            "time": 111.27281763541666,
            "value": 0.5905511811023622
          },
          {
            "number": 1,
            "ticks": 14600,
            "time": 111.28043958333333,
            "value": 0.5826771653543307
          },
          {
            "number": 1,
            "ticks": 14601,
            "time": 111.28806153125,
            "value": 0.5748031496062992
          },
          {
            "number": 1,
            "ticks": 14602,
            "time": 111.29568347916666,
            "value": 0.5669291338582677
          },
          {
            "number": 1,
            "ticks": 14603,
            "time": 111.30330542708334,
            "value": 0.5590551181102362
          },
          {
            "number": 1,
            "ticks": 14604,
            "time": 111.310927375,
            "value": 0.5511811023622047
          },
          {
            "number": 1,
            "ticks": 14605,
            "time": 111.31854932291665,
            "value": 0.5433070866141733
          },
          {
            "number": 1,
            "ticks": 14606,
            "time": 111.32617127083334,
            "value": 0.5354330708661418
          },
          {
            "number": 1,
            "ticks": 14607,
            "time": 111.33379321875,
            "value": 0.5275590551181102
          },
          {
            "number": 1,
            "ticks": 14609,
            "time": 111.34903711458334,
            "value": 0.5196850393700787
          },
          {
            "number": 1,
            "ticks": 14610,
            "time": 111.3566590625,
            "value": 0.5118110236220472
          },
          {
            "number": 1,
            "ticks": 14611,
            "time": 111.36428101041666,
            "value": 0.5039370078740157
          },
          {
            "number": 1,
            "ticks": 14612,
            "time": 111.37190295833334,
            "value": 0.49606299212598426
          },
          {
            "number": 1,
            "ticks": 14613,
            "time": 111.37952490625,
            "value": 0.4881889763779528
          },
          {
            "number": 1,
            "ticks": 14614,
            "time": 111.38714685416666,
            "value": 0.48031496062992124
          },
          {
            "number": 1,
            "ticks": 14615,
            "time": 111.39476880208333,
            "value": 0.47244094488188976
          },
          {
            "number": 1,
            "ticks": 14616,
            "time": 111.40239075,
            "value": 0.4645669291338583
          },
          {
            "number": 1,
            "ticks": 14617,
            "time": 111.41001269791666,
            "value": 0.4566929133858268
          },
          {
            "number": 1,
            "ticks": 14618,
            "time": 111.41763464583335,
            "value": 0.44881889763779526
          },
          {
            "number": 1,
            "ticks": 14619,
            "time": 111.42525659374999,
            "value": 0.4409448818897638
          },
          {
            "number": 1,
            "ticks": 14620,
            "time": 111.43287854166665,
            "value": 0.4330708661417323
          },
          {
            "number": 1,
            "ticks": 14621,
            "time": 111.44050048958334,
            "value": 0.4251968503937008
          },
          {
            "number": 1,
            "ticks": 14623,
            "time": 111.45574438541666,
            "value": 0.41732283464566927
          },
          {
            "number": 1,
            "ticks": 14624,
            "time": 111.46336633333334,
            "value": 0.4094488188976378
          },
          {
            "number": 1,
            "ticks": 14625,
            "time": 111.47098828125,
            "value": 0.4015748031496063
          },
          {
            "number": 1,
            "ticks": 14626,
            "time": 111.47861022916666,
            "value": 0.3937007874015748
          },
          {
            "number": 1,
            "ticks": 14627,
            "time": 111.48623217708334,
            "value": 0.3858267716535433
          },
          {
            "number": 1,
            "ticks": 14628,
            "time": 111.493854125,
            "value": 0.3779527559055118
          },
          {
            "number": 1,
            "ticks": 14629,
            "time": 111.50147607291666,
            "value": 0.3700787401574803
          },
          {
            "number": 1,
            "ticks": 14630,
            "time": 111.50909802083333,
            "value": 0.36220472440944884
          },
          {
            "number": 1,
            "ticks": 14631,
            "time": 111.51671996875,
            "value": 0.3543307086614173
          },
          {
            "number": 1,
            "ticks": 14632,
            "time": 111.52434191666666,
            "value": 0.3464566929133858
          },
          {
            "number": 1,
            "ticks": 14633,
            "time": 111.53196386458335,
            "value": 0.33858267716535434
          },
          {
            "number": 1,
            "ticks": 14634,
            "time": 111.5395858125,
            "value": 0.33070866141732286
          },
          {
            "number": 1,
            "ticks": 14635,
            "time": 111.54720776041665,
            "value": 0.3228346456692913
          },
          {
            "number": 1,
            "ticks": 14636,
            "time": 111.55482970833334,
            "value": 0.31496062992125984
          },
          {
            "number": 1,
            "ticks": 14638,
            "time": 111.57007360416667,
            "value": 0.30708661417322836
          },
          {
            "number": 1,
            "ticks": 14639,
            "time": 111.57769555208334,
            "value": 0.2992125984251969
          },
          {
            "number": 1,
            "ticks": 14640,
            "time": 111.5853175,
            "value": 0.29133858267716534
          },
          {
            "number": 1,
            "ticks": 14641,
            "time": 111.59293944791666,
            "value": 0.28346456692913385
          },
          {
            "number": 1,
            "ticks": 14642,
            "time": 111.60056139583334,
            "value": 0.2755905511811024
          },
          {
            "number": 1,
            "ticks": 14643,
            "time": 111.60818334375,
            "value": 0.2677165354330709
          },
          {
            "number": 1,
            "ticks": 14644,
            "time": 111.61580529166666,
            "value": 0.25984251968503935
          },
          {
            "number": 1,
            "ticks": 14645,
            "time": 111.62342723958334,
            "value": 0.25196850393700787
          },
          {
            "number": 1,
            "ticks": 14646,
            "time": 111.6310491875,
            "value": 0.2440944881889764
          },
          {
            "number": 1,
            "ticks": 14647,
            "time": 111.63867113541666,
            "value": 0.23622047244094488
          },
          {
            "number": 1,
            "ticks": 14648,
            "time": 111.64629308333333,
            "value": 0.2283464566929134
          },
          {
            "number": 1,
            "ticks": 14649,
            "time": 111.65391503125,
            "value": 0.2204724409448819
          },
          {
            "number": 1,
            "ticks": 14650,
            "time": 111.66153697916666,
            "value": 0.2125984251968504
          },
          {
            "number": 1,
            "ticks": 14652,
            "time": 111.676780875,
            "value": 0.2047244094488189
          },
          {
            "number": 1,
            "ticks": 14653,
            "time": 111.68440282291665,
            "value": 0.1968503937007874
          },
          {
            "number": 1,
            "ticks": 14654,
            "time": 111.69202477083334,
            "value": 0.1889763779527559
          },
          {
            "number": 1,
            "ticks": 14655,
            "time": 111.69964671875,
            "value": 0.18110236220472442
          },
          {
            "number": 1,
            "ticks": 14656,
            "time": 111.70726866666666,
            "value": 0.1732283464566929
          },
          {
            "number": 1,
            "ticks": 14657,
            "time": 111.71489061458334,
            "value": 0.16535433070866143
          },
          {
            "number": 1,
            "ticks": 14658,
            "time": 111.7225125625,
            "value": 0.15748031496062992
          },
          {
            "number": 1,
            "ticks": 14659,
            "time": 111.73013451041666,
            "value": 0.14960629921259844
          },
          {
            "number": 1,
            "ticks": 14660,
            "time": 111.73775645833334,
            "value": 0.14173228346456693
          },
          {
            "number": 1,
            "ticks": 14661,
            "time": 111.74537840625,
            "value": 0.13385826771653545
          },
          {
            "number": 1,
            "ticks": 14662,
            "time": 111.75300035416666,
            "value": 0.12598425196850394
          },
          {
            "number": 1,
            "ticks": 14663,
            "time": 111.76062230208333,
            "value": 0.11811023622047244
          },
          {
            "number": 1,
            "ticks": 14664,
            "time": 111.76824425,
            "value": 0.11023622047244094
          },
          {
            "number": 1,
            "ticks": 14666,
            "time": 111.78348814583335,
            "value": 0.10236220472440945
          },
          {
            "number": 1,
            "ticks": 14667,
            "time": 111.79111009374999,
            "value": 0.09448818897637795
          },
          {
            "number": 1,
            "ticks": 14668,
            "time": 111.79873204166665,
            "value": 0.08661417322834646
          },
          {
            "number": 1,
            "ticks": 14669,
            "time": 111.80635398958334,
            "value": 0.07874015748031496
          },
          {
            "number": 1,
            "ticks": 14670,
            "time": 111.8139759375,
            "value": 0.07086614173228346
          },
          {
            "number": 1,
            "ticks": 14671,
            "time": 111.82159788541667,
            "value": 0.06299212598425197
          },
          {
            "number": 1,
            "ticks": 14672,
            "time": 111.82921983333334,
            "value": 0.05511811023622047
          },
          {
            "number": 1,
            "ticks": 14673,
            "time": 111.83684178125,
            "value": 0.047244094488188976
          },
          {
            "number": 1,
            "ticks": 14674,
            "time": 111.84446372916666,
            "value": 0.03937007874015748
          },
          {
            "number": 1,
            "ticks": 14675,
            "time": 111.85208567708334,
            "value": 0.031496062992125984
          },
          {
            "number": 1,
            "ticks": 14676,
            "time": 111.859707625,
            "value": 0.023622047244094488
          },
          {
            "number": 1,
            "ticks": 14677,
            "time": 111.86732957291666,
            "value": 0.015748031496062992
          },
          {
            "number": 1,
            "ticks": 14678,
            "time": 111.87495152083333,
            "value": 0.007874015748031496
          },
          {
            "number": 1,
            "ticks": 14679,
            "time": 111.88257346875,
            "value": 0
          },
          {
            "number": 1,
            "ticks": 14975,
            "time": 114.13867005208334,
            "value": 0.007874015748031496
          },
          {
            "number": 1,
            "ticks": 14979,
            "time": 114.16915784375,
            "value": 0.015748031496062992
          },
          {
            "number": 1,
            "ticks": 14983,
            "time": 114.19964563541666,
            "value": 0.023622047244094488
          },
          {
            "number": 1,
            "ticks": 14987,
            "time": 114.23013342708335,
            "value": 0.031496062992125984
          },
          {
            "number": 1,
            "ticks": 14991,
            "time": 114.26062121875,
            "value": 0.03937007874015748
          },
          {
            "number": 1,
            "ticks": 14996,
            "time": 114.29873095833334,
            "value": 0.047244094488188976
          },
          {
            "number": 1,
            "ticks": 15000,
            "time": 114.32921875,
            "value": 0.05511811023622047
          },
          {
            "number": 1,
            "ticks": 15004,
            "time": 114.35970654166665,
            "value": 0.06299212598425197
          },
          {
            "number": 1,
            "ticks": 15008,
            "time": 114.39019433333334,
            "value": 0.07086614173228346
          },
          {
            "number": 1,
            "ticks": 15012,
            "time": 114.420682125,
            "value": 0.07874015748031496
          },
          {
            "number": 1,
            "ticks": 15017,
            "time": 114.45879186458333,
            "value": 0.08661417322834646
          },
          {
            "number": 1,
            "ticks": 15021,
            "time": 114.48927965625,
            "value": 0.09448818897637795
          },
          {
            "number": 1,
            "ticks": 15025,
            "time": 114.51976744791666,
            "value": 0.10236220472440945
          },
          {
            "number": 1,
            "ticks": 15029,
            "time": 114.55025523958334,
            "value": 0.11023622047244094
          },
          {
            "number": 1,
            "ticks": 15033,
            "time": 114.58074303125,
            "value": 0.11811023622047244
          },
          {
            "number": 1,
            "ticks": 15038,
            "time": 114.61885277083334,
            "value": 0.12598425196850394
          },
          {
            "number": 1,
            "ticks": 15042,
            "time": 114.6493405625,
            "value": 0.13385826771653545
          },
          {
            "number": 1,
            "ticks": 15046,
            "time": 114.67982835416666,
            "value": 0.14173228346456693
          },
          {
            "number": 1,
            "ticks": 15050,
            "time": 114.71031614583335,
            "value": 0.14960629921259844
          },
          {
            "number": 1,
            "ticks": 15054,
            "time": 114.7408039375,
            "value": 0.15748031496062992
          },
          {
            "number": 1,
            "ticks": 15059,
            "time": 114.77891367708334,
            "value": 0.16535433070866143
          },
          {
            "number": 1,
            "ticks": 15063,
            "time": 114.80940146875,
            "value": 0.1732283464566929
          },
          {
            "number": 1,
            "ticks": 15067,
            "time": 114.83988926041665,
            "value": 0.18110236220472442
          },
          {
            "number": 1,
            "ticks": 15071,
            "time": 114.87037705208334,
            "value": 0.1889763779527559
          },
          {
            "number": 1,
            "ticks": 15075,
            "time": 114.90086484375,
            "value": 0.1968503937007874
          },
          {
            "number": 1,
            "ticks": 15080,
            "time": 114.93897458333333,
            "value": 0.2047244094488189
          },
          {
            "number": 1,
            "ticks": 15084,
            "time": 114.969462375,
            "value": 0.2125984251968504
          },
          {
            "number": 1,
            "ticks": 15088,
            "time": 114.99995016666666,
            "value": 0.2204724409448819
          },
          {
            "number": 1,
            "ticks": 15092,
            "time": 115.03043795833334,
            "value": 0.2283464566929134
          },
          {
            "number": 1,
            "ticks": 15096,
            "time": 115.06092575,
            "value": 0.23622047244094488
          },
          {
            "number": 1,
            "ticks": 15101,
            "time": 115.09903548958334,
            "value": 0.2440944881889764
          },
          {
            "number": 1,
            "ticks": 15105,
            "time": 115.12952328125,
            "value": 0.25196850393700787
          },
          {
            "number": 1,
            "ticks": 15109,
            "time": 115.16001107291666,
            "value": 0.25984251968503935
          },
          {
            "number": 1,
            "ticks": 15113,
            "time": 115.19049886458333,
            "value": 0.2677165354330709
          },
          {
            "number": 1,
            "ticks": 15117,
            "time": 115.22098665625,
            "value": 0.2755905511811024
          },
          {
            "number": 1,
            "ticks": 15122,
            "time": 115.25909639583334,
            "value": 0.28346456692913385
          },
          {
            "number": 1,
            "ticks": 15126,
            "time": 115.2895841875,
            "value": 0.29133858267716534
          },
          {
            "number": 1,
            "ticks": 15130,
            "time": 115.32007197916666,
            "value": 0.2992125984251969
          },
          {
            "number": 1,
            "ticks": 15134,
            "time": 115.35055977083334,
            "value": 0.30708661417322836
          },
          {
            "number": 1,
            "ticks": 15138,
            "time": 115.3810475625,
            "value": 0.31496062992125984
          },
          {
            "number": 1,
            "ticks": 15143,
            "time": 115.41915730208333,
            "value": 0.3228346456692913
          },
          {
            "number": 1,
            "ticks": 15147,
            "time": 115.44964509375,
            "value": 0.33070866141732286
          },
          {
            "number": 1,
            "ticks": 15151,
            "time": 115.48013288541667,
            "value": 0.33858267716535434
          },
          {
            "number": 1,
            "ticks": 15155,
            "time": 115.51062067708334,
            "value": 0.3464566929133858
          },
          {
            "number": 1,
            "ticks": 15159,
            "time": 115.54110846875,
            "value": 0.3543307086614173
          },
          {
            "number": 1,
            "ticks": 15164,
            "time": 115.57921820833334,
            "value": 0.36220472440944884
          },
          {
            "number": 1,
            "ticks": 15168,
            "time": 115.609706,
            "value": 0.3700787401574803
          },
          {
            "number": 1,
            "ticks": 15172,
            "time": 115.64019379166666,
            "value": 0.3779527559055118
          },
          {
            "number": 1,
            "ticks": 15176,
            "time": 115.67068158333333,
            "value": 0.3858267716535433
          },
          {
            "number": 1,
            "ticks": 15180,
            "time": 115.701169375,
            "value": 0.3937007874015748
          },
          {
            "number": 1,
            "ticks": 15185,
            "time": 115.73927911458334,
            "value": 0.4015748031496063
          },
          {
            "number": 1,
            "ticks": 15189,
            "time": 115.76976690625,
            "value": 0.4094488188976378
          },
          {
            "number": 1,
            "ticks": 15193,
            "time": 115.80025469791666,
            "value": 0.41732283464566927
          },
          {
            "number": 1,
            "ticks": 15197,
            "time": 115.83074248958334,
            "value": 0.4251968503937008
          },
          {
            "number": 1,
            "ticks": 15201,
            "time": 115.86123028125,
            "value": 0.4330708661417323
          },
          {
            "number": 1,
            "ticks": 15206,
            "time": 115.89934002083334,
            "value": 0.4409448818897638
          },
          {
            "number": 1,
            "ticks": 15210,
            "time": 115.9298278125,
            "value": 0.44881889763779526
          },
          {
            "number": 1,
            "ticks": 15214,
            "time": 115.96031560416665,
            "value": 0.4566929133858268
          },
          {
            "number": 1,
            "ticks": 15218,
            "time": 115.99080339583334,
            "value": 0.4645669291338583
          },
          {
            "number": 1,
            "ticks": 15222,
            "time": 116.0212911875,
            "value": 0.47244094488188976
          },
          {
            "number": 1,
            "ticks": 15227,
            "time": 116.05940092708335,
            "value": 0.48031496062992124
          },
          {
            "number": 1,
            "ticks": 15231,
            "time": 116.08988871875,
            "value": 0.4881889763779528
          },
          {
            "number": 1,
            "ticks": 15235,
            "time": 116.12037651041666,
            "value": 0.49606299212598426
          },
          {
            "number": 1,
            "ticks": 15239,
            "time": 116.15086430208333,
            "value": 0.5039370078740157
          },
          {
            "number": 1,
            "ticks": 15243,
            "time": 116.18135209375,
            "value": 0.5118110236220472
          },
          {
            "number": 1,
            "ticks": 15248,
            "time": 116.21946183333334,
            "value": 0.5196850393700787
          },
          {
            "number": 1,
            "ticks": 15252,
            "time": 116.249949625,
            "value": 0.5275590551181102
          },
          {
            "number": 1,
            "ticks": 15256,
            "time": 116.28043741666666,
            "value": 0.5354330708661418
          },
          {
            "number": 1,
            "ticks": 15260,
            "time": 116.31092520833334,
            "value": 0.5433070866141733
          },
          {
            "number": 1,
            "ticks": 15264,
            "time": 116.341413,
            "value": 0.5511811023622047
          },
          {
            "number": 1,
            "ticks": 15360,
            "time": 117.07312,
            "value": 0.5433070866141733
          },
          {
            "number": 1,
            "ticks": 15361,
            "time": 117.08074194791666,
            "value": 0.5354330708661418
          },
          {
            "number": 1,
            "ticks": 15362,
            "time": 117.08836389583334,
            "value": 0.5275590551181102
          },
          {
            "number": 1,
            "ticks": 15363,
            "time": 117.09598584375,
            "value": 0.5196850393700787
          },
          {
            "number": 1,
            "ticks": 15364,
            "time": 117.10360779166666,
            "value": 0.5118110236220472
          },
          {
            "number": 1,
            "ticks": 15365,
            "time": 117.11122973958334,
            "value": 0.5039370078740157
          },
          {
            "number": 1,
            "ticks": 15366,
            "time": 117.1188516875,
            "value": 0.49606299212598426
          },
          {
            "number": 1,
            "ticks": 15367,
            "time": 117.12647363541666,
            "value": 0.4881889763779528
          },
          {
            "number": 1,
            "ticks": 15368,
            "time": 117.13409558333333,
            "value": 0.48031496062992124
          },
          {
            "number": 1,
            "ticks": 15369,
            "time": 117.14171753125,
            "value": 0.47244094488188976
          },
          {
            "number": 1,
            "ticks": 15370,
            "time": 117.14933947916666,
            "value": 0.4645669291338583
          },
          {
            "number": 1,
            "ticks": 15371,
            "time": 117.15696142708335,
            "value": 0.4566929133858268
          },
          {
            "number": 1,
            "ticks": 15372,
            "time": 117.16458337499999,
            "value": 0.44881889763779526
          },
          {
            "number": 1,
            "ticks": 15373,
            "time": 117.17220532291665,
            "value": 0.4409448818897638
          },
          {
            "number": 1,
            "ticks": 15374,
            "time": 117.17982727083334,
            "value": 0.4330708661417323
          },
          {
            "number": 1,
            "ticks": 15375,
            "time": 117.18744921875,
            "value": 0.4251968503937008
          },
          {
            "number": 1,
            "ticks": 15376,
            "time": 117.19507116666666,
            "value": 0.41732283464566927
          },
          {
            "number": 1,
            "ticks": 15377,
            "time": 117.20269311458334,
            "value": 0.4094488188976378
          },
          {
            "number": 1,
            "ticks": 15378,
            "time": 117.2103150625,
            "value": 0.4015748031496063
          },
          {
            "number": 1,
            "ticks": 15379,
            "time": 117.21793701041666,
            "value": 0.3937007874015748
          },
          {
            "number": 1,
            "ticks": 15380,
            "time": 117.22555895833334,
            "value": 0.3858267716535433
          },
          {
            "number": 1,
            "ticks": 15381,
            "time": 117.23318090625,
            "value": 0.3779527559055118
          },
          {
            "number": 1,
            "ticks": 15382,
            "time": 117.24080285416666,
            "value": 0.3700787401574803
          },
          {
            "number": 1,
            "ticks": 15383,
            "time": 117.24842480208333,
            "value": 0.36220472440944884
          },
          {
            "number": 1,
            "ticks": 15384,
            "time": 117.25604675,
            "value": 0.3543307086614173
          },
          {
            "number": 1,
            "ticks": 15385,
            "time": 117.26366869791666,
            "value": 0.3464566929133858
          },
          {
            "number": 1,
            "ticks": 15386,
            "time": 117.27129064583335,
            "value": 0.33858267716535434
          },
          {
            "number": 1,
            "ticks": 15387,
            "time": 117.27891259375,
            "value": 0.33070866141732286
          },
          {
            "number": 1,
            "ticks": 15388,
            "time": 117.28653454166665,
            "value": 0.3228346456692913
          },
          {
            "number": 1,
            "ticks": 15389,
            "time": 117.29415648958334,
            "value": 0.31496062992125984
          },
          {
            "number": 1,
            "ticks": 15390,
            "time": 117.3017784375,
            "value": 0.30708661417322836
          },
          {
            "number": 1,
            "ticks": 15391,
            "time": 117.30940038541667,
            "value": 0.2992125984251969
          },
          {
            "number": 1,
            "ticks": 15392,
            "time": 117.31702233333334,
            "value": 0.29133858267716534
          },
          {
            "number": 1,
            "ticks": 15393,
            "time": 117.32464428125,
            "value": 0.28346456692913385
          },
          {
            "number": 1,
            "ticks": 15394,
            "time": 117.33226622916666,
            "value": 0.2755905511811024
          },
          {
            "number": 1,
            "ticks": 15395,
            "time": 117.33988817708334,
            "value": 0.2677165354330709
          },
          {
            "number": 1,
            "ticks": 15396,
            "time": 117.347510125,
            "value": 0.25984251968503935
          },
          {
            "number": 1,
            "ticks": 15397,
            "time": 117.35513207291666,
            "value": 0.25196850393700787
          },
          {
            "number": 1,
            "ticks": 15398,
            "time": 117.36275402083334,
            "value": 0.2440944881889764
          },
          {
            "number": 1,
            "ticks": 15399,
            "time": 117.37037596875,
            "value": 0.23622047244094488
          },
          {
            "number": 1,
            "ticks": 15400,
            "time": 117.37799791666666,
            "value": 0.2283464566929134
          },
          {
            "number": 1,
            "ticks": 15401,
            "time": 117.38561986458333,
            "value": 0.2204724409448819
          },
          {
            "number": 1,
            "ticks": 15402,
            "time": 117.3932418125,
            "value": 0.2125984251968504
          },
          {
            "number": 1,
            "ticks": 15403,
            "time": 117.40086376041666,
            "value": 0.2047244094488189
          },
          {
            "number": 1,
            "ticks": 15404,
            "time": 117.40848570833334,
            "value": 0.1968503937007874
          },
          {
            "number": 1,
            "ticks": 15405,
            "time": 117.41610765625,
            "value": 0.1889763779527559
          },
          {
            "number": 1,
            "ticks": 15406,
            "time": 117.42372960416665,
            "value": 0.18110236220472442
          },
          {
            "number": 1,
            "ticks": 15407,
            "time": 117.43135155208334,
            "value": 0.1732283464566929
          },
          {
            "number": 1,
            "ticks": 15408,
            "time": 117.4389735,
            "value": 0.16535433070866143
          },
          {
            "number": 1,
            "ticks": 15409,
            "time": 117.44659544791666,
            "value": 0.15748031496062992
          },
          {
            "number": 1,
            "ticks": 15410,
            "time": 117.45421739583334,
            "value": 0.14960629921259844
          },
          {
            "number": 1,
            "ticks": 15411,
            "time": 117.46183934375,
            "value": 0.14173228346456693
          },
          {
            "number": 1,
            "ticks": 15412,
            "time": 117.46946129166666,
            "value": 0.13385826771653545
          },
          {
            "number": 1,
            "ticks": 15413,
            "time": 117.47708323958334,
            "value": 0.12598425196850394
          },
          {
            "number": 1,
            "ticks": 15414,
            "time": 117.4847051875,
            "value": 0.11811023622047244
          },
          {
            "number": 1,
            "ticks": 15415,
            "time": 117.49232713541666,
            "value": 0.11023622047244094
          },
          {
            "number": 1,
            "ticks": 15416,
            "time": 117.49994908333333,
            "value": 0.10236220472440945
          },
          {
            "number": 1,
            "ticks": 15417,
            "time": 117.50757103125,
            "value": 0.09448818897637795
          },
          {
            "number": 1,
            "ticks": 15418,
            "time": 117.51519297916666,
            "value": 0.08661417322834646
          },
          {
            "number": 1,
            "ticks": 15419,
            "time": 117.52281492708335,
            "value": 0.07874015748031496
          },
          {
            "number": 1,
            "ticks": 15420,
            "time": 117.53043687499999,
            "value": 0.07086614173228346
          },
          {
            "number": 1,
            "ticks": 15421,
            "time": 117.53805882291665,
            "value": 0.06299212598425197
          },
          {
            "number": 1,
            "ticks": 15422,
            "time": 117.54568077083334,
            "value": 0.05511811023622047
          },
          {
            "number": 1,
            "ticks": 15423,
            "time": 117.55330271875,
            "value": 0.047244094488188976
          },
          {
            "number": 1,
            "ticks": 15424,
            "time": 117.56092466666666,
            "value": 0.03937007874015748
          },
          {
            "number": 1,
            "ticks": 15425,
            "time": 117.56854661458334,
            "value": 0.031496062992125984
          },
          {
            "number": 1,
            "ticks": 15426,
            "time": 117.5761685625,
            "value": 0.023622047244094488
          },
          {
            "number": 1,
            "ticks": 15427,
            "time": 117.58379051041666,
            "value": 0.015748031496062992
          },
          {
            "number": 1,
            "ticks": 15428,
            "time": 117.59141245833334,
            "value": 0
          },
          {
            "number": 1,
            "ticks": 22752,
            "time": 173.414559,
            "value": 0
          },
          {
            "number": 1,
            "ticks": 22753,
            "time": 173.42218094791667,
            "value": 0
          },
          {
            "number": 1,
            "ticks": 22753,
            "time": 173.42218094791667,
            "value": 0
          }
        ],
        "6": [
          {
            "number": 6,
            "ticks": 0,
            "time": 0,
            "value": 0.09448818897637795
          },
          {
            "number": 6,
            "ticks": 22752,
            "time": 173.414559,
            "value": 0.09448818897637795
          },
          {
            "number": 6,
            "ticks": 22753,
            "time": 173.42218094791667,
            "value": 0.09448818897637795
          },
          {
            "number": 6,
            "ticks": 22753,
            "time": 173.42218094791667,
            "value": 0.09448818897637795
          }
        ],
        "7": [
          {
            "number": 7,
            "ticks": 0,
            "time": 0,
            "value": 0.7874015748031497
          },
          {
            "number": 7,
            "ticks": 0,
            "time": 0,
            "value": 0.7874015748031497
          },
          {
            "number": 7,
            "ticks": 0,
            "time": 0,
            "value": 0.7874015748031497
          },
          {
            "number": 7,
            "ticks": 22752,
            "time": 173.414559,
            "value": 0.7874015748031497
          },
          {
            "number": 7,
            "ticks": 22753,
            "time": 173.42218094791667,
            "value": 0.7874015748031497
          },
          {
            "number": 7,
            "ticks": 22753,
            "time": 173.42218094791667,
            "value": 0.7874015748031497
          }
        ],
        "10": [
          {
            "number": 10,
            "ticks": 0,
            "time": 0,
            "value": 0.5039370078740157
          },
          {
            "number": 10,
            "ticks": 0,
            "time": 0,
            "value": 0.5039370078740157
          },
          {
            "number": 10,
            "ticks": 0,
            "time": 0,
            "value": 0.5039370078740157
          },
          {
            "number": 10,
            "ticks": 22752,
            "time": 173.414559,
            "value": 0.5039370078740157
          },
          {
            "number": 10,
            "ticks": 22753,
            "time": 173.42218094791667,
            "value": 0.5039370078740157
          },
          {
            "number": 10,
            "ticks": 22753,
            "time": 173.42218094791667,
            "value": 0.5039370078740157
          }
        ],
        "91": [
          {
            "number": 91,
            "ticks": 0,
            "time": 0,
            "value": 0.5039370078740157
          },
          {
            "number": 91,
            "ticks": 0,
            "time": 0,
            "value": 0.5039370078740157
          },
          {
            "number": 91,
            "ticks": 0,
            "time": 0,
            "value": 0.5039370078740157
          },
          {
            "number": 91,
            "ticks": 0,
            "time": 0,
            "value": 0.5039370078740157
          },
          {
            "number": 91,
            "ticks": 22752,
            "time": 173.414559,
            "value": 0.5039370078740157
          },
          {
            "number": 91,
            "ticks": 22753,
            "time": 173.42218094791667,
            "value": 0.5039370078740157
          },
          {
            "number": 91,
            "ticks": 22753,
            "time": 173.42218094791667,
            "value": 0.5039370078740157
          }
        ],
        "100": [
          {
            "number": 100,
            "ticks": 0,
            "time": 0,
            "value": 0
          },
          {
            "number": 100,
            "ticks": 22752,
            "time": 173.414559,
            "value": 0
          },
          {
            "number": 100,
            "ticks": 22753,
            "time": 173.42218094791667,
            "value": 0
          },
          {
            "number": 100,
            "ticks": 22753,
            "time": 173.42218094791667,
            "value": 0
          }
        ],
        "101": [
          {
            "number": 101,
            "ticks": 0,
            "time": 0,
            "value": 0
          },
          {
            "number": 101,
            "ticks": 22752,
            "time": 173.414559,
            "value": 0
          },
          {
            "number": 101,
            "ticks": 22753,
            "time": 173.42218094791667,
            "value": 0
          },
          {
            "number": 101,
            "ticks": 22753,
            "time": 173.42218094791667,
            "value": 0
          }
        ]
      },
      "pitchBends": [
        {
          "ticks": 0,
          "time": 0,
          "value": 0
        },
        {
          "ticks": 0,
          "time": 0,
          "value": 0
        },
        {
          "ticks": 0,
          "time": 0,
          "value": 0
        },
        {
          "ticks": 22752,
          "time": 173.414559,
          "value": 0
        },
        {
          "ticks": 22753,
          "time": 173.42218094791667,
          "value": 0
        },
        {
          "ticks": 22753,
          "time": 173.42218094791667,
          "value": 0
        }
      ],
      "instrument": {
        "family": "pipe",
        "name": "shakuhachi",
        "number": 77
      },
      "name": "",
      "notes": [
        {
          "duration": 2.9268280000000004,
          "durationTicks": 384,
          "midi": 80,
          "name": "G#5",
          "ticks": 4992,
          "time": 38.048764,
          "velocity": 0.6929133858267716
        },
        {
          "duration": 0.7317070000000001,
          "durationTicks": 96,
          "midi": 75,
          "name": "D#5",
          "ticks": 5664,
          "time": 43.170713,
          "velocity": 0.6929133858267716
        },
        {
          "duration": 2.9268280000000004,
          "durationTicks": 384,
          "midi": 80,
          "name": "G#5",
          "ticks": 5760,
          "time": 43.90242,
          "velocity": 0.6929133858267716
        },
        {
          "duration": 0.36585350000000005,
          "durationTicks": 48,
          "midi": 87,
          "name": "D#6",
          "ticks": 6432,
          "time": 49.024369,
          "velocity": 0.6929133858267716
        },
        {
          "duration": 0.36585350000000005,
          "durationTicks": 48,
          "midi": 85,
          "name": "C#6",
          "ticks": 6480,
          "time": 49.3902225,
          "velocity": 0.6929133858267716
        },
        {
          "duration": 2.9268280000000004,
          "durationTicks": 384,
          "midi": 87,
          "name": "D#6",
          "ticks": 6528,
          "time": 49.756076,
          "velocity": 0.6929133858267716
        },
        {
          "duration": 0.36585350000000005,
          "durationTicks": 48,
          "midi": 80,
          "name": "G#5",
          "ticks": 7200,
          "time": 54.878025,
          "velocity": 0.6929133858267716
        },
        {
          "duration": 0.36585350000000005,
          "durationTicks": 48,
          "midi": 78,
          "name": "F#5",
          "ticks": 7248,
          "time": 55.2438785,
          "velocity": 0.6929133858267716
        },
        {
          "duration": 2.9268280000000004,
          "durationTicks": 384,
          "midi": 80,
          "name": "G#5",
          "ticks": 7296,
          "time": 55.609732,
          "velocity": 0.6929133858267716
        },
        {
          "duration": 2.9268280000000004,
          "durationTicks": 384,
          "midi": 80,
          "name": "G#5",
          "ticks": 12672,
          "time": 96.585324,
          "velocity": 0.6929133858267716
        },
        {
          "duration": 0.7317070000000001,
          "durationTicks": 96,
          "midi": 75,
          "name": "D#5",
          "ticks": 13344,
          "time": 101.707273,
          "velocity": 0.6929133858267716
        },
        {
          "duration": 2.9268280000000004,
          "durationTicks": 384,
          "midi": 80,
          "name": "G#5",
          "ticks": 13440,
          "time": 102.43898,
          "velocity": 0.6929133858267716
        },
        {
          "duration": 0.36585350000000005,
          "durationTicks": 48,
          "midi": 87,
          "name": "D#6",
          "ticks": 14112,
          "time": 107.560929,
          "velocity": 0.6929133858267716
        },
        {
          "duration": 0.36585350000000005,
          "durationTicks": 48,
          "midi": 85,
          "name": "C#6",
          "ticks": 14160,
          "time": 107.9267825,
          "velocity": 0.6929133858267716
        },
        {
          "duration": 2.9268280000000004,
          "durationTicks": 384,
          "midi": 87,
          "name": "D#6",
          "ticks": 14208,
          "time": 108.292636,
          "velocity": 0.6929133858267716
        },
        {
          "duration": 0.36585350000000005,
          "durationTicks": 48,
          "midi": 80,
          "name": "G#5",
          "ticks": 14880,
          "time": 113.414585,
          "velocity": 0.6929133858267716
        },
        {
          "duration": 0.36585350000000005,
          "durationTicks": 48,
          "midi": 78,
          "name": "F#5",
          "ticks": 14928,
          "time": 113.7804385,
          "velocity": 0.6929133858267716
        },
        {
          "duration": 2.9268280000000004,
          "durationTicks": 384,
          "midi": 80,
          "name": "G#5",
          "ticks": 14976,
          "time": 114.146292,
          "velocity": 0.6929133858267716
        },
        {
          "duration": 1.4634140000000002,
          "durationTicks": 192,
          "midi": 80,
          "name": "G#5",
          "ticks": 15744,
          "time": 119.999948,
          "velocity": 0.7559055118110236
        },
        {
          "duration": 0.7317070000000001,
          "durationTicks": 96,
          "midi": 83,
          "name": "B5",
          "ticks": 15936,
          "time": 121.463362,
          "velocity": 0.7559055118110236
        },
        {
          "duration": 0.7317070000000001,
          "durationTicks": 96,
          "midi": 87,
          "name": "D#6",
          "ticks": 16032,
          "time": 122.195069,
          "velocity": 0.7559055118110236
        },
        {
          "duration": 1.0975605000000002,
          "durationTicks": 144,
          "midi": 85,
          "name": "C#6",
          "ticks": 16128,
          "time": 122.926776,
          "velocity": 0.7559055118110236
        },
        {
          "duration": 0.18292674999999292,
          "durationTicks": 24,
          "midi": 83,
          "name": "B5",
          "ticks": 16272,
          "time": 124.0243365,
          "velocity": 0.7559055118110236
        },
        {
          "duration": 0.18292675000000713,
          "durationTicks": 24,
          "midi": 85,
          "name": "C#6",
          "ticks": 16296,
          "time": 124.20726325,
          "velocity": 0.7559055118110236
        },
        {
          "duration": 1.0975605000000002,
          "durationTicks": 144,
          "midi": 87,
          "name": "D#6",
          "ticks": 16320,
          "time": 124.39019,
          "velocity": 0.7559055118110236
        },
        {
          "duration": 0.36585350000000005,
          "durationTicks": 48,
          "midi": 85,
          "name": "C#6",
          "ticks": 16464,
          "time": 125.4877505,
          "velocity": 0.7559055118110236
        },
        {
          "duration": 1.4634140000000002,
          "durationTicks": 192,
          "midi": 83,
          "name": "B5",
          "ticks": 16512,
          "time": 125.853604,
          "velocity": 0.7559055118110236
        },
        {
          "duration": 0.18292674999999292,
          "durationTicks": 24,
          "midi": 80,
          "name": "G#5",
          "ticks": 16752,
          "time": 127.6828715,
          "velocity": 0.7559055118110236
        },
        {
          "duration": 0.18292674999999292,
          "durationTicks": 24,
          "midi": 83,
          "name": "B5",
          "ticks": 16776,
          "time": 127.86579825,
          "velocity": 0.7559055118110236
        },
        {
          "duration": 0.36585350000001426,
          "durationTicks": 48,
          "midi": 85,
          "name": "C#6",
          "ticks": 16800,
          "time": 128.048725,
          "velocity": 0.7559055118110236
        },
        {
          "duration": 0.36585349999998584,
          "durationTicks": 48,
          "midi": 87,
          "name": "D#6",
          "ticks": 16848,
          "time": 128.4145785,
          "velocity": 0.7559055118110236
        },
        {
          "duration": 1.4634140000000002,
          "durationTicks": 192,
          "midi": 85,
          "name": "C#6",
          "ticks": 16896,
          "time": 128.780432,
          "velocity": 0.7559055118110236
        },
        {
          "duration": 1.2804872500000215,
          "durationTicks": 168,
          "midi": 80,
          "name": "G#5",
          "ticks": 17088,
          "time": 130.243846,
          "velocity": 0.7559055118110236
        }
      ]
    },
    {
      "channel": 0,
      "controlChanges": {
        "6": [
          {
            "number": 6,
            "ticks": 0,
            "time": 0,
            "value": 0.09448818897637795
          }
        ],
        "7": [
          {
            "number": 7,
            "ticks": 0,
            "time": 0,
            "value": 0.7874015748031497
          },
          {
            "number": 7,
            "ticks": 0,
            "time": 0,
            "value": 0.7874015748031497
          }
        ],
        "10": [
          {
            "number": 10,
            "ticks": 0,
            "time": 0,
            "value": 0.5039370078740157
          },
          {
            "number": 10,
            "ticks": 0,
            "time": 0,
            "value": 0.5039370078740157
          }
        ],
        "100": [
          {
            "number": 100,
            "ticks": 0,
            "time": 0,
            "value": 0
          }
        ],
        "101": [
          {
            "number": 101,
            "ticks": 0,
            "time": 0,
            "value": 0
          }
        ]
      },
      "pitchBends": [
        {
          "ticks": 0,
          "time": 0,
          "value": 0
        },
        {
          "ticks": 0,
          "time": 0,
          "value": 0
        }
      ],
      "instrument": {
        "family": "piano",
        "name": "acoustic grand piano",
        "number": 0
      },
      "name": "Pan Flute",
      "notes": []
    },
    {
      "channel": 7,
      "controlChanges": {
        "6": [
          {
            "number": 6,
            "ticks": 0,
            "time": 0,
            "value": 0.09448818897637795
          },
          {
            "number": 6,
            "ticks": 22752,
            "time": 173.414559,
            "value": 0.09448818897637795
          },
          {
            "number": 6,
            "ticks": 22753,
            "time": 173.42218094791667,
            "value": 0.09448818897637795
          },
          {
            "number": 6,
            "ticks": 22753,
            "time": 173.42218094791667,
            "value": 0.09448818897637795
          }
        ],
        "7": [
          {
            "number": 7,
            "ticks": 0,
            "time": 0,
            "value": 0.7874015748031497
          },
          {
            "number": 7,
            "ticks": 0,
            "time": 0,
            "value": 0.7874015748031497
          },
          {
            "number": 7,
            "ticks": 0,
            "time": 0,
            "value": 0.7874015748031497
          },
          {
            "number": 7,
            "ticks": 22752,
            "time": 173.414559,
            "value": 0.7874015748031497
          },
          {
            "number": 7,
            "ticks": 22753,
            "time": 173.42218094791667,
            "value": 0.7874015748031497
          },
          {
            "number": 7,
            "ticks": 22753,
            "time": 173.42218094791667,
            "value": 0.7874015748031497
          }
        ],
        "10": [
          {
            "number": 10,
            "ticks": 0,
            "time": 0,
            "value": 0.5039370078740157
          },
          {
            "number": 10,
            "ticks": 0,
            "time": 0,
            "value": 0.5039370078740157
          },
          {
            "number": 10,
            "ticks": 0,
            "time": 0,
            "value": 0.5039370078740157
          },
          {
            "number": 10,
            "ticks": 22752,
            "time": 173.414559,
            "value": 0.5039370078740157
          },
          {
            "number": 10,
            "ticks": 22753,
            "time": 173.42218094791667,
            "value": 0.5039370078740157
          },
          {
            "number": 10,
            "ticks": 22753,
            "time": 173.42218094791667,
            "value": 0.5039370078740157
          }
        ],
        "91": [
          {
            "number": 91,
            "ticks": 0,
            "time": 0,
            "value": 0.5039370078740157
          },
          {
            "number": 91,
            "ticks": 0,
            "time": 0,
            "value": 0.5039370078740157
          },
          {
            "number": 91,
            "ticks": 0,
            "time": 0,
            "value": 0.5039370078740157
          },
          {
            "number": 91,
            "ticks": 0,
            "time": 0,
            "value": 0.5039370078740157
          },
          {
            "number": 91,
            "ticks": 22752,
            "time": 173.414559,
            "value": 0.5039370078740157
          },
          {
            "number": 91,
            "ticks": 22753,
            "time": 173.42218094791667,
            "value": 0.5039370078740157
          },
          {
            "number": 91,
            "ticks": 22753,
            "time": 173.42218094791667,
            "value": 0.5039370078740157
          }
        ],
        "100": [
          {
            "number": 100,
            "ticks": 0,
            "time": 0,
            "value": 0
          },
          {
            "number": 100,
            "ticks": 22752,
            "time": 173.414559,
            "value": 0
          },
          {
            "number": 100,
            "ticks": 22753,
            "time": 173.42218094791667,
            "value": 0
          },
          {
            "number": 100,
            "ticks": 22753,
            "time": 173.42218094791667,
            "value": 0
          }
        ],
        "101": [
          {
            "number": 101,
            "ticks": 0,
            "time": 0,
            "value": 0
          },
          {
            "number": 101,
            "ticks": 22752,
            "time": 173.414559,
            "value": 0
          },
          {
            "number": 101,
            "ticks": 22753,
            "time": 173.42218094791667,
            "value": 0
          },
          {
            "number": 101,
            "ticks": 22753,
            "time": 173.42218094791667,
            "value": 0
          }
        ]
      },
      "pitchBends": [
        {
          "ticks": 0,
          "time": 0,
          "value": 0
        },
        {
          "ticks": 0,
          "time": 0,
          "value": 0
        },
        {
          "ticks": 0,
          "time": 0,
          "value": 0
        },
        {
          "ticks": 22752,
          "time": 173.414559,
          "value": 0
        },
        {
          "ticks": 22753,
          "time": 173.42218094791667,
          "value": 0
        },
        {
          "ticks": 22753,
          "time": 173.42218094791667,
          "value": 0
        }
      ],
      "instrument": {
        "family": "pipe",
        "name": "pan flute",
        "number": 75
      },
      "name": "",
      "notes": [
        {
          "duration": 0.09146337499999646,
          "durationTicks": 12,
          "midi": 83,
          "name": "B5",
          "ticks": 8040,
          "time": 61.28046125,
          "velocity": 0.6377952755905512
        },
        {
          "duration": 0.09146337500000357,
          "durationTicks": 12,
          "midi": 85,
          "name": "C#6",
          "ticks": 8052,
          "time": 61.371924625,
          "velocity": 0.6377952755905512
        },
        {
          "duration": 0.33536570833332746,
          "durationTicks": 44,
          "midi": 87,
          "name": "D#6",
          "ticks": 8064,
          "time": 61.463388,
          "velocity": 0.6377952755905512
        },
        {
          "duration": 0.15243895833332743,
          "durationTicks": 20,
          "midi": 90,
          "name": "F#6",
          "ticks": 8136,
          "time": 62.01216825,
          "velocity": 0.6377952755905512
        },
        {
          "duration": 0.33536570833332746,
          "durationTicks": 44,
          "midi": 92,
          "name": "G#6",
          "ticks": 8160,
          "time": 62.195095,
          "velocity": 0.6377952755905512
        },
        {
          "duration": 0.33536570833332746,
          "durationTicks": 44,
          "midi": 90,
          "name": "F#6",
          "ticks": 8208,
          "time": 62.5609485,
          "velocity": 0.6377952755905512
        },
        {
          "duration": 0.33536570833332746,
          "durationTicks": 44,
          "midi": 92,
          "name": "G#6",
          "ticks": 8256,
          "time": 62.926802,
          "velocity": 0.6377952755905512
        },
        {
          "duration": 0.33536570833332746,
          "durationTicks": 44,
          "midi": 90,
          "name": "F#6",
          "ticks": 8304,
          "time": 63.2926555,
          "velocity": 0.6377952755905512
        },
        {
          "duration": 0.33536570833332746,
          "durationTicks": 44,
          "midi": 87,
          "name": "D#6",
          "ticks": 8352,
          "time": 63.658509,
          "velocity": 0.6377952755905512
        },
        {
          "duration": 0.33536570833332746,
          "durationTicks": 44,
          "midi": 85,
          "name": "C#6",
          "ticks": 8448,
          "time": 64.390216,
          "velocity": 0.6377952755905512
        },
        {
          "duration": 0.15243895833332033,
          "durationTicks": 20,
          "midi": 87,
          "name": "D#6",
          "ticks": 8520,
          "time": 64.93899625,
          "velocity": 0.6377952755905512
        },
        {
          "duration": 0.33536570833332746,
          "durationTicks": 44,
          "midi": 90,
          "name": "F#6",
          "ticks": 8544,
          "time": 65.121923,
          "velocity": 0.6377952755905512
        },
        {
          "duration": 1.0670727083333276,
          "durationTicks": 140,
          "midi": 87,
          "name": "D#6",
          "ticks": 8592,
          "time": 65.4877765,
          "velocity": 0.6377952755905512
        },
        {
          "duration": 0.33536570833332746,
          "durationTicks": 44,
          "midi": 87,
          "name": "D#6",
          "ticks": 8784,
          "time": 66.9511905,
          "velocity": 0.6377952755905512
        },
        {
          "duration": 0.33536570833332746,
          "durationTicks": 44,
          "midi": 87,
          "name": "D#6",
          "ticks": 8832,
          "time": 67.317044,
          "velocity": 0.6377952755905512
        },
        {
          "duration": 0.15243895833332033,
          "durationTicks": 20,
          "midi": 90,
          "name": "F#6",
          "ticks": 8904,
          "time": 67.86582425,
          "velocity": 0.6377952755905512
        },
        {
          "duration": 0.33536570833332746,
          "durationTicks": 44,
          "midi": 92,
          "name": "G#6",
          "ticks": 8928,
          "time": 68.048751,
          "velocity": 0.6377952755905512
        },
        {
          "duration": 0.33536570833332746,
          "durationTicks": 44,
          "midi": 90,
          "name": "F#6",
          "ticks": 8976,
          "time": 68.4146045,
          "velocity": 0.6377952755905512
        },
        {
          "duration": 0.33536570833332746,
          "durationTicks": 44,
          "midi": 92,
          "name": "G#6",
          "ticks": 9024,
          "time": 68.780458,
          "velocity": 0.6377952755905512
        },
        {
          "duration": 0.33536570833332746,
          "durationTicks": 44,
          "midi": 90,
          "name": "F#6",
          "ticks": 9072,
          "time": 69.1463115,
          "velocity": 0.6377952755905512
        },
        {
          "duration": 0.33536570833332746,
          "durationTicks": 44,
          "midi": 87,
          "name": "D#6",
          "ticks": 9120,
          "time": 69.512165,
          "velocity": 0.6377952755905512
        },
        {
          "duration": 0.33536570833332746,
          "durationTicks": 44,
          "midi": 85,
          "name": "C#6",
          "ticks": 9168,
          "time": 69.8780185,
          "velocity": 0.6377952755905512
        },
        {
          "duration": 0.15243895833333454,
          "durationTicks": 20,
          "midi": 87,
          "name": "D#6",
          "ticks": 9216,
          "time": 70.243872,
          "velocity": 0.6377952755905512
        },
        {
          "duration": 0.15243895833332033,
          "durationTicks": 20,
          "midi": 90,
          "name": "F#6",
          "ticks": 9240,
          "time": 70.42679875,
          "velocity": 0.6377952755905512
        },
        {
          "duration": 0.15243895833333454,
          "durationTicks": 20,
          "midi": 87,
          "name": "D#6",
          "ticks": 9264,
          "time": 70.6097255,
          "velocity": 0.6377952755905512
        },
        {
          "duration": 0.15243895833332033,
          "durationTicks": 20,
          "midi": 85,
          "name": "C#6",
          "ticks": 9288,
          "time": 70.79265225,
          "velocity": 0.6377952755905512
        },
        {
          "duration": 0.33536570833332746,
          "durationTicks": 44,
          "midi": 83,
          "name": "B5",
          "ticks": 9312,
          "time": 70.975579,
          "velocity": 0.6377952755905512
        },
        {
          "duration": 0.33536570833332746,
          "durationTicks": 44,
          "midi": 85,
          "name": "C#6",
          "ticks": 9360,
          "time": 71.3414325,
          "velocity": 0.6377952755905512
        },
        {
          "duration": 1.0670727083333276,
          "durationTicks": 140,
          "midi": 80,
          "name": "G#5",
          "ticks": 9408,
          "time": 71.707286,
          "velocity": 0.6377952755905512
        },
        {
          "duration": 0.04573168749999468,
          "durationTicks": 6,
          "midi": 88,
          "name": "E6",
          "ticks": 17268,
          "time": 131.615796625,
          "velocity": 0.6377952755905512
        },
        {
          "duration": 0.04573168749999468,
          "durationTicks": 6,
          "midi": 91,
          "name": "G6",
          "ticks": 17274,
          "time": 131.6615283125,
          "velocity": 0.6377952755905512
        },
        {
          "duration": 1.0975605000000144,
          "durationTicks": 144,
          "midi": 93,
          "name": "A6",
          "ticks": 17280,
          "time": 131.70726,
          "velocity": 0.6377952755905512
        },
        {
          "duration": 0.36585349999998584,
          "durationTicks": 48,
          "midi": 91,
          "name": "G6",
          "ticks": 17424,
          "time": 132.8048205,
          "velocity": 0.6377952755905512
        },
        {
          "duration": 1.3719506250000109,
          "durationTicks": 180,
          "midi": 93,
          "name": "A6",
          "ticks": 17472,
          "time": 133.170674,
          "velocity": 0.6377952755905512
        },
        {
          "duration": 1.4634140000000002,
          "durationTicks": 192,
          "midi": 91,
          "name": "G6",
          "ticks": 17664,
          "time": 134.634088,
          "velocity": 0.6377952755905512
        },
        {
          "duration": 1.2804872500000215,
          "durationTicks": 168,
          "midi": 88,
          "name": "E6",
          "ticks": 17856,
          "time": 136.097502,
          "velocity": 0.6377952755905512
        },
        {
          "duration": 0.03048779166664417,
          "durationTicks": 4,
          "midi": 88,
          "name": "E6",
          "ticks": 18036,
          "time": 137.469452625,
          "velocity": 0.6377952755905512
        },
        {
          "duration": 0.030487791666672592,
          "durationTicks": 4,
          "midi": 91,
          "name": "G6",
          "ticks": 18042,
          "time": 137.5151843125,
          "velocity": 0.6377952755905512
        },
        {
          "duration": 1.4634140000000002,
          "durationTicks": 192,
          "midi": 93,
          "name": "A6",
          "ticks": 18048,
          "time": 137.560916,
          "velocity": 0.6377952755905512
        },
        {
          "duration": 1.3719506250000109,
          "durationTicks": 180,
          "midi": 91,
          "name": "G6",
          "ticks": 18240,
          "time": 139.02433,
          "velocity": 0.6377952755905512
        },
        {
          "duration": 0.36585350000001426,
          "durationTicks": 48,
          "midi": 86,
          "name": "D6",
          "ticks": 18432,
          "time": 140.487744,
          "velocity": 0.6377952755905512
        },
        {
          "duration": 0.36585349999998584,
          "durationTicks": 48,
          "midi": 88,
          "name": "E6",
          "ticks": 18480,
          "time": 140.8535975,
          "velocity": 0.6377952755905512
        },
        {
          "duration": 0.36585350000001426,
          "durationTicks": 48,
          "midi": 91,
          "name": "G6",
          "ticks": 18528,
          "time": 141.219451,
          "velocity": 0.6377952755905512
        },
        {
          "duration": 0.36585349999998584,
          "durationTicks": 48,
          "midi": 88,
          "name": "E6",
          "ticks": 18576,
          "time": 141.5853045,
          "velocity": 0.6377952755905512
        },
        {
          "duration": 1.280487249999993,
          "durationTicks": 168,
          "midi": 93,
          "name": "A6",
          "ticks": 18624,
          "time": 141.951158,
          "velocity": 0.6377952755905512
        },
        {
          "duration": 0.04573168749999468,
          "durationTicks": 6,
          "midi": 84,
          "name": "C6",
          "ticks": 18804,
          "time": 143.323108625,
          "velocity": 0.6377952755905512
        },
        {
          "duration": 0.04573168749999468,
          "durationTicks": 6,
          "midi": 86,
          "name": "D6",
          "ticks": 18810,
          "time": 143.3688403125,
          "velocity": 0.6377952755905512
        },
        {
          "duration": 2.469511124999997,
          "durationTicks": 324,
          "midi": 88,
          "name": "E6",
          "ticks": 18816,
          "time": 143.414572,
          "velocity": 0.6377952755905512
        },
        {
          "duration": 0.36585349999998584,
          "durationTicks": 48,
          "midi": 96,
          "name": "C7",
          "ticks": 19152,
          "time": 145.9755465,
          "velocity": 0.6377952755905512
        },
        {
          "duration": 1.0975605000000144,
          "durationTicks": 144,
          "midi": 93,
          "name": "A6",
          "ticks": 19200,
          "time": 146.3414,
          "velocity": 0.6377952755905512
        },
        {
          "duration": 0.36585349999998584,
          "durationTicks": 48,
          "midi": 91,
          "name": "G6",
          "ticks": 19344,
          "time": 147.4389605,
          "velocity": 0.6377952755905512
        },
        {
          "duration": 1.0060971249999966,
          "durationTicks": 132,
          "midi": 88,
          "name": "E6",
          "ticks": 19392,
          "time": 147.804814,
          "velocity": 0.6377952755905512
        },
        {
          "duration": 0.1829267499999787,
          "durationTicks": 24,
          "midi": 86,
          "name": "D6",
          "ticks": 19536,
          "time": 148.9023745,
          "velocity": 0.6377952755905512
        },
        {
          "duration": 0.18292675000000713,
          "durationTicks": 24,
          "midi": 88,
          "name": "E6",
          "ticks": 19560,
          "time": 149.08530125,
          "velocity": 0.6377952755905512
        },
        {
          "duration": 1.7378041249999967,
          "durationTicks": 228,
          "midi": 84,
          "name": "C6",
          "ticks": 19584,
          "time": 149.268228,
          "velocity": 0.6377952755905512
        },
        {
          "duration": 0.36585349999998584,
          "durationTicks": 48,
          "midi": 86,
          "name": "D6",
          "ticks": 19824,
          "time": 151.0974955,
          "velocity": 0.6377952755905512
        },
        {
          "duration": 0.36585350000001426,
          "durationTicks": 48,
          "midi": 88,
          "name": "E6",
          "ticks": 19872,
          "time": 151.463349,
          "velocity": 0.6377952755905512
        },
        {
          "duration": 0.36585349999998584,
          "durationTicks": 48,
          "midi": 91,
          "name": "G6",
          "ticks": 19920,
          "time": 151.8292025,
          "velocity": 0.6377952755905512
        },
        {
          "duration": 1.0060971249999966,
          "durationTicks": 132,
          "midi": 86,
          "name": "D6",
          "ticks": 19968,
          "time": 152.195056,
          "velocity": 0.6377952755905512
        },
        {
          "duration": 0.36585349999998584,
          "durationTicks": 48,
          "midi": 84,
          "name": "C6",
          "ticks": 20112,
          "time": 153.2926165,
          "velocity": 0.6377952755905512
        },
        {
          "duration": 1.280487249999993,
          "durationTicks": 168,
          "midi": 81,
          "name": "A5",
          "ticks": 20160,
          "time": 153.65847,
          "velocity": 0.6377952755905512
        },
        {
          "duration": 0.04573168749999468,
          "durationTicks": 6,
          "midi": 72,
          "name": "C5",
          "ticks": 20340,
          "time": 155.030420625,
          "velocity": 0.6377952755905512
        },
        {
          "duration": 0.04573168749999468,
          "durationTicks": 6,
          "midi": 74,
          "name": "D5",
          "ticks": 20346,
          "time": 155.0761523125,
          "velocity": 0.6377952755905512
        },
        {
          "duration": 0.33536570833334167,
          "durationTicks": 44,
          "midi": 76,
          "name": "E5",
          "ticks": 20352,
          "time": 155.121884,
          "velocity": 0.6377952755905512
        },
        {
          "duration": 0.15243895833336296,
          "durationTicks": 20,
          "midi": 79,
          "name": "G5",
          "ticks": 20424,
          "time": 155.67066425,
          "velocity": 0.6377952755905512
        },
        {
          "duration": 0.33536570833334167,
          "durationTicks": 44,
          "midi": 81,
          "name": "A5",
          "ticks": 20448,
          "time": 155.853591,
          "velocity": 0.6377952755905512
        },
        {
          "duration": 0.33536570833334167,
          "durationTicks": 44,
          "midi": 79,
          "name": "G5",
          "ticks": 20496,
          "time": 156.2194445,
          "velocity": 0.6377952755905512
        },
        {
          "duration": 0.33536570833334167,
          "durationTicks": 44,
          "midi": 81,
          "name": "A5",
          "ticks": 20544,
          "time": 156.585298,
          "velocity": 0.6377952755905512
        },
        {
          "duration": 0.33536570833334167,
          "durationTicks": 44,
          "midi": 79,
          "name": "G5",
          "ticks": 20592,
          "time": 156.9511515,
          "velocity": 0.6377952755905512
        },
        {
          "duration": 0.33536570833334167,
          "durationTicks": 44,
          "midi": 76,
          "name": "E5",
          "ticks": 20640,
          "time": 157.317005,
          "velocity": 0.6377952755905512
        },
        {
          "duration": 0.33536570833334167,
          "durationTicks": 44,
          "midi": 74,
          "name": "D5",
          "ticks": 20688,
          "time": 157.6828585,
          "velocity": 0.6377952755905512
        },
        {
          "duration": 0.33536570833334167,
          "durationTicks": 44,
          "midi": 74,
          "name": "D5",
          "ticks": 20736,
          "time": 158.048712,
          "velocity": 0.6377952755905512
        },
        {
          "duration": 0.15243895833336296,
          "durationTicks": 20,
          "midi": 76,
          "name": "E5",
          "ticks": 20808,
          "time": 158.59749225,
          "velocity": 0.6377952755905512
        },
        {
          "duration": 0.33536570833334167,
          "durationTicks": 44,
          "midi": 79,
          "name": "G5",
          "ticks": 20832,
          "time": 158.780419,
          "velocity": 0.6377952755905512
        },
        {
          "duration": 1.0670727083333418,
          "durationTicks": 140,
          "midi": 76,
          "name": "E5",
          "ticks": 20880,
          "time": 159.1462725,
          "velocity": 0.6377952755905512
        },
        {
          "duration": 0.33536570833334167,
          "durationTicks": 44,
          "midi": 76,
          "name": "E5",
          "ticks": 21072,
          "time": 160.6096865,
          "velocity": 0.6377952755905512
        },
        {
          "duration": 0.33536570833334167,
          "durationTicks": 44,
          "midi": 76,
          "name": "E5",
          "ticks": 21120,
          "time": 160.97554,
          "velocity": 0.6377952755905512
        },
        {
          "duration": 0.15243895833336296,
          "durationTicks": 20,
          "midi": 79,
          "name": "G5",
          "ticks": 21192,
          "time": 161.52432025,
          "velocity": 0.6377952755905512
        },
        {
          "duration": 0.33536570833334167,
          "durationTicks": 44,
          "midi": 81,
          "name": "A5",
          "ticks": 21216,
          "time": 161.707247,
          "velocity": 0.6377952755905512
        },
        {
          "duration": 0.33536570833334167,
          "durationTicks": 44,
          "midi": 79,
          "name": "G5",
          "ticks": 21264,
          "time": 162.0731005,
          "velocity": 0.6377952755905512
        },
        {
          "duration": 0.33536570833334167,
          "durationTicks": 44,
          "midi": 81,
          "name": "A5",
          "ticks": 21312,
          "time": 162.438954,
          "velocity": 0.6377952755905512
        },
        {
          "duration": 0.33536570833334167,
          "durationTicks": 44,
          "midi": 79,
          "name": "G5",
          "ticks": 21360,
          "time": 162.8048075,
          "velocity": 0.6377952755905512
        },
        {
          "duration": 0.33536570833334167,
          "durationTicks": 44,
          "midi": 76,
          "name": "E5",
          "ticks": 21408,
          "time": 163.170661,
          "velocity": 0.6377952755905512
        },
        {
          "duration": 0.33536570833334167,
          "durationTicks": 44,
          "midi": 74,
          "name": "D5",
          "ticks": 21456,
          "time": 163.5365145,
          "velocity": 0.6377952755905512
        },
        {
          "duration": 0.15243895833333454,
          "durationTicks": 20,
          "midi": 76,
          "name": "E5",
          "ticks": 21504,
          "time": 163.902368,
          "velocity": 0.6377952755905512
        },
        {
          "duration": 0.15243895833333454,
          "durationTicks": 20,
          "midi": 79,
          "name": "G5",
          "ticks": 21528,
          "time": 164.08529475,
          "velocity": 0.6377952755905512
        },
        {
          "duration": 0.15243895833333454,
          "durationTicks": 20,
          "midi": 76,
          "name": "E5",
          "ticks": 21552,
          "time": 164.2682215,
          "velocity": 0.6377952755905512
        },
        {
          "duration": 0.15243895833336296,
          "durationTicks": 20,
          "midi": 74,
          "name": "D5",
          "ticks": 21576,
          "time": 164.45114825,
          "velocity": 0.6377952755905512
        },
        {
          "duration": 0.33536570833334167,
          "durationTicks": 44,
          "midi": 72,
          "name": "C5",
          "ticks": 21600,
          "time": 164.634075,
          "velocity": 0.6377952755905512
        },
        {
          "duration": 0.33536570833334167,
          "durationTicks": 44,
          "midi": 74,
          "name": "D5",
          "ticks": 21648,
          "time": 164.9999285,
          "velocity": 0.6377952755905512
        },
        {
          "duration": 1.0670727083333418,
          "durationTicks": 140,
          "midi": 69,
          "name": "A4",
          "ticks": 21696,
          "time": 165.365782,
          "velocity": 0.6377952755905512
        }
      ]
    },
    {
      "channel": 0,
      "controlChanges": {
        "6": [
          {
            "number": 6,
            "ticks": 0,
            "time": 0,
            "value": 0.09448818897637795
          }
        ],
        "7": [
          {
            "number": 7,
            "ticks": 0,
            "time": 0,
            "value": 0.7874015748031497
          },
          {
            "number": 7,
            "ticks": 0,
            "time": 0,
            "value": 0.7874015748031497
          }
        ],
        "10": [
          {
            "number": 10,
            "ticks": 0,
            "time": 0,
            "value": 0.5039370078740157
          },
          {
            "number": 10,
            "ticks": 0,
            "time": 0,
            "value": 0.5039370078740157
          }
        ],
        "100": [
          {
            "number": 100,
            "ticks": 0,
            "time": 0,
            "value": 0
          }
        ],
        "101": [
          {
            "number": 101,
            "ticks": 0,
            "time": 0,
            "value": 0
          }
        ]
      },
      "pitchBends": [
        {
          "ticks": 0,
          "time": 0,
          "value": 0
        },
        {
          "ticks": 0,
          "time": 0,
          "value": 0
        }
      ],
      "instrument": {
        "family": "piano",
        "name": "acoustic grand piano",
        "number": 0
      },
      "name": "Strings",
      "notes": []
    },
    {
      "channel": 8,
      "controlChanges": {
        "6": [
          {
            "number": 6,
            "ticks": 0,
            "time": 0,
            "value": 0.09448818897637795
          },
          {
            "number": 6,
            "ticks": 22752,
            "time": 173.414559,
            "value": 0.09448818897637795
          },
          {
            "number": 6,
            "ticks": 22753,
            "time": 173.42218094791667,
            "value": 0.09448818897637795
          },
          {
            "number": 6,
            "ticks": 22753,
            "time": 173.42218094791667,
            "value": 0.09448818897637795
          }
        ],
        "7": [
          {
            "number": 7,
            "ticks": 0,
            "time": 0,
            "value": 0.7874015748031497
          },
          {
            "number": 7,
            "ticks": 0,
            "time": 0,
            "value": 0.7874015748031497
          },
          {
            "number": 7,
            "ticks": 0,
            "time": 0,
            "value": 0.7874015748031497
          },
          {
            "number": 7,
            "ticks": 22752,
            "time": 173.414559,
            "value": 0.7874015748031497
          },
          {
            "number": 7,
            "ticks": 22753,
            "time": 173.42218094791667,
            "value": 0.7874015748031497
          },
          {
            "number": 7,
            "ticks": 22753,
            "time": 173.42218094791667,
            "value": 0.7874015748031497
          }
        ],
        "10": [
          {
            "number": 10,
            "ticks": 0,
            "time": 0,
            "value": 0.5039370078740157
          },
          {
            "number": 10,
            "ticks": 0,
            "time": 0,
            "value": 0.5039370078740157
          },
          {
            "number": 10,
            "ticks": 0,
            "time": 0,
            "value": 0.5039370078740157
          },
          {
            "number": 10,
            "ticks": 22752,
            "time": 173.414559,
            "value": 0.5039370078740157
          },
          {
            "number": 10,
            "ticks": 22753,
            "time": 173.42218094791667,
            "value": 0.5039370078740157
          },
          {
            "number": 10,
            "ticks": 22753,
            "time": 173.42218094791667,
            "value": 0.5039370078740157
          }
        ],
        "91": [
          {
            "number": 91,
            "ticks": 0,
            "time": 0,
            "value": 0.5039370078740157
          },
          {
            "number": 91,
            "ticks": 0,
            "time": 0,
            "value": 0.5039370078740157
          },
          {
            "number": 91,
            "ticks": 0,
            "time": 0,
            "value": 0.5039370078740157
          },
          {
            "number": 91,
            "ticks": 0,
            "time": 0,
            "value": 0.5039370078740157
          },
          {
            "number": 91,
            "ticks": 22752,
            "time": 173.414559,
            "value": 0.5039370078740157
          },
          {
            "number": 91,
            "ticks": 22753,
            "time": 173.42218094791667,
            "value": 0.5039370078740157
          },
          {
            "number": 91,
            "ticks": 22753,
            "time": 173.42218094791667,
            "value": 0.5039370078740157
          }
        ],
        "100": [
          {
            "number": 100,
            "ticks": 0,
            "time": 0,
            "value": 0
          },
          {
            "number": 100,
            "ticks": 22752,
            "time": 173.414559,
            "value": 0
          },
          {
            "number": 100,
            "ticks": 22753,
            "time": 173.42218094791667,
            "value": 0
          },
          {
            "number": 100,
            "ticks": 22753,
            "time": 173.42218094791667,
            "value": 0
          }
        ],
        "101": [
          {
            "number": 101,
            "ticks": 0,
            "time": 0,
            "value": 0
          },
          {
            "number": 101,
            "ticks": 22752,
            "time": 173.414559,
            "value": 0
          },
          {
            "number": 101,
            "ticks": 22753,
            "time": 173.42218094791667,
            "value": 0
          },
          {
            "number": 101,
            "ticks": 22753,
            "time": 173.42218094791667,
            "value": 0
          }
        ]
      },
      "pitchBends": [
        {
          "ticks": 0,
          "time": 0,
          "value": 0
        },
        {
          "ticks": 0,
          "time": 0,
          "value": 0
        },
        {
          "ticks": 0,
          "time": 0,
          "value": 0
        },
        {
          "ticks": 22752,
          "time": 173.414559,
          "value": 0
        },
        {
          "ticks": 22753,
          "time": 173.42218094791667,
          "value": 0
        },
        {
          "ticks": 22753,
          "time": 173.42218094791667,
          "value": 0
        }
      ],
      "instrument": {
        "family": "ensemble",
        "name": "string ensemble 1",
        "number": 48
      },
      "name": "",
      "notes": [
        {
          "duration": 1.4634140000000002,
          "durationTicks": 192,
          "midi": 56,
          "name": "G#3",
          "ticks": 4992,
          "time": 38.048764,
          "velocity": 0.4566929133858268
        },
        {
          "duration": 1.4634140000000002,
          "durationTicks": 192,
          "midi": 51,
          "name": "D#3",
          "ticks": 4992,
          "time": 38.048764,
          "velocity": 0.4566929133858268
        },
        {
          "duration": 1.4634140000000002,
          "durationTicks": 192,
          "midi": 44,
          "name": "G#2",
          "ticks": 4992,
          "time": 38.048764,
          "velocity": 0.4566929133858268
        },
        {
          "duration": 1.4634140000000002,
          "durationTicks": 192,
          "midi": 52,
          "name": "E3",
          "ticks": 5184,
          "time": 39.512178,
          "velocity": 0.4566929133858268
        },
        {
          "duration": 1.4634140000000002,
          "durationTicks": 192,
          "midi": 47,
          "name": "B2",
          "ticks": 5184,
          "time": 39.512178,
          "velocity": 0.4566929133858268
        },
        {
          "duration": 1.4634140000000002,
          "durationTicks": 192,
          "midi": 54,
          "name": "F#3",
          "ticks": 5376,
          "time": 40.975592,
          "velocity": 0.4566929133858268
        },
        {
          "duration": 1.4634140000000002,
          "durationTicks": 192,
          "midi": 49,
          "name": "C#3",
          "ticks": 5376,
          "time": 40.975592,
          "velocity": 0.4566929133858268
        },
        {
          "duration": 1.4634140000000002,
          "durationTicks": 192,
          "midi": 46,
          "name": "A#2",
          "ticks": 5376,
          "time": 40.975592,
          "velocity": 0.4566929133858268
        },
        {
          "duration": 2.9268280000000004,
          "durationTicks": 384,
          "midi": 51,
          "name": "D#3",
          "ticks": 5568,
          "time": 42.439006,
          "velocity": 0.4566929133858268
        },
        {
          "duration": 1.4634140000000002,
          "durationTicks": 192,
          "midi": 47,
          "name": "B2",
          "ticks": 5568,
          "time": 42.439006,
          "velocity": 0.4566929133858268
        },
        {
          "duration": 1.4634140000000002,
          "durationTicks": 192,
          "midi": 42,
          "name": "F#2",
          "ticks": 5568,
          "time": 42.439006,
          "velocity": 0.4566929133858268
        },
        {
          "duration": 1.4634140000000002,
          "durationTicks": 192,
          "midi": 56,
          "name": "G#3",
          "ticks": 5760,
          "time": 43.90242,
          "velocity": 0.4566929133858268
        },
        {
          "duration": 1.4634140000000002,
          "durationTicks": 192,
          "midi": 44,
          "name": "G#2",
          "ticks": 5760,
          "time": 43.90242,
          "velocity": 0.4566929133858268
        },
        {
          "duration": 1.4634140000000002,
          "durationTicks": 192,
          "midi": 52,
          "name": "E3",
          "ticks": 5952,
          "time": 45.365834,
          "velocity": 0.4566929133858268
        },
        {
          "duration": 1.4634140000000002,
          "durationTicks": 192,
          "midi": 47,
          "name": "B2",
          "ticks": 5952,
          "time": 45.365834,
          "velocity": 0.4566929133858268
        },
        {
          "duration": 2.9268280000000004,
          "durationTicks": 384,
          "midi": 54,
          "name": "F#3",
          "ticks": 6144,
          "time": 46.829248,
          "velocity": 0.4566929133858268
        },
        {
          "duration": 1.4634140000000002,
          "durationTicks": 192,
          "midi": 49,
          "name": "C#3",
          "ticks": 6144,
          "time": 46.829248,
          "velocity": 0.4566929133858268
        },
        {
          "duration": 1.4634140000000002,
          "durationTicks": 192,
          "midi": 46,
          "name": "A#2",
          "ticks": 6144,
          "time": 46.829248,
          "velocity": 0.4566929133858268
        },
        {
          "duration": 1.4634140000000002,
          "durationTicks": 192,
          "midi": 59,
          "name": "B3",
          "ticks": 6336,
          "time": 48.292662,
          "velocity": 0.4566929133858268
        },
        {
          "duration": 2.9268280000000004,
          "durationTicks": 384,
          "midi": 51,
          "name": "D#3",
          "ticks": 6336,
          "time": 48.292662,
          "velocity": 0.4566929133858268
        },
        {
          "duration": 1.4634140000000002,
          "durationTicks": 192,
          "midi": 56,
          "name": "G#3",
          "ticks": 6528,
          "time": 49.756076,
          "velocity": 0.4566929133858268
        },
        {
          "duration": 1.4634140000000002,
          "durationTicks": 192,
          "midi": 44,
          "name": "G#2",
          "ticks": 6528,
          "time": 49.756076,
          "velocity": 0.4566929133858268
        },
        {
          "duration": 1.4634140000000002,
          "durationTicks": 192,
          "midi": 52,
          "name": "E3",
          "ticks": 6720,
          "time": 51.21949,
          "velocity": 0.4566929133858268
        },
        {
          "duration": 1.4634140000000002,
          "durationTicks": 192,
          "midi": 47,
          "name": "B2",
          "ticks": 6720,
          "time": 51.21949,
          "velocity": 0.4566929133858268
        },
        {
          "duration": 1.4634140000000002,
          "durationTicks": 192,
          "midi": 54,
          "name": "F#3",
          "ticks": 6912,
          "time": 52.682904,
          "velocity": 0.4566929133858268
        },
        {
          "duration": 1.4634140000000002,
          "durationTicks": 192,
          "midi": 49,
          "name": "C#3",
          "ticks": 6912,
          "time": 52.682904,
          "velocity": 0.4566929133858268
        },
        {
          "duration": 1.4634140000000002,
          "durationTicks": 192,
          "midi": 46,
          "name": "A#2",
          "ticks": 6912,
          "time": 52.682904,
          "velocity": 0.4566929133858268
        },
        {
          "duration": 2.9268280000000004,
          "durationTicks": 384,
          "midi": 51,
          "name": "D#3",
          "ticks": 7104,
          "time": 54.146318,
          "velocity": 0.4566929133858268
        },
        {
          "duration": 1.4634140000000002,
          "durationTicks": 192,
          "midi": 47,
          "name": "B2",
          "ticks": 7104,
          "time": 54.146318,
          "velocity": 0.4566929133858268
        },
        {
          "duration": 1.4634140000000002,
          "durationTicks": 192,
          "midi": 42,
          "name": "F#2",
          "ticks": 7104,
          "time": 54.146318,
          "velocity": 0.4566929133858268
        },
        {
          "duration": 1.4634140000000002,
          "durationTicks": 192,
          "midi": 56,
          "name": "G#3",
          "ticks": 7296,
          "time": 55.609732,
          "velocity": 0.4566929133858268
        },
        {
          "duration": 1.4634140000000002,
          "durationTicks": 192,
          "midi": 44,
          "name": "G#2",
          "ticks": 7296,
          "time": 55.609732,
          "velocity": 0.4566929133858268
        },
        {
          "duration": 1.4634140000000002,
          "durationTicks": 192,
          "midi": 47,
          "name": "B2",
          "ticks": 7488,
          "time": 57.073146,
          "velocity": 0.4566929133858268
        },
        {
          "duration": 1.4634140000000002,
          "durationTicks": 192,
          "midi": 52,
          "name": "E3",
          "ticks": 7488,
          "time": 57.073146,
          "velocity": 0.4566929133858268
        },
        {
          "duration": 1.4634140000000002,
          "durationTicks": 192,
          "midi": 54,
          "name": "F#3",
          "ticks": 7680,
          "time": 58.53656,
          "velocity": 0.4566929133858268
        },
        {
          "duration": 1.4634140000000002,
          "durationTicks": 192,
          "midi": 49,
          "name": "C#3",
          "ticks": 7680,
          "time": 58.53656,
          "velocity": 0.4566929133858268
        },
        {
          "duration": 1.4634140000000002,
          "durationTicks": 192,
          "midi": 46,
          "name": "A#2",
          "ticks": 7680,
          "time": 58.53656,
          "velocity": 0.4566929133858268
        },
        {
          "duration": 2.9268280000000004,
          "durationTicks": 384,
          "midi": 44,
          "name": "G#2",
          "ticks": 7872,
          "time": 59.999974,
          "velocity": 0.4566929133858268
        },
        {
          "duration": 2.9268280000000004,
          "durationTicks": 384,
          "midi": 51,
          "name": "D#3",
          "ticks": 7872,
          "time": 59.999974,
          "velocity": 0.4566929133858268
        },
        {
          "duration": 1.4634140000000002,
          "durationTicks": 192,
          "midi": 56,
          "name": "G#3",
          "ticks": 8064,
          "time": 61.463388,
          "velocity": 0.4566929133858268
        },
        {
          "duration": 1.463413999999993,
          "durationTicks": 192,
          "midi": 52,
          "name": "E3",
          "ticks": 8256,
          "time": 62.926802,
          "velocity": 0.4566929133858268
        },
        {
          "duration": 1.463413999999993,
          "durationTicks": 192,
          "midi": 47,
          "name": "B2",
          "ticks": 8256,
          "time": 62.926802,
          "velocity": 0.4566929133858268
        },
        {
          "duration": 1.4634140000000002,
          "durationTicks": 192,
          "midi": 54,
          "name": "F#3",
          "ticks": 8448,
          "time": 64.390216,
          "velocity": 0.4566929133858268
        },
        {
          "duration": 1.4634140000000002,
          "durationTicks": 192,
          "midi": 49,
          "name": "C#3",
          "ticks": 8448,
          "time": 64.390216,
          "velocity": 0.4566929133858268
        },
        {
          "duration": 1.4634140000000002,
          "durationTicks": 192,
          "midi": 46,
          "name": "A#2",
          "ticks": 8448,
          "time": 64.390216,
          "velocity": 0.4566929133858268
        },
        {
          "duration": 1.4634140000000002,
          "durationTicks": 192,
          "midi": 42,
          "name": "F#2",
          "ticks": 8640,
          "time": 65.85363,
          "velocity": 0.4566929133858268
        },
        {
          "duration": 1.4634140000000002,
          "durationTicks": 192,
          "midi": 47,
          "name": "B2",
          "ticks": 8640,
          "time": 65.85363,
          "velocity": 0.4566929133858268
        },
        {
          "duration": 2.9268280000000004,
          "durationTicks": 384,
          "midi": 51,
          "name": "D#3",
          "ticks": 8640,
          "time": 65.85363,
          "velocity": 0.4566929133858268
        },
        {
          "duration": 1.4634140000000002,
          "durationTicks": 192,
          "midi": 56,
          "name": "G#3",
          "ticks": 8832,
          "time": 67.317044,
          "velocity": 0.4566929133858268
        },
        {
          "duration": 1.4634140000000002,
          "durationTicks": 192,
          "midi": 44,
          "name": "G#2",
          "ticks": 8832,
          "time": 67.317044,
          "velocity": 0.4566929133858268
        },
        {
          "duration": 1.4634140000000002,
          "durationTicks": 192,
          "midi": 52,
          "name": "E3",
          "ticks": 9024,
          "time": 68.780458,
          "velocity": 0.4566929133858268
        },
        {
          "duration": 1.4634140000000002,
          "durationTicks": 192,
          "midi": 47,
          "name": "B2",
          "ticks": 9024,
          "time": 68.780458,
          "velocity": 0.4566929133858268
        },
        {
          "duration": 1.4634140000000002,
          "durationTicks": 192,
          "midi": 54,
          "name": "F#3",
          "ticks": 9216,
          "time": 70.243872,
          "velocity": 0.4566929133858268
        },
        {
          "duration": 1.4634140000000002,
          "durationTicks": 192,
          "midi": 49,
          "name": "C#3",
          "ticks": 9216,
          "time": 70.243872,
          "velocity": 0.4566929133858268
        },
        {
          "duration": 1.4634140000000002,
          "durationTicks": 192,
          "midi": 46,
          "name": "A#2",
          "ticks": 9216,
          "time": 70.243872,
          "velocity": 0.4566929133858268
        },
        {
          "duration": 1.4557920520833392,
          "durationTicks": 191,
          "midi": 56,
          "name": "G#3",
          "ticks": 9408,
          "time": 71.707286,
          "velocity": 0.4566929133858268
        },
        {
          "duration": 1.4557920520833392,
          "durationTicks": 191,
          "midi": 51,
          "name": "D#3",
          "ticks": 9408,
          "time": 71.707286,
          "velocity": 0.4566929133858268
        },
        {
          "duration": 1.4557920520833392,
          "durationTicks": 191,
          "midi": 44,
          "name": "G#2",
          "ticks": 9408,
          "time": 71.707286,
          "velocity": 0.4566929133858268
        },
        {
          "duration": 1.4634140000000002,
          "durationTicks": 192,
          "midi": 56,
          "name": "G#3",
          "ticks": 12672,
          "time": 96.585324,
          "velocity": 0.4566929133858268
        },
        {
          "duration": 1.4634140000000002,
          "durationTicks": 192,
          "midi": 51,
          "name": "D#3",
          "ticks": 12672,
          "time": 96.585324,
          "velocity": 0.4566929133858268
        },
        {
          "duration": 1.4634140000000002,
          "durationTicks": 192,
          "midi": 44,
          "name": "G#2",
          "ticks": 12672,
          "time": 96.585324,
          "velocity": 0.4566929133858268
        },
        {
          "duration": 1.4634140000000002,
          "durationTicks": 192,
          "midi": 52,
          "name": "E3",
          "ticks": 12864,
          "time": 98.048738,
          "velocity": 0.4566929133858268
        },
        {
          "duration": 1.4634140000000002,
          "durationTicks": 192,
          "midi": 47,
          "name": "B2",
          "ticks": 12864,
          "time": 98.048738,
          "velocity": 0.4566929133858268
        },
        {
          "duration": 1.4634140000000002,
          "durationTicks": 192,
          "midi": 54,
          "name": "F#3",
          "ticks": 13056,
          "time": 99.512152,
          "velocity": 0.4566929133858268
        },
        {
          "duration": 1.4634140000000002,
          "durationTicks": 192,
          "midi": 49,
          "name": "C#3",
          "ticks": 13056,
          "time": 99.512152,
          "velocity": 0.4566929133858268
        },
        {
          "duration": 1.4634140000000002,
          "durationTicks": 192,
          "midi": 46,
          "name": "A#2",
          "ticks": 13056,
          "time": 99.512152,
          "velocity": 0.4566929133858268
        },
        {
          "duration": 2.9268280000000004,
          "durationTicks": 384,
          "midi": 51,
          "name": "D#3",
          "ticks": 13248,
          "time": 100.975566,
          "velocity": 0.4566929133858268
        },
        {
          "duration": 1.4634140000000002,
          "durationTicks": 192,
          "midi": 47,
          "name": "B2",
          "ticks": 13248,
          "time": 100.975566,
          "velocity": 0.4566929133858268
        },
        {
          "duration": 1.4634140000000002,
          "durationTicks": 192,
          "midi": 42,
          "name": "F#2",
          "ticks": 13248,
          "time": 100.975566,
          "velocity": 0.4566929133858268
        },
        {
          "duration": 1.4634140000000002,
          "durationTicks": 192,
          "midi": 56,
          "name": "G#3",
          "ticks": 13440,
          "time": 102.43898,
          "velocity": 0.4566929133858268
        },
        {
          "duration": 1.4634140000000002,
          "durationTicks": 192,
          "midi": 44,
          "name": "G#2",
          "ticks": 13440,
          "time": 102.43898,
          "velocity": 0.4566929133858268
        },
        {
          "duration": 1.4634140000000002,
          "durationTicks": 192,
          "midi": 52,
          "name": "E3",
          "ticks": 13632,
          "time": 103.902394,
          "velocity": 0.4566929133858268
        },
        {
          "duration": 1.4634140000000002,
          "durationTicks": 192,
          "midi": 47,
          "name": "B2",
          "ticks": 13632,
          "time": 103.902394,
          "velocity": 0.4566929133858268
        },
        {
          "duration": 2.9268280000000004,
          "durationTicks": 384,
          "midi": 54,
          "name": "F#3",
          "ticks": 13824,
          "time": 105.365808,
          "velocity": 0.4566929133858268
        },
        {
          "duration": 1.4634140000000002,
          "durationTicks": 192,
          "midi": 49,
          "name": "C#3",
          "ticks": 13824,
          "time": 105.365808,
          "velocity": 0.4566929133858268
        },
        {
          "duration": 1.4634140000000002,
          "durationTicks": 192,
          "midi": 46,
          "name": "A#2",
          "ticks": 13824,
          "time": 105.365808,
          "velocity": 0.4566929133858268
        },
        {
          "duration": 1.4634140000000002,
          "durationTicks": 192,
          "midi": 59,
          "name": "B3",
          "ticks": 14016,
          "time": 106.829222,
          "velocity": 0.4566929133858268
        },
        {
          "duration": 2.9268280000000004,
          "durationTicks": 384,
          "midi": 51,
          "name": "D#3",
          "ticks": 14016,
          "time": 106.829222,
          "velocity": 0.4566929133858268
        },
        {
          "duration": 1.4634140000000002,
          "durationTicks": 192,
          "midi": 56,
          "name": "G#3",
          "ticks": 14208,
          "time": 108.292636,
          "velocity": 0.4566929133858268
        },
        {
          "duration": 1.4634140000000002,
          "durationTicks": 192,
          "midi": 44,
          "name": "G#2",
          "ticks": 14208,
          "time": 108.292636,
          "velocity": 0.4566929133858268
        },
        {
          "duration": 1.4634140000000002,
          "durationTicks": 192,
          "midi": 52,
          "name": "E3",
          "ticks": 14400,
          "time": 109.75605,
          "velocity": 0.4566929133858268
        },
        {
          "duration": 1.4634140000000002,
          "durationTicks": 192,
          "midi": 47,
          "name": "B2",
          "ticks": 14400,
          "time": 109.75605,
          "velocity": 0.4566929133858268
        },
        {
          "duration": 1.4634140000000002,
          "durationTicks": 192,
          "midi": 54,
          "name": "F#3",
          "ticks": 14592,
          "time": 111.219464,
          "velocity": 0.4566929133858268
        },
        {
          "duration": 1.4634140000000002,
          "durationTicks": 192,
          "midi": 49,
          "name": "C#3",
          "ticks": 14592,
          "time": 111.219464,
          "velocity": 0.4566929133858268
        },
        {
          "duration": 1.4634140000000002,
          "durationTicks": 192,
          "midi": 46,
          "name": "A#2",
          "ticks": 14592,
          "time": 111.219464,
          "velocity": 0.4566929133858268
        },
        {
          "duration": 2.9268280000000004,
          "durationTicks": 384,
          "midi": 51,
          "name": "D#3",
          "ticks": 14784,
          "time": 112.682878,
          "velocity": 0.4566929133858268
        },
        {
          "duration": 1.4634140000000002,
          "durationTicks": 192,
          "midi": 47,
          "name": "B2",
          "ticks": 14784,
          "time": 112.682878,
          "velocity": 0.4566929133858268
        },
        {
          "duration": 1.4634140000000002,
          "durationTicks": 192,
          "midi": 42,
          "name": "F#2",
          "ticks": 14784,
          "time": 112.682878,
          "velocity": 0.4566929133858268
        },
        {
          "duration": 1.4634140000000002,
          "durationTicks": 192,
          "midi": 44,
          "name": "G#2",
          "ticks": 14976,
          "time": 114.146292,
          "velocity": 0.4566929133858268
        },
        {
          "duration": 1.4634140000000002,
          "durationTicks": 192,
          "midi": 56,
          "name": "G#3",
          "ticks": 14976,
          "time": 114.146292,
          "velocity": 0.4566929133858268
        },
        {
          "duration": 1.4634140000000002,
          "durationTicks": 192,
          "midi": 52,
          "name": "E3",
          "ticks": 15168,
          "time": 115.609706,
          "velocity": 0.4566929133858268
        },
        {
          "duration": 1.4634140000000002,
          "durationTicks": 192,
          "midi": 47,
          "name": "B2",
          "ticks": 15168,
          "time": 115.609706,
          "velocity": 0.4566929133858268
        },
        {
          "duration": 1.4634140000000002,
          "durationTicks": 192,
          "midi": 46,
          "name": "A#2",
          "ticks": 15360,
          "time": 117.07312,
          "velocity": 0.4566929133858268
        },
        {
          "duration": 1.4634140000000002,
          "durationTicks": 192,
          "midi": 49,
          "name": "C#3",
          "ticks": 15360,
          "time": 117.07312,
          "velocity": 0.4566929133858268
        },
        {
          "duration": 1.4634140000000002,
          "durationTicks": 192,
          "midi": 54,
          "name": "F#3",
          "ticks": 15360,
          "time": 117.07312,
          "velocity": 0.4566929133858268
        },
        {
          "duration": 1.4634140000000002,
          "durationTicks": 192,
          "midi": 51,
          "name": "D#3",
          "ticks": 15552,
          "time": 118.536534,
          "velocity": 0.4566929133858268
        },
        {
          "duration": 1.4634140000000002,
          "durationTicks": 192,
          "midi": 44,
          "name": "G#2",
          "ticks": 15552,
          "time": 118.536534,
          "velocity": 0.4566929133858268
        },
        {
          "duration": 1.4634140000000002,
          "durationTicks": 192,
          "midi": 57,
          "name": "A3",
          "ticks": 17280,
          "time": 131.70726,
          "velocity": 0.5039370078740157
        },
        {
          "duration": 1.4634140000000002,
          "durationTicks": 192,
          "midi": 52,
          "name": "E3",
          "ticks": 17280,
          "time": 131.70726,
          "velocity": 0.5039370078740157
        },
        {
          "duration": 1.4634140000000002,
          "durationTicks": 192,
          "midi": 45,
          "name": "A2",
          "ticks": 17280,
          "time": 131.70726,
          "velocity": 0.5039370078740157
        },
        {
          "duration": 1.4634140000000002,
          "durationTicks": 192,
          "midi": 53,
          "name": "F3",
          "ticks": 17472,
          "time": 133.170674,
          "velocity": 0.5039370078740157
        },
        {
          "duration": 1.4634140000000002,
          "durationTicks": 192,
          "midi": 48,
          "name": "C3",
          "ticks": 17472,
          "time": 133.170674,
          "velocity": 0.5039370078740157
        },
        {
          "duration": 1.4634140000000002,
          "durationTicks": 192,
          "midi": 47,
          "name": "B2",
          "ticks": 17664,
          "time": 134.634088,
          "velocity": 0.5039370078740157
        },
        {
          "duration": 1.4634140000000002,
          "durationTicks": 192,
          "midi": 50,
          "name": "D3",
          "ticks": 17664,
          "time": 134.634088,
          "velocity": 0.5039370078740157
        },
        {
          "duration": 1.4634140000000002,
          "durationTicks": 192,
          "midi": 55,
          "name": "G3",
          "ticks": 17664,
          "time": 134.634088,
          "velocity": 0.5039370078740157
        },
        {
          "duration": 2.9268280000000004,
          "durationTicks": 384,
          "midi": 52,
          "name": "E3",
          "ticks": 17856,
          "time": 136.097502,
          "velocity": 0.5039370078740157
        },
        {
          "duration": 1.4634140000000002,
          "durationTicks": 192,
          "midi": 48,
          "name": "C3",
          "ticks": 17856,
          "time": 136.097502,
          "velocity": 0.5039370078740157
        },
        {
          "duration": 1.4634140000000002,
          "durationTicks": 192,
          "midi": 43,
          "name": "G2",
          "ticks": 17856,
          "time": 136.097502,
          "velocity": 0.5039370078740157
        },
        {
          "duration": 1.4634140000000002,
          "durationTicks": 192,
          "midi": 45,
          "name": "A2",
          "ticks": 18048,
          "time": 137.560916,
          "velocity": 0.5039370078740157
        },
        {
          "duration": 1.4634140000000002,
          "durationTicks": 192,
          "midi": 57,
          "name": "A3",
          "ticks": 18048,
          "time": 137.560916,
          "velocity": 0.5039370078740157
        },
        {
          "duration": 1.4634140000000002,
          "durationTicks": 192,
          "midi": 53,
          "name": "F3",
          "ticks": 18240,
          "time": 139.02433,
          "velocity": 0.5039370078740157
        },
        {
          "duration": 1.4634140000000002,
          "durationTicks": 192,
          "midi": 48,
          "name": "C3",
          "ticks": 18240,
          "time": 139.02433,
          "velocity": 0.5039370078740157
        },
        {
          "duration": 1.4634140000000002,
          "durationTicks": 192,
          "midi": 47,
          "name": "B2",
          "ticks": 18432,
          "time": 140.487744,
          "velocity": 0.5039370078740157
        },
        {
          "duration": 1.4634140000000002,
          "durationTicks": 192,
          "midi": 50,
          "name": "D3",
          "ticks": 18432,
          "time": 140.487744,
          "velocity": 0.5039370078740157
        },
        {
          "duration": 2.9268280000000004,
          "durationTicks": 384,
          "midi": 55,
          "name": "G3",
          "ticks": 18432,
          "time": 140.487744,
          "velocity": 0.5039370078740157
        },
        {
          "duration": 1.4634140000000002,
          "durationTicks": 192,
          "midi": 60,
          "name": "C4",
          "ticks": 18624,
          "time": 141.951158,
          "velocity": 0.5039370078740157
        },
        {
          "duration": 2.9268280000000004,
          "durationTicks": 384,
          "midi": 52,
          "name": "E3",
          "ticks": 18624,
          "time": 141.951158,
          "velocity": 0.5039370078740157
        },
        {
          "duration": 1.4634140000000002,
          "durationTicks": 192,
          "midi": 57,
          "name": "A3",
          "ticks": 18816,
          "time": 143.414572,
          "velocity": 0.5039370078740157
        },
        {
          "duration": 1.4634140000000002,
          "durationTicks": 192,
          "midi": 45,
          "name": "A2",
          "ticks": 18816,
          "time": 143.414572,
          "velocity": 0.5039370078740157
        },
        {
          "duration": 1.4634140000000002,
          "durationTicks": 192,
          "midi": 48,
          "name": "C3",
          "ticks": 19008,
          "time": 144.877986,
          "velocity": 0.5039370078740157
        },
        {
          "duration": 1.4634140000000002,
          "durationTicks": 192,
          "midi": 53,
          "name": "F3",
          "ticks": 19008,
          "time": 144.877986,
          "velocity": 0.5039370078740157
        },
        {
          "duration": 1.4634140000000002,
          "durationTicks": 192,
          "midi": 55,
          "name": "G3",
          "ticks": 19200,
          "time": 146.3414,
          "velocity": 0.5039370078740157
        },
        {
          "duration": 1.4634140000000002,
          "durationTicks": 192,
          "midi": 50,
          "name": "D3",
          "ticks": 19200,
          "time": 146.3414,
          "velocity": 0.5039370078740157
        },
        {
          "duration": 1.4634140000000002,
          "durationTicks": 192,
          "midi": 47,
          "name": "B2",
          "ticks": 19200,
          "time": 146.3414,
          "velocity": 0.5039370078740157
        },
        {
          "duration": 1.4634140000000002,
          "durationTicks": 192,
          "midi": 43,
          "name": "G2",
          "ticks": 19392,
          "time": 147.804814,
          "velocity": 0.5039370078740157
        },
        {
          "duration": 1.4634140000000002,
          "durationTicks": 192,
          "midi": 48,
          "name": "C3",
          "ticks": 19392,
          "time": 147.804814,
          "velocity": 0.5039370078740157
        },
        {
          "duration": 2.9268280000000004,
          "durationTicks": 384,
          "midi": 52,
          "name": "E3",
          "ticks": 19392,
          "time": 147.804814,
          "velocity": 0.5039370078740157
        },
        {
          "duration": 1.4634140000000002,
          "durationTicks": 192,
          "midi": 57,
          "name": "A3",
          "ticks": 19584,
          "time": 149.268228,
          "velocity": 0.5039370078740157
        },
        {
          "duration": 1.4634140000000002,
          "durationTicks": 192,
          "midi": 45,
          "name": "A2",
          "ticks": 19584,
          "time": 149.268228,
          "velocity": 0.5039370078740157
        },
        {
          "duration": 1.4634140000000002,
          "durationTicks": 192,
          "midi": 53,
          "name": "F3",
          "ticks": 19776,
          "time": 150.731642,
          "velocity": 0.5039370078740157
        },
        {
          "duration": 1.4634140000000002,
          "durationTicks": 192,
          "midi": 48,
          "name": "C3",
          "ticks": 19776,
          "time": 150.731642,
          "velocity": 0.5039370078740157
        },
        {
          "duration": 1.4634140000000002,
          "durationTicks": 192,
          "midi": 47,
          "name": "B2",
          "ticks": 19968,
          "time": 152.195056,
          "velocity": 0.5039370078740157
        },
        {
          "duration": 1.4634140000000002,
          "durationTicks": 192,
          "midi": 50,
          "name": "D3",
          "ticks": 19968,
          "time": 152.195056,
          "velocity": 0.5039370078740157
        },
        {
          "duration": 1.4634140000000002,
          "durationTicks": 192,
          "midi": 55,
          "name": "G3",
          "ticks": 19968,
          "time": 152.195056,
          "velocity": 0.5039370078740157
        },
        {
          "duration": 2.9268280000000004,
          "durationTicks": 384,
          "midi": 52,
          "name": "E3",
          "ticks": 20160,
          "time": 153.65847,
          "velocity": 0.5039370078740157
        },
        {
          "duration": 2.9268280000000004,
          "durationTicks": 384,
          "midi": 45,
          "name": "A2",
          "ticks": 20160,
          "time": 153.65847,
          "velocity": 0.5039370078740157
        },
        {
          "duration": 1.4634140000000002,
          "durationTicks": 192,
          "midi": 57,
          "name": "A3",
          "ticks": 20352,
          "time": 155.121884,
          "velocity": 0.5039370078740157
        },
        {
          "duration": 1.4634140000000002,
          "durationTicks": 192,
          "midi": 53,
          "name": "F3",
          "ticks": 20544,
          "time": 156.585298,
          "velocity": 0.5039370078740157
        },
        {
          "duration": 1.4634140000000002,
          "durationTicks": 192,
          "midi": 48,
          "name": "C3",
          "ticks": 20544,
          "time": 156.585298,
          "velocity": 0.5039370078740157
        },
        {
          "duration": 1.4634140000000002,
          "durationTicks": 192,
          "midi": 55,
          "name": "G3",
          "ticks": 20736,
          "time": 158.048712,
          "velocity": 0.5039370078740157
        },
        {
          "duration": 1.4634140000000002,
          "durationTicks": 192,
          "midi": 50,
          "name": "D3",
          "ticks": 20736,
          "time": 158.048712,
          "velocity": 0.5039370078740157
        },
        {
          "duration": 1.4634140000000002,
          "durationTicks": 192,
          "midi": 47,
          "name": "B2",
          "ticks": 20736,
          "time": 158.048712,
          "velocity": 0.5039370078740157
        },
        {
          "duration": 1.4634140000000002,
          "durationTicks": 192,
          "midi": 43,
          "name": "G2",
          "ticks": 20928,
          "time": 159.512126,
          "velocity": 0.5039370078740157
        },
        {
          "duration": 1.4634140000000002,
          "durationTicks": 192,
          "midi": 48,
          "name": "C3",
          "ticks": 20928,
          "time": 159.512126,
          "velocity": 0.5039370078740157
        },
        {
          "duration": 2.9268280000000004,
          "durationTicks": 384,
          "midi": 52,
          "name": "E3",
          "ticks": 20928,
          "time": 159.512126,
          "velocity": 0.5039370078740157
        },
        {
          "duration": 1.4634140000000002,
          "durationTicks": 192,
          "midi": 57,
          "name": "A3",
          "ticks": 21120,
          "time": 160.97554,
          "velocity": 0.5039370078740157
        },
        {
          "duration": 1.4634140000000002,
          "durationTicks": 192,
          "midi": 45,
          "name": "A2",
          "ticks": 21120,
          "time": 160.97554,
          "velocity": 0.5039370078740157
        },
        {
          "duration": 1.4634140000000002,
          "durationTicks": 192,
          "midi": 53,
          "name": "F3",
          "ticks": 21312,
          "time": 162.438954,
          "velocity": 0.5039370078740157
        },
        {
          "duration": 1.4634140000000002,
          "durationTicks": 192,
          "midi": 48,
          "name": "C3",
          "ticks": 21312,
          "time": 162.438954,
          "velocity": 0.5039370078740157
        },
        {
          "duration": 1.4634140000000002,
          "durationTicks": 192,
          "midi": 55,
          "name": "G3",
          "ticks": 21504,
          "time": 163.902368,
          "velocity": 0.5039370078740157
        },
        {
          "duration": 1.4634140000000002,
          "durationTicks": 192,
          "midi": 50,
          "name": "D3",
          "ticks": 21504,
          "time": 163.902368,
          "velocity": 0.5039370078740157
        },
        {
          "duration": 1.4634140000000002,
          "durationTicks": 192,
          "midi": 47,
          "name": "B2",
          "ticks": 21504,
          "time": 163.902368,
          "velocity": 0.5039370078740157
        },
        {
          "duration": 1.4557920520833534,
          "durationTicks": 191,
          "midi": 57,
          "name": "A3",
          "ticks": 21696,
          "time": 165.365782,
          "velocity": 0.5039370078740157
        },
        {
          "duration": 1.4557920520833534,
          "durationTicks": 191,
          "midi": 52,
          "name": "E3",
          "ticks": 21696,
          "time": 165.365782,
          "velocity": 0.5039370078740157
        },
        {
          "duration": 1.4557920520833534,
          "durationTicks": 191,
          "midi": 45,
          "name": "A2",
          "ticks": 21696,
          "time": 165.365782,
          "velocity": 0.5039370078740157
        }
      ]
    },
    {
      "channel": 9,
      "controlChanges": {
        "6": [
          {
            "number": 6,
            "ticks": 0,
            "time": 0,
            "value": 0.09448818897637795
          },
          {
            "number": 6,
            "ticks": 0,
            "time": 0,
            "value": 0.09448818897637795
          }
        ],
        "7": [
          {
            "number": 7,
            "ticks": 0,
            "time": 0,
            "value": 0.7874015748031497
          },
          {
            "number": 7,
            "ticks": 0,
            "time": 0,
            "value": 0.7874015748031497
          },
          {
            "number": 7,
            "ticks": 0,
            "time": 0,
            "value": 0.7874015748031497
          },
          {
            "number": 7,
            "ticks": 0,
            "time": 0,
            "value": 0.7874015748031497
          }
        ],
        "10": [
          {
            "number": 10,
            "ticks": 0,
            "time": 0,
            "value": 0.5039370078740157
          },
          {
            "number": 10,
            "ticks": 0,
            "time": 0,
            "value": 0.5039370078740157
          },
          {
            "number": 10,
            "ticks": 0,
            "time": 0,
            "value": 0.5039370078740157
          },
          {
            "number": 10,
            "ticks": 0,
            "time": 0,
            "value": 0.5039370078740157
          }
        ],
        "91": [
          {
            "number": 91,
            "ticks": 0,
            "time": 0,
            "value": 0.5039370078740157
          },
          {
            "number": 91,
            "ticks": 0,
            "time": 0,
            "value": 0.5039370078740157
          },
          {
            "number": 91,
            "ticks": 0,
            "time": 0,
            "value": 0.5039370078740157
          }
        ],
        "100": [
          {
            "number": 100,
            "ticks": 0,
            "time": 0,
            "value": 0
          },
          {
            "number": 100,
            "ticks": 0,
            "time": 0,
            "value": 0
          }
        ],
        "101": [
          {
            "number": 101,
            "ticks": 0,
            "time": 0,
            "value": 0
          },
          {
            "number": 101,
            "ticks": 0,
            "time": 0,
            "value": 0
          }
        ]
      },
      "pitchBends": [
        {
          "ticks": 0,
          "time": 0,
          "value": 0
        },
        {
          "ticks": 0,
          "time": 0,
          "value": 0
        },
        {
          "ticks": 0,
          "time": 0,
          "value": 0
        },
        {
          "ticks": 0,
          "time": 0,
          "value": 0
        }
      ],
      "instrument": {
        "family": "drums",
        "name": "standard kit",
        "number": 0
      },
      "name": "Drums",
      "notes": [
        {
          "duration": 0.45731687499999996,
          "durationTicks": 60,
          "midi": 84,
          "name": "C6",
          "ticks": 96,
          "time": 0.731707,
          "velocity": 0.5748031496062992
        },
        {
          "duration": 0.18292675000000003,
          "durationTicks": 24,
          "midi": 57,
          "name": "A3",
          "ticks": 4992,
          "time": 38.048764,
          "velocity": 0.6929133858267716
        },
        {
          "duration": 0.18292675000000003,
          "durationTicks": 24,
          "midi": 36,
          "name": "C2",
          "ticks": 4992,
          "time": 38.048764,
          "velocity": 0.6929133858267716
        },
        {
          "duration": 0.18292675000000003,
          "durationTicks": 24,
          "midi": 40,
          "name": "E2",
          "ticks": 5088,
          "time": 38.780471,
          "velocity": 0.6929133858267716
        },
        {
          "duration": 0.18292675000000003,
          "durationTicks": 24,
          "midi": 36,
          "name": "C2",
          "ticks": 5184,
          "time": 39.512178,
          "velocity": 0.6929133858267716
        },
        {
          "duration": 0.18292675000000003,
          "durationTicks": 24,
          "midi": 36,
          "name": "C2",
          "ticks": 5232,
          "time": 39.8780315,
          "velocity": 0.6929133858267716
        },
        {
          "duration": 0.18292675000000003,
          "durationTicks": 24,
          "midi": 40,
          "name": "E2",
          "ticks": 5280,
          "time": 40.243885,
          "velocity": 0.6929133858267716
        },
        {
          "duration": 0.18292675000000003,
          "durationTicks": 24,
          "midi": 54,
          "name": "F#3",
          "ticks": 5280,
          "time": 40.243885,
          "velocity": 0.6929133858267716
        },
        {
          "duration": 0.18292675000000003,
          "durationTicks": 24,
          "midi": 36,
          "name": "C2",
          "ticks": 5376,
          "time": 40.975592,
          "velocity": 0.6929133858267716
        },
        {
          "duration": 0.18292675000000003,
          "durationTicks": 24,
          "midi": 40,
          "name": "E2",
          "ticks": 5472,
          "time": 41.707299,
          "velocity": 0.6929133858267716
        },
        {
          "duration": 0.18292675000000003,
          "durationTicks": 24,
          "midi": 36,
          "name": "C2",
          "ticks": 5568,
          "time": 42.439006,
          "velocity": 0.6929133858267716
        },
        {
          "duration": 0.18292675000000003,
          "durationTicks": 24,
          "midi": 36,
          "name": "C2",
          "ticks": 5616,
          "time": 42.8048595,
          "velocity": 0.6929133858267716
        },
        {
          "duration": 0.18292675000000003,
          "durationTicks": 24,
          "midi": 54,
          "name": "F#3",
          "ticks": 5664,
          "time": 43.170713,
          "velocity": 0.6929133858267716
        },
        {
          "duration": 0.18292675000000003,
          "durationTicks": 24,
          "midi": 40,
          "name": "E2",
          "ticks": 5664,
          "time": 43.170713,
          "velocity": 0.6929133858267716
        },
        {
          "duration": 0.18292675000000003,
          "durationTicks": 24,
          "midi": 36,
          "name": "C2",
          "ticks": 5760,
          "time": 43.90242,
          "velocity": 0.6929133858267716
        },
        {
          "duration": 0.18292675000000003,
          "durationTicks": 24,
          "midi": 40,
          "name": "E2",
          "ticks": 5856,
          "time": 44.634127,
          "velocity": 0.6929133858267716
        },
        {
          "duration": 0.18292675000000003,
          "durationTicks": 24,
          "midi": 36,
          "name": "C2",
          "ticks": 5952,
          "time": 45.365834,
          "velocity": 0.6929133858267716
        },
        {
          "duration": 0.18292675000000003,
          "durationTicks": 24,
          "midi": 36,
          "name": "C2",
          "ticks": 6000,
          "time": 45.7316875,
          "velocity": 0.6929133858267716
        },
        {
          "duration": 0.18292675000000003,
          "durationTicks": 24,
          "midi": 54,
          "name": "F#3",
          "ticks": 6048,
          "time": 46.097541,
          "velocity": 0.6929133858267716
        },
        {
          "duration": 0.18292675000000003,
          "durationTicks": 24,
          "midi": 40,
          "name": "E2",
          "ticks": 6048,
          "time": 46.097541,
          "velocity": 0.6929133858267716
        },
        {
          "duration": 0.18292675000000003,
          "durationTicks": 24,
          "midi": 36,
          "name": "C2",
          "ticks": 6144,
          "time": 46.829248,
          "velocity": 0.6929133858267716
        },
        {
          "duration": 0.18292675000000003,
          "durationTicks": 24,
          "midi": 40,
          "name": "E2",
          "ticks": 6240,
          "time": 47.560955,
          "velocity": 0.6929133858267716
        },
        {
          "duration": 0.18292675000000003,
          "durationTicks": 24,
          "midi": 36,
          "name": "C2",
          "ticks": 6336,
          "time": 48.292662,
          "velocity": 0.6929133858267716
        },
        {
          "duration": 0.18292675000000003,
          "durationTicks": 24,
          "midi": 36,
          "name": "C2",
          "ticks": 6384,
          "time": 48.6585155,
          "velocity": 0.6929133858267716
        },
        {
          "duration": 0.18292675000000003,
          "durationTicks": 24,
          "midi": 54,
          "name": "F#3",
          "ticks": 6432,
          "time": 49.024369,
          "velocity": 0.6929133858267716
        },
        {
          "duration": 0.18292675000000003,
          "durationTicks": 24,
          "midi": 40,
          "name": "E2",
          "ticks": 6432,
          "time": 49.024369,
          "velocity": 0.6929133858267716
        },
        {
          "duration": 0.18292675000000003,
          "durationTicks": 24,
          "midi": 36,
          "name": "C2",
          "ticks": 6528,
          "time": 49.756076,
          "velocity": 0.6929133858267716
        },
        {
          "duration": 0.18292675000000003,
          "durationTicks": 24,
          "midi": 49,
          "name": "C#3",
          "ticks": 6528,
          "time": 49.756076,
          "velocity": 0.6929133858267716
        },
        {
          "duration": 0.18292675000000003,
          "durationTicks": 24,
          "midi": 40,
          "name": "E2",
          "ticks": 6624,
          "time": 50.487783,
          "velocity": 0.6929133858267716
        },
        {
          "duration": 0.18292675000000003,
          "durationTicks": 24,
          "midi": 36,
          "name": "C2",
          "ticks": 6720,
          "time": 51.21949,
          "velocity": 0.6929133858267716
        },
        {
          "duration": 0.18292675000000003,
          "durationTicks": 24,
          "midi": 36,
          "name": "C2",
          "ticks": 6768,
          "time": 51.5853435,
          "velocity": 0.6929133858267716
        },
        {
          "duration": 0.18292675000000003,
          "durationTicks": 24,
          "midi": 54,
          "name": "F#3",
          "ticks": 6816,
          "time": 51.951197,
          "velocity": 0.6929133858267716
        },
        {
          "duration": 0.18292675000000003,
          "durationTicks": 24,
          "midi": 40,
          "name": "E2",
          "ticks": 6816,
          "time": 51.951197,
          "velocity": 0.6929133858267716
        },
        {
          "duration": 0.18292675000000003,
          "durationTicks": 24,
          "midi": 36,
          "name": "C2",
          "ticks": 6912,
          "time": 52.682904,
          "velocity": 0.6929133858267716
        },
        {
          "duration": 0.18292675000000003,
          "durationTicks": 24,
          "midi": 40,
          "name": "E2",
          "ticks": 7008,
          "time": 53.414611,
          "velocity": 0.6929133858267716
        },
        {
          "duration": 0.18292675000000003,
          "durationTicks": 24,
          "midi": 36,
          "name": "C2",
          "ticks": 7104,
          "time": 54.146318,
          "velocity": 0.6929133858267716
        },
        {
          "duration": 0.18292675000000003,
          "durationTicks": 24,
          "midi": 36,
          "name": "C2",
          "ticks": 7152,
          "time": 54.5121715,
          "velocity": 0.6929133858267716
        },
        {
          "duration": 0.18292675000000003,
          "durationTicks": 24,
          "midi": 40,
          "name": "E2",
          "ticks": 7200,
          "time": 54.878025,
          "velocity": 0.6929133858267716
        },
        {
          "duration": 0.18292675000000003,
          "durationTicks": 24,
          "midi": 54,
          "name": "F#3",
          "ticks": 7200,
          "time": 54.878025,
          "velocity": 0.6929133858267716
        },
        {
          "duration": 0.18292675000000003,
          "durationTicks": 24,
          "midi": 36,
          "name": "C2",
          "ticks": 7296,
          "time": 55.609732,
          "velocity": 0.6929133858267716
        },
        {
          "duration": 0.18292675000000003,
          "durationTicks": 24,
          "midi": 40,
          "name": "E2",
          "ticks": 7392,
          "time": 56.341439,
          "velocity": 0.6929133858267716
        },
        {
          "duration": 0.18292675000000003,
          "durationTicks": 24,
          "midi": 36,
          "name": "C2",
          "ticks": 7488,
          "time": 57.073146,
          "velocity": 0.6929133858267716
        },
        {
          "duration": 0.18292675000000003,
          "durationTicks": 24,
          "midi": 36,
          "name": "C2",
          "ticks": 7536,
          "time": 57.4389995,
          "velocity": 0.6929133858267716
        },
        {
          "duration": 0.18292675000000003,
          "durationTicks": 24,
          "midi": 40,
          "name": "E2",
          "ticks": 7584,
          "time": 57.804853,
          "velocity": 0.6929133858267716
        },
        {
          "duration": 0.18292675000000003,
          "durationTicks": 24,
          "midi": 54,
          "name": "F#3",
          "ticks": 7584,
          "time": 57.804853,
          "velocity": 0.6929133858267716
        },
        {
          "duration": 0.18292675000000003,
          "durationTicks": 24,
          "midi": 36,
          "name": "C2",
          "ticks": 7680,
          "time": 58.53656,
          "velocity": 0.6929133858267716
        },
        {
          "duration": 0.18292675000000003,
          "durationTicks": 24,
          "midi": 40,
          "name": "E2",
          "ticks": 7776,
          "time": 59.268267,
          "velocity": 0.6929133858267716
        },
        {
          "duration": 0.18292675000000003,
          "durationTicks": 24,
          "midi": 36,
          "name": "C2",
          "ticks": 7872,
          "time": 59.999974,
          "velocity": 0.6929133858267716
        },
        {
          "duration": 0.18292675000000003,
          "durationTicks": 24,
          "midi": 84,
          "name": "C6",
          "ticks": 7872,
          "time": 59.999974,
          "velocity": 0.6929133858267716
        },
        {
          "duration": 0.18292675000000003,
          "durationTicks": 24,
          "midi": 36,
          "name": "C2",
          "ticks": 7920,
          "time": 60.3658275,
          "velocity": 0.6929133858267716
        },
        {
          "duration": 0.18292675000000003,
          "durationTicks": 24,
          "midi": 40,
          "name": "E2",
          "ticks": 7968,
          "time": 60.731681,
          "velocity": 0.6929133858267716
        },
        {
          "duration": 0.18292675000000003,
          "durationTicks": 24,
          "midi": 54,
          "name": "F#3",
          "ticks": 7968,
          "time": 60.731681,
          "velocity": 0.6929133858267716
        },
        {
          "duration": 0.18292675000000003,
          "durationTicks": 24,
          "midi": 57,
          "name": "A3",
          "ticks": 8064,
          "time": 61.463388,
          "velocity": 0.6929133858267716
        },
        {
          "duration": 0.18292675000000003,
          "durationTicks": 24,
          "midi": 36,
          "name": "C2",
          "ticks": 8064,
          "time": 61.463388,
          "velocity": 0.6929133858267716
        },
        {
          "duration": 0.18292675000000003,
          "durationTicks": 24,
          "midi": 40,
          "name": "E2",
          "ticks": 8160,
          "time": 62.195095,
          "velocity": 0.6929133858267716
        },
        {
          "duration": 0.18292675000000003,
          "durationTicks": 24,
          "midi": 36,
          "name": "C2",
          "ticks": 8256,
          "time": 62.926802,
          "velocity": 0.6929133858267716
        },
        {
          "duration": 0.18292675000000003,
          "durationTicks": 24,
          "midi": 36,
          "name": "C2",
          "ticks": 8304,
          "time": 63.2926555,
          "velocity": 0.6929133858267716
        },
        {
          "duration": 0.18292675000000003,
          "durationTicks": 24,
          "midi": 54,
          "name": "F#3",
          "ticks": 8352,
          "time": 63.658509,
          "velocity": 0.6929133858267716
        },
        {
          "duration": 0.18292675000000003,
          "durationTicks": 24,
          "midi": 40,
          "name": "E2",
          "ticks": 8352,
          "time": 63.658509,
          "velocity": 0.6929133858267716
        },
        {
          "duration": 0.18292675000000713,
          "durationTicks": 24,
          "midi": 36,
          "name": "C2",
          "ticks": 8448,
          "time": 64.390216,
          "velocity": 0.6929133858267716
        },
        {
          "duration": 0.18292675000000713,
          "durationTicks": 24,
          "midi": 40,
          "name": "E2",
          "ticks": 8544,
          "time": 65.121923,
          "velocity": 0.6929133858267716
        },
        {
          "duration": 0.18292675000000713,
          "durationTicks": 24,
          "midi": 36,
          "name": "C2",
          "ticks": 8640,
          "time": 65.85363,
          "velocity": 0.6929133858267716
        },
        {
          "duration": 0.18292675000000713,
          "durationTicks": 24,
          "midi": 36,
          "name": "C2",
          "ticks": 8688,
          "time": 66.2194835,
          "velocity": 0.6929133858267716
        },
        {
          "duration": 0.18292675000000713,
          "durationTicks": 24,
          "midi": 54,
          "name": "F#3",
          "ticks": 8736,
          "time": 66.585337,
          "velocity": 0.6929133858267716
        },
        {
          "duration": 0.18292675000000713,
          "durationTicks": 24,
          "midi": 40,
          "name": "E2",
          "ticks": 8736,
          "time": 66.585337,
          "velocity": 0.6929133858267716
        },
        {
          "duration": 0.18292675000000713,
          "durationTicks": 24,
          "midi": 36,
          "name": "C2",
          "ticks": 8832,
          "time": 67.317044,
          "velocity": 0.6929133858267716
        },
        {
          "duration": 0.18292675000000713,
          "durationTicks": 24,
          "midi": 40,
          "name": "E2",
          "ticks": 8928,
          "time": 68.048751,
          "velocity": 0.6929133858267716
        },
        {
          "duration": 0.18292675000000713,
          "durationTicks": 24,
          "midi": 36,
          "name": "C2",
          "ticks": 9024,
          "time": 68.780458,
          "velocity": 0.6929133858267716
        },
        {
          "duration": 0.18292675000000713,
          "durationTicks": 24,
          "midi": 36,
          "name": "C2",
          "ticks": 9072,
          "time": 69.1463115,
          "velocity": 0.6929133858267716
        },
        {
          "duration": 0.18292675000000713,
          "durationTicks": 24,
          "midi": 54,
          "name": "F#3",
          "ticks": 9120,
          "time": 69.512165,
          "velocity": 0.6929133858267716
        },
        {
          "duration": 0.18292675000000713,
          "durationTicks": 24,
          "midi": 40,
          "name": "E2",
          "ticks": 9120,
          "time": 69.512165,
          "velocity": 0.6929133858267716
        },
        {
          "duration": 0.18292675000000713,
          "durationTicks": 24,
          "midi": 36,
          "name": "C2",
          "ticks": 9216,
          "time": 70.243872,
          "velocity": 0.6929133858267716
        },
        {
          "duration": 0.18292675000000713,
          "durationTicks": 24,
          "midi": 40,
          "name": "E2",
          "ticks": 9312,
          "time": 70.975579,
          "velocity": 0.6929133858267716
        },
        {
          "duration": 0.18292675000000713,
          "durationTicks": 24,
          "midi": 36,
          "name": "C2",
          "ticks": 9408,
          "time": 71.707286,
          "velocity": 0.6929133858267716
        },
        {
          "duration": 0.18292675000000713,
          "durationTicks": 24,
          "midi": 36,
          "name": "C2",
          "ticks": 9456,
          "time": 72.0731395,
          "velocity": 0.6929133858267716
        },
        {
          "duration": 0.18292675000000713,
          "durationTicks": 24,
          "midi": 54,
          "name": "F#3",
          "ticks": 9504,
          "time": 72.438993,
          "velocity": 0.6929133858267716
        },
        {
          "duration": 0.18292675000000713,
          "durationTicks": 24,
          "midi": 40,
          "name": "E2",
          "ticks": 9504,
          "time": 72.438993,
          "velocity": 0.6929133858267716
        }
      ]
    },
    {
      "channel": 9,
      "controlChanges": {
        "7": [
          {
            "number": 7,
            "ticks": 0,
            "time": 0,
            "value": 0.7874015748031497
          }
        ],
        "10": [
          {
            "number": 10,
            "ticks": 0,
            "time": 0,
            "value": 0.5039370078740157
          }
        ],
        "91": [
          {
            "number": 91,
            "ticks": 0,
            "time": 0,
            "value": 0.5039370078740157
          }
        ]
      },
      "pitchBends": [
        {
          "ticks": 0,
          "time": 0,
          "value": 0
        }
      ],
      "instrument": {
        "family": "drums",
        "name": "tr-808 kit",
        "number": 25
      },
      "name": "",
      "notes": [
        {
          "duration": 0.18292675000000003,
          "durationTicks": 24,
          "midi": 26,
          "name": "D1",
          "ticks": 672,
          "time": 5.121949,
          "velocity": 0.5669291338582677
        },
        {
          "duration": 0.18292675000000003,
          "durationTicks": 24,
          "midi": 85,
          "name": "C#6",
          "ticks": 672,
          "time": 5.121949,
          "velocity": 0.5669291338582677
        },
        {
          "duration": 0.18292675000000003,
          "durationTicks": 24,
          "midi": 26,
          "name": "D1",
          "ticks": 1056,
          "time": 8.048777,
          "velocity": 0.5669291338582677
        },
        {
          "duration": 0.18292675000000003,
          "durationTicks": 24,
          "midi": 85,
          "name": "C#6",
          "ticks": 1056,
          "time": 8.048777,
          "velocity": 0.5669291338582677
        },
        {
          "duration": 0.18292675000000003,
          "durationTicks": 24,
          "midi": 26,
          "name": "D1",
          "ticks": 1440,
          "time": 10.975605,
          "velocity": 0.5669291338582677
        },
        {
          "duration": 0.18292675000000003,
          "durationTicks": 24,
          "midi": 85,
          "name": "C#6",
          "ticks": 1440,
          "time": 10.975605,
          "velocity": 0.5669291338582677
        },
        {
          "duration": 0.18292675000000003,
          "durationTicks": 24,
          "midi": 26,
          "name": "D1",
          "ticks": 1824,
          "time": 13.902433,
          "velocity": 0.5669291338582677
        },
        {
          "duration": 0.18292675000000003,
          "durationTicks": 24,
          "midi": 85,
          "name": "C#6",
          "ticks": 1824,
          "time": 13.902433,
          "velocity": 0.5669291338582677
        },
        {
          "duration": 0.18292675000000003,
          "durationTicks": 24,
          "midi": 36,
          "name": "C2",
          "ticks": 1920,
          "time": 14.63414,
          "velocity": 0.5669291338582677
        },
        {
          "duration": 0.18292675000000003,
          "durationTicks": 24,
          "midi": 26,
          "name": "D1",
          "ticks": 2016,
          "time": 15.365847,
          "velocity": 0.5669291338582677
        },
        {
          "duration": 0.18292675000000003,
          "durationTicks": 24,
          "midi": 85,
          "name": "C#6",
          "ticks": 2016,
          "time": 15.365847,
          "velocity": 0.5669291338582677
        },
        {
          "duration": 0.18292675000000003,
          "durationTicks": 24,
          "midi": 36,
          "name": "C2",
          "ticks": 2064,
          "time": 15.7317005,
          "velocity": 0.5669291338582677
        },
        {
          "duration": 0.18292675000000003,
          "durationTicks": 24,
          "midi": 36,
          "name": "C2",
          "ticks": 2112,
          "time": 16.097554,
          "velocity": 0.5669291338582677
        },
        {
          "duration": 0.18292675000000003,
          "durationTicks": 24,
          "midi": 26,
          "name": "D1",
          "ticks": 2208,
          "time": 16.829261,
          "velocity": 0.5669291338582677
        },
        {
          "duration": 0.18292675000000003,
          "durationTicks": 24,
          "midi": 85,
          "name": "C#6",
          "ticks": 2208,
          "time": 16.829261,
          "velocity": 0.5669291338582677
        },
        {
          "duration": 0.18292675000000003,
          "durationTicks": 24,
          "midi": 36,
          "name": "C2",
          "ticks": 2304,
          "time": 17.560968,
          "velocity": 0.5669291338582677
        },
        {
          "duration": 0.18292675000000003,
          "durationTicks": 24,
          "midi": 26,
          "name": "D1",
          "ticks": 2400,
          "time": 18.292675,
          "velocity": 0.5669291338582677
        },
        {
          "duration": 0.18292675000000003,
          "durationTicks": 24,
          "midi": 85,
          "name": "C#6",
          "ticks": 2400,
          "time": 18.292675,
          "velocity": 0.5669291338582677
        },
        {
          "duration": 0.18292675000000003,
          "durationTicks": 24,
          "midi": 36,
          "name": "C2",
          "ticks": 2448,
          "time": 18.6585285,
          "velocity": 0.5669291338582677
        },
        {
          "duration": 0.18292675000000003,
          "durationTicks": 24,
          "midi": 36,
          "name": "C2",
          "ticks": 2496,
          "time": 19.024382,
          "velocity": 0.5669291338582677
        },
        {
          "duration": 0.18292675000000003,
          "durationTicks": 24,
          "midi": 26,
          "name": "D1",
          "ticks": 2592,
          "time": 19.756089,
          "velocity": 0.5669291338582677
        },
        {
          "duration": 0.18292675000000003,
          "durationTicks": 24,
          "midi": 85,
          "name": "C#6",
          "ticks": 2592,
          "time": 19.756089,
          "velocity": 0.5669291338582677
        },
        {
          "duration": 0.18292675000000003,
          "durationTicks": 24,
          "midi": 36,
          "name": "C2",
          "ticks": 2688,
          "time": 20.487796,
          "velocity": 0.5669291338582677
        },
        {
          "duration": 0.18292675000000003,
          "durationTicks": 24,
          "midi": 26,
          "name": "D1",
          "ticks": 2784,
          "time": 21.219503,
          "velocity": 0.5669291338582677
        },
        {
          "duration": 0.18292675000000003,
          "durationTicks": 24,
          "midi": 85,
          "name": "C#6",
          "ticks": 2784,
          "time": 21.219503,
          "velocity": 0.5669291338582677
        },
        {
          "duration": 0.18292675000000003,
          "durationTicks": 24,
          "midi": 36,
          "name": "C2",
          "ticks": 2832,
          "time": 21.5853565,
          "velocity": 0.5669291338582677
        },
        {
          "duration": 0.18292675000000003,
          "durationTicks": 24,
          "midi": 36,
          "name": "C2",
          "ticks": 2880,
          "time": 21.95121,
          "velocity": 0.5669291338582677
        },
        {
          "duration": 0.18292675000000003,
          "durationTicks": 24,
          "midi": 26,
          "name": "D1",
          "ticks": 2976,
          "time": 22.682917,
          "velocity": 0.5669291338582677
        },
        {
          "duration": 0.18292675000000003,
          "durationTicks": 24,
          "midi": 85,
          "name": "C#6",
          "ticks": 2976,
          "time": 22.682917,
          "velocity": 0.5669291338582677
        },
        {
          "duration": 0.18292675000000003,
          "durationTicks": 24,
          "midi": 36,
          "name": "C2",
          "ticks": 3072,
          "time": 23.414624,
          "velocity": 0.5669291338582677
        },
        {
          "duration": 0.18292675000000003,
          "durationTicks": 24,
          "midi": 26,
          "name": "D1",
          "ticks": 3168,
          "time": 24.146331,
          "velocity": 0.5669291338582677
        },
        {
          "duration": 0.18292675000000003,
          "durationTicks": 24,
          "midi": 85,
          "name": "C#6",
          "ticks": 3168,
          "time": 24.146331,
          "velocity": 0.5669291338582677
        },
        {
          "duration": 0.18292675000000003,
          "durationTicks": 24,
          "midi": 36,
          "name": "C2",
          "ticks": 3216,
          "time": 24.5121845,
          "velocity": 0.5669291338582677
        },
        {
          "duration": 0.18292675000000003,
          "durationTicks": 24,
          "midi": 36,
          "name": "C2",
          "ticks": 3264,
          "time": 24.878038,
          "velocity": 0.5669291338582677
        },
        {
          "duration": 0.18292675000000003,
          "durationTicks": 24,
          "midi": 78,
          "name": "F#5",
          "ticks": 3312,
          "time": 25.2438915,
          "velocity": 0.5826771653543307
        },
        {
          "duration": 0.18292675000000003,
          "durationTicks": 24,
          "midi": 26,
          "name": "D1",
          "ticks": 3360,
          "time": 25.609745,
          "velocity": 0.5669291338582677
        },
        {
          "duration": 0.18292675000000003,
          "durationTicks": 24,
          "midi": 85,
          "name": "C#6",
          "ticks": 3360,
          "time": 25.609745,
          "velocity": 0.5669291338582677
        },
        {
          "duration": 0.18292675000000003,
          "durationTicks": 24,
          "midi": 36,
          "name": "C2",
          "ticks": 3456,
          "time": 26.341452,
          "velocity": 0.5669291338582677
        },
        {
          "duration": 0.18292675000000003,
          "durationTicks": 24,
          "midi": 26,
          "name": "D1",
          "ticks": 3552,
          "time": 27.073159,
          "velocity": 0.5669291338582677
        },
        {
          "duration": 0.18292675000000003,
          "durationTicks": 24,
          "midi": 85,
          "name": "C#6",
          "ticks": 3552,
          "time": 27.073159,
          "velocity": 0.5669291338582677
        },
        {
          "duration": 0.18292675000000003,
          "durationTicks": 24,
          "midi": 36,
          "name": "C2",
          "ticks": 3600,
          "time": 27.4390125,
          "velocity": 0.5669291338582677
        },
        {
          "duration": 0.18292675000000003,
          "durationTicks": 24,
          "midi": 36,
          "name": "C2",
          "ticks": 3648,
          "time": 27.804866,
          "velocity": 0.5669291338582677
        },
        {
          "duration": 0.18292675000000003,
          "durationTicks": 24,
          "midi": 26,
          "name": "D1",
          "ticks": 3744,
          "time": 28.536573,
          "velocity": 0.5669291338582677
        },
        {
          "duration": 0.18292675000000003,
          "durationTicks": 24,
          "midi": 85,
          "name": "C#6",
          "ticks": 3744,
          "time": 28.536573,
          "velocity": 0.5669291338582677
        },
        {
          "duration": 0.18292675000000003,
          "durationTicks": 24,
          "midi": 36,
          "name": "C2",
          "ticks": 3840,
          "time": 29.26828,
          "velocity": 0.5669291338582677
        },
        {
          "duration": 0.18292675000000003,
          "durationTicks": 24,
          "midi": 26,
          "name": "D1",
          "ticks": 3936,
          "time": 29.999987,
          "velocity": 0.5669291338582677
        },
        {
          "duration": 0.18292675000000003,
          "durationTicks": 24,
          "midi": 85,
          "name": "C#6",
          "ticks": 3936,
          "time": 29.999987,
          "velocity": 0.5669291338582677
        },
        {
          "duration": 0.18292675000000003,
          "durationTicks": 24,
          "midi": 36,
          "name": "C2",
          "ticks": 3984,
          "time": 30.3658405,
          "velocity": 0.5669291338582677
        },
        {
          "duration": 0.18292675000000003,
          "durationTicks": 24,
          "midi": 36,
          "name": "C2",
          "ticks": 4032,
          "time": 30.731694,
          "velocity": 0.5669291338582677
        },
        {
          "duration": 0.18292675000000003,
          "durationTicks": 24,
          "midi": 26,
          "name": "D1",
          "ticks": 4128,
          "time": 31.463401,
          "velocity": 0.5669291338582677
        },
        {
          "duration": 0.18292675000000003,
          "durationTicks": 24,
          "midi": 85,
          "name": "C#6",
          "ticks": 4128,
          "time": 31.463401,
          "velocity": 0.5669291338582677
        },
        {
          "duration": 0.18292675000000003,
          "durationTicks": 24,
          "midi": 36,
          "name": "C2",
          "ticks": 4224,
          "time": 32.195108,
          "velocity": 0.5669291338582677
        },
        {
          "duration": 0.18292675000000003,
          "durationTicks": 24,
          "midi": 26,
          "name": "D1",
          "ticks": 4320,
          "time": 32.926815,
          "velocity": 0.5669291338582677
        },
        {
          "duration": 0.18292675000000003,
          "durationTicks": 24,
          "midi": 85,
          "name": "C#6",
          "ticks": 4320,
          "time": 32.926815,
          "velocity": 0.5669291338582677
        },
        {
          "duration": 0.18292675000000003,
          "durationTicks": 24,
          "midi": 36,
          "name": "C2",
          "ticks": 4368,
          "time": 33.2926685,
          "velocity": 0.5669291338582677
        },
        {
          "duration": 0.18292675000000003,
          "durationTicks": 24,
          "midi": 36,
          "name": "C2",
          "ticks": 4416,
          "time": 33.658522,
          "velocity": 0.5669291338582677
        },
        {
          "duration": 0.18292675000000003,
          "durationTicks": 24,
          "midi": 26,
          "name": "D1",
          "ticks": 4512,
          "time": 34.390229,
          "velocity": 0.5669291338582677
        },
        {
          "duration": 0.18292675000000003,
          "durationTicks": 24,
          "midi": 85,
          "name": "C#6",
          "ticks": 4512,
          "time": 34.390229,
          "velocity": 0.5669291338582677
        },
        {
          "duration": 0.18292675000000003,
          "durationTicks": 24,
          "midi": 36,
          "name": "C2",
          "ticks": 4608,
          "time": 35.121936,
          "velocity": 0.5669291338582677
        },
        {
          "duration": 0.18292675000000003,
          "durationTicks": 24,
          "midi": 26,
          "name": "D1",
          "ticks": 4704,
          "time": 35.853643,
          "velocity": 0.5669291338582677
        },
        {
          "duration": 0.18292675000000003,
          "durationTicks": 24,
          "midi": 85,
          "name": "C#6",
          "ticks": 4704,
          "time": 35.853643,
          "velocity": 0.5669291338582677
        },
        {
          "duration": 0.18292675000000003,
          "durationTicks": 24,
          "midi": 36,
          "name": "C2",
          "ticks": 4752,
          "time": 36.2194965,
          "velocity": 0.5669291338582677
        },
        {
          "duration": 0.18292675000000003,
          "durationTicks": 24,
          "midi": 36,
          "name": "C2",
          "ticks": 4800,
          "time": 36.58535,
          "velocity": 0.5669291338582677
        },
        {
          "duration": 0.18292675000000003,
          "durationTicks": 24,
          "midi": 36,
          "name": "C2",
          "ticks": 4848,
          "time": 36.9512035,
          "velocity": 0.5669291338582677
        },
        {
          "duration": 0.18292675000000003,
          "durationTicks": 24,
          "midi": 26,
          "name": "D1",
          "ticks": 4896,
          "time": 37.317057,
          "velocity": 0.5669291338582677
        },
        {
          "duration": 0.18292675000000003,
          "durationTicks": 24,
          "midi": 40,
          "name": "E2",
          "ticks": 4896,
          "time": 37.317057,
          "velocity": 0.5669291338582677
        },
        {
          "duration": 0.18292675000000003,
          "durationTicks": 24,
          "midi": 85,
          "name": "C#6",
          "ticks": 4896,
          "time": 37.317057,
          "velocity": 0.5669291338582677
        },
        {
          "duration": 0.18292675000000003,
          "durationTicks": 24,
          "midi": 36,
          "name": "C2",
          "ticks": 4944,
          "time": 37.6829105,
          "velocity": 0.5669291338582677
        },
        {
          "duration": 0.18292675000000713,
          "durationTicks": 24,
          "midi": 36,
          "name": "C2",
          "ticks": 9600,
          "time": 73.1707,
          "velocity": 0.6299212598425197
        },
        {
          "duration": 0.18292675000000713,
          "durationTicks": 24,
          "midi": 26,
          "name": "D1",
          "ticks": 9696,
          "time": 73.902407,
          "velocity": 0.6299212598425197
        },
        {
          "duration": 0.18292675000000713,
          "durationTicks": 24,
          "midi": 85,
          "name": "C#6",
          "ticks": 9696,
          "time": 73.902407,
          "velocity": 0.6299212598425197
        },
        {
          "duration": 0.18292675000000713,
          "durationTicks": 24,
          "midi": 36,
          "name": "C2",
          "ticks": 9744,
          "time": 74.2682605,
          "velocity": 0.6299212598425197
        },
        {
          "duration": 0.18292675000000713,
          "durationTicks": 24,
          "midi": 36,
          "name": "C2",
          "ticks": 9792,
          "time": 74.634114,
          "velocity": 0.6299212598425197
        },
        {
          "duration": 0.18292675000000713,
          "durationTicks": 24,
          "midi": 26,
          "name": "D1",
          "ticks": 9888,
          "time": 75.365821,
          "velocity": 0.6299212598425197
        },
        {
          "duration": 0.18292675000000713,
          "durationTicks": 24,
          "midi": 85,
          "name": "C#6",
          "ticks": 9888,
          "time": 75.365821,
          "velocity": 0.6299212598425197
        },
        {
          "duration": 0.18292675000000713,
          "durationTicks": 24,
          "midi": 36,
          "name": "C2",
          "ticks": 9984,
          "time": 76.097528,
          "velocity": 0.6299212598425197
        },
        {
          "duration": 0.18292675000000713,
          "durationTicks": 24,
          "midi": 26,
          "name": "D1",
          "ticks": 10080,
          "time": 76.829235,
          "velocity": 0.6299212598425197
        },
        {
          "duration": 0.18292675000000713,
          "durationTicks": 24,
          "midi": 85,
          "name": "C#6",
          "ticks": 10080,
          "time": 76.829235,
          "velocity": 0.6299212598425197
        },
        {
          "duration": 0.18292675000000713,
          "durationTicks": 24,
          "midi": 36,
          "name": "C2",
          "ticks": 10128,
          "time": 77.1950885,
          "velocity": 0.6299212598425197
        },
        {
          "duration": 0.18292675000000713,
          "durationTicks": 24,
          "midi": 36,
          "name": "C2",
          "ticks": 10176,
          "time": 77.560942,
          "velocity": 0.6299212598425197
        },
        {
          "duration": 0.18292675000000713,
          "durationTicks": 24,
          "midi": 26,
          "name": "D1",
          "ticks": 10272,
          "time": 78.292649,
          "velocity": 0.6299212598425197
        },
        {
          "duration": 0.18292675000000713,
          "durationTicks": 24,
          "midi": 85,
          "name": "C#6",
          "ticks": 10272,
          "time": 78.292649,
          "velocity": 0.6299212598425197
        },
        {
          "duration": 0.18292675000000713,
          "durationTicks": 24,
          "midi": 36,
          "name": "C2",
          "ticks": 10368,
          "time": 79.024356,
          "velocity": 0.6299212598425197
        },
        {
          "duration": 0.18292675000000713,
          "durationTicks": 24,
          "midi": 26,
          "name": "D1",
          "ticks": 10464,
          "time": 79.756063,
          "velocity": 0.6299212598425197
        },
        {
          "duration": 0.18292675000000713,
          "durationTicks": 24,
          "midi": 85,
          "name": "C#6",
          "ticks": 10464,
          "time": 79.756063,
          "velocity": 0.6299212598425197
        },
        {
          "duration": 0.18292675000000713,
          "durationTicks": 24,
          "midi": 36,
          "name": "C2",
          "ticks": 10512,
          "time": 80.1219165,
          "velocity": 0.6299212598425197
        },
        {
          "duration": 0.18292675000000713,
          "durationTicks": 24,
          "midi": 36,
          "name": "C2",
          "ticks": 10560,
          "time": 80.48777,
          "velocity": 0.6299212598425197
        },
        {
          "duration": 0.18292675000000713,
          "durationTicks": 24,
          "midi": 26,
          "name": "D1",
          "ticks": 10656,
          "time": 81.219477,
          "velocity": 0.6299212598425197
        },
        {
          "duration": 0.18292675000000713,
          "durationTicks": 24,
          "midi": 85,
          "name": "C#6",
          "ticks": 10656,
          "time": 81.219477,
          "velocity": 0.6299212598425197
        },
        {
          "duration": 0.18292675000000713,
          "durationTicks": 24,
          "midi": 36,
          "name": "C2",
          "ticks": 10752,
          "time": 81.951184,
          "velocity": 0.6299212598425197
        },
        {
          "duration": 0.18292675000000713,
          "durationTicks": 24,
          "midi": 26,
          "name": "D1",
          "ticks": 10848,
          "time": 82.682891,
          "velocity": 0.6299212598425197
        },
        {
          "duration": 0.18292675000000713,
          "durationTicks": 24,
          "midi": 85,
          "name": "C#6",
          "ticks": 10848,
          "time": 82.682891,
          "velocity": 0.6299212598425197
        },
        {
          "duration": 0.18292675000000713,
          "durationTicks": 24,
          "midi": 36,
          "name": "C2",
          "ticks": 10896,
          "time": 83.0487445,
          "velocity": 0.6299212598425197
        },
        {
          "duration": 0.18292675000000713,
          "durationTicks": 24,
          "midi": 36,
          "name": "C2",
          "ticks": 10944,
          "time": 83.414598,
          "velocity": 0.6299212598425197
        },
        {
          "duration": 0.18292675000000713,
          "durationTicks": 24,
          "midi": 78,
          "name": "F#5",
          "ticks": 10992,
          "time": 83.7804515,
          "velocity": 0.6377952755905512
        },
        {
          "duration": 0.18292675000000713,
          "durationTicks": 24,
          "midi": 26,
          "name": "D1",
          "ticks": 11040,
          "time": 84.146305,
          "velocity": 0.6299212598425197
        },
        {
          "duration": 0.18292675000000713,
          "durationTicks": 24,
          "midi": 85,
          "name": "C#6",
          "ticks": 11040,
          "time": 84.146305,
          "velocity": 0.6299212598425197
        },
        {
          "duration": 0.18292675000000713,
          "durationTicks": 24,
          "midi": 36,
          "name": "C2",
          "ticks": 11136,
          "time": 84.878012,
          "velocity": 0.6299212598425197
        },
        {
          "duration": 0.18292675000000713,
          "durationTicks": 24,
          "midi": 26,
          "name": "D1",
          "ticks": 11232,
          "time": 85.609719,
          "velocity": 0.6299212598425197
        },
        {
          "duration": 0.18292675000000713,
          "durationTicks": 24,
          "midi": 85,
          "name": "C#6",
          "ticks": 11232,
          "time": 85.609719,
          "velocity": 0.6299212598425197
        },
        {
          "duration": 0.18292675000000713,
          "durationTicks": 24,
          "midi": 36,
          "name": "C2",
          "ticks": 11280,
          "time": 85.9755725,
          "velocity": 0.6299212598425197
        },
        {
          "duration": 0.18292675000000713,
          "durationTicks": 24,
          "midi": 36,
          "name": "C2",
          "ticks": 11328,
          "time": 86.341426,
          "velocity": 0.6299212598425197
        },
        {
          "duration": 0.18292675000000713,
          "durationTicks": 24,
          "midi": 26,
          "name": "D1",
          "ticks": 11424,
          "time": 87.073133,
          "velocity": 0.6299212598425197
        },
        {
          "duration": 0.18292675000000713,
          "durationTicks": 24,
          "midi": 85,
          "name": "C#6",
          "ticks": 11424,
          "time": 87.073133,
          "velocity": 0.6299212598425197
        },
        {
          "duration": 0.18292675000000713,
          "durationTicks": 24,
          "midi": 36,
          "name": "C2",
          "ticks": 11520,
          "time": 87.80484,
          "velocity": 0.6299212598425197
        },
        {
          "duration": 0.18292675000000713,
          "durationTicks": 24,
          "midi": 26,
          "name": "D1",
          "ticks": 11616,
          "time": 88.536547,
          "velocity": 0.6299212598425197
        },
        {
          "duration": 0.18292675000000713,
          "durationTicks": 24,
          "midi": 85,
          "name": "C#6",
          "ticks": 11616,
          "time": 88.536547,
          "velocity": 0.6299212598425197
        },
        {
          "duration": 0.18292675000000713,
          "durationTicks": 24,
          "midi": 36,
          "name": "C2",
          "ticks": 11664,
          "time": 88.9024005,
          "velocity": 0.6299212598425197
        },
        {
          "duration": 0.18292675000000713,
          "durationTicks": 24,
          "midi": 36,
          "name": "C2",
          "ticks": 11712,
          "time": 89.268254,
          "velocity": 0.6299212598425197
        },
        {
          "duration": 0.18292675000000713,
          "durationTicks": 24,
          "midi": 26,
          "name": "D1",
          "ticks": 11808,
          "time": 89.999961,
          "velocity": 0.6299212598425197
        },
        {
          "duration": 0.18292675000000713,
          "durationTicks": 24,
          "midi": 85,
          "name": "C#6",
          "ticks": 11808,
          "time": 89.999961,
          "velocity": 0.6299212598425197
        },
        {
          "duration": 0.18292675000000713,
          "durationTicks": 24,
          "midi": 36,
          "name": "C2",
          "ticks": 11904,
          "time": 90.731668,
          "velocity": 0.6299212598425197
        },
        {
          "duration": 0.18292675000000713,
          "durationTicks": 24,
          "midi": 26,
          "name": "D1",
          "ticks": 12000,
          "time": 91.463375,
          "velocity": 0.6299212598425197
        },
        {
          "duration": 0.18292675000000713,
          "durationTicks": 24,
          "midi": 85,
          "name": "C#6",
          "ticks": 12000,
          "time": 91.463375,
          "velocity": 0.6299212598425197
        },
        {
          "duration": 0.18292675000000713,
          "durationTicks": 24,
          "midi": 36,
          "name": "C2",
          "ticks": 12048,
          "time": 91.8292285,
          "velocity": 0.6299212598425197
        },
        {
          "duration": 0.18292675000000713,
          "durationTicks": 24,
          "midi": 36,
          "name": "C2",
          "ticks": 12096,
          "time": 92.195082,
          "velocity": 0.6299212598425197
        },
        {
          "duration": 0.18292675000000713,
          "durationTicks": 24,
          "midi": 26,
          "name": "D1",
          "ticks": 12192,
          "time": 92.926789,
          "velocity": 0.6299212598425197
        },
        {
          "duration": 0.18292675000000713,
          "durationTicks": 24,
          "midi": 85,
          "name": "C#6",
          "ticks": 12192,
          "time": 92.926789,
          "velocity": 0.6299212598425197
        },
        {
          "duration": 0.18292674999999292,
          "durationTicks": 24,
          "midi": 36,
          "name": "C2",
          "ticks": 12288,
          "time": 93.658496,
          "velocity": 0.6299212598425197
        },
        {
          "duration": 0.18292674999999292,
          "durationTicks": 24,
          "midi": 85,
          "name": "C#6",
          "ticks": 12384,
          "time": 94.390203,
          "velocity": 0.6299212598425197
        },
        {
          "duration": 0.18292674999999292,
          "durationTicks": 24,
          "midi": 26,
          "name": "D1",
          "ticks": 12384,
          "time": 94.390203,
          "velocity": 0.6299212598425197
        },
        {
          "duration": 0.18292674999999292,
          "durationTicks": 24,
          "midi": 36,
          "name": "C2",
          "ticks": 12432,
          "time": 94.7560565,
          "velocity": 0.6299212598425197
        },
        {
          "duration": 0.36585350000000005,
          "durationTicks": 48,
          "midi": 84,
          "name": "C6",
          "ticks": 12480,
          "time": 95.12191,
          "velocity": 0.6299212598425197
        },
        {
          "duration": 0.18292674999999292,
          "durationTicks": 24,
          "midi": 36,
          "name": "C2",
          "ticks": 12480,
          "time": 95.12191,
          "velocity": 0.6299212598425197
        },
        {
          "duration": 0.18292674999999292,
          "durationTicks": 24,
          "midi": 36,
          "name": "C2",
          "ticks": 12528,
          "time": 95.4877635,
          "velocity": 0.6299212598425197
        },
        {
          "duration": 0.18292674999999292,
          "durationTicks": 24,
          "midi": 78,
          "name": "F#5",
          "ticks": 12576,
          "time": 95.853617,
          "velocity": 0.6377952755905512
        },
        {
          "duration": 0.18292674999999292,
          "durationTicks": 24,
          "midi": 85,
          "name": "C#6",
          "ticks": 12576,
          "time": 95.853617,
          "velocity": 0.6299212598425197
        },
        {
          "duration": 0.18292674999999292,
          "durationTicks": 24,
          "midi": 40,
          "name": "E2",
          "ticks": 12576,
          "time": 95.853617,
          "velocity": 0.6299212598425197
        },
        {
          "duration": 0.18292674999999292,
          "durationTicks": 24,
          "midi": 26,
          "name": "D1",
          "ticks": 12576,
          "time": 95.853617,
          "velocity": 0.6299212598425197
        },
        {
          "duration": 0.18292674999999292,
          "durationTicks": 24,
          "midi": 36,
          "name": "C2",
          "ticks": 12624,
          "time": 96.2194705,
          "velocity": 0.6299212598425197
        }
      ]
    },
    {
      "channel": 9,
      "controlChanges": {},
      "pitchBends": [],
      "instrument": {
        "family": "drums",
        "number": 2
      },
      "name": "",
      "notes": [
        {
          "duration": 0.18292674999999292,
          "durationTicks": 24,
          "midi": 57,
          "name": "A3",
          "ticks": 12672,
          "time": 96.585324,
          "velocity": 0.6929133858267716
        },
        {
          "duration": 0.18292674999999292,
          "durationTicks": 24,
          "midi": 36,
          "name": "C2",
          "ticks": 12672,
          "time": 96.585324,
          "velocity": 0.6929133858267716
        },
        {
          "duration": 0.18292674999999292,
          "durationTicks": 24,
          "midi": 40,
          "name": "E2",
          "ticks": 12768,
          "time": 97.317031,
          "velocity": 0.6929133858267716
        },
        {
          "duration": 0.18292674999999292,
          "durationTicks": 24,
          "midi": 36,
          "name": "C2",
          "ticks": 12864,
          "time": 98.048738,
          "velocity": 0.6929133858267716
        },
        {
          "duration": 0.18292674999999292,
          "durationTicks": 24,
          "midi": 36,
          "name": "C2",
          "ticks": 12912,
          "time": 98.4145915,
          "velocity": 0.6929133858267716
        },
        {
          "duration": 0.18292674999999292,
          "durationTicks": 24,
          "midi": 54,
          "name": "F#3",
          "ticks": 12960,
          "time": 98.780445,
          "velocity": 0.6929133858267716
        },
        {
          "duration": 0.18292674999999292,
          "durationTicks": 24,
          "midi": 40,
          "name": "E2",
          "ticks": 12960,
          "time": 98.780445,
          "velocity": 0.6929133858267716
        },
        {
          "duration": 0.18292674999999292,
          "durationTicks": 24,
          "midi": 36,
          "name": "C2",
          "ticks": 13056,
          "time": 99.512152,
          "velocity": 0.6929133858267716
        },
        {
          "duration": 0.18292674999999292,
          "durationTicks": 24,
          "midi": 40,
          "name": "E2",
          "ticks": 13152,
          "time": 100.243859,
          "velocity": 0.6929133858267716
        },
        {
          "duration": 0.18292675000000713,
          "durationTicks": 24,
          "midi": 36,
          "name": "C2",
          "ticks": 13224,
          "time": 100.79263925,
          "velocity": 0.6929133858267716
        },
        {
          "duration": 0.18292674999999292,
          "durationTicks": 24,
          "midi": 36,
          "name": "C2",
          "ticks": 13248,
          "time": 100.975566,
          "velocity": 0.6929133858267716
        },
        {
          "duration": 0.18292674999999292,
          "durationTicks": 24,
          "midi": 36,
          "name": "C2",
          "ticks": 13296,
          "time": 101.3414195,
          "velocity": 0.6929133858267716
        },
        {
          "duration": 0.18292674999999292,
          "durationTicks": 24,
          "midi": 54,
          "name": "F#3",
          "ticks": 13344,
          "time": 101.707273,
          "velocity": 0.6929133858267716
        },
        {
          "duration": 0.18292674999999292,
          "durationTicks": 24,
          "midi": 40,
          "name": "E2",
          "ticks": 13344,
          "time": 101.707273,
          "velocity": 0.6929133858267716
        },
        {
          "duration": 0.18292674999999292,
          "durationTicks": 24,
          "midi": 36,
          "name": "C2",
          "ticks": 13440,
          "time": 102.43898,
          "velocity": 0.6929133858267716
        },
        {
          "duration": 0.18292674999999292,
          "durationTicks": 24,
          "midi": 40,
          "name": "E2",
          "ticks": 13536,
          "time": 103.170687,
          "velocity": 0.6929133858267716
        },
        {
          "duration": 0.18292674999999292,
          "durationTicks": 24,
          "midi": 36,
          "name": "C2",
          "ticks": 13632,
          "time": 103.902394,
          "velocity": 0.6929133858267716
        },
        {
          "duration": 0.18292674999999292,
          "durationTicks": 24,
          "midi": 36,
          "name": "C2",
          "ticks": 13680,
          "time": 104.2682475,
          "velocity": 0.6929133858267716
        },
        {
          "duration": 0.18292674999999292,
          "durationTicks": 24,
          "midi": 40,
          "name": "E2",
          "ticks": 13728,
          "time": 104.634101,
          "velocity": 0.6929133858267716
        },
        {
          "duration": 0.18292674999999292,
          "durationTicks": 24,
          "midi": 54,
          "name": "F#3",
          "ticks": 13728,
          "time": 104.634101,
          "velocity": 0.6929133858267716
        },
        {
          "duration": 0.18292674999999292,
          "durationTicks": 24,
          "midi": 36,
          "name": "C2",
          "ticks": 13824,
          "time": 105.365808,
          "velocity": 0.6929133858267716
        },
        {
          "duration": 0.18292674999999292,
          "durationTicks": 24,
          "midi": 40,
          "name": "E2",
          "ticks": 13920,
          "time": 106.097515,
          "velocity": 0.6929133858267716
        },
        {
          "duration": 0.18292675000000713,
          "durationTicks": 24,
          "midi": 36,
          "name": "C2",
          "ticks": 13992,
          "time": 106.64629525,
          "velocity": 0.6929133858267716
        },
        {
          "duration": 0.18292674999999292,
          "durationTicks": 24,
          "midi": 36,
          "name": "C2",
          "ticks": 14016,
          "time": 106.829222,
          "velocity": 0.6929133858267716
        },
        {
          "duration": 0.18292674999999292,
          "durationTicks": 24,
          "midi": 36,
          "name": "C2",
          "ticks": 14064,
          "time": 107.1950755,
          "velocity": 0.6929133858267716
        },
        {
          "duration": 0.18292674999999292,
          "durationTicks": 24,
          "midi": 40,
          "name": "E2",
          "ticks": 14112,
          "time": 107.560929,
          "velocity": 0.6929133858267716
        },
        {
          "duration": 0.18292674999999292,
          "durationTicks": 24,
          "midi": 54,
          "name": "F#3",
          "ticks": 14112,
          "time": 107.560929,
          "velocity": 0.6929133858267716
        },
        {
          "duration": 0.18292674999999292,
          "durationTicks": 24,
          "midi": 36,
          "name": "C2",
          "ticks": 14208,
          "time": 108.292636,
          "velocity": 0.6929133858267716
        },
        {
          "duration": 0.18292674999999292,
          "durationTicks": 24,
          "midi": 49,
          "name": "C#3",
          "ticks": 14208,
          "time": 108.292636,
          "velocity": 0.6929133858267716
        },
        {
          "duration": 0.18292674999999292,
          "durationTicks": 24,
          "midi": 40,
          "name": "E2",
          "ticks": 14304,
          "time": 109.024343,
          "velocity": 0.6929133858267716
        },
        {
          "duration": 0.18292674999999292,
          "durationTicks": 24,
          "midi": 36,
          "name": "C2",
          "ticks": 14400,
          "time": 109.75605,
          "velocity": 0.6929133858267716
        },
        {
          "duration": 0.18292674999999292,
          "durationTicks": 24,
          "midi": 36,
          "name": "C2",
          "ticks": 14448,
          "time": 110.1219035,
          "velocity": 0.6929133858267716
        },
        {
          "duration": 0.18292674999999292,
          "durationTicks": 24,
          "midi": 54,
          "name": "F#3",
          "ticks": 14496,
          "time": 110.487757,
          "velocity": 0.6929133858267716
        },
        {
          "duration": 0.18292674999999292,
          "durationTicks": 24,
          "midi": 40,
          "name": "E2",
          "ticks": 14496,
          "time": 110.487757,
          "velocity": 0.6929133858267716
        },
        {
          "duration": 0.18292674999999292,
          "durationTicks": 24,
          "midi": 36,
          "name": "C2",
          "ticks": 14592,
          "time": 111.219464,
          "velocity": 0.6929133858267716
        },
        {
          "duration": 0.18292674999999292,
          "durationTicks": 24,
          "midi": 40,
          "name": "E2",
          "ticks": 14688,
          "time": 111.951171,
          "velocity": 0.6929133858267716
        },
        {
          "duration": 0.18292675000000713,
          "durationTicks": 24,
          "midi": 36,
          "name": "C2",
          "ticks": 14760,
          "time": 112.49995125,
          "velocity": 0.6929133858267716
        },
        {
          "duration": 0.18292674999999292,
          "durationTicks": 24,
          "midi": 36,
          "name": "C2",
          "ticks": 14784,
          "time": 112.682878,
          "velocity": 0.6929133858267716
        },
        {
          "duration": 0.18292674999999292,
          "durationTicks": 24,
          "midi": 36,
          "name": "C2",
          "ticks": 14832,
          "time": 113.0487315,
          "velocity": 0.6929133858267716
        },
        {
          "duration": 0.18292674999999292,
          "durationTicks": 24,
          "midi": 40,
          "name": "E2",
          "ticks": 14880,
          "time": 113.414585,
          "velocity": 0.6929133858267716
        },
        {
          "duration": 0.18292674999999292,
          "durationTicks": 24,
          "midi": 54,
          "name": "F#3",
          "ticks": 14880,
          "time": 113.414585,
          "velocity": 0.6929133858267716
        },
        {
          "duration": 0.18292674999999292,
          "durationTicks": 24,
          "midi": 36,
          "name": "C2",
          "ticks": 14976,
          "time": 114.146292,
          "velocity": 0.6929133858267716
        },
        {
          "duration": 0.18292674999999292,
          "durationTicks": 24,
          "midi": 40,
          "name": "E2",
          "ticks": 15072,
          "time": 114.877999,
          "velocity": 0.6929133858267716
        },
        {
          "duration": 0.18292674999999292,
          "durationTicks": 24,
          "midi": 36,
          "name": "C2",
          "ticks": 15168,
          "time": 115.609706,
          "velocity": 0.6929133858267716
        },
        {
          "duration": 0.18292674999999292,
          "durationTicks": 24,
          "midi": 36,
          "name": "C2",
          "ticks": 15216,
          "time": 115.9755595,
          "velocity": 0.6929133858267716
        },
        {
          "duration": 0.18292674999999292,
          "durationTicks": 24,
          "midi": 40,
          "name": "E2",
          "ticks": 15264,
          "time": 116.341413,
          "velocity": 0.6929133858267716
        },
        {
          "duration": 0.18292674999999292,
          "durationTicks": 24,
          "midi": 54,
          "name": "F#3",
          "ticks": 15264,
          "time": 116.341413,
          "velocity": 0.6929133858267716
        },
        {
          "duration": 0.18292674999999292,
          "durationTicks": 24,
          "midi": 36,
          "name": "C2",
          "ticks": 15360,
          "time": 117.07312,
          "velocity": 0.6929133858267716
        },
        {
          "duration": 0.18292674999999292,
          "durationTicks": 24,
          "midi": 40,
          "name": "E2",
          "ticks": 15456,
          "time": 117.804827,
          "velocity": 0.6929133858267716
        },
        {
          "duration": 0.18292675000000713,
          "durationTicks": 24,
          "midi": 36,
          "name": "C2",
          "ticks": 15528,
          "time": 118.35360725,
          "velocity": 0.6929133858267716
        },
        {
          "duration": 0.04573168749999468,
          "durationTicks": 6,
          "midi": 49,
          "name": "C#3",
          "ticks": 15552,
          "time": 118.536534,
          "velocity": 0.06299212598425197
        },
        {
          "duration": 0.18292674999999292,
          "durationTicks": 24,
          "midi": 36,
          "name": "C2",
          "ticks": 15552,
          "time": 118.536534,
          "velocity": 0.6929133858267716
        },
        {
          "duration": 0.18292674999999292,
          "durationTicks": 24,
          "midi": 84,
          "name": "C6",
          "ticks": 15552,
          "time": 118.536534,
          "velocity": 0.6929133858267716
        },
        {
          "duration": 0.04573168749999468,
          "durationTicks": 6,
          "midi": 49,
          "name": "C#3",
          "ticks": 15558,
          "time": 118.5822656875,
          "velocity": 0.08661417322834646
        },
        {
          "duration": 0.04573168750000889,
          "durationTicks": 6,
          "midi": 49,
          "name": "C#3",
          "ticks": 15564,
          "time": 118.62799737499999,
          "velocity": 0.11023622047244094
        },
        {
          "duration": 0.04573168749999468,
          "durationTicks": 6,
          "midi": 49,
          "name": "C#3",
          "ticks": 15570,
          "time": 118.6737290625,
          "velocity": 0.14173228346456693
        },
        {
          "duration": 0.04573168750000889,
          "durationTicks": 6,
          "midi": 49,
          "name": "C#3",
          "ticks": 15576,
          "time": 118.71946075,
          "velocity": 0.16535433070866143
        },
        {
          "duration": 0.04573168749999468,
          "durationTicks": 6,
          "midi": 49,
          "name": "C#3",
          "ticks": 15582,
          "time": 118.7651924375,
          "velocity": 0.1889763779527559
        },
        {
          "duration": 0.04573168749999468,
          "durationTicks": 6,
          "midi": 49,
          "name": "C#3",
          "ticks": 15588,
          "time": 118.810924125,
          "velocity": 0.2204724409448819
        },
        {
          "duration": 0.04573168750000889,
          "durationTicks": 6,
          "midi": 49,
          "name": "C#3",
          "ticks": 15594,
          "time": 118.8566558125,
          "velocity": 0.2440944881889764
        },
        {
          "duration": 0.04573168749999468,
          "durationTicks": 6,
          "midi": 49,
          "name": "C#3",
          "ticks": 15600,
          "time": 118.9023875,
          "velocity": 0.2677165354330709
        },
        {
          "duration": 0.18292674999999292,
          "durationTicks": 24,
          "midi": 36,
          "name": "C2",
          "ticks": 15600,
          "time": 118.9023875,
          "velocity": 0.6929133858267716
        },
        {
          "duration": 0.04573168749999468,
          "durationTicks": 6,
          "midi": 49,
          "name": "C#3",
          "ticks": 15606,
          "time": 118.9481191875,
          "velocity": 0.2992125984251969
        },
        {
          "duration": 0.04573168750000889,
          "durationTicks": 6,
          "midi": 49,
          "name": "C#3",
          "ticks": 15612,
          "time": 118.99385087499999,
          "velocity": 0.3228346456692913
        },
        {
          "duration": 0.04573168749999468,
          "durationTicks": 6,
          "midi": 49,
          "name": "C#3",
          "ticks": 15618,
          "time": 119.0395825625,
          "velocity": 0.3464566929133858
        },
        {
          "duration": 0.04573168750000889,
          "durationTicks": 6,
          "midi": 49,
          "name": "C#3",
          "ticks": 15624,
          "time": 119.08531425,
          "velocity": 0.3779527559055118
        },
        {
          "duration": 0.04573168749999468,
          "durationTicks": 6,
          "midi": 49,
          "name": "C#3",
          "ticks": 15630,
          "time": 119.1310459375,
          "velocity": 0.4015748031496063
        },
        {
          "duration": 0.04573168749999468,
          "durationTicks": 6,
          "midi": 49,
          "name": "C#3",
          "ticks": 15636,
          "time": 119.176777625,
          "velocity": 0.4251968503937008
        },
        {
          "duration": 0.04573168750000889,
          "durationTicks": 6,
          "midi": 49,
          "name": "C#3",
          "ticks": 15642,
          "time": 119.2225093125,
          "velocity": 0.44881889763779526
        },
        {
          "duration": 0.18292674999999292,
          "durationTicks": 24,
          "midi": 54,
          "name": "F#3",
          "ticks": 15648,
          "time": 119.268241,
          "velocity": 0.6929133858267716
        },
        {
          "duration": 0.18292674999999292,
          "durationTicks": 24,
          "midi": 40,
          "name": "E2",
          "ticks": 15648,
          "time": 119.268241,
          "velocity": 0.6929133858267716
        },
        {
          "duration": 0.04573168749999468,
          "durationTicks": 6,
          "midi": 49,
          "name": "C#3",
          "ticks": 15648,
          "time": 119.268241,
          "velocity": 0.48031496062992124
        },
        {
          "duration": 0.04573168749999468,
          "durationTicks": 6,
          "midi": 49,
          "name": "C#3",
          "ticks": 15654,
          "time": 119.3139726875,
          "velocity": 0.5039370078740157
        },
        {
          "duration": 0.04573168750000889,
          "durationTicks": 6,
          "midi": 49,
          "name": "C#3",
          "ticks": 15660,
          "time": 119.35970437499999,
          "velocity": 0.5275590551181102
        },
        {
          "duration": 0.04573168749999468,
          "durationTicks": 6,
          "midi": 49,
          "name": "C#3",
          "ticks": 15666,
          "time": 119.4054360625,
          "velocity": 0.5590551181102362
        },
        {
          "duration": 0.04573168750000889,
          "durationTicks": 6,
          "midi": 49,
          "name": "C#3",
          "ticks": 15672,
          "time": 119.45116775,
          "velocity": 0.5826771653543307
        },
        {
          "duration": 0.04573168749999468,
          "durationTicks": 6,
          "midi": 49,
          "name": "C#3",
          "ticks": 15678,
          "time": 119.4968994375,
          "velocity": 0.6062992125984252
        },
        {
          "duration": 0.04573168749999468,
          "durationTicks": 6,
          "midi": 49,
          "name": "C#3",
          "ticks": 15684,
          "time": 119.542631125,
          "velocity": 0.6377952755905512
        },
        {
          "duration": 0.04573168750000889,
          "durationTicks": 6,
          "midi": 49,
          "name": "C#3",
          "ticks": 15690,
          "time": 119.5883628125,
          "velocity": 0.6614173228346457
        },
        {
          "duration": 0.04573168749999468,
          "durationTicks": 6,
          "midi": 49,
          "name": "C#3",
          "ticks": 15696,
          "time": 119.6340945,
          "velocity": 0.6850393700787402
        },
        {
          "duration": 0.04573168749999468,
          "durationTicks": 6,
          "midi": 49,
          "name": "C#3",
          "ticks": 15702,
          "time": 119.6798261875,
          "velocity": 0.7165354330708661
        },
        {
          "duration": 0.04573168750000889,
          "durationTicks": 6,
          "midi": 49,
          "name": "C#3",
          "ticks": 15708,
          "time": 119.72555787499999,
          "velocity": 0.7401574803149606
        },
        {
          "duration": 0.04573168749999468,
          "durationTicks": 6,
          "midi": 49,
          "name": "C#3",
          "ticks": 15714,
          "time": 119.7712895625,
          "velocity": 0.7637795275590551
        },
        {
          "duration": 0.04573168750000889,
          "durationTicks": 6,
          "midi": 49,
          "name": "C#3",
          "ticks": 15720,
          "time": 119.81702125,
          "velocity": 0.7874015748031497
        },
        {
          "duration": 0.04573168749999468,
          "durationTicks": 6,
          "midi": 49,
          "name": "C#3",
          "ticks": 15726,
          "time": 119.8627529375,
          "velocity": 0.8188976377952756
        },
        {
          "duration": 0.04573168749999468,
          "durationTicks": 6,
          "midi": 49,
          "name": "C#3",
          "ticks": 15732,
          "time": 119.908484625,
          "velocity": 0.84251968503937
        },
        {
          "duration": 0.04573168750000889,
          "durationTicks": 6,
          "midi": 49,
          "name": "C#3",
          "ticks": 15738,
          "time": 119.9542163125,
          "velocity": 0.8661417322834646
        }
      ]
    },
    {
      "channel": 9,
      "controlChanges": {},
      "pitchBends": [],
      "instrument": {
        "family": "drums",
        "name": "power kit",
        "number": 16
      },
      "name": "",
      "notes": [
        {
          "duration": 0.18292674999999292,
          "durationTicks": 24,
          "midi": 31,
          "name": "G1",
          "ticks": 15744,
          "time": 119.999948,
          "velocity": 0.8188976377952756
        },
        {
          "duration": 0.18292674999999292,
          "durationTicks": 24,
          "midi": 36,
          "name": "C2",
          "ticks": 15744,
          "time": 119.999948,
          "velocity": 0.7480314960629921
        },
        {
          "duration": 0.18292674999999292,
          "durationTicks": 24,
          "midi": 49,
          "name": "C#3",
          "ticks": 15744,
          "time": 119.999948,
          "velocity": 0.8818897637795275
        },
        {
          "duration": 0.18292674999999292,
          "durationTicks": 24,
          "midi": 39,
          "name": "D#2",
          "ticks": 15840,
          "time": 120.731655,
          "velocity": 0.8582677165354331
        },
        {
          "duration": 0.18292674999999292,
          "durationTicks": 24,
          "midi": 43,
          "name": "G2",
          "ticks": 15840,
          "time": 120.731655,
          "velocity": 0.7480314960629921
        },
        {
          "duration": 0.18292674999999292,
          "durationTicks": 24,
          "midi": 31,
          "name": "G1",
          "ticks": 15936,
          "time": 121.463362,
          "velocity": 0.8188976377952756
        },
        {
          "duration": 0.18292674999999292,
          "durationTicks": 24,
          "midi": 36,
          "name": "C2",
          "ticks": 15936,
          "time": 121.463362,
          "velocity": 0.7480314960629921
        },
        {
          "duration": 0.18292674999999292,
          "durationTicks": 24,
          "midi": 31,
          "name": "G1",
          "ticks": 15984,
          "time": 121.8292155,
          "velocity": 0.8188976377952756
        },
        {
          "duration": 0.18292674999999292,
          "durationTicks": 24,
          "midi": 36,
          "name": "C2",
          "ticks": 15984,
          "time": 121.8292155,
          "velocity": 0.7480314960629921
        },
        {
          "duration": 0.18292674999999292,
          "durationTicks": 24,
          "midi": 39,
          "name": "D#2",
          "ticks": 16032,
          "time": 122.195069,
          "velocity": 0.8582677165354331
        },
        {
          "duration": 0.18292674999999292,
          "durationTicks": 24,
          "midi": 43,
          "name": "G2",
          "ticks": 16032,
          "time": 122.195069,
          "velocity": 0.7480314960629921
        },
        {
          "duration": 0.18292674999999292,
          "durationTicks": 24,
          "midi": 31,
          "name": "G1",
          "ticks": 16128,
          "time": 122.926776,
          "velocity": 0.8188976377952756
        },
        {
          "duration": 0.18292674999999292,
          "durationTicks": 24,
          "midi": 36,
          "name": "C2",
          "ticks": 16128,
          "time": 122.926776,
          "velocity": 0.7480314960629921
        },
        {
          "duration": 0.18292674999999292,
          "durationTicks": 24,
          "midi": 39,
          "name": "D#2",
          "ticks": 16224,
          "time": 123.658483,
          "velocity": 0.8582677165354331
        },
        {
          "duration": 0.18292674999999292,
          "durationTicks": 24,
          "midi": 43,
          "name": "G2",
          "ticks": 16224,
          "time": 123.658483,
          "velocity": 0.7480314960629921
        },
        {
          "duration": 0.18292675000000713,
          "durationTicks": 24,
          "midi": 31,
          "name": "G1",
          "ticks": 16296,
          "time": 124.20726325,
          "velocity": 0.8188976377952756
        },
        {
          "duration": 0.18292675000000713,
          "durationTicks": 24,
          "midi": 36,
          "name": "C2",
          "ticks": 16296,
          "time": 124.20726325,
          "velocity": 0.7480314960629921
        },
        {
          "duration": 0.18292674999999292,
          "durationTicks": 24,
          "midi": 31,
          "name": "G1",
          "ticks": 16320,
          "time": 124.39019,
          "velocity": 0.8188976377952756
        },
        {
          "duration": 0.18292674999999292,
          "durationTicks": 24,
          "midi": 36,
          "name": "C2",
          "ticks": 16320,
          "time": 124.39019,
          "velocity": 0.7480314960629921
        },
        {
          "duration": 0.18292674999999292,
          "durationTicks": 24,
          "midi": 31,
          "name": "G1",
          "ticks": 16368,
          "time": 124.7560435,
          "velocity": 0.8188976377952756
        },
        {
          "duration": 0.18292674999999292,
          "durationTicks": 24,
          "midi": 36,
          "name": "C2",
          "ticks": 16368,
          "time": 124.7560435,
          "velocity": 0.7480314960629921
        },
        {
          "duration": 0.18292674999999292,
          "durationTicks": 24,
          "midi": 39,
          "name": "D#2",
          "ticks": 16416,
          "time": 125.121897,
          "velocity": 0.8582677165354331
        },
        {
          "duration": 0.18292674999999292,
          "durationTicks": 24,
          "midi": 43,
          "name": "G2",
          "ticks": 16416,
          "time": 125.121897,
          "velocity": 0.7480314960629921
        },
        {
          "duration": 0.18292674999999292,
          "durationTicks": 24,
          "midi": 31,
          "name": "G1",
          "ticks": 16512,
          "time": 125.853604,
          "velocity": 0.8267716535433071
        },
        {
          "duration": 0.18292674999999292,
          "durationTicks": 24,
          "midi": 36,
          "name": "C2",
          "ticks": 16512,
          "time": 125.853604,
          "velocity": 0.7559055118110236
        },
        {
          "duration": 0.18292674999999292,
          "durationTicks": 24,
          "midi": 43,
          "name": "G2",
          "ticks": 16608,
          "time": 126.585311,
          "velocity": 0.7559055118110236
        },
        {
          "duration": 0.18292674999999292,
          "durationTicks": 24,
          "midi": 39,
          "name": "D#2",
          "ticks": 16608,
          "time": 126.585311,
          "velocity": 0.8582677165354331
        },
        {
          "duration": 0.18292674999999292,
          "durationTicks": 24,
          "midi": 31,
          "name": "G1",
          "ticks": 16704,
          "time": 127.317018,
          "velocity": 0.8267716535433071
        },
        {
          "duration": 0.18292674999999292,
          "durationTicks": 24,
          "midi": 36,
          "name": "C2",
          "ticks": 16704,
          "time": 127.317018,
          "velocity": 0.7559055118110236
        },
        {
          "duration": 0.18292674999999292,
          "durationTicks": 24,
          "midi": 31,
          "name": "G1",
          "ticks": 16752,
          "time": 127.6828715,
          "velocity": 0.8267716535433071
        },
        {
          "duration": 0.18292674999999292,
          "durationTicks": 24,
          "midi": 36,
          "name": "C2",
          "ticks": 16752,
          "time": 127.6828715,
          "velocity": 0.7559055118110236
        },
        {
          "duration": 0.18292675000000713,
          "durationTicks": 24,
          "midi": 39,
          "name": "D#2",
          "ticks": 16800,
          "time": 128.048725,
          "velocity": 0.8582677165354331
        },
        {
          "duration": 0.18292675000000713,
          "durationTicks": 24,
          "midi": 43,
          "name": "G2",
          "ticks": 16800,
          "time": 128.048725,
          "velocity": 0.7559055118110236
        },
        {
          "duration": 0.18292675000000713,
          "durationTicks": 24,
          "midi": 31,
          "name": "G1",
          "ticks": 16896,
          "time": 128.780432,
          "velocity": 0.8267716535433071
        },
        {
          "duration": 0.18292675000000713,
          "durationTicks": 24,
          "midi": 36,
          "name": "C2",
          "ticks": 16896,
          "time": 128.780432,
          "velocity": 0.7559055118110236
        },
        {
          "duration": 0.18292675000000713,
          "durationTicks": 24,
          "midi": 39,
          "name": "D#2",
          "ticks": 16992,
          "time": 129.512139,
          "velocity": 0.8582677165354331
        },
        {
          "duration": 0.18292675000000713,
          "durationTicks": 24,
          "midi": 43,
          "name": "G2",
          "ticks": 16992,
          "time": 129.512139,
          "velocity": 0.7559055118110236
        },
        {
          "duration": 0.1829267499999787,
          "durationTicks": 24,
          "midi": 31,
          "name": "G1",
          "ticks": 17064,
          "time": 130.06091925,
          "velocity": 0.8267716535433071
        },
        {
          "duration": 0.1829267499999787,
          "durationTicks": 24,
          "midi": 36,
          "name": "C2",
          "ticks": 17064,
          "time": 130.06091925,
          "velocity": 0.7559055118110236
        },
        {
          "duration": 0.18292675000000713,
          "durationTicks": 24,
          "midi": 31,
          "name": "G1",
          "ticks": 17088,
          "time": 130.243846,
          "velocity": 0.8267716535433071
        },
        {
          "duration": 0.18292675000000713,
          "durationTicks": 24,
          "midi": 36,
          "name": "C2",
          "ticks": 17088,
          "time": 130.243846,
          "velocity": 0.7559055118110236
        },
        {
          "duration": 0.18292675000000713,
          "durationTicks": 24,
          "midi": 84,
          "name": "C6",
          "ticks": 17088,
          "time": 130.243846,
          "velocity": 0.6929133858267716
        },
        {
          "duration": 0.04573168749999468,
          "durationTicks": 6,
          "midi": 49,
          "name": "C#3",
          "ticks": 17088,
          "time": 130.243846,
          "velocity": 0.18110236220472442
        },
        {
          "duration": 0.0457316875000231,
          "durationTicks": 6,
          "midi": 49,
          "name": "C#3",
          "ticks": 17094,
          "time": 130.28957768749999,
          "velocity": 0.2047244094488189
        },
        {
          "duration": 0.04573168749999468,
          "durationTicks": 6,
          "midi": 49,
          "name": "C#3",
          "ticks": 17100,
          "time": 130.335309375,
          "velocity": 0.2204724409448819
        },
        {
          "duration": 0.04573168749999468,
          "durationTicks": 6,
          "midi": 49,
          "name": "C#3",
          "ticks": 17106,
          "time": 130.3810410625,
          "velocity": 0.2440944881889764
        },
        {
          "duration": 0.04573168749999468,
          "durationTicks": 6,
          "midi": 49,
          "name": "C#3",
          "ticks": 17112,
          "time": 130.42677275,
          "velocity": 0.2677165354330709
        },
        {
          "duration": 0.04573168749999468,
          "durationTicks": 6,
          "midi": 49,
          "name": "C#3",
          "ticks": 17118,
          "time": 130.4725044375,
          "velocity": 0.29133858267716534
        },
        {
          "duration": 0.0457316875000231,
          "durationTicks": 6,
          "midi": 49,
          "name": "C#3",
          "ticks": 17124,
          "time": 130.518236125,
          "velocity": 0.30708661417322836
        },
        {
          "duration": 0.04573168749999468,
          "durationTicks": 6,
          "midi": 49,
          "name": "C#3",
          "ticks": 17130,
          "time": 130.5639678125,
          "velocity": 0.33070866141732286
        },
        {
          "duration": 0.18292675000000713,
          "durationTicks": 24,
          "midi": 31,
          "name": "G1",
          "ticks": 17136,
          "time": 130.6096995,
          "velocity": 0.8267716535433071
        },
        {
          "duration": 0.04573168749999468,
          "durationTicks": 6,
          "midi": 49,
          "name": "C#3",
          "ticks": 17136,
          "time": 130.6096995,
          "velocity": 0.3543307086614173
        },
        {
          "duration": 0.18292675000000713,
          "durationTicks": 24,
          "midi": 36,
          "name": "C2",
          "ticks": 17136,
          "time": 130.6096995,
          "velocity": 0.7559055118110236
        },
        {
          "duration": 0.04573168749999468,
          "durationTicks": 6,
          "midi": 49,
          "name": "C#3",
          "ticks": 17142,
          "time": 130.6554311875,
          "velocity": 0.3779527559055118
        },
        {
          "duration": 0.04573168749999468,
          "durationTicks": 6,
          "midi": 49,
          "name": "C#3",
          "ticks": 17148,
          "time": 130.701162875,
          "velocity": 0.4015748031496063
        },
        {
          "duration": 0.0457316875000231,
          "durationTicks": 6,
          "midi": 49,
          "name": "C#3",
          "ticks": 17154,
          "time": 130.7468945625,
          "velocity": 0.41732283464566927
        },
        {
          "duration": 0.04573168749999468,
          "durationTicks": 6,
          "midi": 49,
          "name": "C#3",
          "ticks": 17160,
          "time": 130.79262625,
          "velocity": 0.4409448818897638
        },
        {
          "duration": 0.04573168749999468,
          "durationTicks": 6,
          "midi": 49,
          "name": "C#3",
          "ticks": 17166,
          "time": 130.8383579375,
          "velocity": 0.4645669291338583
        },
        {
          "duration": 0.04573168749999468,
          "durationTicks": 6,
          "midi": 49,
          "name": "C#3",
          "ticks": 17172,
          "time": 130.884089625,
          "velocity": 0.4881889763779528
        },
        {
          "duration": 0.04573168749999468,
          "durationTicks": 6,
          "midi": 49,
          "name": "C#3",
          "ticks": 17178,
          "time": 130.9298213125,
          "velocity": 0.5039370078740157
        },
        {
          "duration": 0.04573168749999468,
          "durationTicks": 6,
          "midi": 49,
          "name": "C#3",
          "ticks": 17184,
          "time": 130.975553,
          "velocity": 0.5275590551181102
        },
        {
          "duration": 0.18292675000000713,
          "durationTicks": 24,
          "midi": 43,
          "name": "G2",
          "ticks": 17184,
          "time": 130.975553,
          "velocity": 0.7559055118110236
        },
        {
          "duration": 0.18292675000000713,
          "durationTicks": 24,
          "midi": 39,
          "name": "D#2",
          "ticks": 17184,
          "time": 130.975553,
          "velocity": 0.8582677165354331
        },
        {
          "duration": 0.0457316875000231,
          "durationTicks": 6,
          "midi": 49,
          "name": "C#3",
          "ticks": 17190,
          "time": 131.02128468749999,
          "velocity": 0.5511811023622047
        },
        {
          "duration": 0.04573168749999468,
          "durationTicks": 6,
          "midi": 49,
          "name": "C#3",
          "ticks": 17196,
          "time": 131.067016375,
          "velocity": 0.5748031496062992
        },
        {
          "duration": 0.04573168749999468,
          "durationTicks": 6,
          "midi": 49,
          "name": "C#3",
          "ticks": 17202,
          "time": 131.1127480625,
          "velocity": 0.5905511811023622
        },
        {
          "duration": 0.04573168749999468,
          "durationTicks": 6,
          "midi": 49,
          "name": "C#3",
          "ticks": 17208,
          "time": 131.15847975,
          "velocity": 0.6141732283464567
        },
        {
          "duration": 0.04573168749999468,
          "durationTicks": 6,
          "midi": 49,
          "name": "C#3",
          "ticks": 17214,
          "time": 131.2042114375,
          "velocity": 0.6377952755905512
        },
        {
          "duration": 0.0457316875000231,
          "durationTicks": 6,
          "midi": 49,
          "name": "C#3",
          "ticks": 17220,
          "time": 131.249943125,
          "velocity": 0.6614173228346457
        },
        {
          "duration": 0.04573168749999468,
          "durationTicks": 6,
          "midi": 49,
          "name": "C#3",
          "ticks": 17226,
          "time": 131.2956748125,
          "velocity": 0.6850393700787402
        },
        {
          "duration": 0.04573168749999468,
          "durationTicks": 6,
          "midi": 49,
          "name": "C#3",
          "ticks": 17232,
          "time": 131.3414065,
          "velocity": 0.7007874015748031
        },
        {
          "duration": 0.04573168749999468,
          "durationTicks": 6,
          "midi": 49,
          "name": "C#3",
          "ticks": 17238,
          "time": 131.3871381875,
          "velocity": 0.7244094488188977
        },
        {
          "duration": 0.04573168749999468,
          "durationTicks": 6,
          "midi": 49,
          "name": "C#3",
          "ticks": 17244,
          "time": 131.432869875,
          "velocity": 0.7480314960629921
        },
        {
          "duration": 0.0457316875000231,
          "durationTicks": 6,
          "midi": 49,
          "name": "C#3",
          "ticks": 17250,
          "time": 131.4786015625,
          "velocity": 0.7716535433070866
        },
        {
          "duration": 0.04573168749999468,
          "durationTicks": 6,
          "midi": 49,
          "name": "C#3",
          "ticks": 17256,
          "time": 131.52433325,
          "velocity": 0.7874015748031497
        },
        {
          "duration": 0.04573168749999468,
          "durationTicks": 6,
          "midi": 49,
          "name": "C#3",
          "ticks": 17262,
          "time": 131.5700649375,
          "velocity": 0.8110236220472441
        },
        {
          "duration": 0.04573168749999468,
          "durationTicks": 6,
          "midi": 49,
          "name": "C#3",
          "ticks": 17268,
          "time": 131.615796625,
          "velocity": 0.8346456692913385
        },
        {
          "duration": 0.04573168749999468,
          "durationTicks": 6,
          "midi": 49,
          "name": "C#3",
          "ticks": 17274,
          "time": 131.6615283125,
          "velocity": 0.8582677165354331
        },
        {
          "duration": 0.18292675000000713,
          "durationTicks": 24,
          "midi": 31,
          "name": "G1",
          "ticks": 17280,
          "time": 131.70726,
          "velocity": 0.8188976377952756
        },
        {
          "duration": 0.18292675000000713,
          "durationTicks": 24,
          "midi": 36,
          "name": "C2",
          "ticks": 17280,
          "time": 131.70726,
          "velocity": 0.7480314960629921
        },
        {
          "duration": 0.18292675000000713,
          "durationTicks": 24,
          "midi": 49,
          "name": "C#3",
          "ticks": 17280,
          "time": 131.70726,
          "velocity": 0.8818897637795275
        },
        {
          "duration": 0.18292675000000713,
          "durationTicks": 24,
          "midi": 43,
          "name": "G2",
          "ticks": 17376,
          "time": 132.438967,
          "velocity": 0.7480314960629921
        },
        {
          "duration": 0.18292675000000713,
          "durationTicks": 24,
          "midi": 39,
          "name": "D#2",
          "ticks": 17376,
          "time": 132.438967,
          "velocity": 0.8582677165354331
        },
        {
          "duration": 0.18292675000000713,
          "durationTicks": 24,
          "midi": 36,
          "name": "C2",
          "ticks": 17472,
          "time": 133.170674,
          "velocity": 0.7480314960629921
        },
        {
          "duration": 0.18292675000000713,
          "durationTicks": 24,
          "midi": 31,
          "name": "G1",
          "ticks": 17472,
          "time": 133.170674,
          "velocity": 0.8188976377952756
        },
        {
          "duration": 0.18292675000000713,
          "durationTicks": 24,
          "midi": 36,
          "name": "C2",
          "ticks": 17520,
          "time": 133.5365275,
          "velocity": 0.7480314960629921
        },
        {
          "duration": 0.18292675000000713,
          "durationTicks": 24,
          "midi": 31,
          "name": "G1",
          "ticks": 17520,
          "time": 133.5365275,
          "velocity": 0.8188976377952756
        },
        {
          "duration": 0.18292675000000713,
          "durationTicks": 24,
          "midi": 54,
          "name": "F#3",
          "ticks": 17568,
          "time": 133.902381,
          "velocity": 0.8582677165354331
        },
        {
          "duration": 0.18292675000000713,
          "durationTicks": 24,
          "midi": 39,
          "name": "D#2",
          "ticks": 17568,
          "time": 133.902381,
          "velocity": 0.8582677165354331
        },
        {
          "duration": 0.18292675000000713,
          "durationTicks": 24,
          "midi": 43,
          "name": "G2",
          "ticks": 17568,
          "time": 133.902381,
          "velocity": 0.7480314960629921
        },
        {
          "duration": 0.18292675000000713,
          "durationTicks": 24,
          "midi": 36,
          "name": "C2",
          "ticks": 17664,
          "time": 134.634088,
          "velocity": 0.7480314960629921
        },
        {
          "duration": 0.18292675000000713,
          "durationTicks": 24,
          "midi": 31,
          "name": "G1",
          "ticks": 17664,
          "time": 134.634088,
          "velocity": 0.8188976377952756
        },
        {
          "duration": 0.18292675000000713,
          "durationTicks": 24,
          "midi": 43,
          "name": "G2",
          "ticks": 17760,
          "time": 135.365795,
          "velocity": 0.7480314960629921
        },
        {
          "duration": 0.18292675000000713,
          "durationTicks": 24,
          "midi": 39,
          "name": "D#2",
          "ticks": 17760,
          "time": 135.365795,
          "velocity": 0.8582677165354331
        },
        {
          "duration": 0.1829267499999787,
          "durationTicks": 24,
          "midi": 36,
          "name": "C2",
          "ticks": 17832,
          "time": 135.91457525,
          "velocity": 0.7480314960629921
        },
        {
          "duration": 0.1829267499999787,
          "durationTicks": 24,
          "midi": 31,
          "name": "G1",
          "ticks": 17832,
          "time": 135.91457525,
          "velocity": 0.8188976377952756
        },
        {
          "duration": 0.18292675000000713,
          "durationTicks": 24,
          "midi": 36,
          "name": "C2",
          "ticks": 17856,
          "time": 136.097502,
          "velocity": 0.7480314960629921
        },
        {
          "duration": 0.18292675000000713,
          "durationTicks": 24,
          "midi": 31,
          "name": "G1",
          "ticks": 17856,
          "time": 136.097502,
          "velocity": 0.8188976377952756
        },
        {
          "duration": 0.18292675000000713,
          "durationTicks": 24,
          "midi": 36,
          "name": "C2",
          "ticks": 17904,
          "time": 136.4633555,
          "velocity": 0.7480314960629921
        },
        {
          "duration": 0.18292675000000713,
          "durationTicks": 24,
          "midi": 31,
          "name": "G1",
          "ticks": 17904,
          "time": 136.4633555,
          "velocity": 0.8188976377952756
        },
        {
          "duration": 0.18292675000000713,
          "durationTicks": 24,
          "midi": 54,
          "name": "F#3",
          "ticks": 17952,
          "time": 136.829209,
          "velocity": 0.8582677165354331
        },
        {
          "duration": 0.18292675000000713,
          "durationTicks": 24,
          "midi": 43,
          "name": "G2",
          "ticks": 17952,
          "time": 136.829209,
          "velocity": 0.7480314960629921
        },
        {
          "duration": 0.18292675000000713,
          "durationTicks": 24,
          "midi": 39,
          "name": "D#2",
          "ticks": 17952,
          "time": 136.829209,
          "velocity": 0.8582677165354331
        },
        {
          "duration": 0.18292675000000713,
          "durationTicks": 24,
          "midi": 36,
          "name": "C2",
          "ticks": 18048,
          "time": 137.560916,
          "velocity": 0.7559055118110236
        },
        {
          "duration": 0.18292675000000713,
          "durationTicks": 24,
          "midi": 31,
          "name": "G1",
          "ticks": 18048,
          "time": 137.560916,
          "velocity": 0.8267716535433071
        },
        {
          "duration": 0.18292675000000713,
          "durationTicks": 24,
          "midi": 39,
          "name": "D#2",
          "ticks": 18144,
          "time": 138.292623,
          "velocity": 0.8582677165354331
        },
        {
          "duration": 0.18292675000000713,
          "durationTicks": 24,
          "midi": 43,
          "name": "G2",
          "ticks": 18144,
          "time": 138.292623,
          "velocity": 0.7559055118110236
        },
        {
          "duration": 0.18292675000000713,
          "durationTicks": 24,
          "midi": 36,
          "name": "C2",
          "ticks": 18240,
          "time": 139.02433,
          "velocity": 0.7559055118110236
        },
        {
          "duration": 0.18292675000000713,
          "durationTicks": 24,
          "midi": 31,
          "name": "G1",
          "ticks": 18240,
          "time": 139.02433,
          "velocity": 0.8267716535433071
        },
        {
          "duration": 0.18292675000000713,
          "durationTicks": 24,
          "midi": 36,
          "name": "C2",
          "ticks": 18288,
          "time": 139.3901835,
          "velocity": 0.7559055118110236
        },
        {
          "duration": 0.18292675000000713,
          "durationTicks": 24,
          "midi": 31,
          "name": "G1",
          "ticks": 18288,
          "time": 139.3901835,
          "velocity": 0.8267716535433071
        },
        {
          "duration": 0.18292675000000713,
          "durationTicks": 24,
          "midi": 54,
          "name": "F#3",
          "ticks": 18336,
          "time": 139.756037,
          "velocity": 0.8582677165354331
        },
        {
          "duration": 0.18292675000000713,
          "durationTicks": 24,
          "midi": 43,
          "name": "G2",
          "ticks": 18336,
          "time": 139.756037,
          "velocity": 0.7559055118110236
        },
        {
          "duration": 0.18292675000000713,
          "durationTicks": 24,
          "midi": 39,
          "name": "D#2",
          "ticks": 18336,
          "time": 139.756037,
          "velocity": 0.8582677165354331
        },
        {
          "duration": 0.18292675000000713,
          "durationTicks": 24,
          "midi": 36,
          "name": "C2",
          "ticks": 18432,
          "time": 140.487744,
          "velocity": 0.7559055118110236
        },
        {
          "duration": 0.18292675000000713,
          "durationTicks": 24,
          "midi": 31,
          "name": "G1",
          "ticks": 18432,
          "time": 140.487744,
          "velocity": 0.8267716535433071
        },
        {
          "duration": 0.18292675000000713,
          "durationTicks": 24,
          "midi": 39,
          "name": "D#2",
          "ticks": 18528,
          "time": 141.219451,
          "velocity": 0.8582677165354331
        },
        {
          "duration": 0.18292675000000713,
          "durationTicks": 24,
          "midi": 43,
          "name": "G2",
          "ticks": 18528,
          "time": 141.219451,
          "velocity": 0.7559055118110236
        },
        {
          "duration": 0.18292675000000713,
          "durationTicks": 24,
          "midi": 36,
          "name": "C2",
          "ticks": 18600,
          "time": 141.76823124999999,
          "velocity": 0.7559055118110236
        },
        {
          "duration": 0.18292675000000713,
          "durationTicks": 24,
          "midi": 31,
          "name": "G1",
          "ticks": 18600,
          "time": 141.76823124999999,
          "velocity": 0.8267716535433071
        },
        {
          "duration": 0.18292675000000713,
          "durationTicks": 24,
          "midi": 36,
          "name": "C2",
          "ticks": 18624,
          "time": 141.951158,
          "velocity": 0.7559055118110236
        },
        {
          "duration": 0.18292675000000713,
          "durationTicks": 24,
          "midi": 31,
          "name": "G1",
          "ticks": 18624,
          "time": 141.951158,
          "velocity": 0.8267716535433071
        },
        {
          "duration": 0.1829267499999787,
          "durationTicks": 24,
          "midi": 36,
          "name": "C2",
          "ticks": 18672,
          "time": 142.3170115,
          "velocity": 0.7559055118110236
        },
        {
          "duration": 0.1829267499999787,
          "durationTicks": 24,
          "midi": 31,
          "name": "G1",
          "ticks": 18672,
          "time": 142.3170115,
          "velocity": 0.8267716535433071
        },
        {
          "duration": 0.18292675000000713,
          "durationTicks": 24,
          "midi": 54,
          "name": "F#3",
          "ticks": 18720,
          "time": 142.682865,
          "velocity": 0.8582677165354331
        },
        {
          "duration": 0.18292675000000713,
          "durationTicks": 24,
          "midi": 39,
          "name": "D#2",
          "ticks": 18720,
          "time": 142.682865,
          "velocity": 0.8582677165354331
        },
        {
          "duration": 0.18292675000000713,
          "durationTicks": 24,
          "midi": 43,
          "name": "G2",
          "ticks": 18720,
          "time": 142.682865,
          "velocity": 0.7559055118110236
        },
        {
          "duration": 0.18292675000000713,
          "durationTicks": 24,
          "midi": 31,
          "name": "G1",
          "ticks": 18816,
          "time": 143.414572,
          "velocity": 0.8188976377952756
        },
        {
          "duration": 0.18292675000000713,
          "durationTicks": 24,
          "midi": 36,
          "name": "C2",
          "ticks": 18816,
          "time": 143.414572,
          "velocity": 0.7480314960629921
        },
        {
          "duration": 0.18292675000000713,
          "durationTicks": 24,
          "midi": 57,
          "name": "A3",
          "ticks": 18816,
          "time": 143.414572,
          "velocity": 0.7480314960629921
        },
        {
          "duration": 0.18292675000000713,
          "durationTicks": 24,
          "midi": 39,
          "name": "D#2",
          "ticks": 18912,
          "time": 144.146279,
          "velocity": 0.8582677165354331
        },
        {
          "duration": 0.18292675000000713,
          "durationTicks": 24,
          "midi": 43,
          "name": "G2",
          "ticks": 18912,
          "time": 144.146279,
          "velocity": 0.7480314960629921
        },
        {
          "duration": 0.18292675000000713,
          "durationTicks": 24,
          "midi": 31,
          "name": "G1",
          "ticks": 19008,
          "time": 144.877986,
          "velocity": 0.8188976377952756
        },
        {
          "duration": 0.18292675000000713,
          "durationTicks": 24,
          "midi": 36,
          "name": "C2",
          "ticks": 19008,
          "time": 144.877986,
          "velocity": 0.7480314960629921
        },
        {
          "duration": 0.1829267499999787,
          "durationTicks": 24,
          "midi": 31,
          "name": "G1",
          "ticks": 19056,
          "time": 145.2438395,
          "velocity": 0.8188976377952756
        },
        {
          "duration": 0.1829267499999787,
          "durationTicks": 24,
          "midi": 36,
          "name": "C2",
          "ticks": 19056,
          "time": 145.2438395,
          "velocity": 0.7480314960629921
        },
        {
          "duration": 0.18292675000000713,
          "durationTicks": 24,
          "midi": 39,
          "name": "D#2",
          "ticks": 19104,
          "time": 145.609693,
          "velocity": 0.8582677165354331
        },
        {
          "duration": 0.18292675000000713,
          "durationTicks": 24,
          "midi": 43,
          "name": "G2",
          "ticks": 19104,
          "time": 145.609693,
          "velocity": 0.7480314960629921
        },
        {
          "duration": 0.18292675000000713,
          "durationTicks": 24,
          "midi": 54,
          "name": "F#3",
          "ticks": 19104,
          "time": 145.609693,
          "velocity": 0.8582677165354331
        },
        {
          "duration": 0.18292675000000713,
          "durationTicks": 24,
          "midi": 31,
          "name": "G1",
          "ticks": 19200,
          "time": 146.3414,
          "velocity": 0.8188976377952756
        },
        {
          "duration": 0.18292675000000713,
          "durationTicks": 24,
          "midi": 36,
          "name": "C2",
          "ticks": 19200,
          "time": 146.3414,
          "velocity": 0.7480314960629921
        },
        {
          "duration": 0.18292675000000713,
          "durationTicks": 24,
          "midi": 39,
          "name": "D#2",
          "ticks": 19296,
          "time": 147.073107,
          "velocity": 0.8582677165354331
        },
        {
          "duration": 0.18292675000000713,
          "durationTicks": 24,
          "midi": 43,
          "name": "G2",
          "ticks": 19296,
          "time": 147.073107,
          "velocity": 0.7480314960629921
        },
        {
          "duration": 0.18292675000000713,
          "durationTicks": 24,
          "midi": 31,
          "name": "G1",
          "ticks": 19368,
          "time": 147.62188725,
          "velocity": 0.8188976377952756
        },
        {
          "duration": 0.18292675000000713,
          "durationTicks": 24,
          "midi": 36,
          "name": "C2",
          "ticks": 19368,
          "time": 147.62188725,
          "velocity": 0.7480314960629921
        },
        {
          "duration": 0.18292675000000713,
          "durationTicks": 24,
          "midi": 31,
          "name": "G1",
          "ticks": 19392,
          "time": 147.804814,
          "velocity": 0.8188976377952756
        },
        {
          "duration": 0.18292675000000713,
          "durationTicks": 24,
          "midi": 36,
          "name": "C2",
          "ticks": 19392,
          "time": 147.804814,
          "velocity": 0.7480314960629921
        },
        {
          "duration": 0.1829267499999787,
          "durationTicks": 24,
          "midi": 31,
          "name": "G1",
          "ticks": 19440,
          "time": 148.1706675,
          "velocity": 0.8188976377952756
        },
        {
          "duration": 0.1829267499999787,
          "durationTicks": 24,
          "midi": 36,
          "name": "C2",
          "ticks": 19440,
          "time": 148.1706675,
          "velocity": 0.7480314960629921
        },
        {
          "duration": 0.18292675000000713,
          "durationTicks": 24,
          "midi": 39,
          "name": "D#2",
          "ticks": 19488,
          "time": 148.536521,
          "velocity": 0.8582677165354331
        },
        {
          "duration": 0.18292675000000713,
          "durationTicks": 24,
          "midi": 43,
          "name": "G2",
          "ticks": 19488,
          "time": 148.536521,
          "velocity": 0.7480314960629921
        },
        {
          "duration": 0.18292675000000713,
          "durationTicks": 24,
          "midi": 54,
          "name": "F#3",
          "ticks": 19488,
          "time": 148.536521,
          "velocity": 0.8582677165354331
        },
        {
          "duration": 0.18292675000000713,
          "durationTicks": 24,
          "midi": 31,
          "name": "G1",
          "ticks": 19584,
          "time": 149.268228,
          "velocity": 0.8267716535433071
        },
        {
          "duration": 0.18292675000000713,
          "durationTicks": 24,
          "midi": 36,
          "name": "C2",
          "ticks": 19584,
          "time": 149.268228,
          "velocity": 0.7559055118110236
        },
        {
          "duration": 0.18292675000000713,
          "durationTicks": 24,
          "midi": 43,
          "name": "G2",
          "ticks": 19680,
          "time": 149.999935,
          "velocity": 0.7559055118110236
        },
        {
          "duration": 0.18292675000000713,
          "durationTicks": 24,
          "midi": 39,
          "name": "D#2",
          "ticks": 19680,
          "time": 149.999935,
          "velocity": 0.8582677165354331
        },
        {
          "duration": 0.18292675000000713,
          "durationTicks": 24,
          "midi": 31,
          "name": "G1",
          "ticks": 19776,
          "time": 150.731642,
          "velocity": 0.8267716535433071
        },
        {
          "duration": 0.18292675000000713,
          "durationTicks": 24,
          "midi": 36,
          "name": "C2",
          "ticks": 19776,
          "time": 150.731642,
          "velocity": 0.7559055118110236
        },
        {
          "duration": 0.1829267499999787,
          "durationTicks": 24,
          "midi": 31,
          "name": "G1",
          "ticks": 19824,
          "time": 151.0974955,
          "velocity": 0.8267716535433071
        },
        {
          "duration": 0.1829267499999787,
          "durationTicks": 24,
          "midi": 36,
          "name": "C2",
          "ticks": 19824,
          "time": 151.0974955,
          "velocity": 0.7559055118110236
        },
        {
          "duration": 0.18292675000000713,
          "durationTicks": 24,
          "midi": 39,
          "name": "D#2",
          "ticks": 19872,
          "time": 151.463349,
          "velocity": 0.8582677165354331
        },
        {
          "duration": 0.18292675000000713,
          "durationTicks": 24,
          "midi": 43,
          "name": "G2",
          "ticks": 19872,
          "time": 151.463349,
          "velocity": 0.7559055118110236
        },
        {
          "duration": 0.18292675000000713,
          "durationTicks": 24,
          "midi": 54,
          "name": "F#3",
          "ticks": 19872,
          "time": 151.463349,
          "velocity": 0.8582677165354331
        },
        {
          "duration": 0.18292675000000713,
          "durationTicks": 24,
          "midi": 31,
          "name": "G1",
          "ticks": 19968,
          "time": 152.195056,
          "velocity": 0.8267716535433071
        },
        {
          "duration": 0.18292675000000713,
          "durationTicks": 24,
          "midi": 36,
          "name": "C2",
          "ticks": 19968,
          "time": 152.195056,
          "velocity": 0.7559055118110236
        },
        {
          "duration": 0.18292675000000713,
          "durationTicks": 24,
          "midi": 39,
          "name": "D#2",
          "ticks": 20064,
          "time": 152.926763,
          "velocity": 0.8582677165354331
        },
        {
          "duration": 0.18292675000000713,
          "durationTicks": 24,
          "midi": 43,
          "name": "G2",
          "ticks": 20064,
          "time": 152.926763,
          "velocity": 0.7559055118110236
        },
        {
          "duration": 0.18292675000000713,
          "durationTicks": 24,
          "midi": 31,
          "name": "G1",
          "ticks": 20136,
          "time": 153.47554325,
          "velocity": 0.8267716535433071
        },
        {
          "duration": 0.18292675000000713,
          "durationTicks": 24,
          "midi": 36,
          "name": "C2",
          "ticks": 20136,
          "time": 153.47554325,
          "velocity": 0.7559055118110236
        },
        {
          "duration": 0.18292675000000713,
          "durationTicks": 24,
          "midi": 31,
          "name": "G1",
          "ticks": 20160,
          "time": 153.65847,
          "velocity": 0.8267716535433071
        },
        {
          "duration": 0.04573168749999468,
          "durationTicks": 6,
          "midi": 49,
          "name": "C#3",
          "ticks": 20160,
          "time": 153.65847,
          "velocity": 0.12598425196850394
        },
        {
          "duration": 0.18292675000000713,
          "durationTicks": 24,
          "midi": 36,
          "name": "C2",
          "ticks": 20160,
          "time": 153.65847,
          "velocity": 0.7559055118110236
        },
        {
          "duration": 0.0457316875000231,
          "durationTicks": 6,
          "midi": 49,
          "name": "C#3",
          "ticks": 20166,
          "time": 153.7042016875,
          "velocity": 0.14960629921259844
        },
        {
          "duration": 0.04573168749999468,
          "durationTicks": 6,
          "midi": 49,
          "name": "C#3",
          "ticks": 20172,
          "time": 153.749933375,
          "velocity": 0.1732283464566929
        },
        {
          "duration": 0.04573168749999468,
          "durationTicks": 6,
          "midi": 49,
          "name": "C#3",
          "ticks": 20178,
          "time": 153.7956650625,
          "velocity": 0.1968503937007874
        },
        {
          "duration": 0.04573168749999468,
          "durationTicks": 6,
          "midi": 49,
          "name": "C#3",
          "ticks": 20184,
          "time": 153.84139675,
          "velocity": 0.2125984251968504
        },
        {
          "duration": 0.04573168749999468,
          "durationTicks": 6,
          "midi": 49,
          "name": "C#3",
          "ticks": 20190,
          "time": 153.8871284375,
          "velocity": 0.23622047244094488
        },
        {
          "duration": 0.04573168749999468,
          "durationTicks": 6,
          "midi": 49,
          "name": "C#3",
          "ticks": 20196,
          "time": 153.932860125,
          "velocity": 0.25984251968503935
        },
        {
          "duration": 0.0457316875000231,
          "durationTicks": 6,
          "midi": 49,
          "name": "C#3",
          "ticks": 20202,
          "time": 153.97859181249999,
          "velocity": 0.28346456692913385
        },
        {
          "duration": 0.1829267499999787,
          "durationTicks": 24,
          "midi": 31,
          "name": "G1",
          "ticks": 20208,
          "time": 154.0243235,
          "velocity": 0.8267716535433071
        },
        {
          "duration": 0.1829267499999787,
          "durationTicks": 24,
          "midi": 36,
          "name": "C2",
          "ticks": 20208,
          "time": 154.0243235,
          "velocity": 0.7559055118110236
        },
        {
          "duration": 0.04573168749999468,
          "durationTicks": 6,
          "midi": 49,
          "name": "C#3",
          "ticks": 20208,
          "time": 154.0243235,
          "velocity": 0.2992125984251969
        },
        {
          "duration": 0.04573168749999468,
          "durationTicks": 6,
          "midi": 49,
          "name": "C#3",
          "ticks": 20214,
          "time": 154.0700551875,
          "velocity": 0.3228346456692913
        },
        {
          "duration": 0.04573168749999468,
          "durationTicks": 6,
          "midi": 49,
          "name": "C#3",
          "ticks": 20220,
          "time": 154.115786875,
          "velocity": 0.3464566929133858
        },
        {
          "duration": 0.04573168749999468,
          "durationTicks": 6,
          "midi": 49,
          "name": "C#3",
          "ticks": 20226,
          "time": 154.1615185625,
          "velocity": 0.3700787401574803
        },
        {
          "duration": 0.0457316875000231,
          "durationTicks": 6,
          "midi": 49,
          "name": "C#3",
          "ticks": 20232,
          "time": 154.20725025,
          "velocity": 0.3858267716535433
        },
        {
          "duration": 0.04573168749999468,
          "durationTicks": 6,
          "midi": 49,
          "name": "C#3",
          "ticks": 20238,
          "time": 154.2529819375,
          "velocity": 0.4094488188976378
        },
        {
          "duration": 0.04573168749999468,
          "durationTicks": 6,
          "midi": 49,
          "name": "C#3",
          "ticks": 20244,
          "time": 154.298713625,
          "velocity": 0.4330708661417323
        },
        {
          "duration": 0.04573168749999468,
          "durationTicks": 6,
          "midi": 49,
          "name": "C#3",
          "ticks": 20250,
          "time": 154.3444453125,
          "velocity": 0.4566929133858268
        },
        {
          "duration": 0.18292675000000713,
          "durationTicks": 24,
          "midi": 84,
          "name": "C6",
          "ticks": 20256,
          "time": 154.390177,
          "velocity": 0.7559055118110236
        },
        {
          "duration": 0.18292675000000713,
          "durationTicks": 24,
          "midi": 43,
          "name": "G2",
          "ticks": 20256,
          "time": 154.390177,
          "velocity": 0.7559055118110236
        },
        {
          "duration": 0.18292675000000713,
          "durationTicks": 24,
          "midi": 39,
          "name": "D#2",
          "ticks": 20256,
          "time": 154.390177,
          "velocity": 0.8582677165354331
        },
        {
          "duration": 0.18292675000000713,
          "durationTicks": 24,
          "midi": 54,
          "name": "F#3",
          "ticks": 20256,
          "time": 154.390177,
          "velocity": 0.8582677165354331
        },
        {
          "duration": 0.04573168749999468,
          "durationTicks": 6,
          "midi": 49,
          "name": "C#3",
          "ticks": 20256,
          "time": 154.390177,
          "velocity": 0.48031496062992124
        },
        {
          "duration": 0.0457316875000231,
          "durationTicks": 6,
          "midi": 49,
          "name": "C#3",
          "ticks": 20262,
          "time": 154.4359086875,
          "velocity": 0.49606299212598426
        },
        {
          "duration": 0.04573168749999468,
          "durationTicks": 6,
          "midi": 49,
          "name": "C#3",
          "ticks": 20268,
          "time": 154.481640375,
          "velocity": 0.5196850393700787
        },
        {
          "duration": 0.04573168749999468,
          "durationTicks": 6,
          "midi": 49,
          "name": "C#3",
          "ticks": 20274,
          "time": 154.5273720625,
          "velocity": 0.5433070866141733
        },
        {
          "duration": 0.04573168749999468,
          "durationTicks": 6,
          "midi": 49,
          "name": "C#3",
          "ticks": 20280,
          "time": 154.57310375,
          "velocity": 0.5669291338582677
        },
        {
          "duration": 0.04573168749999468,
          "durationTicks": 6,
          "midi": 49,
          "name": "C#3",
          "ticks": 20286,
          "time": 154.6188354375,
          "velocity": 0.5826771653543307
        },
        {
          "duration": 0.04573168749999468,
          "durationTicks": 6,
          "midi": 49,
          "name": "C#3",
          "ticks": 20292,
          "time": 154.664567125,
          "velocity": 0.6062992125984252
        },
        {
          "duration": 0.0457316875000231,
          "durationTicks": 6,
          "midi": 49,
          "name": "C#3",
          "ticks": 20298,
          "time": 154.71029881249999,
          "velocity": 0.6299212598425197
        },
        {
          "duration": 0.04573168749999468,
          "durationTicks": 6,
          "midi": 49,
          "name": "C#3",
          "ticks": 20304,
          "time": 154.7560305,
          "velocity": 0.6535433070866141
        },
        {
          "duration": 0.04573168749999468,
          "durationTicks": 6,
          "midi": 49,
          "name": "C#3",
          "ticks": 20310,
          "time": 154.8017621875,
          "velocity": 0.6692913385826772
        },
        {
          "duration": 0.04573168749999468,
          "durationTicks": 6,
          "midi": 49,
          "name": "C#3",
          "ticks": 20316,
          "time": 154.847493875,
          "velocity": 0.6929133858267716
        },
        {
          "duration": 0.04573168749999468,
          "durationTicks": 6,
          "midi": 49,
          "name": "C#3",
          "ticks": 20322,
          "time": 154.8932255625,
          "velocity": 0.7165354330708661
        },
        {
          "duration": 0.0457316875000231,
          "durationTicks": 6,
          "midi": 49,
          "name": "C#3",
          "ticks": 20328,
          "time": 154.93895725,
          "velocity": 0.7401574803149606
        },
        {
          "duration": 0.04573168749999468,
          "durationTicks": 6,
          "midi": 49,
          "name": "C#3",
          "ticks": 20334,
          "time": 154.9846889375,
          "velocity": 0.7637795275590551
        },
        {
          "duration": 0.04573168749999468,
          "durationTicks": 6,
          "midi": 49,
          "name": "C#3",
          "ticks": 20340,
          "time": 155.030420625,
          "velocity": 0.7795275590551181
        },
        {
          "duration": 0.04573168749999468,
          "durationTicks": 6,
          "midi": 49,
          "name": "C#3",
          "ticks": 20346,
          "time": 155.0761523125,
          "velocity": 0.8031496062992126
        }
      ]
    },
    {
      "channel": 9,
      "controlChanges": {
        "6": [
          {
            "number": 6,
            "ticks": 22752,
            "time": 173.414559,
            "value": 0.09448818897637795
          },
          {
            "number": 6,
            "ticks": 22753,
            "time": 173.42218094791667,
            "value": 0.09448818897637795
          },
          {
            "number": 6,
            "ticks": 22753,
            "time": 173.42218094791667,
            "value": 0.09448818897637795
          }
        ],
        "7": [
          {
            "number": 7,
            "ticks": 22752,
            "time": 173.414559,
            "value": 0.7874015748031497
          },
          {
            "number": 7,
            "ticks": 22753,
            "time": 173.42218094791667,
            "value": 0.7874015748031497
          },
          {
            "number": 7,
            "ticks": 22753,
            "time": 173.42218094791667,
            "value": 0.7874015748031497
          }
        ],
        "10": [
          {
            "number": 10,
            "ticks": 22752,
            "time": 173.414559,
            "value": 0.5039370078740157
          },
          {
            "number": 10,
            "ticks": 22753,
            "time": 173.42218094791667,
            "value": 0.5039370078740157
          },
          {
            "number": 10,
            "ticks": 22753,
            "time": 173.42218094791667,
            "value": 0.5039370078740157
          }
        ],
        "91": [
          {
            "number": 91,
            "ticks": 22752,
            "time": 173.414559,
            "value": 0.5039370078740157
          },
          {
            "number": 91,
            "ticks": 22753,
            "time": 173.42218094791667,
            "value": 0.5039370078740157
          },
          {
            "number": 91,
            "ticks": 22753,
            "time": 173.42218094791667,
            "value": 0.5039370078740157
          }
        ],
        "100": [
          {
            "number": 100,
            "ticks": 22752,
            "time": 173.414559,
            "value": 0
          },
          {
            "number": 100,
            "ticks": 22753,
            "time": 173.42218094791667,
            "value": 0
          },
          {
            "number": 100,
            "ticks": 22753,
            "time": 173.42218094791667,
            "value": 0
          }
        ],
        "101": [
          {
            "number": 101,
            "ticks": 22752,
            "time": 173.414559,
            "value": 0
          },
          {
            "number": 101,
            "ticks": 22753,
            "time": 173.42218094791667,
            "value": 0
          },
          {
            "number": 101,
            "ticks": 22753,
            "time": 173.42218094791667,
            "value": 0
          }
        ]
      },
      "pitchBends": [
        {
          "ticks": 22752,
          "time": 173.414559,
          "value": 0
        },
        {
          "ticks": 22753,
          "time": 173.42218094791667,
          "value": 0
        },
        {
          "ticks": 22753,
          "time": 173.42218094791667,
          "value": 0
        }
      ],
      "instrument": {
        "family": "drums",
        "number": 1
      },
      "name": "",
      "notes": [
        {
          "duration": 0.18292675000000713,
          "durationTicks": 24,
          "midi": 36,
          "name": "C2",
          "ticks": 20352,
          "time": 155.121884,
          "velocity": 0.7559055118110236
        },
        {
          "duration": 0.18292675000000713,
          "durationTicks": 24,
          "midi": 49,
          "name": "C#3",
          "ticks": 20352,
          "time": 155.121884,
          "velocity": 0.8267716535433071
        },
        {
          "duration": 0.18292675000000713,
          "durationTicks": 24,
          "midi": 26,
          "name": "D1",
          "ticks": 20448,
          "time": 155.853591,
          "velocity": 0.7559055118110236
        },
        {
          "duration": 0.18292675000000713,
          "durationTicks": 24,
          "midi": 85,
          "name": "C#6",
          "ticks": 20448,
          "time": 155.853591,
          "velocity": 0.7559055118110236
        },
        {
          "duration": 0.1829267499999787,
          "durationTicks": 24,
          "midi": 36,
          "name": "C2",
          "ticks": 20496,
          "time": 156.2194445,
          "velocity": 0.7559055118110236
        },
        {
          "duration": 0.18292675000000713,
          "durationTicks": 24,
          "midi": 36,
          "name": "C2",
          "ticks": 20544,
          "time": 156.585298,
          "velocity": 0.7559055118110236
        },
        {
          "duration": 0.18292675000000713,
          "durationTicks": 24,
          "midi": 85,
          "name": "C#6",
          "ticks": 20640,
          "time": 157.317005,
          "velocity": 0.7559055118110236
        },
        {
          "duration": 0.18292675000000713,
          "durationTicks": 24,
          "midi": 26,
          "name": "D1",
          "ticks": 20640,
          "time": 157.317005,
          "velocity": 0.7559055118110236
        },
        {
          "duration": 0.18292675000000713,
          "durationTicks": 24,
          "midi": 36,
          "name": "C2",
          "ticks": 20736,
          "time": 158.048712,
          "velocity": 0.7559055118110236
        },
        {
          "duration": 0.18292675000000713,
          "durationTicks": 24,
          "midi": 26,
          "name": "D1",
          "ticks": 20832,
          "time": 158.780419,
          "velocity": 0.7559055118110236
        },
        {
          "duration": 0.18292675000000713,
          "durationTicks": 24,
          "midi": 85,
          "name": "C#6",
          "ticks": 20832,
          "time": 158.780419,
          "velocity": 0.7559055118110236
        },
        {
          "duration": 0.1829267499999787,
          "durationTicks": 24,
          "midi": 36,
          "name": "C2",
          "ticks": 20880,
          "time": 159.1462725,
          "velocity": 0.7559055118110236
        },
        {
          "duration": 0.18292675000000713,
          "durationTicks": 24,
          "midi": 36,
          "name": "C2",
          "ticks": 20928,
          "time": 159.512126,
          "velocity": 0.7559055118110236
        },
        {
          "duration": 0.18292675000000713,
          "durationTicks": 24,
          "midi": 85,
          "name": "C#6",
          "ticks": 21024,
          "time": 160.243833,
          "velocity": 0.7559055118110236
        },
        {
          "duration": 0.18292675000000713,
          "durationTicks": 24,
          "midi": 26,
          "name": "D1",
          "ticks": 21024,
          "time": 160.243833,
          "velocity": 0.7559055118110236
        },
        {
          "duration": 0.18292675000000713,
          "durationTicks": 24,
          "midi": 36,
          "name": "C2",
          "ticks": 21120,
          "time": 160.97554,
          "velocity": 0.7559055118110236
        },
        {
          "duration": 0.18292675000000713,
          "durationTicks": 24,
          "midi": 26,
          "name": "D1",
          "ticks": 21216,
          "time": 161.707247,
          "velocity": 0.7559055118110236
        },
        {
          "duration": 0.18292675000000713,
          "durationTicks": 24,
          "midi": 85,
          "name": "C#6",
          "ticks": 21216,
          "time": 161.707247,
          "velocity": 0.7559055118110236
        },
        {
          "duration": 0.1829267499999787,
          "durationTicks": 24,
          "midi": 36,
          "name": "C2",
          "ticks": 21264,
          "time": 162.0731005,
          "velocity": 0.7559055118110236
        },
        {
          "duration": 0.18292675000000713,
          "durationTicks": 24,
          "midi": 36,
          "name": "C2",
          "ticks": 21312,
          "time": 162.438954,
          "velocity": 0.7559055118110236
        },
        {
          "duration": 0.18292675000000713,
          "durationTicks": 24,
          "midi": 85,
          "name": "C#6",
          "ticks": 21408,
          "time": 163.170661,
          "velocity": 0.7559055118110236
        },
        {
          "duration": 0.18292675000000713,
          "durationTicks": 24,
          "midi": 26,
          "name": "D1",
          "ticks": 21408,
          "time": 163.170661,
          "velocity": 0.7559055118110236
        },
        {
          "duration": 0.18292675000000713,
          "durationTicks": 24,
          "midi": 36,
          "name": "C2",
          "ticks": 21504,
          "time": 163.902368,
          "velocity": 0.7559055118110236
        },
        {
          "duration": 0.18292675000000713,
          "durationTicks": 24,
          "midi": 26,
          "name": "D1",
          "ticks": 21600,
          "time": 164.634075,
          "velocity": 0.7559055118110236
        },
        {
          "duration": 0.18292675000000713,
          "durationTicks": 24,
          "midi": 85,
          "name": "C#6",
          "ticks": 21600,
          "time": 164.634075,
          "velocity": 0.7559055118110236
        },
        {
          "duration": 0.1829267499999787,
          "durationTicks": 24,
          "midi": 36,
          "name": "C2",
          "ticks": 21648,
          "time": 164.9999285,
          "velocity": 0.7559055118110236
        },
        {
          "duration": 0.18292675000000713,
          "durationTicks": 24,
          "midi": 36,
          "name": "C2",
          "ticks": 21696,
          "time": 165.365782,
          "velocity": 0.7559055118110236
        },
        {
          "duration": 0.04573168749999468,
          "durationTicks": 6,
          "midi": 49,
          "name": "C#3",
          "ticks": 21696,
          "time": 165.365782,
          "velocity": 0.06299212598425197
        },
        {
          "duration": 0.04573168749999468,
          "durationTicks": 6,
          "midi": 49,
          "name": "C#3",
          "ticks": 21702,
          "time": 165.4115136875,
          "velocity": 0.08661417322834646
        },
        {
          "duration": 0.0457316875000231,
          "durationTicks": 6,
          "midi": 49,
          "name": "C#3",
          "ticks": 21708,
          "time": 165.45724537499999,
          "velocity": 0.11023622047244094
        },
        {
          "duration": 0.04573168749999468,
          "durationTicks": 6,
          "midi": 49,
          "name": "C#3",
          "ticks": 21714,
          "time": 165.5029770625,
          "velocity": 0.14173228346456693
        },
        {
          "duration": 0.04573168749999468,
          "durationTicks": 6,
          "midi": 49,
          "name": "C#3",
          "ticks": 21720,
          "time": 165.54870875,
          "velocity": 0.16535433070866143
        },
        {
          "duration": 0.04573168749999468,
          "durationTicks": 6,
          "midi": 49,
          "name": "C#3",
          "ticks": 21726,
          "time": 165.5944404375,
          "velocity": 0.1889763779527559
        },
        {
          "duration": 0.04573168749999468,
          "durationTicks": 6,
          "midi": 49,
          "name": "C#3",
          "ticks": 21732,
          "time": 165.640172125,
          "velocity": 0.2204724409448819
        },
        {
          "duration": 0.0457316875000231,
          "durationTicks": 6,
          "midi": 49,
          "name": "C#3",
          "ticks": 21738,
          "time": 165.6859038125,
          "velocity": 0.2440944881889764
        },
        {
          "duration": 0.04573168749999468,
          "durationTicks": 6,
          "midi": 49,
          "name": "C#3",
          "ticks": 21744,
          "time": 165.7316355,
          "velocity": 0.2677165354330709
        },
        {
          "duration": 0.04573168749999468,
          "durationTicks": 6,
          "midi": 49,
          "name": "C#3",
          "ticks": 21750,
          "time": 165.7773671875,
          "velocity": 0.2992125984251969
        },
        {
          "duration": 0.04573168749999468,
          "durationTicks": 6,
          "midi": 49,
          "name": "C#3",
          "ticks": 21756,
          "time": 165.823098875,
          "velocity": 0.3228346456692913
        },
        {
          "duration": 0.04573168749999468,
          "durationTicks": 6,
          "midi": 49,
          "name": "C#3",
          "ticks": 21762,
          "time": 165.8688305625,
          "velocity": 0.3464566929133858
        },
        {
          "duration": 0.0457316875000231,
          "durationTicks": 6,
          "midi": 49,
          "name": "C#3",
          "ticks": 21768,
          "time": 165.91456225,
          "velocity": 0.3779527559055118
        },
        {
          "duration": 0.04573168749999468,
          "durationTicks": 6,
          "midi": 49,
          "name": "C#3",
          "ticks": 21774,
          "time": 165.9602939375,
          "velocity": 0.4015748031496063
        },
        {
          "duration": 0.04573168749999468,
          "durationTicks": 6,
          "midi": 49,
          "name": "C#3",
          "ticks": 21780,
          "time": 166.006025625,
          "velocity": 0.4251968503937008
        },
        {
          "duration": 0.04573168749999468,
          "durationTicks": 6,
          "midi": 49,
          "name": "C#3",
          "ticks": 21786,
          "time": 166.0517573125,
          "velocity": 0.44881889763779526
        },
        {
          "duration": 0.18292675000000713,
          "durationTicks": 24,
          "midi": 85,
          "name": "C#6",
          "ticks": 21792,
          "time": 166.097489,
          "velocity": 0.7559055118110236
        },
        {
          "duration": 0.18292675000000713,
          "durationTicks": 24,
          "midi": 26,
          "name": "D1",
          "ticks": 21792,
          "time": 166.097489,
          "velocity": 0.7559055118110236
        },
        {
          "duration": 0.04573168749999468,
          "durationTicks": 6,
          "midi": 49,
          "name": "C#3",
          "ticks": 21792,
          "time": 166.097489,
          "velocity": 0.48031496062992124
        },
        {
          "duration": 0.18292675000000713,
          "durationTicks": 24,
          "midi": 84,
          "name": "C6",
          "ticks": 21792,
          "time": 166.097489,
          "velocity": 0.7559055118110236
        },
        {
          "duration": 0.04573168749999468,
          "durationTicks": 6,
          "midi": 49,
          "name": "C#3",
          "ticks": 21798,
          "time": 166.1432206875,
          "velocity": 0.5039370078740157
        },
        {
          "duration": 0.0457316875000231,
          "durationTicks": 6,
          "midi": 49,
          "name": "C#3",
          "ticks": 21804,
          "time": 166.18895237499999,
          "velocity": 0.5275590551181102
        },
        {
          "duration": 0.04573168749999468,
          "durationTicks": 6,
          "midi": 49,
          "name": "C#3",
          "ticks": 21810,
          "time": 166.2346840625,
          "velocity": 0.5590551181102362
        },
        {
          "duration": 0.04573168749999468,
          "durationTicks": 6,
          "midi": 49,
          "name": "C#3",
          "ticks": 21816,
          "time": 166.28041575,
          "velocity": 0.5826771653543307
        },
        {
          "duration": 0.04573168749999468,
          "durationTicks": 6,
          "midi": 49,
          "name": "C#3",
          "ticks": 21822,
          "time": 166.3261474375,
          "velocity": 0.6062992125984252
        },
        {
          "duration": 0.04573168749999468,
          "durationTicks": 6,
          "midi": 49,
          "name": "C#3",
          "ticks": 21828,
          "time": 166.371879125,
          "velocity": 0.6377952755905512
        },
        {
          "duration": 0.0457316875000231,
          "durationTicks": 6,
          "midi": 49,
          "name": "C#3",
          "ticks": 21834,
          "time": 166.4176108125,
          "velocity": 0.6614173228346457
        },
        {
          "duration": 0.04573168749999468,
          "durationTicks": 6,
          "midi": 49,
          "name": "C#3",
          "ticks": 21840,
          "time": 166.4633425,
          "velocity": 0.6850393700787402
        },
        {
          "duration": 0.04573168749999468,
          "durationTicks": 6,
          "midi": 49,
          "name": "C#3",
          "ticks": 21846,
          "time": 166.5090741875,
          "velocity": 0.7165354330708661
        },
        {
          "duration": 0.04573168749999468,
          "durationTicks": 6,
          "midi": 49,
          "name": "C#3",
          "ticks": 21852,
          "time": 166.554805875,
          "velocity": 0.7401574803149606
        },
        {
          "duration": 0.04573168749999468,
          "durationTicks": 6,
          "midi": 49,
          "name": "C#3",
          "ticks": 21858,
          "time": 166.6005375625,
          "velocity": 0.7637795275590551
        },
        {
          "duration": 0.0457316875000231,
          "durationTicks": 6,
          "midi": 49,
          "name": "C#3",
          "ticks": 21864,
          "time": 166.64626925,
          "velocity": 0.7874015748031497
        },
        {
          "duration": 0.04573168749999468,
          "durationTicks": 6,
          "midi": 49,
          "name": "C#3",
          "ticks": 21870,
          "time": 166.6920009375,
          "velocity": 0.8188976377952756
        },
        {
          "duration": 0.04573168749999468,
          "durationTicks": 6,
          "midi": 49,
          "name": "C#3",
          "ticks": 21876,
          "time": 166.737732625,
          "velocity": 0.84251968503937
        },
        {
          "duration": 0.04573168749999468,
          "durationTicks": 6,
          "midi": 49,
          "name": "C#3",
          "ticks": 21882,
          "time": 166.7834643125,
          "velocity": 0.8661417322834646
        },
        {
          "duration": 0.18292675000000713,
          "durationTicks": 24,
          "midi": 36,
          "name": "C2",
          "ticks": 21888,
          "time": 166.829196,
          "velocity": 0.7559055118110236
        },
        {
          "duration": 0.18292675000000713,
          "durationTicks": 24,
          "midi": 49,
          "name": "C#3",
          "ticks": 21888,
          "time": 166.829196,
          "velocity": 0.8818897637795275
        },
        {
          "duration": 0.18292675000000713,
          "durationTicks": 24,
          "midi": 84,
          "name": "C6",
          "ticks": 21888,
          "time": 166.829196,
          "velocity": 0.7559055118110236
        }
      ]
    },
    {
      "channel": 0,
      "controlChanges": {
        "6": [
          {
            "number": 6,
            "ticks": 0,
            "time": 0,
            "value": 0.09448818897637795
          }
        ],
        "7": [
          {
            "number": 7,
            "ticks": 0,
            "time": 0,
            "value": 0.7874015748031497
          },
          {
            "number": 7,
            "ticks": 0,
            "time": 0,
            "value": 0.7874015748031497
          }
        ],
        "10": [
          {
            "number": 10,
            "ticks": 0,
            "time": 0,
            "value": 0.5039370078740157
          },
          {
            "number": 10,
            "ticks": 0,
            "time": 0,
            "value": 0.5039370078740157
          }
        ],
        "100": [
          {
            "number": 100,
            "ticks": 0,
            "time": 0,
            "value": 0
          }
        ],
        "101": [
          {
            "number": 101,
            "ticks": 0,
            "time": 0,
            "value": 0
          }
        ]
      },
      "pitchBends": [
        {
          "ticks": 0,
          "time": 0,
          "value": 0
        },
        {
          "ticks": 0,
          "time": 0,
          "value": 0
        }
      ],
      "instrument": {
        "family": "piano",
        "name": "acoustic grand piano",
        "number": 0
      },
      "name": "Drums",
      "notes": []
    },
    {
      "channel": 10,
      "controlChanges": {
        "6": [
          {
            "number": 6,
            "ticks": 0,
            "time": 0,
            "value": 0.09448818897637795
          },
          {
            "number": 6,
            "ticks": 22752,
            "time": 173.414559,
            "value": 0.09448818897637795
          },
          {
            "number": 6,
            "ticks": 22753,
            "time": 173.42218094791667,
            "value": 0.09448818897637795
          },
          {
            "number": 6,
            "ticks": 22753,
            "time": 173.42218094791667,
            "value": 0.09448818897637795
          }
        ],
        "7": [
          {
            "number": 7,
            "ticks": 0,
            "time": 0,
            "value": 0.7874015748031497
          },
          {
            "number": 7,
            "ticks": 0,
            "time": 0,
            "value": 0.7874015748031497
          },
          {
            "number": 7,
            "ticks": 0,
            "time": 0,
            "value": 0.7874015748031497
          },
          {
            "number": 7,
            "ticks": 22752,
            "time": 173.414559,
            "value": 0.7874015748031497
          },
          {
            "number": 7,
            "ticks": 22753,
            "time": 173.42218094791667,
            "value": 0.7874015748031497
          },
          {
            "number": 7,
            "ticks": 22753,
            "time": 173.42218094791667,
            "value": 0.7874015748031497
          }
        ],
        "10": [
          {
            "number": 10,
            "ticks": 0,
            "time": 0,
            "value": 0.5039370078740157
          },
          {
            "number": 10,
            "ticks": 0,
            "time": 0,
            "value": 0.5039370078740157
          },
          {
            "number": 10,
            "ticks": 0,
            "time": 0,
            "value": 0.5039370078740157
          },
          {
            "number": 10,
            "ticks": 22752,
            "time": 173.414559,
            "value": 0.5039370078740157
          },
          {
            "number": 10,
            "ticks": 22753,
            "time": 173.42218094791667,
            "value": 0.5039370078740157
          },
          {
            "number": 10,
            "ticks": 22753,
            "time": 173.42218094791667,
            "value": 0.5039370078740157
          }
        ],
        "64": [
          {
            "number": 64,
            "ticks": 0,
            "time": 0,
            "value": 0
          },
          {
            "number": 64,
            "ticks": 0,
            "time": 0,
            "value": 0
          },
          {
            "number": 64,
            "ticks": 0,
            "time": 0,
            "value": 0
          },
          {
            "number": 64,
            "ticks": 0,
            "time": 0,
            "value": 0
          },
          {
            "number": 64,
            "ticks": 22752,
            "time": 173.414559,
            "value": 0
          },
          {
            "number": 64,
            "ticks": 22753,
            "time": 173.42218094791667,
            "value": 0
          },
          {
            "number": 64,
            "ticks": 22753,
            "time": 173.42218094791667,
            "value": 0
          }
        ],
        "91": [
          {
            "number": 91,
            "ticks": 0,
            "time": 0,
            "value": 0.5039370078740157
          },
          {
            "number": 91,
            "ticks": 0,
            "time": 0,
            "value": 0.5039370078740157
          },
          {
            "number": 91,
            "ticks": 0,
            "time": 0,
            "value": 0.5039370078740157
          },
          {
            "number": 91,
            "ticks": 0,
            "time": 0,
            "value": 0.5039370078740157
          },
          {
            "number": 91,
            "ticks": 22752,
            "time": 173.414559,
            "value": 0.5039370078740157
          },
          {
            "number": 91,
            "ticks": 22753,
            "time": 173.42218094791667,
            "value": 0.5039370078740157
          },
          {
            "number": 91,
            "ticks": 22753,
            "time": 173.42218094791667,
            "value": 0.5039370078740157
          }
        ],
        "100": [
          {
            "number": 100,
            "ticks": 0,
            "time": 0,
            "value": 0
          },
          {
            "number": 100,
            "ticks": 22752,
            "time": 173.414559,
            "value": 0
          },
          {
            "number": 100,
            "ticks": 22753,
            "time": 173.42218094791667,
            "value": 0
          },
          {
            "number": 100,
            "ticks": 22753,
            "time": 173.42218094791667,
            "value": 0
          }
        ],
        "101": [
          {
            "number": 101,
            "ticks": 0,
            "time": 0,
            "value": 0
          },
          {
            "number": 101,
            "ticks": 22752,
            "time": 173.414559,
            "value": 0
          },
          {
            "number": 101,
            "ticks": 22753,
            "time": 173.42218094791667,
            "value": 0
          },
          {
            "number": 101,
            "ticks": 22753,
            "time": 173.42218094791667,
            "value": 0
          }
        ]
      },
      "pitchBends": [
        {
          "ticks": 0,
          "time": 0,
          "value": 0
        },
        {
          "ticks": 0,
          "time": 0,
          "value": 0
        },
        {
          "ticks": 0,
          "time": 0,
          "value": 0
        },
        {
          "ticks": 22752,
          "time": 173.414559,
          "value": 0
        },
        {
          "ticks": 22753,
          "time": 173.42218094791667,
          "value": 0
        },
        {
          "ticks": 22753,
          "time": 173.42218094791667,
          "value": 0
        }
      ],
      "instrument": {
        "family": "percussive",
        "name": "reverse cymbal",
        "number": 119
      },
      "name": "",
      "notes": [
        {
          "duration": 1.1890238750000002,
          "durationTicks": 156,
          "midi": 68,
          "name": "G#4",
          "ticks": 1764,
          "time": 13.445116125,
          "velocity": 0.5118110236220472
        },
        {
          "duration": 1.1890238750000002,
          "durationTicks": 156,
          "midi": 72,
          "name": "C5",
          "ticks": 1764,
          "time": 13.445116125,
          "velocity": 0.5118110236220472
        },
        {
          "duration": 1.1890238750000002,
          "durationTicks": 156,
          "midi": 64,
          "name": "E4",
          "ticks": 1764,
          "time": 13.445116125,
          "velocity": 0.5118110236220472
        },
        {
          "duration": 1.1890238750000002,
          "durationTicks": 156,
          "midi": 61,
          "name": "C#4",
          "ticks": 1764,
          "time": 13.445116125,
          "velocity": 0.5118110236220472
        },
        {
          "duration": 0.9146337500000001,
          "durationTicks": 120,
          "midi": 61,
          "name": "C#4",
          "ticks": 3336,
          "time": 25.42681825,
          "velocity": 0.5118110236220472
        },
        {
          "duration": 0.9146337500000001,
          "durationTicks": 120,
          "midi": 64,
          "name": "E4",
          "ticks": 3336,
          "time": 25.42681825,
          "velocity": 0.5118110236220472
        },
        {
          "duration": 0.9146337500000001,
          "durationTicks": 120,
          "midi": 72,
          "name": "C5",
          "ticks": 3336,
          "time": 25.42681825,
          "velocity": 0.5118110236220472
        },
        {
          "duration": 0.9146337500000001,
          "durationTicks": 120,
          "midi": 68,
          "name": "G#4",
          "ticks": 3336,
          "time": 25.42681825,
          "velocity": 0.5118110236220472
        },
        {
          "duration": 1.1890238749999966,
          "durationTicks": 156,
          "midi": 61,
          "name": "C#4",
          "ticks": 4836,
          "time": 36.859740125,
          "velocity": 0.6377952755905512
        },
        {
          "duration": 1.1890238749999966,
          "durationTicks": 156,
          "midi": 64,
          "name": "E4",
          "ticks": 4836,
          "time": 36.859740125,
          "velocity": 0.6377952755905512
        },
        {
          "duration": 1.1890238749999966,
          "durationTicks": 156,
          "midi": 68,
          "name": "G#4",
          "ticks": 4836,
          "time": 36.859740125,
          "velocity": 0.6377952755905512
        },
        {
          "duration": 1.1890238749999966,
          "durationTicks": 156,
          "midi": 72,
          "name": "C5",
          "ticks": 4836,
          "time": 36.859740125,
          "velocity": 0.6377952755905512
        },
        {
          "duration": 1.1890238750000037,
          "durationTicks": 156,
          "midi": 61,
          "name": "C#4",
          "ticks": 7908,
          "time": 60.274364125,
          "velocity": 0.6377952755905512
        },
        {
          "duration": 1.1890238750000037,
          "durationTicks": 156,
          "midi": 64,
          "name": "E4",
          "ticks": 7908,
          "time": 60.274364125,
          "velocity": 0.6377952755905512
        },
        {
          "duration": 1.1890238750000037,
          "durationTicks": 156,
          "midi": 72,
          "name": "C5",
          "ticks": 7908,
          "time": 60.274364125,
          "velocity": 0.6377952755905512
        },
        {
          "duration": 1.1890238750000037,
          "durationTicks": 156,
          "midi": 68,
          "name": "G#4",
          "ticks": 7908,
          "time": 60.274364125,
          "velocity": 0.6377952755905512
        },
        {
          "duration": 1.1890238750000037,
          "durationTicks": 156,
          "midi": 68,
          "name": "G#4",
          "ticks": 9444,
          "time": 71.98167612499999,
          "velocity": 0.6377952755905512
        },
        {
          "duration": 1.1890238750000037,
          "durationTicks": 156,
          "midi": 72,
          "name": "C5",
          "ticks": 9444,
          "time": 71.98167612499999,
          "velocity": 0.6377952755905512
        },
        {
          "duration": 1.1890238750000037,
          "durationTicks": 156,
          "midi": 64,
          "name": "E4",
          "ticks": 9444,
          "time": 71.98167612499999,
          "velocity": 0.6377952755905512
        },
        {
          "duration": 1.1890238750000037,
          "durationTicks": 156,
          "midi": 61,
          "name": "C#4",
          "ticks": 9444,
          "time": 71.98167612499999,
          "velocity": 0.6377952755905512
        },
        {
          "duration": 0.914633749999993,
          "durationTicks": 120,
          "midi": 61,
          "name": "C#4",
          "ticks": 11016,
          "time": 83.96337825,
          "velocity": 0.5118110236220472
        },
        {
          "duration": 0.914633749999993,
          "durationTicks": 120,
          "midi": 64,
          "name": "E4",
          "ticks": 11016,
          "time": 83.96337825,
          "velocity": 0.5118110236220472
        },
        {
          "duration": 0.914633749999993,
          "durationTicks": 120,
          "midi": 72,
          "name": "C5",
          "ticks": 11016,
          "time": 83.96337825,
          "velocity": 0.5118110236220472
        },
        {
          "duration": 0.914633749999993,
          "durationTicks": 120,
          "midi": 68,
          "name": "G#4",
          "ticks": 11016,
          "time": 83.96337825,
          "velocity": 0.5118110236220472
        },
        {
          "duration": 1.1890238750000037,
          "durationTicks": 156,
          "midi": 72,
          "name": "C5",
          "ticks": 12516,
          "time": 95.396300125,
          "velocity": 0.6377952755905512
        },
        {
          "duration": 1.1890238750000037,
          "durationTicks": 156,
          "midi": 68,
          "name": "G#4",
          "ticks": 12516,
          "time": 95.396300125,
          "velocity": 0.6377952755905512
        },
        {
          "duration": 1.1890238750000037,
          "durationTicks": 156,
          "midi": 64,
          "name": "E4",
          "ticks": 12516,
          "time": 95.396300125,
          "velocity": 0.6377952755905512
        },
        {
          "duration": 1.1890238750000037,
          "durationTicks": 156,
          "midi": 61,
          "name": "C#4",
          "ticks": 12516,
          "time": 95.396300125,
          "velocity": 0.6377952755905512
        },
        {
          "duration": 1.1890238750000037,
          "durationTicks": 156,
          "midi": 68,
          "name": "G#4",
          "ticks": 15588,
          "time": 118.810924125,
          "velocity": 0.6377952755905512
        },
        {
          "duration": 1.1890238750000037,
          "durationTicks": 156,
          "midi": 72,
          "name": "C5",
          "ticks": 15588,
          "time": 118.810924125,
          "velocity": 0.6377952755905512
        },
        {
          "duration": 1.1890238750000037,
          "durationTicks": 156,
          "midi": 64,
          "name": "E4",
          "ticks": 15588,
          "time": 118.810924125,
          "velocity": 0.6377952755905512
        },
        {
          "duration": 1.1890238750000037,
          "durationTicks": 156,
          "midi": 61,
          "name": "C#4",
          "ticks": 15588,
          "time": 118.810924125,
          "velocity": 0.6377952755905512
        },
        {
          "duration": 1.1890238750000037,
          "durationTicks": 156,
          "midi": 61,
          "name": "C#4",
          "ticks": 17124,
          "time": 130.518236125,
          "velocity": 0.6929133858267716
        },
        {
          "duration": 1.1890238750000037,
          "durationTicks": 156,
          "midi": 64,
          "name": "E4",
          "ticks": 17124,
          "time": 130.518236125,
          "velocity": 0.6929133858267716
        },
        {
          "duration": 1.1890238750000037,
          "durationTicks": 156,
          "midi": 72,
          "name": "C5",
          "ticks": 17124,
          "time": 130.518236125,
          "velocity": 0.6929133858267716
        },
        {
          "duration": 1.1890238750000037,
          "durationTicks": 156,
          "midi": 68,
          "name": "G#4",
          "ticks": 17124,
          "time": 130.518236125,
          "velocity": 0.6929133858267716
        },
        {
          "duration": 1.1890238750000037,
          "durationTicks": 156,
          "midi": 61,
          "name": "C#4",
          "ticks": 20196,
          "time": 153.932860125,
          "velocity": 0.6929133858267716
        },
        {
          "duration": 1.1890238750000037,
          "durationTicks": 156,
          "midi": 64,
          "name": "E4",
          "ticks": 20196,
          "time": 153.932860125,
          "velocity": 0.6929133858267716
        },
        {
          "duration": 1.1890238750000037,
          "durationTicks": 156,
          "midi": 72,
          "name": "C5",
          "ticks": 20196,
          "time": 153.932860125,
          "velocity": 0.6929133858267716
        },
        {
          "duration": 1.1890238750000037,
          "durationTicks": 156,
          "midi": 68,
          "name": "G#4",
          "ticks": 20196,
          "time": 153.932860125,
          "velocity": 0.6929133858267716
        }
      ]
    }
  ]
}
