{
  "header": {
    "keySignatures": [
      {
        "key": "D",
        "scale": "major",
        "ticks": 0
      }
    ],
    "meta": [
      {
        "text": "lan\n",
        "ticks": 0,
        "type": "text"
      }
    ],
    "name": "untitled",
    "ppq": 120,
    "tempos": [
      {
        "bpm": 100,
        "ticks": 0
      }
    ],
    "timeSignatures": [
      {
        "ticks": 0,
        "timeSignature": [
          4,
          4
        ],
        "measures": 0
      }
    ]
  },
  "tracks": [
    {
      "channel": 0,
      "controlChanges": {},
      "pitchBends": [],
      "instrument": {
        "family": "ensemble",
        "name": "string ensemble 1",
        "number": 48
      },
      "name": "untitled",
      "notes": [
        {
          "duration": 0.6,
          "durationTicks": 120,
          "midi": 69,
          "name": "A4",
          "ticks": 0,
          "time": 0,
          "velocity": 1
        },
        {
          "duration": 0.29999999999999993,
          "durationTicks": 60,
          "midi": 66,
          "name": "F#4",
          "ticks": 120,
          "time": 0.6,
          "velocity": 1
        },
        {
          "duration": 0.30000000000000004,
          "durationTicks": 60,
          "midi": 69,
          "name": "A4",
          "ticks": 180,
          "time": 0.8999999999999999,
          "velocity": 1
        },
        {
          "duration": 1.2,
          "durationTicks": 240,
          "midi": 74,
          "name": "D5",
          "ticks": 240,
          "time": 1.2,
          "velocity": 1
        },
        {
          "duration": 0.6000000000000001,
          "durationTicks": 120,
          "midi": 71,
          "name": "B4",
          "ticks": 480,
          "time": 2.4,
          "velocity": 1
        },
        {
          "duration": 0.2999999999999998,
          "durationTicks": 60,
          "midi": 74,
          "name": "D5",
          "ticks": 600,
          "time": 3,
          "velocity": 1
        },
        {
          "duration": 0.2999999999999998,
          "durationTicks": 60,
          "midi": 71,
          "name": "B4",
          "ticks": 660,
          "time": 3.3,
          "velocity": 1
        },
        {
          "duration": 1.2000000000000002,
          "durationTicks": 240,
          "midi": 69,
          "name": "A4",
          "ticks": 720,
          "time": 3.5999999999999996,
          "velocity": 1
        },
        {
          "duration": 0.5999999999999996,
          "durationTicks": 120,
          "midi": 69,
          "name": "A4",
          "ticks": 960,
          "time": 4.8,
          "velocity": 1
        },
        {
          "duration": 0.3000000000000007,
          "durationTicks": 60,
          "midi": 62,
          "name": "D4",
          "ticks": 1080,
          "time": 5.3999999999999995,
          "velocity": 1
        },
        {
          "duration": 0.2999999999999998,
          "durationTicks": 60,
          "midi": 64,
          "name": "E4",
          "ticks": 1140,
          "time": 5.7,
          "velocity": 1
        },
        {
          "duration": 0.5999999999999996,
          "durationTicks": 120,
          "midi": 66,
          "name": "F#4",
          "ticks": 1200,
          "time": 6,
          "velocity": 1
        },
        {
          "duration": 0.2999999999999998,
          "durationTicks": 60,
          "midi": 64,
          "name": "E4",
          "ticks": 1320,
          "time": 6.6,
          "velocity": 1
        },
        {
          "duration": 0.2999999999999998,
          "durationTicks": 60,
          "midi": 62,
          "name": "D4",
          "ticks": 1380,
          "time": 6.8999999999999995,
          "velocity": 1
        },
        {
          "duration": 1.8000000000000007,
          "durationTicks": 360,
          "midi": 64,
          "name": "E4",
          "ticks": 1440,
          "time": 7.199999999999999,
          "velocity": 1
        },
        {
          "duration": 0.5999999999999996,
          "durationTicks": 120,
          "midi": 69,
          "name": "A4",
          "ticks": 1920,
          "time": 9.6,
          "velocity": 1
        },
        {
          "duration": 0.3000000000000007,
          "durationTicks": 60,
          "midi": 66,
          "name": "F#4",
          "ticks": 2040,
          "time": 10.2,
          "velocity": 1
        },
        {
          "duration": 0.29999999999999893,
          "durationTicks": 60,
          "midi": 69,
          "name": "A4",
          "ticks": 2100,
          "time": 10.5,
          "velocity": 1
        },
        {
          "duration": 0.9000000000000004,
          "durationTicks": 180,
          "midi": 74,
          "name": "D5",
          "ticks": 2160,
          "time": 10.799999999999999,
          "velocity": 1
        },
        {
          "duration": 0.3000000000000007,
          "durationTicks": 60,
          "midi": 73,
          "name": "C#5",
          "ticks": 2340,
          "time": 11.7,
          "velocity": 1
        },
        {
          "duration": 0.5999999999999996,
          "durationTicks": 120,
          "midi": 71,
          "name": "B4",
          "ticks": 2400,
          "time": 12,
          "velocity": 1
        },
        {
          "duration": 0.5999999999999996,
          "durationTicks": 120,
          "midi": 74,
          "name": "D5",
          "ticks": 2520,
          "time": 12.6,
          "velocity": 1
        },
        {
          "duration": 1.1999999999999993,
          "durationTicks": 240,
          "midi": 69,
          "name": "A4",
          "ticks": 2640,
          "time": 13.2,
          "velocity": 1
        },
        {
          "duration": 0.6000000000000014,
          "durationTicks": 120,
          "midi": 69,
          "name": "A4",
          "ticks": 2880,
          "time": 14.399999999999999,
          "velocity": 1
        },
        {
          "duration": 0.29999999999999893,
          "durationTicks": 60,
          "midi": 64,
          "name": "E4",
          "ticks": 3000,
          "time": 15,
          "velocity": 1
        },
        {
          "duration": 0.3000000000000007,
          "durationTicks": 60,
          "midi": 66,
          "name": "F#4",
          "ticks": 3060,
          "time": 15.299999999999999,
          "velocity": 1
        },
        {
          "duration": 0.9000000000000004,
          "durationTicks": 180,
          "midi": 67,
          "name": "G4",
          "ticks": 3120,
          "time": 15.6,
          "velocity": 1
        },
        {
          "duration": 0.3000000000000007,
          "durationTicks": 60,
          "midi": 61,
          "name": "C#4",
          "ticks": 3300,
          "time": 16.5,
          "velocity": 1
        },
        {
          "duration": 2.3999999999999986,
          "durationTicks": 480,
          "midi": 62,
          "name": "D4",
          "ticks": 3360,
          "time": 16.8,
          "velocity": 1
        },
        {
          "duration": 0.6000000000000014,
          "durationTicks": 120,
          "midi": 71,
          "name": "B4",
          "ticks": 3840,
          "time": 19.2,
          "velocity": 1
        },
        {
          "duration": 0.5999999999999979,
          "durationTicks": 120,
          "midi": 74,
          "name": "D5",
          "ticks": 3960,
          "time": 19.8,
          "velocity": 1
        },
        {
          "duration": 1.1999999999999993,
          "durationTicks": 240,
          "midi": 74,
          "name": "D5",
          "ticks": 4080,
          "time": 20.4,
          "velocity": 1
        },
        {
          "duration": 0.6000000000000014,
          "durationTicks": 120,
          "midi": 73,
          "name": "C#5",
          "ticks": 4320,
          "time": 21.599999999999998,
          "velocity": 1
        },
        {
          "duration": 0.3000000000000007,
          "durationTicks": 60,
          "midi": 71,
          "name": "B4",
          "ticks": 4440,
          "time": 22.2,
          "velocity": 1
        },
        {
          "duration": 0.3000000000000007,
          "durationTicks": 60,
          "midi": 73,
          "name": "C#5",
          "ticks": 4500,
          "time": 22.5,
          "velocity": 1
        },
        {
          "duration": 1.1999999999999993,
          "durationTicks": 240,
          "midi": 74,
          "name": "D5",
          "ticks": 4560,
          "time": 22.8,
          "velocity": 1
        },
        {
          "duration": 0.3000000000000007,
          "durationTicks": 60,
          "midi": 71,
          "name": "B4",
          "ticks": 4800,
          "time": 24,
          "velocity": 1
        },
        {
          "duration": 0.29999999999999716,
          "durationTicks": 60,
          "midi": 73,
          "name": "C#5",
          "ticks": 4860,
          "time": 24.3,
          "velocity": 1
        },
        {
          "duration": 0.3000000000000007,
          "durationTicks": 60,
          "midi": 74,
          "name": "D5",
          "ticks": 4920,
          "time": 24.599999999999998,
          "velocity": 1
        },
        {
          "duration": 0.3000000000000007,
          "durationTicks": 60,
          "midi": 71,
          "name": "B4",
          "ticks": 4980,
          "time": 24.9,
          "velocity": 1
        },
        {
          "duration": 0.3000000000000007,
          "durationTicks": 60,
          "midi": 71,
          "name": "B4",
          "ticks": 5040,
          "time": 25.2,
          "velocity": 1
        },
        {
          "duration": 0.3000000000000007,
          "durationTicks": 60,
          "midi": 69,
          "name": "A4",
          "ticks": 5100,
          "time": 25.5,
          "velocity": 1
        },
        {
          "duration": 0.29999999999999716,
          "durationTicks": 60,
          "midi": 66,
          "name": "F#4",
          "ticks": 5160,
          "time": 25.8,
          "velocity": 1
        },
        {
          "duration": 0.3000000000000007,
          "durationTicks": 60,
          "midi": 62,
          "name": "D4",
          "ticks": 5220,
          "time": 26.099999999999998,
          "velocity": 1
        },
        {
          "duration": 2.3999999999999986,
          "durationTicks": 480,
          "midi": 64,
          "name": "E4",
          "ticks": 5280,
          "time": 26.4,
          "velocity": 1
        },
        {
          "duration": 0.6000000000000014,
          "durationTicks": 120,
          "midi": 69,
          "name": "A4",
          "ticks": 5760,
          "time": 28.799999999999997,
          "velocity": 1
        },
        {
          "duration": 0.3000000000000007,
          "durationTicks": 60,
          "midi": 66,
          "name": "F#4",
          "ticks": 5880,
          "time": 29.4,
          "velocity": 1
        },
        {
          "duration": 0.3000000000000007,
          "durationTicks": 60,
          "midi": 69,
          "name": "A4",
          "ticks": 5940,
          "time": 29.7,
          "velocity": 1
        },
        {
          "duration": 0.8999999999999986,
          "durationTicks": 180,
          "midi": 74,
          "name": "D5",
          "ticks": 6000,
          "time": 30,
          "velocity": 1
        },
        {
          "duration": 0.3000000000000007,
          "durationTicks": 60,
          "midi": 73,
          "name": "C#5",
          "ticks": 6180,
          "time": 30.9,
          "velocity": 1
        },
        {
          "duration": 0.5999999999999979,
          "durationTicks": 120,
          "midi": 71,
          "name": "B4",
          "ticks": 6240,
          "time": 31.2,
          "velocity": 1
        },
        {
          "duration": 0.6000000000000014,
          "durationTicks": 120,
          "midi": 74,
          "name": "D5",
          "ticks": 6360,
          "time": 31.799999999999997,
          "velocity": 1
        },
        {
          "duration": 1.2000000000000028,
          "durationTicks": 240,
          "midi": 69,
          "name": "A4",
          "ticks": 6480,
          "time": 32.4,
          "velocity": 1
        },
        {
          "duration": 0.5999999999999943,
          "durationTicks": 120,
          "midi": 69,
          "name": "A4",
          "ticks": 6720,
          "time": 33.6,
          "velocity": 1
        },
        {
          "duration": 0.30000000000000426,
          "durationTicks": 60,
          "midi": 64,
          "name": "E4",
          "ticks": 6840,
          "time": 34.199999999999996,
          "velocity": 1
        },
        {
          "duration": 0.29999999999999716,
          "durationTicks": 60,
          "midi": 66,
          "name": "F#4",
          "ticks": 6900,
          "time": 34.5,
          "velocity": 1
        },
        {
          "duration": 0.8999999999999986,
          "durationTicks": 180,
          "midi": 67,
          "name": "G4",
          "ticks": 6960,
          "time": 34.8,
          "velocity": 1
        },
        {
          "duration": 1.1999999999999957,
          "durationTicks": 240,
          "midi": 61,
          "name": "C#4",
          "ticks": 7200,
          "time": 36,
          "velocity": 1
        },
        {
          "duration": 1.2000000000000028,
          "durationTicks": 240,
          "midi": 62,
          "name": "D4",
          "ticks": 7440,
          "time": 37.199999999999996,
          "velocity": 1
        },
        {
          "duration": 2.3999999999999986,
          "durationTicks": 480,
          "midi": 62,
          "name": "D4",
          "ticks": 7680,
          "time": 38.4,
          "velocity": 1
        }
      ]
    },
    {
      "channel": 1,
      "controlChanges": {},
      "pitchBends": [],
      "instrument": {
        "family": "chromatic percussion",
        "name": "music box",
        "number": 10
      },
      "name": "",
      "notes": [
        {
          "duration": 0.6,
          "durationTicks": 120,
          "midi": 66,
          "name": "F#4",
          "ticks": 0,
          "time": 0,
          "velocity": 0.8661417322834646
        },
        {
          "duration": 0.6,
          "durationTicks": 120,
          "midi": 66,
          "name": "F#4",
          "ticks": 120,
          "time": 0.6,
          "velocity": 0.8661417322834646
        },
        {
          "duration": 1.2,
          "durationTicks": 240,
          "midi": 66,
          "name": "F#4",
          "ticks": 240,
          "time": 1.2,
          "velocity": 0.8661417322834646
        },
        {
          "duration": 0.6000000000000001,
          "durationTicks": 120,
          "midi": 67,
          "name": "G4",
          "ticks": 480,
          "time": 2.4,
          "velocity": 0.8661417322834646
        },
        {
          "duration": 0.5999999999999996,
          "durationTicks": 120,
          "midi": 71,
          "name": "B4",
          "ticks": 600,
          "time": 3,
          "velocity": 0.8661417322834646
        },
        {
          "duration": 1.2000000000000002,
          "durationTicks": 240,
          "midi": 66,
          "name": "F#4",
          "ticks": 720,
          "time": 3.5999999999999996,
          "velocity": 0.8661417322834646
        },
        {
          "duration": 0.5999999999999996,
          "durationTicks": 120,
          "midi": 66,
          "name": "F#4",
          "ticks": 960,
          "time": 4.8,
          "velocity": 0.8661417322834646
        },
        {
          "duration": 0.6000000000000005,
          "durationTicks": 120,
          "midi": 62,
          "name": "D4",
          "ticks": 1080,
          "time": 5.3999999999999995,
          "velocity": 0.8661417322834646
        },
        {
          "duration": 0.5999999999999996,
          "durationTicks": 120,
          "midi": 62,
          "name": "D4",
          "ticks": 1200,
          "time": 6,
          "velocity": 0.8661417322834646
        },
        {
          "duration": 0.2999999999999998,
          "durationTicks": 60,
          "midi": 64,
          "name": "E4",
          "ticks": 1320,
          "time": 6.6,
          "velocity": 0.8661417322834646
        },
        {
          "duration": 0.2999999999999998,
          "durationTicks": 60,
          "midi": 62,
          "name": "D4",
          "ticks": 1380,
          "time": 6.8999999999999995,
          "velocity": 0.8661417322834646
        },
        {
          "duration": 1.8000000000000007,
          "durationTicks": 360,
          "midi": 61,
          "name": "C#4",
          "ticks": 1440,
          "time": 7.199999999999999,
          "velocity": 0.8661417322834646
        },
        {
          "duration": 0.5999999999999996,
          "durationTicks": 120,
          "midi": 66,
          "name": "F#4",
          "ticks": 1920,
          "time": 9.6,
          "velocity": 0.8661417322834646
        },
        {
          "duration": 0.5999999999999996,
          "durationTicks": 120,
          "midi": 66,
          "name": "F#4",
          "ticks": 2040,
          "time": 10.2,
          "velocity": 0.8661417322834646
        },
        {
          "duration": 0.9000000000000004,
          "durationTicks": 180,
          "midi": 66,
          "name": "F#4",
          "ticks": 2160,
          "time": 10.799999999999999,
          "velocity": 0.8661417322834646
        },
        {
          "duration": 0.3000000000000007,
          "durationTicks": 60,
          "midi": 66,
          "name": "F#4",
          "ticks": 2340,
          "time": 11.7,
          "velocity": 0.8661417322834646
        },
        {
          "duration": 0.5999999999999996,
          "durationTicks": 120,
          "midi": 67,
          "name": "G4",
          "ticks": 2400,
          "time": 12,
          "velocity": 0.8661417322834646
        },
        {
          "duration": 0.5999999999999996,
          "durationTicks": 120,
          "midi": 71,
          "name": "B4",
          "ticks": 2520,
          "time": 12.6,
          "velocity": 0.8661417322834646
        },
        {
          "duration": 1.1999999999999993,
          "durationTicks": 240,
          "midi": 66,
          "name": "F#4",
          "ticks": 2640,
          "time": 13.2,
          "velocity": 0.8661417322834646
        },
        {
          "duration": 0.6000000000000014,
          "durationTicks": 120,
          "midi": 61,
          "name": "C#4",
          "ticks": 2880,
          "time": 14.399999999999999,
          "velocity": 0.8661417322834646
        },
        {
          "duration": 0.29999999999999893,
          "durationTicks": 60,
          "midi": 61,
          "name": "C#4",
          "ticks": 3000,
          "time": 15,
          "velocity": 0.8661417322834646
        },
        {
          "duration": 0.3000000000000007,
          "durationTicks": 60,
          "midi": 62,
          "name": "D4",
          "ticks": 3060,
          "time": 15.299999999999999,
          "velocity": 0.8661417322834646
        },
        {
          "duration": 0.9000000000000004,
          "durationTicks": 180,
          "midi": 64,
          "name": "E4",
          "ticks": 3120,
          "time": 15.6,
          "velocity": 0.8661417322834646
        },
        {
          "duration": 0.3000000000000007,
          "durationTicks": 60,
          "midi": 64,
          "name": "E4",
          "ticks": 3300,
          "time": 16.5,
          "velocity": 0.8661417322834646
        },
        {
          "duration": 2.3999999999999986,
          "durationTicks": 480,
          "midi": 62,
          "name": "D4",
          "ticks": 3360,
          "time": 16.8,
          "velocity": 0.8661417322834646
        },
        {
          "duration": 0.6000000000000014,
          "durationTicks": 120,
          "midi": 67,
          "name": "G4",
          "ticks": 3840,
          "time": 19.2,
          "velocity": 0.8661417322834646
        },
        {
          "duration": 0.5999999999999979,
          "durationTicks": 120,
          "midi": 71,
          "name": "B4",
          "ticks": 3960,
          "time": 19.8,
          "velocity": 0.8661417322834646
        },
        {
          "duration": 1.1999999999999993,
          "durationTicks": 240,
          "midi": 69,
          "name": "A4",
          "ticks": 4080,
          "time": 20.4,
          "velocity": 0.8661417322834646
        },
        {
          "duration": 0.6000000000000014,
          "durationTicks": 120,
          "midi": 67,
          "name": "G4",
          "ticks": 4320,
          "time": 21.599999999999998,
          "velocity": 0.8661417322834646
        },
        {
          "duration": 0.6000000000000014,
          "durationTicks": 120,
          "midi": 71,
          "name": "B4",
          "ticks": 4440,
          "time": 22.2,
          "velocity": 0.8661417322834646
        },
        {
          "duration": 1.1999999999999993,
          "durationTicks": 240,
          "midi": 69,
          "name": "A4",
          "ticks": 4560,
          "time": 22.8,
          "velocity": 0.8661417322834646
        },
        {
          "duration": 0.5999999999999979,
          "durationTicks": 120,
          "midi": 67,
          "name": "G4",
          "ticks": 4800,
          "time": 24,
          "velocity": 0.8661417322834646
        },
        {
          "duration": 0.6000000000000014,
          "durationTicks": 120,
          "midi": 67,
          "name": "G4",
          "ticks": 4920,
          "time": 24.599999999999998,
          "velocity": 0.8661417322834646
        },
        {
          "duration": 0.6000000000000014,
          "durationTicks": 120,
          "midi": 66,
          "name": "F#4",
          "ticks": 5040,
          "time": 25.2,
          "velocity": 0.8661417322834646
        },
        {
          "duration": 0.5999999999999979,
          "durationTicks": 120,
          "midi": 62,
          "name": "D4",
          "ticks": 5160,
          "time": 25.8,
          "velocity": 0.8661417322834646
        },
        {
          "duration": 2.3999999999999986,
          "durationTicks": 480,
          "midi": 61,
          "name": "C#4",
          "ticks": 5280,
          "time": 26.4,
          "velocity": 0.8661417322834646
        },
        {
          "duration": 0.6000000000000014,
          "durationTicks": 120,
          "midi": 66,
          "name": "F#4",
          "ticks": 5760,
          "time": 28.799999999999997,
          "velocity": 0.8661417322834646
        },
        {
          "duration": 0.6000000000000014,
          "durationTicks": 120,
          "midi": 66,
          "name": "F#4",
          "ticks": 5880,
          "time": 29.4,
          "velocity": 0.8661417322834646
        },
        {
          "duration": 0.8999999999999986,
          "durationTicks": 180,
          "midi": 66,
          "name": "F#4",
          "ticks": 6000,
          "time": 30,
          "velocity": 0.8661417322834646
        },
        {
          "duration": 0.3000000000000007,
          "durationTicks": 60,
          "midi": 66,
          "name": "F#4",
          "ticks": 6180,
          "time": 30.9,
          "velocity": 0.8661417322834646
        },
        {
          "duration": 0.5999999999999979,
          "durationTicks": 120,
          "midi": 67,
          "name": "G4",
          "ticks": 6240,
          "time": 31.2,
          "velocity": 0.8661417322834646
        },
        {
          "duration": 0.6000000000000014,
          "durationTicks": 120,
          "midi": 71,
          "name": "B4",
          "ticks": 6360,
          "time": 31.799999999999997,
          "velocity": 0.8661417322834646
        },
        {
          "duration": 1.2000000000000028,
          "durationTicks": 240,
          "midi": 66,
          "name": "F#4",
          "ticks": 6480,
          "time": 32.4,
          "velocity": 0.8661417322834646
        },
        {
          "duration": 0.5999999999999943,
          "durationTicks": 120,
          "midi": 61,
          "name": "C#4",
          "ticks": 6720,
          "time": 33.6,
          "velocity": 0.8661417322834646
        },
        {
          "duration": 0.30000000000000426,
          "durationTicks": 60,
          "midi": 61,
          "name": "C#4",
          "ticks": 6840,
          "time": 34.199999999999996,
          "velocity": 0.8740157480314961
        },
        {
          "duration": 0.29999999999999716,
          "durationTicks": 60,
          "midi": 62,
          "name": "D4",
          "ticks": 6900,
          "time": 34.5,
          "velocity": 0.8818897637795275
        },
        {
          "duration": 0.8999999999999986,
          "durationTicks": 180,
          "midi": 64,
          "name": "E4",
          "ticks": 6960,
          "time": 34.8,
          "velocity": 0.889763779527559
        },
        {
          "duration": 1.1999999999999957,
          "durationTicks": 240,
          "midi": 64,
          "name": "E4",
          "ticks": 7200,
          "time": 36,
          "velocity": 0.889763779527559
        },
        {
          "duration": 1.2000000000000028,
          "durationTicks": 240,
          "midi": 62,
          "name": "D4",
          "ticks": 7440,
          "time": 37.199999999999996,
          "velocity": 0.889763779527559
        }
      ]
    },
    {
      "channel": 0,
      "controlChanges": {},
      "pitchBends": [],
      "instrument": {
        "family": "strings",
        "name": "tremolo strings",
        "number": 44
      },
      "name": "",
      "notes": []
    },
    {
      "channel": 0,
      "controlChanges": {},
      "pitchBends": [],
      "instrument": {
        "family": "organ",
        "name": "accordion",
        "number": 21
      },
      "name": "",
      "notes": []
    },
    {
      "channel": 0,
      "controlChanges": {},
      "pitchBends": [],
      "instrument": {
        "family": "piano",
        "name": "electric piano 1",
        "number": 4
      },
      "name": "",
      "notes": []
    },
    {
      "channel": 0,
      "controlChanges": {
        "0": [
          {
            "number": 0,
            "ticks": 0,
            "time": 0,
            "value": 0
          },
          {
            "number": 0,
            "ticks": 0,
            "time": 0,
            "value": 0
          },
          {
            "number": 0,
            "ticks": 0,
            "time": 0,
            "value": 0
          },
          {
            "number": 0,
            "ticks": 0,
            "time": 0,
            "value": 0
          }
        ],
        "32": [
          {
            "number": 32,
            "ticks": 0,
            "time": 0,
            "value": 0.07086614173228346
          },
          {
            "number": 32,
            "ticks": 0,
            "time": 0,
            "value": 0.07086614173228346
          },
          {
            "number": 32,
            "ticks": 0,
            "time": 0,
            "value": 0.07086614173228346
          },
          {
            "number": 32,
            "ticks": 0,
            "time": 0,
            "value": 0.07086614173228346
          }
        ]
      },
      "pitchBends": [],
      "instrument": {
        "family": "world",
        "name": "bag pipe",
        "number": 109
      },
      "name": "",
      "notes": []
    },
    {
      "channel": 0,
      "controlChanges": {
        "0": [
          {
            "number": 0,
            "ticks": 0,
            "time": 0,
            "value": 0
          },
          {
            "number": 0,
            "ticks": 0,
            "time": 0,
            "value": 0
          },
          {
            "number": 0,
            "ticks": 0,
            "time": 0,
            "value": 0
          },
          {
            "number": 0,
            "ticks": 0,
            "time": 0,
            "value": 0
          },
          {
            "number": 0,
            "ticks": 0,
            "time": 0,
            "value": 0
          },
          {
            "number": 0,
            "ticks": 0,
            "time": 0,
            "value": 0
          },
          {
            "number": 0,
            "ticks": 0,
            "time": 0,
            "value": 0
          },
          {
            "number": 0,
            "ticks": 0,
            "time": 0,
            "value": 0
          }
        ],
        "32": [
          {
            "number": 32,
            "ticks": 0,
            "time": 0,
            "value": 0.07086614173228346
          },
          {
            "number": 32,
            "ticks": 0,
            "time": 0,
            "value": 0.07086614173228346
          },
          {
            "number": 32,
            "ticks": 0,
            "time": 0,
            "value": 0.07086614173228346
          },
          {
            "number": 32,
            "ticks": 0,
            "time": 0,
            "value": 0.07086614173228346
          },
          {
            "number": 32,
            "ticks": 0,
            "time": 0,
            "value": 0.07086614173228346
          },
          {
            "number": 32,
            "ticks": 0,
            "time": 0,
            "value": 0.07086614173228346
          },
          {
            "number": 32,
            "ticks": 0,
            "time": 0,
            "value": 0.07086614173228346
          },
          {
            "number": 32,
            "ticks": 0,
            "time": 0,
            "value": 0.07086614173228346
          }
        ]
      },
      "pitchBends": [],
      "instrument": {
        "family": "strings",
        "name": "viola",
        "number": 41
      },
      "name": "",
      "notes": []
    },
    {
      "channel": 0,
      "controlChanges": {},
      "pitchBends": [],
      "instrument": {
        "family": "world",
        "name": "bag pipe",
        "number": 109
      },
      "name": "",
      "notes": []
    },
    {
      "channel": 0,
      "controlChanges": {},
      "pitchBends": [],
      "instrument": {
        "family": "strings",
        "name": "cello",
        "number": 42
      },
      "name": "",
      "notes": []
    },
    {
      "channel": 0,
      "controlChanges": {},
      "pitchBends": [],
      "instrument": {
        "family": "organ",
        "name": "accordion",
        "number": 21
      },
      "name": "",
      "notes": []
    },
    {
      "channel": 2,
      "controlChanges": {},
      "pitchBends": [],
      "instrument": {
        "family": "piano",
        "name": "acoustic grand piano",
        "number": 0
      },
      "name": "",
      "notes": [
        {
          "duration": 0.6,
          "durationTicks": 120,
          "midi": 62,
          "name": "D4",
          "ticks": 0,
          "time": 0,
          "velocity": 0.8661417322834646
        },
        {
          "duration": 0.6,
          "durationTicks": 120,
          "midi": 62,
          "name": "D4",
          "ticks": 120,
          "time": 0.6,
          "velocity": 0.8661417322834646
        },
        {
          "duration": 1.2,
          "durationTicks": 240,
          "midi": 62,
          "name": "D4",
          "ticks": 240,
          "time": 1.2,
          "velocity": 0.8661417322834646
        },
        {
          "duration": 0.6000000000000001,
          "durationTicks": 120,
          "midi": 62,
          "name": "D4",
          "ticks": 480,
          "time": 2.4,
          "velocity": 0.8661417322834646
        },
        {
          "duration": 0.5999999999999996,
          "durationTicks": 120,
          "midi": 62,
          "name": "D4",
          "ticks": 600,
          "time": 3,
          "velocity": 0.8661417322834646
        },
        {
          "duration": 1.2000000000000002,
          "durationTicks": 240,
          "midi": 62,
          "name": "D4",
          "ticks": 720,
          "time": 3.5999999999999996,
          "velocity": 0.8661417322834646
        },
        {
          "duration": 0.5999999999999996,
          "durationTicks": 120,
          "midi": 62,
          "name": "D4",
          "ticks": 960,
          "time": 4.8,
          "velocity": 0.8661417322834646
        },
        {
          "duration": 0.6000000000000005,
          "durationTicks": 120,
          "midi": 62,
          "name": "D4",
          "ticks": 1080,
          "time": 5.3999999999999995,
          "velocity": 0.8661417322834646
        },
        {
          "duration": 0.5999999999999996,
          "durationTicks": 120,
          "midi": 62,
          "name": "D4",
          "ticks": 1200,
          "time": 6,
          "velocity": 0.8661417322834646
        },
        {
          "duration": 0.2999999999999998,
          "durationTicks": 60,
          "midi": 61,
          "name": "C#4",
          "ticks": 1320,
          "time": 6.6,
          "velocity": 0.8661417322834646
        },
        {
          "duration": 0.2999999999999998,
          "durationTicks": 60,
          "midi": 59,
          "name": "B3",
          "ticks": 1380,
          "time": 6.8999999999999995,
          "velocity": 0.8661417322834646
        },
        {
          "duration": 1.8000000000000007,
          "durationTicks": 360,
          "midi": 57,
          "name": "A3",
          "ticks": 1440,
          "time": 7.199999999999999,
          "velocity": 0.8661417322834646
        },
        {
          "duration": 0.5999999999999996,
          "durationTicks": 120,
          "midi": 62,
          "name": "D4",
          "ticks": 1920,
          "time": 9.6,
          "velocity": 0.8661417322834646
        },
        {
          "duration": 0.5999999999999996,
          "durationTicks": 120,
          "midi": 62,
          "name": "D4",
          "ticks": 2040,
          "time": 10.2,
          "velocity": 0.8661417322834646
        },
        {
          "duration": 0.9000000000000004,
          "durationTicks": 180,
          "midi": 62,
          "name": "D4",
          "ticks": 2160,
          "time": 10.799999999999999,
          "velocity": 0.8661417322834646
        },
        {
          "duration": 0.3000000000000007,
          "durationTicks": 60,
          "midi": 62,
          "name": "D4",
          "ticks": 2340,
          "time": 11.7,
          "velocity": 0.8661417322834646
        },
        {
          "duration": 0.5999999999999996,
          "durationTicks": 120,
          "midi": 62,
          "name": "D4",
          "ticks": 2400,
          "time": 12,
          "velocity": 0.8661417322834646
        },
        {
          "duration": 0.5999999999999996,
          "durationTicks": 120,
          "midi": 62,
          "name": "D4",
          "ticks": 2520,
          "time": 12.6,
          "velocity": 0.8661417322834646
        },
        {
          "duration": 1.1999999999999993,
          "durationTicks": 240,
          "midi": 62,
          "name": "D4",
          "ticks": 2640,
          "time": 13.2,
          "velocity": 0.8661417322834646
        },
        {
          "duration": 0.6000000000000014,
          "durationTicks": 120,
          "midi": 57,
          "name": "A3",
          "ticks": 2880,
          "time": 14.399999999999999,
          "velocity": 0.8661417322834646
        },
        {
          "duration": 0.5999999999999996,
          "durationTicks": 120,
          "midi": 57,
          "name": "A3",
          "ticks": 3000,
          "time": 15,
          "velocity": 0.8661417322834646
        },
        {
          "duration": 0.9000000000000004,
          "durationTicks": 180,
          "midi": 57,
          "name": "A3",
          "ticks": 3120,
          "time": 15.6,
          "velocity": 0.8661417322834646
        },
        {
          "duration": 0.3000000000000007,
          "durationTicks": 60,
          "midi": 57,
          "name": "A3",
          "ticks": 3300,
          "time": 16.5,
          "velocity": 0.8661417322834646
        },
        {
          "duration": 2.3999999999999986,
          "durationTicks": 480,
          "midi": 62,
          "name": "D4",
          "ticks": 3360,
          "time": 16.8,
          "velocity": 0.8661417322834646
        },
        {
          "duration": 0.6000000000000014,
          "durationTicks": 120,
          "midi": 67,
          "name": "G4",
          "ticks": 3840,
          "time": 19.2,
          "velocity": 0.8661417322834646
        },
        {
          "duration": 0.5999999999999979,
          "durationTicks": 120,
          "midi": 67,
          "name": "G4",
          "ticks": 3960,
          "time": 19.8,
          "velocity": 0.8661417322834646
        },
        {
          "duration": 1.1999999999999993,
          "durationTicks": 240,
          "midi": 66,
          "name": "F#4",
          "ticks": 4080,
          "time": 20.4,
          "velocity": 0.8661417322834646
        },
        {
          "duration": 0.6000000000000014,
          "durationTicks": 120,
          "midi": 64,
          "name": "E4",
          "ticks": 4320,
          "time": 21.599999999999998,
          "velocity": 0.8661417322834646
        },
        {
          "duration": 0.6000000000000014,
          "durationTicks": 120,
          "midi": 64,
          "name": "E4",
          "ticks": 4440,
          "time": 22.2,
          "velocity": 0.8661417322834646
        },
        {
          "duration": 1.1999999999999993,
          "durationTicks": 240,
          "midi": 66,
          "name": "F#4",
          "ticks": 4560,
          "time": 22.8,
          "velocity": 0.8661417322834646
        },
        {
          "duration": 0.5999999999999979,
          "durationTicks": 120,
          "midi": 67,
          "name": "G4",
          "ticks": 4800,
          "time": 24,
          "velocity": 0.8661417322834646
        },
        {
          "duration": 0.6000000000000014,
          "durationTicks": 120,
          "midi": 59,
          "name": "B3",
          "ticks": 4920,
          "time": 24.599999999999998,
          "velocity": 0.8661417322834646
        },
        {
          "duration": 0.6000000000000014,
          "durationTicks": 120,
          "midi": 62,
          "name": "D4",
          "ticks": 5040,
          "time": 25.2,
          "velocity": 0.8661417322834646
        },
        {
          "duration": 0.5999999999999979,
          "durationTicks": 120,
          "midi": 59,
          "name": "B3",
          "ticks": 5160,
          "time": 25.8,
          "velocity": 0.8661417322834646
        },
        {
          "duration": 2.3999999999999986,
          "durationTicks": 480,
          "midi": 57,
          "name": "A3",
          "ticks": 5280,
          "time": 26.4,
          "velocity": 0.8661417322834646
        },
        {
          "duration": 0.6000000000000014,
          "durationTicks": 120,
          "midi": 62,
          "name": "D4",
          "ticks": 5760,
          "time": 28.799999999999997,
          "velocity": 0.8661417322834646
        },
        {
          "duration": 0.6000000000000014,
          "durationTicks": 120,
          "midi": 62,
          "name": "D4",
          "ticks": 5880,
          "time": 29.4,
          "velocity": 0.8661417322834646
        },
        {
          "duration": 0.8999999999999986,
          "durationTicks": 180,
          "midi": 62,
          "name": "D4",
          "ticks": 6000,
          "time": 30,
          "velocity": 0.8661417322834646
        },
        {
          "duration": 0.3000000000000007,
          "durationTicks": 60,
          "midi": 62,
          "name": "D4",
          "ticks": 6180,
          "time": 30.9,
          "velocity": 0.8661417322834646
        },
        {
          "duration": 0.5999999999999979,
          "durationTicks": 120,
          "midi": 62,
          "name": "D4",
          "ticks": 6240,
          "time": 31.2,
          "velocity": 0.8661417322834646
        },
        {
          "duration": 0.6000000000000014,
          "durationTicks": 120,
          "midi": 62,
          "name": "D4",
          "ticks": 6360,
          "time": 31.799999999999997,
          "velocity": 0.8661417322834646
        },
        {
          "duration": 1.2000000000000028,
          "durationTicks": 240,
          "midi": 62,
          "name": "D4",
          "ticks": 6480,
          "time": 32.4,
          "velocity": 0.8661417322834646
        },
        {
          "duration": 0.5999999999999943,
          "durationTicks": 120,
          "midi": 57,
          "name": "A3",
          "ticks": 6720,
          "time": 33.6,
          "velocity": 0.8661417322834646
        },
        {
          "duration": 0.6000000000000014,
          "durationTicks": 120,
          "midi": 57,
          "name": "A3",
          "ticks": 6840,
          "time": 34.199999999999996,
          "velocity": 0.8740157480314961
        },
        {
          "duration": 0.8999999999999986,
          "durationTicks": 180,
          "midi": 57,
          "name": "A3",
          "ticks": 6960,
          "time": 34.8,
          "velocity": 0.889763779527559
        },
        {
          "duration": 1.1999999999999957,
          "durationTicks": 240,
          "midi": 57,
          "name": "A3",
          "ticks": 7200,
          "time": 36,
          "velocity": 0.889763779527559
        },
        {
          "duration": 1.2000000000000028,
          "durationTicks": 240,
          "midi": 62,
          "name": "D4",
          "ticks": 7440,
          "time": 37.199999999999996,
          "velocity": 0.889763779527559
        }
      ]
    }
  ]
}