{
  "header": {
    "keySignatures": [
      {
        "key": "C",
        "scale": "major",
        "ticks": 0
      }
    ],
    "meta": [],
    "name": "Melody",
    "ppq": 480,
    "tempos": [
      {
        "bpm": 76.00006586672374,
        "ticks": 0
      }
    ],
    "timeSignatures": [
      {
        "ticks": 0,
        "timeSignature": [
          2,
          4
        ],
        "measures": 0
      }
    ]
  },
  "tracks": [
    {
      "channel": 0,
      "controlChanges": {
        "7": [
          {
            "number": 7,
            "ticks": 0,
            "time": 0,
            "value": 2.0078740157480315
          }
        ]
      },
      "pitchBends": [],
      "instrument": {
        "family": "piano",
        "name": "acoustic grand piano",
        "number": 0
      },
      "name": "",
      "notes": []
    },
    {
      "channel": 0,
      "controlChanges": {
        "7": [
          {
            "number": 7,
            "ticks": 0,
            "time": 0,
            "value": 2.0078740157480315
          }
        ]
      },
      "pitchBends": [],
      "instrument": {
        "family": "piano",
        "name": "acoustic grand piano",
        "number": 0
      },
      "name": "",
      "notes": []
    },
    {
      "channel": 0,
      "controlChanges": {
        "7": [
          {
            "number": 7,
            "ticks": 0,
            "time": 0,
            "value": 2.0078740157480315
          }
        ]
      },
      "pitchBends": [],
      "instrument": {
        "family": "piano",
        "name": "acoustic grand piano",
        "number": 0
      },
      "name": "",
      "notes": []
    },
    {
      "channel": 0,
      "controlChanges": {
        "7": [
          {
            "number": 7,
            "ticks": 0,
            "time": 0,
            "value": 2.0078740157480315
          }
        ]
      },
      "pitchBends": [],
      "instrument": {
        "family": "piano",
        "name": "acoustic grand piano",
        "number": 0
      },
      "name": "",
      "notes": []
    },
    {
      "channel": 0,
      "controlChanges": {
        "7": [
          {
            "number": 7,
            "ticks": 0,
            "time": 0,
            "value": 2.0078740157480315
          }
        ]
      },
      "pitchBends": [],
      "instrument": {
        "family": "piano",
        "name": "acoustic grand piano",
        "number": 0
      },
      "name": "",
      "notes": []
    },
    {
      "channel": 0,
      "controlChanges": {
        "7": [
          {
            "number": 7,
            "ticks": 0,
            "time": 0,
            "value": 2.0078740157480315
          }
        ]
      },
      "pitchBends": [],
      "instrument": {
        "family": "piano",
        "name": "acoustic grand piano",
        "number": 0
      },
      "name": "",
      "notes": []
    },
    {
      "channel": 0,
      "controlChanges": {
        "7": [
          {
            "number": 7,
            "ticks": 0,
            "time": 0,
            "value": 2.0078740157480315
          }
        ]
      },
      "pitchBends": [],
      "instrument": {
        "family": "piano",
        "name": "acoustic grand piano",
        "number": 0
      },
      "name": "",
      "notes": []
    },
    {
      "channel": 0,
      "controlChanges": {
        "7": [
          {
            "number": 7,
            "ticks": 0,
            "time": 0,
            "value": 2.0078740157480315
          }
        ]
      },
      "pitchBends": [],
      "instrument": {
        "family": "piano",
        "name": "acoustic grand piano",
        "number": 0
      },
      "name": "",
      "notes": []
    },
    {
      "channel": 0,
      "controlChanges": {
        "7": [
          {
            "number": 7,
            "ticks": 0,
            "time": 0,
            "value": 2.0078740157480315
          }
        ]
      },
      "pitchBends": [],
      "instrument": {
        "family": "piano",
        "name": "acoustic grand piano",
        "number": 0
      },
      "name": "",
      "notes": []
    },
    {
      "channel": 0,
      "controlChanges": {
        "7": [
          {
            "number": 7,
            "ticks": 0,
            "time": 0,
            "value": 2.0078740157480315
          }
        ]
      },
      "pitchBends": [],
      "instrument": {
        "family": "piano",
        "name": "acoustic grand piano",
        "number": 0
      },
      "name": "",
      "notes": []
    },
    {
      "channel": 0,
      "controlChanges": {
        "7": [
          {
            "number": 7,
            "ticks": 0,
            "time": 0,
            "value": 2.0078740157480315
          }
        ]
      },
      "pitchBends": [],
      "instrument": {
        "family": "piano",
        "name": "acoustic grand piano",
        "number": 0
      },
      "name": "",
      "notes": []
    },
    {
      "channel": 0,
      "controlChanges": {
        "7": [
          {
            "number": 7,
            "ticks": 0,
            "time": 0,
            "value": 2.0078740157480315
          }
        ]
      },
      "pitchBends": [],
      "instrument": {
        "family": "piano",
        "name": "acoustic grand piano",
        "number": 0
      },
      "name": "",
      "notes": []
    },
    {
      "channel": 0,
      "controlChanges": {
        "7": [
          {
            "number": 7,
            "ticks": 0,
            "time": 0,
            "value": 2.0078740157480315
          }
        ]
      },
      "pitchBends": [],
      "instrument": {
        "family": "piano",
        "name": "acoustic grand piano",
        "number": 0
      },
      "name": "",
      "notes": []
    },
    {
      "channel": 0,
      "controlChanges": {
        "7": [
          {
            "number": 7,
            "ticks": 0,
            "time": 0,
            "value": 2.0078740157480315
          }
        ]
      },
      "pitchBends": [],
      "instrument": {
        "family": "piano",
        "name": "acoustic grand piano",
        "number": 0
      },
      "name": "",
      "notes": []
    },
    {
      "channel": 0,
      "controlChanges": {
        "7": [
          {
            "number": 7,
            "ticks": 0,
            "time": 0,
            "value": 2.0078740157480315
          }
        ]
      },
      "pitchBends": [],
      "instrument": {
        "family": "piano",
        "name": "acoustic grand piano",
        "number": 0
      },
      "name": "",
      "notes": []
    },
    {
      "channel": 1,
      "controlChanges": {},
      "pitchBends": [],
      "instrument": {
        "family": "pipe",
        "name": "flute",
        "number": 73
      },
      "name": "Melody",
      "notes": [
        {
          "duration": 0.19078930833333335,
          "durationTicks": 116,
          "midi": 72,
          "name": "C5",
          "ticks": 0,
          "time": 0,
          "velocity": 0.6299212598425197
        },
        {
          "duration": 0.19078930833333335,
          "durationTicks": 116,
          "midi": 74,
          "name": "D5",
          "ticks": 120,
          "time": 0.19736825000000002,
          "velocity": 0.6299212598425197
        },
        {
          "duration": 0.1907893083333334,
          "durationTicks": 116,
          "midi": 72,
          "name": "C5",
          "ticks": 240,
          "time": 0.39473650000000005,
          "velocity": 0.6299212598425197
        },
        {
          "duration": 0.38815755833333343,
          "durationTicks": 236,
          "midi": 79,
          "name": "G5",
          "ticks": 360,
          "time": 0.5921047500000001,
          "velocity": 0.6299212598425197
        },
        {
          "duration": 0.1907893083333334,
          "durationTicks": 116,
          "midi": 76,
          "name": "E5",
          "ticks": 600,
          "time": 0.9868412500000001,
          "velocity": 0.6299212598425197
        },
        {
          "duration": 0.38815755833333343,
          "durationTicks": 236,
          "midi": 74,
          "name": "D5",
          "ticks": 720,
          "time": 1.1842095000000001,
          "velocity": 0.6299212598425197
        },
        {
          "duration": 0.1907893083333334,
          "durationTicks": 116,
          "midi": 72,
          "name": "C5",
          "ticks": 960,
          "time": 1.5789460000000002,
          "velocity": 0.6299212598425197
        },
        {
          "duration": 0.1907893083333334,
          "durationTicks": 116,
          "midi": 74,
          "name": "D5",
          "ticks": 1080,
          "time": 1.7763142500000002,
          "velocity": 0.6299212598425197
        },
        {
          "duration": 0.19078930833333319,
          "durationTicks": 116,
          "midi": 72,
          "name": "C5",
          "ticks": 1200,
          "time": 1.9736825000000002,
          "velocity": 0.6299212598425197
        },
        {
          "duration": 0.38815755833333343,
          "durationTicks": 236,
          "midi": 79,
          "name": "G5",
          "ticks": 1320,
          "time": 2.17105075,
          "velocity": 0.6299212598425197
        },
        {
          "duration": 0.19078930833333319,
          "durationTicks": 116,
          "midi": 76,
          "name": "E5",
          "ticks": 1560,
          "time": 2.5657872500000005,
          "velocity": 0.6299212598425197
        },
        {
          "duration": 0.38815755833333343,
          "durationTicks": 236,
          "midi": 74,
          "name": "D5",
          "ticks": 1680,
          "time": 2.7631555000000003,
          "velocity": 0.6299212598425197
        },
        {
          "duration": 0.19078930833333319,
          "durationTicks": 116,
          "midi": 72,
          "name": "C5",
          "ticks": 1920,
          "time": 3.1578920000000004,
          "velocity": 0.6299212598425197
        },
        {
          "duration": 0.19078930833333274,
          "durationTicks": 116,
          "midi": 74,
          "name": "D5",
          "ticks": 2040,
          "time": 3.3552602500000006,
          "velocity": 0.6299212598425197
        },
        {
          "duration": 0.19078930833333319,
          "durationTicks": 116,
          "midi": 72,
          "name": "C5",
          "ticks": 2160,
          "time": 3.5526285000000004,
          "velocity": 0.6299212598425197
        },
        {
          "duration": 0.388157558333333,
          "durationTicks": 236,
          "midi": 79,
          "name": "G5",
          "ticks": 2280,
          "time": 3.74999675,
          "velocity": 0.6299212598425197
        },
        {
          "duration": 0.19078930833333274,
          "durationTicks": 116,
          "midi": 76,
          "name": "E5",
          "ticks": 2520,
          "time": 4.144733250000001,
          "velocity": 0.6299212598425197
        },
        {
          "duration": 0.3881575583333339,
          "durationTicks": 236,
          "midi": 74,
          "name": "D5",
          "ticks": 2640,
          "time": 4.3421015,
          "velocity": 0.6299212598425197
        },
        {
          "duration": 0.7828940583333335,
          "durationTicks": 476,
          "midi": 76,
          "name": "E5",
          "ticks": 2880,
          "time": 4.7368380000000005,
          "velocity": 0.6299212598425197
        },
        {
          "duration": 0.7828940583333335,
          "durationTicks": 476,
          "midi": 69,
          "name": "A4",
          "ticks": 2880,
          "time": 4.7368380000000005,
          "velocity": 0.6299212598425197
        },
        {
          "duration": 0.388157558333333,
          "durationTicks": 236,
          "midi": 74,
          "name": "D5",
          "ticks": 3360,
          "time": 5.526311000000001,
          "velocity": 0.6299212598425197
        },
        {
          "duration": 0.3881575583333339,
          "durationTicks": 236,
          "midi": 72,
          "name": "C5",
          "ticks": 3600,
          "time": 5.9210475,
          "velocity": 0.6299212598425197
        },
        {
          "duration": 0.19078930833333363,
          "durationTicks": 116,
          "midi": 72,
          "name": "C5",
          "ticks": 3840,
          "time": 6.315784000000001,
          "velocity": 0.6299212598425197
        },
        {
          "duration": 0.19078930833333363,
          "durationTicks": 116,
          "midi": 74,
          "name": "D5",
          "ticks": 3960,
          "time": 6.513152250000001,
          "velocity": 0.6299212598425197
        },
        {
          "duration": 0.19078930833333363,
          "durationTicks": 116,
          "midi": 72,
          "name": "C5",
          "ticks": 4080,
          "time": 6.710520500000001,
          "velocity": 0.6299212598425197
        },
        {
          "duration": 0.3881575583333339,
          "durationTicks": 236,
          "midi": 79,
          "name": "G5",
          "ticks": 4200,
          "time": 6.907888750000001,
          "velocity": 0.6299212598425197
        },
        {
          "duration": 0.19078930833333363,
          "durationTicks": 116,
          "midi": 76,
          "name": "E5",
          "ticks": 4440,
          "time": 7.302625250000001,
          "velocity": 0.6299212598425197
        },
        {
          "duration": 0.3881575583333339,
          "durationTicks": 236,
          "midi": 74,
          "name": "D5",
          "ticks": 4560,
          "time": 7.4999935,
          "velocity": 0.6299212598425197
        },
        {
          "duration": 0.19078930833333452,
          "durationTicks": 116,
          "midi": 72,
          "name": "C5",
          "ticks": 4800,
          "time": 7.894730000000001,
          "velocity": 0.6299212598425197
        },
        {
          "duration": 0.19078930833333274,
          "durationTicks": 116,
          "midi": 74,
          "name": "D5",
          "ticks": 4920,
          "time": 8.092098250000001,
          "velocity": 0.6299212598425197
        },
        {
          "duration": 0.19078930833333274,
          "durationTicks": 116,
          "midi": 72,
          "name": "C5",
          "ticks": 5040,
          "time": 8.289466500000001,
          "velocity": 0.6299212598425197
        },
        {
          "duration": 0.388157558333333,
          "durationTicks": 236,
          "midi": 79,
          "name": "G5",
          "ticks": 5160,
          "time": 8.486834750000002,
          "velocity": 0.6299212598425197
        },
        {
          "duration": 0.19078930833333452,
          "durationTicks": 116,
          "midi": 76,
          "name": "E5",
          "ticks": 5400,
          "time": 8.88157125,
          "velocity": 0.6299212598425197
        },
        {
          "duration": 0.38815755833333476,
          "durationTicks": 236,
          "midi": 74,
          "name": "D5",
          "ticks": 5520,
          "time": 9.0789395,
          "velocity": 0.6299212598425197
        },
        {
          "duration": 0.19078930833333452,
          "durationTicks": 116,
          "midi": 72,
          "name": "C5",
          "ticks": 5760,
          "time": 9.473676000000001,
          "velocity": 0.6299212598425197
        },
        {
          "duration": 0.19078930833333274,
          "durationTicks": 116,
          "midi": 74,
          "name": "D5",
          "ticks": 5880,
          "time": 9.671044250000001,
          "velocity": 0.6299212598425197
        },
        {
          "duration": 0.19078930833333274,
          "durationTicks": 116,
          "midi": 72,
          "name": "C5",
          "ticks": 6000,
          "time": 9.868412500000002,
          "velocity": 0.6299212598425197
        },
        {
          "duration": 0.388157558333333,
          "durationTicks": 236,
          "midi": 79,
          "name": "G5",
          "ticks": 6120,
          "time": 10.065780750000002,
          "velocity": 0.6299212598425197
        },
        {
          "duration": 0.19078930833333452,
          "durationTicks": 116,
          "midi": 76,
          "name": "E5",
          "ticks": 6360,
          "time": 10.46051725,
          "velocity": 0.6299212598425197
        },
        {
          "duration": 0.38815755833333476,
          "durationTicks": 236,
          "midi": 74,
          "name": "D5",
          "ticks": 6480,
          "time": 10.6578855,
          "velocity": 0.6299212598425197
        },
        {
          "duration": 0.7828940583333335,
          "durationTicks": 476,
          "midi": 76,
          "name": "E5",
          "ticks": 6720,
          "time": 11.052622000000001,
          "velocity": 0.6299212598425197
        },
        {
          "duration": 0.7828940583333335,
          "durationTicks": 476,
          "midi": 69,
          "name": "A4",
          "ticks": 6720,
          "time": 11.052622000000001,
          "velocity": 0.6299212598425197
        },
        {
          "duration": 0.38815755833333476,
          "durationTicks": 236,
          "midi": 81,
          "name": "A5",
          "ticks": 7200,
          "time": 11.842095,
          "velocity": 0.6299212598425197
        },
        {
          "duration": 0.38815755833333476,
          "durationTicks": 236,
          "midi": 84,
          "name": "C6",
          "ticks": 7440,
          "time": 12.236831500000001,
          "velocity": 0.6299212598425197
        },
        {
          "duration": 0.388157558333333,
          "durationTicks": 236,
          "midi": 86,
          "name": "D6",
          "ticks": 7680,
          "time": 12.631568000000001,
          "velocity": 0.6299212598425197
        },
        {
          "duration": 0.388157558333333,
          "durationTicks": 236,
          "midi": 84,
          "name": "C6",
          "ticks": 7920,
          "time": 13.026304500000002,
          "velocity": 0.6299212598425197
        },
        {
          "duration": 0.388157558333333,
          "durationTicks": 236,
          "midi": 86,
          "name": "D6",
          "ticks": 8160,
          "time": 13.421041000000002,
          "velocity": 0.6299212598425197
        },
        {
          "duration": 0.38815755833333476,
          "durationTicks": 236,
          "midi": 88,
          "name": "E6",
          "ticks": 8400,
          "time": 13.815777500000001,
          "velocity": 0.6299212598425197
        },
        {
          "duration": 0.5855258083333332,
          "durationTicks": 356,
          "midi": 91,
          "name": "G6",
          "ticks": 8640,
          "time": 14.210514000000002,
          "velocity": 0.6299212598425197
        },
        {
          "duration": 0.19078930833333274,
          "durationTicks": 116,
          "midi": 88,
          "name": "E6",
          "ticks": 9000,
          "time": 14.802618750000002,
          "velocity": 0.6299212598425197
        },
        {
          "duration": 0.38815755833333476,
          "durationTicks": 236,
          "midi": 88,
          "name": "E6",
          "ticks": 9120,
          "time": 14.999987,
          "velocity": 0.6299212598425197
        },
        {
          "duration": 0.38815755833333476,
          "durationTicks": 236,
          "midi": 84,
          "name": "C6",
          "ticks": 9360,
          "time": 15.394723500000001,
          "velocity": 0.6299212598425197
        },
        {
          "duration": 0.5855258083333332,
          "durationTicks": 356,
          "midi": 86,
          "name": "D6",
          "ticks": 9600,
          "time": 15.789460000000002,
          "velocity": 0.6299212598425197
        },
        {
          "duration": 0.19078930833333274,
          "durationTicks": 116,
          "midi": 88,
          "name": "E6",
          "ticks": 9960,
          "time": 16.381564750000003,
          "velocity": 0.6299212598425197
        },
        {
          "duration": 0.388157558333333,
          "durationTicks": 236,
          "midi": 86,
          "name": "D6",
          "ticks": 10080,
          "time": 16.578933000000003,
          "velocity": 0.6299212598425197
        },
        {
          "duration": 0.388157558333333,
          "durationTicks": 236,
          "midi": 84,
          "name": "C6",
          "ticks": 10320,
          "time": 16.973669500000003,
          "velocity": 0.6299212598425197
        },
        {
          "duration": 1.5723670583333345,
          "durationTicks": 956,
          "midi": 81,
          "name": "A5",
          "ticks": 10560,
          "time": 17.368406,
          "velocity": 0.6299212598425197
        },
        {
          "duration": 0.388157558333333,
          "durationTicks": 236,
          "midi": 81,
          "name": "A5",
          "ticks": 11520,
          "time": 18.947352000000002,
          "velocity": 0.6299212598425197
        },
        {
          "duration": 0.7828940583333335,
          "durationTicks": 476,
          "midi": 81,
          "name": "A5",
          "ticks": 11760,
          "time": 19.342088500000003,
          "velocity": 0.6299212598425197
        },
        {
          "duration": 0.388157558333333,
          "durationTicks": 236,
          "midi": 88,
          "name": "E6",
          "ticks": 12240,
          "time": 20.131561500000004,
          "velocity": 0.6299212598425197
        },
        {
          "duration": 0.388157558333333,
          "durationTicks": 236,
          "midi": 86,
          "name": "D6",
          "ticks": 12480,
          "time": 20.526298000000004,
          "velocity": 0.6299212598425197
        },
        {
          "duration": 0.1907893083333363,
          "durationTicks": 116,
          "midi": 88,
          "name": "E6",
          "ticks": 12720,
          "time": 20.9210345,
          "velocity": 0.6299212598425197
        },
        {
          "duration": 0.1907893083333363,
          "durationTicks": 116,
          "midi": 86,
          "name": "D6",
          "ticks": 12840,
          "time": 21.11840275,
          "velocity": 0.6299212598425197
        },
        {
          "duration": 0.388157558333333,
          "durationTicks": 236,
          "midi": 83,
          "name": "B5",
          "ticks": 12960,
          "time": 21.315771,
          "velocity": 0.6299212598425197
        },
        {
          "duration": 0.388157558333333,
          "durationTicks": 236,
          "midi": 79,
          "name": "G5",
          "ticks": 13200,
          "time": 21.710507500000002,
          "velocity": 0.6299212598425197
        },
        {
          "duration": 0.1776314250000013,
          "durationTicks": 108,
          "midi": 79,
          "name": "G5",
          "ticks": 13328,
          "time": 21.921033633333334,
          "velocity": 0.6299212598425197
        },
        {
          "duration": 3.151313058333333,
          "durationTicks": 1916,
          "midi": 81,
          "name": "A5",
          "ticks": 13440,
          "time": 22.105244000000003,
          "velocity": 0.6299212598425197
        },
        {
          "duration": 0.388157558333333,
          "durationTicks": 236,
          "midi": 69,
          "name": "A4",
          "ticks": 15360,
          "time": 25.263136000000003,
          "velocity": 0.6299212598425197
        },
        {
          "duration": 0.19078930833333274,
          "durationTicks": 116,
          "midi": 72,
          "name": "C5",
          "ticks": 15600,
          "time": 25.657872500000003,
          "velocity": 0.6299212598425197
        },
        {
          "duration": 0.5855258083333332,
          "durationTicks": 356,
          "midi": 74,
          "name": "D5",
          "ticks": 15720,
          "time": 25.855240750000004,
          "velocity": 0.6299212598425197
        },
        {
          "duration": 0.388157558333333,
          "durationTicks": 236,
          "midi": 72,
          "name": "C5",
          "ticks": 16080,
          "time": 26.447345500000004,
          "velocity": 0.6299212598425197
        },
        {
          "duration": 0.5855258083333332,
          "durationTicks": 356,
          "midi": 69,
          "name": "A4",
          "ticks": 16320,
          "time": 26.842082000000005,
          "velocity": 0.6299212598425197
        },
        {
          "duration": 0.1907893083333363,
          "durationTicks": 116,
          "midi": 67,
          "name": "G4",
          "ticks": 16680,
          "time": 27.434186750000002,
          "velocity": 0.6299212598425197
        },
        {
          "duration": 0.7828940583333335,
          "durationTicks": 476,
          "midi": 67,
          "name": "G4",
          "ticks": 16800,
          "time": 27.631555000000002,
          "velocity": 0.6299212598425197
        },
        {
          "duration": 0.388157558333333,
          "durationTicks": 236,
          "midi": 69,
          "name": "A4",
          "ticks": 17280,
          "time": 28.421028000000003,
          "velocity": 0.6299212598425197
        },
        {
          "duration": 0.19078930833333274,
          "durationTicks": 116,
          "midi": 72,
          "name": "C5",
          "ticks": 17520,
          "time": 28.815764500000004,
          "velocity": 0.6299212598425197
        },
        {
          "duration": 0.5855258083333332,
          "durationTicks": 356,
          "midi": 74,
          "name": "D5",
          "ticks": 17640,
          "time": 29.013132750000004,
          "velocity": 0.6299212598425197
        },
        {
          "duration": 0.388157558333333,
          "durationTicks": 236,
          "midi": 72,
          "name": "C5",
          "ticks": 18000,
          "time": 29.605237500000005,
          "velocity": 0.6299212598425197
        },
        {
          "duration": 0.5855258083333368,
          "durationTicks": 356,
          "midi": 69,
          "name": "A4",
          "ticks": 18240,
          "time": 29.999974,
          "velocity": 0.6299212598425197
        },
        {
          "duration": 0.1907893083333363,
          "durationTicks": 116,
          "midi": 67,
          "name": "G4",
          "ticks": 18600,
          "time": 30.592078750000002,
          "velocity": 0.6299212598425197
        },
        {
          "duration": 0.7828940583333335,
          "durationTicks": 476,
          "midi": 67,
          "name": "G4",
          "ticks": 18720,
          "time": 30.789447000000003,
          "velocity": 0.6299212598425197
        },
        {
          "duration": 0.388157558333333,
          "durationTicks": 236,
          "midi": 69,
          "name": "A4",
          "ticks": 19200,
          "time": 31.578920000000004,
          "velocity": 0.6299212598425197
        },
        {
          "duration": 0.1907893083333363,
          "durationTicks": 116,
          "midi": 72,
          "name": "C5",
          "ticks": 19440,
          "time": 31.973656500000004,
          "velocity": 0.6299212598425197
        },
        {
          "duration": 0.5855258083333368,
          "durationTicks": 356,
          "midi": 74,
          "name": "D5",
          "ticks": 19560,
          "time": 32.17102475,
          "velocity": 0.6299212598425197
        },
        {
          "duration": 0.388157558333333,
          "durationTicks": 236,
          "midi": 72,
          "name": "C5",
          "ticks": 19920,
          "time": 32.763129500000005,
          "velocity": 0.6299212598425197
        },
        {
          "duration": 0.388157558333333,
          "durationTicks": 236,
          "midi": 71,
          "name": "B4",
          "ticks": 20160,
          "time": 33.157866000000006,
          "velocity": 0.6299212598425197
        },
        {
          "duration": 0.1907893083333292,
          "durationTicks": 116,
          "midi": 72,
          "name": "C5",
          "ticks": 20400,
          "time": 33.552602500000006,
          "velocity": 0.6299212598425197
        },
        {
          "duration": 0.1907893083333363,
          "durationTicks": 116,
          "midi": 71,
          "name": "B4",
          "ticks": 20520,
          "time": 33.74997075,
          "velocity": 0.6299212598425197
        },
        {
          "duration": 0.388157558333333,
          "durationTicks": 236,
          "midi": 69,
          "name": "A4",
          "ticks": 20640,
          "time": 33.94733900000001,
          "velocity": 0.6299212598425197
        },
        {
          "duration": 0.388157558333333,
          "durationTicks": 236,
          "midi": 67,
          "name": "G4",
          "ticks": 20880,
          "time": 34.34207550000001,
          "velocity": 0.6299212598425197
        },
        {
          "duration": 1.5723670583333345,
          "durationTicks": 956,
          "midi": 64,
          "name": "E4",
          "ticks": 21120,
          "time": 34.736812,
          "velocity": 0.6299212598425197
        },
        {
          "duration": 0.1907893083333363,
          "durationTicks": 116,
          "midi": 64,
          "name": "E4",
          "ticks": 22320,
          "time": 36.7104945,
          "velocity": 0.6299212598425197
        },
        {
          "duration": 0.5855258083333297,
          "durationTicks": 356,
          "midi": 69,
          "name": "A4",
          "ticks": 22440,
          "time": 36.90786275000001,
          "velocity": 0.6299212598425197
        },
        {
          "duration": 0.388157558333333,
          "durationTicks": 236,
          "midi": 67,
          "name": "G4",
          "ticks": 22800,
          "time": 37.499967500000004,
          "velocity": 0.6299212598425197
        },
        {
          "duration": 0.388157558333333,
          "durationTicks": 236,
          "midi": 69,
          "name": "A4",
          "ticks": 23040,
          "time": 37.894704000000004,
          "velocity": 0.6299212598425197
        },
        {
          "duration": 0.1907893083333363,
          "durationTicks": 116,
          "midi": 72,
          "name": "C5",
          "ticks": 23280,
          "time": 38.289440500000005,
          "velocity": 0.6299212598425197
        },
        {
          "duration": 0.5855258083333368,
          "durationTicks": 356,
          "midi": 74,
          "name": "D5",
          "ticks": 23400,
          "time": 38.48680875,
          "velocity": 0.6299212598425197
        },
        {
          "duration": 0.388157558333333,
          "durationTicks": 236,
          "midi": 72,
          "name": "C5",
          "ticks": 23760,
          "time": 39.078913500000006,
          "velocity": 0.6299212598425197
        },
        {
          "duration": 0.5855258083333297,
          "durationTicks": 356,
          "midi": 69,
          "name": "A4",
          "ticks": 24000,
          "time": 39.473650000000006,
          "velocity": 0.6299212598425197
        },
        {
          "duration": 0.1907893083333363,
          "durationTicks": 116,
          "midi": 67,
          "name": "G4",
          "ticks": 24360,
          "time": 40.06575475,
          "velocity": 0.6299212598425197
        },
        {
          "duration": 0.7828940583333335,
          "durationTicks": 476,
          "midi": 67,
          "name": "G4",
          "ticks": 24480,
          "time": 40.26312300000001,
          "velocity": 0.6299212598425197
        },
        {
          "duration": 0.388157558333333,
          "durationTicks": 236,
          "midi": 69,
          "name": "A4",
          "ticks": 24960,
          "time": 41.05259600000001,
          "velocity": 0.6299212598425197
        },
        {
          "duration": 0.1907893083333363,
          "durationTicks": 116,
          "midi": 72,
          "name": "C5",
          "ticks": 25200,
          "time": 41.4473325,
          "velocity": 0.6299212598425197
        },
        {
          "duration": 0.5855258083333297,
          "durationTicks": 356,
          "midi": 74,
          "name": "D5",
          "ticks": 25320,
          "time": 41.644700750000005,
          "velocity": 0.6299212598425197
        },
        {
          "duration": 0.388157558333333,
          "durationTicks": 236,
          "midi": 72,
          "name": "C5",
          "ticks": 25680,
          "time": 42.2368055,
          "velocity": 0.6299212598425197
        },
        {
          "duration": 0.5855258083333368,
          "durationTicks": 356,
          "midi": 69,
          "name": "A4",
          "ticks": 25920,
          "time": 42.631542,
          "velocity": 0.6299212598425197
        },
        {
          "duration": 0.1907893083333292,
          "durationTicks": 116,
          "midi": 67,
          "name": "G4",
          "ticks": 26280,
          "time": 43.22364675000001,
          "velocity": 0.6299212598425197
        },
        {
          "duration": 0.7828940583333335,
          "durationTicks": 476,
          "midi": 67,
          "name": "G4",
          "ticks": 26400,
          "time": 43.421015000000004,
          "velocity": 0.6299212598425197
        },
        {
          "duration": 0.388157558333333,
          "durationTicks": 236,
          "midi": 69,
          "name": "A4",
          "ticks": 26880,
          "time": 44.210488000000005,
          "velocity": 0.6299212598425197
        },
        {
          "duration": 0.1907893083333363,
          "durationTicks": 116,
          "midi": 72,
          "name": "C5",
          "ticks": 27120,
          "time": 44.605224500000006,
          "velocity": 0.6299212598425197
        },
        {
          "duration": 0.5855258083333368,
          "durationTicks": 356,
          "midi": 74,
          "name": "D5",
          "ticks": 27240,
          "time": 44.80259275,
          "velocity": 0.6299212598425197
        },
        {
          "duration": 0.388157558333333,
          "durationTicks": 236,
          "midi": 72,
          "name": "C5",
          "ticks": 27600,
          "time": 45.39469750000001,
          "velocity": 0.6299212598425197
        },
        {
          "duration": 0.388157558333333,
          "durationTicks": 236,
          "midi": 71,
          "name": "B4",
          "ticks": 27840,
          "time": 45.78943400000001,
          "velocity": 0.6299212598425197
        },
        {
          "duration": 0.1907893083333292,
          "durationTicks": 116,
          "midi": 72,
          "name": "C5",
          "ticks": 28080,
          "time": 46.18417050000001,
          "velocity": 0.6299212598425197
        },
        {
          "duration": 0.1907893083333363,
          "durationTicks": 116,
          "midi": 71,
          "name": "B4",
          "ticks": 28200,
          "time": 46.381538750000004,
          "velocity": 0.6299212598425197
        },
        {
          "duration": 0.388157558333333,
          "durationTicks": 236,
          "midi": 69,
          "name": "A4",
          "ticks": 28320,
          "time": 46.57890700000001,
          "velocity": 0.6299212598425197
        },
        {
          "duration": 0.388157558333333,
          "durationTicks": 236,
          "midi": 67,
          "name": "G4",
          "ticks": 28560,
          "time": 46.97364350000001,
          "velocity": 0.6299212598425197
        },
        {
          "duration": 1.5723670583333345,
          "durationTicks": 956,
          "midi": 69,
          "name": "A4",
          "ticks": 28800,
          "time": 47.36838,
          "velocity": 0.6299212598425197
        },
        {
          "duration": 0.1907893083333363,
          "durationTicks": 116,
          "midi": 67,
          "name": "G4",
          "ticks": 30480,
          "time": 50.131535500000005,
          "velocity": 0.6299212598425197
        },
        {
          "duration": 0.1907893083333292,
          "durationTicks": 116,
          "midi": 69,
          "name": "A4",
          "ticks": 30600,
          "time": 50.32890375000001,
          "velocity": 0.6299212598425197
        },
        {
          "duration": 0.1907893083333292,
          "durationTicks": 116,
          "midi": 72,
          "name": "C5",
          "ticks": 30720,
          "time": 50.526272000000006,
          "velocity": 0.6299212598425197
        },
        {
          "duration": 0.1907893083333292,
          "durationTicks": 116,
          "midi": 72,
          "name": "C5",
          "ticks": 30840,
          "time": 50.72364025,
          "velocity": 0.6299212598425197
        },
        {
          "duration": 0.1907893083333292,
          "durationTicks": 116,
          "midi": 72,
          "name": "C5",
          "ticks": 30960,
          "time": 50.921008500000006,
          "velocity": 0.6299212598425197
        },
        {
          "duration": 0.1907893083333292,
          "durationTicks": 116,
          "midi": 69,
          "name": "A4",
          "ticks": 31080,
          "time": 51.11837675,
          "velocity": 0.6299212598425197
        },
        {
          "duration": 0.1907893083333292,
          "durationTicks": 116,
          "midi": 72,
          "name": "C5",
          "ticks": 31200,
          "time": 51.31574500000001,
          "velocity": 0.6299212598425197
        },
        {
          "duration": 0.1907893083333292,
          "durationTicks": 116,
          "midi": 72,
          "name": "C5",
          "ticks": 31320,
          "time": 51.51311325,
          "velocity": 0.6299212598425197
        },
        {
          "duration": 0.1907893083333292,
          "durationTicks": 116,
          "midi": 72,
          "name": "C5",
          "ticks": 31440,
          "time": 51.71048150000001,
          "velocity": 0.6299212598425197
        },
        {
          "duration": 0.1907893083333292,
          "durationTicks": 116,
          "midi": 69,
          "name": "A4",
          "ticks": 31560,
          "time": 51.907849750000004,
          "velocity": 0.6299212598425197
        },
        {
          "duration": 0.1907893083333292,
          "durationTicks": 116,
          "midi": 72,
          "name": "C5",
          "ticks": 31680,
          "time": 52.10521800000001,
          "velocity": 0.6299212598425197
        },
        {
          "duration": 0.1907893083333292,
          "durationTicks": 116,
          "midi": 72,
          "name": "C5",
          "ticks": 31800,
          "time": 52.302586250000004,
          "velocity": 0.6299212598425197
        },
        {
          "duration": 0.1907893083333292,
          "durationTicks": 116,
          "midi": 72,
          "name": "C5",
          "ticks": 31920,
          "time": 52.49995450000001,
          "velocity": 0.6299212598425197
        },
        {
          "duration": 0.1907893083333292,
          "durationTicks": 116,
          "midi": 69,
          "name": "A4",
          "ticks": 32040,
          "time": 52.697322750000005,
          "velocity": 0.6299212598425197
        },
        {
          "duration": 0.19078930833332208,
          "durationTicks": 116,
          "midi": 67,
          "name": "G4",
          "ticks": 32400,
          "time": 53.28942750000001,
          "velocity": 0.6299212598425197
        },
        {
          "duration": 0.1907893083333292,
          "durationTicks": 116,
          "midi": 69,
          "name": "A4",
          "ticks": 32520,
          "time": 53.486795750000006,
          "velocity": 0.6299212598425197
        },
        {
          "duration": 0.19078930833332208,
          "durationTicks": 116,
          "midi": 72,
          "name": "C5",
          "ticks": 32640,
          "time": 53.68416400000001,
          "velocity": 0.6299212598425197
        },
        {
          "duration": 0.1907893083333292,
          "durationTicks": 116,
          "midi": 72,
          "name": "C5",
          "ticks": 32760,
          "time": 53.88153225000001,
          "velocity": 0.6299212598425197
        },
        {
          "duration": 0.1907893083333292,
          "durationTicks": 116,
          "midi": 72,
          "name": "C5",
          "ticks": 32880,
          "time": 54.0789005,
          "velocity": 0.6299212598425197
        },
        {
          "duration": 0.1907893083333292,
          "durationTicks": 116,
          "midi": 69,
          "name": "A4",
          "ticks": 33000,
          "time": 54.27626875000001,
          "velocity": 0.6299212598425197
        },
        {
          "duration": 0.1907893083333292,
          "durationTicks": 116,
          "midi": 72,
          "name": "C5",
          "ticks": 33120,
          "time": 54.473637000000004,
          "velocity": 0.6299212598425197
        },
        {
          "duration": 0.1907893083333292,
          "durationTicks": 116,
          "midi": 72,
          "name": "C5",
          "ticks": 33240,
          "time": 54.67100525000001,
          "velocity": 0.6299212598425197
        },
        {
          "duration": 0.1907893083333292,
          "durationTicks": 116,
          "midi": 72,
          "name": "C5",
          "ticks": 33360,
          "time": 54.868373500000004,
          "velocity": 0.6299212598425197
        },
        {
          "duration": 0.1907893083333292,
          "durationTicks": 116,
          "midi": 69,
          "name": "A4",
          "ticks": 33480,
          "time": 55.06574175000001,
          "velocity": 0.6299212598425197
        },
        {
          "duration": 0.1907893083333292,
          "durationTicks": 116,
          "midi": 76,
          "name": "E5",
          "ticks": 33600,
          "time": 55.263110000000005,
          "velocity": 0.6299212598425197
        },
        {
          "duration": 0.1907893083333292,
          "durationTicks": 116,
          "midi": 74,
          "name": "D5",
          "ticks": 33720,
          "time": 55.46047825000001,
          "velocity": 0.6299212598425197
        },
        {
          "duration": 0.1907893083333292,
          "durationTicks": 116,
          "midi": 72,
          "name": "C5",
          "ticks": 33840,
          "time": 55.657846500000005,
          "velocity": 0.6299212598425197
        },
        {
          "duration": 0.1907893083333292,
          "durationTicks": 116,
          "midi": 69,
          "name": "A4",
          "ticks": 33960,
          "time": 55.85521475000001,
          "velocity": 0.6299212598425197
        },
        {
          "duration": 0.1907893083333292,
          "durationTicks": 116,
          "midi": 67,
          "name": "G4",
          "ticks": 34320,
          "time": 56.447319500000006,
          "velocity": 0.6299212598425197
        },
        {
          "duration": 0.19078930833332208,
          "durationTicks": 116,
          "midi": 69,
          "name": "A4",
          "ticks": 34440,
          "time": 56.64468775000001,
          "velocity": 0.6299212598425197
        },
        {
          "duration": 0.5855258083333297,
          "durationTicks": 356,
          "midi": 72,
          "name": "C5",
          "ticks": 34560,
          "time": 56.84205600000001,
          "velocity": 0.6299212598425197
        },
        {
          "duration": 0.1907893083333292,
          "durationTicks": 116,
          "midi": 69,
          "name": "A4",
          "ticks": 34920,
          "time": 57.434160750000004,
          "velocity": 0.6299212598425197
        },
        {
          "duration": 0.3881575583333259,
          "durationTicks": 236,
          "midi": 72,
          "name": "C5",
          "ticks": 35280,
          "time": 58.02626550000001,
          "velocity": 0.6299212598425197
        },
        {
          "duration": 0.3881575583333259,
          "durationTicks": 236,
          "midi": 71,
          "name": "B4",
          "ticks": 35520,
          "time": 58.42100200000001,
          "velocity": 0.6299212598425197
        },
        {
          "duration": 0.1907893083333292,
          "durationTicks": 116,
          "midi": 72,
          "name": "C5",
          "ticks": 35760,
          "time": 58.81573850000001,
          "velocity": 0.6299212598425197
        },
        {
          "duration": 0.1907893083333292,
          "durationTicks": 116,
          "midi": 71,
          "name": "B4",
          "ticks": 35880,
          "time": 59.013106750000006,
          "velocity": 0.6299212598425197
        },
        {
          "duration": 0.3881575583333259,
          "durationTicks": 236,
          "midi": 69,
          "name": "A4",
          "ticks": 36000,
          "time": 59.21047500000001,
          "velocity": 0.6299212598425197
        },
        {
          "duration": 0.3881575583333259,
          "durationTicks": 236,
          "midi": 67,
          "name": "G4",
          "ticks": 36240,
          "time": 59.60521150000001,
          "velocity": 0.6299212598425197
        },
        {
          "duration": 0.7828940583333335,
          "durationTicks": 476,
          "midi": 64,
          "name": "E4",
          "ticks": 36480,
          "time": 59.999948,
          "velocity": 0.6299212598425197
        },
        {
          "duration": 0.1907893083333292,
          "durationTicks": 116,
          "midi": 64,
          "name": "E4",
          "ticks": 37320,
          "time": 61.38152575000001,
          "velocity": 0.6299212598425197
        },
        {
          "duration": 0.1907893083333292,
          "durationTicks": 116,
          "midi": 67,
          "name": "G4",
          "ticks": 37440,
          "time": 61.578894000000005,
          "velocity": 0.6299212598425197
        },
        {
          "duration": 0.1907893083333292,
          "durationTicks": 116,
          "midi": 64,
          "name": "E4",
          "ticks": 37560,
          "time": 61.77626225000001,
          "velocity": 0.6299212598425197
        },
        {
          "duration": 0.1907893083333292,
          "durationTicks": 116,
          "midi": 69,
          "name": "A4",
          "ticks": 37680,
          "time": 61.973630500000006,
          "velocity": 0.6299212598425197
        },
        {
          "duration": 0.1907893083333292,
          "durationTicks": 116,
          "midi": 67,
          "name": "G4",
          "ticks": 37800,
          "time": 62.17099875000001,
          "velocity": 0.6299212598425197
        },
        {
          "duration": 0.1907893083333292,
          "durationTicks": 116,
          "midi": 67,
          "name": "G4",
          "ticks": 38160,
          "time": 62.76310350000001,
          "velocity": 0.6299212598425197
        },
        {
          "duration": 0.19078930833332208,
          "durationTicks": 116,
          "midi": 69,
          "name": "A4",
          "ticks": 38280,
          "time": 62.96047175000001,
          "velocity": 0.6299212598425197
        },
        {
          "duration": 0.1907893083333292,
          "durationTicks": 116,
          "midi": 72,
          "name": "C5",
          "ticks": 38400,
          "time": 63.15784000000001,
          "velocity": 0.6299212598425197
        },
        {
          "duration": 0.1907893083333292,
          "durationTicks": 116,
          "midi": 72,
          "name": "C5",
          "ticks": 38520,
          "time": 63.355208250000004,
          "velocity": 0.6299212598425197
        },
        {
          "duration": 0.1907893083333292,
          "durationTicks": 116,
          "midi": 72,
          "name": "C5",
          "ticks": 38640,
          "time": 63.55257650000001,
          "velocity": 0.6299212598425197
        },
        {
          "duration": 0.1907893083333292,
          "durationTicks": 116,
          "midi": 69,
          "name": "A4",
          "ticks": 38760,
          "time": 63.749944750000004,
          "velocity": 0.6299212598425197
        },
        {
          "duration": 0.19078930833332208,
          "durationTicks": 116,
          "midi": 72,
          "name": "C5",
          "ticks": 38880,
          "time": 63.94731300000001,
          "velocity": 0.6299212598425197
        },
        {
          "duration": 0.1907893083333363,
          "durationTicks": 116,
          "midi": 72,
          "name": "C5",
          "ticks": 39000,
          "time": 64.14468125,
          "velocity": 0.6299212598425197
        },
        {
          "duration": 0.1907893083333363,
          "durationTicks": 116,
          "midi": 72,
          "name": "C5",
          "ticks": 39120,
          "time": 64.3420495,
          "velocity": 0.6299212598425197
        },
        {
          "duration": 0.19078930833332208,
          "durationTicks": 116,
          "midi": 69,
          "name": "A4",
          "ticks": 39240,
          "time": 64.53941775000001,
          "velocity": 0.6299212598425197
        },
        {
          "duration": 0.19078930833332208,
          "durationTicks": 116,
          "midi": 72,
          "name": "C5",
          "ticks": 39360,
          "time": 64.73678600000001,
          "velocity": 0.6299212598425197
        },
        {
          "duration": 0.1907893083333363,
          "durationTicks": 116,
          "midi": 72,
          "name": "C5",
          "ticks": 39480,
          "time": 64.93415425,
          "velocity": 0.6299212598425197
        },
        {
          "duration": 0.1907893083333363,
          "durationTicks": 116,
          "midi": 72,
          "name": "C5",
          "ticks": 39600,
          "time": 65.1315225,
          "velocity": 0.6299212598425197
        },
        {
          "duration": 0.19078930833332208,
          "durationTicks": 116,
          "midi": 69,
          "name": "A4",
          "ticks": 39720,
          "time": 65.32889075000001,
          "velocity": 0.6299212598425197
        },
        {
          "duration": 0.1907893083333363,
          "durationTicks": 116,
          "midi": 67,
          "name": "G4",
          "ticks": 40080,
          "time": 65.9209955,
          "velocity": 0.6299212598425197
        },
        {
          "duration": 0.19078930833332208,
          "durationTicks": 116,
          "midi": 69,
          "name": "A4",
          "ticks": 40200,
          "time": 66.11836375000001,
          "velocity": 0.6299212598425197
        },
        {
          "duration": 0.19078930833332208,
          "durationTicks": 116,
          "midi": 72,
          "name": "C5",
          "ticks": 40320,
          "time": 66.31573200000001,
          "velocity": 0.6299212598425197
        },
        {
          "duration": 0.19078930833332208,
          "durationTicks": 116,
          "midi": 72,
          "name": "C5",
          "ticks": 40440,
          "time": 66.51310025000001,
          "velocity": 0.6299212598425197
        },
        {
          "duration": 0.1907893083333363,
          "durationTicks": 116,
          "midi": 72,
          "name": "C5",
          "ticks": 40560,
          "time": 66.7104685,
          "velocity": 0.6299212598425197
        },
        {
          "duration": 0.1907893083333363,
          "durationTicks": 116,
          "midi": 69,
          "name": "A4",
          "ticks": 40680,
          "time": 66.90783675,
          "velocity": 0.6299212598425197
        },
        {
          "duration": 0.19078930833332208,
          "durationTicks": 116,
          "midi": 72,
          "name": "C5",
          "ticks": 40800,
          "time": 67.10520500000001,
          "velocity": 0.6299212598425197
        },
        {
          "duration": 0.19078930833332208,
          "durationTicks": 116,
          "midi": 72,
          "name": "C5",
          "ticks": 40920,
          "time": 67.30257325000001,
          "velocity": 0.6299212598425197
        },
        {
          "duration": 0.1907893083333363,
          "durationTicks": 116,
          "midi": 72,
          "name": "C5",
          "ticks": 41040,
          "time": 67.4999415,
          "velocity": 0.6299212598425197
        },
        {
          "duration": 0.1907893083333363,
          "durationTicks": 116,
          "midi": 69,
          "name": "A4",
          "ticks": 41160,
          "time": 67.69730975,
          "velocity": 0.6299212598425197
        },
        {
          "duration": 0.19078930833332208,
          "durationTicks": 116,
          "midi": 76,
          "name": "E5",
          "ticks": 41280,
          "time": 67.89467800000001,
          "velocity": 0.6299212598425197
        },
        {
          "duration": 0.19078930833332208,
          "durationTicks": 116,
          "midi": 74,
          "name": "D5",
          "ticks": 41400,
          "time": 68.09204625000001,
          "velocity": 0.6299212598425197
        },
        {
          "duration": 0.1907893083333363,
          "durationTicks": 116,
          "midi": 72,
          "name": "C5",
          "ticks": 41520,
          "time": 68.2894145,
          "velocity": 0.6299212598425197
        },
        {
          "duration": 0.1907893083333363,
          "durationTicks": 116,
          "midi": 69,
          "name": "A4",
          "ticks": 41640,
          "time": 68.48678275,
          "velocity": 0.6299212598425197
        },
        {
          "duration": 0.19078930833332208,
          "durationTicks": 116,
          "midi": 67,
          "name": "G4",
          "ticks": 42000,
          "time": 69.07888750000001,
          "velocity": 0.6299212598425197
        },
        {
          "duration": 0.1907893083333363,
          "durationTicks": 116,
          "midi": 69,
          "name": "A4",
          "ticks": 42120,
          "time": 69.27625575,
          "velocity": 0.6299212598425197
        },
        {
          "duration": 0.5855258083333297,
          "durationTicks": 356,
          "midi": 72,
          "name": "C5",
          "ticks": 42240,
          "time": 69.473624,
          "velocity": 0.6299212598425197
        },
        {
          "duration": 0.1907893083333363,
          "durationTicks": 116,
          "midi": 69,
          "name": "A4",
          "ticks": 42600,
          "time": 70.06572875,
          "velocity": 0.6299212598425197
        },
        {
          "duration": 0.388157558333333,
          "durationTicks": 236,
          "midi": 72,
          "name": "C5",
          "ticks": 42960,
          "time": 70.65783350000001,
          "velocity": 0.6299212598425197
        },
        {
          "duration": 0.388157558333333,
          "durationTicks": 236,
          "midi": 74,
          "name": "D5",
          "ticks": 43200,
          "time": 71.05257,
          "velocity": 0.6299212598425197
        },
        {
          "duration": 0.19078930833332208,
          "durationTicks": 116,
          "midi": 72,
          "name": "C5",
          "ticks": 43440,
          "time": 71.44730650000001,
          "velocity": 0.6299212598425197
        },
        {
          "duration": 0.5855258083333297,
          "durationTicks": 356,
          "midi": 72,
          "name": "C5",
          "ticks": 43560,
          "time": 71.64467475000001,
          "velocity": 0.6299212598425197
        },
        {
          "duration": 0.3881575583333188,
          "durationTicks": 236,
          "midi": 74,
          "name": "D5",
          "ticks": 43920,
          "time": 72.23677950000001,
          "velocity": 0.6299212598425197
        },
        {
          "duration": 1.5723670583333273,
          "durationTicks": 956,
          "midi": 76,
          "name": "E5",
          "ticks": 44160,
          "time": 72.631516,
          "velocity": 0.6299212598425197
        },
        {
          "duration": 0.388157558333333,
          "durationTicks": 236,
          "midi": 74,
          "name": "D5",
          "ticks": 45600,
          "time": 74.99993500000001,
          "velocity": 0.6299212598425197
        },
        {
          "duration": 0.3881575583333188,
          "durationTicks": 236,
          "midi": 76,
          "name": "E5",
          "ticks": 45840,
          "time": 75.39467150000002,
          "velocity": 0.6299212598425197
        },
        {
          "duration": 0.388157558333333,
          "durationTicks": 236,
          "midi": 74,
          "name": "D5",
          "ticks": 46080,
          "time": 75.78940800000001,
          "velocity": 0.6299212598425197
        },
        {
          "duration": 0.1907893083333363,
          "durationTicks": 116,
          "midi": 72,
          "name": "C5",
          "ticks": 46320,
          "time": 76.1841445,
          "velocity": 0.6299212598425197
        },
        {
          "duration": 0.5855258083333297,
          "durationTicks": 356,
          "midi": 69,
          "name": "A4",
          "ticks": 46440,
          "time": 76.38151275000001,
          "velocity": 0.6299212598425197
        },
        {
          "duration": 0.388157558333333,
          "durationTicks": 236,
          "midi": 72,
          "name": "C5",
          "ticks": 46800,
          "time": 76.9736175,
          "velocity": 0.6299212598425197
        },
        {
          "duration": 0.388157558333333,
          "durationTicks": 236,
          "midi": 74,
          "name": "D5",
          "ticks": 47040,
          "time": 77.36835400000001,
          "velocity": 0.6299212598425197
        },
        {
          "duration": 0.1907893083333363,
          "durationTicks": 116,
          "midi": 72,
          "name": "C5",
          "ticks": 47280,
          "time": 77.7630905,
          "velocity": 0.6299212598425197
        },
        {
          "duration": 0.5855258083333155,
          "durationTicks": 356,
          "midi": 69,
          "name": "A4",
          "ticks": 47400,
          "time": 77.96045875000002,
          "velocity": 0.6299212598425197
        },
        {
          "duration": 0.388157558333333,
          "durationTicks": 236,
          "midi": 72,
          "name": "C5",
          "ticks": 47760,
          "time": 78.5525635,
          "velocity": 0.6299212598425197
        },
        {
          "duration": 0.3881575583333188,
          "durationTicks": 236,
          "midi": 67,
          "name": "G4",
          "ticks": 48000,
          "time": 78.94730000000001,
          "velocity": 0.6299212598425197
        },
        {
          "duration": 0.1907893083333363,
          "durationTicks": 116,
          "midi": 69,
          "name": "A4",
          "ticks": 48240,
          "time": 79.3420365,
          "velocity": 0.6299212598425197
        },
        {
          "duration": 0.5855258083333297,
          "durationTicks": 356,
          "midi": 72,
          "name": "C5",
          "ticks": 48360,
          "time": 79.53940475,
          "velocity": 0.6299212598425197
        },
        {
          "duration": 0.388157558333333,
          "durationTicks": 236,
          "midi": 79,
          "name": "G5",
          "ticks": 48720,
          "time": 80.1315095,
          "velocity": 0.6299212598425197
        },
        {
          "duration": 0.7828940583333264,
          "durationTicks": 476,
          "midi": 76,
          "name": "E5",
          "ticks": 48960,
          "time": 80.52624600000001,
          "velocity": 0.6299212598425197
        },
        {
          "duration": 0.3881575583333188,
          "durationTicks": 236,
          "midi": 74,
          "name": "D5",
          "ticks": 49440,
          "time": 81.31571900000002,
          "velocity": 0.6299212598425197
        },
        {
          "duration": 0.388157558333333,
          "durationTicks": 236,
          "midi": 76,
          "name": "E5",
          "ticks": 49680,
          "time": 81.71045550000001,
          "velocity": 0.6299212598425197
        },
        {
          "duration": 0.3881575583333188,
          "durationTicks": 236,
          "midi": 74,
          "name": "D5",
          "ticks": 49920,
          "time": 82.10519200000002,
          "velocity": 0.6299212598425197
        },
        {
          "duration": 0.19078930833332208,
          "durationTicks": 116,
          "midi": 72,
          "name": "C5",
          "ticks": 50160,
          "time": 82.49992850000001,
          "velocity": 0.6299212598425197
        },
        {
          "duration": 0.5855258083333297,
          "durationTicks": 356,
          "midi": 69,
          "name": "A4",
          "ticks": 50280,
          "time": 82.69729675,
          "velocity": 0.6299212598425197
        },
        {
          "duration": 0.388157558333333,
          "durationTicks": 236,
          "midi": 72,
          "name": "C5",
          "ticks": 50640,
          "time": 83.28940150000001,
          "velocity": 0.6299212598425197
        },
        {
          "duration": 0.388157558333333,
          "durationTicks": 236,
          "midi": 79,
          "name": "G5",
          "ticks": 50880,
          "time": 83.684138,
          "velocity": 0.6299212598425197
        },
        {
          "duration": 0.19078930833332208,
          "durationTicks": 116,
          "midi": 76,
          "name": "E5",
          "ticks": 51120,
          "time": 84.07887450000001,
          "velocity": 0.6299212598425197
        },
        {
          "duration": 0.5855258083333297,
          "durationTicks": 356,
          "midi": 74,
          "name": "D5",
          "ticks": 51240,
          "time": 84.27624275000001,
          "velocity": 0.6299212598425197
        },
        {
          "duration": 0.3881575583333188,
          "durationTicks": 236,
          "midi": 72,
          "name": "C5",
          "ticks": 51600,
          "time": 84.86834750000001,
          "velocity": 0.6299212598425197
        },
        {
          "duration": 1.5723670583333273,
          "durationTicks": 956,
          "midi": 76,
          "name": "E5",
          "ticks": 51840,
          "time": 85.263084,
          "velocity": 0.6299212598425197
        },
        {
          "duration": 0.388157558333333,
          "durationTicks": 236,
          "midi": 74,
          "name": "D5",
          "ticks": 53280,
          "time": 87.63150300000001,
          "velocity": 0.6299212598425197
        },
        {
          "duration": 0.3881575583333188,
          "durationTicks": 236,
          "midi": 76,
          "name": "E5",
          "ticks": 53520,
          "time": 88.02623950000002,
          "velocity": 0.6299212598425197
        },
        {
          "duration": 0.388157558333333,
          "durationTicks": 236,
          "midi": 74,
          "name": "D5",
          "ticks": 53760,
          "time": 88.42097600000001,
          "velocity": 0.6299212598425197
        },
        {
          "duration": 0.1907893083333363,
          "durationTicks": 116,
          "midi": 72,
          "name": "C5",
          "ticks": 54000,
          "time": 88.8157125,
          "velocity": 0.6299212598425197
        },
        {
          "duration": 0.5855258083333297,
          "durationTicks": 356,
          "midi": 69,
          "name": "A4",
          "ticks": 54120,
          "time": 89.01308075000001,
          "velocity": 0.6299212598425197
        },
        {
          "duration": 0.388157558333333,
          "durationTicks": 236,
          "midi": 72,
          "name": "C5",
          "ticks": 54480,
          "time": 89.6051855,
          "velocity": 0.6299212598425197
        },
        {
          "duration": 0.388157558333333,
          "durationTicks": 236,
          "midi": 74,
          "name": "D5",
          "ticks": 54720,
          "time": 89.99992200000001,
          "velocity": 0.6299212598425197
        },
        {
          "duration": 0.1907893083333363,
          "durationTicks": 116,
          "midi": 72,
          "name": "C5",
          "ticks": 54960,
          "time": 90.3946585,
          "velocity": 0.6299212598425197
        },
        {
          "duration": 0.5855258083333155,
          "durationTicks": 356,
          "midi": 69,
          "name": "A4",
          "ticks": 55080,
          "time": 90.59202675000002,
          "velocity": 0.6299212598425197
        },
        {
          "duration": 0.388157558333333,
          "durationTicks": 236,
          "midi": 72,
          "name": "C5",
          "ticks": 55440,
          "time": 91.1841315,
          "velocity": 0.6299212598425197
        },
        {
          "duration": 0.3881575583333188,
          "durationTicks": 236,
          "midi": 79,
          "name": "G5",
          "ticks": 55680,
          "time": 91.57886800000001,
          "velocity": 0.6299212598425197
        },
        {
          "duration": 0.1907893083333363,
          "durationTicks": 116,
          "midi": 76,
          "name": "E5",
          "ticks": 55920,
          "time": 91.97360450000001,
          "velocity": 0.6299212598425197
        },
        {
          "duration": 0.5855258083333297,
          "durationTicks": 356,
          "midi": 74,
          "name": "D5",
          "ticks": 56040,
          "time": 92.17097275,
          "velocity": 0.6299212598425197
        },
        {
          "duration": 0.388157558333333,
          "durationTicks": 236,
          "midi": 72,
          "name": "C5",
          "ticks": 56400,
          "time": 92.76307750000001,
          "velocity": 0.6299212598425197
        },
        {
          "duration": 0.7828940583333264,
          "durationTicks": 476,
          "midi": 69,
          "name": "A4",
          "ticks": 56640,
          "time": 93.15781400000002,
          "velocity": 0.6299212598425197
        },
        {
          "duration": 0.3881575583333188,
          "durationTicks": 236,
          "midi": 74,
          "name": "D5",
          "ticks": 57120,
          "time": 93.94728700000002,
          "velocity": 0.6299212598425197
        },
        {
          "duration": 0.388157558333333,
          "durationTicks": 236,
          "midi": 76,
          "name": "E5",
          "ticks": 57360,
          "time": 94.34202350000001,
          "velocity": 0.6299212598425197
        },
        {
          "duration": 0.388157558333333,
          "durationTicks": 236,
          "midi": 74,
          "name": "D5",
          "ticks": 57600,
          "time": 94.73676,
          "velocity": 0.6299212598425197
        },
        {
          "duration": 0.19078930833332208,
          "durationTicks": 116,
          "midi": 72,
          "name": "C5",
          "ticks": 57840,
          "time": 95.13149650000001,
          "velocity": 0.6299212598425197
        },
        {
          "duration": 0.5855258083333297,
          "durationTicks": 356,
          "midi": 69,
          "name": "A4",
          "ticks": 57960,
          "time": 95.32886475000001,
          "velocity": 0.6299212598425197
        },
        {
          "duration": 0.388157558333333,
          "durationTicks": 236,
          "midi": 72,
          "name": "C5",
          "ticks": 58320,
          "time": 95.92096950000001,
          "velocity": 0.6299212598425197
        },
        {
          "duration": 0.388157558333333,
          "durationTicks": 236,
          "midi": 74,
          "name": "D5",
          "ticks": 58560,
          "time": 96.315706,
          "velocity": 0.6299212598425197
        },
        {
          "duration": 0.19078930833332208,
          "durationTicks": 116,
          "midi": 72,
          "name": "C5",
          "ticks": 58800,
          "time": 96.71044250000001,
          "velocity": 0.6299212598425197
        },
        {
          "duration": 0.5855258083333297,
          "durationTicks": 356,
          "midi": 69,
          "name": "A4",
          "ticks": 58920,
          "time": 96.90781075000001,
          "velocity": 0.6299212598425197
        },
        {
          "duration": 0.19078930833332208,
          "durationTicks": 116,
          "midi": 74,
          "name": "D5",
          "ticks": 59280,
          "time": 97.49991550000001,
          "velocity": 0.6299212598425197
        },
        {
          "duration": 0.19078930833332208,
          "durationTicks": 116,
          "midi": 72,
          "name": "C5",
          "ticks": 59400,
          "time": 97.69728375000001,
          "velocity": 0.6299212598425197
        },
        {
          "duration": 1.5723670583333273,
          "durationTicks": 956,
          "midi": 72,
          "name": "C5",
          "ticks": 59520,
          "time": 97.89465200000001,
          "velocity": 0.6299212598425197
        },
        {
          "duration": 0.388157558333333,
          "durationTicks": 236,
          "midi": 81,
          "name": "A5",
          "ticks": 60960,
          "time": 100.26307100000001,
          "velocity": 0.6299212598425197
        },
        {
          "duration": 0.3881575583333188,
          "durationTicks": 236,
          "midi": 84,
          "name": "C6",
          "ticks": 61200,
          "time": 100.65780750000002,
          "velocity": 0.6299212598425197
        },
        {
          "duration": 0.388157558333333,
          "durationTicks": 236,
          "midi": 86,
          "name": "D6",
          "ticks": 61440,
          "time": 101.05254400000001,
          "velocity": 0.6299212598425197
        },
        {
          "duration": 0.1907893083333505,
          "durationTicks": 116,
          "midi": 84,
          "name": "C6",
          "ticks": 61680,
          "time": 101.4472805,
          "velocity": 0.6299212598425197
        },
        {
          "duration": 0.5855258083333297,
          "durationTicks": 356,
          "midi": 86,
          "name": "D6",
          "ticks": 61800,
          "time": 101.64464875000002,
          "velocity": 0.6299212598425197
        },
        {
          "duration": 0.3881575583333472,
          "durationTicks": 236,
          "midi": 88,
          "name": "E6",
          "ticks": 62160,
          "time": 102.2367535,
          "velocity": 0.6299212598425197
        },
        {
          "duration": 0.5855258083333439,
          "durationTicks": 356,
          "midi": 91,
          "name": "G6",
          "ticks": 62400,
          "time": 102.63149000000001,
          "velocity": 0.6299212598425197
        },
        {
          "duration": 0.1907893083333363,
          "durationTicks": 116,
          "midi": 88,
          "name": "E6",
          "ticks": 62760,
          "time": 103.22359475000002,
          "velocity": 0.6299212598425197
        },
        {
          "duration": 0.388157558333333,
          "durationTicks": 236,
          "midi": 86,
          "name": "D6",
          "ticks": 62880,
          "time": 103.42096300000001,
          "velocity": 0.6299212598425197
        },
        {
          "duration": 0.3881575583333472,
          "durationTicks": 236,
          "midi": 84,
          "name": "C6",
          "ticks": 63120,
          "time": 103.81569950000001,
          "velocity": 0.6299212598425197
        },
        {
          "duration": 0.5855258083333297,
          "durationTicks": 356,
          "midi": 86,
          "name": "D6",
          "ticks": 63360,
          "time": 104.21043600000002,
          "velocity": 0.6299212598425197
        },
        {
          "duration": 0.1907893083333505,
          "durationTicks": 116,
          "midi": 88,
          "name": "E6",
          "ticks": 63720,
          "time": 104.80254075,
          "velocity": 0.6299212598425197
        },
        {
          "duration": 0.388157558333333,
          "durationTicks": 236,
          "midi": 86,
          "name": "D6",
          "ticks": 63840,
          "time": 104.99990900000002,
          "velocity": 0.6299212598425197
        },
        {
          "duration": 0.3881575583333472,
          "durationTicks": 236,
          "midi": 84,
          "name": "C6",
          "ticks": 64080,
          "time": 105.39464550000001,
          "velocity": 0.6299212598425197
        },
        {
          "duration": 1.5723670583333273,
          "durationTicks": 956,
          "midi": 81,
          "name": "A5",
          "ticks": 64320,
          "time": 105.78938200000002,
          "velocity": 0.6299212598425197
        },
        {
          "duration": 0.388157558333333,
          "durationTicks": 236,
          "midi": 81,
          "name": "A5",
          "ticks": 65280,
          "time": 107.36832800000002,
          "velocity": 0.6299212598425197
        },
        {
          "duration": 0.7828940583333406,
          "durationTicks": 476,
          "midi": 81,
          "name": "A5",
          "ticks": 65520,
          "time": 107.76306450000001,
          "velocity": 0.6299212598425197
        },
        {
          "duration": 0.388157558333333,
          "durationTicks": 236,
          "midi": 88,
          "name": "E6",
          "ticks": 66000,
          "time": 108.55253750000001,
          "velocity": 0.6299212598425197
        },
        {
          "duration": 0.3881575583333472,
          "durationTicks": 236,
          "midi": 86,
          "name": "D6",
          "ticks": 66240,
          "time": 108.94727400000001,
          "velocity": 0.6299212598425197
        },
        {
          "duration": 0.1907893083333363,
          "durationTicks": 116,
          "midi": 88,
          "name": "E6",
          "ticks": 66480,
          "time": 109.34201050000001,
          "velocity": 0.6299212598425197
        },
        {
          "duration": 0.1907893083333363,
          "durationTicks": 116,
          "midi": 86,
          "name": "D6",
          "ticks": 66600,
          "time": 109.53937875000001,
          "velocity": 0.6299212598425197
        },
        {
          "duration": 0.3881575583333472,
          "durationTicks": 236,
          "midi": 83,
          "name": "B5",
          "ticks": 66720,
          "time": 109.73674700000001,
          "velocity": 0.6299212598425197
        },
        {
          "duration": 0.388157558333333,
          "durationTicks": 236,
          "midi": 79,
          "name": "G5",
          "ticks": 66960,
          "time": 110.13148350000002,
          "velocity": 0.6299212598425197
        },
        {
          "duration": 0.17763142499998708,
          "durationTicks": 108,
          "midi": 79,
          "name": "G5",
          "ticks": 67088,
          "time": 110.34200963333336,
          "velocity": 0.6299212598425197
        },
        {
          "duration": 3.1513130583333435,
          "durationTicks": 1916,
          "midi": 81,
          "name": "A5",
          "ticks": 67200,
          "time": 110.52622000000001,
          "velocity": 0.6299212598425197
        },
        {
          "duration": 0.388157558333333,
          "durationTicks": 236,
          "midi": 69,
          "name": "A4",
          "ticks": 69120,
          "time": 113.68411200000001,
          "velocity": 0.6299212598425197
        },
        {
          "duration": 0.1907893083333505,
          "durationTicks": 116,
          "midi": 72,
          "name": "C5",
          "ticks": 69360,
          "time": 114.0788485,
          "velocity": 0.6299212598425197
        },
        {
          "duration": 0.5855258083333297,
          "durationTicks": 356,
          "midi": 74,
          "name": "D5",
          "ticks": 69480,
          "time": 114.27621675000002,
          "velocity": 0.6299212598425197
        },
        {
          "duration": 0.3881575583333472,
          "durationTicks": 236,
          "midi": 72,
          "name": "C5",
          "ticks": 69840,
          "time": 114.86832150000001,
          "velocity": 0.6299212598425197
        },
        {
          "duration": 0.5855258083333439,
          "durationTicks": 356,
          "midi": 69,
          "name": "A4",
          "ticks": 70080,
          "time": 115.26305800000002,
          "velocity": 0.6299212598425197
        },
        {
          "duration": 0.1907893083333363,
          "durationTicks": 116,
          "midi": 67,
          "name": "G4",
          "ticks": 70440,
          "time": 115.85516275000002,
          "velocity": 0.6299212598425197
        },
        {
          "duration": 0.7828940583333406,
          "durationTicks": 476,
          "midi": 67,
          "name": "G4",
          "ticks": 70560,
          "time": 116.05253100000002,
          "velocity": 0.6299212598425197
        },
        {
          "duration": 0.388157558333333,
          "durationTicks": 236,
          "midi": 69,
          "name": "A4",
          "ticks": 71040,
          "time": 116.84200400000002,
          "velocity": 0.6299212598425197
        },
        {
          "duration": 0.1907893083333363,
          "durationTicks": 116,
          "midi": 72,
          "name": "C5",
          "ticks": 71280,
          "time": 117.23674050000001,
          "velocity": 0.6299212598425197
        },
        {
          "duration": 0.5855258083333439,
          "durationTicks": 356,
          "midi": 74,
          "name": "D5",
          "ticks": 71400,
          "time": 117.43410875000001,
          "velocity": 0.6299212598425197
        },
        {
          "duration": 0.3881575583333472,
          "durationTicks": 236,
          "midi": 72,
          "name": "C5",
          "ticks": 71760,
          "time": 118.02621350000001,
          "velocity": 0.6299212598425197
        },
        {
          "duration": 0.5855258083333297,
          "durationTicks": 356,
          "midi": 69,
          "name": "A4",
          "ticks": 72000,
          "time": 118.42095000000002,
          "velocity": 0.6299212598425197
        },
        {
          "duration": 0.1907893083333505,
          "durationTicks": 116,
          "midi": 67,
          "name": "G4",
          "ticks": 72360,
          "time": 119.01305475000001,
          "velocity": 0.6299212598425197
        },
        {
          "duration": 0.7828940583333264,
          "durationTicks": 476,
          "midi": 67,
          "name": "G4",
          "ticks": 72480,
          "time": 119.21042300000002,
          "velocity": 0.6299212598425197
        },
        {
          "duration": 0.3881575583333472,
          "durationTicks": 236,
          "midi": 69,
          "name": "A4",
          "ticks": 72960,
          "time": 119.999896,
          "velocity": 0.6299212598425197
        },
        {
          "duration": 0.1907893083333363,
          "durationTicks": 116,
          "midi": 72,
          "name": "C5",
          "ticks": 73200,
          "time": 120.39463250000001,
          "velocity": 0.6299212598425197
        },
        {
          "duration": 0.5855258083333439,
          "durationTicks": 356,
          "midi": 74,
          "name": "D5",
          "ticks": 73320,
          "time": 120.59200075000001,
          "velocity": 0.6299212598425197
        },
        {
          "duration": 0.388157558333333,
          "durationTicks": 236,
          "midi": 72,
          "name": "C5",
          "ticks": 73680,
          "time": 121.18410550000002,
          "velocity": 0.6299212598425197
        },
        {
          "duration": 0.3881575583333472,
          "durationTicks": 236,
          "midi": 71,
          "name": "B4",
          "ticks": 73920,
          "time": 121.57884200000001,
          "velocity": 0.6299212598425197
        },
        {
          "duration": 0.1907893083333363,
          "durationTicks": 116,
          "midi": 72,
          "name": "C5",
          "ticks": 74160,
          "time": 121.97357850000002,
          "velocity": 0.6299212598425197
        },
        {
          "duration": 0.1907893083333363,
          "durationTicks": 116,
          "midi": 71,
          "name": "B4",
          "ticks": 74280,
          "time": 122.17094675000001,
          "velocity": 0.6299212598425197
        },
        {
          "duration": 0.3881575583333472,
          "durationTicks": 236,
          "midi": 69,
          "name": "A4",
          "ticks": 74400,
          "time": 122.36831500000001,
          "velocity": 0.6299212598425197
        },
        {
          "duration": 0.388157558333333,
          "durationTicks": 236,
          "midi": 67,
          "name": "G4",
          "ticks": 74640,
          "time": 122.76305150000002,
          "velocity": 0.6299212598425197
        },
        {
          "duration": 1.5723670583333416,
          "durationTicks": 956,
          "midi": 69,
          "name": "A4",
          "ticks": 74880,
          "time": 123.15778800000001,
          "velocity": 0.6299212598425197
        },
        {
          "duration": 0.1907893083333363,
          "durationTicks": 116,
          "midi": 67,
          "name": "G4",
          "ticks": 76560,
          "time": 125.92094350000002,
          "velocity": 0.6299212598425197
        },
        {
          "duration": 0.1907893083333363,
          "durationTicks": 116,
          "midi": 69,
          "name": "A4",
          "ticks": 76680,
          "time": 126.11831175000002,
          "velocity": 0.6299212598425197
        },
        {
          "duration": 0.1907893083333363,
          "durationTicks": 116,
          "midi": 72,
          "name": "C5",
          "ticks": 76800,
          "time": 126.31568000000001,
          "velocity": 0.6299212598425197
        },
        {
          "duration": 0.1907893083333363,
          "durationTicks": 116,
          "midi": 72,
          "name": "C5",
          "ticks": 76920,
          "time": 126.51304825000001,
          "velocity": 0.6299212598425197
        },
        {
          "duration": 0.1907893083333505,
          "durationTicks": 116,
          "midi": 72,
          "name": "C5",
          "ticks": 77040,
          "time": 126.71041650000001,
          "velocity": 0.6299212598425197
        },
        {
          "duration": 0.1907893083333363,
          "durationTicks": 116,
          "midi": 69,
          "name": "A4",
          "ticks": 77160,
          "time": 126.90778475000002,
          "velocity": 0.6299212598425197
        },
        {
          "duration": 0.1907893083333363,
          "durationTicks": 116,
          "midi": 72,
          "name": "C5",
          "ticks": 77280,
          "time": 127.10515300000002,
          "velocity": 0.6299212598425197
        },
        {
          "duration": 0.1907893083333363,
          "durationTicks": 116,
          "midi": 72,
          "name": "C5",
          "ticks": 77400,
          "time": 127.30252125000001,
          "velocity": 0.6299212598425197
        },
        {
          "duration": 0.1907893083333505,
          "durationTicks": 116,
          "midi": 72,
          "name": "C5",
          "ticks": 77520,
          "time": 127.49988950000001,
          "velocity": 0.6299212598425197
        },
        {
          "duration": 0.1907893083333363,
          "durationTicks": 116,
          "midi": 69,
          "name": "A4",
          "ticks": 77640,
          "time": 127.69725775000002,
          "velocity": 0.6299212598425197
        },
        {
          "duration": 0.1907893083333363,
          "durationTicks": 116,
          "midi": 72,
          "name": "C5",
          "ticks": 77760,
          "time": 127.89462600000002,
          "velocity": 0.6299212598425197
        },
        {
          "duration": 0.1907893083333363,
          "durationTicks": 116,
          "midi": 72,
          "name": "C5",
          "ticks": 77880,
          "time": 128.09199425000003,
          "velocity": 0.6299212598425197
        },
        {
          "duration": 0.1907893083333363,
          "durationTicks": 116,
          "midi": 72,
          "name": "C5",
          "ticks": 78000,
          "time": 128.2893625,
          "velocity": 0.6299212598425197
        },
        {
          "duration": 0.1907893083333363,
          "durationTicks": 116,
          "midi": 69,
          "name": "A4",
          "ticks": 78120,
          "time": 128.48673075000002,
          "velocity": 0.6299212598425197
        },
        {
          "duration": 0.1907893083333363,
          "durationTicks": 116,
          "midi": 67,
          "name": "G4",
          "ticks": 78480,
          "time": 129.07883550000003,
          "velocity": 0.6299212598425197
        },
        {
          "duration": 0.1907893083333363,
          "durationTicks": 116,
          "midi": 69,
          "name": "A4",
          "ticks": 78600,
          "time": 129.27620375,
          "velocity": 0.6299212598425197
        },
        {
          "duration": 0.1907893083333363,
          "durationTicks": 116,
          "midi": 72,
          "name": "C5",
          "ticks": 78720,
          "time": 129.47357200000002,
          "velocity": 0.6299212598425197
        },
        {
          "duration": 0.19078930833336472,
          "durationTicks": 116,
          "midi": 72,
          "name": "C5",
          "ticks": 78840,
          "time": 129.67094025,
          "velocity": 0.6299212598425197
        },
        {
          "duration": 0.1907893083333363,
          "durationTicks": 116,
          "midi": 72,
          "name": "C5",
          "ticks": 78960,
          "time": 129.8683085,
          "velocity": 0.6299212598425197
        },
        {
          "duration": 0.1907893083333363,
          "durationTicks": 116,
          "midi": 69,
          "name": "A4",
          "ticks": 79080,
          "time": 130.06567675000002,
          "velocity": 0.6299212598425197
        },
        {
          "duration": 0.1907893083333363,
          "durationTicks": 116,
          "midi": 72,
          "name": "C5",
          "ticks": 79200,
          "time": 130.263045,
          "velocity": 0.6299212598425197
        },
        {
          "duration": 0.1907893083333363,
          "durationTicks": 116,
          "midi": 72,
          "name": "C5",
          "ticks": 79320,
          "time": 130.46041325000002,
          "velocity": 0.6299212598425197
        },
        {
          "duration": 0.1907893083333363,
          "durationTicks": 116,
          "midi": 72,
          "name": "C5",
          "ticks": 79440,
          "time": 130.65778150000003,
          "velocity": 0.6299212598425197
        },
        {
          "duration": 0.1907893083333363,
          "durationTicks": 116,
          "midi": 69,
          "name": "A4",
          "ticks": 79560,
          "time": 130.85514975,
          "velocity": 0.6299212598425197
        },
        {
          "duration": 0.1907893083333363,
          "durationTicks": 116,
          "midi": 76,
          "name": "E5",
          "ticks": 79680,
          "time": 131.05251800000002,
          "velocity": 0.6299212598425197
        },
        {
          "duration": 0.19078930833336472,
          "durationTicks": 116,
          "midi": 74,
          "name": "D5",
          "ticks": 79800,
          "time": 131.24988625,
          "velocity": 0.6299212598425197
        },
        {
          "duration": 0.1907893083333363,
          "durationTicks": 116,
          "midi": 72,
          "name": "C5",
          "ticks": 79920,
          "time": 131.4472545,
          "velocity": 0.6299212598425197
        },
        {
          "duration": 0.1907893083333363,
          "durationTicks": 116,
          "midi": 69,
          "name": "A4",
          "ticks": 80040,
          "time": 131.64462275000002,
          "velocity": 0.6299212598425197
        },
        {
          "duration": 0.1907893083333363,
          "durationTicks": 116,
          "midi": 67,
          "name": "G4",
          "ticks": 80400,
          "time": 132.23672750000003,
          "velocity": 0.6299212598425197
        },
        {
          "duration": 0.1907893083333363,
          "durationTicks": 116,
          "midi": 69,
          "name": "A4",
          "ticks": 80520,
          "time": 132.43409575,
          "velocity": 0.6299212598425197
        },
        {
          "duration": 0.5855258083333297,
          "durationTicks": 356,
          "midi": 72,
          "name": "C5",
          "ticks": 80640,
          "time": 132.63146400000002,
          "velocity": 0.6299212598425197
        },
        {
          "duration": 0.1907893083333363,
          "durationTicks": 116,
          "midi": 69,
          "name": "A4",
          "ticks": 81000,
          "time": 133.22356875000003,
          "velocity": 0.6299212598425197
        },
        {
          "duration": 0.3881575583333472,
          "durationTicks": 236,
          "midi": 72,
          "name": "C5",
          "ticks": 81360,
          "time": 133.8156735,
          "velocity": 0.6299212598425197
        },
        {
          "duration": 0.3881575583333188,
          "durationTicks": 236,
          "midi": 71,
          "name": "B4",
          "ticks": 81600,
          "time": 134.21041000000002,
          "velocity": 0.6299212598425197
        },
        {
          "duration": 0.1907893083333363,
          "durationTicks": 116,
          "midi": 72,
          "name": "C5",
          "ticks": 81840,
          "time": 134.60514650000002,
          "velocity": 0.6299212598425197
        },
        {
          "duration": 0.1907893083333363,
          "durationTicks": 116,
          "midi": 71,
          "name": "B4",
          "ticks": 81960,
          "time": 134.80251475000003,
          "velocity": 0.6299212598425197
        },
        {
          "duration": 0.3881575583333472,
          "durationTicks": 236,
          "midi": 69,
          "name": "A4",
          "ticks": 82080,
          "time": 134.999883,
          "velocity": 0.6299212598425197
        },
        {
          "duration": 0.3881575583333472,
          "durationTicks": 236,
          "midi": 67,
          "name": "G4",
          "ticks": 82320,
          "time": 135.3946195,
          "velocity": 0.6299212598425197
        },
        {
          "duration": 0.7828940583333406,
          "durationTicks": 476,
          "midi": 64,
          "name": "E4",
          "ticks": 82560,
          "time": 135.78935600000003,
          "velocity": 0.6299212598425197
        },
        {
          "duration": 0.1907893083333363,
          "durationTicks": 116,
          "midi": 64,
          "name": "E4",
          "ticks": 83400,
          "time": 137.17093375000002,
          "velocity": 0.6299212598425197
        },
        {
          "duration": 0.1907893083333363,
          "durationTicks": 116,
          "midi": 67,
          "name": "G4",
          "ticks": 83520,
          "time": 137.36830200000003,
          "velocity": 0.6299212598425197
        },
        {
          "duration": 0.1907893083333363,
          "durationTicks": 116,
          "midi": 64,
          "name": "E4",
          "ticks": 83640,
          "time": 137.56567025,
          "velocity": 0.6299212598425197
        },
        {
          "duration": 0.1907893083333363,
          "durationTicks": 116,
          "midi": 69,
          "name": "A4",
          "ticks": 83760,
          "time": 137.76303850000002,
          "velocity": 0.6299212598425197
        },
        {
          "duration": 0.19078930833336472,
          "durationTicks": 116,
          "midi": 67,
          "name": "G4",
          "ticks": 83880,
          "time": 137.96040675,
          "velocity": 0.6299212598425197
        },
        {
          "duration": 0.1907893083333363,
          "durationTicks": 116,
          "midi": 67,
          "name": "G4",
          "ticks": 84240,
          "time": 138.5525115,
          "velocity": 0.6299212598425197
        },
        {
          "duration": 0.1907893083333363,
          "durationTicks": 116,
          "midi": 69,
          "name": "A4",
          "ticks": 84360,
          "time": 138.74987975000002,
          "velocity": 0.6299212598425197
        },
        {
          "duration": 0.19078930833336472,
          "durationTicks": 116,
          "midi": 72,
          "name": "C5",
          "ticks": 84480,
          "time": 138.947248,
          "velocity": 0.6299212598425197
        },
        {
          "duration": 0.1907893083333363,
          "durationTicks": 116,
          "midi": 72,
          "name": "C5",
          "ticks": 84600,
          "time": 139.14461625,
          "velocity": 0.6299212598425197
        },
        {
          "duration": 0.1907893083333363,
          "durationTicks": 116,
          "midi": 72,
          "name": "C5",
          "ticks": 84720,
          "time": 139.34198450000002,
          "velocity": 0.6299212598425197
        },
        {
          "duration": 0.1907893083333363,
          "durationTicks": 116,
          "midi": 69,
          "name": "A4",
          "ticks": 84840,
          "time": 139.53935275,
          "velocity": 0.6299212598425197
        },
        {
          "duration": 0.1907893083333363,
          "durationTicks": 116,
          "midi": 72,
          "name": "C5",
          "ticks": 84960,
          "time": 139.73672100000002,
          "velocity": 0.6299212598425197
        },
        {
          "duration": 0.1907893083333363,
          "durationTicks": 116,
          "midi": 72,
          "name": "C5",
          "ticks": 85080,
          "time": 139.93408925000003,
          "velocity": 0.6299212598425197
        },
        {
          "duration": 0.1907893083333363,
          "durationTicks": 116,
          "midi": 72,
          "name": "C5",
          "ticks": 85200,
          "time": 140.1314575,
          "velocity": 0.6299212598425197
        },
        {
          "duration": 0.1907893083333363,
          "durationTicks": 116,
          "midi": 69,
          "name": "A4",
          "ticks": 85320,
          "time": 140.32882575000002,
          "velocity": 0.6299212598425197
        },
        {
          "duration": 0.19078930833336472,
          "durationTicks": 116,
          "midi": 72,
          "name": "C5",
          "ticks": 85440,
          "time": 140.526194,
          "velocity": 0.6299212598425197
        },
        {
          "duration": 0.1907893083333363,
          "durationTicks": 116,
          "midi": 72,
          "name": "C5",
          "ticks": 85560,
          "time": 140.72356225000001,
          "velocity": 0.6299212598425197
        },
        {
          "duration": 0.1907893083333363,
          "durationTicks": 116,
          "midi": 72,
          "name": "C5",
          "ticks": 85680,
          "time": 140.92093050000003,
          "velocity": 0.6299212598425197
        },
        {
          "duration": 0.1907893083333363,
          "durationTicks": 116,
          "midi": 69,
          "name": "A4",
          "ticks": 85800,
          "time": 141.11829875,
          "velocity": 0.6299212598425197
        },
        {
          "duration": 0.1907893083333363,
          "durationTicks": 116,
          "midi": 67,
          "name": "G4",
          "ticks": 86160,
          "time": 141.7104035,
          "velocity": 0.6299212598425197
        },
        {
          "duration": 0.1907893083333363,
          "durationTicks": 116,
          "midi": 69,
          "name": "A4",
          "ticks": 86280,
          "time": 141.90777175000002,
          "velocity": 0.6299212598425197
        },
        {
          "duration": 0.1907893083333363,
          "durationTicks": 116,
          "midi": 72,
          "name": "C5",
          "ticks": 86400,
          "time": 142.10514,
          "velocity": 0.6299212598425197
        },
        {
          "duration": 0.1907893083333363,
          "durationTicks": 116,
          "midi": 72,
          "name": "C5",
          "ticks": 86520,
          "time": 142.30250825000002,
          "velocity": 0.6299212598425197
        },
        {
          "duration": 0.1907893083333363,
          "durationTicks": 116,
          "midi": 72,
          "name": "C5",
          "ticks": 86640,
          "time": 142.49987650000003,
          "velocity": 0.6299212598425197
        },
        {
          "duration": 0.1907893083333363,
          "durationTicks": 116,
          "midi": 69,
          "name": "A4",
          "ticks": 86760,
          "time": 142.69724475,
          "velocity": 0.6299212598425197
        },
        {
          "duration": 0.1907893083333363,
          "durationTicks": 116,
          "midi": 72,
          "name": "C5",
          "ticks": 86880,
          "time": 142.89461300000002,
          "velocity": 0.6299212598425197
        },
        {
          "duration": 0.19078930833336472,
          "durationTicks": 116,
          "midi": 72,
          "name": "C5",
          "ticks": 87000,
          "time": 143.09198125,
          "velocity": 0.6299212598425197
        },
        {
          "duration": 0.1907893083333363,
          "durationTicks": 116,
          "midi": 72,
          "name": "C5",
          "ticks": 87120,
          "time": 143.28934950000001,
          "velocity": 0.6299212598425197
        },
        {
          "duration": 0.1907893083333363,
          "durationTicks": 116,
          "midi": 69,
          "name": "A4",
          "ticks": 87240,
          "time": 143.48671775000003,
          "velocity": 0.6299212598425197
        },
        {
          "duration": 0.1907893083333363,
          "durationTicks": 116,
          "midi": 76,
          "name": "E5",
          "ticks": 87360,
          "time": 143.684086,
          "velocity": 0.6299212598425197
        },
        {
          "duration": 0.1907893083333363,
          "durationTicks": 116,
          "midi": 74,
          "name": "D5",
          "ticks": 87480,
          "time": 143.88145425000002,
          "velocity": 0.6299212598425197
        },
        {
          "duration": 0.1907893083333363,
          "durationTicks": 116,
          "midi": 72,
          "name": "C5",
          "ticks": 87600,
          "time": 144.07882250000003,
          "velocity": 0.6299212598425197
        },
        {
          "duration": 0.1907893083333363,
          "durationTicks": 116,
          "midi": 69,
          "name": "A4",
          "ticks": 87720,
          "time": 144.27619075,
          "velocity": 0.6299212598425197
        },
        {
          "duration": 0.1907893083333363,
          "durationTicks": 116,
          "midi": 67,
          "name": "G4",
          "ticks": 88080,
          "time": 144.86829550000002,
          "velocity": 0.6299212598425197
        },
        {
          "duration": 0.1907893083333363,
          "durationTicks": 116,
          "midi": 69,
          "name": "A4",
          "ticks": 88200,
          "time": 145.06566375000003,
          "velocity": 0.6299212598425197
        },
        {
          "duration": 0.5855258083333581,
          "durationTicks": 356,
          "midi": 72,
          "name": "C5",
          "ticks": 88320,
          "time": 145.263032,
          "velocity": 0.6299212598425197
        },
        {
          "duration": 0.1907893083333363,
          "durationTicks": 116,
          "midi": 69,
          "name": "A4",
          "ticks": 88680,
          "time": 145.85513675,
          "velocity": 0.6299212598425197
        },
        {
          "duration": 0.3881575583333472,
          "durationTicks": 236,
          "midi": 72,
          "name": "C5",
          "ticks": 89040,
          "time": 146.44724150000002,
          "velocity": 0.6299212598425197
        },
        {
          "duration": 0.3881575583333472,
          "durationTicks": 236,
          "midi": 74,
          "name": "D5",
          "ticks": 89280,
          "time": 146.841978,
          "velocity": 0.6299212598425197
        },
        {
          "duration": 0.19078930833336472,
          "durationTicks": 116,
          "midi": 72,
          "name": "C5",
          "ticks": 89520,
          "time": 147.2367145,
          "velocity": 0.6299212598425197
        },
        {
          "duration": 0.5855258083333297,
          "durationTicks": 356,
          "midi": 72,
          "name": "C5",
          "ticks": 89640,
          "time": 147.43408275000002,
          "velocity": 0.6299212598425197
        },
        {
          "duration": 0.3881575583333472,
          "durationTicks": 236,
          "midi": 74,
          "name": "D5",
          "ticks": 90000,
          "time": 148.02618750000002,
          "velocity": 0.6299212598425197
        },
        {
          "duration": 1.5723670583333558,
          "durationTicks": 956,
          "midi": 76,
          "name": "E5",
          "ticks": 90240,
          "time": 148.420924,
          "velocity": 0.6299212598425197
        },
        {
          "duration": 0.3881575583333188,
          "durationTicks": 236,
          "midi": 74,
          "name": "D5",
          "ticks": 91680,
          "time": 150.78934300000003,
          "velocity": 0.6299212598425197
        },
        {
          "duration": 0.3881575583333188,
          "durationTicks": 236,
          "midi": 76,
          "name": "E5",
          "ticks": 91920,
          "time": 151.18407950000002,
          "velocity": 0.6299212598425197
        },
        {
          "duration": 0.3881575583333472,
          "durationTicks": 236,
          "midi": 74,
          "name": "D5",
          "ticks": 92160,
          "time": 151.57881600000002,
          "velocity": 0.6299212598425197
        },
        {
          "duration": 0.1907893083333363,
          "durationTicks": 116,
          "midi": 72,
          "name": "C5",
          "ticks": 92400,
          "time": 151.9735525,
          "velocity": 0.6299212598425197
        },
        {
          "duration": 0.5855258083333297,
          "durationTicks": 356,
          "midi": 69,
          "name": "A4",
          "ticks": 92520,
          "time": 152.17092075000002,
          "velocity": 0.6299212598425197
        },
        {
          "duration": 0.3881575583333188,
          "durationTicks": 236,
          "midi": 72,
          "name": "C5",
          "ticks": 92880,
          "time": 152.76302550000003,
          "velocity": 0.6299212598425197
        },
        {
          "duration": 0.3881575583333472,
          "durationTicks": 236,
          "midi": 74,
          "name": "D5",
          "ticks": 93120,
          "time": 153.15776200000002,
          "velocity": 0.6299212598425197
        },
        {
          "duration": 0.1907893083333363,
          "durationTicks": 116,
          "midi": 72,
          "name": "C5",
          "ticks": 93360,
          "time": 153.5524985,
          "velocity": 0.6299212598425197
        },
        {
          "duration": 0.5855258083333297,
          "durationTicks": 356,
          "midi": 69,
          "name": "A4",
          "ticks": 93480,
          "time": 153.74986675000002,
          "velocity": 0.6299212598425197
        },
        {
          "duration": 0.3881575583333188,
          "durationTicks": 236,
          "midi": 72,
          "name": "C5",
          "ticks": 93840,
          "time": 154.34197150000003,
          "velocity": 0.6299212598425197
        },
        {
          "duration": 0.3881575583333472,
          "durationTicks": 236,
          "midi": 67,
          "name": "G4",
          "ticks": 94080,
          "time": 154.73670800000002,
          "velocity": 0.6299212598425197
        },
        {
          "duration": 0.1907893083333363,
          "durationTicks": 116,
          "midi": 69,
          "name": "A4",
          "ticks": 94320,
          "time": 155.13144450000001,
          "velocity": 0.6299212598425197
        },
        {
          "duration": 0.5855258083333297,
          "durationTicks": 356,
          "midi": 72,
          "name": "C5",
          "ticks": 94440,
          "time": 155.32881275000003,
          "velocity": 0.6299212598425197
        },
        {
          "duration": 0.3881575583333188,
          "durationTicks": 236,
          "midi": 79,
          "name": "G5",
          "ticks": 94800,
          "time": 155.92091750000003,
          "velocity": 0.6299212598425197
        },
        {
          "duration": 0.7828940583333406,
          "durationTicks": 476,
          "midi": 76,
          "name": "E5",
          "ticks": 95040,
          "time": 156.31565400000002,
          "velocity": 0.6299212598425197
        },
        {
          "duration": 0.3881575583333472,
          "durationTicks": 236,
          "midi": 74,
          "name": "D5",
          "ticks": 95520,
          "time": 157.105127,
          "velocity": 0.6299212598425197
        },
        {
          "duration": 0.3881575583333188,
          "durationTicks": 236,
          "midi": 76,
          "name": "E5",
          "ticks": 95760,
          "time": 157.49986350000003,
          "velocity": 0.6299212598425197
        },
        {
          "duration": 0.3881575583333188,
          "durationTicks": 236,
          "midi": 74,
          "name": "D5",
          "ticks": 96000,
          "time": 157.89460000000003,
          "velocity": 0.6299212598425197
        },
        {
          "duration": 0.1907893083333363,
          "durationTicks": 116,
          "midi": 72,
          "name": "C5",
          "ticks": 96240,
          "time": 158.28933650000002,
          "velocity": 0.6299212598425197
        },
        {
          "duration": 0.5855258083333297,
          "durationTicks": 356,
          "midi": 69,
          "name": "A4",
          "ticks": 96360,
          "time": 158.48670475000003,
          "velocity": 0.6299212598425197
        },
        {
          "duration": 0.3881575583333472,
          "durationTicks": 236,
          "midi": 72,
          "name": "C5",
          "ticks": 96720,
          "time": 159.0788095,
          "velocity": 0.6299212598425197
        },
        {
          "duration": 0.3881575583333188,
          "durationTicks": 236,
          "midi": 79,
          "name": "G5",
          "ticks": 96960,
          "time": 159.47354600000003,
          "velocity": 0.6299212598425197
        },
        {
          "duration": 0.1907893083333363,
          "durationTicks": 116,
          "midi": 76,
          "name": "E5",
          "ticks": 97200,
          "time": 159.86828250000002,
          "velocity": 0.6299212598425197
        },
        {
          "duration": 0.5855258083333297,
          "durationTicks": 356,
          "midi": 74,
          "name": "D5",
          "ticks": 97320,
          "time": 160.06565075000003,
          "velocity": 0.6299212598425197
        },
        {
          "duration": 0.3881575583333472,
          "durationTicks": 236,
          "midi": 72,
          "name": "C5",
          "ticks": 97680,
          "time": 160.6577555,
          "velocity": 0.6299212598425197
        },
        {
          "duration": 1.5723670583333273,
          "durationTicks": 956,
          "midi": 76,
          "name": "E5",
          "ticks": 97920,
          "time": 161.05249200000003,
          "velocity": 0.6299212598425197
        },
        {
          "duration": 0.3881575583333472,
          "durationTicks": 236,
          "midi": 74,
          "name": "D5",
          "ticks": 99360,
          "time": 163.42091100000002,
          "velocity": 0.6299212598425197
        },
        {
          "duration": 0.3881575583333472,
          "durationTicks": 236,
          "midi": 76,
          "name": "E5",
          "ticks": 99600,
          "time": 163.8156475,
          "velocity": 0.6299212598425197
        },
        {
          "duration": 0.3881575583333188,
          "durationTicks": 236,
          "midi": 74,
          "name": "D5",
          "ticks": 99840,
          "time": 164.21038400000003,
          "velocity": 0.6299212598425197
        },
        {
          "duration": 0.1907893083333363,
          "durationTicks": 116,
          "midi": 72,
          "name": "C5",
          "ticks": 100080,
          "time": 164.60512050000003,
          "velocity": 0.6299212598425197
        },
        {
          "duration": 0.5855258083333581,
          "durationTicks": 356,
          "midi": 69,
          "name": "A4",
          "ticks": 100200,
          "time": 164.80248875,
          "velocity": 0.6299212598425197
        },
        {
          "duration": 0.3881575583333472,
          "durationTicks": 236,
          "midi": 72,
          "name": "C5",
          "ticks": 100560,
          "time": 165.3945935,
          "velocity": 0.6299212598425197
        },
        {
          "duration": 0.3881575583333472,
          "durationTicks": 236,
          "midi": 74,
          "name": "D5",
          "ticks": 100800,
          "time": 165.78933,
          "velocity": 0.6299212598425197
        },
        {
          "duration": 0.1907893083333363,
          "durationTicks": 116,
          "midi": 72,
          "name": "C5",
          "ticks": 101040,
          "time": 166.18406650000003,
          "velocity": 0.6299212598425197
        },
        {
          "duration": 0.5855258083333581,
          "durationTicks": 356,
          "midi": 69,
          "name": "A4",
          "ticks": 101160,
          "time": 166.38143475,
          "velocity": 0.6299212598425197
        },
        {
          "duration": 0.3881575583333472,
          "durationTicks": 236,
          "midi": 72,
          "name": "C5",
          "ticks": 101520,
          "time": 166.97353950000002,
          "velocity": 0.6299212598425197
        },
        {
          "duration": 0.3881575583333472,
          "durationTicks": 236,
          "midi": 79,
          "name": "G5",
          "ticks": 101760,
          "time": 167.368276,
          "velocity": 0.6299212598425197
        },
        {
          "duration": 0.1907893083333363,
          "durationTicks": 116,
          "midi": 76,
          "name": "E5",
          "ticks": 102000,
          "time": 167.76301250000003,
          "velocity": 0.6299212598425197
        },
        {
          "duration": 0.5855258083333581,
          "durationTicks": 356,
          "midi": 74,
          "name": "D5",
          "ticks": 102120,
          "time": 167.96038075,
          "velocity": 0.6299212598425197
        },
        {
          "duration": 0.3881575583333472,
          "durationTicks": 236,
          "midi": 72,
          "name": "C5",
          "ticks": 102480,
          "time": 168.55248550000002,
          "velocity": 0.6299212598425197
        },
        {
          "duration": 0.7828940583333406,
          "durationTicks": 476,
          "midi": 69,
          "name": "A4",
          "ticks": 102720,
          "time": 168.947222,
          "velocity": 0.6299212598425197
        },
        {
          "duration": 0.3881575583333472,
          "durationTicks": 236,
          "midi": 74,
          "name": "D5",
          "ticks": 103200,
          "time": 169.73669500000003,
          "velocity": 0.6299212598425197
        },
        {
          "duration": 0.3881575583333472,
          "durationTicks": 236,
          "midi": 76,
          "name": "E5",
          "ticks": 103440,
          "time": 170.13143150000002,
          "velocity": 0.6299212598425197
        },
        {
          "duration": 0.3881575583333472,
          "durationTicks": 236,
          "midi": 74,
          "name": "D5",
          "ticks": 103680,
          "time": 170.526168,
          "velocity": 0.6299212598425197
        },
        {
          "duration": 0.19078930833336472,
          "durationTicks": 116,
          "midi": 72,
          "name": "C5",
          "ticks": 103920,
          "time": 170.9209045,
          "velocity": 0.6299212598425197
        },
        {
          "duration": 0.5855258083333297,
          "durationTicks": 356,
          "midi": 69,
          "name": "A4",
          "ticks": 104040,
          "time": 171.11827275000002,
          "velocity": 0.6299212598425197
        },
        {
          "duration": 0.3881575583333472,
          "durationTicks": 236,
          "midi": 72,
          "name": "C5",
          "ticks": 104400,
          "time": 171.71037750000002,
          "velocity": 0.6299212598425197
        },
        {
          "duration": 0.3881575583333472,
          "durationTicks": 236,
          "midi": 74,
          "name": "D5",
          "ticks": 104640,
          "time": 172.10511400000001,
          "velocity": 0.6299212598425197
        },
        {
          "duration": 0.19078930833336472,
          "durationTicks": 116,
          "midi": 72,
          "name": "C5",
          "ticks": 104880,
          "time": 172.4998505,
          "velocity": 0.6299212598425197
        },
        {
          "duration": 0.5855258083333297,
          "durationTicks": 356,
          "midi": 69,
          "name": "A4",
          "ticks": 105000,
          "time": 172.69721875000002,
          "velocity": 0.6299212598425197
        },
        {
          "duration": 0.1907893083333363,
          "durationTicks": 116,
          "midi": 74,
          "name": "D5",
          "ticks": 105360,
          "time": 173.28932350000002,
          "velocity": 0.6299212598425197
        },
        {
          "duration": 0.1907893083333363,
          "durationTicks": 116,
          "midi": 72,
          "name": "C5",
          "ticks": 105480,
          "time": 173.48669175000003,
          "velocity": 0.6299212598425197
        },
        {
          "duration": 1.5723670583333558,
          "durationTicks": 956,
          "midi": 72,
          "name": "C5",
          "ticks": 105600,
          "time": 173.68406000000002,
          "velocity": 0.6299212598425197
        },
        {
          "duration": 0.3881575583333188,
          "durationTicks": 236,
          "midi": 88,
          "name": "E6",
          "ticks": 107040,
          "time": 176.05247900000003,
          "velocity": 0.6299212598425197
        },
        {
          "duration": 0.3881575583333188,
          "durationTicks": 236,
          "midi": 91,
          "name": "G6",
          "ticks": 107280,
          "time": 176.44721550000003,
          "velocity": 0.6299212598425197
        },
        {
          "duration": 0.3881575583333472,
          "durationTicks": 236,
          "midi": 91,
          "name": "G6",
          "ticks": 107520,
          "time": 176.84195200000002,
          "velocity": 0.6299212598425197
        },
        {
          "duration": 0.3881575583333472,
          "durationTicks": 236,
          "midi": 88,
          "name": "E6",
          "ticks": 107760,
          "time": 177.2366885,
          "velocity": 0.6299212598425197
        },
        {
          "duration": 0.19078930833336472,
          "durationTicks": 116,
          "midi": 88,
          "name": "E6",
          "ticks": 108000,
          "time": 177.631425,
          "velocity": 0.6299212598425197
        },
        {
          "duration": 0.1907893083333363,
          "durationTicks": 116,
          "midi": 86,
          "name": "D6",
          "ticks": 108120,
          "time": 177.82879325000002,
          "velocity": 0.6299212598425197
        },
        {
          "duration": 0.1907893083333363,
          "durationTicks": 116,
          "midi": 86,
          "name": "D6",
          "ticks": 108240,
          "time": 178.02616150000003,
          "velocity": 0.6299212598425197
        },
        {
          "duration": 0.1907893083333363,
          "durationTicks": 116,
          "midi": 88,
          "name": "E6",
          "ticks": 108360,
          "time": 178.22352975,
          "velocity": 0.6299212598425197
        },
        {
          "duration": 0.28947343333334175,
          "durationTicks": 176,
          "midi": 86,
          "name": "D6",
          "ticks": 108480,
          "time": 178.42089800000002,
          "velocity": 0.6299212598425197
        },
        {
          "duration": 0.09210518333335926,
          "durationTicks": 56,
          "midi": 88,
          "name": "E6",
          "ticks": 108660,
          "time": 178.716950375,
          "velocity": 0.6299212598425197
        },
        {
          "duration": 0.1907893083333363,
          "durationTicks": 116,
          "midi": 86,
          "name": "D6",
          "ticks": 108720,
          "time": 178.81563450000002,
          "velocity": 0.6299212598425197
        },
        {
          "duration": 0.1907893083333363,
          "durationTicks": 116,
          "midi": 84,
          "name": "C6",
          "ticks": 108840,
          "time": 179.01300275000003,
          "velocity": 0.6299212598425197
        },
        {
          "duration": 0.19078930833336472,
          "durationTicks": 116,
          "midi": 86,
          "name": "D6",
          "ticks": 108960,
          "time": 179.210371,
          "velocity": 0.6299212598425197
        },
        {
          "duration": 0.1907893083333363,
          "durationTicks": 116,
          "midi": 84,
          "name": "C6",
          "ticks": 109080,
          "time": 179.40773925000002,
          "velocity": 0.6299212598425197
        },
        {
          "duration": 0.1907893083333363,
          "durationTicks": 116,
          "midi": 81,
          "name": "A5",
          "ticks": 109200,
          "time": 179.60510750000003,
          "velocity": 0.6299212598425197
        },
        {
          "duration": 0.1907893083333363,
          "durationTicks": 116,
          "midi": 84,
          "name": "C6",
          "ticks": 109320,
          "time": 179.80247575,
          "velocity": 0.6299212598425197
        },
        {
          "duration": 0.09210518333333084,
          "durationTicks": 56,
          "midi": 81,
          "name": "A5",
          "ticks": 109440,
          "time": 179.99984400000002,
          "velocity": 0.6299212598425197
        },
        {
          "duration": 0.09210518333333084,
          "durationTicks": 56,
          "midi": 84,
          "name": "C6",
          "ticks": 109500,
          "time": 180.09852812500003,
          "velocity": 0.6299212598425197
        },
        {
          "duration": 0.09210518333335926,
          "durationTicks": 56,
          "midi": 81,
          "name": "A5",
          "ticks": 109560,
          "time": 180.19721225,
          "velocity": 0.6299212598425197
        },
        {
          "duration": 0.09210518333335926,
          "durationTicks": 56,
          "midi": 79,
          "name": "G5",
          "ticks": 109620,
          "time": 180.295896375,
          "velocity": 0.6299212598425197
        },
        {
          "duration": 0.1907893083333363,
          "durationTicks": 116,
          "midi": 81,
          "name": "A5",
          "ticks": 109680,
          "time": 180.39458050000002,
          "velocity": 0.6299212598425197
        },
        {
          "duration": 0.1907893083333363,
          "durationTicks": 116,
          "midi": 79,
          "name": "G5",
          "ticks": 109800,
          "time": 180.59194875000003,
          "velocity": 0.6299212598425197
        },
        {
          "duration": 0.1907893083333363,
          "durationTicks": 116,
          "midi": 76,
          "name": "E5",
          "ticks": 109920,
          "time": 180.789317,
          "velocity": 0.6299212598425197
        },
        {
          "duration": 0.1907893083333363,
          "durationTicks": 116,
          "midi": 74,
          "name": "D5",
          "ticks": 110040,
          "time": 180.98668525000002,
          "velocity": 0.6299212598425197
        },
        {
          "duration": 0.1907893083333363,
          "durationTicks": 116,
          "midi": 76,
          "name": "E5",
          "ticks": 110160,
          "time": 181.18405350000003,
          "velocity": 0.6299212598425197
        },
        {
          "duration": 0.1907893083333363,
          "durationTicks": 116,
          "midi": 79,
          "name": "G5",
          "ticks": 110280,
          "time": 181.38142175000002,
          "velocity": 0.6299212598425197
        },
        {
          "duration": 0.1907893083333363,
          "durationTicks": 116,
          "midi": 79,
          "name": "G5",
          "ticks": 110400,
          "time": 181.57879000000003,
          "velocity": 0.6299212598425197
        },
        {
          "duration": 0.09210518333335926,
          "durationTicks": 56,
          "midi": 74,
          "name": "D5",
          "ticks": 110520,
          "time": 181.77615825,
          "velocity": 0.6299212598425197
        },
        {
          "duration": 0.09210518333335926,
          "durationTicks": 56,
          "midi": 76,
          "name": "E5",
          "ticks": 110580,
          "time": 181.87484237500001,
          "velocity": 0.6299212598425197
        },
        {
          "duration": 0.1907893083333363,
          "durationTicks": 116,
          "midi": 79,
          "name": "G5",
          "ticks": 110640,
          "time": 181.97352650000002,
          "velocity": 0.6299212598425197
        },
        {
          "duration": 0.1907893083333363,
          "durationTicks": 116,
          "midi": 81,
          "name": "A5",
          "ticks": 110760,
          "time": 182.17089475000003,
          "velocity": 0.6299212598425197
        },
        {
          "duration": 0.1907893083333363,
          "durationTicks": 116,
          "midi": 84,
          "name": "C6",
          "ticks": 110880,
          "time": 182.368263,
          "velocity": 0.6299212598425197
        },
        {
          "duration": 0.1907893083333363,
          "durationTicks": 116,
          "midi": 81,
          "name": "A5",
          "ticks": 111000,
          "time": 182.56563125000002,
          "velocity": 0.6299212598425197
        },
        {
          "duration": 0.3881575583333188,
          "durationTicks": 236,
          "midi": 84,
          "name": "C6",
          "ticks": 111120,
          "time": 182.76299950000003,
          "velocity": 0.6299212598425197
        },
        {
          "duration": 0.1907893083333363,
          "durationTicks": 116,
          "midi": 81,
          "name": "A5",
          "ticks": 111600,
          "time": 183.55247250000002,
          "velocity": 0.6299212598425197
        },
        {
          "duration": 0.1907893083333363,
          "durationTicks": 116,
          "midi": 84,
          "name": "C6",
          "ticks": 111720,
          "time": 183.74984075000003,
          "velocity": 0.6299212598425197
        },
        {
          "duration": 0.1907893083333363,
          "durationTicks": 116,
          "midi": 81,
          "name": "A5",
          "ticks": 111840,
          "time": 183.94720900000002,
          "velocity": 0.6299212598425197
        },
        {
          "duration": 0.1907893083333363,
          "durationTicks": 116,
          "midi": 79,
          "name": "G5",
          "ticks": 111960,
          "time": 184.14457725000003,
          "velocity": 0.6299212598425197
        },
        {
          "duration": 0.19078930833336472,
          "durationTicks": 116,
          "midi": 81,
          "name": "A5",
          "ticks": 112080,
          "time": 184.3419455,
          "velocity": 0.6299212598425197
        },
        {
          "duration": 0.1907893083333363,
          "durationTicks": 116,
          "midi": 79,
          "name": "G5",
          "ticks": 112200,
          "time": 184.53931375000002,
          "velocity": 0.6299212598425197
        },
        {
          "duration": 0.28947343333334175,
          "durationTicks": 176,
          "midi": 76,
          "name": "E5",
          "ticks": 112320,
          "time": 184.73668200000003,
          "velocity": 0.6299212598425197
        },
        {
          "duration": 0.09210518333333084,
          "durationTicks": 56,
          "midi": 74,
          "name": "D5",
          "ticks": 112500,
          "time": 185.03273437500002,
          "velocity": 0.6299212598425197
        },
        {
          "duration": 0.1907893083333363,
          "durationTicks": 116,
          "midi": 76,
          "name": "E5",
          "ticks": 112560,
          "time": 185.13141850000002,
          "velocity": 0.6299212598425197
        },
        {
          "duration": 0.1907893083333363,
          "durationTicks": 116,
          "midi": 74,
          "name": "D5",
          "ticks": 112680,
          "time": 185.32878675000003,
          "velocity": 0.6299212598425197
        },
        {
          "duration": 0.1907893083333363,
          "durationTicks": 116,
          "midi": 72,
          "name": "C5",
          "ticks": 112800,
          "time": 185.52615500000002,
          "velocity": 0.6299212598425197
        },
        {
          "duration": 0.1907893083333363,
          "durationTicks": 116,
          "midi": 74,
          "name": "D5",
          "ticks": 112920,
          "time": 185.72352325000003,
          "velocity": 0.6299212598425197
        },
        {
          "duration": 0.1907893083333363,
          "durationTicks": 116,
          "midi": 72,
          "name": "C5",
          "ticks": 113040,
          "time": 185.9208915,
          "velocity": 0.6299212598425197
        },
        {
          "duration": 0.1907893083333363,
          "durationTicks": 116,
          "midi": 74,
          "name": "D5",
          "ticks": 113160,
          "time": 186.11825975000002,
          "velocity": 0.6299212598425197
        },
        {
          "duration": 0.12499989166664704,
          "durationTicks": 76,
          "midi": 72,
          "name": "C5",
          "ticks": 113280,
          "time": 186.31562800000003,
          "velocity": 0.6299212598425197
        },
        {
          "duration": 0.12499989166664704,
          "durationTicks": 76,
          "midi": 71,
          "name": "B4",
          "ticks": 113360,
          "time": 186.44720683333335,
          "velocity": 0.6299212598425197
        },
        {
          "duration": 0.12499989166664704,
          "durationTicks": 76,
          "midi": 72,
          "name": "C5",
          "ticks": 113440,
          "time": 186.5787856666667,
          "velocity": 0.6299212598425197
        },
        {
          "duration": 0.12499989166664704,
          "durationTicks": 76,
          "midi": 74,
          "name": "D5",
          "ticks": 113520,
          "time": 186.71036450000003,
          "velocity": 0.6299212598425197
        },
        {
          "duration": 0.12499989166667547,
          "durationTicks": 76,
          "midi": 72,
          "name": "C5",
          "ticks": 113600,
          "time": 186.84194333333335,
          "velocity": 0.6299212598425197
        },
        {
          "duration": 0.12499989166667547,
          "durationTicks": 76,
          "midi": 74,
          "name": "D5",
          "ticks": 113680,
          "time": 186.9735221666667,
          "velocity": 0.6299212598425197
        },
        {
          "duration": 0.12499989166667547,
          "durationTicks": 76,
          "midi": 76,
          "name": "E5",
          "ticks": 113760,
          "time": 187.10510100000002,
          "velocity": 0.6299212598425197
        },
        {
          "duration": 0.12499989166667547,
          "durationTicks": 76,
          "midi": 74,
          "name": "D5",
          "ticks": 113840,
          "time": 187.23667983333334,
          "velocity": 0.6299212598425197
        },
        {
          "duration": 0.12499989166667547,
          "durationTicks": 76,
          "midi": 76,
          "name": "E5",
          "ticks": 113920,
          "time": 187.3682586666667,
          "velocity": 0.6299212598425197
        },
        {
          "duration": 0.12499989166667547,
          "durationTicks": 76,
          "midi": 79,
          "name": "G5",
          "ticks": 114000,
          "time": 187.4998375,
          "velocity": 0.6299212598425197
        },
        {
          "duration": 0.12499989166667547,
          "durationTicks": 76,
          "midi": 76,
          "name": "E5",
          "ticks": 114080,
          "time": 187.63141633333333,
          "velocity": 0.6299212598425197
        },
        {
          "duration": 0.12499989166667547,
          "durationTicks": 76,
          "midi": 79,
          "name": "G5",
          "ticks": 114160,
          "time": 187.76299516666668,
          "velocity": 0.6299212598425197
        },
        {
          "duration": 0.12499989166664704,
          "durationTicks": 76,
          "midi": 81,
          "name": "A5",
          "ticks": 114240,
          "time": 187.89457400000003,
          "velocity": 0.6299212598425197
        },
        {
          "duration": 0.12499989166664704,
          "durationTicks": 76,
          "midi": 79,
          "name": "G5",
          "ticks": 114320,
          "time": 188.02615283333336,
          "velocity": 0.6299212598425197
        },
        {
          "duration": 0.12499989166664704,
          "durationTicks": 76,
          "midi": 81,
          "name": "A5",
          "ticks": 114400,
          "time": 188.1577316666667,
          "velocity": 0.6299212598425197
        },
        {
          "duration": 0.12499989166664704,
          "durationTicks": 76,
          "midi": 84,
          "name": "C6",
          "ticks": 114480,
          "time": 188.28931050000003,
          "velocity": 0.6299212598425197
        },
        {
          "duration": 0.12499989166667547,
          "durationTicks": 76,
          "midi": 81,
          "name": "A5",
          "ticks": 114560,
          "time": 188.42088933333335,
          "velocity": 0.6299212598425197
        },
        {
          "duration": 0.12499989166667547,
          "durationTicks": 76,
          "midi": 84,
          "name": "C6",
          "ticks": 114640,
          "time": 188.5524681666667,
          "velocity": 0.6299212598425197
        },
        {
          "duration": 0.12499989166667547,
          "durationTicks": 76,
          "midi": 86,
          "name": "D6",
          "ticks": 114720,
          "time": 188.68404700000002,
          "velocity": 0.6299212598425197
        },
        {
          "duration": 0.12499989166667547,
          "durationTicks": 76,
          "midi": 84,
          "name": "C6",
          "ticks": 114800,
          "time": 188.81562583333334,
          "velocity": 0.6299212598425197
        },
        {
          "duration": 0.12499989166667547,
          "durationTicks": 76,
          "midi": 86,
          "name": "D6",
          "ticks": 114880,
          "time": 188.9472046666667,
          "velocity": 0.6299212598425197
        },
        {
          "duration": 0.12499989166667547,
          "durationTicks": 76,
          "midi": 88,
          "name": "E6",
          "ticks": 114960,
          "time": 189.07878350000001,
          "velocity": 0.6299212598425197
        },
        {
          "duration": 0.12499989166667547,
          "durationTicks": 76,
          "midi": 86,
          "name": "D6",
          "ticks": 115040,
          "time": 189.21036233333334,
          "velocity": 0.6299212598425197
        },
        {
          "duration": 0.12499989166667547,
          "durationTicks": 76,
          "midi": 88,
          "name": "E6",
          "ticks": 115120,
          "time": 189.3419411666667,
          "velocity": 0.6299212598425197
        },
        {
          "duration": 1.5723670583333558,
          "durationTicks": 956,
          "midi": 91,
          "name": "G6",
          "ticks": 115200,
          "time": 189.47352,
          "velocity": 0.6299212598425197
        },
        {
          "duration": 0.3881575583333472,
          "durationTicks": 236,
          "midi": 74,
          "name": "D5",
          "ticks": 116640,
          "time": 191.84193900000002,
          "velocity": 0.6299212598425197
        },
        {
          "duration": 0.3881575583333472,
          "durationTicks": 236,
          "midi": 76,
          "name": "E5",
          "ticks": 116880,
          "time": 192.23667550000002,
          "velocity": 0.6299212598425197
        },
        {
          "duration": 0.3881575583333472,
          "durationTicks": 236,
          "midi": 74,
          "name": "D5",
          "ticks": 117120,
          "time": 192.631412,
          "velocity": 0.6299212598425197
        },
        {
          "duration": 0.1907893083333363,
          "durationTicks": 116,
          "midi": 72,
          "name": "C5",
          "ticks": 117360,
          "time": 193.02614850000003,
          "velocity": 0.6299212598425197
        },
        {
          "duration": 0.5855258083333581,
          "durationTicks": 356,
          "midi": 69,
          "name": "A4",
          "ticks": 117480,
          "time": 193.22351675000002,
          "velocity": 0.6299212598425197
        },
        {
          "duration": 0.3881575583333472,
          "durationTicks": 236,
          "midi": 72,
          "name": "C5",
          "ticks": 117840,
          "time": 193.81562150000002,
          "velocity": 0.6299212598425197
        },
        {
          "duration": 0.3881575583333472,
          "durationTicks": 236,
          "midi": 74,
          "name": "D5",
          "ticks": 118080,
          "time": 194.210358,
          "velocity": 0.6299212598425197
        },
        {
          "duration": 0.1907893083333363,
          "durationTicks": 116,
          "midi": 72,
          "name": "C5",
          "ticks": 118320,
          "time": 194.60509450000004,
          "velocity": 0.6299212598425197
        },
        {
          "duration": 0.5855258083333581,
          "durationTicks": 356,
          "midi": 69,
          "name": "A4",
          "ticks": 118440,
          "time": 194.80246275000002,
          "velocity": 0.6299212598425197
        },
        {
          "duration": 0.3881575583333472,
          "durationTicks": 236,
          "midi": 72,
          "name": "C5",
          "ticks": 118800,
          "time": 195.39456750000002,
          "velocity": 0.6299212598425197
        },
        {
          "duration": 0.3881575583333472,
          "durationTicks": 236,
          "midi": 67,
          "name": "G4",
          "ticks": 119040,
          "time": 195.78930400000002,
          "velocity": 0.6299212598425197
        },
        {
          "duration": 0.19078930833336472,
          "durationTicks": 116,
          "midi": 69,
          "name": "A4",
          "ticks": 119280,
          "time": 196.1840405,
          "velocity": 0.6299212598425197
        },
        {
          "duration": 0.5855258083333297,
          "durationTicks": 356,
          "midi": 72,
          "name": "C5",
          "ticks": 119400,
          "time": 196.38140875000002,
          "velocity": 0.6299212598425197
        },
        {
          "duration": 0.3881575583333472,
          "durationTicks": 236,
          "midi": 79,
          "name": "G5",
          "ticks": 119760,
          "time": 196.97351350000002,
          "velocity": 0.6299212598425197
        },
        {
          "duration": 0.7828940583333406,
          "durationTicks": 476,
          "midi": 76,
          "name": "E5",
          "ticks": 120000,
          "time": 197.36825000000002,
          "velocity": 0.6299212598425197
        },
        {
          "duration": 0.3881575583333188,
          "durationTicks": 236,
          "midi": 74,
          "name": "D5",
          "ticks": 120480,
          "time": 198.15772300000003,
          "velocity": 0.6299212598425197
        },
        {
          "duration": 0.3881575583333472,
          "durationTicks": 236,
          "midi": 76,
          "name": "E5",
          "ticks": 120720,
          "time": 198.55245950000003,
          "velocity": 0.6299212598425197
        },
        {
          "duration": 0.3881575583333472,
          "durationTicks": 236,
          "midi": 74,
          "name": "D5",
          "ticks": 120960,
          "time": 198.94719600000002,
          "velocity": 0.6299212598425197
        },
        {
          "duration": 0.1907893083333363,
          "durationTicks": 116,
          "midi": 72,
          "name": "C5",
          "ticks": 121200,
          "time": 199.3419325,
          "velocity": 0.6299212598425197
        },
        {
          "duration": 0.5855258083333297,
          "durationTicks": 356,
          "midi": 69,
          "name": "A4",
          "ticks": 121320,
          "time": 199.53930075000002,
          "velocity": 0.6299212598425197
        },
        {
          "duration": 0.3881575583333472,
          "durationTicks": 236,
          "midi": 72,
          "name": "C5",
          "ticks": 121680,
          "time": 200.13140550000003,
          "velocity": 0.6299212598425197
        },
        {
          "duration": 0.3881575583333472,
          "durationTicks": 236,
          "midi": 79,
          "name": "G5",
          "ticks": 121920,
          "time": 200.52614200000002,
          "velocity": 0.6299212598425197
        },
        {
          "duration": 0.1907893083333363,
          "durationTicks": 116,
          "midi": 76,
          "name": "E5",
          "ticks": 122160,
          "time": 200.92087850000001,
          "velocity": 0.6299212598425197
        },
        {
          "duration": 0.5855258083333297,
          "durationTicks": 356,
          "midi": 74,
          "name": "D5",
          "ticks": 122280,
          "time": 201.11824675000003,
          "velocity": 0.6299212598425197
        },
        {
          "duration": 0.3881575583333188,
          "durationTicks": 236,
          "midi": 72,
          "name": "C5",
          "ticks": 122640,
          "time": 201.71035150000003,
          "velocity": 0.6299212598425197
        },
        {
          "duration": 1.5723670583333273,
          "durationTicks": 956,
          "midi": 76,
          "name": "E5",
          "ticks": 122880,
          "time": 202.10508800000002,
          "velocity": 0.6299212598425197
        },
        {
          "duration": 0.3881575583333472,
          "durationTicks": 236,
          "midi": 74,
          "name": "D5",
          "ticks": 124320,
          "time": 204.473507,
          "velocity": 0.6299212598425197
        },
        {
          "duration": 0.3881575583333188,
          "durationTicks": 236,
          "midi": 76,
          "name": "E5",
          "ticks": 124560,
          "time": 204.86824350000003,
          "velocity": 0.6299212598425197
        },
        {
          "duration": 0.3881575583333472,
          "durationTicks": 236,
          "midi": 74,
          "name": "D5",
          "ticks": 124800,
          "time": 205.26298000000003,
          "velocity": 0.6299212598425197
        },
        {
          "duration": 0.1907893083333363,
          "durationTicks": 116,
          "midi": 72,
          "name": "C5",
          "ticks": 125040,
          "time": 205.65771650000002,
          "velocity": 0.6299212598425197
        },
        {
          "duration": 0.5855258083333297,
          "durationTicks": 356,
          "midi": 69,
          "name": "A4",
          "ticks": 125160,
          "time": 205.85508475000003,
          "velocity": 0.6299212598425197
        },
        {
          "duration": 0.3881575583333188,
          "durationTicks": 236,
          "midi": 72,
          "name": "C5",
          "ticks": 125520,
          "time": 206.44718950000004,
          "velocity": 0.6299212598425197
        },
        {
          "duration": 0.3881575583333472,
          "durationTicks": 236,
          "midi": 74,
          "name": "D5",
          "ticks": 125760,
          "time": 206.84192600000003,
          "velocity": 0.6299212598425197
        },
        {
          "duration": 0.1907893083333363,
          "durationTicks": 116,
          "midi": 72,
          "name": "C5",
          "ticks": 126000,
          "time": 207.23666250000002,
          "velocity": 0.6299212598425197
        },
        {
          "duration": 0.5855258083333297,
          "durationTicks": 356,
          "midi": 69,
          "name": "A4",
          "ticks": 126120,
          "time": 207.43403075000003,
          "velocity": 0.6299212598425197
        },
        {
          "duration": 0.3881575583333188,
          "durationTicks": 236,
          "midi": 72,
          "name": "C5",
          "ticks": 126480,
          "time": 208.02613550000004,
          "velocity": 0.6299212598425197
        },
        {
          "duration": 0.3881575583333188,
          "durationTicks": 236,
          "midi": 79,
          "name": "G5",
          "ticks": 126720,
          "time": 208.42087200000003,
          "velocity": 0.6299212598425197
        },
        {
          "duration": 0.1907893083333363,
          "durationTicks": 116,
          "midi": 76,
          "name": "E5",
          "ticks": 126960,
          "time": 208.81560850000002,
          "velocity": 0.6299212598425197
        },
        {
          "duration": 0.5855258083333297,
          "durationTicks": 356,
          "midi": 74,
          "name": "D5",
          "ticks": 127080,
          "time": 209.01297675000004,
          "velocity": 0.6299212598425197
        },
        {
          "duration": 0.3881575583333472,
          "durationTicks": 236,
          "midi": 72,
          "name": "C5",
          "ticks": 127440,
          "time": 209.6050815,
          "velocity": 0.6299212598425197
        },
        {
          "duration": 0.7828940583333406,
          "durationTicks": 476,
          "midi": 69,
          "name": "A4",
          "ticks": 127680,
          "time": 209.99981800000003,
          "velocity": 0.6299212598425197
        },
        {
          "duration": 0.3881575583333472,
          "durationTicks": 236,
          "midi": 74,
          "name": "D5",
          "ticks": 128160,
          "time": 210.78929100000002,
          "velocity": 0.6299212598425197
        },
        {
          "duration": 0.3881575583333472,
          "durationTicks": 236,
          "midi": 76,
          "name": "E5",
          "ticks": 128400,
          "time": 211.1840275,
          "velocity": 0.6299212598425197
        },
        {
          "duration": 0.3881575583333188,
          "durationTicks": 236,
          "midi": 74,
          "name": "D5",
          "ticks": 128640,
          "time": 211.57876400000004,
          "velocity": 0.6299212598425197
        },
        {
          "duration": 0.1907893083333363,
          "durationTicks": 116,
          "midi": 72,
          "name": "C5",
          "ticks": 128880,
          "time": 211.97350050000003,
          "velocity": 0.6299212598425197
        },
        {
          "duration": 0.5855258083333581,
          "durationTicks": 356,
          "midi": 69,
          "name": "A4",
          "ticks": 129000,
          "time": 212.17086875,
          "velocity": 0.6299212598425197
        },
        {
          "duration": 0.3881575583333472,
          "durationTicks": 236,
          "midi": 72,
          "name": "C5",
          "ticks": 129360,
          "time": 212.76297350000002,
          "velocity": 0.6299212598425197
        },
        {
          "duration": 0.3881575583333188,
          "durationTicks": 236,
          "midi": 74,
          "name": "D5",
          "ticks": 129600,
          "time": 213.15771000000004,
          "velocity": 0.6299212598425197
        },
        {
          "duration": 0.1907893083333363,
          "durationTicks": 116,
          "midi": 72,
          "name": "C5",
          "ticks": 129840,
          "time": 213.55244650000003,
          "velocity": 0.6299212598425197
        },
        {
          "duration": 0.19078930833336472,
          "durationTicks": 116,
          "midi": 69,
          "name": "A4",
          "ticks": 129960,
          "time": 213.74981475,
          "velocity": 0.6299212598425197
        },
        {
          "duration": 0.3881575583333472,
          "durationTicks": 236,
          "midi": 69,
          "name": "A4",
          "ticks": 130080,
          "time": 213.94718300000002,
          "velocity": 0.6299212598425197
        },
        {
          "duration": 0.1907893083333363,
          "durationTicks": 116,
          "midi": 74,
          "name": "D5",
          "ticks": 130320,
          "time": 214.34191950000002,
          "velocity": 0.6299212598425197
        },
        {
          "duration": 0.1907893083333363,
          "durationTicks": 116,
          "midi": 72,
          "name": "C5",
          "ticks": 130440,
          "time": 214.53928775000003,
          "velocity": 0.6299212598425197
        },
        {
          "duration": 1.5723670583333273,
          "durationTicks": 956,
          "midi": 72,
          "name": "C5",
          "ticks": 130560,
          "time": 214.73665600000004,
          "velocity": 0.6299212598425197
        },
        {
          "duration": 0.3881575583333472,
          "durationTicks": 236,
          "midi": 74,
          "name": "D5",
          "ticks": 132000,
          "time": 217.10507500000003,
          "velocity": 0.6299212598425197
        },
        {
          "duration": 0.3881575583333472,
          "durationTicks": 236,
          "midi": 76,
          "name": "E5",
          "ticks": 132240,
          "time": 217.49981150000002,
          "velocity": 0.6299212598425197
        },
        {
          "duration": 0.3881575583333472,
          "durationTicks": 236,
          "midi": 74,
          "name": "D5",
          "ticks": 132480,
          "time": 217.89454800000001,
          "velocity": 0.6299212598425197
        },
        {
          "duration": 0.1907893083333363,
          "durationTicks": 116,
          "midi": 72,
          "name": "C5",
          "ticks": 132720,
          "time": 218.28928450000004,
          "velocity": 0.6299212598425197
        },
        {
          "duration": 0.5855258083333581,
          "durationTicks": 356,
          "midi": 69,
          "name": "A4",
          "ticks": 132840,
          "time": 218.48665275000002,
          "velocity": 0.6299212598425197
        },
        {
          "duration": 0.3881575583333472,
          "durationTicks": 236,
          "midi": 72,
          "name": "C5",
          "ticks": 133200,
          "time": 219.07875750000002,
          "velocity": 0.6299212598425197
        },
        {
          "duration": 0.3881575583333472,
          "durationTicks": 236,
          "midi": 74,
          "name": "D5",
          "ticks": 133440,
          "time": 219.47349400000002,
          "velocity": 0.6299212598425197
        },
        {
          "duration": 0.1907893083333363,
          "durationTicks": 116,
          "midi": 72,
          "name": "C5",
          "ticks": 133680,
          "time": 219.86823050000004,
          "velocity": 0.6299212598425197
        },
        {
          "duration": 0.5855258083333581,
          "durationTicks": 356,
          "midi": 69,
          "name": "A4",
          "ticks": 133800,
          "time": 220.06559875000002,
          "velocity": 0.6299212598425197
        },
        {
          "duration": 0.3881575583333472,
          "durationTicks": 236,
          "midi": 72,
          "name": "C5",
          "ticks": 134160,
          "time": 220.65770350000003,
          "velocity": 0.6299212598425197
        },
        {
          "duration": 0.3881575583333472,
          "durationTicks": 236,
          "midi": 67,
          "name": "G4",
          "ticks": 134400,
          "time": 221.05244000000002,
          "velocity": 0.6299212598425197
        },
        {
          "duration": 0.19078930833336472,
          "durationTicks": 116,
          "midi": 69,
          "name": "A4",
          "ticks": 134640,
          "time": 221.4471765,
          "velocity": 0.6299212598425197
        },
        {
          "duration": 0.5855258083333297,
          "durationTicks": 356,
          "midi": 72,
          "name": "C5",
          "ticks": 134760,
          "time": 221.64454475000002,
          "velocity": 0.6299212598425197
        },
        {
          "duration": 0.3881575583333472,
          "durationTicks": 236,
          "midi": 79,
          "name": "G5",
          "ticks": 135120,
          "time": 222.23664950000003,
          "velocity": 0.6299212598425197
        },
        {
          "duration": 0.7828940583333406,
          "durationTicks": 476,
          "midi": 76,
          "name": "E5",
          "ticks": 135360,
          "time": 222.63138600000002,
          "velocity": 0.6299212598425197
        },
        {
          "duration": 0.3881575583333188,
          "durationTicks": 236,
          "midi": 74,
          "name": "D5",
          "ticks": 135840,
          "time": 223.42085900000004,
          "velocity": 0.6299212598425197
        },
        {
          "duration": 0.3881575583333472,
          "durationTicks": 236,
          "midi": 76,
          "name": "E5",
          "ticks": 136080,
          "time": 223.81559550000003,
          "velocity": 0.6299212598425197
        },
        {
          "duration": 0.3881575583333472,
          "durationTicks": 236,
          "midi": 74,
          "name": "D5",
          "ticks": 136320,
          "time": 224.21033200000002,
          "velocity": 0.6299212598425197
        },
        {
          "duration": 0.1907893083333363,
          "durationTicks": 116,
          "midi": 72,
          "name": "C5",
          "ticks": 136560,
          "time": 224.60506850000002,
          "velocity": 0.6299212598425197
        },
        {
          "duration": 0.5855258083333297,
          "durationTicks": 356,
          "midi": 69,
          "name": "A4",
          "ticks": 136680,
          "time": 224.80243675000003,
          "velocity": 0.6299212598425197
        },
        {
          "duration": 0.3881575583333472,
          "durationTicks": 236,
          "midi": 72,
          "name": "C5",
          "ticks": 137040,
          "time": 225.39454150000003,
          "velocity": 0.6299212598425197
        },
        {
          "duration": 0.3881575583333472,
          "durationTicks": 236,
          "midi": 79,
          "name": "G5",
          "ticks": 137280,
          "time": 225.78927800000002,
          "velocity": 0.6299212598425197
        },
        {
          "duration": 0.1907893083333363,
          "durationTicks": 116,
          "midi": 76,
          "name": "E5",
          "ticks": 137520,
          "time": 226.18401450000002,
          "velocity": 0.6299212598425197
        },
        {
          "duration": 0.5855258083333297,
          "durationTicks": 356,
          "midi": 74,
          "name": "D5",
          "ticks": 137640,
          "time": 226.38138275000003,
          "velocity": 0.6299212598425197
        },
        {
          "duration": 0.3881575583333188,
          "durationTicks": 236,
          "midi": 72,
          "name": "C5",
          "ticks": 138000,
          "time": 226.97348750000003,
          "velocity": 0.6299212598425197
        },
        {
          "duration": 1.5723670583333273,
          "durationTicks": 956,
          "midi": 76,
          "name": "E5",
          "ticks": 138240,
          "time": 227.36822400000003,
          "velocity": 0.6299212598425197
        },
        {
          "duration": 0.3881575583333472,
          "durationTicks": 236,
          "midi": 74,
          "name": "D5",
          "ticks": 139680,
          "time": 229.73664300000002,
          "velocity": 0.6299212598425197
        },
        {
          "duration": 0.3881575583333188,
          "durationTicks": 236,
          "midi": 76,
          "name": "E5",
          "ticks": 139920,
          "time": 230.13137950000004,
          "velocity": 0.6299212598425197
        },
        {
          "duration": 0.3881575583333472,
          "durationTicks": 236,
          "midi": 74,
          "name": "D5",
          "ticks": 140160,
          "time": 230.52611600000003,
          "velocity": 0.6299212598425197
        },
        {
          "duration": 0.1907893083333363,
          "durationTicks": 116,
          "midi": 72,
          "name": "C5",
          "ticks": 140400,
          "time": 230.92085250000002,
          "velocity": 0.6299212598425197
        },
        {
          "duration": 0.5855258083333297,
          "durationTicks": 356,
          "midi": 69,
          "name": "A4",
          "ticks": 140520,
          "time": 231.11822075000003,
          "velocity": 0.6299212598425197
        },
        {
          "duration": 0.3881575583333188,
          "durationTicks": 236,
          "midi": 72,
          "name": "C5",
          "ticks": 140880,
          "time": 231.71032550000004,
          "velocity": 0.6299212598425197
        },
        {
          "duration": 0.3881575583333472,
          "durationTicks": 236,
          "midi": 74,
          "name": "D5",
          "ticks": 141120,
          "time": 232.10506200000003,
          "velocity": 0.6299212598425197
        },
        {
          "duration": 0.1907893083333363,
          "durationTicks": 116,
          "midi": 72,
          "name": "C5",
          "ticks": 141360,
          "time": 232.49979850000003,
          "velocity": 0.6299212598425197
        },
        {
          "duration": 0.5855258083333297,
          "durationTicks": 356,
          "midi": 69,
          "name": "A4",
          "ticks": 141480,
          "time": 232.69716675000004,
          "velocity": 0.6299212598425197
        },
        {
          "duration": 0.3881575583333188,
          "durationTicks": 236,
          "midi": 72,
          "name": "C5",
          "ticks": 141840,
          "time": 233.28927150000004,
          "velocity": 0.6299212598425197
        },
        {
          "duration": 0.3881575583333188,
          "durationTicks": 236,
          "midi": 79,
          "name": "G5",
          "ticks": 142080,
          "time": 233.68400800000003,
          "velocity": 0.6299212598425197
        },
        {
          "duration": 0.1907893083333363,
          "durationTicks": 116,
          "midi": 76,
          "name": "E5",
          "ticks": 142320,
          "time": 234.07874450000003,
          "velocity": 0.6299212598425197
        },
        {
          "duration": 0.5855258083333297,
          "durationTicks": 356,
          "midi": 74,
          "name": "D5",
          "ticks": 142440,
          "time": 234.27611275000004,
          "velocity": 0.6299212598425197
        },
        {
          "duration": 0.3881575583333472,
          "durationTicks": 236,
          "midi": 72,
          "name": "C5",
          "ticks": 142800,
          "time": 234.86821750000001,
          "velocity": 0.6299212598425197
        },
        {
          "duration": 0.7828940583333406,
          "durationTicks": 476,
          "midi": 69,
          "name": "A4",
          "ticks": 143040,
          "time": 235.26295400000004,
          "velocity": 0.6299212598425197
        },
        {
          "duration": 0.3881575583333472,
          "durationTicks": 236,
          "midi": 74,
          "name": "D5",
          "ticks": 143520,
          "time": 236.05242700000002,
          "velocity": 0.6299212598425197
        },
        {
          "duration": 0.3881575583333472,
          "durationTicks": 236,
          "midi": 76,
          "name": "E5",
          "ticks": 143760,
          "time": 236.44716350000002,
          "velocity": 0.6299212598425197
        },
        {
          "duration": 0.3881575583333188,
          "durationTicks": 236,
          "midi": 74,
          "name": "D5",
          "ticks": 144000,
          "time": 236.84190000000004,
          "velocity": 0.6299212598425197
        },
        {
          "duration": 0.1907893083333363,
          "durationTicks": 116,
          "midi": 72,
          "name": "C5",
          "ticks": 144240,
          "time": 237.23663650000003,
          "velocity": 0.6299212598425197
        },
        {
          "duration": 0.5855258083333581,
          "durationTicks": 356,
          "midi": 69,
          "name": "A4",
          "ticks": 144360,
          "time": 237.43400475,
          "velocity": 0.6299212598425197
        },
        {
          "duration": 0.3881575583333472,
          "durationTicks": 236,
          "midi": 72,
          "name": "C5",
          "ticks": 144720,
          "time": 238.02610950000002,
          "velocity": 0.6299212598425197
        },
        {
          "duration": 0.3881575583333188,
          "durationTicks": 236,
          "midi": 74,
          "name": "D5",
          "ticks": 144960,
          "time": 238.42084600000004,
          "velocity": 0.6299212598425197
        },
        {
          "duration": 0.1907893083333363,
          "durationTicks": 116,
          "midi": 72,
          "name": "C5",
          "ticks": 145200,
          "time": 238.81558250000003,
          "velocity": 0.6299212598425197
        },
        {
          "duration": 0.5855258083333581,
          "durationTicks": 356,
          "midi": 69,
          "name": "A4",
          "ticks": 145320,
          "time": 239.01295075000002,
          "velocity": 0.6299212598425197
        },
        {
          "duration": 0.1907893083333363,
          "durationTicks": 116,
          "midi": 74,
          "name": "D5",
          "ticks": 145680,
          "time": 239.60505550000002,
          "velocity": 0.6299212598425197
        },
        {
          "duration": 0.1907893083333363,
          "durationTicks": 116,
          "midi": 72,
          "name": "C5",
          "ticks": 145800,
          "time": 239.80242375000003,
          "velocity": 0.6299212598425197
        },
        {
          "duration": 1.5723670583333558,
          "durationTicks": 956,
          "midi": 72,
          "name": "C5",
          "ticks": 145920,
          "time": 239.999792,
          "velocity": 0.6299212598425197
        },
        {
          "duration": 0.3881575583333472,
          "durationTicks": 236,
          "midi": 81,
          "name": "A5",
          "ticks": 147360,
          "time": 242.36821100000003,
          "velocity": 0.6299212598425197
        },
        {
          "duration": 0.3881575583333472,
          "durationTicks": 236,
          "midi": 84,
          "name": "C6",
          "ticks": 147600,
          "time": 242.76294750000002,
          "velocity": 0.6299212598425197
        },
        {
          "duration": 0.3881575583333472,
          "durationTicks": 236,
          "midi": 86,
          "name": "D6",
          "ticks": 147840,
          "time": 243.15768400000002,
          "velocity": 0.6299212598425197
        },
        {
          "duration": 0.1907893083333363,
          "durationTicks": 116,
          "midi": 84,
          "name": "C6",
          "ticks": 148080,
          "time": 243.55242050000004,
          "velocity": 0.6299212598425197
        },
        {
          "duration": 0.5855258083333581,
          "durationTicks": 356,
          "midi": 86,
          "name": "D6",
          "ticks": 148200,
          "time": 243.74978875000002,
          "velocity": 0.6299212598425197
        },
        {
          "duration": 0.3881575583333472,
          "durationTicks": 236,
          "midi": 88,
          "name": "E6",
          "ticks": 148560,
          "time": 244.34189350000003,
          "velocity": 0.6299212598425197
        },
        {
          "duration": 0.5855258083333581,
          "durationTicks": 356,
          "midi": 91,
          "name": "G6",
          "ticks": 148800,
          "time": 244.73663000000002,
          "velocity": 0.6299212598425197
        },
        {
          "duration": 0.1907893083333363,
          "durationTicks": 116,
          "midi": 88,
          "name": "E6",
          "ticks": 149160,
          "time": 245.32873475000002,
          "velocity": 0.6299212598425197
        },
        {
          "duration": 0.3881575583333472,
          "durationTicks": 236,
          "midi": 86,
          "name": "D6",
          "ticks": 149280,
          "time": 245.52610300000003,
          "velocity": 0.6299212598425197
        },
        {
          "duration": 0.3881575583333472,
          "durationTicks": 236,
          "midi": 84,
          "name": "C6",
          "ticks": 149520,
          "time": 245.92083950000003,
          "velocity": 0.6299212598425197
        },
        {
          "duration": 0.5855258083333581,
          "durationTicks": 356,
          "midi": 86,
          "name": "D6",
          "ticks": 149760,
          "time": 246.31557600000002,
          "velocity": 0.6299212598425197
        },
        {
          "duration": 0.1907893083333363,
          "durationTicks": 116,
          "midi": 88,
          "name": "E6",
          "ticks": 150120,
          "time": 246.90768075000003,
          "velocity": 0.6299212598425197
        },
        {
          "duration": 0.3881575583333188,
          "durationTicks": 236,
          "midi": 86,
          "name": "D6",
          "ticks": 150240,
          "time": 247.10504900000004,
          "velocity": 0.6299212598425197
        },
        {
          "duration": 0.3881575583333472,
          "durationTicks": 236,
          "midi": 84,
          "name": "C6",
          "ticks": 150480,
          "time": 247.49978550000003,
          "velocity": 0.6299212598425197
        },
        {
          "duration": 1.5723670583333558,
          "durationTicks": 956,
          "midi": 81,
          "name": "A5",
          "ticks": 150720,
          "time": 247.89452200000002,
          "velocity": 0.6299212598425197
        },
        {
          "duration": 1.177630558333334,
          "durationTicks": 716,
          "midi": 81,
          "name": "A5",
          "ticks": 151680,
          "time": 249.47346800000003,
          "velocity": 0.6299212598425197
        },
        {
          "duration": 0.3881575583333472,
          "durationTicks": 236,
          "midi": 88,
          "name": "E6",
          "ticks": 152400,
          "time": 250.65767750000003,
          "velocity": 0.6299212598425197
        },
        {
          "duration": 0.3881575583333472,
          "durationTicks": 236,
          "midi": 86,
          "name": "D6",
          "ticks": 152640,
          "time": 251.05241400000003,
          "velocity": 0.6299212598425197
        },
        {
          "duration": 0.1907893083333363,
          "durationTicks": 116,
          "midi": 86,
          "name": "D6",
          "ticks": 152880,
          "time": 251.44715050000002,
          "velocity": 0.6299212598425197
        },
        {
          "duration": 0.1907893083333363,
          "durationTicks": 116,
          "midi": 88,
          "name": "E6",
          "ticks": 153000,
          "time": 251.64451875000003,
          "velocity": 0.6299212598425197
        },
        {
          "duration": 0.3881575583333188,
          "durationTicks": 236,
          "midi": 83,
          "name": "B5",
          "ticks": 153120,
          "time": 251.84188700000004,
          "velocity": 0.6299212598425197
        },
        {
          "duration": 0.3881575583333188,
          "durationTicks": 236,
          "midi": 79,
          "name": "G5",
          "ticks": 153360,
          "time": 252.23662350000004,
          "velocity": 0.6299212598425197
        },
        {
          "duration": 0.1776314250000155,
          "durationTicks": 108,
          "midi": 79,
          "name": "G5",
          "ticks": 153488,
          "time": 252.44714963333334,
          "velocity": 0.6299212598425197
        },
        {
          "duration": 3.1513130583333293,
          "durationTicks": 1916,
          "midi": 81,
          "name": "A5",
          "ticks": 153600,
          "time": 252.63136000000003,
          "velocity": 0.6299212598425197
        }
      ]
    },
    {
      "channel": 0,
      "controlChanges": {},
      "pitchBends": [],
      "instrument": {
        "family": "piano",
        "name": "acoustic grand piano",
        "number": 0
      },
      "name": "Melody",
      "notes": []
    },
    {
      "channel": 3,
      "controlChanges": {},
      "pitchBends": [],
      "instrument": {
        "family": "piano",
        "name": "acoustic grand piano",
        "number": 0
      },
      "name": "",
      "notes": [
        {
          "duration": 0.3881575583333334,
          "durationTicks": 236,
          "midi": 57,
          "name": "A3",
          "ticks": 0,
          "time": 0,
          "velocity": 0.5039370078740157
        },
        {
          "duration": 0.38815755833333343,
          "durationTicks": 236,
          "midi": 48,
          "name": "C3",
          "ticks": 240,
          "time": 0.39473650000000005,
          "velocity": 0.5039370078740157
        },
        {
          "duration": 0.38815755833333343,
          "durationTicks": 236,
          "midi": 53,
          "name": "F3",
          "ticks": 480,
          "time": 0.7894730000000001,
          "velocity": 0.5039370078740157
        },
        {
          "duration": 0.38815755833333343,
          "durationTicks": 236,
          "midi": 55,
          "name": "G3",
          "ticks": 720,
          "time": 1.1842095000000001,
          "velocity": 0.5039370078740157
        },
        {
          "duration": 0.38815755833333343,
          "durationTicks": 236,
          "midi": 59,
          "name": "B3",
          "ticks": 960,
          "time": 1.5789460000000002,
          "velocity": 0.5039370078740157
        },
        {
          "duration": 0.38815755833333343,
          "durationTicks": 236,
          "midi": 50,
          "name": "D3",
          "ticks": 1200,
          "time": 1.9736825000000002,
          "velocity": 0.5039370078740157
        },
        {
          "duration": 0.38815755833333343,
          "durationTicks": 236,
          "midi": 53,
          "name": "F3",
          "ticks": 1440,
          "time": 2.3684190000000003,
          "velocity": 0.5039370078740157
        },
        {
          "duration": 0.38815755833333343,
          "durationTicks": 236,
          "midi": 55,
          "name": "G3",
          "ticks": 1680,
          "time": 2.7631555000000003,
          "velocity": 0.5039370078740157
        },
        {
          "duration": 0.388157558333333,
          "durationTicks": 236,
          "midi": 60,
          "name": "C4",
          "ticks": 1920,
          "time": 3.1578920000000004,
          "velocity": 0.5039370078740157
        },
        {
          "duration": 0.388157558333333,
          "durationTicks": 236,
          "midi": 48,
          "name": "C3",
          "ticks": 2160,
          "time": 3.5526285000000004,
          "velocity": 0.5039370078740157
        },
        {
          "duration": 0.388157558333333,
          "durationTicks": 236,
          "midi": 52,
          "name": "E3",
          "ticks": 2400,
          "time": 3.9473650000000005,
          "velocity": 0.5039370078740157
        },
        {
          "duration": 0.3881575583333339,
          "durationTicks": 236,
          "midi": 55,
          "name": "G3",
          "ticks": 2640,
          "time": 4.3421015,
          "velocity": 0.5039370078740157
        },
        {
          "duration": 0.388157558333333,
          "durationTicks": 236,
          "midi": 55,
          "name": "G3",
          "ticks": 2880,
          "time": 4.7368380000000005,
          "velocity": 0.5039370078740157
        },
        {
          "duration": 0.19078930833333274,
          "durationTicks": 116,
          "midi": 52,
          "name": "E3",
          "ticks": 3120,
          "time": 5.131574500000001,
          "velocity": 0.5039370078740157
        },
        {
          "duration": 0.5855258083333332,
          "durationTicks": 356,
          "midi": 55,
          "name": "G3",
          "ticks": 3240,
          "time": 5.32894275,
          "velocity": 0.5039370078740157
        },
        {
          "duration": 0.3881575583333339,
          "durationTicks": 236,
          "midi": 52,
          "name": "E3",
          "ticks": 3600,
          "time": 5.9210475,
          "velocity": 0.5039370078740157
        },
        {
          "duration": 0.3881575583333339,
          "durationTicks": 236,
          "midi": 57,
          "name": "A3",
          "ticks": 3840,
          "time": 6.315784000000001,
          "velocity": 0.5039370078740157
        },
        {
          "duration": 0.388157558333333,
          "durationTicks": 236,
          "midi": 48,
          "name": "C3",
          "ticks": 4080,
          "time": 6.710520500000001,
          "velocity": 0.5039370078740157
        },
        {
          "duration": 0.7828940583333335,
          "durationTicks": 476,
          "midi": 53,
          "name": "F3",
          "ticks": 4320,
          "time": 7.105257000000001,
          "velocity": 0.5039370078740157
        },
        {
          "duration": 0.388157558333333,
          "durationTicks": 236,
          "midi": 59,
          "name": "B3",
          "ticks": 4800,
          "time": 7.894730000000001,
          "velocity": 0.5039370078740157
        },
        {
          "duration": 0.388157558333333,
          "durationTicks": 236,
          "midi": 47,
          "name": "B2",
          "ticks": 5040,
          "time": 8.289466500000001,
          "velocity": 0.5039370078740157
        },
        {
          "duration": 0.7828940583333353,
          "durationTicks": 476,
          "midi": 53,
          "name": "F3",
          "ticks": 5280,
          "time": 8.684203,
          "velocity": 0.5039370078740157
        },
        {
          "duration": 0.7828940583333353,
          "durationTicks": 476,
          "midi": 50,
          "name": "D3",
          "ticks": 5280,
          "time": 8.684203,
          "velocity": 0.5039370078740157
        },
        {
          "duration": 0.388157558333333,
          "durationTicks": 236,
          "midi": 60,
          "name": "C4",
          "ticks": 5760,
          "time": 9.473676000000001,
          "velocity": 0.5039370078740157
        },
        {
          "duration": 0.388157558333333,
          "durationTicks": 236,
          "midi": 45,
          "name": "A2",
          "ticks": 6000,
          "time": 9.868412500000002,
          "velocity": 0.5039370078740157
        },
        {
          "duration": 0.388157558333333,
          "durationTicks": 236,
          "midi": 48,
          "name": "C3",
          "ticks": 6240,
          "time": 10.263149000000002,
          "velocity": 0.5039370078740157
        },
        {
          "duration": 0.38815755833333476,
          "durationTicks": 236,
          "midi": 50,
          "name": "D3",
          "ticks": 6480,
          "time": 10.6578855,
          "velocity": 0.5039370078740157
        },
        {
          "duration": 0.7828940583333335,
          "durationTicks": 476,
          "midi": 57,
          "name": "A3",
          "ticks": 6720,
          "time": 11.052622000000001,
          "velocity": 0.5039370078740157
        },
        {
          "duration": 0.7828940583333335,
          "durationTicks": 476,
          "midi": 45,
          "name": "A2",
          "ticks": 6720,
          "time": 11.052622000000001,
          "velocity": 0.5039370078740157
        }
      ]
    },
    {
      "channel": 3,
      "controlChanges": {
        "10": [
          {
            "number": 10,
            "ticks": 7680,
            "time": 12.631568000000001,
            "value": 0
          },
          {
            "number": 10,
            "ticks": 14400,
            "time": 23.68419,
            "value": 0
          },
          {
            "number": 10,
            "ticks": 15360,
            "time": 25.263136000000003,
            "value": 0
          },
          {
            "number": 10,
            "ticks": 23040,
            "time": 37.894704000000004,
            "value": 0
          },
          {
            "number": 10,
            "ticks": 29760,
            "time": 48.947326000000004,
            "value": 0
          },
          {
            "number": 10,
            "ticks": 30720,
            "time": 50.526272000000006,
            "value": 0
          },
          {
            "number": 10,
            "ticks": 38400,
            "time": 63.15784000000001,
            "value": 0
          },
          {
            "number": 10,
            "ticks": 45120,
            "time": 74.210462,
            "value": 0
          },
          {
            "number": 10,
            "ticks": 46080,
            "time": 75.78940800000001,
            "value": 0
          },
          {
            "number": 10,
            "ticks": 53760,
            "time": 88.42097600000001,
            "value": 0
          },
          {
            "number": 10,
            "ticks": 60480,
            "time": 99.47359800000001,
            "value": 0
          },
          {
            "number": 10,
            "ticks": 61440,
            "time": 101.05254400000001,
            "value": 0
          },
          {
            "number": 10,
            "ticks": 68160,
            "time": 112.10516600000001,
            "value": 0
          },
          {
            "number": 10,
            "ticks": 69120,
            "time": 113.68411200000001,
            "value": 0
          },
          {
            "number": 10,
            "ticks": 75840,
            "time": 124.73673400000001,
            "value": 0
          },
          {
            "number": 10,
            "ticks": 76800,
            "time": 126.31568000000001,
            "value": 0
          },
          {
            "number": 10,
            "ticks": 84480,
            "time": 138.947248,
            "value": 0
          },
          {
            "number": 10,
            "ticks": 91200,
            "time": 149.99987000000002,
            "value": 0
          },
          {
            "number": 10,
            "ticks": 92160,
            "time": 151.57881600000002,
            "value": 0
          },
          {
            "number": 10,
            "ticks": 99840,
            "time": 164.21038400000003,
            "value": 0
          },
          {
            "number": 10,
            "ticks": 106560,
            "time": 175.26300600000002,
            "value": 0
          },
          {
            "number": 10,
            "ticks": 107520,
            "time": 176.84195200000002,
            "value": 0
          },
          {
            "number": 10,
            "ticks": 117120,
            "time": 192.631412,
            "value": 0
          },
          {
            "number": 10,
            "ticks": 123840,
            "time": 203.68403400000003,
            "value": 0
          },
          {
            "number": 10,
            "ticks": 124800,
            "time": 205.26298000000003,
            "value": 0
          },
          {
            "number": 10,
            "ticks": 131520,
            "time": 216.315602,
            "value": 0
          },
          {
            "number": 10,
            "ticks": 132480,
            "time": 217.89454800000001,
            "value": 0
          },
          {
            "number": 10,
            "ticks": 140160,
            "time": 230.52611600000003,
            "value": 0
          },
          {
            "number": 10,
            "ticks": 146880,
            "time": 241.57873800000002,
            "value": 0
          },
          {
            "number": 10,
            "ticks": 147840,
            "time": 243.15768400000002,
            "value": 0
          },
          {
            "number": 10,
            "ticks": 153600,
            "time": 252.63136000000003,
            "value": 0
          },
          {
            "number": 10,
            "ticks": 154560,
            "time": 254.21030600000003,
            "value": 0
          }
        ],
        "91": [
          {
            "number": 91,
            "ticks": 7680,
            "time": 12.631568000000001,
            "value": 0.15748031496062992
          },
          {
            "number": 91,
            "ticks": 14400,
            "time": 23.68419,
            "value": 0.15748031496062992
          },
          {
            "number": 91,
            "ticks": 15360,
            "time": 25.263136000000003,
            "value": 0.15748031496062992
          },
          {
            "number": 91,
            "ticks": 23040,
            "time": 37.894704000000004,
            "value": 0.15748031496062992
          },
          {
            "number": 91,
            "ticks": 29760,
            "time": 48.947326000000004,
            "value": 0.15748031496062992
          },
          {
            "number": 91,
            "ticks": 30720,
            "time": 50.526272000000006,
            "value": 0.15748031496062992
          },
          {
            "number": 91,
            "ticks": 38400,
            "time": 63.15784000000001,
            "value": 0.15748031496062992
          },
          {
            "number": 91,
            "ticks": 45120,
            "time": 74.210462,
            "value": 0.15748031496062992
          },
          {
            "number": 91,
            "ticks": 46080,
            "time": 75.78940800000001,
            "value": 0.15748031496062992
          },
          {
            "number": 91,
            "ticks": 53760,
            "time": 88.42097600000001,
            "value": 0.15748031496062992
          },
          {
            "number": 91,
            "ticks": 60480,
            "time": 99.47359800000001,
            "value": 0.15748031496062992
          },
          {
            "number": 91,
            "ticks": 61440,
            "time": 101.05254400000001,
            "value": 0.15748031496062992
          },
          {
            "number": 91,
            "ticks": 68160,
            "time": 112.10516600000001,
            "value": 0.15748031496062992
          },
          {
            "number": 91,
            "ticks": 69120,
            "time": 113.68411200000001,
            "value": 0.15748031496062992
          },
          {
            "number": 91,
            "ticks": 75840,
            "time": 124.73673400000001,
            "value": 0.15748031496062992
          },
          {
            "number": 91,
            "ticks": 76800,
            "time": 126.31568000000001,
            "value": 0.15748031496062992
          },
          {
            "number": 91,
            "ticks": 84480,
            "time": 138.947248,
            "value": 0.15748031496062992
          },
          {
            "number": 91,
            "ticks": 91200,
            "time": 149.99987000000002,
            "value": 0.15748031496062992
          },
          {
            "number": 91,
            "ticks": 92160,
            "time": 151.57881600000002,
            "value": 0.15748031496062992
          },
          {
            "number": 91,
            "ticks": 99840,
            "time": 164.21038400000003,
            "value": 0.15748031496062992
          },
          {
            "number": 91,
            "ticks": 106560,
            "time": 175.26300600000002,
            "value": 0.15748031496062992
          },
          {
            "number": 91,
            "ticks": 107520,
            "time": 176.84195200000002,
            "value": 0.15748031496062992
          },
          {
            "number": 91,
            "ticks": 117120,
            "time": 192.631412,
            "value": 0.15748031496062992
          },
          {
            "number": 91,
            "ticks": 123840,
            "time": 203.68403400000003,
            "value": 0.15748031496062992
          },
          {
            "number": 91,
            "ticks": 124800,
            "time": 205.26298000000003,
            "value": 0.15748031496062992
          },
          {
            "number": 91,
            "ticks": 131520,
            "time": 216.315602,
            "value": 0.15748031496062992
          },
          {
            "number": 91,
            "ticks": 132480,
            "time": 217.89454800000001,
            "value": 0.15748031496062992
          },
          {
            "number": 91,
            "ticks": 140160,
            "time": 230.52611600000003,
            "value": 0.15748031496062992
          },
          {
            "number": 91,
            "ticks": 146880,
            "time": 241.57873800000002,
            "value": 0.15748031496062992
          },
          {
            "number": 91,
            "ticks": 147840,
            "time": 243.15768400000002,
            "value": 0.15748031496062992
          },
          {
            "number": 91,
            "ticks": 153600,
            "time": 252.63136000000003,
            "value": 0.15748031496062992
          },
          {
            "number": 91,
            "ticks": 154560,
            "time": 254.21030600000003,
            "value": 0.15748031496062992
          }
        ],
        "93": [
          {
            "number": 93,
            "ticks": 7680,
            "time": 12.631568000000001,
            "value": 0.07874015748031496
          },
          {
            "number": 93,
            "ticks": 14400,
            "time": 23.68419,
            "value": 0.07874015748031496
          },
          {
            "number": 93,
            "ticks": 15360,
            "time": 25.263136000000003,
            "value": 0.07874015748031496
          },
          {
            "number": 93,
            "ticks": 23040,
            "time": 37.894704000000004,
            "value": 0.07874015748031496
          },
          {
            "number": 93,
            "ticks": 29760,
            "time": 48.947326000000004,
            "value": 0.07874015748031496
          },
          {
            "number": 93,
            "ticks": 30720,
            "time": 50.526272000000006,
            "value": 0.07874015748031496
          },
          {
            "number": 93,
            "ticks": 38400,
            "time": 63.15784000000001,
            "value": 0.07874015748031496
          },
          {
            "number": 93,
            "ticks": 45120,
            "time": 74.210462,
            "value": 0.07874015748031496
          },
          {
            "number": 93,
            "ticks": 46080,
            "time": 75.78940800000001,
            "value": 0.07874015748031496
          },
          {
            "number": 93,
            "ticks": 53760,
            "time": 88.42097600000001,
            "value": 0.07874015748031496
          },
          {
            "number": 93,
            "ticks": 60480,
            "time": 99.47359800000001,
            "value": 0.07874015748031496
          },
          {
            "number": 93,
            "ticks": 61440,
            "time": 101.05254400000001,
            "value": 0.07874015748031496
          },
          {
            "number": 93,
            "ticks": 68160,
            "time": 112.10516600000001,
            "value": 0.07874015748031496
          },
          {
            "number": 93,
            "ticks": 69120,
            "time": 113.68411200000001,
            "value": 0.07874015748031496
          },
          {
            "number": 93,
            "ticks": 75840,
            "time": 124.73673400000001,
            "value": 0.07874015748031496
          },
          {
            "number": 93,
            "ticks": 76800,
            "time": 126.31568000000001,
            "value": 0.07874015748031496
          },
          {
            "number": 93,
            "ticks": 84480,
            "time": 138.947248,
            "value": 0.07874015748031496
          },
          {
            "number": 93,
            "ticks": 91200,
            "time": 149.99987000000002,
            "value": 0.07874015748031496
          },
          {
            "number": 93,
            "ticks": 92160,
            "time": 151.57881600000002,
            "value": 0.07874015748031496
          },
          {
            "number": 93,
            "ticks": 99840,
            "time": 164.21038400000003,
            "value": 0.07874015748031496
          },
          {
            "number": 93,
            "ticks": 106560,
            "time": 175.26300600000002,
            "value": 0.07874015748031496
          },
          {
            "number": 93,
            "ticks": 107520,
            "time": 176.84195200000002,
            "value": 0.07874015748031496
          },
          {
            "number": 93,
            "ticks": 117120,
            "time": 192.631412,
            "value": 0.07874015748031496
          },
          {
            "number": 93,
            "ticks": 123840,
            "time": 203.68403400000003,
            "value": 0.07874015748031496
          },
          {
            "number": 93,
            "ticks": 124800,
            "time": 205.26298000000003,
            "value": 0.07874015748031496
          },
          {
            "number": 93,
            "ticks": 131520,
            "time": 216.315602,
            "value": 0.07874015748031496
          },
          {
            "number": 93,
            "ticks": 132480,
            "time": 217.89454800000001,
            "value": 0.07874015748031496
          },
          {
            "number": 93,
            "ticks": 140160,
            "time": 230.52611600000003,
            "value": 0.07874015748031496
          },
          {
            "number": 93,
            "ticks": 146880,
            "time": 241.57873800000002,
            "value": 0.07874015748031496
          },
          {
            "number": 93,
            "ticks": 147840,
            "time": 243.15768400000002,
            "value": 0.07874015748031496
          },
          {
            "number": 93,
            "ticks": 153600,
            "time": 252.63136000000003,
            "value": 0.07874015748031496
          },
          {
            "number": 93,
            "ticks": 154560,
            "time": 254.21030600000003,
            "value": 0.07874015748031496
          }
        ]
      },
      "pitchBends": [],
      "instrument": {
        "family": "synth effects",
        "name": "fx 5 (brightness)",
        "number": 100
      },
      "name": "",
      "notes": [
        {
          "duration": 0.3947365000000005,
          "durationTicks": 240,
          "midi": 91,
          "name": "G6",
          "ticks": 8640,
          "time": 14.210514000000002,
          "velocity": 0.47244094488188976
        },
        {
          "duration": 0.19736825000000024,
          "durationTicks": 120,
          "midi": 86,
          "name": "D6",
          "ticks": 8880,
          "time": 14.605250500000002,
          "velocity": 0.47244094488188976
        },
        {
          "duration": 0.19736824999999847,
          "durationTicks": 120,
          "midi": 83,
          "name": "B5",
          "ticks": 9000,
          "time": 14.802618750000002,
          "velocity": 0.47244094488188976
        },
        {
          "duration": 0.19736825000000024,
          "durationTicks": 120,
          "midi": 79,
          "name": "G5",
          "ticks": 9120,
          "time": 14.999987,
          "velocity": 0.47244094488188976
        },
        {
          "duration": 0.19736825000000024,
          "durationTicks": 120,
          "midi": 74,
          "name": "D5",
          "ticks": 9240,
          "time": 15.197355250000001,
          "velocity": 0.47244094488188976
        },
        {
          "duration": 0.19736825000000024,
          "durationTicks": 120,
          "midi": 71,
          "name": "B4",
          "ticks": 9360,
          "time": 15.394723500000001,
          "velocity": 0.47244094488188976
        },
        {
          "duration": 0.3947365000000005,
          "durationTicks": 240,
          "midi": 91,
          "name": "G6",
          "ticks": 31680,
          "time": 52.10521800000001,
          "velocity": 0.47244094488188976
        },
        {
          "duration": 0.1973682499999967,
          "durationTicks": 120,
          "midi": 86,
          "name": "D6",
          "ticks": 31920,
          "time": 52.49995450000001,
          "velocity": 0.47244094488188976
        },
        {
          "duration": 0.1973682500000038,
          "durationTicks": 120,
          "midi": 83,
          "name": "B5",
          "ticks": 32040,
          "time": 52.697322750000005,
          "velocity": 0.47244094488188976
        },
        {
          "duration": 0.1973682499999967,
          "durationTicks": 120,
          "midi": 79,
          "name": "G5",
          "ticks": 32160,
          "time": 52.89469100000001,
          "velocity": 0.47244094488188976
        },
        {
          "duration": 0.1973682500000038,
          "durationTicks": 120,
          "midi": 74,
          "name": "D5",
          "ticks": 32280,
          "time": 53.092059250000005,
          "velocity": 0.47244094488188976
        },
        {
          "duration": 0.1973682499999967,
          "durationTicks": 120,
          "midi": 71,
          "name": "B4",
          "ticks": 32400,
          "time": 53.28942750000001,
          "velocity": 0.47244094488188976
        },
        {
          "duration": 0.3947364999999934,
          "durationTicks": 240,
          "midi": 91,
          "name": "G6",
          "ticks": 39360,
          "time": 64.73678600000001,
          "velocity": 0.47244094488188976
        },
        {
          "duration": 0.1973682500000109,
          "durationTicks": 120,
          "midi": 86,
          "name": "D6",
          "ticks": 39600,
          "time": 65.1315225,
          "velocity": 0.47244094488188976
        },
        {
          "duration": 0.1973682499999967,
          "durationTicks": 120,
          "midi": 83,
          "name": "B5",
          "ticks": 39720,
          "time": 65.32889075000001,
          "velocity": 0.47244094488188976
        },
        {
          "duration": 0.1973682499999967,
          "durationTicks": 120,
          "midi": 79,
          "name": "G5",
          "ticks": 39840,
          "time": 65.52625900000001,
          "velocity": 0.47244094488188976
        },
        {
          "duration": 0.1973682499999967,
          "durationTicks": 120,
          "midi": 74,
          "name": "D5",
          "ticks": 39960,
          "time": 65.72362725,
          "velocity": 0.47244094488188976
        },
        {
          "duration": 0.1973682500000109,
          "durationTicks": 120,
          "midi": 71,
          "name": "B4",
          "ticks": 40080,
          "time": 65.9209955,
          "velocity": 0.47244094488188976
        },
        {
          "duration": 0.3947364999999934,
          "durationTicks": 240,
          "midi": 91,
          "name": "G6",
          "ticks": 47040,
          "time": 77.36835400000001,
          "velocity": 0.47244094488188976
        },
        {
          "duration": 0.1973682500000109,
          "durationTicks": 120,
          "midi": 86,
          "name": "D6",
          "ticks": 47280,
          "time": 77.7630905,
          "velocity": 0.47244094488188976
        },
        {
          "duration": 0.1973682499999967,
          "durationTicks": 120,
          "midi": 83,
          "name": "B5",
          "ticks": 47400,
          "time": 77.96045875000002,
          "velocity": 0.47244094488188976
        },
        {
          "duration": 0.1973682499999967,
          "durationTicks": 120,
          "midi": 79,
          "name": "G5",
          "ticks": 47520,
          "time": 78.15782700000001,
          "velocity": 0.47244094488188976
        },
        {
          "duration": 0.1973682499999967,
          "durationTicks": 120,
          "midi": 74,
          "name": "D5",
          "ticks": 47640,
          "time": 78.35519525000001,
          "velocity": 0.47244094488188976
        },
        {
          "duration": 0.1973682500000109,
          "durationTicks": 120,
          "midi": 71,
          "name": "B4",
          "ticks": 47760,
          "time": 78.5525635,
          "velocity": 0.47244094488188976
        },
        {
          "duration": 0.3947364999999934,
          "durationTicks": 240,
          "midi": 91,
          "name": "G6",
          "ticks": 54720,
          "time": 89.99992200000001,
          "velocity": 0.47244094488188976
        },
        {
          "duration": 0.1973682500000109,
          "durationTicks": 120,
          "midi": 86,
          "name": "D6",
          "ticks": 54960,
          "time": 90.3946585,
          "velocity": 0.47244094488188976
        },
        {
          "duration": 0.1973682499999967,
          "durationTicks": 120,
          "midi": 83,
          "name": "B5",
          "ticks": 55080,
          "time": 90.59202675000002,
          "velocity": 0.47244094488188976
        },
        {
          "duration": 0.1973682499999967,
          "durationTicks": 120,
          "midi": 79,
          "name": "G5",
          "ticks": 55200,
          "time": 90.78939500000001,
          "velocity": 0.47244094488188976
        },
        {
          "duration": 0.1973682499999967,
          "durationTicks": 120,
          "midi": 74,
          "name": "D5",
          "ticks": 55320,
          "time": 90.98676325000001,
          "velocity": 0.47244094488188976
        },
        {
          "duration": 0.1973682500000109,
          "durationTicks": 120,
          "midi": 71,
          "name": "B4",
          "ticks": 55440,
          "time": 91.1841315,
          "velocity": 0.47244094488188976
        },
        {
          "duration": 0.3947364999999934,
          "durationTicks": 240,
          "midi": 91,
          "name": "G6",
          "ticks": 62400,
          "time": 102.63149000000001,
          "velocity": 0.47244094488188976
        },
        {
          "duration": 0.1973682500000109,
          "durationTicks": 120,
          "midi": 86,
          "name": "D6",
          "ticks": 62640,
          "time": 103.0262265,
          "velocity": 0.47244094488188976
        },
        {
          "duration": 0.1973682499999967,
          "durationTicks": 120,
          "midi": 83,
          "name": "B5",
          "ticks": 62760,
          "time": 103.22359475000002,
          "velocity": 0.47244094488188976
        },
        {
          "duration": 0.1973682499999967,
          "durationTicks": 120,
          "midi": 79,
          "name": "G5",
          "ticks": 62880,
          "time": 103.42096300000001,
          "velocity": 0.47244094488188976
        },
        {
          "duration": 0.1973682499999967,
          "durationTicks": 120,
          "midi": 74,
          "name": "D5",
          "ticks": 63000,
          "time": 103.61833125000001,
          "velocity": 0.47244094488188976
        },
        {
          "duration": 0.1973682500000109,
          "durationTicks": 120,
          "midi": 71,
          "name": "B4",
          "ticks": 63120,
          "time": 103.81569950000001,
          "velocity": 0.47244094488188976
        },
        {
          "duration": 0.3947364999999934,
          "durationTicks": 240,
          "midi": 91,
          "name": "G6",
          "ticks": 77760,
          "time": 127.89462600000002,
          "velocity": 0.47244094488188976
        },
        {
          "duration": 0.1973682500000109,
          "durationTicks": 120,
          "midi": 86,
          "name": "D6",
          "ticks": 78000,
          "time": 128.2893625,
          "velocity": 0.47244094488188976
        },
        {
          "duration": 0.19736824999998248,
          "durationTicks": 120,
          "midi": 83,
          "name": "B5",
          "ticks": 78120,
          "time": 128.48673075000002,
          "velocity": 0.47244094488188976
        },
        {
          "duration": 0.1973682500000109,
          "durationTicks": 120,
          "midi": 79,
          "name": "G5",
          "ticks": 78240,
          "time": 128.684099,
          "velocity": 0.47244094488188976
        },
        {
          "duration": 0.1973682500000109,
          "durationTicks": 120,
          "midi": 74,
          "name": "D5",
          "ticks": 78360,
          "time": 128.88146725000001,
          "velocity": 0.47244094488188976
        },
        {
          "duration": 0.19736824999998248,
          "durationTicks": 120,
          "midi": 71,
          "name": "B4",
          "ticks": 78480,
          "time": 129.07883550000003,
          "velocity": 0.47244094488188976
        },
        {
          "duration": 0.3947365000000218,
          "durationTicks": 240,
          "midi": 91,
          "name": "G6",
          "ticks": 85440,
          "time": 140.526194,
          "velocity": 0.47244094488188976
        },
        {
          "duration": 0.19736824999998248,
          "durationTicks": 120,
          "midi": 86,
          "name": "D6",
          "ticks": 85680,
          "time": 140.92093050000003,
          "velocity": 0.47244094488188976
        },
        {
          "duration": 0.1973682500000109,
          "durationTicks": 120,
          "midi": 83,
          "name": "B5",
          "ticks": 85800,
          "time": 141.11829875,
          "velocity": 0.47244094488188976
        },
        {
          "duration": 0.1973682500000109,
          "durationTicks": 120,
          "midi": 79,
          "name": "G5",
          "ticks": 85920,
          "time": 141.31566700000002,
          "velocity": 0.47244094488188976
        },
        {
          "duration": 0.19736824999998248,
          "durationTicks": 120,
          "midi": 74,
          "name": "D5",
          "ticks": 86040,
          "time": 141.51303525000003,
          "velocity": 0.47244094488188976
        },
        {
          "duration": 0.1973682500000109,
          "durationTicks": 120,
          "midi": 71,
          "name": "B4",
          "ticks": 86160,
          "time": 141.7104035,
          "velocity": 0.47244094488188976
        },
        {
          "duration": 0.3947364999999934,
          "durationTicks": 240,
          "midi": 91,
          "name": "G6",
          "ticks": 93120,
          "time": 153.15776200000002,
          "velocity": 0.47244094488188976
        },
        {
          "duration": 0.1973682500000109,
          "durationTicks": 120,
          "midi": 86,
          "name": "D6",
          "ticks": 93360,
          "time": 153.5524985,
          "velocity": 0.47244094488188976
        },
        {
          "duration": 0.19736824999998248,
          "durationTicks": 120,
          "midi": 83,
          "name": "B5",
          "ticks": 93480,
          "time": 153.74986675000002,
          "velocity": 0.47244094488188976
        },
        {
          "duration": 0.1973682500000109,
          "durationTicks": 120,
          "midi": 79,
          "name": "G5",
          "ticks": 93600,
          "time": 153.947235,
          "velocity": 0.47244094488188976
        },
        {
          "duration": 0.1973682500000109,
          "durationTicks": 120,
          "midi": 74,
          "name": "D5",
          "ticks": 93720,
          "time": 154.14460325000002,
          "velocity": 0.47244094488188976
        },
        {
          "duration": 0.19736824999998248,
          "durationTicks": 120,
          "midi": 71,
          "name": "B4",
          "ticks": 93840,
          "time": 154.34197150000003,
          "velocity": 0.47244094488188976
        },
        {
          "duration": 0.3947365000000218,
          "durationTicks": 240,
          "midi": 91,
          "name": "G6",
          "ticks": 100800,
          "time": 165.78933,
          "velocity": 0.47244094488188976
        },
        {
          "duration": 0.19736824999998248,
          "durationTicks": 120,
          "midi": 86,
          "name": "D6",
          "ticks": 101040,
          "time": 166.18406650000003,
          "velocity": 0.47244094488188976
        },
        {
          "duration": 0.1973682500000109,
          "durationTicks": 120,
          "midi": 83,
          "name": "B5",
          "ticks": 101160,
          "time": 166.38143475,
          "velocity": 0.47244094488188976
        },
        {
          "duration": 0.1973682500000109,
          "durationTicks": 120,
          "midi": 79,
          "name": "G5",
          "ticks": 101280,
          "time": 166.57880300000002,
          "velocity": 0.47244094488188976
        },
        {
          "duration": 0.19736824999998248,
          "durationTicks": 120,
          "midi": 74,
          "name": "D5",
          "ticks": 101400,
          "time": 166.77617125000003,
          "velocity": 0.47244094488188976
        },
        {
          "duration": 0.1973682500000109,
          "durationTicks": 120,
          "midi": 71,
          "name": "B4",
          "ticks": 101520,
          "time": 166.97353950000002,
          "velocity": 0.47244094488188976
        },
        {
          "duration": 0.3947364999999934,
          "durationTicks": 240,
          "midi": 91,
          "name": "G6",
          "ticks": 108480,
          "time": 178.42089800000002,
          "velocity": 0.47244094488188976
        },
        {
          "duration": 0.1973682500000109,
          "durationTicks": 120,
          "midi": 86,
          "name": "D6",
          "ticks": 108720,
          "time": 178.81563450000002,
          "velocity": 0.47244094488188976
        },
        {
          "duration": 0.19736824999998248,
          "durationTicks": 120,
          "midi": 83,
          "name": "B5",
          "ticks": 108840,
          "time": 179.01300275000003,
          "velocity": 0.47244094488188976
        },
        {
          "duration": 0.1973682500000109,
          "durationTicks": 120,
          "midi": 79,
          "name": "G5",
          "ticks": 108960,
          "time": 179.210371,
          "velocity": 0.47244094488188976
        },
        {
          "duration": 0.1973682500000109,
          "durationTicks": 120,
          "midi": 74,
          "name": "D5",
          "ticks": 109080,
          "time": 179.40773925000002,
          "velocity": 0.47244094488188976
        },
        {
          "duration": 0.19736824999998248,
          "durationTicks": 120,
          "midi": 71,
          "name": "B4",
          "ticks": 109200,
          "time": 179.60510750000003,
          "velocity": 0.47244094488188976
        },
        {
          "duration": 0.3947365000000218,
          "durationTicks": 240,
          "midi": 91,
          "name": "G6",
          "ticks": 133440,
          "time": 219.47349400000002,
          "velocity": 0.47244094488188976
        },
        {
          "duration": 0.19736824999998248,
          "durationTicks": 120,
          "midi": 86,
          "name": "D6",
          "ticks": 133680,
          "time": 219.86823050000004,
          "velocity": 0.47244094488188976
        },
        {
          "duration": 0.1973682500000109,
          "durationTicks": 120,
          "midi": 83,
          "name": "B5",
          "ticks": 133800,
          "time": 220.06559875000002,
          "velocity": 0.47244094488188976
        },
        {
          "duration": 0.19736824999998248,
          "durationTicks": 120,
          "midi": 79,
          "name": "G5",
          "ticks": 133920,
          "time": 220.26296700000003,
          "velocity": 0.47244094488188976
        },
        {
          "duration": 0.1973682500000109,
          "durationTicks": 120,
          "midi": 74,
          "name": "D5",
          "ticks": 134040,
          "time": 220.46033525,
          "velocity": 0.47244094488188976
        },
        {
          "duration": 0.1973682500000109,
          "durationTicks": 120,
          "midi": 71,
          "name": "B4",
          "ticks": 134160,
          "time": 220.65770350000003,
          "velocity": 0.47244094488188976
        },
        {
          "duration": 0.3947364999999934,
          "durationTicks": 240,
          "midi": 91,
          "name": "G6",
          "ticks": 141120,
          "time": 232.10506200000003,
          "velocity": 0.47244094488188976
        },
        {
          "duration": 0.1973682500000109,
          "durationTicks": 120,
          "midi": 86,
          "name": "D6",
          "ticks": 141360,
          "time": 232.49979850000003,
          "velocity": 0.47244094488188976
        },
        {
          "duration": 0.19736824999998248,
          "durationTicks": 120,
          "midi": 83,
          "name": "B5",
          "ticks": 141480,
          "time": 232.69716675000004,
          "velocity": 0.47244094488188976
        },
        {
          "duration": 0.1973682500000109,
          "durationTicks": 120,
          "midi": 79,
          "name": "G5",
          "ticks": 141600,
          "time": 232.89453500000002,
          "velocity": 0.47244094488188976
        },
        {
          "duration": 0.1973682500000109,
          "durationTicks": 120,
          "midi": 74,
          "name": "D5",
          "ticks": 141720,
          "time": 233.09190325000003,
          "velocity": 0.47244094488188976
        },
        {
          "duration": 0.19736824999998248,
          "durationTicks": 120,
          "midi": 71,
          "name": "B4",
          "ticks": 141840,
          "time": 233.28927150000004,
          "velocity": 0.47244094488188976
        },
        {
          "duration": 0.3947365000000218,
          "durationTicks": 240,
          "midi": 91,
          "name": "G6",
          "ticks": 148800,
          "time": 244.73663000000002,
          "velocity": 0.47244094488188976
        },
        {
          "duration": 0.19736824999998248,
          "durationTicks": 120,
          "midi": 86,
          "name": "D6",
          "ticks": 149040,
          "time": 245.13136650000004,
          "velocity": 0.47244094488188976
        },
        {
          "duration": 0.1973682500000109,
          "durationTicks": 120,
          "midi": 83,
          "name": "B5",
          "ticks": 149160,
          "time": 245.32873475000002,
          "velocity": 0.47244094488188976
        },
        {
          "duration": 0.19736824999998248,
          "durationTicks": 120,
          "midi": 79,
          "name": "G5",
          "ticks": 149280,
          "time": 245.52610300000003,
          "velocity": 0.47244094488188976
        },
        {
          "duration": 0.1973682500000109,
          "durationTicks": 120,
          "midi": 74,
          "name": "D5",
          "ticks": 149400,
          "time": 245.72347125000002,
          "velocity": 0.47244094488188976
        },
        {
          "duration": 0.1973682500000109,
          "durationTicks": 120,
          "midi": 71,
          "name": "B4",
          "ticks": 149520,
          "time": 245.92083950000003,
          "velocity": 0.47244094488188976
        }
      ]
    },
    {
      "channel": 4,
      "controlChanges": {
        "10": [
          {
            "number": 10,
            "ticks": 7680,
            "time": 12.631568000000001,
            "value": 1
          },
          {
            "number": 10,
            "ticks": 14400,
            "time": 23.68419,
            "value": 1
          },
          {
            "number": 10,
            "ticks": 15360,
            "time": 25.263136000000003,
            "value": 1
          },
          {
            "number": 10,
            "ticks": 23040,
            "time": 37.894704000000004,
            "value": 1
          },
          {
            "number": 10,
            "ticks": 29760,
            "time": 48.947326000000004,
            "value": 1
          },
          {
            "number": 10,
            "ticks": 30720,
            "time": 50.526272000000006,
            "value": 1
          },
          {
            "number": 10,
            "ticks": 38400,
            "time": 63.15784000000001,
            "value": 1
          },
          {
            "number": 10,
            "ticks": 45120,
            "time": 74.210462,
            "value": 1
          },
          {
            "number": 10,
            "ticks": 46080,
            "time": 75.78940800000001,
            "value": 1
          },
          {
            "number": 10,
            "ticks": 53760,
            "time": 88.42097600000001,
            "value": 1
          },
          {
            "number": 10,
            "ticks": 60480,
            "time": 99.47359800000001,
            "value": 1
          },
          {
            "number": 10,
            "ticks": 61440,
            "time": 101.05254400000001,
            "value": 1
          },
          {
            "number": 10,
            "ticks": 68160,
            "time": 112.10516600000001,
            "value": 1
          },
          {
            "number": 10,
            "ticks": 69120,
            "time": 113.68411200000001,
            "value": 1
          },
          {
            "number": 10,
            "ticks": 75840,
            "time": 124.73673400000001,
            "value": 1
          },
          {
            "number": 10,
            "ticks": 76800,
            "time": 126.31568000000001,
            "value": 1
          },
          {
            "number": 10,
            "ticks": 84480,
            "time": 138.947248,
            "value": 1
          },
          {
            "number": 10,
            "ticks": 91200,
            "time": 149.99987000000002,
            "value": 1
          },
          {
            "number": 10,
            "ticks": 92160,
            "time": 151.57881600000002,
            "value": 1
          },
          {
            "number": 10,
            "ticks": 99840,
            "time": 164.21038400000003,
            "value": 1
          },
          {
            "number": 10,
            "ticks": 106560,
            "time": 175.26300600000002,
            "value": 1
          },
          {
            "number": 10,
            "ticks": 107520,
            "time": 176.84195200000002,
            "value": 1
          },
          {
            "number": 10,
            "ticks": 117120,
            "time": 192.631412,
            "value": 1
          },
          {
            "number": 10,
            "ticks": 123840,
            "time": 203.68403400000003,
            "value": 1
          },
          {
            "number": 10,
            "ticks": 124800,
            "time": 205.26298000000003,
            "value": 1
          },
          {
            "number": 10,
            "ticks": 131520,
            "time": 216.315602,
            "value": 1
          },
          {
            "number": 10,
            "ticks": 132480,
            "time": 217.89454800000001,
            "value": 1
          },
          {
            "number": 10,
            "ticks": 140160,
            "time": 230.52611600000003,
            "value": 1
          },
          {
            "number": 10,
            "ticks": 146880,
            "time": 241.57873800000002,
            "value": 1
          },
          {
            "number": 10,
            "ticks": 147840,
            "time": 243.15768400000002,
            "value": 1
          },
          {
            "number": 10,
            "ticks": 153600,
            "time": 252.63136000000003,
            "value": 1
          },
          {
            "number": 10,
            "ticks": 154560,
            "time": 254.21030600000003,
            "value": 1
          }
        ],
        "91": [
          {
            "number": 91,
            "ticks": 7680,
            "time": 12.631568000000001,
            "value": 0.15748031496062992
          },
          {
            "number": 91,
            "ticks": 14400,
            "time": 23.68419,
            "value": 0.15748031496062992
          },
          {
            "number": 91,
            "ticks": 15360,
            "time": 25.263136000000003,
            "value": 0.15748031496062992
          },
          {
            "number": 91,
            "ticks": 23040,
            "time": 37.894704000000004,
            "value": 0.15748031496062992
          },
          {
            "number": 91,
            "ticks": 29760,
            "time": 48.947326000000004,
            "value": 0.15748031496062992
          },
          {
            "number": 91,
            "ticks": 30720,
            "time": 50.526272000000006,
            "value": 0.15748031496062992
          },
          {
            "number": 91,
            "ticks": 38400,
            "time": 63.15784000000001,
            "value": 0.15748031496062992
          },
          {
            "number": 91,
            "ticks": 45120,
            "time": 74.210462,
            "value": 0.15748031496062992
          },
          {
            "number": 91,
            "ticks": 46080,
            "time": 75.78940800000001,
            "value": 0.15748031496062992
          },
          {
            "number": 91,
            "ticks": 53760,
            "time": 88.42097600000001,
            "value": 0.15748031496062992
          },
          {
            "number": 91,
            "ticks": 60480,
            "time": 99.47359800000001,
            "value": 0.15748031496062992
          },
          {
            "number": 91,
            "ticks": 61440,
            "time": 101.05254400000001,
            "value": 0.15748031496062992
          },
          {
            "number": 91,
            "ticks": 68160,
            "time": 112.10516600000001,
            "value": 0.15748031496062992
          },
          {
            "number": 91,
            "ticks": 69120,
            "time": 113.68411200000001,
            "value": 0.15748031496062992
          },
          {
            "number": 91,
            "ticks": 75840,
            "time": 124.73673400000001,
            "value": 0.15748031496062992
          },
          {
            "number": 91,
            "ticks": 76800,
            "time": 126.31568000000001,
            "value": 0.15748031496062992
          },
          {
            "number": 91,
            "ticks": 84480,
            "time": 138.947248,
            "value": 0.15748031496062992
          },
          {
            "number": 91,
            "ticks": 91200,
            "time": 149.99987000000002,
            "value": 0.15748031496062992
          },
          {
            "number": 91,
            "ticks": 92160,
            "time": 151.57881600000002,
            "value": 0.15748031496062992
          },
          {
            "number": 91,
            "ticks": 99840,
            "time": 164.21038400000003,
            "value": 0.15748031496062992
          },
          {
            "number": 91,
            "ticks": 106560,
            "time": 175.26300600000002,
            "value": 0.15748031496062992
          },
          {
            "number": 91,
            "ticks": 107520,
            "time": 176.84195200000002,
            "value": 0.15748031496062992
          },
          {
            "number": 91,
            "ticks": 117120,
            "time": 192.631412,
            "value": 0.15748031496062992
          },
          {
            "number": 91,
            "ticks": 123840,
            "time": 203.68403400000003,
            "value": 0.15748031496062992
          },
          {
            "number": 91,
            "ticks": 124800,
            "time": 205.26298000000003,
            "value": 0.15748031496062992
          },
          {
            "number": 91,
            "ticks": 131520,
            "time": 216.315602,
            "value": 0.15748031496062992
          },
          {
            "number": 91,
            "ticks": 132480,
            "time": 217.89454800000001,
            "value": 0.15748031496062992
          },
          {
            "number": 91,
            "ticks": 140160,
            "time": 230.52611600000003,
            "value": 0.15748031496062992
          },
          {
            "number": 91,
            "ticks": 146880,
            "time": 241.57873800000002,
            "value": 0.15748031496062992
          },
          {
            "number": 91,
            "ticks": 147840,
            "time": 243.15768400000002,
            "value": 0.15748031496062992
          },
          {
            "number": 91,
            "ticks": 153600,
            "time": 252.63136000000003,
            "value": 0.15748031496062992
          },
          {
            "number": 91,
            "ticks": 154560,
            "time": 254.21030600000003,
            "value": 0.15748031496062992
          }
        ],
        "93": [
          {
            "number": 93,
            "ticks": 7680,
            "time": 12.631568000000001,
            "value": 0.07874015748031496
          },
          {
            "number": 93,
            "ticks": 14400,
            "time": 23.68419,
            "value": 0.07874015748031496
          },
          {
            "number": 93,
            "ticks": 15360,
            "time": 25.263136000000003,
            "value": 0.07874015748031496
          },
          {
            "number": 93,
            "ticks": 23040,
            "time": 37.894704000000004,
            "value": 0.07874015748031496
          },
          {
            "number": 93,
            "ticks": 29760,
            "time": 48.947326000000004,
            "value": 0.07874015748031496
          },
          {
            "number": 93,
            "ticks": 30720,
            "time": 50.526272000000006,
            "value": 0.07874015748031496
          },
          {
            "number": 93,
            "ticks": 38400,
            "time": 63.15784000000001,
            "value": 0.07874015748031496
          },
          {
            "number": 93,
            "ticks": 45120,
            "time": 74.210462,
            "value": 0.07874015748031496
          },
          {
            "number": 93,
            "ticks": 46080,
            "time": 75.78940800000001,
            "value": 0.07874015748031496
          },
          {
            "number": 93,
            "ticks": 53760,
            "time": 88.42097600000001,
            "value": 0.07874015748031496
          },
          {
            "number": 93,
            "ticks": 60480,
            "time": 99.47359800000001,
            "value": 0.07874015748031496
          },
          {
            "number": 93,
            "ticks": 61440,
            "time": 101.05254400000001,
            "value": 0.07874015748031496
          },
          {
            "number": 93,
            "ticks": 68160,
            "time": 112.10516600000001,
            "value": 0.07874015748031496
          },
          {
            "number": 93,
            "ticks": 69120,
            "time": 113.68411200000001,
            "value": 0.07874015748031496
          },
          {
            "number": 93,
            "ticks": 75840,
            "time": 124.73673400000001,
            "value": 0.07874015748031496
          },
          {
            "number": 93,
            "ticks": 76800,
            "time": 126.31568000000001,
            "value": 0.07874015748031496
          },
          {
            "number": 93,
            "ticks": 84480,
            "time": 138.947248,
            "value": 0.07874015748031496
          },
          {
            "number": 93,
            "ticks": 91200,
            "time": 149.99987000000002,
            "value": 0.07874015748031496
          },
          {
            "number": 93,
            "ticks": 92160,
            "time": 151.57881600000002,
            "value": 0.07874015748031496
          },
          {
            "number": 93,
            "ticks": 99840,
            "time": 164.21038400000003,
            "value": 0.07874015748031496
          },
          {
            "number": 93,
            "ticks": 106560,
            "time": 175.26300600000002,
            "value": 0.07874015748031496
          },
          {
            "number": 93,
            "ticks": 107520,
            "time": 176.84195200000002,
            "value": 0.07874015748031496
          },
          {
            "number": 93,
            "ticks": 117120,
            "time": 192.631412,
            "value": 0.07874015748031496
          },
          {
            "number": 93,
            "ticks": 123840,
            "time": 203.68403400000003,
            "value": 0.07874015748031496
          },
          {
            "number": 93,
            "ticks": 124800,
            "time": 205.26298000000003,
            "value": 0.07874015748031496
          },
          {
            "number": 93,
            "ticks": 131520,
            "time": 216.315602,
            "value": 0.07874015748031496
          },
          {
            "number": 93,
            "ticks": 132480,
            "time": 217.89454800000001,
            "value": 0.07874015748031496
          },
          {
            "number": 93,
            "ticks": 140160,
            "time": 230.52611600000003,
            "value": 0.07874015748031496
          },
          {
            "number": 93,
            "ticks": 146880,
            "time": 241.57873800000002,
            "value": 0.07874015748031496
          },
          {
            "number": 93,
            "ticks": 147840,
            "time": 243.15768400000002,
            "value": 0.07874015748031496
          },
          {
            "number": 93,
            "ticks": 153600,
            "time": 252.63136000000003,
            "value": 0.07874015748031496
          },
          {
            "number": 93,
            "ticks": 154560,
            "time": 254.21030600000003,
            "value": 0.07874015748031496
          }
        ]
      },
      "pitchBends": [],
      "instrument": {
        "family": "ensemble",
        "name": "string ensemble 2",
        "number": 49
      },
      "name": "",
      "notes": [
        {
          "duration": 1.5789460000000002,
          "durationTicks": 960,
          "midi": 84,
          "name": "C6",
          "ticks": 7680,
          "time": 12.631568000000001,
          "velocity": 0.4409448818897638
        },
        {
          "duration": 1.5789460000000002,
          "durationTicks": 960,
          "midi": 81,
          "name": "A5",
          "ticks": 7680,
          "time": 12.631568000000001,
          "velocity": 0.4409448818897638
        },
        {
          "duration": 1.5789460000000002,
          "durationTicks": 960,
          "midi": 77,
          "name": "F5",
          "ticks": 7680,
          "time": 12.631568000000001,
          "velocity": 0.4409448818897638
        },
        {
          "duration": 1.5789460000000002,
          "durationTicks": 960,
          "midi": 79,
          "name": "G5",
          "ticks": 8640,
          "time": 14.210514000000002,
          "velocity": 0.4409448818897638
        },
        {
          "duration": 1.5789460000000002,
          "durationTicks": 960,
          "midi": 83,
          "name": "B5",
          "ticks": 8640,
          "time": 14.210514000000002,
          "velocity": 0.4409448818897638
        },
        {
          "duration": 1.5789460000000002,
          "durationTicks": 960,
          "midi": 86,
          "name": "D6",
          "ticks": 8640,
          "time": 14.210514000000002,
          "velocity": 0.4409448818897638
        },
        {
          "duration": 0.789473000000001,
          "durationTicks": 480,
          "midi": 72,
          "name": "C5",
          "ticks": 9600,
          "time": 15.789460000000002,
          "velocity": 0.4409448818897638
        },
        {
          "duration": 0.789473000000001,
          "durationTicks": 480,
          "midi": 76,
          "name": "E5",
          "ticks": 9600,
          "time": 15.789460000000002,
          "velocity": 0.4409448818897638
        },
        {
          "duration": 0.789473000000001,
          "durationTicks": 480,
          "midi": 79,
          "name": "G5",
          "ticks": 9600,
          "time": 15.789460000000002,
          "velocity": 0.4409448818897638
        },
        {
          "duration": 0.7894729999999974,
          "durationTicks": 480,
          "midi": 79,
          "name": "G5",
          "ticks": 10080,
          "time": 16.578933000000003,
          "velocity": 0.4409448818897638
        },
        {
          "duration": 0.7894729999999974,
          "durationTicks": 480,
          "midi": 83,
          "name": "B5",
          "ticks": 10080,
          "time": 16.578933000000003,
          "velocity": 0.4409448818897638
        },
        {
          "duration": 0.7894729999999974,
          "durationTicks": 480,
          "midi": 86,
          "name": "D6",
          "ticks": 10080,
          "time": 16.578933000000003,
          "velocity": 0.4409448818897638
        },
        {
          "duration": 0.6184205166666707,
          "durationTicks": 376,
          "midi": 81,
          "name": "A5",
          "ticks": 10560,
          "time": 17.368406,
          "velocity": 0.4409448818897638
        },
        {
          "duration": 1.4605250500000047,
          "durationTicks": 888,
          "midi": 84,
          "name": "C6",
          "ticks": 10560,
          "time": 17.368406,
          "velocity": 0.4409448818897638
        },
        {
          "duration": 0.6776309916666676,
          "durationTicks": 412,
          "midi": 88,
          "name": "E6",
          "ticks": 10560,
          "time": 17.368406,
          "velocity": 0.4409448818897638
        },
        {
          "duration": 0.7236835833333295,
          "durationTicks": 440,
          "midi": 88,
          "name": "E6",
          "ticks": 11000,
          "time": 18.092089583333337,
          "velocity": 0.4409448818897638
        },
        {
          "duration": 0.743420408333332,
          "durationTicks": 452,
          "midi": 93,
          "name": "A6",
          "ticks": 11004,
          "time": 18.098668525000004,
          "velocity": 0.4409448818897638
        },
        {
          "duration": 1.5723670583333345,
          "durationTicks": 956,
          "midi": 77,
          "name": "F5",
          "ticks": 11524,
          "time": 18.95393094166667,
          "velocity": 0.4409448818897638
        },
        {
          "duration": 1.5657881166666705,
          "durationTicks": 952,
          "midi": 81,
          "name": "A5",
          "ticks": 11528,
          "time": 18.960509883333334,
          "velocity": 0.4409448818897638
        },
        {
          "duration": 1.5526302333333355,
          "durationTicks": 944,
          "midi": 84,
          "name": "C6",
          "ticks": 11536,
          "time": 18.97366776666667,
          "velocity": 0.4409448818897638
        },
        {
          "duration": 1.5789459999999984,
          "durationTicks": 960,
          "midi": 79,
          "name": "G5",
          "ticks": 12480,
          "time": 20.526298000000004,
          "velocity": 0.4409448818897638
        },
        {
          "duration": 1.5789459999999984,
          "durationTicks": 960,
          "midi": 83,
          "name": "B5",
          "ticks": 12480,
          "time": 20.526298000000004,
          "velocity": 0.4409448818897638
        },
        {
          "duration": 1.5789459999999984,
          "durationTicks": 960,
          "midi": 86,
          "name": "D6",
          "ticks": 12480,
          "time": 20.526298000000004,
          "velocity": 0.4409448818897638
        },
        {
          "duration": 1.5723670583333345,
          "durationTicks": 956,
          "midi": 81,
          "name": "A5",
          "ticks": 13440,
          "time": 22.105244000000003,
          "velocity": 0.4409448818897638
        },
        {
          "duration": 1.5723670583333345,
          "durationTicks": 956,
          "midi": 84,
          "name": "C6",
          "ticks": 13440,
          "time": 22.105244000000003,
          "velocity": 0.4409448818897638
        },
        {
          "duration": 1.5723670583333345,
          "durationTicks": 956,
          "midi": 88,
          "name": "E6",
          "ticks": 13440,
          "time": 22.105244000000003,
          "velocity": 0.4409448818897638
        },
        {
          "duration": 1.3947356333333332,
          "durationTicks": 848,
          "midi": 81,
          "name": "A5",
          "ticks": 14400,
          "time": 23.68419,
          "velocity": 0.5590551181102362
        },
        {
          "duration": 1.3749988083333342,
          "durationTicks": 836,
          "midi": 76,
          "name": "E5",
          "ticks": 14400,
          "time": 23.68419,
          "velocity": 0.6456692913385826
        },
        {
          "duration": 1.3881566916666692,
          "durationTicks": 844,
          "midi": 88,
          "name": "E6",
          "ticks": 14400,
          "time": 23.68419,
          "velocity": 0.4409448818897638
        },
        {
          "duration": 0.052631533333332925,
          "durationTicks": 32,
          "midi": 81,
          "name": "A5",
          "ticks": 15324,
          "time": 25.203925525000002,
          "velocity": 0.7086614173228346
        },
        {
          "duration": 0.052631533333332925,
          "durationTicks": 32,
          "midi": 88,
          "name": "E6",
          "ticks": 15324,
          "time": 25.203925525000002,
          "velocity": 0.7401574803149606
        },
        {
          "duration": 0.04605259166666542,
          "durationTicks": 28,
          "midi": 76,
          "name": "E5",
          "ticks": 15328,
          "time": 25.21050446666667,
          "velocity": 0.7244094488188977
        },
        {
          "duration": 1.578946000000002,
          "durationTicks": 960,
          "midi": 81,
          "name": "A5",
          "ticks": 30720,
          "time": 50.526272000000006,
          "velocity": 0.4409448818897638
        },
        {
          "duration": 1.578946000000002,
          "durationTicks": 960,
          "midi": 77,
          "name": "F5",
          "ticks": 30720,
          "time": 50.526272000000006,
          "velocity": 0.4409448818897638
        },
        {
          "duration": 1.578946000000002,
          "durationTicks": 960,
          "midi": 79,
          "name": "G5",
          "ticks": 31680,
          "time": 52.10521800000001,
          "velocity": 0.4409448818897638
        },
        {
          "duration": 1.578946000000002,
          "durationTicks": 960,
          "midi": 83,
          "name": "B5",
          "ticks": 31680,
          "time": 52.10521800000001,
          "velocity": 0.4409448818897638
        },
        {
          "duration": 1.434209283333324,
          "durationTicks": 872,
          "midi": 76,
          "name": "E5",
          "ticks": 32640,
          "time": 53.68416400000001,
          "velocity": 0.4409448818897638
        },
        {
          "duration": 1.460525049999994,
          "durationTicks": 888,
          "midi": 79,
          "name": "G5",
          "ticks": 32640,
          "time": 53.68416400000001,
          "velocity": 0.4409448818897638
        },
        {
          "duration": 0.03947364999999792,
          "durationTicks": 24,
          "midi": 76,
          "name": "E5",
          "ticks": 33576,
          "time": 55.22363635000001,
          "velocity": 0.4094488188976378
        },
        {
          "duration": 0.03289470833333752,
          "durationTicks": 20,
          "midi": 83,
          "name": "B5",
          "ticks": 33580,
          "time": 55.23021529166667,
          "velocity": 0.4094488188976378
        },
        {
          "duration": 0.01973682500000251,
          "durationTicks": 12,
          "midi": 79,
          "name": "G5",
          "ticks": 33588,
          "time": 55.243373175,
          "velocity": 0.4094488188976378
        },
        {
          "duration": 1.4868408166666711,
          "durationTicks": 904,
          "midi": 81,
          "name": "A5",
          "ticks": 33600,
          "time": 55.263110000000005,
          "velocity": 0.4094488188976378
        },
        {
          "duration": 1.4934197583333315,
          "durationTicks": 908,
          "midi": 84,
          "name": "C6",
          "ticks": 33600,
          "time": 55.263110000000005,
          "velocity": 0.4094488188976378
        },
        {
          "duration": 1.434209283333331,
          "durationTicks": 872,
          "midi": 88,
          "name": "E6",
          "ticks": 33600,
          "time": 55.263110000000005,
          "velocity": 0.4094488188976378
        },
        {
          "duration": 0.02631576666666291,
          "durationTicks": 16,
          "midi": 76,
          "name": "E5",
          "ticks": 34544,
          "time": 56.815740233333344,
          "velocity": 0.41732283464566927
        },
        {
          "duration": 0.01973682500000251,
          "durationTicks": 12,
          "midi": 84,
          "name": "C6",
          "ticks": 34548,
          "time": 56.822319175000004,
          "velocity": 0.41732283464566927
        },
        {
          "duration": 0.01973682500000251,
          "durationTicks": 12,
          "midi": 81,
          "name": "A5",
          "ticks": 34548,
          "time": 56.822319175000004,
          "velocity": 0.41732283464566927
        },
        {
          "duration": 1.578946000000002,
          "durationTicks": 960,
          "midi": 72,
          "name": "C5",
          "ticks": 34560,
          "time": 56.84205600000001,
          "velocity": 0.41732283464566927
        },
        {
          "duration": 1.578946000000002,
          "durationTicks": 960,
          "midi": 77,
          "name": "F5",
          "ticks": 34560,
          "time": 56.84205600000001,
          "velocity": 0.41732283464566927
        },
        {
          "duration": 1.578946000000002,
          "durationTicks": 960,
          "midi": 81,
          "name": "A5",
          "ticks": 34560,
          "time": 56.84205600000001,
          "velocity": 0.41732283464566927
        },
        {
          "duration": 1.5789459999999949,
          "durationTicks": 960,
          "midi": 74,
          "name": "D5",
          "ticks": 35520,
          "time": 58.42100200000001,
          "velocity": 0.41732283464566927
        },
        {
          "duration": 1.5789459999999949,
          "durationTicks": 960,
          "midi": 79,
          "name": "G5",
          "ticks": 35520,
          "time": 58.42100200000001,
          "velocity": 0.41732283464566927
        },
        {
          "duration": 1.5789459999999949,
          "durationTicks": 960,
          "midi": 83,
          "name": "B5",
          "ticks": 35520,
          "time": 58.42100200000001,
          "velocity": 0.41732283464566927
        },
        {
          "duration": 1.447367166666666,
          "durationTicks": 880,
          "midi": 76,
          "name": "E5",
          "ticks": 36480,
          "time": 59.999948,
          "velocity": 0.41732283464566927
        },
        {
          "duration": 1.4802618750000036,
          "durationTicks": 900,
          "midi": 81,
          "name": "A5",
          "ticks": 36480,
          "time": 59.999948,
          "velocity": 0.41732283464566927
        },
        {
          "duration": 1.4934197583333386,
          "durationTicks": 908,
          "midi": 84,
          "name": "C6",
          "ticks": 36480,
          "time": 59.999948,
          "velocity": 0.41732283464566927
        },
        {
          "duration": 1.4144724583333357,
          "durationTicks": 860,
          "midi": 81,
          "name": "A5",
          "ticks": 37412,
          "time": 61.53284140833334,
          "velocity": 0.41732283464566927
        },
        {
          "duration": 1.4078935166666682,
          "durationTicks": 856,
          "midi": 84,
          "name": "C6",
          "ticks": 37416,
          "time": 61.53942035000001,
          "velocity": 0.41732283464566927
        },
        {
          "duration": 1.4078935166666682,
          "durationTicks": 856,
          "midi": 88,
          "name": "E6",
          "ticks": 37416,
          "time": 61.53942035000001,
          "velocity": 0.41732283464566927
        },
        {
          "duration": 1.578946000000002,
          "durationTicks": 960,
          "midi": 81,
          "name": "A5",
          "ticks": 38400,
          "time": 63.15784000000001,
          "velocity": 0.4409448818897638
        },
        {
          "duration": 1.578946000000002,
          "durationTicks": 960,
          "midi": 77,
          "name": "F5",
          "ticks": 38400,
          "time": 63.15784000000001,
          "velocity": 0.4409448818897638
        },
        {
          "duration": 1.578946000000002,
          "durationTicks": 960,
          "midi": 79,
          "name": "G5",
          "ticks": 39360,
          "time": 64.73678600000001,
          "velocity": 0.4409448818897638
        },
        {
          "duration": 1.578946000000002,
          "durationTicks": 960,
          "midi": 83,
          "name": "B5",
          "ticks": 39360,
          "time": 64.73678600000001,
          "velocity": 0.4409448818897638
        },
        {
          "duration": 1.434209283333331,
          "durationTicks": 872,
          "midi": 76,
          "name": "E5",
          "ticks": 40320,
          "time": 66.31573200000001,
          "velocity": 0.4409448818897638
        },
        {
          "duration": 1.460525049999987,
          "durationTicks": 888,
          "midi": 79,
          "name": "G5",
          "ticks": 40320,
          "time": 66.31573200000001,
          "velocity": 0.4409448818897638
        },
        {
          "duration": 0.03947365000000502,
          "durationTicks": 24,
          "midi": 76,
          "name": "E5",
          "ticks": 41256,
          "time": 67.85520435000001,
          "velocity": 0.4094488188976378
        },
        {
          "duration": 0.032894708333344624,
          "durationTicks": 20,
          "midi": 83,
          "name": "B5",
          "ticks": 41260,
          "time": 67.86178329166667,
          "velocity": 0.4094488188976378
        },
        {
          "duration": 0.019736825000009617,
          "durationTicks": 12,
          "midi": 79,
          "name": "G5",
          "ticks": 41268,
          "time": 67.874941175,
          "velocity": 0.4094488188976378
        },
        {
          "duration": 1.4868408166666711,
          "durationTicks": 904,
          "midi": 81,
          "name": "A5",
          "ticks": 41280,
          "time": 67.89467800000001,
          "velocity": 0.4094488188976378
        },
        {
          "duration": 1.4934197583333315,
          "durationTicks": 908,
          "midi": 84,
          "name": "C6",
          "ticks": 41280,
          "time": 67.89467800000001,
          "velocity": 0.4094488188976378
        },
        {
          "duration": 1.434209283333331,
          "durationTicks": 872,
          "midi": 88,
          "name": "E6",
          "ticks": 41280,
          "time": 67.89467800000001,
          "velocity": 0.4094488188976378
        },
        {
          "duration": 0.026315766666655804,
          "durationTicks": 16,
          "midi": 76,
          "name": "E5",
          "ticks": 42224,
          "time": 69.44730823333335,
          "velocity": 0.41732283464566927
        },
        {
          "duration": 0.019736824999995406,
          "durationTicks": 12,
          "midi": 84,
          "name": "C6",
          "ticks": 42228,
          "time": 69.453887175,
          "velocity": 0.41732283464566927
        },
        {
          "duration": 0.019736824999995406,
          "durationTicks": 12,
          "midi": 81,
          "name": "A5",
          "ticks": 42228,
          "time": 69.453887175,
          "velocity": 0.41732283464566927
        },
        {
          "duration": 1.578946000000002,
          "durationTicks": 960,
          "midi": 72,
          "name": "C5",
          "ticks": 42240,
          "time": 69.473624,
          "velocity": 0.41732283464566927
        },
        {
          "duration": 1.578946000000002,
          "durationTicks": 960,
          "midi": 77,
          "name": "F5",
          "ticks": 42240,
          "time": 69.473624,
          "velocity": 0.41732283464566927
        },
        {
          "duration": 1.578946000000002,
          "durationTicks": 960,
          "midi": 81,
          "name": "A5",
          "ticks": 42240,
          "time": 69.473624,
          "velocity": 0.41732283464566927
        },
        {
          "duration": 1.578946000000002,
          "durationTicks": 960,
          "midi": 74,
          "name": "D5",
          "ticks": 43200,
          "time": 71.05257,
          "velocity": 0.41732283464566927
        },
        {
          "duration": 1.578946000000002,
          "durationTicks": 960,
          "midi": 79,
          "name": "G5",
          "ticks": 43200,
          "time": 71.05257,
          "velocity": 0.41732283464566927
        },
        {
          "duration": 1.578946000000002,
          "durationTicks": 960,
          "midi": 83,
          "name": "B5",
          "ticks": 43200,
          "time": 71.05257,
          "velocity": 0.41732283464566927
        },
        {
          "duration": 1.447367166666666,
          "durationTicks": 880,
          "midi": 71,
          "name": "B4",
          "ticks": 44160,
          "time": 72.631516,
          "velocity": 0.41732283464566927
        },
        {
          "duration": 1.4802618750000107,
          "durationTicks": 900,
          "midi": 76,
          "name": "E5",
          "ticks": 44160,
          "time": 72.631516,
          "velocity": 0.41732283464566927
        },
        {
          "duration": 1.4934197583333315,
          "durationTicks": 908,
          "midi": 79,
          "name": "G5",
          "ticks": 44160,
          "time": 72.631516,
          "velocity": 0.41732283464566927
        },
        {
          "duration": 0.03947364999999081,
          "durationTicks": 24,
          "midi": 76,
          "name": "E5",
          "ticks": 45092,
          "time": 74.16440940833334,
          "velocity": 0.41732283464566927
        },
        {
          "duration": 0.0328947083333162,
          "durationTicks": 20,
          "midi": 79,
          "name": "G5",
          "ticks": 45096,
          "time": 74.17098835000002,
          "velocity": 0.41732283464566927
        },
        {
          "duration": 0.0328947083333162,
          "durationTicks": 20,
          "midi": 83,
          "name": "B5",
          "ticks": 45096,
          "time": 74.17098835000002,
          "velocity": 0.41732283464566927
        },
        {
          "duration": 0.8092098249999964,
          "durationTicks": 492,
          "midi": 79,
          "name": "G5",
          "ticks": 45132,
          "time": 74.23019882500002,
          "velocity": 0.5826771653543307
        },
        {
          "duration": 0.8421045333333268,
          "durationTicks": 512,
          "midi": 71,
          "name": "B4",
          "ticks": 45132,
          "time": 74.23019882500002,
          "velocity": 0.6141732283464567
        },
        {
          "duration": 0.8289466499999918,
          "durationTicks": 504,
          "midi": 76,
          "name": "E5",
          "ticks": 45132,
          "time": 74.23019882500002,
          "velocity": 0.6220472440944882
        },
        {
          "duration": 0.4210522666666634,
          "durationTicks": 256,
          "midi": 79,
          "name": "G5",
          "ticks": 45820,
          "time": 75.36177679166667,
          "velocity": 0.6614173228346457
        },
        {
          "duration": 0.4144733249999888,
          "durationTicks": 252,
          "midi": 71,
          "name": "B4",
          "ticks": 45824,
          "time": 75.36835573333335,
          "velocity": 0.5905511811023622
        },
        {
          "duration": 0.4078943833333284,
          "durationTicks": 248,
          "midi": 76,
          "name": "E5",
          "ticks": 45828,
          "time": 75.374934675,
          "velocity": 0.6141732283464567
        },
        {
          "duration": 1.578946000000002,
          "durationTicks": 960,
          "midi": 84,
          "name": "C6",
          "ticks": 46080,
          "time": 75.78940800000001,
          "velocity": 0.4409448818897638
        },
        {
          "duration": 1.578946000000002,
          "durationTicks": 960,
          "midi": 81,
          "name": "A5",
          "ticks": 46080,
          "time": 75.78940800000001,
          "velocity": 0.4409448818897638
        },
        {
          "duration": 1.578946000000002,
          "durationTicks": 960,
          "midi": 77,
          "name": "F5",
          "ticks": 46080,
          "time": 75.78940800000001,
          "velocity": 0.4409448818897638
        },
        {
          "duration": 1.578946000000002,
          "durationTicks": 960,
          "midi": 79,
          "name": "G5",
          "ticks": 47040,
          "time": 77.36835400000001,
          "velocity": 0.4409448818897638
        },
        {
          "duration": 1.578946000000002,
          "durationTicks": 960,
          "midi": 83,
          "name": "B5",
          "ticks": 47040,
          "time": 77.36835400000001,
          "velocity": 0.4409448818897638
        },
        {
          "duration": 1.578946000000002,
          "durationTicks": 960,
          "midi": 86,
          "name": "D6",
          "ticks": 47040,
          "time": 77.36835400000001,
          "velocity": 0.4409448818897638
        },
        {
          "duration": 0.789473000000001,
          "durationTicks": 480,
          "midi": 72,
          "name": "C5",
          "ticks": 48000,
          "time": 78.94730000000001,
          "velocity": 0.4409448818897638
        },
        {
          "duration": 0.789473000000001,
          "durationTicks": 480,
          "midi": 76,
          "name": "E5",
          "ticks": 48000,
          "time": 78.94730000000001,
          "velocity": 0.4409448818897638
        },
        {
          "duration": 0.789473000000001,
          "durationTicks": 480,
          "midi": 79,
          "name": "G5",
          "ticks": 48000,
          "time": 78.94730000000001,
          "velocity": 0.4409448818897638
        },
        {
          "duration": 0.789473000000001,
          "durationTicks": 480,
          "midi": 77,
          "name": "F5",
          "ticks": 48480,
          "time": 79.73677300000001,
          "velocity": 0.4409448818897638
        },
        {
          "duration": 0.789473000000001,
          "durationTicks": 480,
          "midi": 83,
          "name": "B5",
          "ticks": 48480,
          "time": 79.73677300000001,
          "velocity": 0.4409448818897638
        },
        {
          "duration": 0.789473000000001,
          "durationTicks": 480,
          "midi": 86,
          "name": "D6",
          "ticks": 48480,
          "time": 79.73677300000001,
          "velocity": 0.4409448818897638
        },
        {
          "duration": 0.6184205166666601,
          "durationTicks": 376,
          "midi": 81,
          "name": "A5",
          "ticks": 48960,
          "time": 80.52624600000001,
          "velocity": 0.4409448818897638
        },
        {
          "duration": 1.460525049999987,
          "durationTicks": 888,
          "midi": 84,
          "name": "C6",
          "ticks": 48960,
          "time": 80.52624600000001,
          "velocity": 0.4409448818897638
        },
        {
          "duration": 0.6776309916666605,
          "durationTicks": 412,
          "midi": 88,
          "name": "E6",
          "ticks": 48960,
          "time": 80.52624600000001,
          "velocity": 0.4409448818897638
        },
        {
          "duration": 0.7236835833333259,
          "durationTicks": 440,
          "midi": 88,
          "name": "E6",
          "ticks": 49400,
          "time": 81.24992958333334,
          "velocity": 0.4409448818897638
        },
        {
          "duration": 0.7434204083333356,
          "durationTicks": 452,
          "midi": 93,
          "name": "A6",
          "ticks": 49404,
          "time": 81.256508525,
          "velocity": 0.4409448818897638
        },
        {
          "duration": 1.5723670583333273,
          "durationTicks": 956,
          "midi": 77,
          "name": "F5",
          "ticks": 49924,
          "time": 82.11177094166668,
          "velocity": 0.4409448818897638
        },
        {
          "duration": 1.565788116666667,
          "durationTicks": 952,
          "midi": 81,
          "name": "A5",
          "ticks": 49928,
          "time": 82.11834988333334,
          "velocity": 0.4409448818897638
        },
        {
          "duration": 1.552630233333332,
          "durationTicks": 944,
          "midi": 84,
          "name": "C6",
          "ticks": 49936,
          "time": 82.13150776666667,
          "velocity": 0.4409448818897638
        },
        {
          "duration": 1.578946000000002,
          "durationTicks": 960,
          "midi": 79,
          "name": "G5",
          "ticks": 50880,
          "time": 83.684138,
          "velocity": 0.4409448818897638
        },
        {
          "duration": 1.578946000000002,
          "durationTicks": 960,
          "midi": 83,
          "name": "B5",
          "ticks": 50880,
          "time": 83.684138,
          "velocity": 0.4409448818897638
        },
        {
          "duration": 1.578946000000002,
          "durationTicks": 960,
          "midi": 86,
          "name": "D6",
          "ticks": 50880,
          "time": 83.684138,
          "velocity": 0.4409448818897638
        },
        {
          "duration": 2.328945350000012,
          "durationTicks": 1416,
          "midi": 81,
          "name": "A5",
          "ticks": 51840,
          "time": 85.263084,
          "velocity": 0.4409448818897638
        },
        {
          "duration": 2.3486821749999933,
          "durationTicks": 1428,
          "midi": 84,
          "name": "C6",
          "ticks": 51840,
          "time": 85.263084,
          "velocity": 0.4409448818897638
        },
        {
          "duration": 2.342103233333333,
          "durationTicks": 1424,
          "midi": 88,
          "name": "E6",
          "ticks": 51840,
          "time": 85.263084,
          "velocity": 0.4409448818897638
        },
        {
          "duration": 0.7105256999999909,
          "durationTicks": 432,
          "midi": 84,
          "name": "C6",
          "ticks": 53284,
          "time": 87.63808194166668,
          "velocity": 0.5590551181102362
        },
        {
          "duration": 0.6776309916666605,
          "durationTicks": 412,
          "midi": 81,
          "name": "A5",
          "ticks": 53292,
          "time": 87.65123982500002,
          "velocity": 0.5590551181102362
        },
        {
          "duration": 1.578946000000002,
          "durationTicks": 960,
          "midi": 84,
          "name": "C6",
          "ticks": 53760,
          "time": 88.42097600000001,
          "velocity": 0.4409448818897638
        },
        {
          "duration": 1.578946000000002,
          "durationTicks": 960,
          "midi": 81,
          "name": "A5",
          "ticks": 53760,
          "time": 88.42097600000001,
          "velocity": 0.4409448818897638
        },
        {
          "duration": 1.578946000000002,
          "durationTicks": 960,
          "midi": 77,
          "name": "F5",
          "ticks": 53760,
          "time": 88.42097600000001,
          "velocity": 0.4409448818897638
        },
        {
          "duration": 1.578946000000002,
          "durationTicks": 960,
          "midi": 79,
          "name": "G5",
          "ticks": 54720,
          "time": 89.99992200000001,
          "velocity": 0.4409448818897638
        },
        {
          "duration": 1.578946000000002,
          "durationTicks": 960,
          "midi": 83,
          "name": "B5",
          "ticks": 54720,
          "time": 89.99992200000001,
          "velocity": 0.4409448818897638
        },
        {
          "duration": 1.578946000000002,
          "durationTicks": 960,
          "midi": 86,
          "name": "D6",
          "ticks": 54720,
          "time": 89.99992200000001,
          "velocity": 0.4409448818897638
        },
        {
          "duration": 0.789473000000001,
          "durationTicks": 480,
          "midi": 72,
          "name": "C5",
          "ticks": 55680,
          "time": 91.57886800000001,
          "velocity": 0.4409448818897638
        },
        {
          "duration": 0.789473000000001,
          "durationTicks": 480,
          "midi": 76,
          "name": "E5",
          "ticks": 55680,
          "time": 91.57886800000001,
          "velocity": 0.4409448818897638
        },
        {
          "duration": 0.789473000000001,
          "durationTicks": 480,
          "midi": 79,
          "name": "G5",
          "ticks": 55680,
          "time": 91.57886800000001,
          "velocity": 0.4409448818897638
        },
        {
          "duration": 0.789473000000001,
          "durationTicks": 480,
          "midi": 77,
          "name": "F5",
          "ticks": 56160,
          "time": 92.36834100000002,
          "velocity": 0.4409448818897638
        },
        {
          "duration": 0.789473000000001,
          "durationTicks": 480,
          "midi": 83,
          "name": "B5",
          "ticks": 56160,
          "time": 92.36834100000002,
          "velocity": 0.4409448818897638
        },
        {
          "duration": 0.789473000000001,
          "durationTicks": 480,
          "midi": 86,
          "name": "D6",
          "ticks": 56160,
          "time": 92.36834100000002,
          "velocity": 0.4409448818897638
        },
        {
          "duration": 0.6184205166666601,
          "durationTicks": 376,
          "midi": 81,
          "name": "A5",
          "ticks": 56640,
          "time": 93.15781400000002,
          "velocity": 0.4409448818897638
        },
        {
          "duration": 1.460525049999987,
          "durationTicks": 888,
          "midi": 84,
          "name": "C6",
          "ticks": 56640,
          "time": 93.15781400000002,
          "velocity": 0.4409448818897638
        },
        {
          "duration": 0.6776309916666605,
          "durationTicks": 412,
          "midi": 88,
          "name": "E6",
          "ticks": 56640,
          "time": 93.15781400000002,
          "velocity": 0.4409448818897638
        },
        {
          "duration": 0.7236835833333259,
          "durationTicks": 440,
          "midi": 88,
          "name": "E6",
          "ticks": 57080,
          "time": 93.88149758333334,
          "velocity": 0.4409448818897638
        },
        {
          "duration": 0.7434204083333356,
          "durationTicks": 452,
          "midi": 93,
          "name": "A6",
          "ticks": 57084,
          "time": 93.888076525,
          "velocity": 0.4409448818897638
        },
        {
          "duration": 1.5723670583333273,
          "durationTicks": 956,
          "midi": 77,
          "name": "F5",
          "ticks": 57604,
          "time": 94.74333894166668,
          "velocity": 0.4409448818897638
        },
        {
          "duration": 1.565788116666667,
          "durationTicks": 952,
          "midi": 81,
          "name": "A5",
          "ticks": 57608,
          "time": 94.74991788333334,
          "velocity": 0.4409448818897638
        },
        {
          "duration": 1.552630233333332,
          "durationTicks": 944,
          "midi": 84,
          "name": "C6",
          "ticks": 57616,
          "time": 94.76307576666667,
          "velocity": 0.4409448818897638
        },
        {
          "duration": 1.578946000000002,
          "durationTicks": 960,
          "midi": 79,
          "name": "G5",
          "ticks": 58560,
          "time": 96.315706,
          "velocity": 0.4409448818897638
        },
        {
          "duration": 1.578946000000002,
          "durationTicks": 960,
          "midi": 83,
          "name": "B5",
          "ticks": 58560,
          "time": 96.315706,
          "velocity": 0.4409448818897638
        },
        {
          "duration": 1.578946000000002,
          "durationTicks": 960,
          "midi": 86,
          "name": "D6",
          "ticks": 58560,
          "time": 96.315706,
          "velocity": 0.4409448818897638
        },
        {
          "duration": 1.5723670583333273,
          "durationTicks": 956,
          "midi": 81,
          "name": "A5",
          "ticks": 59520,
          "time": 97.89465200000001,
          "velocity": 0.4409448818897638
        },
        {
          "duration": 1.5723670583333273,
          "durationTicks": 956,
          "midi": 84,
          "name": "C6",
          "ticks": 59520,
          "time": 97.89465200000001,
          "velocity": 0.4409448818897638
        },
        {
          "duration": 1.5723670583333273,
          "durationTicks": 956,
          "midi": 88,
          "name": "E6",
          "ticks": 59520,
          "time": 97.89465200000001,
          "velocity": 0.4409448818897638
        },
        {
          "duration": 1.3947356333333403,
          "durationTicks": 848,
          "midi": 81,
          "name": "A5",
          "ticks": 60480,
          "time": 99.47359800000001,
          "velocity": 0.5590551181102362
        },
        {
          "duration": 1.3749988083333307,
          "durationTicks": 836,
          "midi": 76,
          "name": "E5",
          "ticks": 60480,
          "time": 99.47359800000001,
          "velocity": 0.6456692913385826
        },
        {
          "duration": 1.3881566916666799,
          "durationTicks": 844,
          "midi": 88,
          "name": "E6",
          "ticks": 60480,
          "time": 99.47359800000001,
          "velocity": 0.4409448818897638
        },
        {
          "duration": 0.05263153333332582,
          "durationTicks": 32,
          "midi": 81,
          "name": "A5",
          "ticks": 61404,
          "time": 100.99333352500001,
          "velocity": 0.7086614173228346
        },
        {
          "duration": 0.05263153333332582,
          "durationTicks": 32,
          "midi": 88,
          "name": "E6",
          "ticks": 61404,
          "time": 100.99333352500001,
          "velocity": 0.7401574803149606
        },
        {
          "duration": 0.04605259166665121,
          "durationTicks": 28,
          "midi": 76,
          "name": "E5",
          "ticks": 61408,
          "time": 100.99991246666669,
          "velocity": 0.7244094488188977
        },
        {
          "duration": 1.578946000000002,
          "durationTicks": 960,
          "midi": 84,
          "name": "C6",
          "ticks": 61440,
          "time": 101.05254400000001,
          "velocity": 0.4409448818897638
        },
        {
          "duration": 1.578946000000002,
          "durationTicks": 960,
          "midi": 81,
          "name": "A5",
          "ticks": 61440,
          "time": 101.05254400000001,
          "velocity": 0.4409448818897638
        },
        {
          "duration": 1.578946000000002,
          "durationTicks": 960,
          "midi": 77,
          "name": "F5",
          "ticks": 61440,
          "time": 101.05254400000001,
          "velocity": 0.4409448818897638
        },
        {
          "duration": 1.578946000000002,
          "durationTicks": 960,
          "midi": 79,
          "name": "G5",
          "ticks": 62400,
          "time": 102.63149000000001,
          "velocity": 0.4409448818897638
        },
        {
          "duration": 1.578946000000002,
          "durationTicks": 960,
          "midi": 83,
          "name": "B5",
          "ticks": 62400,
          "time": 102.63149000000001,
          "velocity": 0.4409448818897638
        },
        {
          "duration": 1.578946000000002,
          "durationTicks": 960,
          "midi": 86,
          "name": "D6",
          "ticks": 62400,
          "time": 102.63149000000001,
          "velocity": 0.4409448818897638
        },
        {
          "duration": 0.789473000000001,
          "durationTicks": 480,
          "midi": 72,
          "name": "C5",
          "ticks": 63360,
          "time": 104.21043600000002,
          "velocity": 0.4409448818897638
        },
        {
          "duration": 0.789473000000001,
          "durationTicks": 480,
          "midi": 76,
          "name": "E5",
          "ticks": 63360,
          "time": 104.21043600000002,
          "velocity": 0.4409448818897638
        },
        {
          "duration": 0.789473000000001,
          "durationTicks": 480,
          "midi": 79,
          "name": "G5",
          "ticks": 63360,
          "time": 104.21043600000002,
          "velocity": 0.4409448818897638
        },
        {
          "duration": 0.789473000000001,
          "durationTicks": 480,
          "midi": 79,
          "name": "G5",
          "ticks": 63840,
          "time": 104.99990900000002,
          "velocity": 0.4409448818897638
        },
        {
          "duration": 0.789473000000001,
          "durationTicks": 480,
          "midi": 83,
          "name": "B5",
          "ticks": 63840,
          "time": 104.99990900000002,
          "velocity": 0.4409448818897638
        },
        {
          "duration": 0.789473000000001,
          "durationTicks": 480,
          "midi": 86,
          "name": "D6",
          "ticks": 63840,
          "time": 104.99990900000002,
          "velocity": 0.4409448818897638
        },
        {
          "duration": 0.6184205166666601,
          "durationTicks": 376,
          "midi": 81,
          "name": "A5",
          "ticks": 64320,
          "time": 105.78938200000002,
          "velocity": 0.4409448818897638
        },
        {
          "duration": 1.460525049999987,
          "durationTicks": 888,
          "midi": 84,
          "name": "C6",
          "ticks": 64320,
          "time": 105.78938200000002,
          "velocity": 0.4409448818897638
        },
        {
          "duration": 0.6776309916666463,
          "durationTicks": 412,
          "midi": 88,
          "name": "E6",
          "ticks": 64320,
          "time": 105.78938200000002,
          "velocity": 0.4409448818897638
        },
        {
          "duration": 0.7236835833333402,
          "durationTicks": 440,
          "midi": 88,
          "name": "E6",
          "ticks": 64760,
          "time": 106.51306558333334,
          "velocity": 0.4409448818897638
        },
        {
          "duration": 0.7434204083333356,
          "durationTicks": 452,
          "midi": 93,
          "name": "A6",
          "ticks": 64764,
          "time": 106.51964452500002,
          "velocity": 0.4409448818897638
        },
        {
          "duration": 1.5723670583333273,
          "durationTicks": 956,
          "midi": 77,
          "name": "F5",
          "ticks": 65284,
          "time": 107.37490694166668,
          "velocity": 0.4409448818897638
        },
        {
          "duration": 1.5657881166666527,
          "durationTicks": 952,
          "midi": 81,
          "name": "A5",
          "ticks": 65288,
          "time": 107.38148588333335,
          "velocity": 0.4409448818897638
        },
        {
          "duration": 1.552630233333332,
          "durationTicks": 944,
          "midi": 84,
          "name": "C6",
          "ticks": 65296,
          "time": 107.39464376666668,
          "velocity": 0.4409448818897638
        },
        {
          "duration": 1.578946000000002,
          "durationTicks": 960,
          "midi": 79,
          "name": "G5",
          "ticks": 66240,
          "time": 108.94727400000001,
          "velocity": 0.4409448818897638
        },
        {
          "duration": 1.578946000000002,
          "durationTicks": 960,
          "midi": 83,
          "name": "B5",
          "ticks": 66240,
          "time": 108.94727400000001,
          "velocity": 0.4409448818897638
        },
        {
          "duration": 1.578946000000002,
          "durationTicks": 960,
          "midi": 86,
          "name": "D6",
          "ticks": 66240,
          "time": 108.94727400000001,
          "velocity": 0.4409448818897638
        },
        {
          "duration": 1.5723670583333416,
          "durationTicks": 956,
          "midi": 81,
          "name": "A5",
          "ticks": 67200,
          "time": 110.52622000000001,
          "velocity": 0.4409448818897638
        },
        {
          "duration": 1.5723670583333416,
          "durationTicks": 956,
          "midi": 84,
          "name": "C6",
          "ticks": 67200,
          "time": 110.52622000000001,
          "velocity": 0.4409448818897638
        },
        {
          "duration": 1.5723670583333416,
          "durationTicks": 956,
          "midi": 88,
          "name": "E6",
          "ticks": 67200,
          "time": 110.52622000000001,
          "velocity": 0.4409448818897638
        },
        {
          "duration": 1.3947356333333403,
          "durationTicks": 848,
          "midi": 81,
          "name": "A5",
          "ticks": 68160,
          "time": 112.10516600000001,
          "velocity": 0.5590551181102362
        },
        {
          "duration": 1.3749988083333449,
          "durationTicks": 836,
          "midi": 76,
          "name": "E5",
          "ticks": 68160,
          "time": 112.10516600000001,
          "velocity": 0.6456692913385826
        },
        {
          "duration": 1.3881566916666657,
          "durationTicks": 844,
          "midi": 88,
          "name": "E6",
          "ticks": 68160,
          "time": 112.10516600000001,
          "velocity": 0.4409448818897638
        },
        {
          "duration": 0.05263153333332582,
          "durationTicks": 32,
          "midi": 81,
          "name": "A5",
          "ticks": 69084,
          "time": 113.62490152500003,
          "velocity": 0.7086614173228346
        },
        {
          "duration": 0.05263153333332582,
          "durationTicks": 32,
          "midi": 88,
          "name": "E6",
          "ticks": 69084,
          "time": 113.62490152500003,
          "velocity": 0.7401574803149606
        },
        {
          "duration": 0.04605259166666542,
          "durationTicks": 28,
          "midi": 76,
          "name": "E5",
          "ticks": 69088,
          "time": 113.63148046666669,
          "velocity": 0.7244094488188977
        },
        {
          "duration": 1.578946000000002,
          "durationTicks": 960,
          "midi": 81,
          "name": "A5",
          "ticks": 76800,
          "time": 126.31568000000001,
          "velocity": 0.4409448818897638
        },
        {
          "duration": 1.578946000000002,
          "durationTicks": 960,
          "midi": 77,
          "name": "F5",
          "ticks": 76800,
          "time": 126.31568000000001,
          "velocity": 0.4409448818897638
        },
        {
          "duration": 1.578946000000002,
          "durationTicks": 960,
          "midi": 79,
          "name": "G5",
          "ticks": 77760,
          "time": 127.89462600000002,
          "velocity": 0.4409448818897638
        },
        {
          "duration": 1.578946000000002,
          "durationTicks": 960,
          "midi": 83,
          "name": "B5",
          "ticks": 77760,
          "time": 127.89462600000002,
          "velocity": 0.4409448818897638
        },
        {
          "duration": 1.434209283333331,
          "durationTicks": 872,
          "midi": 76,
          "name": "E5",
          "ticks": 78720,
          "time": 129.47357200000002,
          "velocity": 0.4409448818897638
        },
        {
          "duration": 1.460525050000001,
          "durationTicks": 888,
          "midi": 79,
          "name": "G5",
          "ticks": 78720,
          "time": 129.47357200000002,
          "velocity": 0.4409448818897638
        },
        {
          "duration": 0.039473650000019234,
          "durationTicks": 24,
          "midi": 76,
          "name": "E5",
          "ticks": 79656,
          "time": 131.01304435,
          "velocity": 0.4094488188976378
        },
        {
          "duration": 0.032894708333344624,
          "durationTicks": 20,
          "midi": 83,
          "name": "B5",
          "ticks": 79660,
          "time": 131.01962329166668,
          "velocity": 0.4094488188976378
        },
        {
          "duration": 0.019736825000023828,
          "durationTicks": 12,
          "midi": 79,
          "name": "G5",
          "ticks": 79668,
          "time": 131.032781175,
          "velocity": 0.4094488188976378
        },
        {
          "duration": 1.4868408166666427,
          "durationTicks": 904,
          "midi": 81,
          "name": "A5",
          "ticks": 79680,
          "time": 131.05251800000002,
          "velocity": 0.4094488188976378
        },
        {
          "duration": 1.4934197583333457,
          "durationTicks": 908,
          "midi": 84,
          "name": "C6",
          "ticks": 79680,
          "time": 131.05251800000002,
          "velocity": 0.4094488188976378
        },
        {
          "duration": 1.434209283333331,
          "durationTicks": 872,
          "midi": 88,
          "name": "E6",
          "ticks": 79680,
          "time": 131.05251800000002,
          "velocity": 0.4094488188976378
        },
        {
          "duration": 0.026315766666670015,
          "durationTicks": 16,
          "midi": 76,
          "name": "E5",
          "ticks": 80624,
          "time": 132.60514823333335,
          "velocity": 0.41732283464566927
        },
        {
          "duration": 0.019736825000023828,
          "durationTicks": 12,
          "midi": 84,
          "name": "C6",
          "ticks": 80628,
          "time": 132.611727175,
          "velocity": 0.41732283464566927
        },
        {
          "duration": 0.019736825000023828,
          "durationTicks": 12,
          "midi": 81,
          "name": "A5",
          "ticks": 80628,
          "time": 132.611727175,
          "velocity": 0.41732283464566927
        },
        {
          "duration": 1.578946000000002,
          "durationTicks": 960,
          "midi": 72,
          "name": "C5",
          "ticks": 80640,
          "time": 132.63146400000002,
          "velocity": 0.41732283464566927
        },
        {
          "duration": 1.578946000000002,
          "durationTicks": 960,
          "midi": 77,
          "name": "F5",
          "ticks": 80640,
          "time": 132.63146400000002,
          "velocity": 0.41732283464566927
        },
        {
          "duration": 1.578946000000002,
          "durationTicks": 960,
          "midi": 81,
          "name": "A5",
          "ticks": 80640,
          "time": 132.63146400000002,
          "velocity": 0.41732283464566927
        },
        {
          "duration": 1.578946000000002,
          "durationTicks": 960,
          "midi": 74,
          "name": "D5",
          "ticks": 81600,
          "time": 134.21041000000002,
          "velocity": 0.41732283464566927
        },
        {
          "duration": 1.578946000000002,
          "durationTicks": 960,
          "midi": 79,
          "name": "G5",
          "ticks": 81600,
          "time": 134.21041000000002,
          "velocity": 0.41732283464566927
        },
        {
          "duration": 1.578946000000002,
          "durationTicks": 960,
          "midi": 83,
          "name": "B5",
          "ticks": 81600,
          "time": 134.21041000000002,
          "velocity": 0.41732283464566927
        },
        {
          "duration": 1.4473671666666519,
          "durationTicks": 880,
          "midi": 76,
          "name": "E5",
          "ticks": 82560,
          "time": 135.78935600000003,
          "velocity": 0.41732283464566927
        },
        {
          "duration": 1.4802618749999965,
          "durationTicks": 900,
          "midi": 81,
          "name": "A5",
          "ticks": 82560,
          "time": 135.78935600000003,
          "velocity": 0.41732283464566927
        },
        {
          "duration": 1.4934197583333457,
          "durationTicks": 908,
          "midi": 84,
          "name": "C6",
          "ticks": 82560,
          "time": 135.78935600000003,
          "velocity": 0.41732283464566927
        },
        {
          "duration": 1.4144724583333357,
          "durationTicks": 860,
          "midi": 81,
          "name": "A5",
          "ticks": 83492,
          "time": 137.32224940833333,
          "velocity": 0.41732283464566927
        },
        {
          "duration": 1.407893516666661,
          "durationTicks": 856,
          "midi": 84,
          "name": "C6",
          "ticks": 83496,
          "time": 137.32882835,
          "velocity": 0.41732283464566927
        },
        {
          "duration": 1.407893516666661,
          "durationTicks": 856,
          "midi": 88,
          "name": "E6",
          "ticks": 83496,
          "time": 137.32882835,
          "velocity": 0.41732283464566927
        },
        {
          "duration": 1.578946000000002,
          "durationTicks": 960,
          "midi": 81,
          "name": "A5",
          "ticks": 84480,
          "time": 138.947248,
          "velocity": 0.4409448818897638
        },
        {
          "duration": 1.578946000000002,
          "durationTicks": 960,
          "midi": 77,
          "name": "F5",
          "ticks": 84480,
          "time": 138.947248,
          "velocity": 0.4409448818897638
        },
        {
          "duration": 1.578946000000002,
          "durationTicks": 960,
          "midi": 79,
          "name": "G5",
          "ticks": 85440,
          "time": 140.526194,
          "velocity": 0.4409448818897638
        },
        {
          "duration": 1.578946000000002,
          "durationTicks": 960,
          "midi": 83,
          "name": "B5",
          "ticks": 85440,
          "time": 140.526194,
          "velocity": 0.4409448818897638
        },
        {
          "duration": 1.434209283333331,
          "durationTicks": 872,
          "midi": 76,
          "name": "E5",
          "ticks": 86400,
          "time": 142.10514,
          "velocity": 0.4409448818897638
        },
        {
          "duration": 1.460525050000001,
          "durationTicks": 888,
          "midi": 79,
          "name": "G5",
          "ticks": 86400,
          "time": 142.10514,
          "velocity": 0.4409448818897638
        },
        {
          "duration": 0.03947364999999081,
          "durationTicks": 24,
          "midi": 76,
          "name": "E5",
          "ticks": 87336,
          "time": 143.64461235000002,
          "velocity": 0.4094488188976378
        },
        {
          "duration": 0.0328947083333162,
          "durationTicks": 20,
          "midi": 83,
          "name": "B5",
          "ticks": 87340,
          "time": 143.6511912916667,
          "velocity": 0.4094488188976378
        },
        {
          "duration": 0.019736824999995406,
          "durationTicks": 12,
          "midi": 79,
          "name": "G5",
          "ticks": 87348,
          "time": 143.664349175,
          "velocity": 0.4094488188976378
        },
        {
          "duration": 1.4868408166666711,
          "durationTicks": 904,
          "midi": 81,
          "name": "A5",
          "ticks": 87360,
          "time": 143.684086,
          "velocity": 0.4094488188976378
        },
        {
          "duration": 1.4934197583333457,
          "durationTicks": 908,
          "midi": 84,
          "name": "C6",
          "ticks": 87360,
          "time": 143.684086,
          "velocity": 0.4094488188976378
        },
        {
          "duration": 1.434209283333331,
          "durationTicks": 872,
          "midi": 88,
          "name": "E6",
          "ticks": 87360,
          "time": 143.684086,
          "velocity": 0.4094488188976378
        },
        {
          "duration": 0.026315766666670015,
          "durationTicks": 16,
          "midi": 76,
          "name": "E5",
          "ticks": 88304,
          "time": 145.23671623333334,
          "velocity": 0.41732283464566927
        },
        {
          "duration": 0.019736824999995406,
          "durationTicks": 12,
          "midi": 84,
          "name": "C6",
          "ticks": 88308,
          "time": 145.24329517500001,
          "velocity": 0.41732283464566927
        },
        {
          "duration": 0.019736824999995406,
          "durationTicks": 12,
          "midi": 81,
          "name": "A5",
          "ticks": 88308,
          "time": 145.24329517500001,
          "velocity": 0.41732283464566927
        },
        {
          "duration": 1.578946000000002,
          "durationTicks": 960,
          "midi": 72,
          "name": "C5",
          "ticks": 88320,
          "time": 145.263032,
          "velocity": 0.41732283464566927
        },
        {
          "duration": 1.578946000000002,
          "durationTicks": 960,
          "midi": 77,
          "name": "F5",
          "ticks": 88320,
          "time": 145.263032,
          "velocity": 0.41732283464566927
        },
        {
          "duration": 1.578946000000002,
          "durationTicks": 960,
          "midi": 81,
          "name": "A5",
          "ticks": 88320,
          "time": 145.263032,
          "velocity": 0.41732283464566927
        },
        {
          "duration": 1.578946000000002,
          "durationTicks": 960,
          "midi": 74,
          "name": "D5",
          "ticks": 89280,
          "time": 146.841978,
          "velocity": 0.41732283464566927
        },
        {
          "duration": 1.578946000000002,
          "durationTicks": 960,
          "midi": 79,
          "name": "G5",
          "ticks": 89280,
          "time": 146.841978,
          "velocity": 0.41732283464566927
        },
        {
          "duration": 1.578946000000002,
          "durationTicks": 960,
          "midi": 83,
          "name": "B5",
          "ticks": 89280,
          "time": 146.841978,
          "velocity": 0.41732283464566927
        },
        {
          "duration": 1.4473671666666803,
          "durationTicks": 880,
          "midi": 71,
          "name": "B4",
          "ticks": 90240,
          "time": 148.420924,
          "velocity": 0.41732283464566927
        },
        {
          "duration": 1.4802618749999965,
          "durationTicks": 900,
          "midi": 76,
          "name": "E5",
          "ticks": 90240,
          "time": 148.420924,
          "velocity": 0.41732283464566927
        },
        {
          "duration": 1.4934197583333457,
          "durationTicks": 908,
          "midi": 79,
          "name": "G5",
          "ticks": 90240,
          "time": 148.420924,
          "velocity": 0.41732283464566927
        },
        {
          "duration": 0.039473650000019234,
          "durationTicks": 24,
          "midi": 76,
          "name": "E5",
          "ticks": 91172,
          "time": 149.95381740833335,
          "velocity": 0.41732283464566927
        },
        {
          "duration": 0.032894708333373046,
          "durationTicks": 20,
          "midi": 79,
          "name": "G5",
          "ticks": 91176,
          "time": 149.96039635,
          "velocity": 0.41732283464566927
        },
        {
          "duration": 0.032894708333373046,
          "durationTicks": 20,
          "midi": 83,
          "name": "B5",
          "ticks": 91176,
          "time": 149.96039635,
          "velocity": 0.41732283464566927
        },
        {
          "duration": 0.8092098250000106,
          "durationTicks": 492,
          "midi": 79,
          "name": "G5",
          "ticks": 91212,
          "time": 150.019606825,
          "velocity": 0.5826771653543307
        },
        {
          "duration": 0.8421045333333552,
          "durationTicks": 512,
          "midi": 71,
          "name": "B4",
          "ticks": 91212,
          "time": 150.019606825,
          "velocity": 0.6141732283464567
        },
        {
          "duration": 0.828946650000006,
          "durationTicks": 504,
          "midi": 76,
          "name": "E5",
          "ticks": 91212,
          "time": 150.019606825,
          "velocity": 0.6220472440944882
        },
        {
          "duration": 0.4210522666666634,
          "durationTicks": 256,
          "midi": 79,
          "name": "G5",
          "ticks": 91900,
          "time": 151.15118479166668,
          "velocity": 0.6614173228346457
        },
        {
          "duration": 0.4144733249999888,
          "durationTicks": 252,
          "midi": 71,
          "name": "B4",
          "ticks": 91904,
          "time": 151.15776373333335,
          "velocity": 0.5905511811023622
        },
        {
          "duration": 0.4078943833333426,
          "durationTicks": 248,
          "midi": 76,
          "name": "E5",
          "ticks": 91908,
          "time": 151.164342675,
          "velocity": 0.6141732283464567
        },
        {
          "duration": 1.578946000000002,
          "durationTicks": 960,
          "midi": 84,
          "name": "C6",
          "ticks": 92160,
          "time": 151.57881600000002,
          "velocity": 0.4409448818897638
        },
        {
          "duration": 1.578946000000002,
          "durationTicks": 960,
          "midi": 81,
          "name": "A5",
          "ticks": 92160,
          "time": 151.57881600000002,
          "velocity": 0.4409448818897638
        },
        {
          "duration": 1.578946000000002,
          "durationTicks": 960,
          "midi": 77,
          "name": "F5",
          "ticks": 92160,
          "time": 151.57881600000002,
          "velocity": 0.4409448818897638
        },
        {
          "duration": 1.578946000000002,
          "durationTicks": 960,
          "midi": 79,
          "name": "G5",
          "ticks": 93120,
          "time": 153.15776200000002,
          "velocity": 0.4409448818897638
        },
        {
          "duration": 1.578946000000002,
          "durationTicks": 960,
          "midi": 83,
          "name": "B5",
          "ticks": 93120,
          "time": 153.15776200000002,
          "velocity": 0.4409448818897638
        },
        {
          "duration": 1.578946000000002,
          "durationTicks": 960,
          "midi": 86,
          "name": "D6",
          "ticks": 93120,
          "time": 153.15776200000002,
          "velocity": 0.4409448818897638
        },
        {
          "duration": 0.7894729999999868,
          "durationTicks": 480,
          "midi": 72,
          "name": "C5",
          "ticks": 94080,
          "time": 154.73670800000002,
          "velocity": 0.4409448818897638
        },
        {
          "duration": 0.7894729999999868,
          "durationTicks": 480,
          "midi": 76,
          "name": "E5",
          "ticks": 94080,
          "time": 154.73670800000002,
          "velocity": 0.4409448818897638
        },
        {
          "duration": 0.7894729999999868,
          "durationTicks": 480,
          "midi": 79,
          "name": "G5",
          "ticks": 94080,
          "time": 154.73670800000002,
          "velocity": 0.4409448818897638
        },
        {
          "duration": 0.7894730000000152,
          "durationTicks": 480,
          "midi": 77,
          "name": "F5",
          "ticks": 94560,
          "time": 155.526181,
          "velocity": 0.4409448818897638
        },
        {
          "duration": 0.7894730000000152,
          "durationTicks": 480,
          "midi": 83,
          "name": "B5",
          "ticks": 94560,
          "time": 155.526181,
          "velocity": 0.4409448818897638
        },
        {
          "duration": 0.7894730000000152,
          "durationTicks": 480,
          "midi": 86,
          "name": "D6",
          "ticks": 94560,
          "time": 155.526181,
          "velocity": 0.4409448818897638
        },
        {
          "duration": 0.6184205166666459,
          "durationTicks": 376,
          "midi": 81,
          "name": "A5",
          "ticks": 95040,
          "time": 156.31565400000002,
          "velocity": 0.4409448818897638
        },
        {
          "duration": 1.460525050000001,
          "durationTicks": 888,
          "midi": 84,
          "name": "C6",
          "ticks": 95040,
          "time": 156.31565400000002,
          "velocity": 0.4409448818897638
        },
        {
          "duration": 0.6776309916666605,
          "durationTicks": 412,
          "midi": 88,
          "name": "E6",
          "ticks": 95040,
          "time": 156.31565400000002,
          "velocity": 0.4409448818897638
        },
        {
          "duration": 0.7236835833333544,
          "durationTicks": 440,
          "midi": 88,
          "name": "E6",
          "ticks": 95480,
          "time": 157.03933758333335,
          "velocity": 0.4409448818897638
        },
        {
          "duration": 0.7434204083333213,
          "durationTicks": 452,
          "midi": 93,
          "name": "A6",
          "ticks": 95484,
          "time": 157.04591652500002,
          "velocity": 0.4409448818897638
        },
        {
          "duration": 1.5723670583333558,
          "durationTicks": 956,
          "midi": 77,
          "name": "F5",
          "ticks": 96004,
          "time": 157.90117894166667,
          "velocity": 0.4409448818897638
        },
        {
          "duration": 1.5657881166666527,
          "durationTicks": 952,
          "midi": 81,
          "name": "A5",
          "ticks": 96008,
          "time": 157.90775788333337,
          "velocity": 0.4409448818897638
        },
        {
          "duration": 1.552630233333332,
          "durationTicks": 944,
          "midi": 84,
          "name": "C6",
          "ticks": 96016,
          "time": 157.9209157666667,
          "velocity": 0.4409448818897638
        },
        {
          "duration": 1.578946000000002,
          "durationTicks": 960,
          "midi": 79,
          "name": "G5",
          "ticks": 96960,
          "time": 159.47354600000003,
          "velocity": 0.4409448818897638
        },
        {
          "duration": 1.578946000000002,
          "durationTicks": 960,
          "midi": 83,
          "name": "B5",
          "ticks": 96960,
          "time": 159.47354600000003,
          "velocity": 0.4409448818897638
        },
        {
          "duration": 1.578946000000002,
          "durationTicks": 960,
          "midi": 86,
          "name": "D6",
          "ticks": 96960,
          "time": 159.47354600000003,
          "velocity": 0.4409448818897638
        },
        {
          "duration": 2.3289453499999695,
          "durationTicks": 1416,
          "midi": 81,
          "name": "A5",
          "ticks": 97920,
          "time": 161.05249200000003,
          "velocity": 0.4409448818897638
        },
        {
          "duration": 2.3486821749999933,
          "durationTicks": 1428,
          "midi": 84,
          "name": "C6",
          "ticks": 97920,
          "time": 161.05249200000003,
          "velocity": 0.4409448818897638
        },
        {
          "duration": 2.3421032333333187,
          "durationTicks": 1424,
          "midi": 88,
          "name": "E6",
          "ticks": 97920,
          "time": 161.05249200000003,
          "velocity": 0.4409448818897638
        },
        {
          "duration": 0.7105257000000051,
          "durationTicks": 432,
          "midi": 84,
          "name": "C6",
          "ticks": 99364,
          "time": 163.4274899416667,
          "velocity": 0.5590551181102362
        },
        {
          "duration": 0.6776309916666605,
          "durationTicks": 412,
          "midi": 81,
          "name": "A5",
          "ticks": 99372,
          "time": 163.440647825,
          "velocity": 0.5590551181102362
        },
        {
          "duration": 1.5789459999999735,
          "durationTicks": 960,
          "midi": 84,
          "name": "C6",
          "ticks": 99840,
          "time": 164.21038400000003,
          "velocity": 0.4409448818897638
        },
        {
          "duration": 1.5789459999999735,
          "durationTicks": 960,
          "midi": 81,
          "name": "A5",
          "ticks": 99840,
          "time": 164.21038400000003,
          "velocity": 0.4409448818897638
        },
        {
          "duration": 1.5789459999999735,
          "durationTicks": 960,
          "midi": 77,
          "name": "F5",
          "ticks": 99840,
          "time": 164.21038400000003,
          "velocity": 0.4409448818897638
        },
        {
          "duration": 1.578946000000002,
          "durationTicks": 960,
          "midi": 79,
          "name": "G5",
          "ticks": 100800,
          "time": 165.78933,
          "velocity": 0.4409448818897638
        },
        {
          "duration": 1.578946000000002,
          "durationTicks": 960,
          "midi": 83,
          "name": "B5",
          "ticks": 100800,
          "time": 165.78933,
          "velocity": 0.4409448818897638
        },
        {
          "duration": 1.578946000000002,
          "durationTicks": 960,
          "midi": 86,
          "name": "D6",
          "ticks": 100800,
          "time": 165.78933,
          "velocity": 0.4409448818897638
        },
        {
          "duration": 0.7894730000000152,
          "durationTicks": 480,
          "midi": 72,
          "name": "C5",
          "ticks": 101760,
          "time": 167.368276,
          "velocity": 0.4409448818897638
        },
        {
          "duration": 0.7894730000000152,
          "durationTicks": 480,
          "midi": 76,
          "name": "E5",
          "ticks": 101760,
          "time": 167.368276,
          "velocity": 0.4409448818897638
        },
        {
          "duration": 0.7894730000000152,
          "durationTicks": 480,
          "midi": 79,
          "name": "G5",
          "ticks": 101760,
          "time": 167.368276,
          "velocity": 0.4409448818897638
        },
        {
          "duration": 0.7894729999999868,
          "durationTicks": 480,
          "midi": 77,
          "name": "F5",
          "ticks": 102240,
          "time": 168.15774900000002,
          "velocity": 0.4409448818897638
        },
        {
          "duration": 0.7894729999999868,
          "durationTicks": 480,
          "midi": 83,
          "name": "B5",
          "ticks": 102240,
          "time": 168.15774900000002,
          "velocity": 0.4409448818897638
        },
        {
          "duration": 0.7894729999999868,
          "durationTicks": 480,
          "midi": 86,
          "name": "D6",
          "ticks": 102240,
          "time": 168.15774900000002,
          "velocity": 0.4409448818897638
        },
        {
          "duration": 0.6184205166666743,
          "durationTicks": 376,
          "midi": 81,
          "name": "A5",
          "ticks": 102720,
          "time": 168.947222,
          "velocity": 0.4409448818897638
        },
        {
          "duration": 1.460525050000001,
          "durationTicks": 888,
          "midi": 84,
          "name": "C6",
          "ticks": 102720,
          "time": 168.947222,
          "velocity": 0.4409448818897638
        },
        {
          "duration": 0.6776309916666605,
          "durationTicks": 412,
          "midi": 88,
          "name": "E6",
          "ticks": 102720,
          "time": 168.947222,
          "velocity": 0.4409448818897638
        },
        {
          "duration": 0.7236835833333544,
          "durationTicks": 440,
          "midi": 88,
          "name": "E6",
          "ticks": 103160,
          "time": 169.67090558333334,
          "velocity": 0.4409448818897638
        },
        {
          "duration": 0.7434204083333213,
          "durationTicks": 452,
          "midi": 93,
          "name": "A6",
          "ticks": 103164,
          "time": 169.67748452500004,
          "velocity": 0.4409448818897638
        },
        {
          "duration": 1.5723670583333273,
          "durationTicks": 956,
          "midi": 77,
          "name": "F5",
          "ticks": 103684,
          "time": 170.5327469416667,
          "velocity": 0.4409448818897638
        },
        {
          "duration": 1.5657881166666527,
          "durationTicks": 952,
          "midi": 81,
          "name": "A5",
          "ticks": 103688,
          "time": 170.53932588333336,
          "velocity": 0.4409448818897638
        },
        {
          "duration": 1.552630233333332,
          "durationTicks": 944,
          "midi": 84,
          "name": "C6",
          "ticks": 103696,
          "time": 170.55248376666668,
          "velocity": 0.4409448818897638
        },
        {
          "duration": 1.578946000000002,
          "durationTicks": 960,
          "midi": 79,
          "name": "G5",
          "ticks": 104640,
          "time": 172.10511400000001,
          "velocity": 0.4409448818897638
        },
        {
          "duration": 1.578946000000002,
          "durationTicks": 960,
          "midi": 83,
          "name": "B5",
          "ticks": 104640,
          "time": 172.10511400000001,
          "velocity": 0.4409448818897638
        },
        {
          "duration": 1.578946000000002,
          "durationTicks": 960,
          "midi": 86,
          "name": "D6",
          "ticks": 104640,
          "time": 172.10511400000001,
          "velocity": 0.4409448818897638
        },
        {
          "duration": 1.5723670583333558,
          "durationTicks": 956,
          "midi": 81,
          "name": "A5",
          "ticks": 105600,
          "time": 173.68406000000002,
          "velocity": 0.4409448818897638
        },
        {
          "duration": 1.5723670583333558,
          "durationTicks": 956,
          "midi": 84,
          "name": "C6",
          "ticks": 105600,
          "time": 173.68406000000002,
          "velocity": 0.4409448818897638
        },
        {
          "duration": 1.5723670583333558,
          "durationTicks": 956,
          "midi": 88,
          "name": "E6",
          "ticks": 105600,
          "time": 173.68406000000002,
          "velocity": 0.4409448818897638
        },
        {
          "duration": 1.3947356333333403,
          "durationTicks": 848,
          "midi": 81,
          "name": "A5",
          "ticks": 106560,
          "time": 175.26300600000002,
          "velocity": 0.5590551181102362
        },
        {
          "duration": 1.3749988083333449,
          "durationTicks": 836,
          "midi": 76,
          "name": "E5",
          "ticks": 106560,
          "time": 175.26300600000002,
          "velocity": 0.6456692913385826
        },
        {
          "duration": 1.3881566916666657,
          "durationTicks": 844,
          "midi": 88,
          "name": "E6",
          "ticks": 106560,
          "time": 175.26300600000002,
          "velocity": 0.4409448818897638
        },
        {
          "duration": 0.05263153333331161,
          "durationTicks": 32,
          "midi": 81,
          "name": "A5",
          "ticks": 107484,
          "time": 176.78274152500003,
          "velocity": 0.7086614173228346
        },
        {
          "duration": 0.05263153333331161,
          "durationTicks": 32,
          "midi": 88,
          "name": "E6",
          "ticks": 107484,
          "time": 176.78274152500003,
          "velocity": 0.7401574803149606
        },
        {
          "duration": 0.04605259166666542,
          "durationTicks": 28,
          "midi": 76,
          "name": "E5",
          "ticks": 107488,
          "time": 176.78932046666668,
          "velocity": 0.7244094488188977
        },
        {
          "duration": 1.578946000000002,
          "durationTicks": 960,
          "midi": 84,
          "name": "C6",
          "ticks": 107520,
          "time": 176.84195200000002,
          "velocity": 0.4409448818897638
        },
        {
          "duration": 1.578946000000002,
          "durationTicks": 960,
          "midi": 81,
          "name": "A5",
          "ticks": 107520,
          "time": 176.84195200000002,
          "velocity": 0.4409448818897638
        },
        {
          "duration": 1.578946000000002,
          "durationTicks": 960,
          "midi": 77,
          "name": "F5",
          "ticks": 107520,
          "time": 176.84195200000002,
          "velocity": 0.4409448818897638
        },
        {
          "duration": 1.578946000000002,
          "durationTicks": 960,
          "midi": 79,
          "name": "G5",
          "ticks": 108480,
          "time": 178.42089800000002,
          "velocity": 0.4409448818897638
        },
        {
          "duration": 1.578946000000002,
          "durationTicks": 960,
          "midi": 83,
          "name": "B5",
          "ticks": 108480,
          "time": 178.42089800000002,
          "velocity": 0.4409448818897638
        },
        {
          "duration": 1.578946000000002,
          "durationTicks": 960,
          "midi": 86,
          "name": "D6",
          "ticks": 108480,
          "time": 178.42089800000002,
          "velocity": 0.4409448818897638
        },
        {
          "duration": 1.578946000000002,
          "durationTicks": 960,
          "midi": 74,
          "name": "D5",
          "ticks": 109440,
          "time": 179.99984400000002,
          "velocity": 0.4409448818897638
        },
        {
          "duration": 1.578946000000002,
          "durationTicks": 960,
          "midi": 79,
          "name": "G5",
          "ticks": 109440,
          "time": 179.99984400000002,
          "velocity": 0.4409448818897638
        },
        {
          "duration": 1.578946000000002,
          "durationTicks": 960,
          "midi": 83,
          "name": "B5",
          "ticks": 109440,
          "time": 179.99984400000002,
          "velocity": 0.4409448818897638
        },
        {
          "duration": 0.6184205166666459,
          "durationTicks": 376,
          "midi": 81,
          "name": "A5",
          "ticks": 110400,
          "time": 181.57879000000003,
          "velocity": 0.4409448818897638
        },
        {
          "duration": 1.460525050000001,
          "durationTicks": 888,
          "midi": 84,
          "name": "C6",
          "ticks": 110400,
          "time": 181.57879000000003,
          "velocity": 0.4409448818897638
        },
        {
          "duration": 0.6776309916666605,
          "durationTicks": 412,
          "midi": 88,
          "name": "E6",
          "ticks": 110400,
          "time": 181.57879000000003,
          "velocity": 0.4409448818897638
        },
        {
          "duration": 0.7236835833333544,
          "durationTicks": 440,
          "midi": 88,
          "name": "E6",
          "ticks": 110840,
          "time": 182.30247358333335,
          "velocity": 0.4409448818897638
        },
        {
          "duration": 0.7434204083333213,
          "durationTicks": 452,
          "midi": 93,
          "name": "A6",
          "ticks": 110844,
          "time": 182.30905252500003,
          "velocity": 0.4409448818897638
        },
        {
          "duration": 1.5723670583333558,
          "durationTicks": 956,
          "midi": 74,
          "name": "D5",
          "ticks": 111364,
          "time": 183.16431494166667,
          "velocity": 0.4409448818897638
        },
        {
          "duration": 1.5657881166666527,
          "durationTicks": 952,
          "midi": 77,
          "name": "F5",
          "ticks": 111368,
          "time": 183.17089388333338,
          "velocity": 0.4409448818897638
        },
        {
          "duration": 1.552630233333332,
          "durationTicks": 944,
          "midi": 81,
          "name": "A5",
          "ticks": 111376,
          "time": 183.1840517666667,
          "velocity": 0.4409448818897638
        },
        {
          "duration": 1.578946000000002,
          "durationTicks": 960,
          "midi": 74,
          "name": "D5",
          "ticks": 112320,
          "time": 184.73668200000003,
          "velocity": 0.4409448818897638
        },
        {
          "duration": 1.578946000000002,
          "durationTicks": 960,
          "midi": 79,
          "name": "G5",
          "ticks": 112320,
          "time": 184.73668200000003,
          "velocity": 0.4409448818897638
        },
        {
          "duration": 1.578946000000002,
          "durationTicks": 960,
          "midi": 83,
          "name": "B5",
          "ticks": 112320,
          "time": 184.73668200000003,
          "velocity": 0.4409448818897638
        },
        {
          "duration": 1.578946000000002,
          "durationTicks": 960,
          "midi": 77,
          "name": "F5",
          "ticks": 113280,
          "time": 186.31562800000003,
          "velocity": 0.4409448818897638
        },
        {
          "duration": 1.578946000000002,
          "durationTicks": 960,
          "midi": 81,
          "name": "A5",
          "ticks": 113280,
          "time": 186.31562800000003,
          "velocity": 0.4409448818897638
        },
        {
          "duration": 1.578946000000002,
          "durationTicks": 960,
          "midi": 84,
          "name": "C6",
          "ticks": 113280,
          "time": 186.31562800000003,
          "velocity": 0.4409448818897638
        },
        {
          "duration": 0.7499993499999675,
          "durationTicks": 456,
          "midi": 77,
          "name": "F5",
          "ticks": 114240,
          "time": 187.89457400000003,
          "velocity": 0.4409448818897638
        },
        {
          "duration": 0.7697361749999914,
          "durationTicks": 468,
          "midi": 83,
          "name": "B5",
          "ticks": 114240,
          "time": 187.89457400000003,
          "velocity": 0.4409448818897638
        },
        {
          "duration": 0.7631572333333168,
          "durationTicks": 464,
          "midi": 86,
          "name": "D6",
          "ticks": 114240,
          "time": 187.89457400000003,
          "velocity": 0.4409448818897638
        },
        {
          "duration": 0.7105257000000051,
          "durationTicks": 432,
          "midi": 83,
          "name": "B5",
          "ticks": 114724,
          "time": 188.6906259416667,
          "velocity": 0.5590551181102362
        },
        {
          "duration": 0.6776309916666605,
          "durationTicks": 412,
          "midi": 77,
          "name": "F5",
          "ticks": 114732,
          "time": 188.70378382500002,
          "velocity": 0.5590551181102362
        },
        {
          "duration": 1.578946000000002,
          "durationTicks": 960,
          "midi": 84,
          "name": "C6",
          "ticks": 132480,
          "time": 217.89454800000001,
          "velocity": 0.4409448818897638
        },
        {
          "duration": 1.578946000000002,
          "durationTicks": 960,
          "midi": 81,
          "name": "A5",
          "ticks": 132480,
          "time": 217.89454800000001,
          "velocity": 0.4409448818897638
        },
        {
          "duration": 1.578946000000002,
          "durationTicks": 960,
          "midi": 77,
          "name": "F5",
          "ticks": 132480,
          "time": 217.89454800000001,
          "velocity": 0.4409448818897638
        },
        {
          "duration": 1.578946000000002,
          "durationTicks": 960,
          "midi": 79,
          "name": "G5",
          "ticks": 133440,
          "time": 219.47349400000002,
          "velocity": 0.4409448818897638
        },
        {
          "duration": 1.578946000000002,
          "durationTicks": 960,
          "midi": 83,
          "name": "B5",
          "ticks": 133440,
          "time": 219.47349400000002,
          "velocity": 0.4409448818897638
        },
        {
          "duration": 1.578946000000002,
          "durationTicks": 960,
          "midi": 86,
          "name": "D6",
          "ticks": 133440,
          "time": 219.47349400000002,
          "velocity": 0.4409448818897638
        },
        {
          "duration": 0.7894730000000152,
          "durationTicks": 480,
          "midi": 72,
          "name": "C5",
          "ticks": 134400,
          "time": 221.05244000000002,
          "velocity": 0.4409448818897638
        },
        {
          "duration": 0.7894730000000152,
          "durationTicks": 480,
          "midi": 76,
          "name": "E5",
          "ticks": 134400,
          "time": 221.05244000000002,
          "velocity": 0.4409448818897638
        },
        {
          "duration": 0.7894730000000152,
          "durationTicks": 480,
          "midi": 79,
          "name": "G5",
          "ticks": 134400,
          "time": 221.05244000000002,
          "velocity": 0.4409448818897638
        },
        {
          "duration": 0.7894729999999868,
          "durationTicks": 480,
          "midi": 77,
          "name": "F5",
          "ticks": 134880,
          "time": 221.84191300000003,
          "velocity": 0.4409448818897638
        },
        {
          "duration": 0.7894729999999868,
          "durationTicks": 480,
          "midi": 83,
          "name": "B5",
          "ticks": 134880,
          "time": 221.84191300000003,
          "velocity": 0.4409448818897638
        },
        {
          "duration": 0.7894729999999868,
          "durationTicks": 480,
          "midi": 86,
          "name": "D6",
          "ticks": 134880,
          "time": 221.84191300000003,
          "velocity": 0.4409448818897638
        },
        {
          "duration": 0.6184205166667027,
          "durationTicks": 376,
          "midi": 81,
          "name": "A5",
          "ticks": 135360,
          "time": 222.63138600000002,
          "velocity": 0.4409448818897638
        },
        {
          "duration": 1.4605250500000295,
          "durationTicks": 888,
          "midi": 84,
          "name": "C6",
          "ticks": 135360,
          "time": 222.63138600000002,
          "velocity": 0.4409448818897638
        },
        {
          "duration": 0.6776309916666889,
          "durationTicks": 412,
          "midi": 88,
          "name": "E6",
          "ticks": 135360,
          "time": 222.63138600000002,
          "velocity": 0.4409448818897638
        },
        {
          "duration": 0.7236835833332975,
          "durationTicks": 440,
          "midi": 88,
          "name": "E6",
          "ticks": 135800,
          "time": 223.35506958333337,
          "velocity": 0.4409448818897638
        },
        {
          "duration": 0.7434204083333498,
          "durationTicks": 452,
          "midi": 93,
          "name": "A6",
          "ticks": 135804,
          "time": 223.36164852500002,
          "velocity": 0.4409448818897638
        },
        {
          "duration": 1.5723670583333273,
          "durationTicks": 956,
          "midi": 77,
          "name": "F5",
          "ticks": 136324,
          "time": 224.2169109416667,
          "velocity": 0.4409448818897638
        },
        {
          "duration": 1.5657881166666812,
          "durationTicks": 952,
          "midi": 81,
          "name": "A5",
          "ticks": 136328,
          "time": 224.22348988333334,
          "velocity": 0.4409448818897638
        },
        {
          "duration": 1.5526302333333035,
          "durationTicks": 944,
          "midi": 84,
          "name": "C6",
          "ticks": 136336,
          "time": 224.23664776666672,
          "velocity": 0.4409448818897638
        },
        {
          "duration": 1.578946000000002,
          "durationTicks": 960,
          "midi": 79,
          "name": "G5",
          "ticks": 137280,
          "time": 225.78927800000002,
          "velocity": 0.4409448818897638
        },
        {
          "duration": 1.578946000000002,
          "durationTicks": 960,
          "midi": 83,
          "name": "B5",
          "ticks": 137280,
          "time": 225.78927800000002,
          "velocity": 0.4409448818897638
        },
        {
          "duration": 1.578946000000002,
          "durationTicks": 960,
          "midi": 86,
          "name": "D6",
          "ticks": 137280,
          "time": 225.78927800000002,
          "velocity": 0.4409448818897638
        },
        {
          "duration": 2.328945349999998,
          "durationTicks": 1416,
          "midi": 81,
          "name": "A5",
          "ticks": 138240,
          "time": 227.36822400000003,
          "velocity": 0.4409448818897638
        },
        {
          "duration": 2.3486821750000217,
          "durationTicks": 1428,
          "midi": 84,
          "name": "C6",
          "ticks": 138240,
          "time": 227.36822400000003,
          "velocity": 0.4409448818897638
        },
        {
          "duration": 2.3421032333333187,
          "durationTicks": 1424,
          "midi": 88,
          "name": "E6",
          "ticks": 138240,
          "time": 227.36822400000003,
          "velocity": 0.4409448818897638
        },
        {
          "duration": 0.7105257000000336,
          "durationTicks": 432,
          "midi": 84,
          "name": "C6",
          "ticks": 139684,
          "time": 229.7432219416667,
          "velocity": 0.5590551181102362
        },
        {
          "duration": 0.6776309916666889,
          "durationTicks": 412,
          "midi": 81,
          "name": "A5",
          "ticks": 139692,
          "time": 229.756379825,
          "velocity": 0.5590551181102362
        },
        {
          "duration": 1.578946000000002,
          "durationTicks": 960,
          "midi": 84,
          "name": "C6",
          "ticks": 140160,
          "time": 230.52611600000003,
          "velocity": 0.4409448818897638
        },
        {
          "duration": 1.578946000000002,
          "durationTicks": 960,
          "midi": 81,
          "name": "A5",
          "ticks": 140160,
          "time": 230.52611600000003,
          "velocity": 0.4409448818897638
        },
        {
          "duration": 1.578946000000002,
          "durationTicks": 960,
          "midi": 77,
          "name": "F5",
          "ticks": 140160,
          "time": 230.52611600000003,
          "velocity": 0.4409448818897638
        },
        {
          "duration": 1.578946000000002,
          "durationTicks": 960,
          "midi": 79,
          "name": "G5",
          "ticks": 141120,
          "time": 232.10506200000003,
          "velocity": 0.4409448818897638
        },
        {
          "duration": 1.578946000000002,
          "durationTicks": 960,
          "midi": 83,
          "name": "B5",
          "ticks": 141120,
          "time": 232.10506200000003,
          "velocity": 0.4409448818897638
        },
        {
          "duration": 1.578946000000002,
          "durationTicks": 960,
          "midi": 86,
          "name": "D6",
          "ticks": 141120,
          "time": 232.10506200000003,
          "velocity": 0.4409448818897638
        },
        {
          "duration": 0.7894729999999868,
          "durationTicks": 480,
          "midi": 72,
          "name": "C5",
          "ticks": 142080,
          "time": 233.68400800000003,
          "velocity": 0.4409448818897638
        },
        {
          "duration": 0.7894729999999868,
          "durationTicks": 480,
          "midi": 76,
          "name": "E5",
          "ticks": 142080,
          "time": 233.68400800000003,
          "velocity": 0.4409448818897638
        },
        {
          "duration": 0.7894729999999868,
          "durationTicks": 480,
          "midi": 79,
          "name": "G5",
          "ticks": 142080,
          "time": 233.68400800000003,
          "velocity": 0.4409448818897638
        },
        {
          "duration": 0.7894730000000152,
          "durationTicks": 480,
          "midi": 77,
          "name": "F5",
          "ticks": 142560,
          "time": 234.47348100000002,
          "velocity": 0.4409448818897638
        },
        {
          "duration": 0.7894730000000152,
          "durationTicks": 480,
          "midi": 83,
          "name": "B5",
          "ticks": 142560,
          "time": 234.47348100000002,
          "velocity": 0.4409448818897638
        },
        {
          "duration": 0.7894730000000152,
          "durationTicks": 480,
          "midi": 86,
          "name": "D6",
          "ticks": 142560,
          "time": 234.47348100000002,
          "velocity": 0.4409448818897638
        },
        {
          "duration": 0.6184205166666743,
          "durationTicks": 376,
          "midi": 81,
          "name": "A5",
          "ticks": 143040,
          "time": 235.26295400000004,
          "velocity": 0.4409448818897638
        },
        {
          "duration": 1.460525050000001,
          "durationTicks": 888,
          "midi": 84,
          "name": "C6",
          "ticks": 143040,
          "time": 235.26295400000004,
          "velocity": 0.4409448818897638
        },
        {
          "duration": 0.6776309916666605,
          "durationTicks": 412,
          "midi": 88,
          "name": "E6",
          "ticks": 143040,
          "time": 235.26295400000004,
          "velocity": 0.4409448818897638
        },
        {
          "duration": 0.7236835833333259,
          "durationTicks": 440,
          "midi": 88,
          "name": "E6",
          "ticks": 143480,
          "time": 235.98663758333336,
          "velocity": 0.4409448818897638
        },
        {
          "duration": 0.7434204083333213,
          "durationTicks": 452,
          "midi": 93,
          "name": "A6",
          "ticks": 143484,
          "time": 235.99321652500004,
          "velocity": 0.4409448818897638
        },
        {
          "duration": 1.5723670583333558,
          "durationTicks": 956,
          "midi": 77,
          "name": "F5",
          "ticks": 144004,
          "time": 236.84847894166668,
          "velocity": 0.4409448818897638
        },
        {
          "duration": 1.5657881166666812,
          "durationTicks": 952,
          "midi": 81,
          "name": "A5",
          "ticks": 144008,
          "time": 236.85505788333336,
          "velocity": 0.4409448818897638
        },
        {
          "duration": 1.552630233333332,
          "durationTicks": 944,
          "midi": 84,
          "name": "C6",
          "ticks": 144016,
          "time": 236.8682157666667,
          "velocity": 0.4409448818897638
        },
        {
          "duration": 1.5789459999999735,
          "durationTicks": 960,
          "midi": 79,
          "name": "G5",
          "ticks": 144960,
          "time": 238.42084600000004,
          "velocity": 0.4409448818897638
        },
        {
          "duration": 1.5789459999999735,
          "durationTicks": 960,
          "midi": 83,
          "name": "B5",
          "ticks": 144960,
          "time": 238.42084600000004,
          "velocity": 0.4409448818897638
        },
        {
          "duration": 1.5789459999999735,
          "durationTicks": 960,
          "midi": 86,
          "name": "D6",
          "ticks": 144960,
          "time": 238.42084600000004,
          "velocity": 0.4409448818897638
        },
        {
          "duration": 1.5723670583333558,
          "durationTicks": 956,
          "midi": 81,
          "name": "A5",
          "ticks": 145920,
          "time": 239.999792,
          "velocity": 0.4409448818897638
        },
        {
          "duration": 1.5723670583333558,
          "durationTicks": 956,
          "midi": 84,
          "name": "C6",
          "ticks": 145920,
          "time": 239.999792,
          "velocity": 0.4409448818897638
        },
        {
          "duration": 1.5723670583333558,
          "durationTicks": 956,
          "midi": 88,
          "name": "E6",
          "ticks": 145920,
          "time": 239.999792,
          "velocity": 0.4409448818897638
        },
        {
          "duration": 1.3947356333333403,
          "durationTicks": 848,
          "midi": 81,
          "name": "A5",
          "ticks": 146880,
          "time": 241.57873800000002,
          "velocity": 0.5590551181102362
        },
        {
          "duration": 1.3749988083333449,
          "durationTicks": 836,
          "midi": 76,
          "name": "E5",
          "ticks": 146880,
          "time": 241.57873800000002,
          "velocity": 0.6456692913385826
        },
        {
          "duration": 1.3881566916666657,
          "durationTicks": 844,
          "midi": 88,
          "name": "E6",
          "ticks": 146880,
          "time": 241.57873800000002,
          "velocity": 0.4409448818897638
        },
        {
          "duration": 0.05263153333334003,
          "durationTicks": 32,
          "midi": 81,
          "name": "A5",
          "ticks": 147804,
          "time": 243.09847352500003,
          "velocity": 0.7086614173228346
        },
        {
          "duration": 0.05263153333334003,
          "durationTicks": 32,
          "midi": 88,
          "name": "E6",
          "ticks": 147804,
          "time": 243.09847352500003,
          "velocity": 0.7401574803149606
        },
        {
          "duration": 0.04605259166666542,
          "durationTicks": 28,
          "midi": 76,
          "name": "E5",
          "ticks": 147808,
          "time": 243.1050524666667,
          "velocity": 0.7244094488188977
        },
        {
          "duration": 1.578946000000002,
          "durationTicks": 960,
          "midi": 84,
          "name": "C6",
          "ticks": 147840,
          "time": 243.15768400000002,
          "velocity": 0.4409448818897638
        },
        {
          "duration": 1.578946000000002,
          "durationTicks": 960,
          "midi": 81,
          "name": "A5",
          "ticks": 147840,
          "time": 243.15768400000002,
          "velocity": 0.4409448818897638
        },
        {
          "duration": 1.578946000000002,
          "durationTicks": 960,
          "midi": 77,
          "name": "F5",
          "ticks": 147840,
          "time": 243.15768400000002,
          "velocity": 0.4409448818897638
        },
        {
          "duration": 1.578946000000002,
          "durationTicks": 960,
          "midi": 79,
          "name": "G5",
          "ticks": 148800,
          "time": 244.73663000000002,
          "velocity": 0.4409448818897638
        },
        {
          "duration": 1.578946000000002,
          "durationTicks": 960,
          "midi": 83,
          "name": "B5",
          "ticks": 148800,
          "time": 244.73663000000002,
          "velocity": 0.4409448818897638
        },
        {
          "duration": 1.578946000000002,
          "durationTicks": 960,
          "midi": 86,
          "name": "D6",
          "ticks": 148800,
          "time": 244.73663000000002,
          "velocity": 0.4409448818897638
        },
        {
          "duration": 0.7894730000000152,
          "durationTicks": 480,
          "midi": 72,
          "name": "C5",
          "ticks": 149760,
          "time": 246.31557600000002,
          "velocity": 0.4409448818897638
        },
        {
          "duration": 0.7894730000000152,
          "durationTicks": 480,
          "midi": 76,
          "name": "E5",
          "ticks": 149760,
          "time": 246.31557600000002,
          "velocity": 0.4409448818897638
        },
        {
          "duration": 0.7894730000000152,
          "durationTicks": 480,
          "midi": 79,
          "name": "G5",
          "ticks": 149760,
          "time": 246.31557600000002,
          "velocity": 0.4409448818897638
        },
        {
          "duration": 0.7894729999999868,
          "durationTicks": 480,
          "midi": 79,
          "name": "G5",
          "ticks": 150240,
          "time": 247.10504900000004,
          "velocity": 0.4409448818897638
        },
        {
          "duration": 0.7894729999999868,
          "durationTicks": 480,
          "midi": 83,
          "name": "B5",
          "ticks": 150240,
          "time": 247.10504900000004,
          "velocity": 0.4409448818897638
        },
        {
          "duration": 0.7894729999999868,
          "durationTicks": 480,
          "midi": 86,
          "name": "D6",
          "ticks": 150240,
          "time": 247.10504900000004,
          "velocity": 0.4409448818897638
        },
        {
          "duration": 0.6184205166667027,
          "durationTicks": 376,
          "midi": 81,
          "name": "A5",
          "ticks": 150720,
          "time": 247.89452200000002,
          "velocity": 0.4409448818897638
        },
        {
          "duration": 1.4605250500000295,
          "durationTicks": 888,
          "midi": 84,
          "name": "C6",
          "ticks": 150720,
          "time": 247.89452200000002,
          "velocity": 0.4409448818897638
        },
        {
          "duration": 0.6776309916666889,
          "durationTicks": 412,
          "midi": 88,
          "name": "E6",
          "ticks": 150720,
          "time": 247.89452200000002,
          "velocity": 0.4409448818897638
        },
        {
          "duration": 0.7236835833332975,
          "durationTicks": 440,
          "midi": 88,
          "name": "E6",
          "ticks": 151160,
          "time": 248.61820558333338,
          "velocity": 0.4409448818897638
        },
        {
          "duration": 0.7434204083333498,
          "durationTicks": 452,
          "midi": 93,
          "name": "A6",
          "ticks": 151164,
          "time": 248.62478452500002,
          "velocity": 0.4409448818897638
        },
        {
          "duration": 1.5723670583333273,
          "durationTicks": 956,
          "midi": 77,
          "name": "F5",
          "ticks": 151684,
          "time": 249.4800469416667,
          "velocity": 0.4409448818897638
        },
        {
          "duration": 1.5657881166666812,
          "durationTicks": 952,
          "midi": 81,
          "name": "A5",
          "ticks": 151688,
          "time": 249.48662588333335,
          "velocity": 0.4409448818897638
        },
        {
          "duration": 1.5526302333333035,
          "durationTicks": 944,
          "midi": 84,
          "name": "C6",
          "ticks": 151696,
          "time": 249.49978376666672,
          "velocity": 0.4409448818897638
        },
        {
          "duration": 1.5723670583333273,
          "durationTicks": 956,
          "midi": 79,
          "name": "G5",
          "ticks": 152640,
          "time": 251.05241400000003,
          "velocity": 0.4409448818897638
        },
        {
          "duration": 1.5723670583333273,
          "durationTicks": 956,
          "midi": 83,
          "name": "B5",
          "ticks": 152640,
          "time": 251.05241400000003,
          "velocity": 0.4409448818897638
        },
        {
          "duration": 1.5723670583333273,
          "durationTicks": 956,
          "midi": 86,
          "name": "D6",
          "ticks": 152640,
          "time": 251.05241400000003,
          "velocity": 0.4409448818897638
        },
        {
          "duration": 1.3947356333333119,
          "durationTicks": 848,
          "midi": 81,
          "name": "A5",
          "ticks": 153600,
          "time": 252.63136000000003,
          "velocity": 0.5590551181102362
        },
        {
          "duration": 1.3749988083333449,
          "durationTicks": 836,
          "midi": 76,
          "name": "E5",
          "ticks": 153600,
          "time": 252.63136000000003,
          "velocity": 0.6456692913385826
        },
        {
          "duration": 1.3881566916666657,
          "durationTicks": 844,
          "midi": 88,
          "name": "E6",
          "ticks": 153600,
          "time": 252.63136000000003,
          "velocity": 0.4409448818897638
        },
        {
          "duration": 0.05263153333331161,
          "durationTicks": 32,
          "midi": 81,
          "name": "A5",
          "ticks": 154524,
          "time": 254.15109552500004,
          "velocity": 0.7086614173228346
        },
        {
          "duration": 0.05263153333331161,
          "durationTicks": 32,
          "midi": 88,
          "name": "E6",
          "ticks": 154524,
          "time": 254.15109552500004,
          "velocity": 0.7401574803149606
        },
        {
          "duration": 0.04605259166666542,
          "durationTicks": 28,
          "midi": 76,
          "name": "E5",
          "ticks": 154528,
          "time": 254.1576744666667,
          "velocity": 0.7244094488188977
        },
        {
          "duration": 1.5657881166666812,
          "durationTicks": 952,
          "midi": 88,
          "name": "E6",
          "ticks": 154560,
          "time": 254.21030600000003,
          "velocity": 0.4409448818897638
        },
        {
          "duration": 1.5657881166666812,
          "durationTicks": 952,
          "midi": 84,
          "name": "C6",
          "ticks": 154560,
          "time": 254.21030600000003,
          "velocity": 0.4409448818897638
        },
        {
          "duration": 1.5657881166666812,
          "durationTicks": 952,
          "midi": 81,
          "name": "A5",
          "ticks": 154560,
          "time": 254.21030600000003,
          "velocity": 0.4409448818897638
        }
      ]
    },
    {
      "channel": 5,
      "controlChanges": {
        "10": [
          {
            "number": 10,
            "ticks": 7680,
            "time": 12.631568000000001,
            "value": 0.23622047244094488
          },
          {
            "number": 10,
            "ticks": 14400,
            "time": 23.68419,
            "value": 0.23622047244094488
          },
          {
            "number": 10,
            "ticks": 15360,
            "time": 25.263136000000003,
            "value": 0.23622047244094488
          },
          {
            "number": 10,
            "ticks": 23040,
            "time": 37.894704000000004,
            "value": 0.23622047244094488
          },
          {
            "number": 10,
            "ticks": 29760,
            "time": 48.947326000000004,
            "value": 0.23622047244094488
          },
          {
            "number": 10,
            "ticks": 30720,
            "time": 50.526272000000006,
            "value": 0.23622047244094488
          },
          {
            "number": 10,
            "ticks": 38400,
            "time": 63.15784000000001,
            "value": 0.23622047244094488
          },
          {
            "number": 10,
            "ticks": 45120,
            "time": 74.210462,
            "value": 0.23622047244094488
          },
          {
            "number": 10,
            "ticks": 46080,
            "time": 75.78940800000001,
            "value": 0.23622047244094488
          },
          {
            "number": 10,
            "ticks": 53760,
            "time": 88.42097600000001,
            "value": 0.23622047244094488
          },
          {
            "number": 10,
            "ticks": 60480,
            "time": 99.47359800000001,
            "value": 0.23622047244094488
          },
          {
            "number": 10,
            "ticks": 61440,
            "time": 101.05254400000001,
            "value": 0.23622047244094488
          },
          {
            "number": 10,
            "ticks": 68160,
            "time": 112.10516600000001,
            "value": 0.23622047244094488
          },
          {
            "number": 10,
            "ticks": 69120,
            "time": 113.68411200000001,
            "value": 0.23622047244094488
          },
          {
            "number": 10,
            "ticks": 75840,
            "time": 124.73673400000001,
            "value": 0.23622047244094488
          },
          {
            "number": 10,
            "ticks": 76800,
            "time": 126.31568000000001,
            "value": 0.23622047244094488
          },
          {
            "number": 10,
            "ticks": 84480,
            "time": 138.947248,
            "value": 0.23622047244094488
          },
          {
            "number": 10,
            "ticks": 91200,
            "time": 149.99987000000002,
            "value": 0.23622047244094488
          },
          {
            "number": 10,
            "ticks": 92160,
            "time": 151.57881600000002,
            "value": 0.23622047244094488
          },
          {
            "number": 10,
            "ticks": 99840,
            "time": 164.21038400000003,
            "value": 0.23622047244094488
          },
          {
            "number": 10,
            "ticks": 106560,
            "time": 175.26300600000002,
            "value": 0.23622047244094488
          },
          {
            "number": 10,
            "ticks": 107520,
            "time": 176.84195200000002,
            "value": 0.23622047244094488
          },
          {
            "number": 10,
            "ticks": 117120,
            "time": 192.631412,
            "value": 0.23622047244094488
          },
          {
            "number": 10,
            "ticks": 123840,
            "time": 203.68403400000003,
            "value": 0.23622047244094488
          },
          {
            "number": 10,
            "ticks": 124800,
            "time": 205.26298000000003,
            "value": 0.23622047244094488
          },
          {
            "number": 10,
            "ticks": 131520,
            "time": 216.315602,
            "value": 0.23622047244094488
          },
          {
            "number": 10,
            "ticks": 132480,
            "time": 217.89454800000001,
            "value": 0.23622047244094488
          },
          {
            "number": 10,
            "ticks": 140160,
            "time": 230.52611600000003,
            "value": 0.23622047244094488
          },
          {
            "number": 10,
            "ticks": 146880,
            "time": 241.57873800000002,
            "value": 0.23622047244094488
          },
          {
            "number": 10,
            "ticks": 147840,
            "time": 243.15768400000002,
            "value": 0.23622047244094488
          },
          {
            "number": 10,
            "ticks": 153600,
            "time": 252.63136000000003,
            "value": 0.23622047244094488
          },
          {
            "number": 10,
            "ticks": 154560,
            "time": 254.21030600000003,
            "value": 0.23622047244094488
          }
        ],
        "64": [
          {
            "number": 64,
            "ticks": 7680,
            "time": 12.631568000000001,
            "value": 1
          },
          {
            "number": 64,
            "ticks": 9448,
            "time": 15.539460216666669,
            "value": 0
          },
          {
            "number": 64,
            "ticks": 9604,
            "time": 15.796038941666668,
            "value": 1
          },
          {
            "number": 64,
            "ticks": 11392,
            "time": 18.73682586666667,
            "value": 0
          },
          {
            "number": 64,
            "ticks": 11520,
            "time": 18.947352000000002,
            "value": 1
          },
          {
            "number": 64,
            "ticks": 13320,
            "time": 21.907875750000002,
            "value": 0
          },
          {
            "number": 64,
            "ticks": 13440,
            "time": 22.105244000000003,
            "value": 1
          },
          {
            "number": 64,
            "ticks": 14400,
            "time": 23.68419,
            "value": 1
          },
          {
            "number": 64,
            "ticks": 15360,
            "time": 25.263136000000003,
            "value": 1
          },
          {
            "number": 64,
            "ticks": 17144,
            "time": 28.197343983333337,
            "value": 0
          },
          {
            "number": 64,
            "ticks": 17280,
            "time": 28.421028000000003,
            "value": 1
          },
          {
            "number": 64,
            "ticks": 19072,
            "time": 31.368393866666672,
            "value": 0
          },
          {
            "number": 64,
            "ticks": 19200,
            "time": 31.578920000000004,
            "value": 1
          },
          {
            "number": 64,
            "ticks": 21004,
            "time": 34.54602269166667,
            "value": 0
          },
          {
            "number": 64,
            "ticks": 21120,
            "time": 34.736812,
            "value": 1
          },
          {
            "number": 64,
            "ticks": 22924,
            "time": 37.70391469166667,
            "value": 0
          },
          {
            "number": 64,
            "ticks": 23040,
            "time": 37.894704000000004,
            "value": 1
          },
          {
            "number": 64,
            "ticks": 24824,
            "time": 40.82891198333334,
            "value": 0
          },
          {
            "number": 64,
            "ticks": 24960,
            "time": 41.05259600000001,
            "value": 1
          },
          {
            "number": 64,
            "ticks": 26752,
            "time": 43.99996186666667,
            "value": 0
          },
          {
            "number": 64,
            "ticks": 26880,
            "time": 44.210488000000005,
            "value": 1
          },
          {
            "number": 64,
            "ticks": 28684,
            "time": 47.17759069166667,
            "value": 0
          },
          {
            "number": 64,
            "ticks": 28800,
            "time": 47.36838,
            "value": 1
          },
          {
            "number": 64,
            "ticks": 30720,
            "time": 50.526272000000006,
            "value": 1
          },
          {
            "number": 64,
            "ticks": 32500,
            "time": 53.45390104166667,
            "value": 0
          },
          {
            "number": 64,
            "ticks": 32640,
            "time": 53.68416400000001,
            "value": 1
          },
          {
            "number": 64,
            "ticks": 34412,
            "time": 56.59863515833334,
            "value": 0
          },
          {
            "number": 64,
            "ticks": 34560,
            "time": 56.84205600000001,
            "value": 1
          },
          {
            "number": 64,
            "ticks": 36328,
            "time": 59.749948216666674,
            "value": 0
          },
          {
            "number": 64,
            "ticks": 36480,
            "time": 59.999948,
            "value": 1
          },
          {
            "number": 64,
            "ticks": 38172,
            "time": 62.78284032500001,
            "value": 0
          },
          {
            "number": 64,
            "ticks": 38400,
            "time": 63.15784000000001,
            "value": 1
          },
          {
            "number": 64,
            "ticks": 40180,
            "time": 66.08546904166667,
            "value": 0
          },
          {
            "number": 64,
            "ticks": 40320,
            "time": 66.31573200000001,
            "value": 1
          },
          {
            "number": 64,
            "ticks": 42092,
            "time": 69.23020315833334,
            "value": 0
          },
          {
            "number": 64,
            "ticks": 42240,
            "time": 69.473624,
            "value": 1
          },
          {
            "number": 64,
            "ticks": 44008,
            "time": 72.38151621666668,
            "value": 0
          },
          {
            "number": 64,
            "ticks": 44160,
            "time": 72.631516,
            "value": 1
          },
          {
            "number": 64,
            "ticks": 45120,
            "time": 74.210462,
            "value": 1
          },
          {
            "number": 64,
            "ticks": 46080,
            "time": 75.78940800000001,
            "value": 1
          },
          {
            "number": 64,
            "ticks": 47848,
            "time": 78.69730021666668,
            "value": 0
          },
          {
            "number": 64,
            "ticks": 48004,
            "time": 78.95387894166669,
            "value": 1
          },
          {
            "number": 64,
            "ticks": 49792,
            "time": 81.89466586666667,
            "value": 0
          },
          {
            "number": 64,
            "ticks": 49920,
            "time": 82.10519200000002,
            "value": 1
          },
          {
            "number": 64,
            "ticks": 51720,
            "time": 85.06571575000001,
            "value": 0
          },
          {
            "number": 64,
            "ticks": 51840,
            "time": 85.263084,
            "value": 1
          },
          {
            "number": 64,
            "ticks": 53668,
            "time": 88.26966034166668,
            "value": 0
          },
          {
            "number": 64,
            "ticks": 53760,
            "time": 88.42097600000001,
            "value": 1
          },
          {
            "number": 64,
            "ticks": 55528,
            "time": 91.32886821666668,
            "value": 0
          },
          {
            "number": 64,
            "ticks": 55684,
            "time": 91.58544694166669,
            "value": 1
          },
          {
            "number": 64,
            "ticks": 57472,
            "time": 94.52623386666667,
            "value": 0
          },
          {
            "number": 64,
            "ticks": 57600,
            "time": 94.73676,
            "value": 1
          },
          {
            "number": 64,
            "ticks": 59400,
            "time": 97.69728375000001,
            "value": 0
          },
          {
            "number": 64,
            "ticks": 59520,
            "time": 97.89465200000001,
            "value": 1
          },
          {
            "number": 64,
            "ticks": 60480,
            "time": 99.47359800000001,
            "value": 1
          },
          {
            "number": 64,
            "ticks": 61440,
            "time": 101.05254400000001,
            "value": 1
          },
          {
            "number": 64,
            "ticks": 63208,
            "time": 103.96043621666668,
            "value": 0
          },
          {
            "number": 64,
            "ticks": 63364,
            "time": 104.21701494166668,
            "value": 1
          },
          {
            "number": 64,
            "ticks": 65152,
            "time": 107.15780186666667,
            "value": 0
          },
          {
            "number": 64,
            "ticks": 65280,
            "time": 107.36832800000002,
            "value": 1
          },
          {
            "number": 64,
            "ticks": 67080,
            "time": 110.32885175000001,
            "value": 0
          },
          {
            "number": 64,
            "ticks": 67200,
            "time": 110.52622000000001,
            "value": 1
          },
          {
            "number": 64,
            "ticks": 68160,
            "time": 112.10516600000001,
            "value": 1
          },
          {
            "number": 64,
            "ticks": 69120,
            "time": 113.68411200000001,
            "value": 1
          },
          {
            "number": 64,
            "ticks": 70904,
            "time": 116.61831998333335,
            "value": 0
          },
          {
            "number": 64,
            "ticks": 71040,
            "time": 116.84200400000002,
            "value": 1
          },
          {
            "number": 64,
            "ticks": 72832,
            "time": 119.78936986666668,
            "value": 0
          },
          {
            "number": 64,
            "ticks": 72960,
            "time": 119.999896,
            "value": 1
          },
          {
            "number": 64,
            "ticks": 74764,
            "time": 122.96699869166667,
            "value": 0
          },
          {
            "number": 64,
            "ticks": 74880,
            "time": 123.15778800000001,
            "value": 1
          },
          {
            "number": 64,
            "ticks": 76800,
            "time": 126.31568000000001,
            "value": 1
          },
          {
            "number": 64,
            "ticks": 78580,
            "time": 129.2433090416667,
            "value": 0
          },
          {
            "number": 64,
            "ticks": 78720,
            "time": 129.47357200000002,
            "value": 1
          },
          {
            "number": 64,
            "ticks": 80492,
            "time": 132.38804315833335,
            "value": 0
          },
          {
            "number": 64,
            "ticks": 80640,
            "time": 132.63146400000002,
            "value": 1
          },
          {
            "number": 64,
            "ticks": 82408,
            "time": 135.53935621666668,
            "value": 0
          },
          {
            "number": 64,
            "ticks": 82560,
            "time": 135.78935600000003,
            "value": 1
          },
          {
            "number": 64,
            "ticks": 84252,
            "time": 138.57224832500003,
            "value": 0
          },
          {
            "number": 64,
            "ticks": 84480,
            "time": 138.947248,
            "value": 1
          },
          {
            "number": 64,
            "ticks": 86260,
            "time": 141.87487704166668,
            "value": 0
          },
          {
            "number": 64,
            "ticks": 86400,
            "time": 142.10514,
            "value": 1
          },
          {
            "number": 64,
            "ticks": 88172,
            "time": 145.01961115833333,
            "value": 0
          },
          {
            "number": 64,
            "ticks": 88320,
            "time": 145.263032,
            "value": 1
          },
          {
            "number": 64,
            "ticks": 90088,
            "time": 148.1709242166667,
            "value": 0
          },
          {
            "number": 64,
            "ticks": 90240,
            "time": 148.420924,
            "value": 1
          },
          {
            "number": 64,
            "ticks": 91200,
            "time": 149.99987000000002,
            "value": 1
          },
          {
            "number": 64,
            "ticks": 92160,
            "time": 151.57881600000002,
            "value": 1
          },
          {
            "number": 64,
            "ticks": 93928,
            "time": 154.4867082166667,
            "value": 0
          },
          {
            "number": 64,
            "ticks": 94084,
            "time": 154.74328694166667,
            "value": 1
          },
          {
            "number": 64,
            "ticks": 95872,
            "time": 157.68407386666667,
            "value": 0
          },
          {
            "number": 64,
            "ticks": 96000,
            "time": 157.89460000000003,
            "value": 1
          },
          {
            "number": 64,
            "ticks": 97800,
            "time": 160.85512375000002,
            "value": 0
          },
          {
            "number": 64,
            "ticks": 97920,
            "time": 161.05249200000003,
            "value": 1
          },
          {
            "number": 64,
            "ticks": 99748,
            "time": 164.0590683416667,
            "value": 0
          },
          {
            "number": 64,
            "ticks": 99840,
            "time": 164.21038400000003,
            "value": 1
          },
          {
            "number": 64,
            "ticks": 101608,
            "time": 167.1182762166667,
            "value": 0
          },
          {
            "number": 64,
            "ticks": 101764,
            "time": 167.37485494166668,
            "value": 1
          },
          {
            "number": 64,
            "ticks": 103552,
            "time": 170.31564186666668,
            "value": 0
          },
          {
            "number": 64,
            "ticks": 103680,
            "time": 170.526168,
            "value": 1
          },
          {
            "number": 64,
            "ticks": 105480,
            "time": 173.48669175000003,
            "value": 0
          },
          {
            "number": 64,
            "ticks": 105600,
            "time": 173.68406000000002,
            "value": 1
          },
          {
            "number": 64,
            "ticks": 106560,
            "time": 175.26300600000002,
            "value": 1
          },
          {
            "number": 64,
            "ticks": 107520,
            "time": 176.84195200000002,
            "value": 1
          },
          {
            "number": 64,
            "ticks": 109288,
            "time": 179.7498442166667,
            "value": 0
          },
          {
            "number": 64,
            "ticks": 109444,
            "time": 180.00642294166667,
            "value": 1
          },
          {
            "number": 64,
            "ticks": 111232,
            "time": 182.94720986666667,
            "value": 0
          },
          {
            "number": 64,
            "ticks": 111360,
            "time": 183.15773600000003,
            "value": 1
          },
          {
            "number": 64,
            "ticks": 113160,
            "time": 186.11825975000002,
            "value": 0
          },
          {
            "number": 64,
            "ticks": 113280,
            "time": 186.31562800000003,
            "value": 1
          },
          {
            "number": 64,
            "ticks": 115108,
            "time": 189.3222043416667,
            "value": 0
          },
          {
            "number": 64,
            "ticks": 117120,
            "time": 192.631412,
            "value": 1
          },
          {
            "number": 64,
            "ticks": 118904,
            "time": 195.56561998333336,
            "value": 0
          },
          {
            "number": 64,
            "ticks": 119040,
            "time": 195.78930400000002,
            "value": 1
          },
          {
            "number": 64,
            "ticks": 120832,
            "time": 198.7366698666667,
            "value": 0
          },
          {
            "number": 64,
            "ticks": 120960,
            "time": 198.94719600000002,
            "value": 1
          },
          {
            "number": 64,
            "ticks": 122764,
            "time": 201.9142986916667,
            "value": 0
          },
          {
            "number": 64,
            "ticks": 122880,
            "time": 202.10508800000002,
            "value": 1
          },
          {
            "number": 64,
            "ticks": 124800,
            "time": 205.26298000000003,
            "value": 1
          },
          {
            "number": 64,
            "ticks": 126584,
            "time": 208.19718798333335,
            "value": 0
          },
          {
            "number": 64,
            "ticks": 126720,
            "time": 208.42087200000003,
            "value": 1
          },
          {
            "number": 64,
            "ticks": 128512,
            "time": 211.3682378666667,
            "value": 0
          },
          {
            "number": 64,
            "ticks": 128640,
            "time": 211.57876400000004,
            "value": 1
          },
          {
            "number": 64,
            "ticks": 130444,
            "time": 214.54586669166667,
            "value": 0
          },
          {
            "number": 64,
            "ticks": 130560,
            "time": 214.73665600000004,
            "value": 1
          },
          {
            "number": 64,
            "ticks": 132480,
            "time": 217.89454800000001,
            "value": 1
          },
          {
            "number": 64,
            "ticks": 134248,
            "time": 220.8024402166667,
            "value": 0
          },
          {
            "number": 64,
            "ticks": 134404,
            "time": 221.0590189416667,
            "value": 1
          },
          {
            "number": 64,
            "ticks": 136192,
            "time": 223.9998058666667,
            "value": 0
          },
          {
            "number": 64,
            "ticks": 136320,
            "time": 224.21033200000002,
            "value": 1
          },
          {
            "number": 64,
            "ticks": 138120,
            "time": 227.17085575000002,
            "value": 0
          },
          {
            "number": 64,
            "ticks": 138240,
            "time": 227.36822400000003,
            "value": 1
          },
          {
            "number": 64,
            "ticks": 140068,
            "time": 230.37480034166668,
            "value": 0
          },
          {
            "number": 64,
            "ticks": 140160,
            "time": 230.52611600000003,
            "value": 1
          },
          {
            "number": 64,
            "ticks": 141928,
            "time": 233.43400821666668,
            "value": 0
          },
          {
            "number": 64,
            "ticks": 142084,
            "time": 233.69058694166668,
            "value": 1
          },
          {
            "number": 64,
            "ticks": 143872,
            "time": 236.6313738666667,
            "value": 0
          },
          {
            "number": 64,
            "ticks": 144000,
            "time": 236.84190000000004,
            "value": 1
          },
          {
            "number": 64,
            "ticks": 145800,
            "time": 239.80242375000003,
            "value": 0
          },
          {
            "number": 64,
            "ticks": 145920,
            "time": 239.999792,
            "value": 1
          },
          {
            "number": 64,
            "ticks": 146880,
            "time": 241.57873800000002,
            "value": 1
          },
          {
            "number": 64,
            "ticks": 147840,
            "time": 243.15768400000002,
            "value": 1
          },
          {
            "number": 64,
            "ticks": 149608,
            "time": 246.0655762166667,
            "value": 0
          },
          {
            "number": 64,
            "ticks": 149764,
            "time": 246.3221549416667,
            "value": 1
          },
          {
            "number": 64,
            "ticks": 151552,
            "time": 249.2629418666667,
            "value": 0
          },
          {
            "number": 64,
            "ticks": 151680,
            "time": 249.47346800000003,
            "value": 1
          },
          {
            "number": 64,
            "ticks": 153480,
            "time": 252.43399175000002,
            "value": 0
          },
          {
            "number": 64,
            "ticks": 153600,
            "time": 252.63136000000003,
            "value": 1
          },
          {
            "number": 64,
            "ticks": 154560,
            "time": 254.21030600000003,
            "value": 1
          }
        ],
        "91": [
          {
            "number": 91,
            "ticks": 7680,
            "time": 12.631568000000001,
            "value": 0.15748031496062992
          },
          {
            "number": 91,
            "ticks": 14400,
            "time": 23.68419,
            "value": 0.15748031496062992
          },
          {
            "number": 91,
            "ticks": 15360,
            "time": 25.263136000000003,
            "value": 0.15748031496062992
          },
          {
            "number": 91,
            "ticks": 23040,
            "time": 37.894704000000004,
            "value": 0.15748031496062992
          },
          {
            "number": 91,
            "ticks": 29760,
            "time": 48.947326000000004,
            "value": 0.15748031496062992
          },
          {
            "number": 91,
            "ticks": 30720,
            "time": 50.526272000000006,
            "value": 0.15748031496062992
          },
          {
            "number": 91,
            "ticks": 38400,
            "time": 63.15784000000001,
            "value": 0.15748031496062992
          },
          {
            "number": 91,
            "ticks": 45120,
            "time": 74.210462,
            "value": 0.15748031496062992
          },
          {
            "number": 91,
            "ticks": 46080,
            "time": 75.78940800000001,
            "value": 0.15748031496062992
          },
          {
            "number": 91,
            "ticks": 53760,
            "time": 88.42097600000001,
            "value": 0.15748031496062992
          },
          {
            "number": 91,
            "ticks": 60480,
            "time": 99.47359800000001,
            "value": 0.15748031496062992
          },
          {
            "number": 91,
            "ticks": 61440,
            "time": 101.05254400000001,
            "value": 0.15748031496062992
          },
          {
            "number": 91,
            "ticks": 68160,
            "time": 112.10516600000001,
            "value": 0.15748031496062992
          },
          {
            "number": 91,
            "ticks": 69120,
            "time": 113.68411200000001,
            "value": 0.15748031496062992
          },
          {
            "number": 91,
            "ticks": 75840,
            "time": 124.73673400000001,
            "value": 0.15748031496062992
          },
          {
            "number": 91,
            "ticks": 76800,
            "time": 126.31568000000001,
            "value": 0.15748031496062992
          },
          {
            "number": 91,
            "ticks": 84480,
            "time": 138.947248,
            "value": 0.15748031496062992
          },
          {
            "number": 91,
            "ticks": 91200,
            "time": 149.99987000000002,
            "value": 0.15748031496062992
          },
          {
            "number": 91,
            "ticks": 92160,
            "time": 151.57881600000002,
            "value": 0.15748031496062992
          },
          {
            "number": 91,
            "ticks": 99840,
            "time": 164.21038400000003,
            "value": 0.15748031496062992
          },
          {
            "number": 91,
            "ticks": 106560,
            "time": 175.26300600000002,
            "value": 0.15748031496062992
          },
          {
            "number": 91,
            "ticks": 107520,
            "time": 176.84195200000002,
            "value": 0.15748031496062992
          },
          {
            "number": 91,
            "ticks": 117120,
            "time": 192.631412,
            "value": 0.15748031496062992
          },
          {
            "number": 91,
            "ticks": 123840,
            "time": 203.68403400000003,
            "value": 0.15748031496062992
          },
          {
            "number": 91,
            "ticks": 124800,
            "time": 205.26298000000003,
            "value": 0.15748031496062992
          },
          {
            "number": 91,
            "ticks": 131520,
            "time": 216.315602,
            "value": 0.15748031496062992
          },
          {
            "number": 91,
            "ticks": 132480,
            "time": 217.89454800000001,
            "value": 0.15748031496062992
          },
          {
            "number": 91,
            "ticks": 140160,
            "time": 230.52611600000003,
            "value": 0.15748031496062992
          },
          {
            "number": 91,
            "ticks": 146880,
            "time": 241.57873800000002,
            "value": 0.15748031496062992
          },
          {
            "number": 91,
            "ticks": 147840,
            "time": 243.15768400000002,
            "value": 0.15748031496062992
          },
          {
            "number": 91,
            "ticks": 153600,
            "time": 252.63136000000003,
            "value": 0.15748031496062992
          },
          {
            "number": 91,
            "ticks": 154560,
            "time": 254.21030600000003,
            "value": 0.15748031496062992
          }
        ],
        "93": [
          {
            "number": 93,
            "ticks": 7680,
            "time": 12.631568000000001,
            "value": 0.07874015748031496
          },
          {
            "number": 93,
            "ticks": 14400,
            "time": 23.68419,
            "value": 0.07874015748031496
          },
          {
            "number": 93,
            "ticks": 15360,
            "time": 25.263136000000003,
            "value": 0.07874015748031496
          },
          {
            "number": 93,
            "ticks": 23040,
            "time": 37.894704000000004,
            "value": 0.07874015748031496
          },
          {
            "number": 93,
            "ticks": 29760,
            "time": 48.947326000000004,
            "value": 0.07874015748031496
          },
          {
            "number": 93,
            "ticks": 30720,
            "time": 50.526272000000006,
            "value": 0.07874015748031496
          },
          {
            "number": 93,
            "ticks": 38400,
            "time": 63.15784000000001,
            "value": 0.07874015748031496
          },
          {
            "number": 93,
            "ticks": 45120,
            "time": 74.210462,
            "value": 0.07874015748031496
          },
          {
            "number": 93,
            "ticks": 46080,
            "time": 75.78940800000001,
            "value": 0.07874015748031496
          },
          {
            "number": 93,
            "ticks": 53760,
            "time": 88.42097600000001,
            "value": 0.07874015748031496
          },
          {
            "number": 93,
            "ticks": 60480,
            "time": 99.47359800000001,
            "value": 0.07874015748031496
          },
          {
            "number": 93,
            "ticks": 61440,
            "time": 101.05254400000001,
            "value": 0.07874015748031496
          },
          {
            "number": 93,
            "ticks": 68160,
            "time": 112.10516600000001,
            "value": 0.07874015748031496
          },
          {
            "number": 93,
            "ticks": 69120,
            "time": 113.68411200000001,
            "value": 0.07874015748031496
          },
          {
            "number": 93,
            "ticks": 75840,
            "time": 124.73673400000001,
            "value": 0.07874015748031496
          },
          {
            "number": 93,
            "ticks": 76800,
            "time": 126.31568000000001,
            "value": 0.07874015748031496
          },
          {
            "number": 93,
            "ticks": 84480,
            "time": 138.947248,
            "value": 0.07874015748031496
          },
          {
            "number": 93,
            "ticks": 91200,
            "time": 149.99987000000002,
            "value": 0.07874015748031496
          },
          {
            "number": 93,
            "ticks": 92160,
            "time": 151.57881600000002,
            "value": 0.07874015748031496
          },
          {
            "number": 93,
            "ticks": 99840,
            "time": 164.21038400000003,
            "value": 0.07874015748031496
          },
          {
            "number": 93,
            "ticks": 106560,
            "time": 175.26300600000002,
            "value": 0.07874015748031496
          },
          {
            "number": 93,
            "ticks": 107520,
            "time": 176.84195200000002,
            "value": 0.07874015748031496
          },
          {
            "number": 93,
            "ticks": 117120,
            "time": 192.631412,
            "value": 0.07874015748031496
          },
          {
            "number": 93,
            "ticks": 123840,
            "time": 203.68403400000003,
            "value": 0.07874015748031496
          },
          {
            "number": 93,
            "ticks": 124800,
            "time": 205.26298000000003,
            "value": 0.07874015748031496
          },
          {
            "number": 93,
            "ticks": 131520,
            "time": 216.315602,
            "value": 0.07874015748031496
          },
          {
            "number": 93,
            "ticks": 132480,
            "time": 217.89454800000001,
            "value": 0.07874015748031496
          },
          {
            "number": 93,
            "ticks": 140160,
            "time": 230.52611600000003,
            "value": 0.07874015748031496
          },
          {
            "number": 93,
            "ticks": 146880,
            "time": 241.57873800000002,
            "value": 0.07874015748031496
          },
          {
            "number": 93,
            "ticks": 147840,
            "time": 243.15768400000002,
            "value": 0.07874015748031496
          },
          {
            "number": 93,
            "ticks": 153600,
            "time": 252.63136000000003,
            "value": 0.07874015748031496
          },
          {
            "number": 93,
            "ticks": 154560,
            "time": 254.21030600000003,
            "value": 0.07874015748031496
          }
        ]
      },
      "pitchBends": [],
      "instrument": {
        "family": "piano",
        "name": "acoustic grand piano",
        "number": 0
      },
      "name": "",
      "notes": [
        {
          "duration": 0.5921047500000007,
          "durationTicks": 360,
          "midi": 69,
          "name": "A4",
          "ticks": 7680,
          "time": 12.631568000000001,
          "velocity": 0.5039370078740157
        },
        {
          "duration": 0.5921047500000007,
          "durationTicks": 360,
          "midi": 65,
          "name": "F4",
          "ticks": 7680,
          "time": 12.631568000000001,
          "velocity": 0.5039370078740157
        },
        {
          "duration": 0.5921047500000007,
          "durationTicks": 360,
          "midi": 72,
          "name": "C5",
          "ticks": 7680,
          "time": 12.631568000000001,
          "velocity": 0.5039370078740157
        },
        {
          "duration": 0.7894729999999992,
          "durationTicks": 480,
          "midi": 72,
          "name": "C5",
          "ticks": 8160,
          "time": 13.421041000000002,
          "velocity": 0.5039370078740157
        },
        {
          "duration": 0.7894729999999992,
          "durationTicks": 480,
          "midi": 65,
          "name": "F4",
          "ticks": 8160,
          "time": 13.421041000000002,
          "velocity": 0.5039370078740157
        },
        {
          "duration": 0.7894729999999992,
          "durationTicks": 480,
          "midi": 69,
          "name": "A4",
          "ticks": 8160,
          "time": 13.421041000000002,
          "velocity": 0.5039370078740157
        },
        {
          "duration": 0,
          "durationTicks": 0,
          "midi": 67,
          "name": "G4",
          "ticks": 8640,
          "time": 14.210514000000002,
          "velocity": 0.5039370078740157
        },
        {
          "duration": 0,
          "durationTicks": 0,
          "midi": 71,
          "name": "B4",
          "ticks": 8640,
          "time": 14.210514000000002,
          "velocity": 0.5039370078740157
        },
        {
          "duration": 0,
          "durationTicks": 0,
          "midi": 74,
          "name": "D5",
          "ticks": 8640,
          "time": 14.210514000000002,
          "velocity": 0.5039370078740157
        },
        {
          "duration": 0.5921047500000007,
          "durationTicks": 360,
          "midi": 71,
          "name": "B4",
          "ticks": 8640,
          "time": 14.210514000000002,
          "velocity": 0.5039370078740157
        },
        {
          "duration": 0.7894729999999992,
          "durationTicks": 480,
          "midi": 67,
          "name": "G4",
          "ticks": 8640,
          "time": 14.210514000000002,
          "velocity": 0.5039370078740157
        },
        {
          "duration": 0.7894729999999992,
          "durationTicks": 480,
          "midi": 74,
          "name": "D5",
          "ticks": 8640,
          "time": 14.210514000000002,
          "velocity": 0.5039370078740157
        },
        {
          "duration": 0.3947365000000005,
          "durationTicks": 240,
          "midi": 67,
          "name": "G4",
          "ticks": 9120,
          "time": 14.999987,
          "velocity": 0.5039370078740157
        },
        {
          "duration": 0.3947365000000005,
          "durationTicks": 240,
          "midi": 71,
          "name": "B4",
          "ticks": 9120,
          "time": 14.999987,
          "velocity": 0.5039370078740157
        },
        {
          "duration": 0.3947365000000005,
          "durationTicks": 240,
          "midi": 74,
          "name": "D5",
          "ticks": 9120,
          "time": 14.999987,
          "velocity": 0.5039370078740157
        },
        {
          "duration": 0.37499967500000153,
          "durationTicks": 228,
          "midi": 62,
          "name": "D4",
          "ticks": 9360,
          "time": 15.394723500000001,
          "velocity": 0.5039370078740157
        },
        {
          "duration": 0.789473000000001,
          "durationTicks": 480,
          "midi": 64,
          "name": "E4",
          "ticks": 9600,
          "time": 15.789460000000002,
          "velocity": 0.5039370078740157
        },
        {
          "duration": 0.789473000000001,
          "durationTicks": 480,
          "midi": 67,
          "name": "G4",
          "ticks": 9600,
          "time": 15.789460000000002,
          "velocity": 0.5039370078740157
        },
        {
          "duration": 0.789473000000001,
          "durationTicks": 480,
          "midi": 60,
          "name": "C4",
          "ticks": 9600,
          "time": 15.789460000000002,
          "velocity": 0.5039370078740157
        },
        {
          "duration": 0,
          "durationTicks": 0,
          "midi": 67,
          "name": "G4",
          "ticks": 10080,
          "time": 16.578933000000003,
          "velocity": 0.5039370078740157
        },
        {
          "duration": 0,
          "durationTicks": 0,
          "midi": 71,
          "name": "B4",
          "ticks": 10080,
          "time": 16.578933000000003,
          "velocity": 0.5039370078740157
        },
        {
          "duration": 0,
          "durationTicks": 0,
          "midi": 74,
          "name": "D5",
          "ticks": 10080,
          "time": 16.578933000000003,
          "velocity": 0.5039370078740157
        },
        {
          "duration": 0.5921047500000007,
          "durationTicks": 360,
          "midi": 67,
          "name": "G4",
          "ticks": 10080,
          "time": 16.578933000000003,
          "velocity": 0.5039370078740157
        },
        {
          "duration": 0.5921047500000007,
          "durationTicks": 360,
          "midi": 74,
          "name": "D5",
          "ticks": 10080,
          "time": 16.578933000000003,
          "velocity": 0.5039370078740157
        },
        {
          "duration": 0.5921047500000007,
          "durationTicks": 360,
          "midi": 71,
          "name": "B4",
          "ticks": 10080,
          "time": 16.578933000000003,
          "velocity": 0.5039370078740157
        },
        {
          "duration": 0.789473000000001,
          "durationTicks": 480,
          "midi": 69,
          "name": "A4",
          "ticks": 10560,
          "time": 17.368406,
          "velocity": 0.5039370078740157
        },
        {
          "duration": 0.5921047500000007,
          "durationTicks": 360,
          "midi": 72,
          "name": "C5",
          "ticks": 10560,
          "time": 17.368406,
          "velocity": 0.5039370078740157
        },
        {
          "duration": 0.3947365000000005,
          "durationTicks": 240,
          "midi": 76,
          "name": "E5",
          "ticks": 10560,
          "time": 17.368406,
          "velocity": 0.5039370078740157
        },
        {
          "duration": 0.19736825000000024,
          "durationTicks": 120,
          "midi": 64,
          "name": "E4",
          "ticks": 10920,
          "time": 17.96051075,
          "velocity": 0.5118110236220472
        },
        {
          "duration": 0.19736825000000024,
          "durationTicks": 120,
          "midi": 76,
          "name": "E5",
          "ticks": 11040,
          "time": 18.157879,
          "velocity": 0.5118110236220472
        },
        {
          "duration": 0.19736825000000024,
          "durationTicks": 120,
          "midi": 72,
          "name": "C5",
          "ticks": 11160,
          "time": 18.35524725,
          "velocity": 0.5118110236220472
        },
        {
          "duration": 0.37499967500000153,
          "durationTicks": 228,
          "midi": 69,
          "name": "A4",
          "ticks": 11280,
          "time": 18.5526155,
          "velocity": 0.5118110236220472
        },
        {
          "duration": 0.789473000000001,
          "durationTicks": 480,
          "midi": 69,
          "name": "A4",
          "ticks": 11520,
          "time": 18.947352000000002,
          "velocity": 0.5118110236220472
        },
        {
          "duration": 0.789473000000001,
          "durationTicks": 480,
          "midi": 72,
          "name": "C5",
          "ticks": 11520,
          "time": 18.947352000000002,
          "velocity": 0.5118110236220472
        },
        {
          "duration": 0.789473000000001,
          "durationTicks": 480,
          "midi": 65,
          "name": "F4",
          "ticks": 12000,
          "time": 19.736825000000003,
          "velocity": 0.5118110236220472
        },
        {
          "duration": 0.789473000000001,
          "durationTicks": 480,
          "midi": 69,
          "name": "A4",
          "ticks": 12000,
          "time": 19.736825000000003,
          "velocity": 0.5118110236220472
        },
        {
          "duration": 0.789473000000001,
          "durationTicks": 480,
          "midi": 72,
          "name": "C5",
          "ticks": 12000,
          "time": 19.736825000000003,
          "velocity": 0.5118110236220472
        },
        {
          "duration": 0,
          "durationTicks": 0,
          "midi": 67,
          "name": "G4",
          "ticks": 12480,
          "time": 20.526298000000004,
          "velocity": 0.5118110236220472
        },
        {
          "duration": 0,
          "durationTicks": 0,
          "midi": 71,
          "name": "B4",
          "ticks": 12480,
          "time": 20.526298000000004,
          "velocity": 0.5118110236220472
        },
        {
          "duration": 0,
          "durationTicks": 0,
          "midi": 74,
          "name": "D5",
          "ticks": 12480,
          "time": 20.526298000000004,
          "velocity": 0.5118110236220472
        },
        {
          "duration": 0.5921047499999972,
          "durationTicks": 360,
          "midi": 71,
          "name": "B4",
          "ticks": 12480,
          "time": 20.526298000000004,
          "velocity": 0.5118110236220472
        },
        {
          "duration": 0.5921047499999972,
          "durationTicks": 360,
          "midi": 74,
          "name": "D5",
          "ticks": 12480,
          "time": 20.526298000000004,
          "velocity": 0.5118110236220472
        },
        {
          "duration": 0.5921047499999972,
          "durationTicks": 360,
          "midi": 67,
          "name": "G4",
          "ticks": 12480,
          "time": 20.526298000000004,
          "velocity": 0.5118110236220472
        },
        {
          "duration": 0.3947365000000005,
          "durationTicks": 240,
          "midi": 67,
          "name": "G4",
          "ticks": 12960,
          "time": 21.315771,
          "velocity": 0.5118110236220472
        },
        {
          "duration": 0.3947365000000005,
          "durationTicks": 240,
          "midi": 71,
          "name": "B4",
          "ticks": 12960,
          "time": 21.315771,
          "velocity": 0.5118110236220472
        },
        {
          "duration": 0.3947365000000005,
          "durationTicks": 240,
          "midi": 74,
          "name": "D5",
          "ticks": 12960,
          "time": 21.315771,
          "velocity": 0.5118110236220472
        },
        {
          "duration": 0.37499967500000153,
          "durationTicks": 228,
          "midi": 62,
          "name": "D4",
          "ticks": 13200,
          "time": 21.710507500000002,
          "velocity": 0.5118110236220472
        },
        {
          "duration": 0.789473000000001,
          "durationTicks": 480,
          "midi": 69,
          "name": "A4",
          "ticks": 13440,
          "time": 22.105244000000003,
          "velocity": 0.5118110236220472
        },
        {
          "duration": 0.5921047500000007,
          "durationTicks": 360,
          "midi": 76,
          "name": "E5",
          "ticks": 13440,
          "time": 22.105244000000003,
          "velocity": 0.5118110236220472
        },
        {
          "duration": 0.789473000000001,
          "durationTicks": 480,
          "midi": 72,
          "name": "C5",
          "ticks": 13440,
          "time": 22.105244000000003,
          "velocity": 0.5118110236220472
        },
        {
          "duration": 0.5921047500000007,
          "durationTicks": 360,
          "midi": 69,
          "name": "A4",
          "ticks": 13920,
          "time": 22.894717000000004,
          "velocity": 0.5118110236220472
        },
        {
          "duration": 0.5921047500000007,
          "durationTicks": 360,
          "midi": 76,
          "name": "E5",
          "ticks": 13920,
          "time": 22.894717000000004,
          "velocity": 0.5118110236220472
        },
        {
          "duration": 0.5921047500000007,
          "durationTicks": 360,
          "midi": 72,
          "name": "C5",
          "ticks": 13920,
          "time": 22.894717000000004,
          "velocity": 0.5118110236220472
        },
        {
          "duration": 1.1842095000000015,
          "durationTicks": 720,
          "midi": 72,
          "name": "C5",
          "ticks": 14400,
          "time": 23.68419,
          "velocity": 0.4881889763779528
        },
        {
          "duration": 0.9868412500000012,
          "durationTicks": 600,
          "midi": 64,
          "name": "E4",
          "ticks": 14400,
          "time": 23.68419,
          "velocity": 0.4881889763779528
        },
        {
          "duration": 1.1842095000000015,
          "durationTicks": 720,
          "midi": 69,
          "name": "A4",
          "ticks": 14400,
          "time": 23.68419,
          "velocity": 0.4881889763779528
        },
        {
          "duration": 0.9868412500000012,
          "durationTicks": 600,
          "midi": 64,
          "name": "E4",
          "ticks": 15360,
          "time": 25.263136000000003,
          "velocity": 0.4251968503937008
        },
        {
          "duration": 0.9868412500000012,
          "durationTicks": 600,
          "midi": 72,
          "name": "C5",
          "ticks": 15360,
          "time": 25.263136000000003,
          "velocity": 0.4251968503937008
        },
        {
          "duration": 0.9868412500000012,
          "durationTicks": 600,
          "midi": 69,
          "name": "A4",
          "ticks": 15360,
          "time": 25.263136000000003,
          "velocity": 0.4251968503937008
        },
        {
          "duration": 0.3947365000000005,
          "durationTicks": 240,
          "midi": 64,
          "name": "E4",
          "ticks": 16080,
          "time": 26.447345500000004,
          "velocity": 0.4251968503937008
        },
        {
          "duration": 0.3947365000000005,
          "durationTicks": 240,
          "midi": 69,
          "name": "A4",
          "ticks": 16080,
          "time": 26.447345500000004,
          "velocity": 0.4251968503937008
        },
        {
          "duration": 0.3947365000000005,
          "durationTicks": 240,
          "midi": 72,
          "name": "C5",
          "ticks": 16080,
          "time": 26.447345500000004,
          "velocity": 0.4251968503937008
        },
        {
          "duration": 1.184209499999998,
          "durationTicks": 720,
          "midi": 59,
          "name": "B3",
          "ticks": 16320,
          "time": 26.842082000000005,
          "velocity": 0.4251968503937008
        },
        {
          "duration": 1.184209499999998,
          "durationTicks": 720,
          "midi": 64,
          "name": "E4",
          "ticks": 16320,
          "time": 26.842082000000005,
          "velocity": 0.4251968503937008
        },
        {
          "duration": 1.184209499999998,
          "durationTicks": 720,
          "midi": 67,
          "name": "G4",
          "ticks": 16320,
          "time": 26.842082000000005,
          "velocity": 0.4251968503937008
        },
        {
          "duration": 0.9868412500000012,
          "durationTicks": 600,
          "midi": 69,
          "name": "A4",
          "ticks": 17280,
          "time": 28.421028000000003,
          "velocity": 0.4251968503937008
        },
        {
          "duration": 0.9868412500000012,
          "durationTicks": 600,
          "midi": 64,
          "name": "E4",
          "ticks": 17280,
          "time": 28.421028000000003,
          "velocity": 0.4251968503937008
        },
        {
          "duration": 0.39473649999999694,
          "durationTicks": 240,
          "midi": 69,
          "name": "A4",
          "ticks": 18000,
          "time": 29.605237500000005,
          "velocity": 0.4251968503937008
        },
        {
          "duration": 0.39473649999999694,
          "durationTicks": 240,
          "midi": 64,
          "name": "E4",
          "ticks": 18000,
          "time": 29.605237500000005,
          "velocity": 0.4251968503937008
        },
        {
          "duration": 0.39473649999999694,
          "durationTicks": 240,
          "midi": 72,
          "name": "C5",
          "ticks": 18000,
          "time": 29.605237500000005,
          "velocity": 0.4251968503937008
        },
        {
          "duration": 0.19736825000000024,
          "durationTicks": 120,
          "midi": 59,
          "name": "B3",
          "ticks": 18240,
          "time": 29.999974,
          "velocity": 0.4251968503937008
        },
        {
          "duration": 0.3947365000000005,
          "durationTicks": 240,
          "midi": 64,
          "name": "E4",
          "ticks": 18240,
          "time": 29.999974,
          "velocity": 0.4251968503937008
        },
        {
          "duration": 0.3947365000000005,
          "durationTicks": 240,
          "midi": 67,
          "name": "G4",
          "ticks": 18240,
          "time": 29.999974,
          "velocity": 0.4251968503937008
        },
        {
          "duration": 0.37499967500000153,
          "durationTicks": 228,
          "midi": 59,
          "name": "B3",
          "ticks": 18480,
          "time": 30.394710500000002,
          "velocity": 0.4251968503937008
        },
        {
          "duration": 0.19736825000000024,
          "durationTicks": 120,
          "midi": 67,
          "name": "G4",
          "ticks": 18720,
          "time": 30.789447000000003,
          "velocity": 0.4251968503937008
        },
        {
          "duration": 0.19736825000000024,
          "durationTicks": 120,
          "midi": 64,
          "name": "E4",
          "ticks": 18840,
          "time": 30.986815250000003,
          "velocity": 0.4251968503937008
        },
        {
          "duration": 0.19736825000000024,
          "durationTicks": 120,
          "midi": 59,
          "name": "B3",
          "ticks": 18960,
          "time": 31.184183500000003,
          "velocity": 0.4251968503937008
        },
        {
          "duration": 0.9868412499999977,
          "durationTicks": 600,
          "midi": 60,
          "name": "C4",
          "ticks": 19200,
          "time": 31.578920000000004,
          "velocity": 0.4251968503937008
        },
        {
          "duration": 0.9868412499999977,
          "durationTicks": 600,
          "midi": 64,
          "name": "E4",
          "ticks": 19200,
          "time": 31.578920000000004,
          "velocity": 0.4251968503937008
        },
        {
          "duration": 0.9868412499999977,
          "durationTicks": 600,
          "midi": 69,
          "name": "A4",
          "ticks": 19200,
          "time": 31.578920000000004,
          "velocity": 0.4251968503937008
        },
        {
          "duration": 0.3947365000000005,
          "durationTicks": 240,
          "midi": 64,
          "name": "E4",
          "ticks": 19920,
          "time": 32.763129500000005,
          "velocity": 0.4330708661417323
        },
        {
          "duration": 0.3947365000000005,
          "durationTicks": 240,
          "midi": 69,
          "name": "A4",
          "ticks": 19920,
          "time": 32.763129500000005,
          "velocity": 0.4330708661417323
        },
        {
          "duration": 0.3947365000000005,
          "durationTicks": 240,
          "midi": 60,
          "name": "C4",
          "ticks": 19920,
          "time": 32.763129500000005,
          "velocity": 0.4330708661417323
        },
        {
          "duration": 1.1842095000000015,
          "durationTicks": 720,
          "midi": 62,
          "name": "D4",
          "ticks": 20160,
          "time": 33.157866000000006,
          "velocity": 0.4330708661417323
        },
        {
          "duration": 1.1842095000000015,
          "durationTicks": 720,
          "midi": 67,
          "name": "G4",
          "ticks": 20160,
          "time": 33.157866000000006,
          "velocity": 0.4330708661417323
        },
        {
          "duration": 1.1842095000000015,
          "durationTicks": 720,
          "midi": 71,
          "name": "B4",
          "ticks": 20160,
          "time": 33.157866000000006,
          "velocity": 0.4330708661417323
        },
        {
          "duration": 0.789473000000001,
          "durationTicks": 480,
          "midi": 64,
          "name": "E4",
          "ticks": 21120,
          "time": 34.736812,
          "velocity": 0.4330708661417323
        },
        {
          "duration": 0.789473000000001,
          "durationTicks": 480,
          "midi": 72,
          "name": "C5",
          "ticks": 21120,
          "time": 34.736812,
          "velocity": 0.4330708661417323
        },
        {
          "duration": 0.789473000000001,
          "durationTicks": 480,
          "midi": 69,
          "name": "A4",
          "ticks": 21120,
          "time": 34.736812,
          "velocity": 0.4330708661417323
        },
        {
          "duration": 0.5921047500000043,
          "durationTicks": 360,
          "midi": 72,
          "name": "C5",
          "ticks": 21840,
          "time": 35.9210215,
          "velocity": 0.4330708661417323
        },
        {
          "duration": 0.789473000000001,
          "durationTicks": 480,
          "midi": 69,
          "name": "A4",
          "ticks": 21840,
          "time": 35.9210215,
          "velocity": 0.4330708661417323
        },
        {
          "duration": 0.5921047500000043,
          "durationTicks": 360,
          "midi": 64,
          "name": "E4",
          "ticks": 21840,
          "time": 35.9210215,
          "velocity": 0.4330708661417323
        },
        {
          "duration": 0.3947365000000005,
          "durationTicks": 240,
          "midi": 64,
          "name": "E4",
          "ticks": 22320,
          "time": 36.7104945,
          "velocity": 0.4330708661417323
        },
        {
          "duration": 0.1973682500000038,
          "durationTicks": 120,
          "midi": 72,
          "name": "C5",
          "ticks": 22560,
          "time": 37.105231,
          "velocity": 0.4330708661417323
        },
        {
          "duration": 0.1973682499999967,
          "durationTicks": 120,
          "midi": 69,
          "name": "A4",
          "ticks": 22680,
          "time": 37.30259925000001,
          "velocity": 0.4330708661417323
        },
        {
          "duration": 0.1973682500000038,
          "durationTicks": 120,
          "midi": 64,
          "name": "E4",
          "ticks": 22800,
          "time": 37.499967500000004,
          "velocity": 0.4330708661417323
        },
        {
          "duration": 0.9868412499999977,
          "durationTicks": 600,
          "midi": 64,
          "name": "E4",
          "ticks": 23040,
          "time": 37.894704000000004,
          "velocity": 0.4251968503937008
        },
        {
          "duration": 0.9868412499999977,
          "durationTicks": 600,
          "midi": 72,
          "name": "C5",
          "ticks": 23040,
          "time": 37.894704000000004,
          "velocity": 0.4251968503937008
        },
        {
          "duration": 0.9868412499999977,
          "durationTicks": 600,
          "midi": 69,
          "name": "A4",
          "ticks": 23040,
          "time": 37.894704000000004,
          "velocity": 0.4251968503937008
        },
        {
          "duration": 0.3947365000000005,
          "durationTicks": 240,
          "midi": 64,
          "name": "E4",
          "ticks": 23760,
          "time": 39.078913500000006,
          "velocity": 0.4251968503937008
        },
        {
          "duration": 0.3947365000000005,
          "durationTicks": 240,
          "midi": 69,
          "name": "A4",
          "ticks": 23760,
          "time": 39.078913500000006,
          "velocity": 0.4251968503937008
        },
        {
          "duration": 0.3947365000000005,
          "durationTicks": 240,
          "midi": 72,
          "name": "C5",
          "ticks": 23760,
          "time": 39.078913500000006,
          "velocity": 0.4251968503937008
        },
        {
          "duration": 1.1842095000000015,
          "durationTicks": 720,
          "midi": 59,
          "name": "B3",
          "ticks": 24000,
          "time": 39.473650000000006,
          "velocity": 0.4251968503937008
        },
        {
          "duration": 1.1842095000000015,
          "durationTicks": 720,
          "midi": 64,
          "name": "E4",
          "ticks": 24000,
          "time": 39.473650000000006,
          "velocity": 0.4251968503937008
        },
        {
          "duration": 1.1842095000000015,
          "durationTicks": 720,
          "midi": 67,
          "name": "G4",
          "ticks": 24000,
          "time": 39.473650000000006,
          "velocity": 0.4251968503937008
        },
        {
          "duration": 0.9868412499999977,
          "durationTicks": 600,
          "midi": 69,
          "name": "A4",
          "ticks": 24960,
          "time": 41.05259600000001,
          "velocity": 0.4251968503937008
        },
        {
          "duration": 0.9868412499999977,
          "durationTicks": 600,
          "midi": 64,
          "name": "E4",
          "ticks": 24960,
          "time": 41.05259600000001,
          "velocity": 0.4251968503937008
        },
        {
          "duration": 0.3947365000000005,
          "durationTicks": 240,
          "midi": 69,
          "name": "A4",
          "ticks": 25680,
          "time": 42.2368055,
          "velocity": 0.4251968503937008
        },
        {
          "duration": 0.3947365000000005,
          "durationTicks": 240,
          "midi": 64,
          "name": "E4",
          "ticks": 25680,
          "time": 42.2368055,
          "velocity": 0.4251968503937008
        },
        {
          "duration": 0.3947365000000005,
          "durationTicks": 240,
          "midi": 72,
          "name": "C5",
          "ticks": 25680,
          "time": 42.2368055,
          "velocity": 0.4251968503937008
        },
        {
          "duration": 0.1973682500000038,
          "durationTicks": 120,
          "midi": 59,
          "name": "B3",
          "ticks": 25920,
          "time": 42.631542,
          "velocity": 0.4251968503937008
        },
        {
          "duration": 0.3947365000000005,
          "durationTicks": 240,
          "midi": 64,
          "name": "E4",
          "ticks": 25920,
          "time": 42.631542,
          "velocity": 0.4251968503937008
        },
        {
          "duration": 0.3947365000000005,
          "durationTicks": 240,
          "midi": 67,
          "name": "G4",
          "ticks": 25920,
          "time": 42.631542,
          "velocity": 0.4251968503937008
        },
        {
          "duration": 0.3749996750000051,
          "durationTicks": 228,
          "midi": 59,
          "name": "B3",
          "ticks": 26160,
          "time": 43.026278500000004,
          "velocity": 0.4251968503937008
        },
        {
          "duration": 0.1973682500000038,
          "durationTicks": 120,
          "midi": 67,
          "name": "G4",
          "ticks": 26400,
          "time": 43.421015000000004,
          "velocity": 0.4251968503937008
        },
        {
          "duration": 0.1973682499999967,
          "durationTicks": 120,
          "midi": 64,
          "name": "E4",
          "ticks": 26520,
          "time": 43.61838325000001,
          "velocity": 0.4251968503937008
        },
        {
          "duration": 0.1973682500000038,
          "durationTicks": 120,
          "midi": 59,
          "name": "B3",
          "ticks": 26640,
          "time": 43.815751500000005,
          "velocity": 0.4251968503937008
        },
        {
          "duration": 0.9868412499999977,
          "durationTicks": 600,
          "midi": 60,
          "name": "C4",
          "ticks": 26880,
          "time": 44.210488000000005,
          "velocity": 0.4251968503937008
        },
        {
          "duration": 0.9868412499999977,
          "durationTicks": 600,
          "midi": 64,
          "name": "E4",
          "ticks": 26880,
          "time": 44.210488000000005,
          "velocity": 0.4251968503937008
        },
        {
          "duration": 0.9868412499999977,
          "durationTicks": 600,
          "midi": 69,
          "name": "A4",
          "ticks": 26880,
          "time": 44.210488000000005,
          "velocity": 0.4251968503937008
        },
        {
          "duration": 0.3947365000000005,
          "durationTicks": 240,
          "midi": 64,
          "name": "E4",
          "ticks": 27600,
          "time": 45.39469750000001,
          "velocity": 0.4330708661417323
        },
        {
          "duration": 0.3947365000000005,
          "durationTicks": 240,
          "midi": 69,
          "name": "A4",
          "ticks": 27600,
          "time": 45.39469750000001,
          "velocity": 0.4330708661417323
        },
        {
          "duration": 0.3947365000000005,
          "durationTicks": 240,
          "midi": 60,
          "name": "C4",
          "ticks": 27600,
          "time": 45.39469750000001,
          "velocity": 0.4330708661417323
        },
        {
          "duration": 1.1842095000000015,
          "durationTicks": 720,
          "midi": 59,
          "name": "B3",
          "ticks": 27840,
          "time": 45.78943400000001,
          "velocity": 0.4330708661417323
        },
        {
          "duration": 1.1842095000000015,
          "durationTicks": 720,
          "midi": 64,
          "name": "E4",
          "ticks": 27840,
          "time": 45.78943400000001,
          "velocity": 0.4330708661417323
        },
        {
          "duration": 1.1842095000000015,
          "durationTicks": 720,
          "midi": 67,
          "name": "G4",
          "ticks": 27840,
          "time": 45.78943400000001,
          "velocity": 0.4330708661417323
        },
        {
          "duration": 0.789473000000001,
          "durationTicks": 480,
          "midi": 64,
          "name": "E4",
          "ticks": 28800,
          "time": 47.36838,
          "velocity": 0.4330708661417323
        },
        {
          "duration": 0.789473000000001,
          "durationTicks": 480,
          "midi": 72,
          "name": "C5",
          "ticks": 28800,
          "time": 47.36838,
          "velocity": 0.4330708661417323
        },
        {
          "duration": 0.789473000000001,
          "durationTicks": 480,
          "midi": 69,
          "name": "A4",
          "ticks": 28800,
          "time": 47.36838,
          "velocity": 0.4330708661417323
        },
        {
          "duration": 0.388157558333333,
          "durationTicks": 236,
          "midi": 72,
          "name": "C5",
          "ticks": 29520,
          "time": 48.5525895,
          "velocity": 0.4330708661417323
        },
        {
          "duration": 0.388157558333333,
          "durationTicks": 236,
          "midi": 69,
          "name": "A4",
          "ticks": 29520,
          "time": 48.5525895,
          "velocity": 0.4330708661417323
        },
        {
          "duration": 0.388157558333333,
          "durationTicks": 236,
          "midi": 64,
          "name": "E4",
          "ticks": 29520,
          "time": 48.5525895,
          "velocity": 0.4330708661417323
        },
        {
          "duration": 1.578946000000002,
          "durationTicks": 960,
          "midi": 77,
          "name": "F5",
          "ticks": 30720,
          "time": 50.526272000000006,
          "velocity": 0.49606299212598426
        },
        {
          "duration": 1.578946000000002,
          "durationTicks": 960,
          "midi": 72,
          "name": "C5",
          "ticks": 30720,
          "time": 50.526272000000006,
          "velocity": 0.49606299212598426
        },
        {
          "duration": 1.3815777500000053,
          "durationTicks": 840,
          "midi": 81,
          "name": "A5",
          "ticks": 30840,
          "time": 50.72364025,
          "velocity": 0.49606299212598426
        },
        {
          "duration": 0.5921047499999972,
          "durationTicks": 360,
          "midi": 74,
          "name": "D5",
          "ticks": 31680,
          "time": 52.10521800000001,
          "velocity": 0.49606299212598426
        },
        {
          "duration": 0.5921047499999972,
          "durationTicks": 360,
          "midi": 79,
          "name": "G5",
          "ticks": 31680,
          "time": 52.10521800000001,
          "velocity": 0.49606299212598426
        },
        {
          "duration": 0.5921047499999972,
          "durationTicks": 360,
          "midi": 83,
          "name": "B5",
          "ticks": 31680,
          "time": 52.10521800000001,
          "velocity": 0.49606299212598426
        },
        {
          "duration": 0.5921047499999972,
          "durationTicks": 360,
          "midi": 74,
          "name": "D5",
          "ticks": 32160,
          "time": 52.89469100000001,
          "velocity": 0.5511811023622047
        },
        {
          "duration": 0.5921047499999972,
          "durationTicks": 360,
          "midi": 86,
          "name": "D6",
          "ticks": 32160,
          "time": 52.89469100000001,
          "velocity": 0.5511811023622047
        },
        {
          "duration": 0.5921047499999972,
          "durationTicks": 360,
          "midi": 79,
          "name": "G5",
          "ticks": 32160,
          "time": 52.89469100000001,
          "velocity": 0.5511811023622047
        },
        {
          "duration": 1.5789459999999949,
          "durationTicks": 960,
          "midi": 76,
          "name": "E5",
          "ticks": 32640,
          "time": 53.68416400000001,
          "velocity": 0.5511811023622047
        },
        {
          "duration": 1.5789459999999949,
          "durationTicks": 960,
          "midi": 71,
          "name": "B4",
          "ticks": 32640,
          "time": 53.68416400000001,
          "velocity": 0.5511811023622047
        },
        {
          "duration": 1.5789459999999949,
          "durationTicks": 960,
          "midi": 79,
          "name": "G5",
          "ticks": 32640,
          "time": 53.68416400000001,
          "velocity": 0.5511811023622047
        },
        {
          "duration": 0.789473000000001,
          "durationTicks": 480,
          "midi": 76,
          "name": "E5",
          "ticks": 33600,
          "time": 55.263110000000005,
          "velocity": 0.5511811023622047
        },
        {
          "duration": 0.5921047500000043,
          "durationTicks": 360,
          "midi": 81,
          "name": "A5",
          "ticks": 33600,
          "time": 55.263110000000005,
          "velocity": 0.5511811023622047
        },
        {
          "duration": 0.5921047500000043,
          "durationTicks": 360,
          "midi": 84,
          "name": "C6",
          "ticks": 33600,
          "time": 55.263110000000005,
          "velocity": 0.5511811023622047
        },
        {
          "duration": 0.5921047500000043,
          "durationTicks": 360,
          "midi": 81,
          "name": "A5",
          "ticks": 34080,
          "time": 56.052583000000006,
          "velocity": 0.5433070866141733
        },
        {
          "duration": 0.5921047500000043,
          "durationTicks": 360,
          "midi": 76,
          "name": "E5",
          "ticks": 34080,
          "time": 56.052583000000006,
          "velocity": 0.5433070866141733
        },
        {
          "duration": 0.1973682499999967,
          "durationTicks": 120,
          "midi": 76,
          "name": "E5",
          "ticks": 34440,
          "time": 56.64468775000001,
          "velocity": 0.5433070866141733
        },
        {
          "duration": 1.578946000000002,
          "durationTicks": 960,
          "midi": 72,
          "name": "C5",
          "ticks": 34560,
          "time": 56.84205600000001,
          "velocity": 0.5433070866141733
        },
        {
          "duration": 1.578946000000002,
          "durationTicks": 960,
          "midi": 77,
          "name": "F5",
          "ticks": 34560,
          "time": 56.84205600000001,
          "velocity": 0.5433070866141733
        },
        {
          "duration": 1.578946000000002,
          "durationTicks": 960,
          "midi": 81,
          "name": "A5",
          "ticks": 34560,
          "time": 56.84205600000001,
          "velocity": 0.5433070866141733
        },
        {
          "duration": 0.4736837999999963,
          "durationTicks": 288,
          "midi": 74,
          "name": "D5",
          "ticks": 35520,
          "time": 58.42100200000001,
          "velocity": 0.5433070866141733
        },
        {
          "duration": 0.789473000000001,
          "durationTicks": 480,
          "midi": 79,
          "name": "G5",
          "ticks": 35520,
          "time": 58.42100200000001,
          "velocity": 0.5433070866141733
        },
        {
          "duration": 0.5921047499999972,
          "durationTicks": 360,
          "midi": 83,
          "name": "B5",
          "ticks": 35520,
          "time": 58.42100200000001,
          "velocity": 0.5433070866141733
        },
        {
          "duration": 0.7894729999999939,
          "durationTicks": 480,
          "midi": 79,
          "name": "G5",
          "ticks": 36000,
          "time": 59.21047500000001,
          "velocity": 0.5354330708661418
        },
        {
          "duration": 0.5921047499999972,
          "durationTicks": 360,
          "midi": 74,
          "name": "D5",
          "ticks": 36000,
          "time": 59.21047500000001,
          "velocity": 0.5354330708661418
        },
        {
          "duration": 0.5921047499999972,
          "durationTicks": 360,
          "midi": 86,
          "name": "D6",
          "ticks": 36000,
          "time": 59.21047500000001,
          "velocity": 0.5354330708661418
        },
        {
          "duration": 0,
          "durationTicks": 0,
          "midi": 81,
          "name": "A5",
          "ticks": 36480,
          "time": 59.999948,
          "velocity": 0.5354330708661418
        },
        {
          "duration": 2.1710507500000062,
          "durationTicks": 1320,
          "midi": 76,
          "name": "E5",
          "ticks": 36480,
          "time": 59.999948,
          "velocity": 0.5354330708661418
        },
        {
          "duration": 2.368419000000003,
          "durationTicks": 1440,
          "midi": 84,
          "name": "C6",
          "ticks": 36480,
          "time": 59.999948,
          "velocity": 0.5354330708661418
        },
        {
          "duration": 2.1710507500000062,
          "durationTicks": 1320,
          "midi": 81,
          "name": "A5",
          "ticks": 36480,
          "time": 59.999948,
          "velocity": 0.5354330708661418
        },
        {
          "duration": 0.5921047500000043,
          "durationTicks": 360,
          "midi": 81,
          "name": "A5",
          "ticks": 37920,
          "time": 62.368367000000006,
          "velocity": 0.5275590551181102
        },
        {
          "duration": 0.5921047500000043,
          "durationTicks": 360,
          "midi": 76,
          "name": "E5",
          "ticks": 37920,
          "time": 62.368367000000006,
          "velocity": 0.5275590551181102
        },
        {
          "duration": 1.578946000000002,
          "durationTicks": 960,
          "midi": 77,
          "name": "F5",
          "ticks": 38400,
          "time": 63.15784000000001,
          "velocity": 0.49606299212598426
        },
        {
          "duration": 1.578946000000002,
          "durationTicks": 960,
          "midi": 72,
          "name": "C5",
          "ticks": 38400,
          "time": 63.15784000000001,
          "velocity": 0.49606299212598426
        },
        {
          "duration": 1.3815777500000053,
          "durationTicks": 840,
          "midi": 81,
          "name": "A5",
          "ticks": 38520,
          "time": 63.355208250000004,
          "velocity": 0.49606299212598426
        },
        {
          "duration": 0.5921047500000043,
          "durationTicks": 360,
          "midi": 74,
          "name": "D5",
          "ticks": 39360,
          "time": 64.73678600000001,
          "velocity": 0.49606299212598426
        },
        {
          "duration": 0.5921047500000043,
          "durationTicks": 360,
          "midi": 79,
          "name": "G5",
          "ticks": 39360,
          "time": 64.73678600000001,
          "velocity": 0.49606299212598426
        },
        {
          "duration": 0.5921047500000043,
          "durationTicks": 360,
          "midi": 83,
          "name": "B5",
          "ticks": 39360,
          "time": 64.73678600000001,
          "velocity": 0.49606299212598426
        },
        {
          "duration": 0.5921047500000043,
          "durationTicks": 360,
          "midi": 74,
          "name": "D5",
          "ticks": 39840,
          "time": 65.52625900000001,
          "velocity": 0.5511811023622047
        },
        {
          "duration": 0.5921047500000043,
          "durationTicks": 360,
          "midi": 86,
          "name": "D6",
          "ticks": 39840,
          "time": 65.52625900000001,
          "velocity": 0.5511811023622047
        },
        {
          "duration": 0.5921047500000043,
          "durationTicks": 360,
          "midi": 79,
          "name": "G5",
          "ticks": 39840,
          "time": 65.52625900000001,
          "velocity": 0.5511811023622047
        },
        {
          "duration": 1.578946000000002,
          "durationTicks": 960,
          "midi": 76,
          "name": "E5",
          "ticks": 40320,
          "time": 66.31573200000001,
          "velocity": 0.5511811023622047
        },
        {
          "duration": 1.578946000000002,
          "durationTicks": 960,
          "midi": 71,
          "name": "B4",
          "ticks": 40320,
          "time": 66.31573200000001,
          "velocity": 0.5511811023622047
        },
        {
          "duration": 1.578946000000002,
          "durationTicks": 960,
          "midi": 79,
          "name": "G5",
          "ticks": 40320,
          "time": 66.31573200000001,
          "velocity": 0.5511811023622047
        },
        {
          "duration": 0.789473000000001,
          "durationTicks": 480,
          "midi": 76,
          "name": "E5",
          "ticks": 41280,
          "time": 67.89467800000001,
          "velocity": 0.5511811023622047
        },
        {
          "duration": 0.5921047499999901,
          "durationTicks": 360,
          "midi": 81,
          "name": "A5",
          "ticks": 41280,
          "time": 67.89467800000001,
          "velocity": 0.5511811023622047
        },
        {
          "duration": 0.5921047499999901,
          "durationTicks": 360,
          "midi": 84,
          "name": "C6",
          "ticks": 41280,
          "time": 67.89467800000001,
          "velocity": 0.5511811023622047
        },
        {
          "duration": 0.5921047499999901,
          "durationTicks": 360,
          "midi": 81,
          "name": "A5",
          "ticks": 41760,
          "time": 68.68415100000001,
          "velocity": 0.5433070866141733
        },
        {
          "duration": 0.5921047499999901,
          "durationTicks": 360,
          "midi": 76,
          "name": "E5",
          "ticks": 41760,
          "time": 68.68415100000001,
          "velocity": 0.5433070866141733
        },
        {
          "duration": 0.1973682499999967,
          "durationTicks": 120,
          "midi": 76,
          "name": "E5",
          "ticks": 42120,
          "time": 69.27625575,
          "velocity": 0.5433070866141733
        },
        {
          "duration": 1.578946000000002,
          "durationTicks": 960,
          "midi": 72,
          "name": "C5",
          "ticks": 42240,
          "time": 69.473624,
          "velocity": 0.5433070866141733
        },
        {
          "duration": 1.578946000000002,
          "durationTicks": 960,
          "midi": 77,
          "name": "F5",
          "ticks": 42240,
          "time": 69.473624,
          "velocity": 0.5433070866141733
        },
        {
          "duration": 1.578946000000002,
          "durationTicks": 960,
          "midi": 81,
          "name": "A5",
          "ticks": 42240,
          "time": 69.473624,
          "velocity": 0.5433070866141733
        },
        {
          "duration": 0.47368380000000343,
          "durationTicks": 288,
          "midi": 74,
          "name": "D5",
          "ticks": 43200,
          "time": 71.05257,
          "velocity": 0.5433070866141733
        },
        {
          "duration": 0.789473000000001,
          "durationTicks": 480,
          "midi": 79,
          "name": "G5",
          "ticks": 43200,
          "time": 71.05257,
          "velocity": 0.5433070866141733
        },
        {
          "duration": 0.5921047500000043,
          "durationTicks": 360,
          "midi": 83,
          "name": "B5",
          "ticks": 43200,
          "time": 71.05257,
          "velocity": 0.5433070866141733
        },
        {
          "duration": 0.789473000000001,
          "durationTicks": 480,
          "midi": 79,
          "name": "G5",
          "ticks": 43680,
          "time": 71.842043,
          "velocity": 0.5354330708661418
        },
        {
          "duration": 0.5921047500000043,
          "durationTicks": 360,
          "midi": 74,
          "name": "D5",
          "ticks": 43680,
          "time": 71.842043,
          "velocity": 0.5354330708661418
        },
        {
          "duration": 0.5921047500000043,
          "durationTicks": 360,
          "midi": 86,
          "name": "D6",
          "ticks": 43680,
          "time": 71.842043,
          "velocity": 0.5354330708661418
        },
        {
          "duration": 0,
          "durationTicks": 0,
          "midi": 76,
          "name": "E5",
          "ticks": 44160,
          "time": 72.631516,
          "velocity": 0.5354330708661418
        },
        {
          "duration": 1.5723670583333273,
          "durationTicks": 956,
          "midi": 71,
          "name": "B4",
          "ticks": 44160,
          "time": 72.631516,
          "velocity": 0.5354330708661418
        },
        {
          "duration": 1.5723670583333273,
          "durationTicks": 956,
          "midi": 79,
          "name": "G5",
          "ticks": 44160,
          "time": 72.631516,
          "velocity": 0.5354330708661418
        },
        {
          "duration": 1.5723670583333273,
          "durationTicks": 956,
          "midi": 76,
          "name": "E5",
          "ticks": 44160,
          "time": 72.631516,
          "velocity": 0.5354330708661418
        },
        {
          "duration": 1.3815777500000053,
          "durationTicks": 840,
          "midi": 79,
          "name": "G5",
          "ticks": 45120,
          "time": 74.210462,
          "velocity": 0.7007874015748031
        },
        {
          "duration": 1.3815777500000053,
          "durationTicks": 840,
          "midi": 83,
          "name": "B5",
          "ticks": 45120,
          "time": 74.210462,
          "velocity": 0.7795275590551181
        },
        {
          "duration": 1.3815777500000053,
          "durationTicks": 840,
          "midi": 76,
          "name": "E5",
          "ticks": 45120,
          "time": 74.210462,
          "velocity": 0.6377952755905512
        },
        {
          "duration": 1.3815777500000053,
          "durationTicks": 840,
          "midi": 71,
          "name": "B4",
          "ticks": 45120,
          "time": 74.210462,
          "velocity": 0.5826771653543307
        },
        {
          "duration": 0.5921047500000043,
          "durationTicks": 360,
          "midi": 69,
          "name": "A4",
          "ticks": 46080,
          "time": 75.78940800000001,
          "velocity": 0.5039370078740157
        },
        {
          "duration": 0.5921047500000043,
          "durationTicks": 360,
          "midi": 65,
          "name": "F4",
          "ticks": 46080,
          "time": 75.78940800000001,
          "velocity": 0.5039370078740157
        },
        {
          "duration": 0.5921047500000043,
          "durationTicks": 360,
          "midi": 72,
          "name": "C5",
          "ticks": 46080,
          "time": 75.78940800000001,
          "velocity": 0.5039370078740157
        },
        {
          "duration": 0.789473000000001,
          "durationTicks": 480,
          "midi": 72,
          "name": "C5",
          "ticks": 46560,
          "time": 76.57888100000001,
          "velocity": 0.5039370078740157
        },
        {
          "duration": 0.789473000000001,
          "durationTicks": 480,
          "midi": 65,
          "name": "F4",
          "ticks": 46560,
          "time": 76.57888100000001,
          "velocity": 0.5039370078740157
        },
        {
          "duration": 0.789473000000001,
          "durationTicks": 480,
          "midi": 69,
          "name": "A4",
          "ticks": 46560,
          "time": 76.57888100000001,
          "velocity": 0.5039370078740157
        },
        {
          "duration": 0,
          "durationTicks": 0,
          "midi": 67,
          "name": "G4",
          "ticks": 47040,
          "time": 77.36835400000001,
          "velocity": 0.5039370078740157
        },
        {
          "duration": 0,
          "durationTicks": 0,
          "midi": 71,
          "name": "B4",
          "ticks": 47040,
          "time": 77.36835400000001,
          "velocity": 0.5039370078740157
        },
        {
          "duration": 0,
          "durationTicks": 0,
          "midi": 74,
          "name": "D5",
          "ticks": 47040,
          "time": 77.36835400000001,
          "velocity": 0.5039370078740157
        },
        {
          "duration": 0.5921047500000043,
          "durationTicks": 360,
          "midi": 71,
          "name": "B4",
          "ticks": 47040,
          "time": 77.36835400000001,
          "velocity": 0.5039370078740157
        },
        {
          "duration": 0.789473000000001,
          "durationTicks": 480,
          "midi": 67,
          "name": "G4",
          "ticks": 47040,
          "time": 77.36835400000001,
          "velocity": 0.5039370078740157
        },
        {
          "duration": 0.789473000000001,
          "durationTicks": 480,
          "midi": 74,
          "name": "D5",
          "ticks": 47040,
          "time": 77.36835400000001,
          "velocity": 0.5039370078740157
        },
        {
          "duration": 0.3947364999999934,
          "durationTicks": 240,
          "midi": 67,
          "name": "G4",
          "ticks": 47520,
          "time": 78.15782700000001,
          "velocity": 0.5039370078740157
        },
        {
          "duration": 0.3947364999999934,
          "durationTicks": 240,
          "midi": 71,
          "name": "B4",
          "ticks": 47520,
          "time": 78.15782700000001,
          "velocity": 0.5039370078740157
        },
        {
          "duration": 0.3947364999999934,
          "durationTicks": 240,
          "midi": 74,
          "name": "D5",
          "ticks": 47520,
          "time": 78.15782700000001,
          "velocity": 0.5039370078740157
        },
        {
          "duration": 0.374999674999998,
          "durationTicks": 228,
          "midi": 62,
          "name": "D4",
          "ticks": 47760,
          "time": 78.5525635,
          "velocity": 0.5039370078740157
        },
        {
          "duration": 0.789473000000001,
          "durationTicks": 480,
          "midi": 64,
          "name": "E4",
          "ticks": 48000,
          "time": 78.94730000000001,
          "velocity": 0.5039370078740157
        },
        {
          "duration": 0.789473000000001,
          "durationTicks": 480,
          "midi": 67,
          "name": "G4",
          "ticks": 48000,
          "time": 78.94730000000001,
          "velocity": 0.5039370078740157
        },
        {
          "duration": 0.789473000000001,
          "durationTicks": 480,
          "midi": 60,
          "name": "C4",
          "ticks": 48000,
          "time": 78.94730000000001,
          "velocity": 0.5039370078740157
        },
        {
          "duration": 0,
          "durationTicks": 0,
          "midi": 65,
          "name": "F4",
          "ticks": 48480,
          "time": 79.73677300000001,
          "velocity": 0.5039370078740157
        },
        {
          "duration": 0,
          "durationTicks": 0,
          "midi": 71,
          "name": "B4",
          "ticks": 48480,
          "time": 79.73677300000001,
          "velocity": 0.5039370078740157
        },
        {
          "duration": 0,
          "durationTicks": 0,
          "midi": 74,
          "name": "D5",
          "ticks": 48480,
          "time": 79.73677300000001,
          "velocity": 0.5039370078740157
        },
        {
          "duration": 0.5921047499999901,
          "durationTicks": 360,
          "midi": 65,
          "name": "F4",
          "ticks": 48480,
          "time": 79.73677300000001,
          "velocity": 0.5039370078740157
        },
        {
          "duration": 0.5921047499999901,
          "durationTicks": 360,
          "midi": 74,
          "name": "D5",
          "ticks": 48480,
          "time": 79.73677300000001,
          "velocity": 0.5039370078740157
        },
        {
          "duration": 0.5921047499999901,
          "durationTicks": 360,
          "midi": 71,
          "name": "B4",
          "ticks": 48480,
          "time": 79.73677300000001,
          "velocity": 0.5039370078740157
        },
        {
          "duration": 0.789473000000001,
          "durationTicks": 480,
          "midi": 69,
          "name": "A4",
          "ticks": 48960,
          "time": 80.52624600000001,
          "velocity": 0.5039370078740157
        },
        {
          "duration": 0.5921047499999901,
          "durationTicks": 360,
          "midi": 72,
          "name": "C5",
          "ticks": 48960,
          "time": 80.52624600000001,
          "velocity": 0.5039370078740157
        },
        {
          "duration": 0.3947364999999934,
          "durationTicks": 240,
          "midi": 76,
          "name": "E5",
          "ticks": 48960,
          "time": 80.52624600000001,
          "velocity": 0.5039370078740157
        },
        {
          "duration": 0.1973682500000109,
          "durationTicks": 120,
          "midi": 64,
          "name": "E4",
          "ticks": 49320,
          "time": 81.11835075,
          "velocity": 0.5118110236220472
        },
        {
          "duration": 0.1973682499999967,
          "durationTicks": 120,
          "midi": 76,
          "name": "E5",
          "ticks": 49440,
          "time": 81.31571900000002,
          "velocity": 0.5118110236220472
        },
        {
          "duration": 0.1973682499999967,
          "durationTicks": 120,
          "midi": 72,
          "name": "C5",
          "ticks": 49560,
          "time": 81.51308725000001,
          "velocity": 0.5118110236220472
        },
        {
          "duration": 0.374999674999998,
          "durationTicks": 228,
          "midi": 69,
          "name": "A4",
          "ticks": 49680,
          "time": 81.71045550000001,
          "velocity": 0.5118110236220472
        },
        {
          "duration": 0.7894729999999868,
          "durationTicks": 480,
          "midi": 69,
          "name": "A4",
          "ticks": 49920,
          "time": 82.10519200000002,
          "velocity": 0.5118110236220472
        },
        {
          "duration": 0.7894729999999868,
          "durationTicks": 480,
          "midi": 72,
          "name": "C5",
          "ticks": 49920,
          "time": 82.10519200000002,
          "velocity": 0.5118110236220472
        },
        {
          "duration": 0.789473000000001,
          "durationTicks": 480,
          "midi": 65,
          "name": "F4",
          "ticks": 50400,
          "time": 82.894665,
          "velocity": 0.5118110236220472
        },
        {
          "duration": 0.789473000000001,
          "durationTicks": 480,
          "midi": 69,
          "name": "A4",
          "ticks": 50400,
          "time": 82.894665,
          "velocity": 0.5118110236220472
        },
        {
          "duration": 0.789473000000001,
          "durationTicks": 480,
          "midi": 72,
          "name": "C5",
          "ticks": 50400,
          "time": 82.894665,
          "velocity": 0.5118110236220472
        },
        {
          "duration": 0,
          "durationTicks": 0,
          "midi": 67,
          "name": "G4",
          "ticks": 50880,
          "time": 83.684138,
          "velocity": 0.5118110236220472
        },
        {
          "duration": 0,
          "durationTicks": 0,
          "midi": 71,
          "name": "B4",
          "ticks": 50880,
          "time": 83.684138,
          "velocity": 0.5118110236220472
        },
        {
          "duration": 0,
          "durationTicks": 0,
          "midi": 74,
          "name": "D5",
          "ticks": 50880,
          "time": 83.684138,
          "velocity": 0.5118110236220472
        },
        {
          "duration": 0.5921047500000043,
          "durationTicks": 360,
          "midi": 71,
          "name": "B4",
          "ticks": 50880,
          "time": 83.684138,
          "velocity": 0.5118110236220472
        },
        {
          "duration": 0.5921047500000043,
          "durationTicks": 360,
          "midi": 74,
          "name": "D5",
          "ticks": 50880,
          "time": 83.684138,
          "velocity": 0.5118110236220472
        },
        {
          "duration": 0.5921047500000043,
          "durationTicks": 360,
          "midi": 67,
          "name": "G4",
          "ticks": 50880,
          "time": 83.684138,
          "velocity": 0.5118110236220472
        },
        {
          "duration": 0.3947365000000076,
          "durationTicks": 240,
          "midi": 67,
          "name": "G4",
          "ticks": 51360,
          "time": 84.473611,
          "velocity": 0.5118110236220472
        },
        {
          "duration": 0.3947365000000076,
          "durationTicks": 240,
          "midi": 71,
          "name": "B4",
          "ticks": 51360,
          "time": 84.473611,
          "velocity": 0.5118110236220472
        },
        {
          "duration": 0.3947365000000076,
          "durationTicks": 240,
          "midi": 74,
          "name": "D5",
          "ticks": 51360,
          "time": 84.473611,
          "velocity": 0.5118110236220472
        },
        {
          "duration": 0.374999674999998,
          "durationTicks": 228,
          "midi": 62,
          "name": "D4",
          "ticks": 51600,
          "time": 84.86834750000001,
          "velocity": 0.5118110236220472
        },
        {
          "duration": 0.789473000000001,
          "durationTicks": 480,
          "midi": 69,
          "name": "A4",
          "ticks": 51840,
          "time": 85.263084,
          "velocity": 0.5118110236220472
        },
        {
          "duration": 0.5921047500000043,
          "durationTicks": 360,
          "midi": 76,
          "name": "E5",
          "ticks": 51840,
          "time": 85.263084,
          "velocity": 0.5118110236220472
        },
        {
          "duration": 0.789473000000001,
          "durationTicks": 480,
          "midi": 72,
          "name": "C5",
          "ticks": 51840,
          "time": 85.263084,
          "velocity": 0.5118110236220472
        },
        {
          "duration": 0.5921047500000043,
          "durationTicks": 360,
          "midi": 69,
          "name": "A4",
          "ticks": 52320,
          "time": 86.05255700000001,
          "velocity": 0.5118110236220472
        },
        {
          "duration": 0.5921047500000043,
          "durationTicks": 360,
          "midi": 76,
          "name": "E5",
          "ticks": 52320,
          "time": 86.05255700000001,
          "velocity": 0.5118110236220472
        },
        {
          "duration": 0.5921047500000043,
          "durationTicks": 360,
          "midi": 72,
          "name": "C5",
          "ticks": 52320,
          "time": 86.05255700000001,
          "velocity": 0.5118110236220472
        },
        {
          "duration": 0.5921047500000043,
          "durationTicks": 360,
          "midi": 69,
          "name": "A4",
          "ticks": 52800,
          "time": 86.84203000000001,
          "velocity": 0.5196850393700787
        },
        {
          "duration": 0.5921047500000043,
          "durationTicks": 360,
          "midi": 72,
          "name": "C5",
          "ticks": 52800,
          "time": 86.84203000000001,
          "velocity": 0.5196850393700787
        },
        {
          "duration": 0.3947365000000076,
          "durationTicks": 240,
          "midi": 76,
          "name": "E5",
          "ticks": 52800,
          "time": 86.84203000000001,
          "velocity": 0.5196850393700787
        },
        {
          "duration": 0.1973682499999967,
          "durationTicks": 120,
          "midi": 64,
          "name": "E4",
          "ticks": 53160,
          "time": 87.43413475000001,
          "velocity": 0.4881889763779528
        },
        {
          "duration": 0.1973682499999967,
          "durationTicks": 120,
          "midi": 76,
          "name": "E5",
          "ticks": 53280,
          "time": 87.63150300000001,
          "velocity": 0.4881889763779528
        },
        {
          "duration": 0.1973682500000109,
          "durationTicks": 120,
          "midi": 72,
          "name": "C5",
          "ticks": 53400,
          "time": 87.82887125,
          "velocity": 0.4881889763779528
        },
        {
          "duration": 0.1973682499999967,
          "durationTicks": 120,
          "midi": 69,
          "name": "A4",
          "ticks": 53520,
          "time": 88.02623950000002,
          "velocity": 0.4881889763779528
        },
        {
          "duration": 0.5921047500000043,
          "durationTicks": 360,
          "midi": 69,
          "name": "A4",
          "ticks": 53760,
          "time": 88.42097600000001,
          "velocity": 0.5039370078740157
        },
        {
          "duration": 0.5921047500000043,
          "durationTicks": 360,
          "midi": 65,
          "name": "F4",
          "ticks": 53760,
          "time": 88.42097600000001,
          "velocity": 0.5039370078740157
        },
        {
          "duration": 0.5921047500000043,
          "durationTicks": 360,
          "midi": 72,
          "name": "C5",
          "ticks": 53760,
          "time": 88.42097600000001,
          "velocity": 0.5039370078740157
        },
        {
          "duration": 0.789473000000001,
          "durationTicks": 480,
          "midi": 72,
          "name": "C5",
          "ticks": 54240,
          "time": 89.21044900000001,
          "velocity": 0.5039370078740157
        },
        {
          "duration": 0.789473000000001,
          "durationTicks": 480,
          "midi": 65,
          "name": "F4",
          "ticks": 54240,
          "time": 89.21044900000001,
          "velocity": 0.5039370078740157
        },
        {
          "duration": 0.789473000000001,
          "durationTicks": 480,
          "midi": 69,
          "name": "A4",
          "ticks": 54240,
          "time": 89.21044900000001,
          "velocity": 0.5039370078740157
        },
        {
          "duration": 0,
          "durationTicks": 0,
          "midi": 67,
          "name": "G4",
          "ticks": 54720,
          "time": 89.99992200000001,
          "velocity": 0.5039370078740157
        },
        {
          "duration": 0,
          "durationTicks": 0,
          "midi": 71,
          "name": "B4",
          "ticks": 54720,
          "time": 89.99992200000001,
          "velocity": 0.5039370078740157
        },
        {
          "duration": 0,
          "durationTicks": 0,
          "midi": 74,
          "name": "D5",
          "ticks": 54720,
          "time": 89.99992200000001,
          "velocity": 0.5039370078740157
        },
        {
          "duration": 0.5921047500000043,
          "durationTicks": 360,
          "midi": 71,
          "name": "B4",
          "ticks": 54720,
          "time": 89.99992200000001,
          "velocity": 0.5039370078740157
        },
        {
          "duration": 0.789473000000001,
          "durationTicks": 480,
          "midi": 67,
          "name": "G4",
          "ticks": 54720,
          "time": 89.99992200000001,
          "velocity": 0.5039370078740157
        },
        {
          "duration": 0.789473000000001,
          "durationTicks": 480,
          "midi": 74,
          "name": "D5",
          "ticks": 54720,
          "time": 89.99992200000001,
          "velocity": 0.5039370078740157
        },
        {
          "duration": 0.3947364999999934,
          "durationTicks": 240,
          "midi": 67,
          "name": "G4",
          "ticks": 55200,
          "time": 90.78939500000001,
          "velocity": 0.5039370078740157
        },
        {
          "duration": 0.3947364999999934,
          "durationTicks": 240,
          "midi": 71,
          "name": "B4",
          "ticks": 55200,
          "time": 90.78939500000001,
          "velocity": 0.5039370078740157
        },
        {
          "duration": 0.3947364999999934,
          "durationTicks": 240,
          "midi": 74,
          "name": "D5",
          "ticks": 55200,
          "time": 90.78939500000001,
          "velocity": 0.5039370078740157
        },
        {
          "duration": 0.374999674999998,
          "durationTicks": 228,
          "midi": 62,
          "name": "D4",
          "ticks": 55440,
          "time": 91.1841315,
          "velocity": 0.5039370078740157
        },
        {
          "duration": 0.789473000000001,
          "durationTicks": 480,
          "midi": 64,
          "name": "E4",
          "ticks": 55680,
          "time": 91.57886800000001,
          "velocity": 0.5039370078740157
        },
        {
          "duration": 0.789473000000001,
          "durationTicks": 480,
          "midi": 67,
          "name": "G4",
          "ticks": 55680,
          "time": 91.57886800000001,
          "velocity": 0.5039370078740157
        },
        {
          "duration": 0.789473000000001,
          "durationTicks": 480,
          "midi": 60,
          "name": "C4",
          "ticks": 55680,
          "time": 91.57886800000001,
          "velocity": 0.5039370078740157
        },
        {
          "duration": 0,
          "durationTicks": 0,
          "midi": 65,
          "name": "F4",
          "ticks": 56160,
          "time": 92.36834100000002,
          "velocity": 0.5039370078740157
        },
        {
          "duration": 0,
          "durationTicks": 0,
          "midi": 71,
          "name": "B4",
          "ticks": 56160,
          "time": 92.36834100000002,
          "velocity": 0.5039370078740157
        },
        {
          "duration": 0,
          "durationTicks": 0,
          "midi": 74,
          "name": "D5",
          "ticks": 56160,
          "time": 92.36834100000002,
          "velocity": 0.5039370078740157
        },
        {
          "duration": 0.5921047499999901,
          "durationTicks": 360,
          "midi": 65,
          "name": "F4",
          "ticks": 56160,
          "time": 92.36834100000002,
          "velocity": 0.5039370078740157
        },
        {
          "duration": 0.5921047499999901,
          "durationTicks": 360,
          "midi": 74,
          "name": "D5",
          "ticks": 56160,
          "time": 92.36834100000002,
          "velocity": 0.5039370078740157
        },
        {
          "duration": 0.5921047499999901,
          "durationTicks": 360,
          "midi": 71,
          "name": "B4",
          "ticks": 56160,
          "time": 92.36834100000002,
          "velocity": 0.5039370078740157
        },
        {
          "duration": 0.789473000000001,
          "durationTicks": 480,
          "midi": 69,
          "name": "A4",
          "ticks": 56640,
          "time": 93.15781400000002,
          "velocity": 0.5039370078740157
        },
        {
          "duration": 0.5921047499999901,
          "durationTicks": 360,
          "midi": 72,
          "name": "C5",
          "ticks": 56640,
          "time": 93.15781400000002,
          "velocity": 0.5039370078740157
        },
        {
          "duration": 0.3947364999999934,
          "durationTicks": 240,
          "midi": 76,
          "name": "E5",
          "ticks": 56640,
          "time": 93.15781400000002,
          "velocity": 0.5039370078740157
        },
        {
          "duration": 0.1973682500000109,
          "durationTicks": 120,
          "midi": 64,
          "name": "E4",
          "ticks": 57000,
          "time": 93.74991875,
          "velocity": 0.5118110236220472
        },
        {
          "duration": 0.1973682499999967,
          "durationTicks": 120,
          "midi": 76,
          "name": "E5",
          "ticks": 57120,
          "time": 93.94728700000002,
          "velocity": 0.5118110236220472
        },
        {
          "duration": 0.1973682499999967,
          "durationTicks": 120,
          "midi": 72,
          "name": "C5",
          "ticks": 57240,
          "time": 94.14465525000001,
          "velocity": 0.5118110236220472
        },
        {
          "duration": 0.374999674999998,
          "durationTicks": 228,
          "midi": 69,
          "name": "A4",
          "ticks": 57360,
          "time": 94.34202350000001,
          "velocity": 0.5118110236220472
        },
        {
          "duration": 0.789473000000001,
          "durationTicks": 480,
          "midi": 69,
          "name": "A4",
          "ticks": 57600,
          "time": 94.73676,
          "velocity": 0.5118110236220472
        },
        {
          "duration": 0.789473000000001,
          "durationTicks": 480,
          "midi": 72,
          "name": "C5",
          "ticks": 57600,
          "time": 94.73676,
          "velocity": 0.5118110236220472
        },
        {
          "duration": 0.789473000000001,
          "durationTicks": 480,
          "midi": 65,
          "name": "F4",
          "ticks": 58080,
          "time": 95.526233,
          "velocity": 0.5118110236220472
        },
        {
          "duration": 0.789473000000001,
          "durationTicks": 480,
          "midi": 69,
          "name": "A4",
          "ticks": 58080,
          "time": 95.526233,
          "velocity": 0.5118110236220472
        },
        {
          "duration": 0.789473000000001,
          "durationTicks": 480,
          "midi": 72,
          "name": "C5",
          "ticks": 58080,
          "time": 95.526233,
          "velocity": 0.5118110236220472
        },
        {
          "duration": 0,
          "durationTicks": 0,
          "midi": 67,
          "name": "G4",
          "ticks": 58560,
          "time": 96.315706,
          "velocity": 0.5118110236220472
        },
        {
          "duration": 0,
          "durationTicks": 0,
          "midi": 71,
          "name": "B4",
          "ticks": 58560,
          "time": 96.315706,
          "velocity": 0.5118110236220472
        },
        {
          "duration": 0,
          "durationTicks": 0,
          "midi": 74,
          "name": "D5",
          "ticks": 58560,
          "time": 96.315706,
          "velocity": 0.5118110236220472
        },
        {
          "duration": 0.5921047500000043,
          "durationTicks": 360,
          "midi": 71,
          "name": "B4",
          "ticks": 58560,
          "time": 96.315706,
          "velocity": 0.5118110236220472
        },
        {
          "duration": 0.5921047500000043,
          "durationTicks": 360,
          "midi": 74,
          "name": "D5",
          "ticks": 58560,
          "time": 96.315706,
          "velocity": 0.5118110236220472
        },
        {
          "duration": 0.5921047500000043,
          "durationTicks": 360,
          "midi": 67,
          "name": "G4",
          "ticks": 58560,
          "time": 96.315706,
          "velocity": 0.5118110236220472
        },
        {
          "duration": 0.3947365000000076,
          "durationTicks": 240,
          "midi": 67,
          "name": "G4",
          "ticks": 59040,
          "time": 97.105179,
          "velocity": 0.5118110236220472
        },
        {
          "duration": 0.3947365000000076,
          "durationTicks": 240,
          "midi": 71,
          "name": "B4",
          "ticks": 59040,
          "time": 97.105179,
          "velocity": 0.5118110236220472
        },
        {
          "duration": 0.3947365000000076,
          "durationTicks": 240,
          "midi": 74,
          "name": "D5",
          "ticks": 59040,
          "time": 97.105179,
          "velocity": 0.5118110236220472
        },
        {
          "duration": 0.374999674999998,
          "durationTicks": 228,
          "midi": 62,
          "name": "D4",
          "ticks": 59280,
          "time": 97.49991550000001,
          "velocity": 0.5118110236220472
        },
        {
          "duration": 0.789473000000001,
          "durationTicks": 480,
          "midi": 69,
          "name": "A4",
          "ticks": 59520,
          "time": 97.89465200000001,
          "velocity": 0.5118110236220472
        },
        {
          "duration": 0.5921047500000043,
          "durationTicks": 360,
          "midi": 76,
          "name": "E5",
          "ticks": 59520,
          "time": 97.89465200000001,
          "velocity": 0.5118110236220472
        },
        {
          "duration": 0.789473000000001,
          "durationTicks": 480,
          "midi": 72,
          "name": "C5",
          "ticks": 59520,
          "time": 97.89465200000001,
          "velocity": 0.5118110236220472
        },
        {
          "duration": 0.5921047500000043,
          "durationTicks": 360,
          "midi": 69,
          "name": "A4",
          "ticks": 60000,
          "time": 98.68412500000001,
          "velocity": 0.5118110236220472
        },
        {
          "duration": 0.5921047500000043,
          "durationTicks": 360,
          "midi": 76,
          "name": "E5",
          "ticks": 60000,
          "time": 98.68412500000001,
          "velocity": 0.5118110236220472
        },
        {
          "duration": 0.5921047500000043,
          "durationTicks": 360,
          "midi": 72,
          "name": "C5",
          "ticks": 60000,
          "time": 98.68412500000001,
          "velocity": 0.5118110236220472
        },
        {
          "duration": 1.1842095000000086,
          "durationTicks": 720,
          "midi": 72,
          "name": "C5",
          "ticks": 60480,
          "time": 99.47359800000001,
          "velocity": 0.4881889763779528
        },
        {
          "duration": 0.9868412499999977,
          "durationTicks": 600,
          "midi": 64,
          "name": "E4",
          "ticks": 60480,
          "time": 99.47359800000001,
          "velocity": 0.4881889763779528
        },
        {
          "duration": 1.1842095000000086,
          "durationTicks": 720,
          "midi": 69,
          "name": "A4",
          "ticks": 60480,
          "time": 99.47359800000001,
          "velocity": 0.4881889763779528
        },
        {
          "duration": 0.5921047500000043,
          "durationTicks": 360,
          "midi": 69,
          "name": "A4",
          "ticks": 61440,
          "time": 101.05254400000001,
          "velocity": 0.5039370078740157
        },
        {
          "duration": 0.5921047500000043,
          "durationTicks": 360,
          "midi": 65,
          "name": "F4",
          "ticks": 61440,
          "time": 101.05254400000001,
          "velocity": 0.5039370078740157
        },
        {
          "duration": 0.5921047500000043,
          "durationTicks": 360,
          "midi": 72,
          "name": "C5",
          "ticks": 61440,
          "time": 101.05254400000001,
          "velocity": 0.5039370078740157
        },
        {
          "duration": 0.789473000000001,
          "durationTicks": 480,
          "midi": 72,
          "name": "C5",
          "ticks": 61920,
          "time": 101.84201700000001,
          "velocity": 0.5039370078740157
        },
        {
          "duration": 0.789473000000001,
          "durationTicks": 480,
          "midi": 65,
          "name": "F4",
          "ticks": 61920,
          "time": 101.84201700000001,
          "velocity": 0.5039370078740157
        },
        {
          "duration": 0.789473000000001,
          "durationTicks": 480,
          "midi": 69,
          "name": "A4",
          "ticks": 61920,
          "time": 101.84201700000001,
          "velocity": 0.5039370078740157
        },
        {
          "duration": 0,
          "durationTicks": 0,
          "midi": 67,
          "name": "G4",
          "ticks": 62400,
          "time": 102.63149000000001,
          "velocity": 0.5039370078740157
        },
        {
          "duration": 0,
          "durationTicks": 0,
          "midi": 71,
          "name": "B4",
          "ticks": 62400,
          "time": 102.63149000000001,
          "velocity": 0.5039370078740157
        },
        {
          "duration": 0,
          "durationTicks": 0,
          "midi": 74,
          "name": "D5",
          "ticks": 62400,
          "time": 102.63149000000001,
          "velocity": 0.5039370078740157
        },
        {
          "duration": 0.5921047500000043,
          "durationTicks": 360,
          "midi": 71,
          "name": "B4",
          "ticks": 62400,
          "time": 102.63149000000001,
          "velocity": 0.5039370078740157
        },
        {
          "duration": 0.789473000000001,
          "durationTicks": 480,
          "midi": 67,
          "name": "G4",
          "ticks": 62400,
          "time": 102.63149000000001,
          "velocity": 0.5039370078740157
        },
        {
          "duration": 0.789473000000001,
          "durationTicks": 480,
          "midi": 74,
          "name": "D5",
          "ticks": 62400,
          "time": 102.63149000000001,
          "velocity": 0.5039370078740157
        },
        {
          "duration": 0.3947364999999934,
          "durationTicks": 240,
          "midi": 67,
          "name": "G4",
          "ticks": 62880,
          "time": 103.42096300000001,
          "velocity": 0.5039370078740157
        },
        {
          "duration": 0.3947364999999934,
          "durationTicks": 240,
          "midi": 71,
          "name": "B4",
          "ticks": 62880,
          "time": 103.42096300000001,
          "velocity": 0.5039370078740157
        },
        {
          "duration": 0.3947364999999934,
          "durationTicks": 240,
          "midi": 74,
          "name": "D5",
          "ticks": 62880,
          "time": 103.42096300000001,
          "velocity": 0.5039370078740157
        },
        {
          "duration": 0.374999674999998,
          "durationTicks": 228,
          "midi": 62,
          "name": "D4",
          "ticks": 63120,
          "time": 103.81569950000001,
          "velocity": 0.5039370078740157
        },
        {
          "duration": 0.789473000000001,
          "durationTicks": 480,
          "midi": 64,
          "name": "E4",
          "ticks": 63360,
          "time": 104.21043600000002,
          "velocity": 0.5039370078740157
        },
        {
          "duration": 0.789473000000001,
          "durationTicks": 480,
          "midi": 67,
          "name": "G4",
          "ticks": 63360,
          "time": 104.21043600000002,
          "velocity": 0.5039370078740157
        },
        {
          "duration": 0.789473000000001,
          "durationTicks": 480,
          "midi": 60,
          "name": "C4",
          "ticks": 63360,
          "time": 104.21043600000002,
          "velocity": 0.5039370078740157
        },
        {
          "duration": 0,
          "durationTicks": 0,
          "midi": 67,
          "name": "G4",
          "ticks": 63840,
          "time": 104.99990900000002,
          "velocity": 0.5039370078740157
        },
        {
          "duration": 0,
          "durationTicks": 0,
          "midi": 71,
          "name": "B4",
          "ticks": 63840,
          "time": 104.99990900000002,
          "velocity": 0.5039370078740157
        },
        {
          "duration": 0,
          "durationTicks": 0,
          "midi": 74,
          "name": "D5",
          "ticks": 63840,
          "time": 104.99990900000002,
          "velocity": 0.5039370078740157
        },
        {
          "duration": 0.5921047499999901,
          "durationTicks": 360,
          "midi": 67,
          "name": "G4",
          "ticks": 63840,
          "time": 104.99990900000002,
          "velocity": 0.5039370078740157
        },
        {
          "duration": 0.5921047499999901,
          "durationTicks": 360,
          "midi": 74,
          "name": "D5",
          "ticks": 63840,
          "time": 104.99990900000002,
          "velocity": 0.5039370078740157
        },
        {
          "duration": 0.5921047499999901,
          "durationTicks": 360,
          "midi": 71,
          "name": "B4",
          "ticks": 63840,
          "time": 104.99990900000002,
          "velocity": 0.5039370078740157
        },
        {
          "duration": 0.789473000000001,
          "durationTicks": 480,
          "midi": 69,
          "name": "A4",
          "ticks": 64320,
          "time": 105.78938200000002,
          "velocity": 0.5039370078740157
        },
        {
          "duration": 0.5921047499999901,
          "durationTicks": 360,
          "midi": 72,
          "name": "C5",
          "ticks": 64320,
          "time": 105.78938200000002,
          "velocity": 0.5039370078740157
        },
        {
          "duration": 0.3947364999999934,
          "durationTicks": 240,
          "midi": 76,
          "name": "E5",
          "ticks": 64320,
          "time": 105.78938200000002,
          "velocity": 0.5039370078740157
        },
        {
          "duration": 0.1973682500000109,
          "durationTicks": 120,
          "midi": 64,
          "name": "E4",
          "ticks": 64680,
          "time": 106.38148675000001,
          "velocity": 0.5118110236220472
        },
        {
          "duration": 0.1973682499999967,
          "durationTicks": 120,
          "midi": 76,
          "name": "E5",
          "ticks": 64800,
          "time": 106.57885500000002,
          "velocity": 0.5118110236220472
        },
        {
          "duration": 0.1973682499999967,
          "durationTicks": 120,
          "midi": 72,
          "name": "C5",
          "ticks": 64920,
          "time": 106.77622325000002,
          "velocity": 0.5118110236220472
        },
        {
          "duration": 0.374999674999998,
          "durationTicks": 228,
          "midi": 69,
          "name": "A4",
          "ticks": 65040,
          "time": 106.97359150000001,
          "velocity": 0.5118110236220472
        },
        {
          "duration": 0.7894729999999868,
          "durationTicks": 480,
          "midi": 69,
          "name": "A4",
          "ticks": 65280,
          "time": 107.36832800000002,
          "velocity": 0.5118110236220472
        },
        {
          "duration": 0.7894729999999868,
          "durationTicks": 480,
          "midi": 72,
          "name": "C5",
          "ticks": 65280,
          "time": 107.36832800000002,
          "velocity": 0.5118110236220472
        },
        {
          "duration": 0.789473000000001,
          "durationTicks": 480,
          "midi": 65,
          "name": "F4",
          "ticks": 65760,
          "time": 108.157801,
          "velocity": 0.5118110236220472
        },
        {
          "duration": 0.789473000000001,
          "durationTicks": 480,
          "midi": 69,
          "name": "A4",
          "ticks": 65760,
          "time": 108.157801,
          "velocity": 0.5118110236220472
        },
        {
          "duration": 0.789473000000001,
          "durationTicks": 480,
          "midi": 72,
          "name": "C5",
          "ticks": 65760,
          "time": 108.157801,
          "velocity": 0.5118110236220472
        },
        {
          "duration": 0,
          "durationTicks": 0,
          "midi": 67,
          "name": "G4",
          "ticks": 66240,
          "time": 108.94727400000001,
          "velocity": 0.5118110236220472
        },
        {
          "duration": 0,
          "durationTicks": 0,
          "midi": 71,
          "name": "B4",
          "ticks": 66240,
          "time": 108.94727400000001,
          "velocity": 0.5118110236220472
        },
        {
          "duration": 0,
          "durationTicks": 0,
          "midi": 74,
          "name": "D5",
          "ticks": 66240,
          "time": 108.94727400000001,
          "velocity": 0.5118110236220472
        },
        {
          "duration": 0.5921047500000043,
          "durationTicks": 360,
          "midi": 71,
          "name": "B4",
          "ticks": 66240,
          "time": 108.94727400000001,
          "velocity": 0.5118110236220472
        },
        {
          "duration": 0.5921047500000043,
          "durationTicks": 360,
          "midi": 74,
          "name": "D5",
          "ticks": 66240,
          "time": 108.94727400000001,
          "velocity": 0.5118110236220472
        },
        {
          "duration": 0.5921047500000043,
          "durationTicks": 360,
          "midi": 67,
          "name": "G4",
          "ticks": 66240,
          "time": 108.94727400000001,
          "velocity": 0.5118110236220472
        },
        {
          "duration": 0.3947365000000076,
          "durationTicks": 240,
          "midi": 67,
          "name": "G4",
          "ticks": 66720,
          "time": 109.73674700000001,
          "velocity": 0.5118110236220472
        },
        {
          "duration": 0.3947365000000076,
          "durationTicks": 240,
          "midi": 71,
          "name": "B4",
          "ticks": 66720,
          "time": 109.73674700000001,
          "velocity": 0.5118110236220472
        },
        {
          "duration": 0.3947365000000076,
          "durationTicks": 240,
          "midi": 74,
          "name": "D5",
          "ticks": 66720,
          "time": 109.73674700000001,
          "velocity": 0.5118110236220472
        },
        {
          "duration": 0.374999674999998,
          "durationTicks": 228,
          "midi": 62,
          "name": "D4",
          "ticks": 66960,
          "time": 110.13148350000002,
          "velocity": 0.5118110236220472
        },
        {
          "duration": 0.789473000000001,
          "durationTicks": 480,
          "midi": 69,
          "name": "A4",
          "ticks": 67200,
          "time": 110.52622000000001,
          "velocity": 0.5118110236220472
        },
        {
          "duration": 0.5921047500000043,
          "durationTicks": 360,
          "midi": 76,
          "name": "E5",
          "ticks": 67200,
          "time": 110.52622000000001,
          "velocity": 0.5118110236220472
        },
        {
          "duration": 0.789473000000001,
          "durationTicks": 480,
          "midi": 72,
          "name": "C5",
          "ticks": 67200,
          "time": 110.52622000000001,
          "velocity": 0.5118110236220472
        },
        {
          "duration": 0.5921047500000043,
          "durationTicks": 360,
          "midi": 69,
          "name": "A4",
          "ticks": 67680,
          "time": 111.31569300000001,
          "velocity": 0.5118110236220472
        },
        {
          "duration": 0.5921047500000043,
          "durationTicks": 360,
          "midi": 76,
          "name": "E5",
          "ticks": 67680,
          "time": 111.31569300000001,
          "velocity": 0.5118110236220472
        },
        {
          "duration": 0.5921047500000043,
          "durationTicks": 360,
          "midi": 72,
          "name": "C5",
          "ticks": 67680,
          "time": 111.31569300000001,
          "velocity": 0.5118110236220472
        },
        {
          "duration": 1.1842095000000086,
          "durationTicks": 720,
          "midi": 72,
          "name": "C5",
          "ticks": 68160,
          "time": 112.10516600000001,
          "velocity": 0.4881889763779528
        },
        {
          "duration": 0.9868412499999977,
          "durationTicks": 600,
          "midi": 64,
          "name": "E4",
          "ticks": 68160,
          "time": 112.10516600000001,
          "velocity": 0.4881889763779528
        },
        {
          "duration": 1.1842095000000086,
          "durationTicks": 720,
          "midi": 69,
          "name": "A4",
          "ticks": 68160,
          "time": 112.10516600000001,
          "velocity": 0.4881889763779528
        },
        {
          "duration": 0.9868412499999977,
          "durationTicks": 600,
          "midi": 64,
          "name": "E4",
          "ticks": 69120,
          "time": 113.68411200000001,
          "velocity": 0.4251968503937008
        },
        {
          "duration": 0.9868412499999977,
          "durationTicks": 600,
          "midi": 72,
          "name": "C5",
          "ticks": 69120,
          "time": 113.68411200000001,
          "velocity": 0.4251968503937008
        },
        {
          "duration": 0.9868412499999977,
          "durationTicks": 600,
          "midi": 69,
          "name": "A4",
          "ticks": 69120,
          "time": 113.68411200000001,
          "velocity": 0.4251968503937008
        },
        {
          "duration": 0.3947365000000076,
          "durationTicks": 240,
          "midi": 64,
          "name": "E4",
          "ticks": 69840,
          "time": 114.86832150000001,
          "velocity": 0.4251968503937008
        },
        {
          "duration": 0.3947365000000076,
          "durationTicks": 240,
          "midi": 69,
          "name": "A4",
          "ticks": 69840,
          "time": 114.86832150000001,
          "velocity": 0.4251968503937008
        },
        {
          "duration": 0.3947365000000076,
          "durationTicks": 240,
          "midi": 72,
          "name": "C5",
          "ticks": 69840,
          "time": 114.86832150000001,
          "velocity": 0.4251968503937008
        },
        {
          "duration": 1.1842094999999944,
          "durationTicks": 720,
          "midi": 59,
          "name": "B3",
          "ticks": 70080,
          "time": 115.26305800000002,
          "velocity": 0.4251968503937008
        },
        {
          "duration": 1.1842094999999944,
          "durationTicks": 720,
          "midi": 64,
          "name": "E4",
          "ticks": 70080,
          "time": 115.26305800000002,
          "velocity": 0.4251968503937008
        },
        {
          "duration": 1.1842094999999944,
          "durationTicks": 720,
          "midi": 67,
          "name": "G4",
          "ticks": 70080,
          "time": 115.26305800000002,
          "velocity": 0.4251968503937008
        },
        {
          "duration": 0.9868412499999977,
          "durationTicks": 600,
          "midi": 69,
          "name": "A4",
          "ticks": 71040,
          "time": 116.84200400000002,
          "velocity": 0.4251968503937008
        },
        {
          "duration": 0.9868412499999977,
          "durationTicks": 600,
          "midi": 64,
          "name": "E4",
          "ticks": 71040,
          "time": 116.84200400000002,
          "velocity": 0.4251968503937008
        },
        {
          "duration": 0.3947365000000076,
          "durationTicks": 240,
          "midi": 69,
          "name": "A4",
          "ticks": 71760,
          "time": 118.02621350000001,
          "velocity": 0.4251968503937008
        },
        {
          "duration": 0.3947365000000076,
          "durationTicks": 240,
          "midi": 64,
          "name": "E4",
          "ticks": 71760,
          "time": 118.02621350000001,
          "velocity": 0.4251968503937008
        },
        {
          "duration": 0.3947365000000076,
          "durationTicks": 240,
          "midi": 72,
          "name": "C5",
          "ticks": 71760,
          "time": 118.02621350000001,
          "velocity": 0.4251968503937008
        },
        {
          "duration": 0.1973682499999967,
          "durationTicks": 120,
          "midi": 59,
          "name": "B3",
          "ticks": 72000,
          "time": 118.42095000000002,
          "velocity": 0.4251968503937008
        },
        {
          "duration": 0.3947364999999934,
          "durationTicks": 240,
          "midi": 64,
          "name": "E4",
          "ticks": 72000,
          "time": 118.42095000000002,
          "velocity": 0.4251968503937008
        },
        {
          "duration": 0.3947364999999934,
          "durationTicks": 240,
          "midi": 67,
          "name": "G4",
          "ticks": 72000,
          "time": 118.42095000000002,
          "velocity": 0.4251968503937008
        },
        {
          "duration": 0.374999674999998,
          "durationTicks": 228,
          "midi": 59,
          "name": "B3",
          "ticks": 72240,
          "time": 118.81568650000001,
          "velocity": 0.4251968503937008
        },
        {
          "duration": 0.1973682499999967,
          "durationTicks": 120,
          "midi": 67,
          "name": "G4",
          "ticks": 72480,
          "time": 119.21042300000002,
          "velocity": 0.4251968503937008
        },
        {
          "duration": 0.1973682499999967,
          "durationTicks": 120,
          "midi": 64,
          "name": "E4",
          "ticks": 72600,
          "time": 119.40779125000002,
          "velocity": 0.4251968503937008
        },
        {
          "duration": 0.1973682499999967,
          "durationTicks": 120,
          "midi": 59,
          "name": "B3",
          "ticks": 72720,
          "time": 119.60515950000001,
          "velocity": 0.4251968503937008
        },
        {
          "duration": 0.9868412500000119,
          "durationTicks": 600,
          "midi": 60,
          "name": "C4",
          "ticks": 72960,
          "time": 119.999896,
          "velocity": 0.4251968503937008
        },
        {
          "duration": 0.9868412500000119,
          "durationTicks": 600,
          "midi": 64,
          "name": "E4",
          "ticks": 72960,
          "time": 119.999896,
          "velocity": 0.4251968503937008
        },
        {
          "duration": 0.9868412500000119,
          "durationTicks": 600,
          "midi": 69,
          "name": "A4",
          "ticks": 72960,
          "time": 119.999896,
          "velocity": 0.4251968503937008
        },
        {
          "duration": 0.3947364999999934,
          "durationTicks": 240,
          "midi": 64,
          "name": "E4",
          "ticks": 73680,
          "time": 121.18410550000002,
          "velocity": 0.4330708661417323
        },
        {
          "duration": 0.3947364999999934,
          "durationTicks": 240,
          "midi": 69,
          "name": "A4",
          "ticks": 73680,
          "time": 121.18410550000002,
          "velocity": 0.4330708661417323
        },
        {
          "duration": 0.3947364999999934,
          "durationTicks": 240,
          "midi": 60,
          "name": "C4",
          "ticks": 73680,
          "time": 121.18410550000002,
          "velocity": 0.4330708661417323
        },
        {
          "duration": 1.1842095000000086,
          "durationTicks": 720,
          "midi": 59,
          "name": "B3",
          "ticks": 73920,
          "time": 121.57884200000001,
          "velocity": 0.4330708661417323
        },
        {
          "duration": 1.1842095000000086,
          "durationTicks": 720,
          "midi": 64,
          "name": "E4",
          "ticks": 73920,
          "time": 121.57884200000001,
          "velocity": 0.4330708661417323
        },
        {
          "duration": 1.1842095000000086,
          "durationTicks": 720,
          "midi": 67,
          "name": "G4",
          "ticks": 73920,
          "time": 121.57884200000001,
          "velocity": 0.4330708661417323
        },
        {
          "duration": 0.789473000000001,
          "durationTicks": 480,
          "midi": 64,
          "name": "E4",
          "ticks": 74880,
          "time": 123.15778800000001,
          "velocity": 0.4330708661417323
        },
        {
          "duration": 0.789473000000001,
          "durationTicks": 480,
          "midi": 72,
          "name": "C5",
          "ticks": 74880,
          "time": 123.15778800000001,
          "velocity": 0.4330708661417323
        },
        {
          "duration": 0.789473000000001,
          "durationTicks": 480,
          "midi": 69,
          "name": "A4",
          "ticks": 74880,
          "time": 123.15778800000001,
          "velocity": 0.4330708661417323
        },
        {
          "duration": 0.388157558333333,
          "durationTicks": 236,
          "midi": 72,
          "name": "C5",
          "ticks": 75600,
          "time": 124.34199750000002,
          "velocity": 0.4330708661417323
        },
        {
          "duration": 0.388157558333333,
          "durationTicks": 236,
          "midi": 69,
          "name": "A4",
          "ticks": 75600,
          "time": 124.34199750000002,
          "velocity": 0.4330708661417323
        },
        {
          "duration": 0.388157558333333,
          "durationTicks": 236,
          "midi": 64,
          "name": "E4",
          "ticks": 75600,
          "time": 124.34199750000002,
          "velocity": 0.4330708661417323
        },
        {
          "duration": 1.578946000000002,
          "durationTicks": 960,
          "midi": 77,
          "name": "F5",
          "ticks": 76800,
          "time": 126.31568000000001,
          "velocity": 0.49606299212598426
        },
        {
          "duration": 1.578946000000002,
          "durationTicks": 960,
          "midi": 72,
          "name": "C5",
          "ticks": 76800,
          "time": 126.31568000000001,
          "velocity": 0.49606299212598426
        },
        {
          "duration": 1.3815777500000053,
          "durationTicks": 840,
          "midi": 81,
          "name": "A5",
          "ticks": 76920,
          "time": 126.51304825000001,
          "velocity": 0.49606299212598426
        },
        {
          "duration": 0.5921047500000043,
          "durationTicks": 360,
          "midi": 74,
          "name": "D5",
          "ticks": 77760,
          "time": 127.89462600000002,
          "velocity": 0.49606299212598426
        },
        {
          "duration": 0.5921047500000043,
          "durationTicks": 360,
          "midi": 79,
          "name": "G5",
          "ticks": 77760,
          "time": 127.89462600000002,
          "velocity": 0.49606299212598426
        },
        {
          "duration": 0.5921047500000043,
          "durationTicks": 360,
          "midi": 83,
          "name": "B5",
          "ticks": 77760,
          "time": 127.89462600000002,
          "velocity": 0.49606299212598426
        },
        {
          "duration": 0.5921047500000043,
          "durationTicks": 360,
          "midi": 74,
          "name": "D5",
          "ticks": 78240,
          "time": 128.684099,
          "velocity": 0.5511811023622047
        },
        {
          "duration": 0.5921047500000043,
          "durationTicks": 360,
          "midi": 86,
          "name": "D6",
          "ticks": 78240,
          "time": 128.684099,
          "velocity": 0.5511811023622047
        },
        {
          "duration": 0.5921047500000043,
          "durationTicks": 360,
          "midi": 79,
          "name": "G5",
          "ticks": 78240,
          "time": 128.684099,
          "velocity": 0.5511811023622047
        },
        {
          "duration": 1.578946000000002,
          "durationTicks": 960,
          "midi": 76,
          "name": "E5",
          "ticks": 78720,
          "time": 129.47357200000002,
          "velocity": 0.5511811023622047
        },
        {
          "duration": 1.578946000000002,
          "durationTicks": 960,
          "midi": 71,
          "name": "B4",
          "ticks": 78720,
          "time": 129.47357200000002,
          "velocity": 0.5511811023622047
        },
        {
          "duration": 1.578946000000002,
          "durationTicks": 960,
          "midi": 79,
          "name": "G5",
          "ticks": 78720,
          "time": 129.47357200000002,
          "velocity": 0.5511811023622047
        },
        {
          "duration": 0.7894729999999868,
          "durationTicks": 480,
          "midi": 76,
          "name": "E5",
          "ticks": 79680,
          "time": 131.05251800000002,
          "velocity": 0.5511811023622047
        },
        {
          "duration": 0.5921047500000043,
          "durationTicks": 360,
          "midi": 81,
          "name": "A5",
          "ticks": 79680,
          "time": 131.05251800000002,
          "velocity": 0.5511811023622047
        },
        {
          "duration": 0.5921047500000043,
          "durationTicks": 360,
          "midi": 84,
          "name": "C6",
          "ticks": 79680,
          "time": 131.05251800000002,
          "velocity": 0.5511811023622047
        },
        {
          "duration": 0.5921047500000043,
          "durationTicks": 360,
          "midi": 81,
          "name": "A5",
          "ticks": 80160,
          "time": 131.841991,
          "velocity": 0.5433070866141733
        },
        {
          "duration": 0.5921047500000043,
          "durationTicks": 360,
          "midi": 76,
          "name": "E5",
          "ticks": 80160,
          "time": 131.841991,
          "velocity": 0.5433070866141733
        },
        {
          "duration": 0.1973682500000109,
          "durationTicks": 120,
          "midi": 76,
          "name": "E5",
          "ticks": 80520,
          "time": 132.43409575,
          "velocity": 0.5433070866141733
        },
        {
          "duration": 1.578946000000002,
          "durationTicks": 960,
          "midi": 72,
          "name": "C5",
          "ticks": 80640,
          "time": 132.63146400000002,
          "velocity": 0.5433070866141733
        },
        {
          "duration": 1.578946000000002,
          "durationTicks": 960,
          "midi": 77,
          "name": "F5",
          "ticks": 80640,
          "time": 132.63146400000002,
          "velocity": 0.5433070866141733
        },
        {
          "duration": 1.578946000000002,
          "durationTicks": 960,
          "midi": 81,
          "name": "A5",
          "ticks": 80640,
          "time": 132.63146400000002,
          "velocity": 0.5433070866141733
        },
        {
          "duration": 0.473683799999975,
          "durationTicks": 288,
          "midi": 74,
          "name": "D5",
          "ticks": 81600,
          "time": 134.21041000000002,
          "velocity": 0.5433070866141733
        },
        {
          "duration": 0.7894729999999868,
          "durationTicks": 480,
          "midi": 79,
          "name": "G5",
          "ticks": 81600,
          "time": 134.21041000000002,
          "velocity": 0.5433070866141733
        },
        {
          "duration": 0.5921047500000043,
          "durationTicks": 360,
          "midi": 83,
          "name": "B5",
          "ticks": 81600,
          "time": 134.21041000000002,
          "velocity": 0.5433070866141733
        },
        {
          "duration": 0.7894730000000152,
          "durationTicks": 480,
          "midi": 79,
          "name": "G5",
          "ticks": 82080,
          "time": 134.999883,
          "velocity": 0.5354330708661418
        },
        {
          "duration": 0.5921047500000043,
          "durationTicks": 360,
          "midi": 74,
          "name": "D5",
          "ticks": 82080,
          "time": 134.999883,
          "velocity": 0.5354330708661418
        },
        {
          "duration": 0.5921047500000043,
          "durationTicks": 360,
          "midi": 86,
          "name": "D6",
          "ticks": 82080,
          "time": 134.999883,
          "velocity": 0.5354330708661418
        },
        {
          "duration": 0,
          "durationTicks": 0,
          "midi": 81,
          "name": "A5",
          "ticks": 82560,
          "time": 135.78935600000003,
          "velocity": 0.5354330708661418
        },
        {
          "duration": 2.171050749999978,
          "durationTicks": 1320,
          "midi": 76,
          "name": "E5",
          "ticks": 82560,
          "time": 135.78935600000003,
          "velocity": 0.5354330708661418
        },
        {
          "duration": 2.3684189999999887,
          "durationTicks": 1440,
          "midi": 84,
          "name": "C6",
          "ticks": 82560,
          "time": 135.78935600000003,
          "velocity": 0.5354330708661418
        },
        {
          "duration": 2.171050749999978,
          "durationTicks": 1320,
          "midi": 81,
          "name": "A5",
          "ticks": 82560,
          "time": 135.78935600000003,
          "velocity": 0.5354330708661418
        },
        {
          "duration": 0.5921047500000043,
          "durationTicks": 360,
          "midi": 81,
          "name": "A5",
          "ticks": 84000,
          "time": 138.15777500000002,
          "velocity": 0.5275590551181102
        },
        {
          "duration": 0.5921047500000043,
          "durationTicks": 360,
          "midi": 76,
          "name": "E5",
          "ticks": 84000,
          "time": 138.15777500000002,
          "velocity": 0.5275590551181102
        },
        {
          "duration": 1.578946000000002,
          "durationTicks": 960,
          "midi": 77,
          "name": "F5",
          "ticks": 84480,
          "time": 138.947248,
          "velocity": 0.49606299212598426
        },
        {
          "duration": 1.578946000000002,
          "durationTicks": 960,
          "midi": 72,
          "name": "C5",
          "ticks": 84480,
          "time": 138.947248,
          "velocity": 0.49606299212598426
        },
        {
          "duration": 1.381577749999991,
          "durationTicks": 840,
          "midi": 81,
          "name": "A5",
          "ticks": 84600,
          "time": 139.14461625,
          "velocity": 0.49606299212598426
        },
        {
          "duration": 0.5921047500000043,
          "durationTicks": 360,
          "midi": 74,
          "name": "D5",
          "ticks": 85440,
          "time": 140.526194,
          "velocity": 0.49606299212598426
        },
        {
          "duration": 0.5921047500000043,
          "durationTicks": 360,
          "midi": 79,
          "name": "G5",
          "ticks": 85440,
          "time": 140.526194,
          "velocity": 0.49606299212598426
        },
        {
          "duration": 0.5921047500000043,
          "durationTicks": 360,
          "midi": 83,
          "name": "B5",
          "ticks": 85440,
          "time": 140.526194,
          "velocity": 0.49606299212598426
        },
        {
          "duration": 0.5921047500000043,
          "durationTicks": 360,
          "midi": 74,
          "name": "D5",
          "ticks": 85920,
          "time": 141.31566700000002,
          "velocity": 0.5511811023622047
        },
        {
          "duration": 0.5921047500000043,
          "durationTicks": 360,
          "midi": 86,
          "name": "D6",
          "ticks": 85920,
          "time": 141.31566700000002,
          "velocity": 0.5511811023622047
        },
        {
          "duration": 0.5921047500000043,
          "durationTicks": 360,
          "midi": 79,
          "name": "G5",
          "ticks": 85920,
          "time": 141.31566700000002,
          "velocity": 0.5511811023622047
        },
        {
          "duration": 1.578946000000002,
          "durationTicks": 960,
          "midi": 76,
          "name": "E5",
          "ticks": 86400,
          "time": 142.10514,
          "velocity": 0.5511811023622047
        },
        {
          "duration": 1.578946000000002,
          "durationTicks": 960,
          "midi": 71,
          "name": "B4",
          "ticks": 86400,
          "time": 142.10514,
          "velocity": 0.5511811023622047
        },
        {
          "duration": 1.578946000000002,
          "durationTicks": 960,
          "midi": 79,
          "name": "G5",
          "ticks": 86400,
          "time": 142.10514,
          "velocity": 0.5511811023622047
        },
        {
          "duration": 0.7894730000000152,
          "durationTicks": 480,
          "midi": 76,
          "name": "E5",
          "ticks": 87360,
          "time": 143.684086,
          "velocity": 0.5511811023622047
        },
        {
          "duration": 0.5921047500000043,
          "durationTicks": 360,
          "midi": 81,
          "name": "A5",
          "ticks": 87360,
          "time": 143.684086,
          "velocity": 0.5511811023622047
        },
        {
          "duration": 0.5921047500000043,
          "durationTicks": 360,
          "midi": 84,
          "name": "C6",
          "ticks": 87360,
          "time": 143.684086,
          "velocity": 0.5511811023622047
        },
        {
          "duration": 0.5921047500000043,
          "durationTicks": 360,
          "midi": 81,
          "name": "A5",
          "ticks": 87840,
          "time": 144.47355900000002,
          "velocity": 0.5433070866141733
        },
        {
          "duration": 0.5921047500000043,
          "durationTicks": 360,
          "midi": 76,
          "name": "E5",
          "ticks": 87840,
          "time": 144.47355900000002,
          "velocity": 0.5433070866141733
        },
        {
          "duration": 0.19736824999998248,
          "durationTicks": 120,
          "midi": 76,
          "name": "E5",
          "ticks": 88200,
          "time": 145.06566375000003,
          "velocity": 0.5433070866141733
        },
        {
          "duration": 1.578946000000002,
          "durationTicks": 960,
          "midi": 72,
          "name": "C5",
          "ticks": 88320,
          "time": 145.263032,
          "velocity": 0.5433070866141733
        },
        {
          "duration": 1.578946000000002,
          "durationTicks": 960,
          "midi": 77,
          "name": "F5",
          "ticks": 88320,
          "time": 145.263032,
          "velocity": 0.5433070866141733
        },
        {
          "duration": 1.578946000000002,
          "durationTicks": 960,
          "midi": 81,
          "name": "A5",
          "ticks": 88320,
          "time": 145.263032,
          "velocity": 0.5433070866141733
        },
        {
          "duration": 0.47368380000000343,
          "durationTicks": 288,
          "midi": 74,
          "name": "D5",
          "ticks": 89280,
          "time": 146.841978,
          "velocity": 0.5433070866141733
        },
        {
          "duration": 0.7894730000000152,
          "durationTicks": 480,
          "midi": 79,
          "name": "G5",
          "ticks": 89280,
          "time": 146.841978,
          "velocity": 0.5433070866141733
        },
        {
          "duration": 0.5921047500000043,
          "durationTicks": 360,
          "midi": 83,
          "name": "B5",
          "ticks": 89280,
          "time": 146.841978,
          "velocity": 0.5433070866141733
        },
        {
          "duration": 0.7894729999999868,
          "durationTicks": 480,
          "midi": 79,
          "name": "G5",
          "ticks": 89760,
          "time": 147.63145100000003,
          "velocity": 0.5354330708661418
        },
        {
          "duration": 0.5921047500000043,
          "durationTicks": 360,
          "midi": 74,
          "name": "D5",
          "ticks": 89760,
          "time": 147.63145100000003,
          "velocity": 0.5354330708661418
        },
        {
          "duration": 0.5921047500000043,
          "durationTicks": 360,
          "midi": 86,
          "name": "D6",
          "ticks": 89760,
          "time": 147.63145100000003,
          "velocity": 0.5354330708661418
        },
        {
          "duration": 0,
          "durationTicks": 0,
          "midi": 76,
          "name": "E5",
          "ticks": 90240,
          "time": 148.420924,
          "velocity": 0.5354330708661418
        },
        {
          "duration": 1.5723670583333558,
          "durationTicks": 956,
          "midi": 71,
          "name": "B4",
          "ticks": 90240,
          "time": 148.420924,
          "velocity": 0.5354330708661418
        },
        {
          "duration": 1.5723670583333558,
          "durationTicks": 956,
          "midi": 79,
          "name": "G5",
          "ticks": 90240,
          "time": 148.420924,
          "velocity": 0.5354330708661418
        },
        {
          "duration": 1.5723670583333558,
          "durationTicks": 956,
          "midi": 76,
          "name": "E5",
          "ticks": 90240,
          "time": 148.420924,
          "velocity": 0.5354330708661418
        },
        {
          "duration": 1.381577749999991,
          "durationTicks": 840,
          "midi": 79,
          "name": "G5",
          "ticks": 91200,
          "time": 149.99987000000002,
          "velocity": 0.7007874015748031
        },
        {
          "duration": 1.381577749999991,
          "durationTicks": 840,
          "midi": 83,
          "name": "B5",
          "ticks": 91200,
          "time": 149.99987000000002,
          "velocity": 0.7795275590551181
        },
        {
          "duration": 1.381577749999991,
          "durationTicks": 840,
          "midi": 76,
          "name": "E5",
          "ticks": 91200,
          "time": 149.99987000000002,
          "velocity": 0.6377952755905512
        },
        {
          "duration": 1.381577749999991,
          "durationTicks": 840,
          "midi": 71,
          "name": "B4",
          "ticks": 91200,
          "time": 149.99987000000002,
          "velocity": 0.5826771653543307
        },
        {
          "duration": 0.5921047500000043,
          "durationTicks": 360,
          "midi": 69,
          "name": "A4",
          "ticks": 92160,
          "time": 151.57881600000002,
          "velocity": 0.5039370078740157
        },
        {
          "duration": 0.5921047500000043,
          "durationTicks": 360,
          "midi": 65,
          "name": "F4",
          "ticks": 92160,
          "time": 151.57881600000002,
          "velocity": 0.5039370078740157
        },
        {
          "duration": 0.5921047500000043,
          "durationTicks": 360,
          "midi": 72,
          "name": "C5",
          "ticks": 92160,
          "time": 151.57881600000002,
          "velocity": 0.5039370078740157
        },
        {
          "duration": 0.7894730000000152,
          "durationTicks": 480,
          "midi": 72,
          "name": "C5",
          "ticks": 92640,
          "time": 152.368289,
          "velocity": 0.5039370078740157
        },
        {
          "duration": 0.7894730000000152,
          "durationTicks": 480,
          "midi": 65,
          "name": "F4",
          "ticks": 92640,
          "time": 152.368289,
          "velocity": 0.5039370078740157
        },
        {
          "duration": 0.7894730000000152,
          "durationTicks": 480,
          "midi": 69,
          "name": "A4",
          "ticks": 92640,
          "time": 152.368289,
          "velocity": 0.5039370078740157
        },
        {
          "duration": 0,
          "durationTicks": 0,
          "midi": 67,
          "name": "G4",
          "ticks": 93120,
          "time": 153.15776200000002,
          "velocity": 0.5039370078740157
        },
        {
          "duration": 0,
          "durationTicks": 0,
          "midi": 71,
          "name": "B4",
          "ticks": 93120,
          "time": 153.15776200000002,
          "velocity": 0.5039370078740157
        },
        {
          "duration": 0,
          "durationTicks": 0,
          "midi": 74,
          "name": "D5",
          "ticks": 93120,
          "time": 153.15776200000002,
          "velocity": 0.5039370078740157
        },
        {
          "duration": 0.5921047500000043,
          "durationTicks": 360,
          "midi": 71,
          "name": "B4",
          "ticks": 93120,
          "time": 153.15776200000002,
          "velocity": 0.5039370078740157
        },
        {
          "duration": 0.7894729999999868,
          "durationTicks": 480,
          "midi": 67,
          "name": "G4",
          "ticks": 93120,
          "time": 153.15776200000002,
          "velocity": 0.5039370078740157
        },
        {
          "duration": 0.7894729999999868,
          "durationTicks": 480,
          "midi": 74,
          "name": "D5",
          "ticks": 93120,
          "time": 153.15776200000002,
          "velocity": 0.5039370078740157
        },
        {
          "duration": 0.3947365000000218,
          "durationTicks": 240,
          "midi": 67,
          "name": "G4",
          "ticks": 93600,
          "time": 153.947235,
          "velocity": 0.5039370078740157
        },
        {
          "duration": 0.3947365000000218,
          "durationTicks": 240,
          "midi": 71,
          "name": "B4",
          "ticks": 93600,
          "time": 153.947235,
          "velocity": 0.5039370078740157
        },
        {
          "duration": 0.3947365000000218,
          "durationTicks": 240,
          "midi": 74,
          "name": "D5",
          "ticks": 93600,
          "time": 153.947235,
          "velocity": 0.5039370078740157
        },
        {
          "duration": 0.374999674999998,
          "durationTicks": 228,
          "midi": 62,
          "name": "D4",
          "ticks": 93840,
          "time": 154.34197150000003,
          "velocity": 0.5039370078740157
        },
        {
          "duration": 0.7894729999999868,
          "durationTicks": 480,
          "midi": 64,
          "name": "E4",
          "ticks": 94080,
          "time": 154.73670800000002,
          "velocity": 0.5039370078740157
        },
        {
          "duration": 0.7894729999999868,
          "durationTicks": 480,
          "midi": 67,
          "name": "G4",
          "ticks": 94080,
          "time": 154.73670800000002,
          "velocity": 0.5039370078740157
        },
        {
          "duration": 0.7894729999999868,
          "durationTicks": 480,
          "midi": 60,
          "name": "C4",
          "ticks": 94080,
          "time": 154.73670800000002,
          "velocity": 0.5039370078740157
        },
        {
          "duration": 0,
          "durationTicks": 0,
          "midi": 65,
          "name": "F4",
          "ticks": 94560,
          "time": 155.526181,
          "velocity": 0.5039370078740157
        },
        {
          "duration": 0,
          "durationTicks": 0,
          "midi": 71,
          "name": "B4",
          "ticks": 94560,
          "time": 155.526181,
          "velocity": 0.5039370078740157
        },
        {
          "duration": 0,
          "durationTicks": 0,
          "midi": 74,
          "name": "D5",
          "ticks": 94560,
          "time": 155.526181,
          "velocity": 0.5039370078740157
        },
        {
          "duration": 0.5921047500000043,
          "durationTicks": 360,
          "midi": 65,
          "name": "F4",
          "ticks": 94560,
          "time": 155.526181,
          "velocity": 0.5039370078740157
        },
        {
          "duration": 0.5921047500000043,
          "durationTicks": 360,
          "midi": 74,
          "name": "D5",
          "ticks": 94560,
          "time": 155.526181,
          "velocity": 0.5039370078740157
        },
        {
          "duration": 0.5921047500000043,
          "durationTicks": 360,
          "midi": 71,
          "name": "B4",
          "ticks": 94560,
          "time": 155.526181,
          "velocity": 0.5039370078740157
        },
        {
          "duration": 0.7894729999999868,
          "durationTicks": 480,
          "midi": 69,
          "name": "A4",
          "ticks": 95040,
          "time": 156.31565400000002,
          "velocity": 0.5039370078740157
        },
        {
          "duration": 0.5921047500000043,
          "durationTicks": 360,
          "midi": 72,
          "name": "C5",
          "ticks": 95040,
          "time": 156.31565400000002,
          "velocity": 0.5039370078740157
        },
        {
          "duration": 0.3947364999999934,
          "durationTicks": 240,
          "midi": 76,
          "name": "E5",
          "ticks": 95040,
          "time": 156.31565400000002,
          "velocity": 0.5039370078740157
        },
        {
          "duration": 0.19736824999998248,
          "durationTicks": 120,
          "midi": 64,
          "name": "E4",
          "ticks": 95400,
          "time": 156.90775875000003,
          "velocity": 0.5118110236220472
        },
        {
          "duration": 0.1973682500000109,
          "durationTicks": 120,
          "midi": 76,
          "name": "E5",
          "ticks": 95520,
          "time": 157.105127,
          "velocity": 0.5118110236220472
        },
        {
          "duration": 0.1973682500000109,
          "durationTicks": 120,
          "midi": 72,
          "name": "C5",
          "ticks": 95640,
          "time": 157.30249525000002,
          "velocity": 0.5118110236220472
        },
        {
          "duration": 0.37499967499996956,
          "durationTicks": 228,
          "midi": 69,
          "name": "A4",
          "ticks": 95760,
          "time": 157.49986350000003,
          "velocity": 0.5118110236220472
        },
        {
          "duration": 0.7894729999999868,
          "durationTicks": 480,
          "midi": 69,
          "name": "A4",
          "ticks": 96000,
          "time": 157.89460000000003,
          "velocity": 0.5118110236220472
        },
        {
          "duration": 0.7894729999999868,
          "durationTicks": 480,
          "midi": 72,
          "name": "C5",
          "ticks": 96000,
          "time": 157.89460000000003,
          "velocity": 0.5118110236220472
        },
        {
          "duration": 0.7894730000000152,
          "durationTicks": 480,
          "midi": 65,
          "name": "F4",
          "ticks": 96480,
          "time": 158.684073,
          "velocity": 0.5118110236220472
        },
        {
          "duration": 0.7894730000000152,
          "durationTicks": 480,
          "midi": 69,
          "name": "A4",
          "ticks": 96480,
          "time": 158.684073,
          "velocity": 0.5118110236220472
        },
        {
          "duration": 0.7894730000000152,
          "durationTicks": 480,
          "midi": 72,
          "name": "C5",
          "ticks": 96480,
          "time": 158.684073,
          "velocity": 0.5118110236220472
        },
        {
          "duration": 0,
          "durationTicks": 0,
          "midi": 67,
          "name": "G4",
          "ticks": 96960,
          "time": 159.47354600000003,
          "velocity": 0.5118110236220472
        },
        {
          "duration": 0,
          "durationTicks": 0,
          "midi": 71,
          "name": "B4",
          "ticks": 96960,
          "time": 159.47354600000003,
          "velocity": 0.5118110236220472
        },
        {
          "duration": 0,
          "durationTicks": 0,
          "midi": 74,
          "name": "D5",
          "ticks": 96960,
          "time": 159.47354600000003,
          "velocity": 0.5118110236220472
        },
        {
          "duration": 0.5921047500000043,
          "durationTicks": 360,
          "midi": 71,
          "name": "B4",
          "ticks": 96960,
          "time": 159.47354600000003,
          "velocity": 0.5118110236220472
        },
        {
          "duration": 0.5921047500000043,
          "durationTicks": 360,
          "midi": 74,
          "name": "D5",
          "ticks": 96960,
          "time": 159.47354600000003,
          "velocity": 0.5118110236220472
        },
        {
          "duration": 0.5921047500000043,
          "durationTicks": 360,
          "midi": 67,
          "name": "G4",
          "ticks": 96960,
          "time": 159.47354600000003,
          "velocity": 0.5118110236220472
        },
        {
          "duration": 0.3947364999999934,
          "durationTicks": 240,
          "midi": 67,
          "name": "G4",
          "ticks": 97440,
          "time": 160.263019,
          "velocity": 0.5118110236220472
        },
        {
          "duration": 0.3947364999999934,
          "durationTicks": 240,
          "midi": 71,
          "name": "B4",
          "ticks": 97440,
          "time": 160.263019,
          "velocity": 0.5118110236220472
        },
        {
          "duration": 0.3947364999999934,
          "durationTicks": 240,
          "midi": 74,
          "name": "D5",
          "ticks": 97440,
          "time": 160.263019,
          "velocity": 0.5118110236220472
        },
        {
          "duration": 0.374999674999998,
          "durationTicks": 228,
          "midi": 62,
          "name": "D4",
          "ticks": 97680,
          "time": 160.6577555,
          "velocity": 0.5118110236220472
        },
        {
          "duration": 0.7894729999999868,
          "durationTicks": 480,
          "midi": 69,
          "name": "A4",
          "ticks": 97920,
          "time": 161.05249200000003,
          "velocity": 0.5118110236220472
        },
        {
          "duration": 0.5921047499999759,
          "durationTicks": 360,
          "midi": 76,
          "name": "E5",
          "ticks": 97920,
          "time": 161.05249200000003,
          "velocity": 0.5118110236220472
        },
        {
          "duration": 0.7894729999999868,
          "durationTicks": 480,
          "midi": 72,
          "name": "C5",
          "ticks": 97920,
          "time": 161.05249200000003,
          "velocity": 0.5118110236220472
        },
        {
          "duration": 0.5921047500000043,
          "durationTicks": 360,
          "midi": 69,
          "name": "A4",
          "ticks": 98400,
          "time": 161.84196500000002,
          "velocity": 0.5118110236220472
        },
        {
          "duration": 0.5921047500000043,
          "durationTicks": 360,
          "midi": 76,
          "name": "E5",
          "ticks": 98400,
          "time": 161.84196500000002,
          "velocity": 0.5118110236220472
        },
        {
          "duration": 0.5921047500000043,
          "durationTicks": 360,
          "midi": 72,
          "name": "C5",
          "ticks": 98400,
          "time": 161.84196500000002,
          "velocity": 0.5118110236220472
        },
        {
          "duration": 0.5921047499999759,
          "durationTicks": 360,
          "midi": 69,
          "name": "A4",
          "ticks": 98880,
          "time": 162.63143800000003,
          "velocity": 0.5196850393700787
        },
        {
          "duration": 0.5921047499999759,
          "durationTicks": 360,
          "midi": 72,
          "name": "C5",
          "ticks": 98880,
          "time": 162.63143800000003,
          "velocity": 0.5196850393700787
        },
        {
          "duration": 0.3947364999999934,
          "durationTicks": 240,
          "midi": 76,
          "name": "E5",
          "ticks": 98880,
          "time": 162.63143800000003,
          "velocity": 0.5196850393700787
        },
        {
          "duration": 0.1973682500000109,
          "durationTicks": 120,
          "midi": 64,
          "name": "E4",
          "ticks": 99240,
          "time": 163.22354275,
          "velocity": 0.4881889763779528
        },
        {
          "duration": 0.1973682500000109,
          "durationTicks": 120,
          "midi": 76,
          "name": "E5",
          "ticks": 99360,
          "time": 163.42091100000002,
          "velocity": 0.4881889763779528
        },
        {
          "duration": 0.19736824999998248,
          "durationTicks": 120,
          "midi": 72,
          "name": "C5",
          "ticks": 99480,
          "time": 163.61827925000003,
          "velocity": 0.4881889763779528
        },
        {
          "duration": 0.1973682500000109,
          "durationTicks": 120,
          "midi": 69,
          "name": "A4",
          "ticks": 99600,
          "time": 163.8156475,
          "velocity": 0.4881889763779528
        },
        {
          "duration": 0.5921047499999759,
          "durationTicks": 360,
          "midi": 69,
          "name": "A4",
          "ticks": 99840,
          "time": 164.21038400000003,
          "velocity": 0.5039370078740157
        },
        {
          "duration": 0.5921047499999759,
          "durationTicks": 360,
          "midi": 65,
          "name": "F4",
          "ticks": 99840,
          "time": 164.21038400000003,
          "velocity": 0.5039370078740157
        },
        {
          "duration": 0.5921047499999759,
          "durationTicks": 360,
          "midi": 72,
          "name": "C5",
          "ticks": 99840,
          "time": 164.21038400000003,
          "velocity": 0.5039370078740157
        },
        {
          "duration": 0.7894729999999868,
          "durationTicks": 480,
          "midi": 72,
          "name": "C5",
          "ticks": 100320,
          "time": 164.99985700000002,
          "velocity": 0.5039370078740157
        },
        {
          "duration": 0.7894729999999868,
          "durationTicks": 480,
          "midi": 65,
          "name": "F4",
          "ticks": 100320,
          "time": 164.99985700000002,
          "velocity": 0.5039370078740157
        },
        {
          "duration": 0.7894729999999868,
          "durationTicks": 480,
          "midi": 69,
          "name": "A4",
          "ticks": 100320,
          "time": 164.99985700000002,
          "velocity": 0.5039370078740157
        },
        {
          "duration": 0,
          "durationTicks": 0,
          "midi": 67,
          "name": "G4",
          "ticks": 100800,
          "time": 165.78933,
          "velocity": 0.5039370078740157
        },
        {
          "duration": 0,
          "durationTicks": 0,
          "midi": 71,
          "name": "B4",
          "ticks": 100800,
          "time": 165.78933,
          "velocity": 0.5039370078740157
        },
        {
          "duration": 0,
          "durationTicks": 0,
          "midi": 74,
          "name": "D5",
          "ticks": 100800,
          "time": 165.78933,
          "velocity": 0.5039370078740157
        },
        {
          "duration": 0.5921047500000043,
          "durationTicks": 360,
          "midi": 71,
          "name": "B4",
          "ticks": 100800,
          "time": 165.78933,
          "velocity": 0.5039370078740157
        },
        {
          "duration": 0.7894730000000152,
          "durationTicks": 480,
          "midi": 67,
          "name": "G4",
          "ticks": 100800,
          "time": 165.78933,
          "velocity": 0.5039370078740157
        },
        {
          "duration": 0.7894730000000152,
          "durationTicks": 480,
          "midi": 74,
          "name": "D5",
          "ticks": 100800,
          "time": 165.78933,
          "velocity": 0.5039370078740157
        },
        {
          "duration": 0.3947364999999934,
          "durationTicks": 240,
          "midi": 67,
          "name": "G4",
          "ticks": 101280,
          "time": 166.57880300000002,
          "velocity": 0.5039370078740157
        },
        {
          "duration": 0.3947364999999934,
          "durationTicks": 240,
          "midi": 71,
          "name": "B4",
          "ticks": 101280,
          "time": 166.57880300000002,
          "velocity": 0.5039370078740157
        },
        {
          "duration": 0.3947364999999934,
          "durationTicks": 240,
          "midi": 74,
          "name": "D5",
          "ticks": 101280,
          "time": 166.57880300000002,
          "velocity": 0.5039370078740157
        },
        {
          "duration": 0.374999674999998,
          "durationTicks": 228,
          "midi": 62,
          "name": "D4",
          "ticks": 101520,
          "time": 166.97353950000002,
          "velocity": 0.5039370078740157
        },
        {
          "duration": 0.7894730000000152,
          "durationTicks": 480,
          "midi": 64,
          "name": "E4",
          "ticks": 101760,
          "time": 167.368276,
          "velocity": 0.5039370078740157
        },
        {
          "duration": 0.7894730000000152,
          "durationTicks": 480,
          "midi": 67,
          "name": "G4",
          "ticks": 101760,
          "time": 167.368276,
          "velocity": 0.5039370078740157
        },
        {
          "duration": 0.7894730000000152,
          "durationTicks": 480,
          "midi": 60,
          "name": "C4",
          "ticks": 101760,
          "time": 167.368276,
          "velocity": 0.5039370078740157
        },
        {
          "duration": 0,
          "durationTicks": 0,
          "midi": 65,
          "name": "F4",
          "ticks": 102240,
          "time": 168.15774900000002,
          "velocity": 0.5039370078740157
        },
        {
          "duration": 0,
          "durationTicks": 0,
          "midi": 71,
          "name": "B4",
          "ticks": 102240,
          "time": 168.15774900000002,
          "velocity": 0.5039370078740157
        },
        {
          "duration": 0,
          "durationTicks": 0,
          "midi": 74,
          "name": "D5",
          "ticks": 102240,
          "time": 168.15774900000002,
          "velocity": 0.5039370078740157
        },
        {
          "duration": 0.5921047500000043,
          "durationTicks": 360,
          "midi": 65,
          "name": "F4",
          "ticks": 102240,
          "time": 168.15774900000002,
          "velocity": 0.5039370078740157
        },
        {
          "duration": 0.5921047500000043,
          "durationTicks": 360,
          "midi": 74,
          "name": "D5",
          "ticks": 102240,
          "time": 168.15774900000002,
          "velocity": 0.5039370078740157
        },
        {
          "duration": 0.5921047500000043,
          "durationTicks": 360,
          "midi": 71,
          "name": "B4",
          "ticks": 102240,
          "time": 168.15774900000002,
          "velocity": 0.5039370078740157
        },
        {
          "duration": 0.7894730000000152,
          "durationTicks": 480,
          "midi": 69,
          "name": "A4",
          "ticks": 102720,
          "time": 168.947222,
          "velocity": 0.5039370078740157
        },
        {
          "duration": 0.5921047500000043,
          "durationTicks": 360,
          "midi": 72,
          "name": "C5",
          "ticks": 102720,
          "time": 168.947222,
          "velocity": 0.5039370078740157
        },
        {
          "duration": 0.3947365000000218,
          "durationTicks": 240,
          "midi": 76,
          "name": "E5",
          "ticks": 102720,
          "time": 168.947222,
          "velocity": 0.5039370078740157
        },
        {
          "duration": 0.1973682500000109,
          "durationTicks": 120,
          "midi": 64,
          "name": "E4",
          "ticks": 103080,
          "time": 169.53932675000001,
          "velocity": 0.5118110236220472
        },
        {
          "duration": 0.19736824999998248,
          "durationTicks": 120,
          "midi": 76,
          "name": "E5",
          "ticks": 103200,
          "time": 169.73669500000003,
          "velocity": 0.5118110236220472
        },
        {
          "duration": 0.1973682500000109,
          "durationTicks": 120,
          "midi": 72,
          "name": "C5",
          "ticks": 103320,
          "time": 169.93406325,
          "velocity": 0.5118110236220472
        },
        {
          "duration": 0.374999674999998,
          "durationTicks": 228,
          "midi": 69,
          "name": "A4",
          "ticks": 103440,
          "time": 170.13143150000002,
          "velocity": 0.5118110236220472
        },
        {
          "duration": 0.7894730000000152,
          "durationTicks": 480,
          "midi": 69,
          "name": "A4",
          "ticks": 103680,
          "time": 170.526168,
          "velocity": 0.5118110236220472
        },
        {
          "duration": 0.7894730000000152,
          "durationTicks": 480,
          "midi": 72,
          "name": "C5",
          "ticks": 103680,
          "time": 170.526168,
          "velocity": 0.5118110236220472
        },
        {
          "duration": 0.7894729999999868,
          "durationTicks": 480,
          "midi": 65,
          "name": "F4",
          "ticks": 104160,
          "time": 171.31564100000003,
          "velocity": 0.5118110236220472
        },
        {
          "duration": 0.7894729999999868,
          "durationTicks": 480,
          "midi": 69,
          "name": "A4",
          "ticks": 104160,
          "time": 171.31564100000003,
          "velocity": 0.5118110236220472
        },
        {
          "duration": 0.7894729999999868,
          "durationTicks": 480,
          "midi": 72,
          "name": "C5",
          "ticks": 104160,
          "time": 171.31564100000003,
          "velocity": 0.5118110236220472
        },
        {
          "duration": 0,
          "durationTicks": 0,
          "midi": 67,
          "name": "G4",
          "ticks": 104640,
          "time": 172.10511400000001,
          "velocity": 0.5118110236220472
        },
        {
          "duration": 0,
          "durationTicks": 0,
          "midi": 71,
          "name": "B4",
          "ticks": 104640,
          "time": 172.10511400000001,
          "velocity": 0.5118110236220472
        },
        {
          "duration": 0,
          "durationTicks": 0,
          "midi": 74,
          "name": "D5",
          "ticks": 104640,
          "time": 172.10511400000001,
          "velocity": 0.5118110236220472
        },
        {
          "duration": 0.5921047500000043,
          "durationTicks": 360,
          "midi": 71,
          "name": "B4",
          "ticks": 104640,
          "time": 172.10511400000001,
          "velocity": 0.5118110236220472
        },
        {
          "duration": 0.5921047500000043,
          "durationTicks": 360,
          "midi": 74,
          "name": "D5",
          "ticks": 104640,
          "time": 172.10511400000001,
          "velocity": 0.5118110236220472
        },
        {
          "duration": 0.5921047500000043,
          "durationTicks": 360,
          "midi": 67,
          "name": "G4",
          "ticks": 104640,
          "time": 172.10511400000001,
          "velocity": 0.5118110236220472
        },
        {
          "duration": 0.3947364999999934,
          "durationTicks": 240,
          "midi": 67,
          "name": "G4",
          "ticks": 105120,
          "time": 172.89458700000003,
          "velocity": 0.5118110236220472
        },
        {
          "duration": 0.3947364999999934,
          "durationTicks": 240,
          "midi": 71,
          "name": "B4",
          "ticks": 105120,
          "time": 172.89458700000003,
          "velocity": 0.5118110236220472
        },
        {
          "duration": 0.3947364999999934,
          "durationTicks": 240,
          "midi": 74,
          "name": "D5",
          "ticks": 105120,
          "time": 172.89458700000003,
          "velocity": 0.5118110236220472
        },
        {
          "duration": 0.374999674999998,
          "durationTicks": 228,
          "midi": 62,
          "name": "D4",
          "ticks": 105360,
          "time": 173.28932350000002,
          "velocity": 0.5118110236220472
        },
        {
          "duration": 0.7894730000000152,
          "durationTicks": 480,
          "midi": 69,
          "name": "A4",
          "ticks": 105600,
          "time": 173.68406000000002,
          "velocity": 0.5118110236220472
        },
        {
          "duration": 0.5921047500000043,
          "durationTicks": 360,
          "midi": 76,
          "name": "E5",
          "ticks": 105600,
          "time": 173.68406000000002,
          "velocity": 0.5118110236220472
        },
        {
          "duration": 0.7894730000000152,
          "durationTicks": 480,
          "midi": 72,
          "name": "C5",
          "ticks": 105600,
          "time": 173.68406000000002,
          "velocity": 0.5118110236220472
        },
        {
          "duration": 0.5921047499999759,
          "durationTicks": 360,
          "midi": 69,
          "name": "A4",
          "ticks": 106080,
          "time": 174.47353300000003,
          "velocity": 0.5118110236220472
        },
        {
          "duration": 0.5921047499999759,
          "durationTicks": 360,
          "midi": 76,
          "name": "E5",
          "ticks": 106080,
          "time": 174.47353300000003,
          "velocity": 0.5118110236220472
        },
        {
          "duration": 0.5921047499999759,
          "durationTicks": 360,
          "midi": 72,
          "name": "C5",
          "ticks": 106080,
          "time": 174.47353300000003,
          "velocity": 0.5118110236220472
        },
        {
          "duration": 1.1842095000000086,
          "durationTicks": 720,
          "midi": 72,
          "name": "C5",
          "ticks": 106560,
          "time": 175.26300600000002,
          "velocity": 0.4881889763779528
        },
        {
          "duration": 0.9868412499999977,
          "durationTicks": 600,
          "midi": 64,
          "name": "E4",
          "ticks": 106560,
          "time": 175.26300600000002,
          "velocity": 0.4881889763779528
        },
        {
          "duration": 1.1842095000000086,
          "durationTicks": 720,
          "midi": 69,
          "name": "A4",
          "ticks": 106560,
          "time": 175.26300600000002,
          "velocity": 0.4881889763779528
        },
        {
          "duration": 0.5921047500000043,
          "durationTicks": 360,
          "midi": 69,
          "name": "A4",
          "ticks": 107520,
          "time": 176.84195200000002,
          "velocity": 0.5039370078740157
        },
        {
          "duration": 0.5921047500000043,
          "durationTicks": 360,
          "midi": 65,
          "name": "F4",
          "ticks": 107520,
          "time": 176.84195200000002,
          "velocity": 0.5039370078740157
        },
        {
          "duration": 0.5921047500000043,
          "durationTicks": 360,
          "midi": 72,
          "name": "C5",
          "ticks": 107520,
          "time": 176.84195200000002,
          "velocity": 0.5039370078740157
        },
        {
          "duration": 0.7894730000000152,
          "durationTicks": 480,
          "midi": 72,
          "name": "C5",
          "ticks": 108000,
          "time": 177.631425,
          "velocity": 0.5039370078740157
        },
        {
          "duration": 0.7894730000000152,
          "durationTicks": 480,
          "midi": 65,
          "name": "F4",
          "ticks": 108000,
          "time": 177.631425,
          "velocity": 0.5039370078740157
        },
        {
          "duration": 0.7894730000000152,
          "durationTicks": 480,
          "midi": 69,
          "name": "A4",
          "ticks": 108000,
          "time": 177.631425,
          "velocity": 0.5039370078740157
        },
        {
          "duration": 0,
          "durationTicks": 0,
          "midi": 67,
          "name": "G4",
          "ticks": 108480,
          "time": 178.42089800000002,
          "velocity": 0.5039370078740157
        },
        {
          "duration": 0,
          "durationTicks": 0,
          "midi": 71,
          "name": "B4",
          "ticks": 108480,
          "time": 178.42089800000002,
          "velocity": 0.5039370078740157
        },
        {
          "duration": 0,
          "durationTicks": 0,
          "midi": 74,
          "name": "D5",
          "ticks": 108480,
          "time": 178.42089800000002,
          "velocity": 0.5039370078740157
        },
        {
          "duration": 0.5921047500000043,
          "durationTicks": 360,
          "midi": 71,
          "name": "B4",
          "ticks": 108480,
          "time": 178.42089800000002,
          "velocity": 0.5039370078740157
        },
        {
          "duration": 0.7894729999999868,
          "durationTicks": 480,
          "midi": 67,
          "name": "G4",
          "ticks": 108480,
          "time": 178.42089800000002,
          "velocity": 0.5039370078740157
        },
        {
          "duration": 0.7894729999999868,
          "durationTicks": 480,
          "midi": 74,
          "name": "D5",
          "ticks": 108480,
          "time": 178.42089800000002,
          "velocity": 0.5039370078740157
        },
        {
          "duration": 0.3947365000000218,
          "durationTicks": 240,
          "midi": 67,
          "name": "G4",
          "ticks": 108960,
          "time": 179.210371,
          "velocity": 0.5039370078740157
        },
        {
          "duration": 0.3947365000000218,
          "durationTicks": 240,
          "midi": 71,
          "name": "B4",
          "ticks": 108960,
          "time": 179.210371,
          "velocity": 0.5039370078740157
        },
        {
          "duration": 0.3947365000000218,
          "durationTicks": 240,
          "midi": 74,
          "name": "D5",
          "ticks": 108960,
          "time": 179.210371,
          "velocity": 0.5039370078740157
        },
        {
          "duration": 0.374999674999998,
          "durationTicks": 228,
          "midi": 62,
          "name": "D4",
          "ticks": 109200,
          "time": 179.60510750000003,
          "velocity": 0.5039370078740157
        },
        {
          "duration": 0.7894729999999868,
          "durationTicks": 480,
          "midi": 67,
          "name": "G4",
          "ticks": 109440,
          "time": 179.99984400000002,
          "velocity": 0.5039370078740157
        },
        {
          "duration": 0.7894729999999868,
          "durationTicks": 480,
          "midi": 71,
          "name": "B4",
          "ticks": 109440,
          "time": 179.99984400000002,
          "velocity": 0.5039370078740157
        },
        {
          "duration": 0.7894729999999868,
          "durationTicks": 480,
          "midi": 62,
          "name": "D4",
          "ticks": 109440,
          "time": 179.99984400000002,
          "velocity": 0.5039370078740157
        },
        {
          "duration": 0.5921047500000043,
          "durationTicks": 360,
          "midi": 62,
          "name": "D4",
          "ticks": 109920,
          "time": 180.789317,
          "velocity": 0.5039370078740157
        },
        {
          "duration": 0.5921047500000043,
          "durationTicks": 360,
          "midi": 71,
          "name": "B4",
          "ticks": 109920,
          "time": 180.789317,
          "velocity": 0.5039370078740157
        },
        {
          "duration": 0.5921047500000043,
          "durationTicks": 360,
          "midi": 67,
          "name": "G4",
          "ticks": 109920,
          "time": 180.789317,
          "velocity": 0.5039370078740157
        },
        {
          "duration": 0.7894729999999868,
          "durationTicks": 480,
          "midi": 69,
          "name": "A4",
          "ticks": 110400,
          "time": 181.57879000000003,
          "velocity": 0.5039370078740157
        },
        {
          "duration": 0.5921047500000043,
          "durationTicks": 360,
          "midi": 72,
          "name": "C5",
          "ticks": 110400,
          "time": 181.57879000000003,
          "velocity": 0.5039370078740157
        },
        {
          "duration": 0.3947364999999934,
          "durationTicks": 240,
          "midi": 76,
          "name": "E5",
          "ticks": 110400,
          "time": 181.57879000000003,
          "velocity": 0.5039370078740157
        },
        {
          "duration": 0.19736824999998248,
          "durationTicks": 120,
          "midi": 64,
          "name": "E4",
          "ticks": 110760,
          "time": 182.17089475000003,
          "velocity": 0.5118110236220472
        },
        {
          "duration": 0.1973682500000109,
          "durationTicks": 120,
          "midi": 76,
          "name": "E5",
          "ticks": 110880,
          "time": 182.368263,
          "velocity": 0.5118110236220472
        },
        {
          "duration": 0.1973682500000109,
          "durationTicks": 120,
          "midi": 72,
          "name": "C5",
          "ticks": 111000,
          "time": 182.56563125000002,
          "velocity": 0.5118110236220472
        },
        {
          "duration": 0.37499967499996956,
          "durationTicks": 228,
          "midi": 69,
          "name": "A4",
          "ticks": 111120,
          "time": 182.76299950000003,
          "velocity": 0.5118110236220472
        },
        {
          "duration": 0.7894729999999868,
          "durationTicks": 480,
          "midi": 65,
          "name": "F4",
          "ticks": 111360,
          "time": 183.15773600000003,
          "velocity": 0.5118110236220472
        },
        {
          "duration": 0.7894729999999868,
          "durationTicks": 480,
          "midi": 69,
          "name": "A4",
          "ticks": 111360,
          "time": 183.15773600000003,
          "velocity": 0.5118110236220472
        },
        {
          "duration": 0.7894730000000152,
          "durationTicks": 480,
          "midi": 62,
          "name": "D4",
          "ticks": 111840,
          "time": 183.94720900000002,
          "velocity": 0.5118110236220472
        },
        {
          "duration": 0.7894730000000152,
          "durationTicks": 480,
          "midi": 65,
          "name": "F4",
          "ticks": 111840,
          "time": 183.94720900000002,
          "velocity": 0.5118110236220472
        },
        {
          "duration": 0.7894730000000152,
          "durationTicks": 480,
          "midi": 69,
          "name": "A4",
          "ticks": 111840,
          "time": 183.94720900000002,
          "velocity": 0.5118110236220472
        },
        {
          "duration": 0,
          "durationTicks": 0,
          "midi": 62,
          "name": "D4",
          "ticks": 112320,
          "time": 184.73668200000003,
          "velocity": 0.5118110236220472
        },
        {
          "duration": 0,
          "durationTicks": 0,
          "midi": 67,
          "name": "G4",
          "ticks": 112320,
          "time": 184.73668200000003,
          "velocity": 0.5118110236220472
        },
        {
          "duration": 0,
          "durationTicks": 0,
          "midi": 71,
          "name": "B4",
          "ticks": 112320,
          "time": 184.73668200000003,
          "velocity": 0.5118110236220472
        },
        {
          "duration": 0.5921047500000043,
          "durationTicks": 360,
          "midi": 67,
          "name": "G4",
          "ticks": 112320,
          "time": 184.73668200000003,
          "velocity": 0.5118110236220472
        },
        {
          "duration": 0.5921047500000043,
          "durationTicks": 360,
          "midi": 71,
          "name": "B4",
          "ticks": 112320,
          "time": 184.73668200000003,
          "velocity": 0.5118110236220472
        },
        {
          "duration": 0.5921047500000043,
          "durationTicks": 360,
          "midi": 62,
          "name": "D4",
          "ticks": 112320,
          "time": 184.73668200000003,
          "velocity": 0.5118110236220472
        },
        {
          "duration": 0.3947364999999934,
          "durationTicks": 240,
          "midi": 62,
          "name": "D4",
          "ticks": 112800,
          "time": 185.52615500000002,
          "velocity": 0.5118110236220472
        },
        {
          "duration": 0.3947364999999934,
          "durationTicks": 240,
          "midi": 67,
          "name": "G4",
          "ticks": 112800,
          "time": 185.52615500000002,
          "velocity": 0.5118110236220472
        },
        {
          "duration": 0.3947364999999934,
          "durationTicks": 240,
          "midi": 71,
          "name": "B4",
          "ticks": 112800,
          "time": 185.52615500000002,
          "velocity": 0.5118110236220472
        },
        {
          "duration": 0.374999674999998,
          "durationTicks": 228,
          "midi": 59,
          "name": "B3",
          "ticks": 113040,
          "time": 185.9208915,
          "velocity": 0.5118110236220472
        },
        {
          "duration": 0.7894729999999868,
          "durationTicks": 480,
          "midi": 65,
          "name": "F4",
          "ticks": 113280,
          "time": 186.31562800000003,
          "velocity": 0.5118110236220472
        },
        {
          "duration": 0.5921047499999759,
          "durationTicks": 360,
          "midi": 72,
          "name": "C5",
          "ticks": 113280,
          "time": 186.31562800000003,
          "velocity": 0.5118110236220472
        },
        {
          "duration": 0.7894729999999868,
          "durationTicks": 480,
          "midi": 69,
          "name": "A4",
          "ticks": 113280,
          "time": 186.31562800000003,
          "velocity": 0.5118110236220472
        },
        {
          "duration": 0.5921047500000043,
          "durationTicks": 360,
          "midi": 65,
          "name": "F4",
          "ticks": 113760,
          "time": 187.10510100000002,
          "velocity": 0.5118110236220472
        },
        {
          "duration": 0.5921047500000043,
          "durationTicks": 360,
          "midi": 72,
          "name": "C5",
          "ticks": 113760,
          "time": 187.10510100000002,
          "velocity": 0.5118110236220472
        },
        {
          "duration": 0.5921047500000043,
          "durationTicks": 360,
          "midi": 69,
          "name": "A4",
          "ticks": 113760,
          "time": 187.10510100000002,
          "velocity": 0.5118110236220472
        },
        {
          "duration": 0.5921047499999759,
          "durationTicks": 360,
          "midi": 65,
          "name": "F4",
          "ticks": 114240,
          "time": 187.89457400000003,
          "velocity": 0.5196850393700787
        },
        {
          "duration": 0.5921047499999759,
          "durationTicks": 360,
          "midi": 71,
          "name": "B4",
          "ticks": 114240,
          "time": 187.89457400000003,
          "velocity": 0.5196850393700787
        },
        {
          "duration": 0.3947364999999934,
          "durationTicks": 240,
          "midi": 74,
          "name": "D5",
          "ticks": 114240,
          "time": 187.89457400000003,
          "velocity": 0.5196850393700787
        },
        {
          "duration": 0.1973682500000109,
          "durationTicks": 120,
          "midi": 62,
          "name": "D4",
          "ticks": 114600,
          "time": 188.48667875,
          "velocity": 0.4881889763779528
        },
        {
          "duration": 0.1973682500000109,
          "durationTicks": 120,
          "midi": 74,
          "name": "D5",
          "ticks": 114720,
          "time": 188.68404700000002,
          "velocity": 0.4881889763779528
        },
        {
          "duration": 0.19736824999998248,
          "durationTicks": 120,
          "midi": 71,
          "name": "B4",
          "ticks": 114840,
          "time": 188.88141525000003,
          "velocity": 0.4881889763779528
        },
        {
          "duration": 0.1973682500000109,
          "durationTicks": 120,
          "midi": 65,
          "name": "F4",
          "ticks": 114960,
          "time": 189.07878350000001,
          "velocity": 0.4881889763779528
        },
        {
          "duration": 0.9868412499999977,
          "durationTicks": 600,
          "midi": 60,
          "name": "C4",
          "ticks": 117120,
          "time": 192.631412,
          "velocity": 0.4251968503937008
        },
        {
          "duration": 0.9868412499999977,
          "durationTicks": 600,
          "midi": 69,
          "name": "A4",
          "ticks": 117120,
          "time": 192.631412,
          "velocity": 0.4251968503937008
        },
        {
          "duration": 0.9868412499999977,
          "durationTicks": 600,
          "midi": 65,
          "name": "F4",
          "ticks": 117120,
          "time": 192.631412,
          "velocity": 0.4251968503937008
        },
        {
          "duration": 0.3947364999999934,
          "durationTicks": 240,
          "midi": 60,
          "name": "C4",
          "ticks": 117840,
          "time": 193.81562150000002,
          "velocity": 0.4251968503937008
        },
        {
          "duration": 0.3947364999999934,
          "durationTicks": 240,
          "midi": 65,
          "name": "F4",
          "ticks": 117840,
          "time": 193.81562150000002,
          "velocity": 0.4251968503937008
        },
        {
          "duration": 0.3947364999999934,
          "durationTicks": 240,
          "midi": 69,
          "name": "A4",
          "ticks": 117840,
          "time": 193.81562150000002,
          "velocity": 0.4251968503937008
        },
        {
          "duration": 1.1842095000000086,
          "durationTicks": 720,
          "midi": 62,
          "name": "D4",
          "ticks": 118080,
          "time": 194.210358,
          "velocity": 0.4251968503937008
        },
        {
          "duration": 1.1842095000000086,
          "durationTicks": 720,
          "midi": 67,
          "name": "G4",
          "ticks": 118080,
          "time": 194.210358,
          "velocity": 0.4251968503937008
        },
        {
          "duration": 1.1842095000000086,
          "durationTicks": 720,
          "midi": 71,
          "name": "B4",
          "ticks": 118080,
          "time": 194.210358,
          "velocity": 0.4251968503937008
        },
        {
          "duration": 0.7894730000000152,
          "durationTicks": 480,
          "midi": 60,
          "name": "C4",
          "ticks": 119040,
          "time": 195.78930400000002,
          "velocity": 0.4251968503937008
        },
        {
          "duration": 0.7894730000000152,
          "durationTicks": 480,
          "midi": 55,
          "name": "G3",
          "ticks": 119040,
          "time": 195.78930400000002,
          "velocity": 0.4251968503937008
        },
        {
          "duration": 0.19736824999998248,
          "durationTicks": 120,
          "midi": 62,
          "name": "D4",
          "ticks": 119520,
          "time": 196.57877700000003,
          "velocity": 0.4251968503937008
        },
        {
          "duration": 0.19736824999998248,
          "durationTicks": 120,
          "midi": 65,
          "name": "F4",
          "ticks": 119520,
          "time": 196.57877700000003,
          "velocity": 0.4251968503937008
        },
        {
          "duration": 0.3947364999999934,
          "durationTicks": 240,
          "midi": 65,
          "name": "F4",
          "ticks": 119760,
          "time": 196.97351350000002,
          "velocity": 0.4251968503937008
        },
        {
          "duration": 0.3947364999999934,
          "durationTicks": 240,
          "midi": 62,
          "name": "D4",
          "ticks": 119760,
          "time": 196.97351350000002,
          "velocity": 0.4251968503937008
        },
        {
          "duration": 0.3947364999999934,
          "durationTicks": 240,
          "midi": 71,
          "name": "B4",
          "ticks": 119760,
          "time": 196.97351350000002,
          "velocity": 0.4251968503937008
        },
        {
          "duration": 0.1973682500000109,
          "durationTicks": 120,
          "midi": 64,
          "name": "E4",
          "ticks": 120000,
          "time": 197.36825000000002,
          "velocity": 0.4251968503937008
        },
        {
          "duration": 0.3947364999999934,
          "durationTicks": 240,
          "midi": 69,
          "name": "A4",
          "ticks": 120000,
          "time": 197.36825000000002,
          "velocity": 0.4251968503937008
        },
        {
          "duration": 0.3947364999999934,
          "durationTicks": 240,
          "midi": 72,
          "name": "C5",
          "ticks": 120000,
          "time": 197.36825000000002,
          "velocity": 0.4251968503937008
        },
        {
          "duration": 0.374999674999998,
          "durationTicks": 228,
          "midi": 64,
          "name": "E4",
          "ticks": 120240,
          "time": 197.7629865,
          "velocity": 0.4251968503937008
        },
        {
          "duration": 0.19736824999998248,
          "durationTicks": 120,
          "midi": 72,
          "name": "C5",
          "ticks": 120480,
          "time": 198.15772300000003,
          "velocity": 0.4251968503937008
        },
        {
          "duration": 0.1973682500000109,
          "durationTicks": 120,
          "midi": 69,
          "name": "A4",
          "ticks": 120600,
          "time": 198.35509125000002,
          "velocity": 0.4251968503937008
        },
        {
          "duration": 0.1973682500000109,
          "durationTicks": 120,
          "midi": 64,
          "name": "E4",
          "ticks": 120720,
          "time": 198.55245950000003,
          "velocity": 0.4251968503937008
        },
        {
          "duration": 0.9868412499999977,
          "durationTicks": 600,
          "midi": 60,
          "name": "C4",
          "ticks": 120960,
          "time": 198.94719600000002,
          "velocity": 0.4251968503937008
        },
        {
          "duration": 0.9868412499999977,
          "durationTicks": 600,
          "midi": 65,
          "name": "F4",
          "ticks": 120960,
          "time": 198.94719600000002,
          "velocity": 0.4251968503937008
        },
        {
          "duration": 0.9868412499999977,
          "durationTicks": 600,
          "midi": 69,
          "name": "A4",
          "ticks": 120960,
          "time": 198.94719600000002,
          "velocity": 0.4251968503937008
        },
        {
          "duration": 0.3947364999999934,
          "durationTicks": 240,
          "midi": 65,
          "name": "F4",
          "ticks": 121680,
          "time": 200.13140550000003,
          "velocity": 0.4330708661417323
        },
        {
          "duration": 0.3947364999999934,
          "durationTicks": 240,
          "midi": 69,
          "name": "A4",
          "ticks": 121680,
          "time": 200.13140550000003,
          "velocity": 0.4330708661417323
        },
        {
          "duration": 0.3947364999999934,
          "durationTicks": 240,
          "midi": 60,
          "name": "C4",
          "ticks": 121680,
          "time": 200.13140550000003,
          "velocity": 0.4330708661417323
        },
        {
          "duration": 1.1842095000000086,
          "durationTicks": 720,
          "midi": 62,
          "name": "D4",
          "ticks": 121920,
          "time": 200.52614200000002,
          "velocity": 0.4330708661417323
        },
        {
          "duration": 1.1842095000000086,
          "durationTicks": 720,
          "midi": 67,
          "name": "G4",
          "ticks": 121920,
          "time": 200.52614200000002,
          "velocity": 0.4330708661417323
        },
        {
          "duration": 1.1842095000000086,
          "durationTicks": 720,
          "midi": 71,
          "name": "B4",
          "ticks": 121920,
          "time": 200.52614200000002,
          "velocity": 0.4330708661417323
        },
        {
          "duration": 0.7894729999999868,
          "durationTicks": 480,
          "midi": 64,
          "name": "E4",
          "ticks": 122880,
          "time": 202.10508800000002,
          "velocity": 0.4330708661417323
        },
        {
          "duration": 0.7894729999999868,
          "durationTicks": 480,
          "midi": 72,
          "name": "C5",
          "ticks": 122880,
          "time": 202.10508800000002,
          "velocity": 0.4330708661417323
        },
        {
          "duration": 0.7894729999999868,
          "durationTicks": 480,
          "midi": 69,
          "name": "A4",
          "ticks": 122880,
          "time": 202.10508800000002,
          "velocity": 0.4330708661417323
        },
        {
          "duration": 0.3881575583333188,
          "durationTicks": 236,
          "midi": 72,
          "name": "C5",
          "ticks": 123600,
          "time": 203.28929750000003,
          "velocity": 0.4330708661417323
        },
        {
          "duration": 0.3881575583333188,
          "durationTicks": 236,
          "midi": 69,
          "name": "A4",
          "ticks": 123600,
          "time": 203.28929750000003,
          "velocity": 0.4330708661417323
        },
        {
          "duration": 0.3881575583333188,
          "durationTicks": 236,
          "midi": 64,
          "name": "E4",
          "ticks": 123600,
          "time": 203.28929750000003,
          "velocity": 0.4330708661417323
        },
        {
          "duration": 0.9868412499999977,
          "durationTicks": 600,
          "midi": 60,
          "name": "C4",
          "ticks": 124800,
          "time": 205.26298000000003,
          "velocity": 0.4251968503937008
        },
        {
          "duration": 0.9868412499999977,
          "durationTicks": 600,
          "midi": 69,
          "name": "A4",
          "ticks": 124800,
          "time": 205.26298000000003,
          "velocity": 0.4251968503937008
        },
        {
          "duration": 0.9868412499999977,
          "durationTicks": 600,
          "midi": 65,
          "name": "F4",
          "ticks": 124800,
          "time": 205.26298000000003,
          "velocity": 0.4251968503937008
        },
        {
          "duration": 0.3947364999999934,
          "durationTicks": 240,
          "midi": 60,
          "name": "C4",
          "ticks": 125520,
          "time": 206.44718950000004,
          "velocity": 0.4251968503937008
        },
        {
          "duration": 0.3947364999999934,
          "durationTicks": 240,
          "midi": 65,
          "name": "F4",
          "ticks": 125520,
          "time": 206.44718950000004,
          "velocity": 0.4251968503937008
        },
        {
          "duration": 0.3947364999999934,
          "durationTicks": 240,
          "midi": 69,
          "name": "A4",
          "ticks": 125520,
          "time": 206.44718950000004,
          "velocity": 0.4251968503937008
        },
        {
          "duration": 1.1842095000000086,
          "durationTicks": 720,
          "midi": 62,
          "name": "D4",
          "ticks": 125760,
          "time": 206.84192600000003,
          "velocity": 0.4251968503937008
        },
        {
          "duration": 1.1842095000000086,
          "durationTicks": 720,
          "midi": 67,
          "name": "G4",
          "ticks": 125760,
          "time": 206.84192600000003,
          "velocity": 0.4251968503937008
        },
        {
          "duration": 1.1842095000000086,
          "durationTicks": 720,
          "midi": 71,
          "name": "B4",
          "ticks": 125760,
          "time": 206.84192600000003,
          "velocity": 0.4251968503937008
        },
        {
          "duration": 0.7894729999999868,
          "durationTicks": 480,
          "midi": 60,
          "name": "C4",
          "ticks": 126720,
          "time": 208.42087200000003,
          "velocity": 0.4251968503937008
        },
        {
          "duration": 0.7894729999999868,
          "durationTicks": 480,
          "midi": 55,
          "name": "G3",
          "ticks": 126720,
          "time": 208.42087200000003,
          "velocity": 0.4251968503937008
        },
        {
          "duration": 0.1973682500000109,
          "durationTicks": 120,
          "midi": 62,
          "name": "D4",
          "ticks": 127200,
          "time": 209.21034500000002,
          "velocity": 0.4251968503937008
        },
        {
          "duration": 0.1973682500000109,
          "durationTicks": 120,
          "midi": 65,
          "name": "F4",
          "ticks": 127200,
          "time": 209.21034500000002,
          "velocity": 0.4251968503937008
        },
        {
          "duration": 0.3947365000000218,
          "durationTicks": 240,
          "midi": 65,
          "name": "F4",
          "ticks": 127440,
          "time": 209.6050815,
          "velocity": 0.4251968503937008
        },
        {
          "duration": 0.3947365000000218,
          "durationTicks": 240,
          "midi": 62,
          "name": "D4",
          "ticks": 127440,
          "time": 209.6050815,
          "velocity": 0.4251968503937008
        },
        {
          "duration": 0.3947365000000218,
          "durationTicks": 240,
          "midi": 71,
          "name": "B4",
          "ticks": 127440,
          "time": 209.6050815,
          "velocity": 0.4251968503937008
        },
        {
          "duration": 0.19736824999998248,
          "durationTicks": 120,
          "midi": 64,
          "name": "E4",
          "ticks": 127680,
          "time": 209.99981800000003,
          "velocity": 0.4251968503937008
        },
        {
          "duration": 0.3947364999999934,
          "durationTicks": 240,
          "midi": 69,
          "name": "A4",
          "ticks": 127680,
          "time": 209.99981800000003,
          "velocity": 0.4251968503937008
        },
        {
          "duration": 0.3947364999999934,
          "durationTicks": 240,
          "midi": 72,
          "name": "C5",
          "ticks": 127680,
          "time": 209.99981800000003,
          "velocity": 0.4251968503937008
        },
        {
          "duration": 0.3749996750000264,
          "durationTicks": 228,
          "midi": 64,
          "name": "E4",
          "ticks": 127920,
          "time": 210.39455450000003,
          "velocity": 0.4251968503937008
        },
        {
          "duration": 0.1973682500000109,
          "durationTicks": 120,
          "midi": 72,
          "name": "C5",
          "ticks": 128160,
          "time": 210.78929100000002,
          "velocity": 0.4251968503937008
        },
        {
          "duration": 0.19736824999998248,
          "durationTicks": 120,
          "midi": 69,
          "name": "A4",
          "ticks": 128280,
          "time": 210.98665925000003,
          "velocity": 0.4251968503937008
        },
        {
          "duration": 0.1973682500000109,
          "durationTicks": 120,
          "midi": 64,
          "name": "E4",
          "ticks": 128400,
          "time": 211.1840275,
          "velocity": 0.4251968503937008
        },
        {
          "duration": 0.9868412499999977,
          "durationTicks": 600,
          "midi": 60,
          "name": "C4",
          "ticks": 128640,
          "time": 211.57876400000004,
          "velocity": 0.4251968503937008
        },
        {
          "duration": 0.9868412499999977,
          "durationTicks": 600,
          "midi": 65,
          "name": "F4",
          "ticks": 128640,
          "time": 211.57876400000004,
          "velocity": 0.4251968503937008
        },
        {
          "duration": 0.9868412499999977,
          "durationTicks": 600,
          "midi": 69,
          "name": "A4",
          "ticks": 128640,
          "time": 211.57876400000004,
          "velocity": 0.4251968503937008
        },
        {
          "duration": 0.3947365000000218,
          "durationTicks": 240,
          "midi": 65,
          "name": "F4",
          "ticks": 129360,
          "time": 212.76297350000002,
          "velocity": 0.4330708661417323
        },
        {
          "duration": 0.3947365000000218,
          "durationTicks": 240,
          "midi": 69,
          "name": "A4",
          "ticks": 129360,
          "time": 212.76297350000002,
          "velocity": 0.4330708661417323
        },
        {
          "duration": 0.3947365000000218,
          "durationTicks": 240,
          "midi": 60,
          "name": "C4",
          "ticks": 129360,
          "time": 212.76297350000002,
          "velocity": 0.4330708661417323
        },
        {
          "duration": 1.1842094999999802,
          "durationTicks": 720,
          "midi": 62,
          "name": "D4",
          "ticks": 129600,
          "time": 213.15771000000004,
          "velocity": 0.4330708661417323
        },
        {
          "duration": 1.1842094999999802,
          "durationTicks": 720,
          "midi": 67,
          "name": "G4",
          "ticks": 129600,
          "time": 213.15771000000004,
          "velocity": 0.4330708661417323
        },
        {
          "duration": 1.1842094999999802,
          "durationTicks": 720,
          "midi": 71,
          "name": "B4",
          "ticks": 129600,
          "time": 213.15771000000004,
          "velocity": 0.4330708661417323
        },
        {
          "duration": 0.7894729999999868,
          "durationTicks": 480,
          "midi": 64,
          "name": "E4",
          "ticks": 130560,
          "time": 214.73665600000004,
          "velocity": 0.4330708661417323
        },
        {
          "duration": 0.7894729999999868,
          "durationTicks": 480,
          "midi": 72,
          "name": "C5",
          "ticks": 130560,
          "time": 214.73665600000004,
          "velocity": 0.4330708661417323
        },
        {
          "duration": 0.7894729999999868,
          "durationTicks": 480,
          "midi": 69,
          "name": "A4",
          "ticks": 130560,
          "time": 214.73665600000004,
          "velocity": 0.4330708661417323
        },
        {
          "duration": 0.3881575583333472,
          "durationTicks": 236,
          "midi": 72,
          "name": "C5",
          "ticks": 131280,
          "time": 215.92086550000002,
          "velocity": 0.4330708661417323
        },
        {
          "duration": 0.3881575583333472,
          "durationTicks": 236,
          "midi": 69,
          "name": "A4",
          "ticks": 131280,
          "time": 215.92086550000002,
          "velocity": 0.4330708661417323
        },
        {
          "duration": 0.3881575583333472,
          "durationTicks": 236,
          "midi": 64,
          "name": "E4",
          "ticks": 131280,
          "time": 215.92086550000002,
          "velocity": 0.4330708661417323
        },
        {
          "duration": 0.5921047500000043,
          "durationTicks": 360,
          "midi": 69,
          "name": "A4",
          "ticks": 132480,
          "time": 217.89454800000001,
          "velocity": 0.5039370078740157
        },
        {
          "duration": 0.5921047500000043,
          "durationTicks": 360,
          "midi": 65,
          "name": "F4",
          "ticks": 132480,
          "time": 217.89454800000001,
          "velocity": 0.5039370078740157
        },
        {
          "duration": 0.5921047500000043,
          "durationTicks": 360,
          "midi": 72,
          "name": "C5",
          "ticks": 132480,
          "time": 217.89454800000001,
          "velocity": 0.5039370078740157
        },
        {
          "duration": 0.7894729999999868,
          "durationTicks": 480,
          "midi": 72,
          "name": "C5",
          "ticks": 132960,
          "time": 218.68402100000003,
          "velocity": 0.5039370078740157
        },
        {
          "duration": 0.7894729999999868,
          "durationTicks": 480,
          "midi": 65,
          "name": "F4",
          "ticks": 132960,
          "time": 218.68402100000003,
          "velocity": 0.5039370078740157
        },
        {
          "duration": 0.7894729999999868,
          "durationTicks": 480,
          "midi": 69,
          "name": "A4",
          "ticks": 132960,
          "time": 218.68402100000003,
          "velocity": 0.5039370078740157
        },
        {
          "duration": 0,
          "durationTicks": 0,
          "midi": 67,
          "name": "G4",
          "ticks": 133440,
          "time": 219.47349400000002,
          "velocity": 0.5039370078740157
        },
        {
          "duration": 0,
          "durationTicks": 0,
          "midi": 71,
          "name": "B4",
          "ticks": 133440,
          "time": 219.47349400000002,
          "velocity": 0.5039370078740157
        },
        {
          "duration": 0,
          "durationTicks": 0,
          "midi": 74,
          "name": "D5",
          "ticks": 133440,
          "time": 219.47349400000002,
          "velocity": 0.5039370078740157
        },
        {
          "duration": 0.5921047500000043,
          "durationTicks": 360,
          "midi": 71,
          "name": "B4",
          "ticks": 133440,
          "time": 219.47349400000002,
          "velocity": 0.5039370078740157
        },
        {
          "duration": 0.7894730000000152,
          "durationTicks": 480,
          "midi": 67,
          "name": "G4",
          "ticks": 133440,
          "time": 219.47349400000002,
          "velocity": 0.5039370078740157
        },
        {
          "duration": 0.7894730000000152,
          "durationTicks": 480,
          "midi": 74,
          "name": "D5",
          "ticks": 133440,
          "time": 219.47349400000002,
          "velocity": 0.5039370078740157
        },
        {
          "duration": 0.3947364999999934,
          "durationTicks": 240,
          "midi": 67,
          "name": "G4",
          "ticks": 133920,
          "time": 220.26296700000003,
          "velocity": 0.5039370078740157
        },
        {
          "duration": 0.3947364999999934,
          "durationTicks": 240,
          "midi": 71,
          "name": "B4",
          "ticks": 133920,
          "time": 220.26296700000003,
          "velocity": 0.5039370078740157
        },
        {
          "duration": 0.3947364999999934,
          "durationTicks": 240,
          "midi": 74,
          "name": "D5",
          "ticks": 133920,
          "time": 220.26296700000003,
          "velocity": 0.5039370078740157
        },
        {
          "duration": 0.3749996750000264,
          "durationTicks": 228,
          "midi": 62,
          "name": "D4",
          "ticks": 134160,
          "time": 220.65770350000003,
          "velocity": 0.5039370078740157
        },
        {
          "duration": 0.7894730000000152,
          "durationTicks": 480,
          "midi": 64,
          "name": "E4",
          "ticks": 134400,
          "time": 221.05244000000002,
          "velocity": 0.5039370078740157
        },
        {
          "duration": 0.7894730000000152,
          "durationTicks": 480,
          "midi": 67,
          "name": "G4",
          "ticks": 134400,
          "time": 221.05244000000002,
          "velocity": 0.5039370078740157
        },
        {
          "duration": 0.7894730000000152,
          "durationTicks": 480,
          "midi": 60,
          "name": "C4",
          "ticks": 134400,
          "time": 221.05244000000002,
          "velocity": 0.5039370078740157
        },
        {
          "duration": 0,
          "durationTicks": 0,
          "midi": 65,
          "name": "F4",
          "ticks": 134880,
          "time": 221.84191300000003,
          "velocity": 0.5039370078740157
        },
        {
          "duration": 0,
          "durationTicks": 0,
          "midi": 71,
          "name": "B4",
          "ticks": 134880,
          "time": 221.84191300000003,
          "velocity": 0.5039370078740157
        },
        {
          "duration": 0,
          "durationTicks": 0,
          "midi": 74,
          "name": "D5",
          "ticks": 134880,
          "time": 221.84191300000003,
          "velocity": 0.5039370078740157
        },
        {
          "duration": 0.5921047500000043,
          "durationTicks": 360,
          "midi": 65,
          "name": "F4",
          "ticks": 134880,
          "time": 221.84191300000003,
          "velocity": 0.5039370078740157
        },
        {
          "duration": 0.5921047500000043,
          "durationTicks": 360,
          "midi": 74,
          "name": "D5",
          "ticks": 134880,
          "time": 221.84191300000003,
          "velocity": 0.5039370078740157
        },
        {
          "duration": 0.5921047500000043,
          "durationTicks": 360,
          "midi": 71,
          "name": "B4",
          "ticks": 134880,
          "time": 221.84191300000003,
          "velocity": 0.5039370078740157
        },
        {
          "duration": 0.7894730000000152,
          "durationTicks": 480,
          "midi": 69,
          "name": "A4",
          "ticks": 135360,
          "time": 222.63138600000002,
          "velocity": 0.5039370078740157
        },
        {
          "duration": 0.5921047500000043,
          "durationTicks": 360,
          "midi": 72,
          "name": "C5",
          "ticks": 135360,
          "time": 222.63138600000002,
          "velocity": 0.5039370078740157
        },
        {
          "duration": 0.3947364999999934,
          "durationTicks": 240,
          "midi": 76,
          "name": "E5",
          "ticks": 135360,
          "time": 222.63138600000002,
          "velocity": 0.5039370078740157
        },
        {
          "duration": 0.1973682500000109,
          "durationTicks": 120,
          "midi": 64,
          "name": "E4",
          "ticks": 135720,
          "time": 223.22349075000002,
          "velocity": 0.5118110236220472
        },
        {
          "duration": 0.19736824999998248,
          "durationTicks": 120,
          "midi": 76,
          "name": "E5",
          "ticks": 135840,
          "time": 223.42085900000004,
          "velocity": 0.5118110236220472
        },
        {
          "duration": 0.1973682500000109,
          "durationTicks": 120,
          "midi": 72,
          "name": "C5",
          "ticks": 135960,
          "time": 223.61822725000002,
          "velocity": 0.5118110236220472
        },
        {
          "duration": 0.3749996750000264,
          "durationTicks": 228,
          "midi": 69,
          "name": "A4",
          "ticks": 136080,
          "time": 223.81559550000003,
          "velocity": 0.5118110236220472
        },
        {
          "duration": 0.7894730000000152,
          "durationTicks": 480,
          "midi": 69,
          "name": "A4",
          "ticks": 136320,
          "time": 224.21033200000002,
          "velocity": 0.5118110236220472
        },
        {
          "duration": 0.7894730000000152,
          "durationTicks": 480,
          "midi": 72,
          "name": "C5",
          "ticks": 136320,
          "time": 224.21033200000002,
          "velocity": 0.5118110236220472
        },
        {
          "duration": 0.7894729999999868,
          "durationTicks": 480,
          "midi": 65,
          "name": "F4",
          "ticks": 136800,
          "time": 224.99980500000004,
          "velocity": 0.5118110236220472
        },
        {
          "duration": 0.7894729999999868,
          "durationTicks": 480,
          "midi": 69,
          "name": "A4",
          "ticks": 136800,
          "time": 224.99980500000004,
          "velocity": 0.5118110236220472
        },
        {
          "duration": 0.7894729999999868,
          "durationTicks": 480,
          "midi": 72,
          "name": "C5",
          "ticks": 136800,
          "time": 224.99980500000004,
          "velocity": 0.5118110236220472
        },
        {
          "duration": 0,
          "durationTicks": 0,
          "midi": 67,
          "name": "G4",
          "ticks": 137280,
          "time": 225.78927800000002,
          "velocity": 0.5118110236220472
        },
        {
          "duration": 0,
          "durationTicks": 0,
          "midi": 71,
          "name": "B4",
          "ticks": 137280,
          "time": 225.78927800000002,
          "velocity": 0.5118110236220472
        },
        {
          "duration": 0,
          "durationTicks": 0,
          "midi": 74,
          "name": "D5",
          "ticks": 137280,
          "time": 225.78927800000002,
          "velocity": 0.5118110236220472
        },
        {
          "duration": 0.5921047500000043,
          "durationTicks": 360,
          "midi": 71,
          "name": "B4",
          "ticks": 137280,
          "time": 225.78927800000002,
          "velocity": 0.5118110236220472
        },
        {
          "duration": 0.5921047500000043,
          "durationTicks": 360,
          "midi": 74,
          "name": "D5",
          "ticks": 137280,
          "time": 225.78927800000002,
          "velocity": 0.5118110236220472
        },
        {
          "duration": 0.5921047500000043,
          "durationTicks": 360,
          "midi": 67,
          "name": "G4",
          "ticks": 137280,
          "time": 225.78927800000002,
          "velocity": 0.5118110236220472
        },
        {
          "duration": 0.3947364999999934,
          "durationTicks": 240,
          "midi": 67,
          "name": "G4",
          "ticks": 137760,
          "time": 226.57875100000004,
          "velocity": 0.5118110236220472
        },
        {
          "duration": 0.3947364999999934,
          "durationTicks": 240,
          "midi": 71,
          "name": "B4",
          "ticks": 137760,
          "time": 226.57875100000004,
          "velocity": 0.5118110236220472
        },
        {
          "duration": 0.3947364999999934,
          "durationTicks": 240,
          "midi": 74,
          "name": "D5",
          "ticks": 137760,
          "time": 226.57875100000004,
          "velocity": 0.5118110236220472
        },
        {
          "duration": 0.374999674999998,
          "durationTicks": 228,
          "midi": 62,
          "name": "D4",
          "ticks": 138000,
          "time": 226.97348750000003,
          "velocity": 0.5118110236220472
        },
        {
          "duration": 0.7894729999999868,
          "durationTicks": 480,
          "midi": 69,
          "name": "A4",
          "ticks": 138240,
          "time": 227.36822400000003,
          "velocity": 0.5118110236220472
        },
        {
          "duration": 0.5921047500000043,
          "durationTicks": 360,
          "midi": 76,
          "name": "E5",
          "ticks": 138240,
          "time": 227.36822400000003,
          "velocity": 0.5118110236220472
        },
        {
          "duration": 0.7894729999999868,
          "durationTicks": 480,
          "midi": 72,
          "name": "C5",
          "ticks": 138240,
          "time": 227.36822400000003,
          "velocity": 0.5118110236220472
        },
        {
          "duration": 0.5921047500000043,
          "durationTicks": 360,
          "midi": 69,
          "name": "A4",
          "ticks": 138720,
          "time": 228.157697,
          "velocity": 0.5118110236220472
        },
        {
          "duration": 0.5921047500000043,
          "durationTicks": 360,
          "midi": 76,
          "name": "E5",
          "ticks": 138720,
          "time": 228.157697,
          "velocity": 0.5118110236220472
        },
        {
          "duration": 0.5921047500000043,
          "durationTicks": 360,
          "midi": 72,
          "name": "C5",
          "ticks": 138720,
          "time": 228.157697,
          "velocity": 0.5118110236220472
        },
        {
          "duration": 0.5921047500000043,
          "durationTicks": 360,
          "midi": 69,
          "name": "A4",
          "ticks": 139200,
          "time": 228.94717000000003,
          "velocity": 0.5196850393700787
        },
        {
          "duration": 0.5921047500000043,
          "durationTicks": 360,
          "midi": 72,
          "name": "C5",
          "ticks": 139200,
          "time": 228.94717000000003,
          "velocity": 0.5196850393700787
        },
        {
          "duration": 0.3947364999999934,
          "durationTicks": 240,
          "midi": 76,
          "name": "E5",
          "ticks": 139200,
          "time": 228.94717000000003,
          "velocity": 0.5196850393700787
        },
        {
          "duration": 0.19736824999998248,
          "durationTicks": 120,
          "midi": 64,
          "name": "E4",
          "ticks": 139560,
          "time": 229.53927475000003,
          "velocity": 0.4881889763779528
        },
        {
          "duration": 0.1973682500000109,
          "durationTicks": 120,
          "midi": 76,
          "name": "E5",
          "ticks": 139680,
          "time": 229.73664300000002,
          "velocity": 0.4881889763779528
        },
        {
          "duration": 0.1973682500000109,
          "durationTicks": 120,
          "midi": 72,
          "name": "C5",
          "ticks": 139800,
          "time": 229.93401125000003,
          "velocity": 0.4881889763779528
        },
        {
          "duration": 0.19736824999998248,
          "durationTicks": 120,
          "midi": 69,
          "name": "A4",
          "ticks": 139920,
          "time": 230.13137950000004,
          "velocity": 0.4881889763779528
        },
        {
          "duration": 0.5921047500000043,
          "durationTicks": 360,
          "midi": 69,
          "name": "A4",
          "ticks": 140160,
          "time": 230.52611600000003,
          "velocity": 0.5039370078740157
        },
        {
          "duration": 0.5921047500000043,
          "durationTicks": 360,
          "midi": 65,
          "name": "F4",
          "ticks": 140160,
          "time": 230.52611600000003,
          "velocity": 0.5039370078740157
        },
        {
          "duration": 0.5921047500000043,
          "durationTicks": 360,
          "midi": 72,
          "name": "C5",
          "ticks": 140160,
          "time": 230.52611600000003,
          "velocity": 0.5039370078740157
        },
        {
          "duration": 0.7894730000000152,
          "durationTicks": 480,
          "midi": 72,
          "name": "C5",
          "ticks": 140640,
          "time": 231.31558900000002,
          "velocity": 0.5039370078740157
        },
        {
          "duration": 0.7894730000000152,
          "durationTicks": 480,
          "midi": 65,
          "name": "F4",
          "ticks": 140640,
          "time": 231.31558900000002,
          "velocity": 0.5039370078740157
        },
        {
          "duration": 0.7894730000000152,
          "durationTicks": 480,
          "midi": 69,
          "name": "A4",
          "ticks": 140640,
          "time": 231.31558900000002,
          "velocity": 0.5039370078740157
        },
        {
          "duration": 0,
          "durationTicks": 0,
          "midi": 67,
          "name": "G4",
          "ticks": 141120,
          "time": 232.10506200000003,
          "velocity": 0.5039370078740157
        },
        {
          "duration": 0,
          "durationTicks": 0,
          "midi": 71,
          "name": "B4",
          "ticks": 141120,
          "time": 232.10506200000003,
          "velocity": 0.5039370078740157
        },
        {
          "duration": 0,
          "durationTicks": 0,
          "midi": 74,
          "name": "D5",
          "ticks": 141120,
          "time": 232.10506200000003,
          "velocity": 0.5039370078740157
        },
        {
          "duration": 0.5921047500000043,
          "durationTicks": 360,
          "midi": 71,
          "name": "B4",
          "ticks": 141120,
          "time": 232.10506200000003,
          "velocity": 0.5039370078740157
        },
        {
          "duration": 0.7894729999999868,
          "durationTicks": 480,
          "midi": 67,
          "name": "G4",
          "ticks": 141120,
          "time": 232.10506200000003,
          "velocity": 0.5039370078740157
        },
        {
          "duration": 0.7894729999999868,
          "durationTicks": 480,
          "midi": 74,
          "name": "D5",
          "ticks": 141120,
          "time": 232.10506200000003,
          "velocity": 0.5039370078740157
        },
        {
          "duration": 0.3947365000000218,
          "durationTicks": 240,
          "midi": 67,
          "name": "G4",
          "ticks": 141600,
          "time": 232.89453500000002,
          "velocity": 0.5039370078740157
        },
        {
          "duration": 0.3947365000000218,
          "durationTicks": 240,
          "midi": 71,
          "name": "B4",
          "ticks": 141600,
          "time": 232.89453500000002,
          "velocity": 0.5039370078740157
        },
        {
          "duration": 0.3947365000000218,
          "durationTicks": 240,
          "midi": 74,
          "name": "D5",
          "ticks": 141600,
          "time": 232.89453500000002,
          "velocity": 0.5039370078740157
        },
        {
          "duration": 0.374999674999998,
          "durationTicks": 228,
          "midi": 62,
          "name": "D4",
          "ticks": 141840,
          "time": 233.28927150000004,
          "velocity": 0.5039370078740157
        },
        {
          "duration": 0.7894729999999868,
          "durationTicks": 480,
          "midi": 64,
          "name": "E4",
          "ticks": 142080,
          "time": 233.68400800000003,
          "velocity": 0.5039370078740157
        },
        {
          "duration": 0.7894729999999868,
          "durationTicks": 480,
          "midi": 67,
          "name": "G4",
          "ticks": 142080,
          "time": 233.68400800000003,
          "velocity": 0.5039370078740157
        },
        {
          "duration": 0.7894729999999868,
          "durationTicks": 480,
          "midi": 60,
          "name": "C4",
          "ticks": 142080,
          "time": 233.68400800000003,
          "velocity": 0.5039370078740157
        },
        {
          "duration": 0,
          "durationTicks": 0,
          "midi": 65,
          "name": "F4",
          "ticks": 142560,
          "time": 234.47348100000002,
          "velocity": 0.5039370078740157
        },
        {
          "duration": 0,
          "durationTicks": 0,
          "midi": 71,
          "name": "B4",
          "ticks": 142560,
          "time": 234.47348100000002,
          "velocity": 0.5039370078740157
        },
        {
          "duration": 0,
          "durationTicks": 0,
          "midi": 74,
          "name": "D5",
          "ticks": 142560,
          "time": 234.47348100000002,
          "velocity": 0.5039370078740157
        },
        {
          "duration": 0.5921047500000043,
          "durationTicks": 360,
          "midi": 65,
          "name": "F4",
          "ticks": 142560,
          "time": 234.47348100000002,
          "velocity": 0.5039370078740157
        },
        {
          "duration": 0.5921047500000043,
          "durationTicks": 360,
          "midi": 74,
          "name": "D5",
          "ticks": 142560,
          "time": 234.47348100000002,
          "velocity": 0.5039370078740157
        },
        {
          "duration": 0.5921047500000043,
          "durationTicks": 360,
          "midi": 71,
          "name": "B4",
          "ticks": 142560,
          "time": 234.47348100000002,
          "velocity": 0.5039370078740157
        },
        {
          "duration": 0.7894729999999868,
          "durationTicks": 480,
          "midi": 69,
          "name": "A4",
          "ticks": 143040,
          "time": 235.26295400000004,
          "velocity": 0.5039370078740157
        },
        {
          "duration": 0.5921047500000043,
          "durationTicks": 360,
          "midi": 72,
          "name": "C5",
          "ticks": 143040,
          "time": 235.26295400000004,
          "velocity": 0.5039370078740157
        },
        {
          "duration": 0.3947364999999934,
          "durationTicks": 240,
          "midi": 76,
          "name": "E5",
          "ticks": 143040,
          "time": 235.26295400000004,
          "velocity": 0.5039370078740157
        },
        {
          "duration": 0.19736824999998248,
          "durationTicks": 120,
          "midi": 64,
          "name": "E4",
          "ticks": 143400,
          "time": 235.85505875000004,
          "velocity": 0.5118110236220472
        },
        {
          "duration": 0.1973682500000109,
          "durationTicks": 120,
          "midi": 76,
          "name": "E5",
          "ticks": 143520,
          "time": 236.05242700000002,
          "velocity": 0.5118110236220472
        },
        {
          "duration": 0.19736824999998248,
          "durationTicks": 120,
          "midi": 72,
          "name": "C5",
          "ticks": 143640,
          "time": 236.24979525000003,
          "velocity": 0.5118110236220472
        },
        {
          "duration": 0.3749996750000264,
          "durationTicks": 228,
          "midi": 69,
          "name": "A4",
          "ticks": 143760,
          "time": 236.44716350000002,
          "velocity": 0.5118110236220472
        },
        {
          "duration": 0.7894729999999868,
          "durationTicks": 480,
          "midi": 69,
          "name": "A4",
          "ticks": 144000,
          "time": 236.84190000000004,
          "velocity": 0.5118110236220472
        },
        {
          "duration": 0.7894729999999868,
          "durationTicks": 480,
          "midi": 72,
          "name": "C5",
          "ticks": 144000,
          "time": 236.84190000000004,
          "velocity": 0.5118110236220472
        },
        {
          "duration": 0.7894730000000152,
          "durationTicks": 480,
          "midi": 65,
          "name": "F4",
          "ticks": 144480,
          "time": 237.63137300000002,
          "velocity": 0.5118110236220472
        },
        {
          "duration": 0.7894730000000152,
          "durationTicks": 480,
          "midi": 69,
          "name": "A4",
          "ticks": 144480,
          "time": 237.63137300000002,
          "velocity": 0.5118110236220472
        },
        {
          "duration": 0.7894730000000152,
          "durationTicks": 480,
          "midi": 72,
          "name": "C5",
          "ticks": 144480,
          "time": 237.63137300000002,
          "velocity": 0.5118110236220472
        },
        {
          "duration": 0,
          "durationTicks": 0,
          "midi": 67,
          "name": "G4",
          "ticks": 144960,
          "time": 238.42084600000004,
          "velocity": 0.5118110236220472
        },
        {
          "duration": 0,
          "durationTicks": 0,
          "midi": 71,
          "name": "B4",
          "ticks": 144960,
          "time": 238.42084600000004,
          "velocity": 0.5118110236220472
        },
        {
          "duration": 0,
          "durationTicks": 0,
          "midi": 74,
          "name": "D5",
          "ticks": 144960,
          "time": 238.42084600000004,
          "velocity": 0.5118110236220472
        },
        {
          "duration": 0.5921047499999759,
          "durationTicks": 360,
          "midi": 71,
          "name": "B4",
          "ticks": 144960,
          "time": 238.42084600000004,
          "velocity": 0.5118110236220472
        },
        {
          "duration": 0.5921047499999759,
          "durationTicks": 360,
          "midi": 74,
          "name": "D5",
          "ticks": 144960,
          "time": 238.42084600000004,
          "velocity": 0.5118110236220472
        },
        {
          "duration": 0.5921047499999759,
          "durationTicks": 360,
          "midi": 67,
          "name": "G4",
          "ticks": 144960,
          "time": 238.42084600000004,
          "velocity": 0.5118110236220472
        },
        {
          "duration": 0.3947364999999934,
          "durationTicks": 240,
          "midi": 67,
          "name": "G4",
          "ticks": 145440,
          "time": 239.21031900000003,
          "velocity": 0.5118110236220472
        },
        {
          "duration": 0.3947364999999934,
          "durationTicks": 240,
          "midi": 71,
          "name": "B4",
          "ticks": 145440,
          "time": 239.21031900000003,
          "velocity": 0.5118110236220472
        },
        {
          "duration": 0.3947364999999934,
          "durationTicks": 240,
          "midi": 74,
          "name": "D5",
          "ticks": 145440,
          "time": 239.21031900000003,
          "velocity": 0.5118110236220472
        },
        {
          "duration": 0.3749996750000264,
          "durationTicks": 228,
          "midi": 62,
          "name": "D4",
          "ticks": 145680,
          "time": 239.60505550000002,
          "velocity": 0.5118110236220472
        },
        {
          "duration": 0.7894730000000152,
          "durationTicks": 480,
          "midi": 69,
          "name": "A4",
          "ticks": 145920,
          "time": 239.999792,
          "velocity": 0.5118110236220472
        },
        {
          "duration": 0.5921047500000043,
          "durationTicks": 360,
          "midi": 76,
          "name": "E5",
          "ticks": 145920,
          "time": 239.999792,
          "velocity": 0.5118110236220472
        },
        {
          "duration": 0.7894730000000152,
          "durationTicks": 480,
          "midi": 72,
          "name": "C5",
          "ticks": 145920,
          "time": 239.999792,
          "velocity": 0.5118110236220472
        },
        {
          "duration": 0.5921047500000043,
          "durationTicks": 360,
          "midi": 69,
          "name": "A4",
          "ticks": 146400,
          "time": 240.78926500000003,
          "velocity": 0.5118110236220472
        },
        {
          "duration": 0.5921047500000043,
          "durationTicks": 360,
          "midi": 76,
          "name": "E5",
          "ticks": 146400,
          "time": 240.78926500000003,
          "velocity": 0.5118110236220472
        },
        {
          "duration": 0.5921047500000043,
          "durationTicks": 360,
          "midi": 72,
          "name": "C5",
          "ticks": 146400,
          "time": 240.78926500000003,
          "velocity": 0.5118110236220472
        },
        {
          "duration": 1.1842095000000086,
          "durationTicks": 720,
          "midi": 72,
          "name": "C5",
          "ticks": 146880,
          "time": 241.57873800000002,
          "velocity": 0.4881889763779528
        },
        {
          "duration": 0.9868412500000261,
          "durationTicks": 600,
          "midi": 64,
          "name": "E4",
          "ticks": 146880,
          "time": 241.57873800000002,
          "velocity": 0.4881889763779528
        },
        {
          "duration": 1.1842095000000086,
          "durationTicks": 720,
          "midi": 69,
          "name": "A4",
          "ticks": 146880,
          "time": 241.57873800000002,
          "velocity": 0.4881889763779528
        },
        {
          "duration": 0.5921047500000043,
          "durationTicks": 360,
          "midi": 69,
          "name": "A4",
          "ticks": 147840,
          "time": 243.15768400000002,
          "velocity": 0.5039370078740157
        },
        {
          "duration": 0.5921047500000043,
          "durationTicks": 360,
          "midi": 65,
          "name": "F4",
          "ticks": 147840,
          "time": 243.15768400000002,
          "velocity": 0.5039370078740157
        },
        {
          "duration": 0.5921047500000043,
          "durationTicks": 360,
          "midi": 72,
          "name": "C5",
          "ticks": 147840,
          "time": 243.15768400000002,
          "velocity": 0.5039370078740157
        },
        {
          "duration": 0.7894729999999868,
          "durationTicks": 480,
          "midi": 72,
          "name": "C5",
          "ticks": 148320,
          "time": 243.94715700000003,
          "velocity": 0.5039370078740157
        },
        {
          "duration": 0.7894729999999868,
          "durationTicks": 480,
          "midi": 65,
          "name": "F4",
          "ticks": 148320,
          "time": 243.94715700000003,
          "velocity": 0.5039370078740157
        },
        {
          "duration": 0.7894729999999868,
          "durationTicks": 480,
          "midi": 69,
          "name": "A4",
          "ticks": 148320,
          "time": 243.94715700000003,
          "velocity": 0.5039370078740157
        },
        {
          "duration": 0,
          "durationTicks": 0,
          "midi": 67,
          "name": "G4",
          "ticks": 148800,
          "time": 244.73663000000002,
          "velocity": 0.5039370078740157
        },
        {
          "duration": 0,
          "durationTicks": 0,
          "midi": 71,
          "name": "B4",
          "ticks": 148800,
          "time": 244.73663000000002,
          "velocity": 0.5039370078740157
        },
        {
          "duration": 0,
          "durationTicks": 0,
          "midi": 74,
          "name": "D5",
          "ticks": 148800,
          "time": 244.73663000000002,
          "velocity": 0.5039370078740157
        },
        {
          "duration": 0.5921047500000043,
          "durationTicks": 360,
          "midi": 71,
          "name": "B4",
          "ticks": 148800,
          "time": 244.73663000000002,
          "velocity": 0.5039370078740157
        },
        {
          "duration": 0.7894730000000152,
          "durationTicks": 480,
          "midi": 67,
          "name": "G4",
          "ticks": 148800,
          "time": 244.73663000000002,
          "velocity": 0.5039370078740157
        },
        {
          "duration": 0.7894730000000152,
          "durationTicks": 480,
          "midi": 74,
          "name": "D5",
          "ticks": 148800,
          "time": 244.73663000000002,
          "velocity": 0.5039370078740157
        },
        {
          "duration": 0.3947364999999934,
          "durationTicks": 240,
          "midi": 67,
          "name": "G4",
          "ticks": 149280,
          "time": 245.52610300000003,
          "velocity": 0.5039370078740157
        },
        {
          "duration": 0.3947364999999934,
          "durationTicks": 240,
          "midi": 71,
          "name": "B4",
          "ticks": 149280,
          "time": 245.52610300000003,
          "velocity": 0.5039370078740157
        },
        {
          "duration": 0.3947364999999934,
          "durationTicks": 240,
          "midi": 74,
          "name": "D5",
          "ticks": 149280,
          "time": 245.52610300000003,
          "velocity": 0.5039370078740157
        },
        {
          "duration": 0.3749996750000264,
          "durationTicks": 228,
          "midi": 62,
          "name": "D4",
          "ticks": 149520,
          "time": 245.92083950000003,
          "velocity": 0.5039370078740157
        },
        {
          "duration": 0.7894730000000152,
          "durationTicks": 480,
          "midi": 64,
          "name": "E4",
          "ticks": 149760,
          "time": 246.31557600000002,
          "velocity": 0.5039370078740157
        },
        {
          "duration": 0.7894730000000152,
          "durationTicks": 480,
          "midi": 67,
          "name": "G4",
          "ticks": 149760,
          "time": 246.31557600000002,
          "velocity": 0.5039370078740157
        },
        {
          "duration": 0.7894730000000152,
          "durationTicks": 480,
          "midi": 60,
          "name": "C4",
          "ticks": 149760,
          "time": 246.31557600000002,
          "velocity": 0.5039370078740157
        },
        {
          "duration": 0,
          "durationTicks": 0,
          "midi": 67,
          "name": "G4",
          "ticks": 150240,
          "time": 247.10504900000004,
          "velocity": 0.5039370078740157
        },
        {
          "duration": 0,
          "durationTicks": 0,
          "midi": 71,
          "name": "B4",
          "ticks": 150240,
          "time": 247.10504900000004,
          "velocity": 0.5039370078740157
        },
        {
          "duration": 0,
          "durationTicks": 0,
          "midi": 74,
          "name": "D5",
          "ticks": 150240,
          "time": 247.10504900000004,
          "velocity": 0.5039370078740157
        },
        {
          "duration": 0.5921047500000043,
          "durationTicks": 360,
          "midi": 67,
          "name": "G4",
          "ticks": 150240,
          "time": 247.10504900000004,
          "velocity": 0.5039370078740157
        },
        {
          "duration": 0.5921047500000043,
          "durationTicks": 360,
          "midi": 74,
          "name": "D5",
          "ticks": 150240,
          "time": 247.10504900000004,
          "velocity": 0.5039370078740157
        },
        {
          "duration": 0.5921047500000043,
          "durationTicks": 360,
          "midi": 71,
          "name": "B4",
          "ticks": 150240,
          "time": 247.10504900000004,
          "velocity": 0.5039370078740157
        },
        {
          "duration": 0.7894730000000152,
          "durationTicks": 480,
          "midi": 69,
          "name": "A4",
          "ticks": 150720,
          "time": 247.89452200000002,
          "velocity": 0.5039370078740157
        },
        {
          "duration": 0.5921047500000043,
          "durationTicks": 360,
          "midi": 72,
          "name": "C5",
          "ticks": 150720,
          "time": 247.89452200000002,
          "velocity": 0.5039370078740157
        },
        {
          "duration": 0.3947364999999934,
          "durationTicks": 240,
          "midi": 76,
          "name": "E5",
          "ticks": 150720,
          "time": 247.89452200000002,
          "velocity": 0.5039370078740157
        },
        {
          "duration": 0.1973682500000109,
          "durationTicks": 120,
          "midi": 64,
          "name": "E4",
          "ticks": 151080,
          "time": 248.48662675000003,
          "velocity": 0.5118110236220472
        },
        {
          "duration": 0.19736824999998248,
          "durationTicks": 120,
          "midi": 76,
          "name": "E5",
          "ticks": 151200,
          "time": 248.68399500000004,
          "velocity": 0.5118110236220472
        },
        {
          "duration": 0.1973682500000109,
          "durationTicks": 120,
          "midi": 72,
          "name": "C5",
          "ticks": 151320,
          "time": 248.88136325000002,
          "velocity": 0.5118110236220472
        },
        {
          "duration": 0.3749996750000264,
          "durationTicks": 228,
          "midi": 69,
          "name": "A4",
          "ticks": 151440,
          "time": 249.07873150000003,
          "velocity": 0.5118110236220472
        },
        {
          "duration": 0.7894730000000152,
          "durationTicks": 480,
          "midi": 69,
          "name": "A4",
          "ticks": 151680,
          "time": 249.47346800000003,
          "velocity": 0.5118110236220472
        },
        {
          "duration": 0.7894730000000152,
          "durationTicks": 480,
          "midi": 72,
          "name": "C5",
          "ticks": 151680,
          "time": 249.47346800000003,
          "velocity": 0.5118110236220472
        },
        {
          "duration": 0.7894729999999868,
          "durationTicks": 480,
          "midi": 65,
          "name": "F4",
          "ticks": 152160,
          "time": 250.26294100000004,
          "velocity": 0.5118110236220472
        },
        {
          "duration": 0.7894729999999868,
          "durationTicks": 480,
          "midi": 69,
          "name": "A4",
          "ticks": 152160,
          "time": 250.26294100000004,
          "velocity": 0.5118110236220472
        },
        {
          "duration": 0.7894729999999868,
          "durationTicks": 480,
          "midi": 72,
          "name": "C5",
          "ticks": 152160,
          "time": 250.26294100000004,
          "velocity": 0.5118110236220472
        },
        {
          "duration": 0,
          "durationTicks": 0,
          "midi": 67,
          "name": "G4",
          "ticks": 152640,
          "time": 251.05241400000003,
          "velocity": 0.5118110236220472
        },
        {
          "duration": 0,
          "durationTicks": 0,
          "midi": 71,
          "name": "B4",
          "ticks": 152640,
          "time": 251.05241400000003,
          "velocity": 0.5118110236220472
        },
        {
          "duration": 0,
          "durationTicks": 0,
          "midi": 74,
          "name": "D5",
          "ticks": 152640,
          "time": 251.05241400000003,
          "velocity": 0.5118110236220472
        },
        {
          "duration": 0.5921047500000043,
          "durationTicks": 360,
          "midi": 71,
          "name": "B4",
          "ticks": 152640,
          "time": 251.05241400000003,
          "velocity": 0.5118110236220472
        },
        {
          "duration": 0.5921047500000043,
          "durationTicks": 360,
          "midi": 74,
          "name": "D5",
          "ticks": 152640,
          "time": 251.05241400000003,
          "velocity": 0.5118110236220472
        },
        {
          "duration": 0.5921047500000043,
          "durationTicks": 360,
          "midi": 67,
          "name": "G4",
          "ticks": 152640,
          "time": 251.05241400000003,
          "velocity": 0.5118110236220472
        },
        {
          "duration": 0.3947364999999934,
          "durationTicks": 240,
          "midi": 67,
          "name": "G4",
          "ticks": 153120,
          "time": 251.84188700000004,
          "velocity": 0.5118110236220472
        },
        {
          "duration": 0.3947364999999934,
          "durationTicks": 240,
          "midi": 71,
          "name": "B4",
          "ticks": 153120,
          "time": 251.84188700000004,
          "velocity": 0.5118110236220472
        },
        {
          "duration": 0.3947364999999934,
          "durationTicks": 240,
          "midi": 74,
          "name": "D5",
          "ticks": 153120,
          "time": 251.84188700000004,
          "velocity": 0.5118110236220472
        },
        {
          "duration": 0.374999674999998,
          "durationTicks": 228,
          "midi": 62,
          "name": "D4",
          "ticks": 153360,
          "time": 252.23662350000004,
          "velocity": 0.5118110236220472
        },
        {
          "duration": 1.1842095000000086,
          "durationTicks": 720,
          "midi": 72,
          "name": "C5",
          "ticks": 153600,
          "time": 252.63136000000003,
          "velocity": 0.4881889763779528
        },
        {
          "duration": 0.9868412499999977,
          "durationTicks": 600,
          "midi": 64,
          "name": "E4",
          "ticks": 153600,
          "time": 252.63136000000003,
          "velocity": 0.4881889763779528
        },
        {
          "duration": 1.1842095000000086,
          "durationTicks": 720,
          "midi": 69,
          "name": "A4",
          "ticks": 153600,
          "time": 252.63136000000003,
          "velocity": 0.4881889763779528
        },
        {
          "duration": 0.5921047500000043,
          "durationTicks": 360,
          "midi": 72,
          "name": "C5",
          "ticks": 154560,
          "time": 254.21030600000003,
          "velocity": 0.5039370078740157
        },
        {
          "duration": 0.5921047500000043,
          "durationTicks": 360,
          "midi": 69,
          "name": "A4",
          "ticks": 154560,
          "time": 254.21030600000003,
          "velocity": 0.5039370078740157
        },
        {
          "duration": 0.5921047500000043,
          "durationTicks": 360,
          "midi": 76,
          "name": "E5",
          "ticks": 154560,
          "time": 254.21030600000003,
          "velocity": 0.5039370078740157
        },
        {
          "duration": 0.7763151166666944,
          "durationTicks": 472,
          "midi": 76,
          "name": "E5",
          "ticks": 155040,
          "time": 254.99977900000002,
          "velocity": 0.5039370078740157
        },
        {
          "duration": 0.7763151166666944,
          "durationTicks": 472,
          "midi": 69,
          "name": "A4",
          "ticks": 155040,
          "time": 254.99977900000002,
          "velocity": 0.5039370078740157
        },
        {
          "duration": 0.7763151166666944,
          "durationTicks": 472,
          "midi": 72,
          "name": "C5",
          "ticks": 155040,
          "time": 254.99977900000002,
          "velocity": 0.5039370078740157
        }
      ]
    },
    {
      "channel": 6,
      "controlChanges": {
        "10": [
          {
            "number": 10,
            "ticks": 7680,
            "time": 12.631568000000001,
            "value": 0.7874015748031497
          },
          {
            "number": 10,
            "ticks": 15360,
            "time": 25.263136000000003,
            "value": 0.7874015748031497
          },
          {
            "number": 10,
            "ticks": 23040,
            "time": 37.894704000000004,
            "value": 0.7874015748031497
          },
          {
            "number": 10,
            "ticks": 29760,
            "time": 48.947326000000004,
            "value": 0.7874015748031497
          },
          {
            "number": 10,
            "ticks": 46080,
            "time": 75.78940800000001,
            "value": 0.7874015748031497
          },
          {
            "number": 10,
            "ticks": 53760,
            "time": 88.42097600000001,
            "value": 0.7874015748031497
          },
          {
            "number": 10,
            "ticks": 61440,
            "time": 101.05254400000001,
            "value": 0.7874015748031497
          },
          {
            "number": 10,
            "ticks": 69120,
            "time": 113.68411200000001,
            "value": 0.7874015748031497
          },
          {
            "number": 10,
            "ticks": 75840,
            "time": 124.73673400000001,
            "value": 0.7874015748031497
          },
          {
            "number": 10,
            "ticks": 92160,
            "time": 151.57881600000002,
            "value": 0.7874015748031497
          },
          {
            "number": 10,
            "ticks": 99840,
            "time": 164.21038400000003,
            "value": 0.7874015748031497
          },
          {
            "number": 10,
            "ticks": 107520,
            "time": 176.84195200000002,
            "value": 0.7874015748031497
          },
          {
            "number": 10,
            "ticks": 117120,
            "time": 192.631412,
            "value": 0.7874015748031497
          },
          {
            "number": 10,
            "ticks": 123840,
            "time": 203.68403400000003,
            "value": 0.7874015748031497
          },
          {
            "number": 10,
            "ticks": 124800,
            "time": 205.26298000000003,
            "value": 0.7874015748031497
          },
          {
            "number": 10,
            "ticks": 131520,
            "time": 216.315602,
            "value": 0.7874015748031497
          },
          {
            "number": 10,
            "ticks": 132480,
            "time": 217.89454800000001,
            "value": 0.7874015748031497
          },
          {
            "number": 10,
            "ticks": 140160,
            "time": 230.52611600000003,
            "value": 0.7874015748031497
          },
          {
            "number": 10,
            "ticks": 147840,
            "time": 243.15768400000002,
            "value": 0.7874015748031497
          },
          {
            "number": 10,
            "ticks": 154560,
            "time": 254.21030600000003,
            "value": 0.7874015748031497
          }
        ],
        "91": [
          {
            "number": 91,
            "ticks": 7680,
            "time": 12.631568000000001,
            "value": 0.15748031496062992
          },
          {
            "number": 91,
            "ticks": 15360,
            "time": 25.263136000000003,
            "value": 0.15748031496062992
          },
          {
            "number": 91,
            "ticks": 23040,
            "time": 37.894704000000004,
            "value": 0.15748031496062992
          },
          {
            "number": 91,
            "ticks": 29760,
            "time": 48.947326000000004,
            "value": 0.15748031496062992
          },
          {
            "number": 91,
            "ticks": 46080,
            "time": 75.78940800000001,
            "value": 0.15748031496062992
          },
          {
            "number": 91,
            "ticks": 53760,
            "time": 88.42097600000001,
            "value": 0.15748031496062992
          },
          {
            "number": 91,
            "ticks": 61440,
            "time": 101.05254400000001,
            "value": 0.15748031496062992
          },
          {
            "number": 91,
            "ticks": 69120,
            "time": 113.68411200000001,
            "value": 0.15748031496062992
          },
          {
            "number": 91,
            "ticks": 75840,
            "time": 124.73673400000001,
            "value": 0.15748031496062992
          },
          {
            "number": 91,
            "ticks": 92160,
            "time": 151.57881600000002,
            "value": 0.15748031496062992
          },
          {
            "number": 91,
            "ticks": 99840,
            "time": 164.21038400000003,
            "value": 0.15748031496062992
          },
          {
            "number": 91,
            "ticks": 107520,
            "time": 176.84195200000002,
            "value": 0.15748031496062992
          },
          {
            "number": 91,
            "ticks": 117120,
            "time": 192.631412,
            "value": 0.15748031496062992
          },
          {
            "number": 91,
            "ticks": 123840,
            "time": 203.68403400000003,
            "value": 0.15748031496062992
          },
          {
            "number": 91,
            "ticks": 124800,
            "time": 205.26298000000003,
            "value": 0.15748031496062992
          },
          {
            "number": 91,
            "ticks": 131520,
            "time": 216.315602,
            "value": 0.15748031496062992
          },
          {
            "number": 91,
            "ticks": 132480,
            "time": 217.89454800000001,
            "value": 0.15748031496062992
          },
          {
            "number": 91,
            "ticks": 140160,
            "time": 230.52611600000003,
            "value": 0.15748031496062992
          },
          {
            "number": 91,
            "ticks": 147840,
            "time": 243.15768400000002,
            "value": 0.15748031496062992
          },
          {
            "number": 91,
            "ticks": 154560,
            "time": 254.21030600000003,
            "value": 0.15748031496062992
          }
        ],
        "93": [
          {
            "number": 93,
            "ticks": 7680,
            "time": 12.631568000000001,
            "value": 0.07874015748031496
          },
          {
            "number": 93,
            "ticks": 15360,
            "time": 25.263136000000003,
            "value": 0.07874015748031496
          },
          {
            "number": 93,
            "ticks": 23040,
            "time": 37.894704000000004,
            "value": 0.07874015748031496
          },
          {
            "number": 93,
            "ticks": 29760,
            "time": 48.947326000000004,
            "value": 0.07874015748031496
          },
          {
            "number": 93,
            "ticks": 46080,
            "time": 75.78940800000001,
            "value": 0.07874015748031496
          },
          {
            "number": 93,
            "ticks": 53760,
            "time": 88.42097600000001,
            "value": 0.07874015748031496
          },
          {
            "number": 93,
            "ticks": 61440,
            "time": 101.05254400000001,
            "value": 0.07874015748031496
          },
          {
            "number": 93,
            "ticks": 69120,
            "time": 113.68411200000001,
            "value": 0.07874015748031496
          },
          {
            "number": 93,
            "ticks": 75840,
            "time": 124.73673400000001,
            "value": 0.07874015748031496
          },
          {
            "number": 93,
            "ticks": 92160,
            "time": 151.57881600000002,
            "value": 0.07874015748031496
          },
          {
            "number": 93,
            "ticks": 99840,
            "time": 164.21038400000003,
            "value": 0.07874015748031496
          },
          {
            "number": 93,
            "ticks": 107520,
            "time": 176.84195200000002,
            "value": 0.07874015748031496
          },
          {
            "number": 93,
            "ticks": 117120,
            "time": 192.631412,
            "value": 0.07874015748031496
          },
          {
            "number": 93,
            "ticks": 123840,
            "time": 203.68403400000003,
            "value": 0.07874015748031496
          },
          {
            "number": 93,
            "ticks": 124800,
            "time": 205.26298000000003,
            "value": 0.07874015748031496
          },
          {
            "number": 93,
            "ticks": 131520,
            "time": 216.315602,
            "value": 0.07874015748031496
          },
          {
            "number": 93,
            "ticks": 132480,
            "time": 217.89454800000001,
            "value": 0.07874015748031496
          },
          {
            "number": 93,
            "ticks": 140160,
            "time": 230.52611600000003,
            "value": 0.07874015748031496
          },
          {
            "number": 93,
            "ticks": 147840,
            "time": 243.15768400000002,
            "value": 0.07874015748031496
          },
          {
            "number": 93,
            "ticks": 154560,
            "time": 254.21030600000003,
            "value": 0.07874015748031496
          }
        ]
      },
      "pitchBends": [],
      "instrument": {
        "family": "guitar",
        "name": "acoustic guitar (nylon)",
        "number": 24
      },
      "name": "",
      "notes": [
        {
          "duration": 0.3947365000000005,
          "durationTicks": 240,
          "midi": 69,
          "name": "A4",
          "ticks": 15600,
          "time": 25.657872500000003,
          "velocity": 0.4566929133858268
        },
        {
          "duration": 0.3947365000000005,
          "durationTicks": 240,
          "midi": 72,
          "name": "C5",
          "ticks": 15840,
          "time": 26.052609000000004,
          "velocity": 0.4566929133858268
        },
        {
          "duration": 0.3947365000000005,
          "durationTicks": 240,
          "midi": 69,
          "name": "A4",
          "ticks": 16080,
          "time": 26.447345500000004,
          "velocity": 0.4566929133858268
        },
        {
          "duration": 0,
          "durationTicks": 0,
          "midi": 64,
          "name": "E4",
          "ticks": 16320,
          "time": 26.842082000000005,
          "velocity": 0.4566929133858268
        },
        {
          "duration": 0.39473649999999694,
          "durationTicks": 240,
          "midi": 71,
          "name": "B4",
          "ticks": 16320,
          "time": 26.842082000000005,
          "velocity": 0.4566929133858268
        },
        {
          "duration": 0.3947365000000005,
          "durationTicks": 240,
          "midi": 64,
          "name": "E4",
          "ticks": 16560,
          "time": 27.236818500000002,
          "velocity": 0.4566929133858268
        },
        {
          "duration": 0.3947365000000005,
          "durationTicks": 240,
          "midi": 67,
          "name": "G4",
          "ticks": 16800,
          "time": 27.631555000000002,
          "velocity": 0.4566929133858268
        },
        {
          "duration": 0.37499967500000153,
          "durationTicks": 228,
          "midi": 64,
          "name": "E4",
          "ticks": 17040,
          "time": 28.026291500000003,
          "velocity": 0.4566929133858268
        },
        {
          "duration": 0.3947365000000005,
          "durationTicks": 240,
          "midi": 69,
          "name": "A4",
          "ticks": 17520,
          "time": 28.815764500000004,
          "velocity": 0.4566929133858268
        },
        {
          "duration": 0.3947365000000005,
          "durationTicks": 240,
          "midi": 72,
          "name": "C5",
          "ticks": 17760,
          "time": 29.210501000000004,
          "velocity": 0.4566929133858268
        },
        {
          "duration": 0.39473649999999694,
          "durationTicks": 240,
          "midi": 69,
          "name": "A4",
          "ticks": 18000,
          "time": 29.605237500000005,
          "velocity": 0.4566929133858268
        },
        {
          "duration": 0,
          "durationTicks": 0,
          "midi": 64,
          "name": "E4",
          "ticks": 18240,
          "time": 29.999974,
          "velocity": 0.4566929133858268
        },
        {
          "duration": 0.3947365000000005,
          "durationTicks": 240,
          "midi": 71,
          "name": "B4",
          "ticks": 18240,
          "time": 29.999974,
          "velocity": 0.4566929133858268
        },
        {
          "duration": 0.37499967500000153,
          "durationTicks": 228,
          "midi": 64,
          "name": "E4",
          "ticks": 18480,
          "time": 30.394710500000002,
          "velocity": 0.4566929133858268
        },
        {
          "duration": 0.3947365000000005,
          "durationTicks": 240,
          "midi": 67,
          "name": "G4",
          "ticks": 18720,
          "time": 30.789447000000003,
          "velocity": 0.4566929133858268
        },
        {
          "duration": 0.37499967500000153,
          "durationTicks": 228,
          "midi": 64,
          "name": "E4",
          "ticks": 18960,
          "time": 31.184183500000003,
          "velocity": 0.4566929133858268
        },
        {
          "duration": 0.3947365000000005,
          "durationTicks": 240,
          "midi": 64,
          "name": "E4",
          "ticks": 19440,
          "time": 31.973656500000004,
          "velocity": 0.4566929133858268
        },
        {
          "duration": 0.3947365000000005,
          "durationTicks": 240,
          "midi": 69,
          "name": "A4",
          "ticks": 19680,
          "time": 32.368393000000005,
          "velocity": 0.4566929133858268
        },
        {
          "duration": 0.3947365000000005,
          "durationTicks": 240,
          "midi": 64,
          "name": "E4",
          "ticks": 19920,
          "time": 32.763129500000005,
          "velocity": 0.4566929133858268
        },
        {
          "duration": 0,
          "durationTicks": 0,
          "midi": 67,
          "name": "G4",
          "ticks": 20160,
          "time": 33.157866000000006,
          "velocity": 0.4566929133858268
        },
        {
          "duration": 0.3947365000000005,
          "durationTicks": 240,
          "midi": 74,
          "name": "D5",
          "ticks": 20160,
          "time": 33.157866000000006,
          "velocity": 0.4566929133858268
        },
        {
          "duration": 0.3947365000000005,
          "durationTicks": 240,
          "midi": 67,
          "name": "G4",
          "ticks": 20400,
          "time": 33.552602500000006,
          "velocity": 0.4566929133858268
        },
        {
          "duration": 0.3947365000000005,
          "durationTicks": 240,
          "midi": 71,
          "name": "B4",
          "ticks": 20640,
          "time": 33.94733900000001,
          "velocity": 0.4566929133858268
        },
        {
          "duration": 0.374999674999998,
          "durationTicks": 228,
          "midi": 67,
          "name": "G4",
          "ticks": 20880,
          "time": 34.34207550000001,
          "velocity": 0.4566929133858268
        },
        {
          "duration": 0.3947365000000005,
          "durationTicks": 240,
          "midi": 69,
          "name": "A4",
          "ticks": 21360,
          "time": 35.1315485,
          "velocity": 0.4566929133858268
        },
        {
          "duration": 0.3947365000000005,
          "durationTicks": 240,
          "midi": 72,
          "name": "C5",
          "ticks": 21600,
          "time": 35.526285,
          "velocity": 0.4566929133858268
        },
        {
          "duration": 0.3947365000000005,
          "durationTicks": 240,
          "midi": 69,
          "name": "A4",
          "ticks": 21840,
          "time": 35.9210215,
          "velocity": 0.4566929133858268
        },
        {
          "duration": 0.3947365000000005,
          "durationTicks": 240,
          "midi": 76,
          "name": "E5",
          "ticks": 22080,
          "time": 36.315758,
          "velocity": 0.4566929133858268
        },
        {
          "duration": 0.3947365000000005,
          "durationTicks": 240,
          "midi": 69,
          "name": "A4",
          "ticks": 22320,
          "time": 36.7104945,
          "velocity": 0.4566929133858268
        },
        {
          "duration": 0.3947365000000005,
          "durationTicks": 240,
          "midi": 72,
          "name": "C5",
          "ticks": 22560,
          "time": 37.105231,
          "velocity": 0.4566929133858268
        },
        {
          "duration": 0.1973682500000038,
          "durationTicks": 120,
          "midi": 69,
          "name": "A4",
          "ticks": 22800,
          "time": 37.499967500000004,
          "velocity": 0.4645669291338583
        },
        {
          "duration": 0.3947365000000005,
          "durationTicks": 240,
          "midi": 69,
          "name": "A4",
          "ticks": 23280,
          "time": 38.289440500000005,
          "velocity": 0.4566929133858268
        },
        {
          "duration": 0.3947365000000005,
          "durationTicks": 240,
          "midi": 72,
          "name": "C5",
          "ticks": 23520,
          "time": 38.684177000000005,
          "velocity": 0.4566929133858268
        },
        {
          "duration": 0.3947365000000005,
          "durationTicks": 240,
          "midi": 69,
          "name": "A4",
          "ticks": 23760,
          "time": 39.078913500000006,
          "velocity": 0.4566929133858268
        },
        {
          "duration": 0,
          "durationTicks": 0,
          "midi": 64,
          "name": "E4",
          "ticks": 24000,
          "time": 39.473650000000006,
          "velocity": 0.4566929133858268
        },
        {
          "duration": 0.3947365000000005,
          "durationTicks": 240,
          "midi": 71,
          "name": "B4",
          "ticks": 24000,
          "time": 39.473650000000006,
          "velocity": 0.4566929133858268
        },
        {
          "duration": 0.3947365000000005,
          "durationTicks": 240,
          "midi": 64,
          "name": "E4",
          "ticks": 24240,
          "time": 39.86838650000001,
          "velocity": 0.4566929133858268
        },
        {
          "duration": 0.3947365000000005,
          "durationTicks": 240,
          "midi": 67,
          "name": "G4",
          "ticks": 24480,
          "time": 40.26312300000001,
          "velocity": 0.4566929133858268
        },
        {
          "duration": 0.374999674999998,
          "durationTicks": 228,
          "midi": 64,
          "name": "E4",
          "ticks": 24720,
          "time": 40.65785950000001,
          "velocity": 0.4566929133858268
        },
        {
          "duration": 0.3947365000000005,
          "durationTicks": 240,
          "midi": 69,
          "name": "A4",
          "ticks": 25200,
          "time": 41.4473325,
          "velocity": 0.4566929133858268
        },
        {
          "duration": 0.3947365000000005,
          "durationTicks": 240,
          "midi": 72,
          "name": "C5",
          "ticks": 25440,
          "time": 41.842069,
          "velocity": 0.4566929133858268
        },
        {
          "duration": 0.3947365000000005,
          "durationTicks": 240,
          "midi": 69,
          "name": "A4",
          "ticks": 25680,
          "time": 42.2368055,
          "velocity": 0.4566929133858268
        },
        {
          "duration": 0,
          "durationTicks": 0,
          "midi": 64,
          "name": "E4",
          "ticks": 25920,
          "time": 42.631542,
          "velocity": 0.4566929133858268
        },
        {
          "duration": 0.3947365000000005,
          "durationTicks": 240,
          "midi": 71,
          "name": "B4",
          "ticks": 25920,
          "time": 42.631542,
          "velocity": 0.4566929133858268
        },
        {
          "duration": 0.3749996750000051,
          "durationTicks": 228,
          "midi": 64,
          "name": "E4",
          "ticks": 26160,
          "time": 43.026278500000004,
          "velocity": 0.4566929133858268
        },
        {
          "duration": 0.3947365000000005,
          "durationTicks": 240,
          "midi": 67,
          "name": "G4",
          "ticks": 26400,
          "time": 43.421015000000004,
          "velocity": 0.4566929133858268
        },
        {
          "duration": 0.3749996750000051,
          "durationTicks": 228,
          "midi": 64,
          "name": "E4",
          "ticks": 26640,
          "time": 43.815751500000005,
          "velocity": 0.4566929133858268
        },
        {
          "duration": 0.3947365000000005,
          "durationTicks": 240,
          "midi": 64,
          "name": "E4",
          "ticks": 27120,
          "time": 44.605224500000006,
          "velocity": 0.4566929133858268
        },
        {
          "duration": 0.3947365000000005,
          "durationTicks": 240,
          "midi": 69,
          "name": "A4",
          "ticks": 27360,
          "time": 44.999961000000006,
          "velocity": 0.4566929133858268
        },
        {
          "duration": 0.3947365000000005,
          "durationTicks": 240,
          "midi": 64,
          "name": "E4",
          "ticks": 27600,
          "time": 45.39469750000001,
          "velocity": 0.4566929133858268
        },
        {
          "duration": 0,
          "durationTicks": 0,
          "midi": 64,
          "name": "E4",
          "ticks": 27840,
          "time": 45.78943400000001,
          "velocity": 0.4566929133858268
        },
        {
          "duration": 0.3947365000000005,
          "durationTicks": 240,
          "midi": 71,
          "name": "B4",
          "ticks": 27840,
          "time": 45.78943400000001,
          "velocity": 0.4566929133858268
        },
        {
          "duration": 0.3947365000000005,
          "durationTicks": 240,
          "midi": 64,
          "name": "E4",
          "ticks": 28080,
          "time": 46.18417050000001,
          "velocity": 0.4566929133858268
        },
        {
          "duration": 0.3947365000000005,
          "durationTicks": 240,
          "midi": 67,
          "name": "G4",
          "ticks": 28320,
          "time": 46.57890700000001,
          "velocity": 0.4566929133858268
        },
        {
          "duration": 0.374999674999998,
          "durationTicks": 228,
          "midi": 64,
          "name": "E4",
          "ticks": 28560,
          "time": 46.97364350000001,
          "velocity": 0.4566929133858268
        },
        {
          "duration": 0.3947365000000005,
          "durationTicks": 240,
          "midi": 69,
          "name": "A4",
          "ticks": 29040,
          "time": 47.7631165,
          "velocity": 0.4566929133858268
        },
        {
          "duration": 0.3947365000000005,
          "durationTicks": 240,
          "midi": 72,
          "name": "C5",
          "ticks": 29280,
          "time": 48.157853,
          "velocity": 0.4566929133858268
        },
        {
          "duration": 0.388157558333333,
          "durationTicks": 236,
          "midi": 69,
          "name": "A4",
          "ticks": 29520,
          "time": 48.5525895,
          "velocity": 0.4566929133858268
        },
        {
          "duration": 0.26973660833333923,
          "durationTicks": 164,
          "midi": 64,
          "name": "E4",
          "ticks": 30232,
          "time": 49.72364111666667,
          "velocity": 0.5669291338582677
        },
        {
          "duration": 0.24999978333332962,
          "durationTicks": 152,
          "midi": 72,
          "name": "C5",
          "ticks": 30236,
          "time": 49.73022005833334,
          "velocity": 0.5669291338582677
        },
        {
          "duration": 0.02631576666666291,
          "durationTicks": 16,
          "midi": 72,
          "name": "C5",
          "ticks": 30700,
          "time": 50.493377291666675,
          "velocity": 0.5669291338582677
        },
        {
          "duration": 0.019736824999995406,
          "durationTicks": 12,
          "midi": 69,
          "name": "A4",
          "ticks": 30704,
          "time": 50.49995623333334,
          "velocity": 0.5669291338582677
        },
        {
          "duration": 0.019736824999995406,
          "durationTicks": 12,
          "midi": 64,
          "name": "E4",
          "ticks": 30704,
          "time": 50.49995623333334,
          "velocity": 0.5669291338582677
        },
        {
          "duration": 0.3947365000000076,
          "durationTicks": 240,
          "midi": 69,
          "name": "A4",
          "ticks": 69360,
          "time": 114.0788485,
          "velocity": 0.4566929133858268
        },
        {
          "duration": 0.3947364999999934,
          "durationTicks": 240,
          "midi": 72,
          "name": "C5",
          "ticks": 69600,
          "time": 114.47358500000001,
          "velocity": 0.4566929133858268
        },
        {
          "duration": 0.3947365000000076,
          "durationTicks": 240,
          "midi": 69,
          "name": "A4",
          "ticks": 69840,
          "time": 114.86832150000001,
          "velocity": 0.4566929133858268
        },
        {
          "duration": 0,
          "durationTicks": 0,
          "midi": 64,
          "name": "E4",
          "ticks": 70080,
          "time": 115.26305800000002,
          "velocity": 0.4566929133858268
        },
        {
          "duration": 0.3947364999999934,
          "durationTicks": 240,
          "midi": 71,
          "name": "B4",
          "ticks": 70080,
          "time": 115.26305800000002,
          "velocity": 0.4566929133858268
        },
        {
          "duration": 0.3947365000000076,
          "durationTicks": 240,
          "midi": 64,
          "name": "E4",
          "ticks": 70320,
          "time": 115.65779450000001,
          "velocity": 0.4566929133858268
        },
        {
          "duration": 0.3947364999999934,
          "durationTicks": 240,
          "midi": 67,
          "name": "G4",
          "ticks": 70560,
          "time": 116.05253100000002,
          "velocity": 0.4566929133858268
        },
        {
          "duration": 0.374999674999998,
          "durationTicks": 228,
          "midi": 64,
          "name": "E4",
          "ticks": 70800,
          "time": 116.44726750000001,
          "velocity": 0.4566929133858268
        },
        {
          "duration": 0.3947365000000076,
          "durationTicks": 240,
          "midi": 69,
          "name": "A4",
          "ticks": 71280,
          "time": 117.23674050000001,
          "velocity": 0.4566929133858268
        },
        {
          "duration": 0.3947364999999934,
          "durationTicks": 240,
          "midi": 72,
          "name": "C5",
          "ticks": 71520,
          "time": 117.63147700000002,
          "velocity": 0.4566929133858268
        },
        {
          "duration": 0.3947365000000076,
          "durationTicks": 240,
          "midi": 69,
          "name": "A4",
          "ticks": 71760,
          "time": 118.02621350000001,
          "velocity": 0.4566929133858268
        },
        {
          "duration": 0,
          "durationTicks": 0,
          "midi": 64,
          "name": "E4",
          "ticks": 72000,
          "time": 118.42095000000002,
          "velocity": 0.4566929133858268
        },
        {
          "duration": 0.3947364999999934,
          "durationTicks": 240,
          "midi": 71,
          "name": "B4",
          "ticks": 72000,
          "time": 118.42095000000002,
          "velocity": 0.4566929133858268
        },
        {
          "duration": 0.374999674999998,
          "durationTicks": 228,
          "midi": 64,
          "name": "E4",
          "ticks": 72240,
          "time": 118.81568650000001,
          "velocity": 0.4566929133858268
        },
        {
          "duration": 0.3947364999999934,
          "durationTicks": 240,
          "midi": 67,
          "name": "G4",
          "ticks": 72480,
          "time": 119.21042300000002,
          "velocity": 0.4566929133858268
        },
        {
          "duration": 0.374999674999998,
          "durationTicks": 228,
          "midi": 64,
          "name": "E4",
          "ticks": 72720,
          "time": 119.60515950000001,
          "velocity": 0.4566929133858268
        },
        {
          "duration": 0.3947364999999934,
          "durationTicks": 240,
          "midi": 64,
          "name": "E4",
          "ticks": 73200,
          "time": 120.39463250000001,
          "velocity": 0.4566929133858268
        },
        {
          "duration": 0.3947365000000076,
          "durationTicks": 240,
          "midi": 69,
          "name": "A4",
          "ticks": 73440,
          "time": 120.78936900000001,
          "velocity": 0.4566929133858268
        },
        {
          "duration": 0.3947364999999934,
          "durationTicks": 240,
          "midi": 64,
          "name": "E4",
          "ticks": 73680,
          "time": 121.18410550000002,
          "velocity": 0.4566929133858268
        },
        {
          "duration": 0,
          "durationTicks": 0,
          "midi": 64,
          "name": "E4",
          "ticks": 73920,
          "time": 121.57884200000001,
          "velocity": 0.4566929133858268
        },
        {
          "duration": 0.3947365000000076,
          "durationTicks": 240,
          "midi": 71,
          "name": "B4",
          "ticks": 73920,
          "time": 121.57884200000001,
          "velocity": 0.4566929133858268
        },
        {
          "duration": 0.3947364999999934,
          "durationTicks": 240,
          "midi": 64,
          "name": "E4",
          "ticks": 74160,
          "time": 121.97357850000002,
          "velocity": 0.4566929133858268
        },
        {
          "duration": 0.3947365000000076,
          "durationTicks": 240,
          "midi": 67,
          "name": "G4",
          "ticks": 74400,
          "time": 122.36831500000001,
          "velocity": 0.4566929133858268
        },
        {
          "duration": 0.374999674999998,
          "durationTicks": 228,
          "midi": 64,
          "name": "E4",
          "ticks": 74640,
          "time": 122.76305150000002,
          "velocity": 0.4566929133858268
        },
        {
          "duration": 0.3947364999999934,
          "durationTicks": 240,
          "midi": 69,
          "name": "A4",
          "ticks": 75120,
          "time": 123.55252450000002,
          "velocity": 0.4566929133858268
        },
        {
          "duration": 0.3947365000000076,
          "durationTicks": 240,
          "midi": 72,
          "name": "C5",
          "ticks": 75360,
          "time": 123.94726100000001,
          "velocity": 0.4566929133858268
        },
        {
          "duration": 0.388157558333333,
          "durationTicks": 236,
          "midi": 69,
          "name": "A4",
          "ticks": 75600,
          "time": 124.34199750000002,
          "velocity": 0.4566929133858268
        },
        {
          "duration": 0.26973660833334634,
          "durationTicks": 164,
          "midi": 64,
          "name": "E4",
          "ticks": 76312,
          "time": 125.51304911666666,
          "velocity": 0.5669291338582677
        },
        {
          "duration": 0.24999978333333672,
          "durationTicks": 152,
          "midi": 72,
          "name": "C5",
          "ticks": 76316,
          "time": 125.51962805833335,
          "velocity": 0.5669291338582677
        },
        {
          "duration": 0.026315766666670015,
          "durationTicks": 16,
          "midi": 72,
          "name": "C5",
          "ticks": 76780,
          "time": 126.28278529166668,
          "velocity": 0.5669291338582677
        },
        {
          "duration": 0.019736825000009617,
          "durationTicks": 12,
          "midi": 69,
          "name": "A4",
          "ticks": 76784,
          "time": 126.28936423333334,
          "velocity": 0.5669291338582677
        },
        {
          "duration": 0.019736825000009617,
          "durationTicks": 12,
          "midi": 64,
          "name": "E4",
          "ticks": 76784,
          "time": 126.28936423333334,
          "velocity": 0.5669291338582677
        },
        {
          "duration": 0.3947364999999934,
          "durationTicks": 240,
          "midi": 65,
          "name": "F4",
          "ticks": 117360,
          "time": 193.02614850000003,
          "velocity": 0.4566929133858268
        },
        {
          "duration": 0.3947364999999934,
          "durationTicks": 240,
          "midi": 69,
          "name": "A4",
          "ticks": 117600,
          "time": 193.42088500000003,
          "velocity": 0.4566929133858268
        },
        {
          "duration": 0.3947364999999934,
          "durationTicks": 240,
          "midi": 65,
          "name": "F4",
          "ticks": 117840,
          "time": 193.81562150000002,
          "velocity": 0.4566929133858268
        },
        {
          "duration": 0,
          "durationTicks": 0,
          "midi": 67,
          "name": "G4",
          "ticks": 118080,
          "time": 194.210358,
          "velocity": 0.4566929133858268
        },
        {
          "duration": 0.3947365000000218,
          "durationTicks": 240,
          "midi": 74,
          "name": "D5",
          "ticks": 118080,
          "time": 194.210358,
          "velocity": 0.4566929133858268
        },
        {
          "duration": 0.3947364999999934,
          "durationTicks": 240,
          "midi": 67,
          "name": "G4",
          "ticks": 118320,
          "time": 194.60509450000004,
          "velocity": 0.4566929133858268
        },
        {
          "duration": 0.3947364999999934,
          "durationTicks": 240,
          "midi": 71,
          "name": "B4",
          "ticks": 118560,
          "time": 194.99983100000003,
          "velocity": 0.4566929133858268
        },
        {
          "duration": 0.374999674999998,
          "durationTicks": 228,
          "midi": 67,
          "name": "G4",
          "ticks": 118800,
          "time": 195.39456750000002,
          "velocity": 0.4566929133858268
        },
        {
          "duration": 0.3947365000000218,
          "durationTicks": 240,
          "midi": 60,
          "name": "C4",
          "ticks": 119280,
          "time": 196.1840405,
          "velocity": 0.4566929133858268
        },
        {
          "duration": 0,
          "durationTicks": 0,
          "midi": 65,
          "name": "F4",
          "ticks": 119520,
          "time": 196.57877700000003,
          "velocity": 0.4566929133858268
        },
        {
          "duration": 0.3947364999999934,
          "durationTicks": 240,
          "midi": 71,
          "name": "B4",
          "ticks": 119520,
          "time": 196.57877700000003,
          "velocity": 0.4566929133858268
        },
        {
          "duration": 0.3947364999999934,
          "durationTicks": 240,
          "midi": 65,
          "name": "F4",
          "ticks": 119760,
          "time": 196.97351350000002,
          "velocity": 0.4566929133858268
        },
        {
          "duration": 0,
          "durationTicks": 0,
          "midi": 69,
          "name": "A4",
          "ticks": 120000,
          "time": 197.36825000000002,
          "velocity": 0.4566929133858268
        },
        {
          "duration": 0.3947364999999934,
          "durationTicks": 240,
          "midi": 76,
          "name": "E5",
          "ticks": 120000,
          "time": 197.36825000000002,
          "velocity": 0.4566929133858268
        },
        {
          "duration": 0.374999674999998,
          "durationTicks": 228,
          "midi": 69,
          "name": "A4",
          "ticks": 120240,
          "time": 197.7629865,
          "velocity": 0.4566929133858268
        },
        {
          "duration": 0.3947364999999934,
          "durationTicks": 240,
          "midi": 72,
          "name": "C5",
          "ticks": 120480,
          "time": 198.15772300000003,
          "velocity": 0.4566929133858268
        },
        {
          "duration": 0.374999674999998,
          "durationTicks": 228,
          "midi": 69,
          "name": "A4",
          "ticks": 120720,
          "time": 198.55245950000003,
          "velocity": 0.4566929133858268
        },
        {
          "duration": 0.3947365000000218,
          "durationTicks": 240,
          "midi": 65,
          "name": "F4",
          "ticks": 121200,
          "time": 199.3419325,
          "velocity": 0.4566929133858268
        },
        {
          "duration": 0.3947364999999934,
          "durationTicks": 240,
          "midi": 69,
          "name": "A4",
          "ticks": 121440,
          "time": 199.73666900000003,
          "velocity": 0.4566929133858268
        },
        {
          "duration": 0.3947364999999934,
          "durationTicks": 240,
          "midi": 65,
          "name": "F4",
          "ticks": 121680,
          "time": 200.13140550000003,
          "velocity": 0.4566929133858268
        },
        {
          "duration": 0,
          "durationTicks": 0,
          "midi": 67,
          "name": "G4",
          "ticks": 121920,
          "time": 200.52614200000002,
          "velocity": 0.4566929133858268
        },
        {
          "duration": 0.3947364999999934,
          "durationTicks": 240,
          "midi": 74,
          "name": "D5",
          "ticks": 121920,
          "time": 200.52614200000002,
          "velocity": 0.4566929133858268
        },
        {
          "duration": 0.3947365000000218,
          "durationTicks": 240,
          "midi": 67,
          "name": "G4",
          "ticks": 122160,
          "time": 200.92087850000001,
          "velocity": 0.4566929133858268
        },
        {
          "duration": 0.3947364999999934,
          "durationTicks": 240,
          "midi": 71,
          "name": "B4",
          "ticks": 122400,
          "time": 201.31561500000004,
          "velocity": 0.4566929133858268
        },
        {
          "duration": 0.374999674999998,
          "durationTicks": 228,
          "midi": 67,
          "name": "G4",
          "ticks": 122640,
          "time": 201.71035150000003,
          "velocity": 0.4566929133858268
        },
        {
          "duration": 0.3947364999999934,
          "durationTicks": 240,
          "midi": 69,
          "name": "A4",
          "ticks": 123120,
          "time": 202.49982450000002,
          "velocity": 0.4566929133858268
        },
        {
          "duration": 0.3947365000000218,
          "durationTicks": 240,
          "midi": 72,
          "name": "C5",
          "ticks": 123360,
          "time": 202.894561,
          "velocity": 0.4566929133858268
        },
        {
          "duration": 0.3881575583333188,
          "durationTicks": 236,
          "midi": 69,
          "name": "A4",
          "ticks": 123600,
          "time": 203.28929750000003,
          "velocity": 0.4566929133858268
        },
        {
          "duration": 0.2697366083333179,
          "durationTicks": 164,
          "midi": 64,
          "name": "E4",
          "ticks": 124312,
          "time": 204.4603491166667,
          "velocity": 0.5669291338582677
        },
        {
          "duration": 0.2499997833333225,
          "durationTicks": 152,
          "midi": 72,
          "name": "C5",
          "ticks": 124316,
          "time": 204.46692805833337,
          "velocity": 0.5669291338582677
        },
        {
          "duration": 0.026315766666670015,
          "durationTicks": 16,
          "midi": 72,
          "name": "C5",
          "ticks": 124780,
          "time": 205.23008529166668,
          "velocity": 0.5669291338582677
        },
        {
          "duration": 0.019736825000023828,
          "durationTicks": 12,
          "midi": 69,
          "name": "A4",
          "ticks": 124784,
          "time": 205.23666423333333,
          "velocity": 0.5669291338582677
        },
        {
          "duration": 0.019736825000023828,
          "durationTicks": 12,
          "midi": 64,
          "name": "E4",
          "ticks": 124784,
          "time": 205.23666423333333,
          "velocity": 0.5669291338582677
        },
        {
          "duration": 0.3947364999999934,
          "durationTicks": 240,
          "midi": 65,
          "name": "F4",
          "ticks": 125040,
          "time": 205.65771650000002,
          "velocity": 0.4566929133858268
        },
        {
          "duration": 0.3947365000000218,
          "durationTicks": 240,
          "midi": 69,
          "name": "A4",
          "ticks": 125280,
          "time": 206.052453,
          "velocity": 0.4566929133858268
        },
        {
          "duration": 0.3947364999999934,
          "durationTicks": 240,
          "midi": 65,
          "name": "F4",
          "ticks": 125520,
          "time": 206.44718950000004,
          "velocity": 0.4566929133858268
        },
        {
          "duration": 0,
          "durationTicks": 0,
          "midi": 67,
          "name": "G4",
          "ticks": 125760,
          "time": 206.84192600000003,
          "velocity": 0.4566929133858268
        },
        {
          "duration": 0.3947364999999934,
          "durationTicks": 240,
          "midi": 74,
          "name": "D5",
          "ticks": 125760,
          "time": 206.84192600000003,
          "velocity": 0.4566929133858268
        },
        {
          "duration": 0.3947364999999934,
          "durationTicks": 240,
          "midi": 67,
          "name": "G4",
          "ticks": 126000,
          "time": 207.23666250000002,
          "velocity": 0.4566929133858268
        },
        {
          "duration": 0.3947365000000218,
          "durationTicks": 240,
          "midi": 71,
          "name": "B4",
          "ticks": 126240,
          "time": 207.63139900000002,
          "velocity": 0.4566929133858268
        },
        {
          "duration": 0.374999674999998,
          "durationTicks": 228,
          "midi": 67,
          "name": "G4",
          "ticks": 126480,
          "time": 208.02613550000004,
          "velocity": 0.4566929133858268
        },
        {
          "duration": 0.3947364999999934,
          "durationTicks": 240,
          "midi": 60,
          "name": "C4",
          "ticks": 126960,
          "time": 208.81560850000002,
          "velocity": 0.4566929133858268
        },
        {
          "duration": 0,
          "durationTicks": 0,
          "midi": 65,
          "name": "F4",
          "ticks": 127200,
          "time": 209.21034500000002,
          "velocity": 0.4566929133858268
        },
        {
          "duration": 0.3947364999999934,
          "durationTicks": 240,
          "midi": 71,
          "name": "B4",
          "ticks": 127200,
          "time": 209.21034500000002,
          "velocity": 0.4566929133858268
        },
        {
          "duration": 0.3947365000000218,
          "durationTicks": 240,
          "midi": 65,
          "name": "F4",
          "ticks": 127440,
          "time": 209.6050815,
          "velocity": 0.4566929133858268
        },
        {
          "duration": 0,
          "durationTicks": 0,
          "midi": 69,
          "name": "A4",
          "ticks": 127680,
          "time": 209.99981800000003,
          "velocity": 0.4566929133858268
        },
        {
          "duration": 0.3947364999999934,
          "durationTicks": 240,
          "midi": 76,
          "name": "E5",
          "ticks": 127680,
          "time": 209.99981800000003,
          "velocity": 0.4566929133858268
        },
        {
          "duration": 0.3749996750000264,
          "durationTicks": 228,
          "midi": 69,
          "name": "A4",
          "ticks": 127920,
          "time": 210.39455450000003,
          "velocity": 0.4566929133858268
        },
        {
          "duration": 0.3947364999999934,
          "durationTicks": 240,
          "midi": 72,
          "name": "C5",
          "ticks": 128160,
          "time": 210.78929100000002,
          "velocity": 0.4566929133858268
        },
        {
          "duration": 0.3749996750000264,
          "durationTicks": 228,
          "midi": 69,
          "name": "A4",
          "ticks": 128400,
          "time": 211.1840275,
          "velocity": 0.4566929133858268
        },
        {
          "duration": 0.3947364999999934,
          "durationTicks": 240,
          "midi": 65,
          "name": "F4",
          "ticks": 128880,
          "time": 211.97350050000003,
          "velocity": 0.4566929133858268
        },
        {
          "duration": 0.3947364999999934,
          "durationTicks": 240,
          "midi": 69,
          "name": "A4",
          "ticks": 129120,
          "time": 212.36823700000002,
          "velocity": 0.4566929133858268
        },
        {
          "duration": 0.3947365000000218,
          "durationTicks": 240,
          "midi": 65,
          "name": "F4",
          "ticks": 129360,
          "time": 212.76297350000002,
          "velocity": 0.4566929133858268
        },
        {
          "duration": 0,
          "durationTicks": 0,
          "midi": 67,
          "name": "G4",
          "ticks": 129600,
          "time": 213.15771000000004,
          "velocity": 0.4566929133858268
        },
        {
          "duration": 0.3947364999999934,
          "durationTicks": 240,
          "midi": 74,
          "name": "D5",
          "ticks": 129600,
          "time": 213.15771000000004,
          "velocity": 0.4566929133858268
        },
        {
          "duration": 0.3947364999999934,
          "durationTicks": 240,
          "midi": 67,
          "name": "G4",
          "ticks": 129840,
          "time": 213.55244650000003,
          "velocity": 0.4566929133858268
        },
        {
          "duration": 0.3947364999999934,
          "durationTicks": 240,
          "midi": 71,
          "name": "B4",
          "ticks": 130080,
          "time": 213.94718300000002,
          "velocity": 0.4566929133858268
        },
        {
          "duration": 0.3749996750000264,
          "durationTicks": 228,
          "midi": 67,
          "name": "G4",
          "ticks": 130320,
          "time": 214.34191950000002,
          "velocity": 0.4566929133858268
        },
        {
          "duration": 0.3947364999999934,
          "durationTicks": 240,
          "midi": 69,
          "name": "A4",
          "ticks": 130800,
          "time": 215.13139250000003,
          "velocity": 0.4566929133858268
        },
        {
          "duration": 0.3947364999999934,
          "durationTicks": 240,
          "midi": 72,
          "name": "C5",
          "ticks": 131040,
          "time": 215.52612900000003,
          "velocity": 0.4566929133858268
        },
        {
          "duration": 0.3881575583333472,
          "durationTicks": 236,
          "midi": 69,
          "name": "A4",
          "ticks": 131280,
          "time": 215.92086550000002,
          "velocity": 0.4566929133858268
        },
        {
          "duration": 0.2697366083333179,
          "durationTicks": 164,
          "midi": 64,
          "name": "E4",
          "ticks": 131992,
          "time": 217.0919171166667,
          "velocity": 0.5669291338582677
        },
        {
          "duration": 0.24999978333335093,
          "durationTicks": 152,
          "midi": 72,
          "name": "C5",
          "ticks": 131996,
          "time": 217.09849605833335,
          "velocity": 0.5669291338582677
        },
        {
          "duration": 0.026315766666698437,
          "durationTicks": 16,
          "midi": 72,
          "name": "C5",
          "ticks": 132460,
          "time": 217.86165329166667,
          "velocity": 0.5669291338582677
        },
        {
          "duration": 0.019736825000023828,
          "durationTicks": 12,
          "midi": 69,
          "name": "A4",
          "ticks": 132464,
          "time": 217.86823223333334,
          "velocity": 0.5669291338582677
        },
        {
          "duration": 0.019736825000023828,
          "durationTicks": 12,
          "midi": 64,
          "name": "E4",
          "ticks": 132464,
          "time": 217.86823223333334,
          "velocity": 0.5669291338582677
        }
      ]
    },
    {
      "channel": 6,
      "controlChanges": {
        "10": [
          {
            "number": 10,
            "ticks": 14400,
            "time": 23.68419,
            "value": 0.7874015748031497
          },
          {
            "number": 10,
            "ticks": 30720,
            "time": 50.526272000000006,
            "value": 0.7874015748031497
          },
          {
            "number": 10,
            "ticks": 38400,
            "time": 63.15784000000001,
            "value": 0.7874015748031497
          },
          {
            "number": 10,
            "ticks": 45120,
            "time": 74.210462,
            "value": 0.7874015748031497
          },
          {
            "number": 10,
            "ticks": 60480,
            "time": 99.47359800000001,
            "value": 0.7874015748031497
          },
          {
            "number": 10,
            "ticks": 68160,
            "time": 112.10516600000001,
            "value": 0.7874015748031497
          },
          {
            "number": 10,
            "ticks": 76800,
            "time": 126.31568000000001,
            "value": 0.7874015748031497
          },
          {
            "number": 10,
            "ticks": 84480,
            "time": 138.947248,
            "value": 0.7874015748031497
          },
          {
            "number": 10,
            "ticks": 91200,
            "time": 149.99987000000002,
            "value": 0.7874015748031497
          },
          {
            "number": 10,
            "ticks": 106560,
            "time": 175.26300600000002,
            "value": 0.7874015748031497
          },
          {
            "number": 10,
            "ticks": 146880,
            "time": 241.57873800000002,
            "value": 0.7874015748031497
          },
          {
            "number": 10,
            "ticks": 153600,
            "time": 252.63136000000003,
            "value": 0.7874015748031497
          }
        ],
        "91": [
          {
            "number": 91,
            "ticks": 14400,
            "time": 23.68419,
            "value": 0.15748031496062992
          },
          {
            "number": 91,
            "ticks": 30720,
            "time": 50.526272000000006,
            "value": 0.15748031496062992
          },
          {
            "number": 91,
            "ticks": 38400,
            "time": 63.15784000000001,
            "value": 0.15748031496062992
          },
          {
            "number": 91,
            "ticks": 45120,
            "time": 74.210462,
            "value": 0.15748031496062992
          },
          {
            "number": 91,
            "ticks": 60480,
            "time": 99.47359800000001,
            "value": 0.15748031496062992
          },
          {
            "number": 91,
            "ticks": 68160,
            "time": 112.10516600000001,
            "value": 0.15748031496062992
          },
          {
            "number": 91,
            "ticks": 76800,
            "time": 126.31568000000001,
            "value": 0.15748031496062992
          },
          {
            "number": 91,
            "ticks": 84480,
            "time": 138.947248,
            "value": 0.15748031496062992
          },
          {
            "number": 91,
            "ticks": 91200,
            "time": 149.99987000000002,
            "value": 0.15748031496062992
          },
          {
            "number": 91,
            "ticks": 106560,
            "time": 175.26300600000002,
            "value": 0.15748031496062992
          },
          {
            "number": 91,
            "ticks": 146880,
            "time": 241.57873800000002,
            "value": 0.15748031496062992
          },
          {
            "number": 91,
            "ticks": 153600,
            "time": 252.63136000000003,
            "value": 0.15748031496062992
          }
        ],
        "93": [
          {
            "number": 93,
            "ticks": 14400,
            "time": 23.68419,
            "value": 0.07874015748031496
          },
          {
            "number": 93,
            "ticks": 30720,
            "time": 50.526272000000006,
            "value": 0.07874015748031496
          },
          {
            "number": 93,
            "ticks": 38400,
            "time": 63.15784000000001,
            "value": 0.07874015748031496
          },
          {
            "number": 93,
            "ticks": 45120,
            "time": 74.210462,
            "value": 0.07874015748031496
          },
          {
            "number": 93,
            "ticks": 60480,
            "time": 99.47359800000001,
            "value": 0.07874015748031496
          },
          {
            "number": 93,
            "ticks": 68160,
            "time": 112.10516600000001,
            "value": 0.07874015748031496
          },
          {
            "number": 93,
            "ticks": 76800,
            "time": 126.31568000000001,
            "value": 0.07874015748031496
          },
          {
            "number": 93,
            "ticks": 84480,
            "time": 138.947248,
            "value": 0.07874015748031496
          },
          {
            "number": 93,
            "ticks": 91200,
            "time": 149.99987000000002,
            "value": 0.07874015748031496
          },
          {
            "number": 93,
            "ticks": 106560,
            "time": 175.26300600000002,
            "value": 0.07874015748031496
          },
          {
            "number": 93,
            "ticks": 146880,
            "time": 241.57873800000002,
            "value": 0.07874015748031496
          },
          {
            "number": 93,
            "ticks": 153600,
            "time": 252.63136000000003,
            "value": 0.07874015748031496
          }
        ]
      },
      "pitchBends": [],
      "instrument": {
        "family": "piano",
        "name": "acoustic grand piano",
        "number": 0
      },
      "name": "",
      "notes": [
        {
          "duration": 0.789473000000001,
          "durationTicks": 480,
          "midi": 45,
          "name": "A2",
          "ticks": 14400,
          "time": 23.68419,
          "velocity": 0.7322834645669292
        },
        {
          "duration": 0.3947365000000005,
          "durationTicks": 240,
          "midi": 57,
          "name": "A3",
          "ticks": 14880,
          "time": 24.473663000000002,
          "velocity": 0.4409448818897638
        },
        {
          "duration": 0.19736825000000024,
          "durationTicks": 120,
          "midi": 52,
          "name": "E3",
          "ticks": 15120,
          "time": 24.868399500000002,
          "velocity": 0.4409448818897638
        },
        {
          "duration": 0.19078930833333274,
          "durationTicks": 116,
          "midi": 52,
          "name": "E3",
          "ticks": 15240,
          "time": 25.065767750000003,
          "velocity": 0.5984251968503937
        },
        {
          "duration": 0.02631576666666291,
          "durationTicks": 16,
          "midi": 64,
          "name": "E4",
          "ticks": 33584,
          "time": 55.23679423333334,
          "velocity": 0.5118110236220472
        },
        {
          "duration": 0.02631576666666291,
          "durationTicks": 16,
          "midi": 67,
          "name": "G4",
          "ticks": 33584,
          "time": 55.23679423333334,
          "velocity": 0.5118110236220472
        },
        {
          "duration": 0.01973682500000251,
          "durationTicks": 12,
          "midi": 76,
          "name": "E5",
          "ticks": 33588,
          "time": 55.243373175,
          "velocity": 0.5118110236220472
        },
        {
          "duration": 0.01973682500000251,
          "durationTicks": 12,
          "midi": 55,
          "name": "G3",
          "ticks": 33588,
          "time": 55.243373175,
          "velocity": 0.5118110236220472
        },
        {
          "duration": 0.013157883333327902,
          "durationTicks": 8,
          "midi": 71,
          "name": "B4",
          "ticks": 33592,
          "time": 55.24995211666668,
          "velocity": 0.5118110236220472
        },
        {
          "duration": 0.6513152250000047,
          "durationTicks": 396,
          "midi": 60,
          "name": "C4",
          "ticks": 33600,
          "time": 55.263110000000005,
          "velocity": 0.5118110236220472
        },
        {
          "duration": 0.6907888750000026,
          "durationTicks": 420,
          "midi": 69,
          "name": "A4",
          "ticks": 33600,
          "time": 55.263110000000005,
          "velocity": 0.5118110236220472
        },
        {
          "duration": 0.6973678166666772,
          "durationTicks": 424,
          "midi": 72,
          "name": "C5",
          "ticks": 33600,
          "time": 55.263110000000005,
          "velocity": 0.5118110236220472
        },
        {
          "duration": 0.6973678166666772,
          "durationTicks": 424,
          "midi": 76,
          "name": "E5",
          "ticks": 33600,
          "time": 55.263110000000005,
          "velocity": 0.5118110236220472
        },
        {
          "duration": 0.6776309916666676,
          "durationTicks": 412,
          "midi": 81,
          "name": "A5",
          "ticks": 33600,
          "time": 55.263110000000005,
          "velocity": 0.5118110236220472
        },
        {
          "duration": 0.6578941666666651,
          "durationTicks": 400,
          "midi": 64,
          "name": "E4",
          "ticks": 33604,
          "time": 55.26968894166668,
          "velocity": 0.5118110236220472
        },
        {
          "duration": 0.7960519416666685,
          "durationTicks": 484,
          "midi": 69,
          "name": "A4",
          "ticks": 34068,
          "time": 56.032846175,
          "velocity": 0.5118110236220472
        },
        {
          "duration": 0.7828940583333335,
          "durationTicks": 476,
          "midi": 72,
          "name": "C5",
          "ticks": 34072,
          "time": 56.03942511666667,
          "velocity": 0.5118110236220472
        },
        {
          "duration": 0.7697361749999985,
          "durationTicks": 468,
          "midi": 76,
          "name": "E5",
          "ticks": 34072,
          "time": 56.03942511666667,
          "velocity": 0.5118110236220472
        },
        {
          "duration": 0.736841466666668,
          "durationTicks": 448,
          "midi": 60,
          "name": "C4",
          "ticks": 34076,
          "time": 56.04600405833334,
          "velocity": 0.5118110236220472
        },
        {
          "duration": 0.736841466666668,
          "durationTicks": 448,
          "midi": 64,
          "name": "E4",
          "ticks": 34076,
          "time": 56.04600405833334,
          "velocity": 0.5118110236220472
        },
        {
          "duration": 0.6644731083333326,
          "durationTicks": 404,
          "midi": 60,
          "name": "C4",
          "ticks": 37428,
          "time": 61.559157175,
          "velocity": 0.5039370078740157
        },
        {
          "duration": 0.6973678166666559,
          "durationTicks": 424,
          "midi": 69,
          "name": "A4",
          "ticks": 37432,
          "time": 61.56573611666668,
          "velocity": 0.5039370078740157
        },
        {
          "duration": 0.684209933333328,
          "durationTicks": 416,
          "midi": 72,
          "name": "C5",
          "ticks": 37432,
          "time": 61.56573611666668,
          "velocity": 0.5039370078740157
        },
        {
          "duration": 0.6184205166666601,
          "durationTicks": 376,
          "midi": 81,
          "name": "A5",
          "ticks": 37432,
          "time": 61.56573611666668,
          "velocity": 0.5039370078740157
        },
        {
          "duration": 0.6644731083333326,
          "durationTicks": 404,
          "midi": 64,
          "name": "E4",
          "ticks": 37436,
          "time": 61.57231505833334,
          "velocity": 0.5039370078740157
        },
        {
          "duration": 0.6973678166666701,
          "durationTicks": 424,
          "midi": 76,
          "name": "E5",
          "ticks": 37436,
          "time": 61.57231505833334,
          "velocity": 0.5039370078740157
        },
        {
          "duration": 0.4473680333333405,
          "durationTicks": 272,
          "midi": 69,
          "name": "A4",
          "ticks": 37916,
          "time": 62.36178805833334,
          "velocity": 0.5039370078740157
        },
        {
          "duration": 0.4407890916666659,
          "durationTicks": 268,
          "midi": 64,
          "name": "E4",
          "ticks": 37916,
          "time": 62.36178805833334,
          "velocity": 0.5039370078740157
        },
        {
          "duration": 0.506578508333341,
          "durationTicks": 308,
          "midi": 76,
          "name": "E5",
          "ticks": 37916,
          "time": 62.36178805833334,
          "velocity": 0.5039370078740157
        },
        {
          "duration": 0.48684168333333133,
          "durationTicks": 296,
          "midi": 72,
          "name": "C5",
          "ticks": 37920,
          "time": 62.368367000000006,
          "velocity": 0.5039370078740157
        },
        {
          "duration": 0.026315766666670015,
          "durationTicks": 16,
          "midi": 64,
          "name": "E4",
          "ticks": 41264,
          "time": 67.86836223333334,
          "velocity": 0.5118110236220472
        },
        {
          "duration": 0.026315766666670015,
          "durationTicks": 16,
          "midi": 67,
          "name": "G4",
          "ticks": 41264,
          "time": 67.86836223333334,
          "velocity": 0.5118110236220472
        },
        {
          "duration": 0.019736825000009617,
          "durationTicks": 12,
          "midi": 76,
          "name": "E5",
          "ticks": 41268,
          "time": 67.874941175,
          "velocity": 0.5118110236220472
        },
        {
          "duration": 0.019736825000009617,
          "durationTicks": 12,
          "midi": 55,
          "name": "G3",
          "ticks": 41268,
          "time": 67.874941175,
          "velocity": 0.5118110236220472
        },
        {
          "duration": 0.013157883333335008,
          "durationTicks": 8,
          "midi": 71,
          "name": "B4",
          "ticks": 41272,
          "time": 67.88152011666668,
          "velocity": 0.5118110236220472
        },
        {
          "duration": 0.6513152249999905,
          "durationTicks": 396,
          "midi": 60,
          "name": "C4",
          "ticks": 41280,
          "time": 67.89467800000001,
          "velocity": 0.5118110236220472
        },
        {
          "duration": 0.6907888749999955,
          "durationTicks": 420,
          "midi": 69,
          "name": "A4",
          "ticks": 41280,
          "time": 67.89467800000001,
          "velocity": 0.5118110236220472
        },
        {
          "duration": 0.6973678166666701,
          "durationTicks": 424,
          "midi": 72,
          "name": "C5",
          "ticks": 41280,
          "time": 67.89467800000001,
          "velocity": 0.5118110236220472
        },
        {
          "duration": 0.6973678166666701,
          "durationTicks": 424,
          "midi": 76,
          "name": "E5",
          "ticks": 41280,
          "time": 67.89467800000001,
          "velocity": 0.5118110236220472
        },
        {
          "duration": 0.6776309916666605,
          "durationTicks": 412,
          "midi": 81,
          "name": "A5",
          "ticks": 41280,
          "time": 67.89467800000001,
          "velocity": 0.5118110236220472
        },
        {
          "duration": 0.6578941666666651,
          "durationTicks": 400,
          "midi": 64,
          "name": "E4",
          "ticks": 41284,
          "time": 67.90125694166667,
          "velocity": 0.5118110236220472
        },
        {
          "duration": 0.7960519416666756,
          "durationTicks": 484,
          "midi": 69,
          "name": "A4",
          "ticks": 41748,
          "time": 68.664414175,
          "velocity": 0.5118110236220472
        },
        {
          "duration": 0.7828940583333264,
          "durationTicks": 476,
          "midi": 72,
          "name": "C5",
          "ticks": 41752,
          "time": 68.67099311666668,
          "velocity": 0.5118110236220472
        },
        {
          "duration": 0.7697361749999914,
          "durationTicks": 468,
          "midi": 76,
          "name": "E5",
          "ticks": 41752,
          "time": 68.67099311666668,
          "velocity": 0.5118110236220472
        },
        {
          "duration": 0.736841466666661,
          "durationTicks": 448,
          "midi": 60,
          "name": "C4",
          "ticks": 41756,
          "time": 68.67757205833334,
          "velocity": 0.5118110236220472
        },
        {
          "duration": 0.736841466666661,
          "durationTicks": 448,
          "midi": 64,
          "name": "E4",
          "ticks": 41756,
          "time": 68.67757205833334,
          "velocity": 0.5118110236220472
        },
        {
          "duration": 0.013157883333335008,
          "durationTicks": 8,
          "midi": 55,
          "name": "G3",
          "ticks": 45108,
          "time": 74.190725175,
          "velocity": 0.5039370078740157
        },
        {
          "duration": 0.006578941666660398,
          "durationTicks": 4,
          "midi": 64,
          "name": "E4",
          "ticks": 45112,
          "time": 74.19730411666667,
          "velocity": 0.5039370078740157
        },
        {
          "duration": 0.006578941666660398,
          "durationTicks": 4,
          "midi": 67,
          "name": "G4",
          "ticks": 45112,
          "time": 74.19730411666667,
          "velocity": 0.5039370078740157
        },
        {
          "duration": 0.006578941666660398,
          "durationTicks": 4,
          "midi": 76,
          "name": "E5",
          "ticks": 45112,
          "time": 74.19730411666667,
          "velocity": 0.5039370078740157
        },
        {
          "duration": 0,
          "durationTicks": 0,
          "midi": 59,
          "name": "B3",
          "ticks": 45116,
          "time": 74.20388305833333,
          "velocity": 0.5039370078740157
        },
        {
          "duration": 0,
          "durationTicks": 0,
          "midi": 71,
          "name": "B4",
          "ticks": 45116,
          "time": 74.20388305833333,
          "velocity": 0.5039370078740157
        },
        {
          "duration": 0.789473000000001,
          "durationTicks": 480,
          "midi": 45,
          "name": "A2",
          "ticks": 60480,
          "time": 99.47359800000001,
          "velocity": 0.7322834645669292
        },
        {
          "duration": 0.3947365000000076,
          "durationTicks": 240,
          "midi": 57,
          "name": "A3",
          "ticks": 60960,
          "time": 100.26307100000001,
          "velocity": 0.4409448818897638
        },
        {
          "duration": 0.1973682499999967,
          "durationTicks": 120,
          "midi": 52,
          "name": "E3",
          "ticks": 61200,
          "time": 100.65780750000002,
          "velocity": 0.4409448818897638
        },
        {
          "duration": 0.19078930833332208,
          "durationTicks": 116,
          "midi": 52,
          "name": "E3",
          "ticks": 61320,
          "time": 100.85517575000002,
          "velocity": 0.5984251968503937
        },
        {
          "duration": 0.789473000000001,
          "durationTicks": 480,
          "midi": 45,
          "name": "A2",
          "ticks": 68160,
          "time": 112.10516600000001,
          "velocity": 0.7322834645669292
        },
        {
          "duration": 0.3947365000000076,
          "durationTicks": 240,
          "midi": 57,
          "name": "A3",
          "ticks": 68640,
          "time": 112.89463900000001,
          "velocity": 0.4409448818897638
        },
        {
          "duration": 0.1973682499999967,
          "durationTicks": 120,
          "midi": 52,
          "name": "E3",
          "ticks": 68880,
          "time": 113.28937550000002,
          "velocity": 0.4409448818897638
        },
        {
          "duration": 0.1907893083333363,
          "durationTicks": 116,
          "midi": 52,
          "name": "E3",
          "ticks": 69000,
          "time": 113.48674375000002,
          "velocity": 0.5984251968503937
        },
        {
          "duration": 0.026315766666670015,
          "durationTicks": 16,
          "midi": 64,
          "name": "E4",
          "ticks": 79664,
          "time": 131.02620223333335,
          "velocity": 0.5118110236220472
        },
        {
          "duration": 0.026315766666670015,
          "durationTicks": 16,
          "midi": 67,
          "name": "G4",
          "ticks": 79664,
          "time": 131.02620223333335,
          "velocity": 0.5118110236220472
        },
        {
          "duration": 0.019736825000023828,
          "durationTicks": 12,
          "midi": 76,
          "name": "E5",
          "ticks": 79668,
          "time": 131.032781175,
          "velocity": 0.5118110236220472
        },
        {
          "duration": 0.019736825000023828,
          "durationTicks": 12,
          "midi": 55,
          "name": "G3",
          "ticks": 79668,
          "time": 131.032781175,
          "velocity": 0.5118110236220472
        },
        {
          "duration": 0.013157883333349218,
          "durationTicks": 8,
          "midi": 71,
          "name": "B4",
          "ticks": 79672,
          "time": 131.03936011666667,
          "velocity": 0.5118110236220472
        },
        {
          "duration": 0.6513152249999905,
          "durationTicks": 396,
          "midi": 60,
          "name": "C4",
          "ticks": 79680,
          "time": 131.05251800000002,
          "velocity": 0.5118110236220472
        },
        {
          "duration": 0.6907888749999813,
          "durationTicks": 420,
          "midi": 69,
          "name": "A4",
          "ticks": 79680,
          "time": 131.05251800000002,
          "velocity": 0.5118110236220472
        },
        {
          "duration": 0.6973678166666559,
          "durationTicks": 424,
          "midi": 72,
          "name": "C5",
          "ticks": 79680,
          "time": 131.05251800000002,
          "velocity": 0.5118110236220472
        },
        {
          "duration": 0.6973678166666559,
          "durationTicks": 424,
          "midi": 76,
          "name": "E5",
          "ticks": 79680,
          "time": 131.05251800000002,
          "velocity": 0.5118110236220472
        },
        {
          "duration": 0.6776309916666605,
          "durationTicks": 412,
          "midi": 81,
          "name": "A5",
          "ticks": 79680,
          "time": 131.05251800000002,
          "velocity": 0.5118110236220472
        },
        {
          "duration": 0.6578941666666935,
          "durationTicks": 400,
          "midi": 64,
          "name": "E4",
          "ticks": 79684,
          "time": 131.05909694166667,
          "velocity": 0.5118110236220472
        },
        {
          "duration": 0.7960519416666614,
          "durationTicks": 484,
          "midi": 69,
          "name": "A4",
          "ticks": 80148,
          "time": 131.822254175,
          "velocity": 0.5118110236220472
        },
        {
          "duration": 0.7828940583333406,
          "durationTicks": 476,
          "midi": 72,
          "name": "C5",
          "ticks": 80152,
          "time": 131.82883311666666,
          "velocity": 0.5118110236220472
        },
        {
          "duration": 0.7697361750000198,
          "durationTicks": 468,
          "midi": 76,
          "name": "E5",
          "ticks": 80152,
          "time": 131.82883311666666,
          "velocity": 0.5118110236220472
        },
        {
          "duration": 0.7368414666666752,
          "durationTicks": 448,
          "midi": 60,
          "name": "C4",
          "ticks": 80156,
          "time": 131.83541205833336,
          "velocity": 0.5118110236220472
        },
        {
          "duration": 0.7368414666666752,
          "durationTicks": 448,
          "midi": 64,
          "name": "E4",
          "ticks": 80156,
          "time": 131.83541205833336,
          "velocity": 0.5118110236220472
        },
        {
          "duration": 0.6644731083333397,
          "durationTicks": 404,
          "midi": 60,
          "name": "C4",
          "ticks": 83508,
          "time": 137.348565175,
          "velocity": 0.5039370078740157
        },
        {
          "duration": 0.6973678166666843,
          "durationTicks": 424,
          "midi": 69,
          "name": "A4",
          "ticks": 83512,
          "time": 137.35514411666668,
          "velocity": 0.5039370078740157
        },
        {
          "duration": 0.6842099333333351,
          "durationTicks": 416,
          "midi": 72,
          "name": "C5",
          "ticks": 83512,
          "time": 137.35514411666668,
          "velocity": 0.5039370078740157
        },
        {
          "duration": 0.6184205166666743,
          "durationTicks": 376,
          "midi": 81,
          "name": "A5",
          "ticks": 83512,
          "time": 137.35514411666668,
          "velocity": 0.5039370078740157
        },
        {
          "duration": 0.6644731083333397,
          "durationTicks": 404,
          "midi": 64,
          "name": "E4",
          "ticks": 83516,
          "time": 137.36172305833335,
          "velocity": 0.5039370078740157
        },
        {
          "duration": 0.6973678166666559,
          "durationTicks": 424,
          "midi": 76,
          "name": "E5",
          "ticks": 83516,
          "time": 137.36172305833335,
          "velocity": 0.5039370078740157
        },
        {
          "duration": 0.447368033333305,
          "durationTicks": 272,
          "midi": 69,
          "name": "A4",
          "ticks": 83996,
          "time": 138.15119605833337,
          "velocity": 0.5039370078740157
        },
        {
          "duration": 0.4407890916666588,
          "durationTicks": 268,
          "midi": 64,
          "name": "E4",
          "ticks": 83996,
          "time": 138.15119605833337,
          "velocity": 0.5039370078740157
        },
        {
          "duration": 0.5065785083333196,
          "durationTicks": 308,
          "midi": 76,
          "name": "E5",
          "ticks": 83996,
          "time": 138.15119605833337,
          "velocity": 0.5039370078740157
        },
        {
          "duration": 0.48684168333335265,
          "durationTicks": 296,
          "midi": 72,
          "name": "C5",
          "ticks": 84000,
          "time": 138.15777500000002,
          "velocity": 0.5039370078740157
        },
        {
          "duration": 0.026315766666670015,
          "durationTicks": 16,
          "midi": 64,
          "name": "E4",
          "ticks": 87344,
          "time": 143.65777023333334,
          "velocity": 0.5118110236220472
        },
        {
          "duration": 0.026315766666670015,
          "durationTicks": 16,
          "midi": 67,
          "name": "G4",
          "ticks": 87344,
          "time": 143.65777023333334,
          "velocity": 0.5118110236220472
        },
        {
          "duration": 0.019736824999995406,
          "durationTicks": 12,
          "midi": 76,
          "name": "E5",
          "ticks": 87348,
          "time": 143.664349175,
          "velocity": 0.5118110236220472
        },
        {
          "duration": 0.019736824999995406,
          "durationTicks": 12,
          "midi": 55,
          "name": "G3",
          "ticks": 87348,
          "time": 143.664349175,
          "velocity": 0.5118110236220472
        },
        {
          "duration": 0.013157883333320797,
          "durationTicks": 8,
          "midi": 71,
          "name": "B4",
          "ticks": 87352,
          "time": 143.6709281166667,
          "velocity": 0.5118110236220472
        },
        {
          "duration": 0.6513152249999905,
          "durationTicks": 396,
          "midi": 60,
          "name": "C4",
          "ticks": 87360,
          "time": 143.684086,
          "velocity": 0.5118110236220472
        },
        {
          "duration": 0.6907888750000097,
          "durationTicks": 420,
          "midi": 69,
          "name": "A4",
          "ticks": 87360,
          "time": 143.684086,
          "velocity": 0.5118110236220472
        },
        {
          "duration": 0.6973678166666559,
          "durationTicks": 424,
          "midi": 72,
          "name": "C5",
          "ticks": 87360,
          "time": 143.684086,
          "velocity": 0.5118110236220472
        },
        {
          "duration": 0.6973678166666559,
          "durationTicks": 424,
          "midi": 76,
          "name": "E5",
          "ticks": 87360,
          "time": 143.684086,
          "velocity": 0.5118110236220472
        },
        {
          "duration": 0.6776309916666605,
          "durationTicks": 412,
          "midi": 81,
          "name": "A5",
          "ticks": 87360,
          "time": 143.684086,
          "velocity": 0.5118110236220472
        },
        {
          "duration": 0.6578941666666651,
          "durationTicks": 400,
          "midi": 64,
          "name": "E4",
          "ticks": 87364,
          "time": 143.69066494166668,
          "velocity": 0.5118110236220472
        },
        {
          "duration": 0.7960519416666614,
          "durationTicks": 484,
          "midi": 69,
          "name": "A4",
          "ticks": 87828,
          "time": 144.453822175,
          "velocity": 0.5118110236220472
        },
        {
          "duration": 0.7828940583333406,
          "durationTicks": 476,
          "midi": 72,
          "name": "C5",
          "ticks": 87832,
          "time": 144.46040111666667,
          "velocity": 0.5118110236220472
        },
        {
          "duration": 0.7697361750000198,
          "durationTicks": 468,
          "midi": 76,
          "name": "E5",
          "ticks": 87832,
          "time": 144.46040111666667,
          "velocity": 0.5118110236220472
        },
        {
          "duration": 0.7368414666666752,
          "durationTicks": 448,
          "midi": 60,
          "name": "C4",
          "ticks": 87836,
          "time": 144.46698005833335,
          "velocity": 0.5118110236220472
        },
        {
          "duration": 0.7368414666666752,
          "durationTicks": 448,
          "midi": 64,
          "name": "E4",
          "ticks": 87836,
          "time": 144.46698005833335,
          "velocity": 0.5118110236220472
        },
        {
          "duration": 0.013157883333349218,
          "durationTicks": 8,
          "midi": 55,
          "name": "G3",
          "ticks": 91188,
          "time": 149.98013317500002,
          "velocity": 0.5039370078740157
        },
        {
          "duration": 0.006578941666703031,
          "durationTicks": 4,
          "midi": 64,
          "name": "E4",
          "ticks": 91192,
          "time": 149.98671211666667,
          "velocity": 0.5039370078740157
        },
        {
          "duration": 0.006578941666703031,
          "durationTicks": 4,
          "midi": 67,
          "name": "G4",
          "ticks": 91192,
          "time": 149.98671211666667,
          "velocity": 0.5039370078740157
        },
        {
          "duration": 0.006578941666703031,
          "durationTicks": 4,
          "midi": 76,
          "name": "E5",
          "ticks": 91192,
          "time": 149.98671211666667,
          "velocity": 0.5039370078740157
        },
        {
          "duration": 0,
          "durationTicks": 0,
          "midi": 59,
          "name": "B3",
          "ticks": 91196,
          "time": 149.99329105833337,
          "velocity": 0.5039370078740157
        },
        {
          "duration": 0,
          "durationTicks": 0,
          "midi": 71,
          "name": "B4",
          "ticks": 91196,
          "time": 149.99329105833337,
          "velocity": 0.5039370078740157
        },
        {
          "duration": 0.7894730000000152,
          "durationTicks": 480,
          "midi": 45,
          "name": "A2",
          "ticks": 106560,
          "time": 175.26300600000002,
          "velocity": 0.7322834645669292
        },
        {
          "duration": 0.3947364999999934,
          "durationTicks": 240,
          "midi": 57,
          "name": "A3",
          "ticks": 107040,
          "time": 176.05247900000003,
          "velocity": 0.4409448818897638
        },
        {
          "duration": 0.19736824999998248,
          "durationTicks": 120,
          "midi": 52,
          "name": "E3",
          "ticks": 107280,
          "time": 176.44721550000003,
          "velocity": 0.4409448818897638
        },
        {
          "duration": 0.1907893083333363,
          "durationTicks": 116,
          "midi": 52,
          "name": "E3",
          "ticks": 107400,
          "time": 176.64458375,
          "velocity": 0.5984251968503937
        },
        {
          "duration": 0.7894730000000152,
          "durationTicks": 480,
          "midi": 45,
          "name": "A2",
          "ticks": 146880,
          "time": 241.57873800000002,
          "velocity": 0.7322834645669292
        },
        {
          "duration": 0.3947364999999934,
          "durationTicks": 240,
          "midi": 57,
          "name": "A3",
          "ticks": 147360,
          "time": 242.36821100000003,
          "velocity": 0.4409448818897638
        },
        {
          "duration": 0.1973682500000109,
          "durationTicks": 120,
          "midi": 52,
          "name": "E3",
          "ticks": 147600,
          "time": 242.76294750000002,
          "velocity": 0.4409448818897638
        },
        {
          "duration": 0.1907893083333363,
          "durationTicks": 116,
          "midi": 52,
          "name": "E3",
          "ticks": 147720,
          "time": 242.96031575000003,
          "velocity": 0.5984251968503937
        },
        {
          "duration": 0.7894729999999868,
          "durationTicks": 480,
          "midi": 45,
          "name": "A2",
          "ticks": 153600,
          "time": 252.63136000000003,
          "velocity": 0.7322834645669292
        },
        {
          "duration": 0.3947365000000218,
          "durationTicks": 240,
          "midi": 57,
          "name": "A3",
          "ticks": 154080,
          "time": 253.42083300000002,
          "velocity": 0.4409448818897638
        },
        {
          "duration": 0.19736824999998248,
          "durationTicks": 120,
          "midi": 52,
          "name": "E3",
          "ticks": 154320,
          "time": 253.81556950000004,
          "velocity": 0.4409448818897638
        },
        {
          "duration": 0.1907893083333363,
          "durationTicks": 116,
          "midi": 52,
          "name": "E3",
          "ticks": 154440,
          "time": 254.01293775000002,
          "velocity": 0.5984251968503937
        }
      ]
    },
    {
      "channel": 7,
      "controlChanges": {
        "10": [
          {
            "number": 10,
            "ticks": 7680,
            "time": 12.631568000000001,
            "value": 0.5039370078740157
          },
          {
            "number": 10,
            "ticks": 14400,
            "time": 23.68419,
            "value": 0.5039370078740157
          },
          {
            "number": 10,
            "ticks": 15360,
            "time": 25.263136000000003,
            "value": 0.5039370078740157
          },
          {
            "number": 10,
            "ticks": 23040,
            "time": 37.894704000000004,
            "value": 0.5039370078740157
          },
          {
            "number": 10,
            "ticks": 29760,
            "time": 48.947326000000004,
            "value": 0.5039370078740157
          },
          {
            "number": 10,
            "ticks": 30720,
            "time": 50.526272000000006,
            "value": 0.5039370078740157
          },
          {
            "number": 10,
            "ticks": 38400,
            "time": 63.15784000000001,
            "value": 0.5039370078740157
          },
          {
            "number": 10,
            "ticks": 45120,
            "time": 74.210462,
            "value": 0.5039370078740157
          },
          {
            "number": 10,
            "ticks": 46080,
            "time": 75.78940800000001,
            "value": 0.5039370078740157
          },
          {
            "number": 10,
            "ticks": 53760,
            "time": 88.42097600000001,
            "value": 0.5039370078740157
          },
          {
            "number": 10,
            "ticks": 60480,
            "time": 99.47359800000001,
            "value": 0.5039370078740157
          },
          {
            "number": 10,
            "ticks": 61440,
            "time": 101.05254400000001,
            "value": 0.5039370078740157
          },
          {
            "number": 10,
            "ticks": 68160,
            "time": 112.10516600000001,
            "value": 0.5039370078740157
          },
          {
            "number": 10,
            "ticks": 69120,
            "time": 113.68411200000001,
            "value": 0.5039370078740157
          },
          {
            "number": 10,
            "ticks": 75840,
            "time": 124.73673400000001,
            "value": 0.5039370078740157
          },
          {
            "number": 10,
            "ticks": 76800,
            "time": 126.31568000000001,
            "value": 0.5039370078740157
          },
          {
            "number": 10,
            "ticks": 84480,
            "time": 138.947248,
            "value": 0.5039370078740157
          },
          {
            "number": 10,
            "ticks": 91200,
            "time": 149.99987000000002,
            "value": 0.5039370078740157
          },
          {
            "number": 10,
            "ticks": 92160,
            "time": 151.57881600000002,
            "value": 0.5039370078740157
          },
          {
            "number": 10,
            "ticks": 99840,
            "time": 164.21038400000003,
            "value": 0.5039370078740157
          },
          {
            "number": 10,
            "ticks": 106560,
            "time": 175.26300600000002,
            "value": 0.5039370078740157
          },
          {
            "number": 10,
            "ticks": 107520,
            "time": 176.84195200000002,
            "value": 0.5039370078740157
          },
          {
            "number": 10,
            "ticks": 117120,
            "time": 192.631412,
            "value": 0.5039370078740157
          },
          {
            "number": 10,
            "ticks": 123840,
            "time": 203.68403400000003,
            "value": 0.5039370078740157
          },
          {
            "number": 10,
            "ticks": 124800,
            "time": 205.26298000000003,
            "value": 0.5039370078740157
          },
          {
            "number": 10,
            "ticks": 131520,
            "time": 216.315602,
            "value": 0.5039370078740157
          },
          {
            "number": 10,
            "ticks": 132480,
            "time": 217.89454800000001,
            "value": 0.5039370078740157
          },
          {
            "number": 10,
            "ticks": 140160,
            "time": 230.52611600000003,
            "value": 0.5039370078740157
          },
          {
            "number": 10,
            "ticks": 146880,
            "time": 241.57873800000002,
            "value": 0.5039370078740157
          },
          {
            "number": 10,
            "ticks": 147840,
            "time": 243.15768400000002,
            "value": 0.5039370078740157
          },
          {
            "number": 10,
            "ticks": 153600,
            "time": 252.63136000000003,
            "value": 0.5039370078740157
          },
          {
            "number": 10,
            "ticks": 154560,
            "time": 254.21030600000003,
            "value": 0.5039370078740157
          }
        ],
        "91": [
          {
            "number": 91,
            "ticks": 7680,
            "time": 12.631568000000001,
            "value": 0.07874015748031496
          },
          {
            "number": 91,
            "ticks": 14400,
            "time": 23.68419,
            "value": 0.07874015748031496
          },
          {
            "number": 91,
            "ticks": 15360,
            "time": 25.263136000000003,
            "value": 0.07874015748031496
          },
          {
            "number": 91,
            "ticks": 23040,
            "time": 37.894704000000004,
            "value": 0.07874015748031496
          },
          {
            "number": 91,
            "ticks": 29760,
            "time": 48.947326000000004,
            "value": 0.07874015748031496
          },
          {
            "number": 91,
            "ticks": 30720,
            "time": 50.526272000000006,
            "value": 0.07874015748031496
          },
          {
            "number": 91,
            "ticks": 38400,
            "time": 63.15784000000001,
            "value": 0.07874015748031496
          },
          {
            "number": 91,
            "ticks": 45120,
            "time": 74.210462,
            "value": 0.07874015748031496
          },
          {
            "number": 91,
            "ticks": 46080,
            "time": 75.78940800000001,
            "value": 0.07874015748031496
          },
          {
            "number": 91,
            "ticks": 53760,
            "time": 88.42097600000001,
            "value": 0.07874015748031496
          },
          {
            "number": 91,
            "ticks": 60480,
            "time": 99.47359800000001,
            "value": 0.07874015748031496
          },
          {
            "number": 91,
            "ticks": 61440,
            "time": 101.05254400000001,
            "value": 0.07874015748031496
          },
          {
            "number": 91,
            "ticks": 68160,
            "time": 112.10516600000001,
            "value": 0.07874015748031496
          },
          {
            "number": 91,
            "ticks": 69120,
            "time": 113.68411200000001,
            "value": 0.07874015748031496
          },
          {
            "number": 91,
            "ticks": 75840,
            "time": 124.73673400000001,
            "value": 0.07874015748031496
          },
          {
            "number": 91,
            "ticks": 76800,
            "time": 126.31568000000001,
            "value": 0.07874015748031496
          },
          {
            "number": 91,
            "ticks": 84480,
            "time": 138.947248,
            "value": 0.07874015748031496
          },
          {
            "number": 91,
            "ticks": 91200,
            "time": 149.99987000000002,
            "value": 0.07874015748031496
          },
          {
            "number": 91,
            "ticks": 92160,
            "time": 151.57881600000002,
            "value": 0.07874015748031496
          },
          {
            "number": 91,
            "ticks": 99840,
            "time": 164.21038400000003,
            "value": 0.07874015748031496
          },
          {
            "number": 91,
            "ticks": 106560,
            "time": 175.26300600000002,
            "value": 0.07874015748031496
          },
          {
            "number": 91,
            "ticks": 107520,
            "time": 176.84195200000002,
            "value": 0.07874015748031496
          },
          {
            "number": 91,
            "ticks": 117120,
            "time": 192.631412,
            "value": 0.07874015748031496
          },
          {
            "number": 91,
            "ticks": 123840,
            "time": 203.68403400000003,
            "value": 0.07874015748031496
          },
          {
            "number": 91,
            "ticks": 124800,
            "time": 205.26298000000003,
            "value": 0.07874015748031496
          },
          {
            "number": 91,
            "ticks": 131520,
            "time": 216.315602,
            "value": 0.07874015748031496
          },
          {
            "number": 91,
            "ticks": 132480,
            "time": 217.89454800000001,
            "value": 0.07874015748031496
          },
          {
            "number": 91,
            "ticks": 140160,
            "time": 230.52611600000003,
            "value": 0.07874015748031496
          },
          {
            "number": 91,
            "ticks": 146880,
            "time": 241.57873800000002,
            "value": 0.07874015748031496
          },
          {
            "number": 91,
            "ticks": 147840,
            "time": 243.15768400000002,
            "value": 0.07874015748031496
          },
          {
            "number": 91,
            "ticks": 153600,
            "time": 252.63136000000003,
            "value": 0.07874015748031496
          },
          {
            "number": 91,
            "ticks": 154560,
            "time": 254.21030600000003,
            "value": 0.07874015748031496
          }
        ],
        "93": [
          {
            "number": 93,
            "ticks": 7680,
            "time": 12.631568000000001,
            "value": 0.7874015748031497
          },
          {
            "number": 93,
            "ticks": 14400,
            "time": 23.68419,
            "value": 0.7874015748031497
          },
          {
            "number": 93,
            "ticks": 15360,
            "time": 25.263136000000003,
            "value": 0.7874015748031497
          },
          {
            "number": 93,
            "ticks": 23040,
            "time": 37.894704000000004,
            "value": 0.7874015748031497
          },
          {
            "number": 93,
            "ticks": 29760,
            "time": 48.947326000000004,
            "value": 0.7874015748031497
          },
          {
            "number": 93,
            "ticks": 30720,
            "time": 50.526272000000006,
            "value": 0.7874015748031497
          },
          {
            "number": 93,
            "ticks": 38400,
            "time": 63.15784000000001,
            "value": 0.7874015748031497
          },
          {
            "number": 93,
            "ticks": 45120,
            "time": 74.210462,
            "value": 0.7874015748031497
          },
          {
            "number": 93,
            "ticks": 46080,
            "time": 75.78940800000001,
            "value": 0.7874015748031497
          },
          {
            "number": 93,
            "ticks": 53760,
            "time": 88.42097600000001,
            "value": 0.7874015748031497
          },
          {
            "number": 93,
            "ticks": 60480,
            "time": 99.47359800000001,
            "value": 0.7874015748031497
          },
          {
            "number": 93,
            "ticks": 61440,
            "time": 101.05254400000001,
            "value": 0.7874015748031497
          },
          {
            "number": 93,
            "ticks": 68160,
            "time": 112.10516600000001,
            "value": 0.7874015748031497
          },
          {
            "number": 93,
            "ticks": 69120,
            "time": 113.68411200000001,
            "value": 0.7874015748031497
          },
          {
            "number": 93,
            "ticks": 75840,
            "time": 124.73673400000001,
            "value": 0.7874015748031497
          },
          {
            "number": 93,
            "ticks": 76800,
            "time": 126.31568000000001,
            "value": 0.7874015748031497
          },
          {
            "number": 93,
            "ticks": 84480,
            "time": 138.947248,
            "value": 0.7874015748031497
          },
          {
            "number": 93,
            "ticks": 91200,
            "time": 149.99987000000002,
            "value": 0.7874015748031497
          },
          {
            "number": 93,
            "ticks": 92160,
            "time": 151.57881600000002,
            "value": 0.7874015748031497
          },
          {
            "number": 93,
            "ticks": 99840,
            "time": 164.21038400000003,
            "value": 0.7874015748031497
          },
          {
            "number": 93,
            "ticks": 106560,
            "time": 175.26300600000002,
            "value": 0.7874015748031497
          },
          {
            "number": 93,
            "ticks": 107520,
            "time": 176.84195200000002,
            "value": 0.7874015748031497
          },
          {
            "number": 93,
            "ticks": 117120,
            "time": 192.631412,
            "value": 0.7874015748031497
          },
          {
            "number": 93,
            "ticks": 123840,
            "time": 203.68403400000003,
            "value": 0.7874015748031497
          },
          {
            "number": 93,
            "ticks": 124800,
            "time": 205.26298000000003,
            "value": 0.7874015748031497
          },
          {
            "number": 93,
            "ticks": 131520,
            "time": 216.315602,
            "value": 0.7874015748031497
          },
          {
            "number": 93,
            "ticks": 132480,
            "time": 217.89454800000001,
            "value": 0.7874015748031497
          },
          {
            "number": 93,
            "ticks": 140160,
            "time": 230.52611600000003,
            "value": 0.7874015748031497
          },
          {
            "number": 93,
            "ticks": 146880,
            "time": 241.57873800000002,
            "value": 0.7874015748031497
          },
          {
            "number": 93,
            "ticks": 147840,
            "time": 243.15768400000002,
            "value": 0.7874015748031497
          },
          {
            "number": 93,
            "ticks": 153600,
            "time": 252.63136000000003,
            "value": 0.7874015748031497
          },
          {
            "number": 93,
            "ticks": 154560,
            "time": 254.21030600000003,
            "value": 0.7874015748031497
          }
        ]
      },
      "pitchBends": [],
      "instrument": {
        "family": "bass",
        "name": "electric bass (finger)",
        "number": 33
      },
      "name": "",
      "notes": [
        {
          "duration": 0.9868412499999994,
          "durationTicks": 600,
          "midi": 41,
          "name": "F2",
          "ticks": 7680,
          "time": 12.631568000000001,
          "velocity": 0.5984251968503937
        },
        {
          "duration": 0.3552628500000008,
          "durationTicks": 216,
          "midi": 41,
          "name": "F2",
          "ticks": 8400,
          "time": 13.815777500000001,
          "velocity": 0.5984251968503937
        },
        {
          "duration": 0.9868412499999994,
          "durationTicks": 600,
          "midi": 43,
          "name": "G2",
          "ticks": 8640,
          "time": 14.210514000000002,
          "velocity": 0.5984251968503937
        },
        {
          "duration": 0.37499967500000153,
          "durationTicks": 228,
          "midi": 38,
          "name": "D2",
          "ticks": 9360,
          "time": 15.394723500000001,
          "velocity": 0.5984251968503937
        },
        {
          "duration": 0.789473000000001,
          "durationTicks": 480,
          "midi": 36,
          "name": "C2",
          "ticks": 9600,
          "time": 15.789460000000002,
          "velocity": 0.5984251968503937
        },
        {
          "duration": 0.19736825000000024,
          "durationTicks": 120,
          "midi": 43,
          "name": "G2",
          "ticks": 10080,
          "time": 16.578933000000003,
          "velocity": 0.5984251968503937
        },
        {
          "duration": 0.39473649999999694,
          "durationTicks": 240,
          "midi": 43,
          "name": "G2",
          "ticks": 10320,
          "time": 16.973669500000003,
          "velocity": 0.5984251968503937
        },
        {
          "duration": 0,
          "durationTicks": 0,
          "midi": 45,
          "name": "A2",
          "ticks": 10560,
          "time": 17.368406,
          "velocity": 0.5984251968503937
        },
        {
          "duration": 0.19736825000000024,
          "durationTicks": 120,
          "midi": 45,
          "name": "A2",
          "ticks": 10560,
          "time": 17.368406,
          "velocity": 0.5984251968503937
        },
        {
          "duration": 0.789473000000001,
          "durationTicks": 480,
          "midi": 45,
          "name": "A2",
          "ticks": 10800,
          "time": 17.7631425,
          "velocity": 0.5984251968503937
        },
        {
          "duration": 0.37499967500000153,
          "durationTicks": 228,
          "midi": 40,
          "name": "E2",
          "ticks": 11280,
          "time": 18.5526155,
          "velocity": 0.5984251968503937
        },
        {
          "duration": 0.9868412500000012,
          "durationTicks": 600,
          "midi": 41,
          "name": "F2",
          "ticks": 11520,
          "time": 18.947352000000002,
          "velocity": 0.5984251968503937
        },
        {
          "duration": 0.37499967500000153,
          "durationTicks": 228,
          "midi": 41,
          "name": "F2",
          "ticks": 12240,
          "time": 20.131561500000004,
          "velocity": 0.5984251968503937
        },
        {
          "duration": 0.9868412499999977,
          "durationTicks": 600,
          "midi": 43,
          "name": "G2",
          "ticks": 12480,
          "time": 20.526298000000004,
          "velocity": 0.5984251968503937
        },
        {
          "duration": 0.37499967500000153,
          "durationTicks": 228,
          "midi": 38,
          "name": "D2",
          "ticks": 13200,
          "time": 21.710507500000002,
          "velocity": 0.5984251968503937
        },
        {
          "duration": 0.9868412500000012,
          "durationTicks": 600,
          "midi": 45,
          "name": "A2",
          "ticks": 13440,
          "time": 22.105244000000003,
          "velocity": 0.5984251968503937
        },
        {
          "duration": 0.342104966666664,
          "durationTicks": 208,
          "midi": 45,
          "name": "A2",
          "ticks": 14160,
          "time": 23.289453500000004,
          "velocity": 0.5984251968503937
        },
        {
          "duration": 0.789473000000001,
          "durationTicks": 480,
          "midi": 45,
          "name": "A2",
          "ticks": 14400,
          "time": 23.68419,
          "velocity": 0.5826771653543307
        },
        {
          "duration": 0.19736825000000024,
          "durationTicks": 120,
          "midi": 45,
          "name": "A2",
          "ticks": 15120,
          "time": 24.868399500000002,
          "velocity": 0.5826771653543307
        },
        {
          "duration": 0.789473000000001,
          "durationTicks": 480,
          "midi": 45,
          "name": "A2",
          "ticks": 15360,
          "time": 25.263136000000003,
          "velocity": 0.5984251968503937
        },
        {
          "duration": 0.19736825000000024,
          "durationTicks": 120,
          "midi": 45,
          "name": "A2",
          "ticks": 16080,
          "time": 26.447345500000004,
          "velocity": 0.5984251968503937
        },
        {
          "duration": 0.7894729999999974,
          "durationTicks": 480,
          "midi": 40,
          "name": "E2",
          "ticks": 16320,
          "time": 26.842082000000005,
          "velocity": 0.5984251968503937
        },
        {
          "duration": 0.37499967500000153,
          "durationTicks": 228,
          "midi": 35,
          "name": "B1",
          "ticks": 17040,
          "time": 28.026291500000003,
          "velocity": 0.5984251968503937
        },
        {
          "duration": 0.789473000000001,
          "durationTicks": 480,
          "midi": 45,
          "name": "A2",
          "ticks": 17280,
          "time": 28.421028000000003,
          "velocity": 0.5984251968503937
        },
        {
          "duration": 0.19736825000000024,
          "durationTicks": 120,
          "midi": 45,
          "name": "A2",
          "ticks": 18000,
          "time": 29.605237500000005,
          "velocity": 0.5984251968503937
        },
        {
          "duration": 0.9868412500000012,
          "durationTicks": 600,
          "midi": 40,
          "name": "E2",
          "ticks": 18240,
          "time": 29.999974,
          "velocity": 0.5984251968503937
        },
        {
          "duration": 0.37499967500000153,
          "durationTicks": 228,
          "midi": 35,
          "name": "B1",
          "ticks": 18960,
          "time": 31.184183500000003,
          "velocity": 0.5984251968503937
        },
        {
          "duration": 0.789473000000001,
          "durationTicks": 480,
          "midi": 41,
          "name": "F2",
          "ticks": 19200,
          "time": 31.578920000000004,
          "velocity": 0.5984251968503937
        },
        {
          "duration": 0.1973682499999967,
          "durationTicks": 120,
          "midi": 41,
          "name": "F2",
          "ticks": 19920,
          "time": 32.763129500000005,
          "velocity": 0.5984251968503937
        },
        {
          "duration": 0.789473000000001,
          "durationTicks": 480,
          "midi": 43,
          "name": "G2",
          "ticks": 20160,
          "time": 33.157866000000006,
          "velocity": 0.5984251968503937
        },
        {
          "duration": 0.374999674999998,
          "durationTicks": 228,
          "midi": 38,
          "name": "D2",
          "ticks": 20880,
          "time": 34.34207550000001,
          "velocity": 0.5984251968503937
        },
        {
          "duration": 0.789473000000001,
          "durationTicks": 480,
          "midi": 45,
          "name": "A2",
          "ticks": 21120,
          "time": 34.736812,
          "velocity": 0.5984251968503937
        },
        {
          "duration": 0.1973682500000038,
          "durationTicks": 120,
          "midi": 45,
          "name": "A2",
          "ticks": 21840,
          "time": 35.9210215,
          "velocity": 0.5984251968503937
        },
        {
          "duration": 0.9868412500000048,
          "durationTicks": 600,
          "midi": 45,
          "name": "A2",
          "ticks": 22080,
          "time": 36.315758,
          "velocity": 0.5984251968503937
        },
        {
          "duration": 0.3749996750000051,
          "durationTicks": 228,
          "midi": 40,
          "name": "E2",
          "ticks": 22800,
          "time": 37.499967500000004,
          "velocity": 0.5984251968503937
        },
        {
          "duration": 0.789473000000001,
          "durationTicks": 480,
          "midi": 45,
          "name": "A2",
          "ticks": 23040,
          "time": 37.894704000000004,
          "velocity": 0.5984251968503937
        },
        {
          "duration": 0.1973682499999967,
          "durationTicks": 120,
          "midi": 45,
          "name": "A2",
          "ticks": 23760,
          "time": 39.078913500000006,
          "velocity": 0.5984251968503937
        },
        {
          "duration": 0.789473000000001,
          "durationTicks": 480,
          "midi": 40,
          "name": "E2",
          "ticks": 24000,
          "time": 39.473650000000006,
          "velocity": 0.5984251968503937
        },
        {
          "duration": 0.374999674999998,
          "durationTicks": 228,
          "midi": 35,
          "name": "B1",
          "ticks": 24720,
          "time": 40.65785950000001,
          "velocity": 0.5984251968503937
        },
        {
          "duration": 0.7894729999999939,
          "durationTicks": 480,
          "midi": 45,
          "name": "A2",
          "ticks": 24960,
          "time": 41.05259600000001,
          "velocity": 0.5984251968503937
        },
        {
          "duration": 0.1973682500000038,
          "durationTicks": 120,
          "midi": 45,
          "name": "A2",
          "ticks": 25680,
          "time": 42.2368055,
          "velocity": 0.5984251968503937
        },
        {
          "duration": 0.9868412500000048,
          "durationTicks": 600,
          "midi": 40,
          "name": "E2",
          "ticks": 25920,
          "time": 42.631542,
          "velocity": 0.5984251968503937
        },
        {
          "duration": 0.3749996750000051,
          "durationTicks": 228,
          "midi": 35,
          "name": "B1",
          "ticks": 26640,
          "time": 43.815751500000005,
          "velocity": 0.5984251968503937
        },
        {
          "duration": 0.789473000000001,
          "durationTicks": 480,
          "midi": 41,
          "name": "F2",
          "ticks": 26880,
          "time": 44.210488000000005,
          "velocity": 0.5984251968503937
        },
        {
          "duration": 0.1973682499999967,
          "durationTicks": 120,
          "midi": 41,
          "name": "F2",
          "ticks": 27600,
          "time": 45.39469750000001,
          "velocity": 0.5984251968503937
        },
        {
          "duration": 0.789473000000001,
          "durationTicks": 480,
          "midi": 40,
          "name": "E2",
          "ticks": 27840,
          "time": 45.78943400000001,
          "velocity": 0.5984251968503937
        },
        {
          "duration": 0.374999674999998,
          "durationTicks": 228,
          "midi": 35,
          "name": "B1",
          "ticks": 28560,
          "time": 46.97364350000001,
          "velocity": 0.5984251968503937
        },
        {
          "duration": 0.789473000000001,
          "durationTicks": 480,
          "midi": 45,
          "name": "A2",
          "ticks": 28800,
          "time": 47.36838,
          "velocity": 0.5984251968503937
        },
        {
          "duration": 0.1973682500000038,
          "durationTicks": 120,
          "midi": 45,
          "name": "A2",
          "ticks": 29520,
          "time": 48.5525895,
          "velocity": 0.5984251968503937
        },
        {
          "duration": 0.789473000000001,
          "durationTicks": 480,
          "midi": 45,
          "name": "A2",
          "ticks": 29760,
          "time": 48.947326000000004,
          "velocity": 0.5984251968503937
        },
        {
          "duration": 0.1973682500000038,
          "durationTicks": 120,
          "midi": 45,
          "name": "A2",
          "ticks": 30480,
          "time": 50.131535500000005,
          "velocity": 0.5984251968503937
        },
        {
          "duration": 0.789473000000001,
          "durationTicks": 480,
          "midi": 41,
          "name": "F2",
          "ticks": 30720,
          "time": 50.526272000000006,
          "velocity": 0.5826771653543307
        },
        {
          "duration": 0.1973682499999967,
          "durationTicks": 120,
          "midi": 41,
          "name": "F2",
          "ticks": 31440,
          "time": 51.71048150000001,
          "velocity": 0.5826771653543307
        },
        {
          "duration": 0.789473000000001,
          "durationTicks": 480,
          "midi": 43,
          "name": "G2",
          "ticks": 31680,
          "time": 52.10521800000001,
          "velocity": 0.5826771653543307
        },
        {
          "duration": 0.3749996749999909,
          "durationTicks": 228,
          "midi": 38,
          "name": "D2",
          "ticks": 32400,
          "time": 53.28942750000001,
          "velocity": 0.5826771653543307
        },
        {
          "duration": 0.7894729999999939,
          "durationTicks": 480,
          "midi": 40,
          "name": "E2",
          "ticks": 32640,
          "time": 53.68416400000001,
          "velocity": 0.5826771653543307
        },
        {
          "duration": 0.1973682500000038,
          "durationTicks": 120,
          "midi": 40,
          "name": "E2",
          "ticks": 33360,
          "time": 54.868373500000004,
          "velocity": 0.5826771653543307
        },
        {
          "duration": 0.1973682500000038,
          "durationTicks": 120,
          "midi": 45,
          "name": "A2",
          "ticks": 33600,
          "time": 55.263110000000005,
          "velocity": 0.5826771653543307
        },
        {
          "duration": 0.5921047500000043,
          "durationTicks": 360,
          "midi": 45,
          "name": "A2",
          "ticks": 33840,
          "time": 55.657846500000005,
          "velocity": 0.5826771653543307
        },
        {
          "duration": 0.374999674999998,
          "durationTicks": 228,
          "midi": 40,
          "name": "E2",
          "ticks": 34320,
          "time": 56.447319500000006,
          "velocity": 0.5826771653543307
        },
        {
          "duration": 0.789473000000001,
          "durationTicks": 480,
          "midi": 41,
          "name": "F2",
          "ticks": 34560,
          "time": 56.84205600000001,
          "velocity": 0.5826771653543307
        },
        {
          "duration": 0.1973682499999967,
          "durationTicks": 120,
          "midi": 41,
          "name": "F2",
          "ticks": 35280,
          "time": 58.02626550000001,
          "velocity": 0.5826771653543307
        },
        {
          "duration": 0.789473000000001,
          "durationTicks": 480,
          "midi": 43,
          "name": "G2",
          "ticks": 35520,
          "time": 58.42100200000001,
          "velocity": 0.5826771653543307
        },
        {
          "duration": 0.3749996749999909,
          "durationTicks": 228,
          "midi": 38,
          "name": "D2",
          "ticks": 36240,
          "time": 59.60521150000001,
          "velocity": 0.5826771653543307
        },
        {
          "duration": 0.789473000000001,
          "durationTicks": 480,
          "midi": 45,
          "name": "A2",
          "ticks": 36480,
          "time": 59.999948,
          "velocity": 0.5826771653543307
        },
        {
          "duration": 0.1973682500000038,
          "durationTicks": 120,
          "midi": 45,
          "name": "A2",
          "ticks": 37200,
          "time": 61.184157500000005,
          "velocity": 0.5826771653543307
        },
        {
          "duration": 0.1973682500000038,
          "durationTicks": 120,
          "midi": 45,
          "name": "A2",
          "ticks": 37440,
          "time": 61.578894000000005,
          "velocity": 0.5826771653543307
        },
        {
          "duration": 0.5921047500000043,
          "durationTicks": 360,
          "midi": 45,
          "name": "A2",
          "ticks": 37680,
          "time": 61.973630500000006,
          "velocity": 0.5826771653543307
        },
        {
          "duration": 0.1973682500000038,
          "durationTicks": 120,
          "midi": 40,
          "name": "E2",
          "ticks": 38160,
          "time": 62.76310350000001,
          "velocity": 0.5826771653543307
        },
        {
          "duration": 0.789473000000001,
          "durationTicks": 480,
          "midi": 41,
          "name": "F2",
          "ticks": 38400,
          "time": 63.15784000000001,
          "velocity": 0.5826771653543307
        },
        {
          "duration": 0.1973682500000109,
          "durationTicks": 120,
          "midi": 41,
          "name": "F2",
          "ticks": 39120,
          "time": 64.3420495,
          "velocity": 0.5826771653543307
        },
        {
          "duration": 0.789473000000001,
          "durationTicks": 480,
          "midi": 43,
          "name": "G2",
          "ticks": 39360,
          "time": 64.73678600000001,
          "velocity": 0.5826771653543307
        },
        {
          "duration": 0.374999674999998,
          "durationTicks": 228,
          "midi": 38,
          "name": "D2",
          "ticks": 40080,
          "time": 65.9209955,
          "velocity": 0.5826771653543307
        },
        {
          "duration": 0.789473000000001,
          "durationTicks": 480,
          "midi": 40,
          "name": "E2",
          "ticks": 40320,
          "time": 66.31573200000001,
          "velocity": 0.5826771653543307
        },
        {
          "duration": 0.1973682499999967,
          "durationTicks": 120,
          "midi": 40,
          "name": "E2",
          "ticks": 41040,
          "time": 67.4999415,
          "velocity": 0.5826771653543307
        },
        {
          "duration": 0.1973682499999967,
          "durationTicks": 120,
          "midi": 45,
          "name": "A2",
          "ticks": 41280,
          "time": 67.89467800000001,
          "velocity": 0.5826771653543307
        },
        {
          "duration": 0.5921047500000043,
          "durationTicks": 360,
          "midi": 45,
          "name": "A2",
          "ticks": 41520,
          "time": 68.2894145,
          "velocity": 0.5826771653543307
        },
        {
          "duration": 0.374999674999998,
          "durationTicks": 228,
          "midi": 40,
          "name": "E2",
          "ticks": 42000,
          "time": 69.07888750000001,
          "velocity": 0.5826771653543307
        },
        {
          "duration": 0.789473000000001,
          "durationTicks": 480,
          "midi": 41,
          "name": "F2",
          "ticks": 42240,
          "time": 69.473624,
          "velocity": 0.5826771653543307
        },
        {
          "duration": 0.1973682499999967,
          "durationTicks": 120,
          "midi": 41,
          "name": "F2",
          "ticks": 42960,
          "time": 70.65783350000001,
          "velocity": 0.5826771653543307
        },
        {
          "duration": 0.789473000000001,
          "durationTicks": 480,
          "midi": 43,
          "name": "G2",
          "ticks": 43200,
          "time": 71.05257,
          "velocity": 0.5826771653543307
        },
        {
          "duration": 0.374999674999998,
          "durationTicks": 228,
          "midi": 38,
          "name": "D2",
          "ticks": 43920,
          "time": 72.23677950000001,
          "velocity": 0.5826771653543307
        },
        {
          "duration": 0.789473000000001,
          "durationTicks": 480,
          "midi": 40,
          "name": "E2",
          "ticks": 44160,
          "time": 72.631516,
          "velocity": 0.5826771653543307
        },
        {
          "duration": 0.1973682499999967,
          "durationTicks": 120,
          "midi": 40,
          "name": "E2",
          "ticks": 44880,
          "time": 73.81572550000001,
          "velocity": 0.5826771653543307
        },
        {
          "duration": 1.5723670583333273,
          "durationTicks": 956,
          "midi": 40,
          "name": "E2",
          "ticks": 45120,
          "time": 74.210462,
          "velocity": 0.7874015748031497
        },
        {
          "duration": 0.9868412499999977,
          "durationTicks": 600,
          "midi": 41,
          "name": "F2",
          "ticks": 46080,
          "time": 75.78940800000001,
          "velocity": 0.5984251968503937
        },
        {
          "duration": 0.3552628500000026,
          "durationTicks": 216,
          "midi": 41,
          "name": "F2",
          "ticks": 46800,
          "time": 76.9736175,
          "velocity": 0.5984251968503937
        },
        {
          "duration": 0.9868412499999977,
          "durationTicks": 600,
          "midi": 43,
          "name": "G2",
          "ticks": 47040,
          "time": 77.36835400000001,
          "velocity": 0.5984251968503937
        },
        {
          "duration": 0.374999674999998,
          "durationTicks": 228,
          "midi": 38,
          "name": "D2",
          "ticks": 47760,
          "time": 78.5525635,
          "velocity": 0.5984251968503937
        },
        {
          "duration": 0.789473000000001,
          "durationTicks": 480,
          "midi": 36,
          "name": "C2",
          "ticks": 48000,
          "time": 78.94730000000001,
          "velocity": 0.5984251968503937
        },
        {
          "duration": 0.1973682499999967,
          "durationTicks": 120,
          "midi": 43,
          "name": "G2",
          "ticks": 48480,
          "time": 79.73677300000001,
          "velocity": 0.5984251968503937
        },
        {
          "duration": 0.3947365000000076,
          "durationTicks": 240,
          "midi": 43,
          "name": "G2",
          "ticks": 48720,
          "time": 80.1315095,
          "velocity": 0.5984251968503937
        },
        {
          "duration": 0,
          "durationTicks": 0,
          "midi": 45,
          "name": "A2",
          "ticks": 48960,
          "time": 80.52624600000001,
          "velocity": 0.5984251968503937
        },
        {
          "duration": 0.1973682499999967,
          "durationTicks": 120,
          "midi": 45,
          "name": "A2",
          "ticks": 48960,
          "time": 80.52624600000001,
          "velocity": 0.5984251968503937
        },
        {
          "duration": 0.789473000000001,
          "durationTicks": 480,
          "midi": 45,
          "name": "A2",
          "ticks": 49200,
          "time": 80.92098250000001,
          "velocity": 0.5984251968503937
        },
        {
          "duration": 0.374999674999998,
          "durationTicks": 228,
          "midi": 40,
          "name": "E2",
          "ticks": 49680,
          "time": 81.71045550000001,
          "velocity": 0.5984251968503937
        },
        {
          "duration": 0.9868412499999977,
          "durationTicks": 600,
          "midi": 41,
          "name": "F2",
          "ticks": 49920,
          "time": 82.10519200000002,
          "velocity": 0.5984251968503937
        },
        {
          "duration": 0.374999674999998,
          "durationTicks": 228,
          "midi": 41,
          "name": "F2",
          "ticks": 50640,
          "time": 83.28940150000001,
          "velocity": 0.5984251968503937
        },
        {
          "duration": 0.9868412500000119,
          "durationTicks": 600,
          "midi": 43,
          "name": "G2",
          "ticks": 50880,
          "time": 83.684138,
          "velocity": 0.5984251968503937
        },
        {
          "duration": 0.374999674999998,
          "durationTicks": 228,
          "midi": 38,
          "name": "D2",
          "ticks": 51600,
          "time": 84.86834750000001,
          "velocity": 0.5984251968503937
        },
        {
          "duration": 0.9868412499999977,
          "durationTicks": 600,
          "midi": 45,
          "name": "A2",
          "ticks": 51840,
          "time": 85.263084,
          "velocity": 0.5984251968503937
        },
        {
          "duration": 0.34210496666666756,
          "durationTicks": 208,
          "midi": 45,
          "name": "A2",
          "ticks": 52560,
          "time": 86.44729350000001,
          "velocity": 0.5984251968503937
        },
        {
          "duration": 0.1973682499999967,
          "durationTicks": 120,
          "midi": 45,
          "name": "A2",
          "ticks": 52800,
          "time": 86.84203000000001,
          "velocity": 0.5984251968503937
        },
        {
          "duration": 0.789473000000001,
          "durationTicks": 480,
          "midi": 45,
          "name": "A2",
          "ticks": 53040,
          "time": 87.23676650000002,
          "velocity": 0.5984251968503937
        },
        {
          "duration": 0.1973682499999967,
          "durationTicks": 120,
          "midi": 40,
          "name": "E2",
          "ticks": 53520,
          "time": 88.02623950000002,
          "velocity": 0.5984251968503937
        },
        {
          "duration": 0.9868412499999977,
          "durationTicks": 600,
          "midi": 41,
          "name": "F2",
          "ticks": 53760,
          "time": 88.42097600000001,
          "velocity": 0.5984251968503937
        },
        {
          "duration": 0.3552628500000026,
          "durationTicks": 216,
          "midi": 41,
          "name": "F2",
          "ticks": 54480,
          "time": 89.6051855,
          "velocity": 0.5984251968503937
        },
        {
          "duration": 0.9868412499999977,
          "durationTicks": 600,
          "midi": 43,
          "name": "G2",
          "ticks": 54720,
          "time": 89.99992200000001,
          "velocity": 0.5984251968503937
        },
        {
          "duration": 0.374999674999998,
          "durationTicks": 228,
          "midi": 38,
          "name": "D2",
          "ticks": 55440,
          "time": 91.1841315,
          "velocity": 0.5984251968503937
        },
        {
          "duration": 0.789473000000001,
          "durationTicks": 480,
          "midi": 36,
          "name": "C2",
          "ticks": 55680,
          "time": 91.57886800000001,
          "velocity": 0.5984251968503937
        },
        {
          "duration": 0.1973682499999967,
          "durationTicks": 120,
          "midi": 43,
          "name": "G2",
          "ticks": 56160,
          "time": 92.36834100000002,
          "velocity": 0.5984251968503937
        },
        {
          "duration": 0.3947365000000076,
          "durationTicks": 240,
          "midi": 43,
          "name": "G2",
          "ticks": 56400,
          "time": 92.76307750000001,
          "velocity": 0.5984251968503937
        },
        {
          "duration": 0,
          "durationTicks": 0,
          "midi": 45,
          "name": "A2",
          "ticks": 56640,
          "time": 93.15781400000002,
          "velocity": 0.5984251968503937
        },
        {
          "duration": 0.1973682499999967,
          "durationTicks": 120,
          "midi": 45,
          "name": "A2",
          "ticks": 56640,
          "time": 93.15781400000002,
          "velocity": 0.5984251968503937
        },
        {
          "duration": 0.789473000000001,
          "durationTicks": 480,
          "midi": 45,
          "name": "A2",
          "ticks": 56880,
          "time": 93.55255050000001,
          "velocity": 0.5984251968503937
        },
        {
          "duration": 0.374999674999998,
          "durationTicks": 228,
          "midi": 40,
          "name": "E2",
          "ticks": 57360,
          "time": 94.34202350000001,
          "velocity": 0.5984251968503937
        },
        {
          "duration": 0.9868412500000119,
          "durationTicks": 600,
          "midi": 41,
          "name": "F2",
          "ticks": 57600,
          "time": 94.73676,
          "velocity": 0.5984251968503937
        },
        {
          "duration": 0.374999674999998,
          "durationTicks": 228,
          "midi": 41,
          "name": "F2",
          "ticks": 58320,
          "time": 95.92096950000001,
          "velocity": 0.5984251968503937
        },
        {
          "duration": 0.9868412500000119,
          "durationTicks": 600,
          "midi": 43,
          "name": "G2",
          "ticks": 58560,
          "time": 96.315706,
          "velocity": 0.5984251968503937
        },
        {
          "duration": 0.374999674999998,
          "durationTicks": 228,
          "midi": 38,
          "name": "D2",
          "ticks": 59280,
          "time": 97.49991550000001,
          "velocity": 0.5984251968503937
        },
        {
          "duration": 0.9868412499999977,
          "durationTicks": 600,
          "midi": 45,
          "name": "A2",
          "ticks": 59520,
          "time": 97.89465200000001,
          "velocity": 0.5984251968503937
        },
        {
          "duration": 0.34210496666666756,
          "durationTicks": 208,
          "midi": 45,
          "name": "A2",
          "ticks": 60240,
          "time": 99.07886150000002,
          "velocity": 0.5984251968503937
        },
        {
          "duration": 0.789473000000001,
          "durationTicks": 480,
          "midi": 45,
          "name": "A2",
          "ticks": 60480,
          "time": 99.47359800000001,
          "velocity": 0.5826771653543307
        },
        {
          "duration": 0.1973682499999967,
          "durationTicks": 120,
          "midi": 45,
          "name": "A2",
          "ticks": 61200,
          "time": 100.65780750000002,
          "velocity": 0.5826771653543307
        },
        {
          "duration": 0.9868412499999977,
          "durationTicks": 600,
          "midi": 41,
          "name": "F2",
          "ticks": 61440,
          "time": 101.05254400000001,
          "velocity": 0.5984251968503937
        },
        {
          "duration": 0.3552628500000026,
          "durationTicks": 216,
          "midi": 41,
          "name": "F2",
          "ticks": 62160,
          "time": 102.2367535,
          "velocity": 0.5984251968503937
        },
        {
          "duration": 0.9868412499999977,
          "durationTicks": 600,
          "midi": 43,
          "name": "G2",
          "ticks": 62400,
          "time": 102.63149000000001,
          "velocity": 0.5984251968503937
        },
        {
          "duration": 0.374999674999998,
          "durationTicks": 228,
          "midi": 38,
          "name": "D2",
          "ticks": 63120,
          "time": 103.81569950000001,
          "velocity": 0.5984251968503937
        },
        {
          "duration": 0.789473000000001,
          "durationTicks": 480,
          "midi": 36,
          "name": "C2",
          "ticks": 63360,
          "time": 104.21043600000002,
          "velocity": 0.5984251968503937
        },
        {
          "duration": 0.1973682499999967,
          "durationTicks": 120,
          "midi": 43,
          "name": "G2",
          "ticks": 63840,
          "time": 104.99990900000002,
          "velocity": 0.5984251968503937
        },
        {
          "duration": 0.3947365000000076,
          "durationTicks": 240,
          "midi": 43,
          "name": "G2",
          "ticks": 64080,
          "time": 105.39464550000001,
          "velocity": 0.5984251968503937
        },
        {
          "duration": 0,
          "durationTicks": 0,
          "midi": 45,
          "name": "A2",
          "ticks": 64320,
          "time": 105.78938200000002,
          "velocity": 0.5984251968503937
        },
        {
          "duration": 0.1973682499999967,
          "durationTicks": 120,
          "midi": 45,
          "name": "A2",
          "ticks": 64320,
          "time": 105.78938200000002,
          "velocity": 0.5984251968503937
        },
        {
          "duration": 0.789473000000001,
          "durationTicks": 480,
          "midi": 45,
          "name": "A2",
          "ticks": 64560,
          "time": 106.18411850000001,
          "velocity": 0.5984251968503937
        },
        {
          "duration": 0.374999674999998,
          "durationTicks": 228,
          "midi": 40,
          "name": "E2",
          "ticks": 65040,
          "time": 106.97359150000001,
          "velocity": 0.5984251968503937
        },
        {
          "duration": 0.9868412499999977,
          "durationTicks": 600,
          "midi": 41,
          "name": "F2",
          "ticks": 65280,
          "time": 107.36832800000002,
          "velocity": 0.5984251968503937
        },
        {
          "duration": 0.374999674999998,
          "durationTicks": 228,
          "midi": 41,
          "name": "F2",
          "ticks": 66000,
          "time": 108.55253750000001,
          "velocity": 0.5984251968503937
        },
        {
          "duration": 0.9868412500000119,
          "durationTicks": 600,
          "midi": 43,
          "name": "G2",
          "ticks": 66240,
          "time": 108.94727400000001,
          "velocity": 0.5984251968503937
        },
        {
          "duration": 0.374999674999998,
          "durationTicks": 228,
          "midi": 38,
          "name": "D2",
          "ticks": 66960,
          "time": 110.13148350000002,
          "velocity": 0.5984251968503937
        },
        {
          "duration": 0.9868412499999977,
          "durationTicks": 600,
          "midi": 45,
          "name": "A2",
          "ticks": 67200,
          "time": 110.52622000000001,
          "velocity": 0.5984251968503937
        },
        {
          "duration": 0.34210496666666756,
          "durationTicks": 208,
          "midi": 45,
          "name": "A2",
          "ticks": 67920,
          "time": 111.71042950000002,
          "velocity": 0.5984251968503937
        },
        {
          "duration": 0.789473000000001,
          "durationTicks": 480,
          "midi": 45,
          "name": "A2",
          "ticks": 68160,
          "time": 112.10516600000001,
          "velocity": 0.5826771653543307
        },
        {
          "duration": 0.1973682499999967,
          "durationTicks": 120,
          "midi": 45,
          "name": "A2",
          "ticks": 68880,
          "time": 113.28937550000002,
          "velocity": 0.5826771653543307
        },
        {
          "duration": 0.789473000000001,
          "durationTicks": 480,
          "midi": 45,
          "name": "A2",
          "ticks": 69120,
          "time": 113.68411200000001,
          "velocity": 0.5984251968503937
        },
        {
          "duration": 0.1973682500000109,
          "durationTicks": 120,
          "midi": 45,
          "name": "A2",
          "ticks": 69840,
          "time": 114.86832150000001,
          "velocity": 0.5984251968503937
        },
        {
          "duration": 0.789473000000001,
          "durationTicks": 480,
          "midi": 40,
          "name": "E2",
          "ticks": 70080,
          "time": 115.26305800000002,
          "velocity": 0.5984251968503937
        },
        {
          "duration": 0.374999674999998,
          "durationTicks": 228,
          "midi": 35,
          "name": "B1",
          "ticks": 70800,
          "time": 116.44726750000001,
          "velocity": 0.5984251968503937
        },
        {
          "duration": 0.789473000000001,
          "durationTicks": 480,
          "midi": 45,
          "name": "A2",
          "ticks": 71040,
          "time": 116.84200400000002,
          "velocity": 0.5984251968503937
        },
        {
          "duration": 0.1973682499999967,
          "durationTicks": 120,
          "midi": 45,
          "name": "A2",
          "ticks": 71760,
          "time": 118.02621350000001,
          "velocity": 0.5984251968503937
        },
        {
          "duration": 0.9868412499999977,
          "durationTicks": 600,
          "midi": 40,
          "name": "E2",
          "ticks": 72000,
          "time": 118.42095000000002,
          "velocity": 0.5984251968503937
        },
        {
          "duration": 0.374999674999998,
          "durationTicks": 228,
          "midi": 35,
          "name": "B1",
          "ticks": 72720,
          "time": 119.60515950000001,
          "velocity": 0.5984251968503937
        },
        {
          "duration": 0.789473000000001,
          "durationTicks": 480,
          "midi": 41,
          "name": "F2",
          "ticks": 72960,
          "time": 119.999896,
          "velocity": 0.5984251968503937
        },
        {
          "duration": 0.1973682499999967,
          "durationTicks": 120,
          "midi": 41,
          "name": "F2",
          "ticks": 73680,
          "time": 121.18410550000002,
          "velocity": 0.5984251968503937
        },
        {
          "duration": 0.789473000000001,
          "durationTicks": 480,
          "midi": 40,
          "name": "E2",
          "ticks": 73920,
          "time": 121.57884200000001,
          "velocity": 0.5984251968503937
        },
        {
          "duration": 0.374999674999998,
          "durationTicks": 228,
          "midi": 35,
          "name": "B1",
          "ticks": 74640,
          "time": 122.76305150000002,
          "velocity": 0.5984251968503937
        },
        {
          "duration": 0.789473000000001,
          "durationTicks": 480,
          "midi": 45,
          "name": "A2",
          "ticks": 74880,
          "time": 123.15778800000001,
          "velocity": 0.5984251968503937
        },
        {
          "duration": 0.1973682499999967,
          "durationTicks": 120,
          "midi": 45,
          "name": "A2",
          "ticks": 75600,
          "time": 124.34199750000002,
          "velocity": 0.5984251968503937
        },
        {
          "duration": 0.789473000000001,
          "durationTicks": 480,
          "midi": 45,
          "name": "A2",
          "ticks": 75840,
          "time": 124.73673400000001,
          "velocity": 0.5984251968503937
        },
        {
          "duration": 0.1973682499999967,
          "durationTicks": 120,
          "midi": 45,
          "name": "A2",
          "ticks": 76560,
          "time": 125.92094350000002,
          "velocity": 0.5984251968503937
        },
        {
          "duration": 0.789473000000001,
          "durationTicks": 480,
          "midi": 41,
          "name": "F2",
          "ticks": 76800,
          "time": 126.31568000000001,
          "velocity": 0.5826771653543307
        },
        {
          "duration": 0.1973682500000109,
          "durationTicks": 120,
          "midi": 41,
          "name": "F2",
          "ticks": 77520,
          "time": 127.49988950000001,
          "velocity": 0.5826771653543307
        },
        {
          "duration": 0.7894729999999868,
          "durationTicks": 480,
          "midi": 43,
          "name": "G2",
          "ticks": 77760,
          "time": 127.89462600000002,
          "velocity": 0.5826771653543307
        },
        {
          "duration": 0.374999674999998,
          "durationTicks": 228,
          "midi": 38,
          "name": "D2",
          "ticks": 78480,
          "time": 129.07883550000003,
          "velocity": 0.5826771653543307
        },
        {
          "duration": 0.7894729999999868,
          "durationTicks": 480,
          "midi": 40,
          "name": "E2",
          "ticks": 78720,
          "time": 129.47357200000002,
          "velocity": 0.5826771653543307
        },
        {
          "duration": 0.19736824999998248,
          "durationTicks": 120,
          "midi": 40,
          "name": "E2",
          "ticks": 79440,
          "time": 130.65778150000003,
          "velocity": 0.5826771653543307
        },
        {
          "duration": 0.19736824999998248,
          "durationTicks": 120,
          "midi": 45,
          "name": "A2",
          "ticks": 79680,
          "time": 131.05251800000002,
          "velocity": 0.5826771653543307
        },
        {
          "duration": 0.5921047500000043,
          "durationTicks": 360,
          "midi": 45,
          "name": "A2",
          "ticks": 79920,
          "time": 131.4472545,
          "velocity": 0.5826771653543307
        },
        {
          "duration": 0.37499967499996956,
          "durationTicks": 228,
          "midi": 40,
          "name": "E2",
          "ticks": 80400,
          "time": 132.23672750000003,
          "velocity": 0.5826771653543307
        },
        {
          "duration": 0.7894729999999868,
          "durationTicks": 480,
          "midi": 41,
          "name": "F2",
          "ticks": 80640,
          "time": 132.63146400000002,
          "velocity": 0.5826771653543307
        },
        {
          "duration": 0.1973682500000109,
          "durationTicks": 120,
          "midi": 41,
          "name": "F2",
          "ticks": 81360,
          "time": 133.8156735,
          "velocity": 0.5826771653543307
        },
        {
          "duration": 0.7894729999999868,
          "durationTicks": 480,
          "midi": 43,
          "name": "G2",
          "ticks": 81600,
          "time": 134.21041000000002,
          "velocity": 0.5826771653543307
        },
        {
          "duration": 0.374999674999998,
          "durationTicks": 228,
          "midi": 38,
          "name": "D2",
          "ticks": 82320,
          "time": 135.3946195,
          "velocity": 0.5826771653543307
        },
        {
          "duration": 0.7894729999999868,
          "durationTicks": 480,
          "midi": 45,
          "name": "A2",
          "ticks": 82560,
          "time": 135.78935600000003,
          "velocity": 0.5826771653543307
        },
        {
          "duration": 0.1973682500000109,
          "durationTicks": 120,
          "midi": 45,
          "name": "A2",
          "ticks": 83280,
          "time": 136.9735655,
          "velocity": 0.5826771653543307
        },
        {
          "duration": 0.19736824999998248,
          "durationTicks": 120,
          "midi": 45,
          "name": "A2",
          "ticks": 83520,
          "time": 137.36830200000003,
          "velocity": 0.5826771653543307
        },
        {
          "duration": 0.5921047500000043,
          "durationTicks": 360,
          "midi": 45,
          "name": "A2",
          "ticks": 83760,
          "time": 137.76303850000002,
          "velocity": 0.5826771653543307
        },
        {
          "duration": 0.1973682500000109,
          "durationTicks": 120,
          "midi": 40,
          "name": "E2",
          "ticks": 84240,
          "time": 138.5525115,
          "velocity": 0.5826771653543307
        },
        {
          "duration": 0.7894730000000152,
          "durationTicks": 480,
          "midi": 41,
          "name": "F2",
          "ticks": 84480,
          "time": 138.947248,
          "velocity": 0.5826771653543307
        },
        {
          "duration": 0.1973682500000109,
          "durationTicks": 120,
          "midi": 41,
          "name": "F2",
          "ticks": 85200,
          "time": 140.1314575,
          "velocity": 0.5826771653543307
        },
        {
          "duration": 0.7894730000000152,
          "durationTicks": 480,
          "midi": 43,
          "name": "G2",
          "ticks": 85440,
          "time": 140.526194,
          "velocity": 0.5826771653543307
        },
        {
          "duration": 0.374999674999998,
          "durationTicks": 228,
          "midi": 38,
          "name": "D2",
          "ticks": 86160,
          "time": 141.7104035,
          "velocity": 0.5826771653543307
        },
        {
          "duration": 0.7894730000000152,
          "durationTicks": 480,
          "midi": 40,
          "name": "E2",
          "ticks": 86400,
          "time": 142.10514,
          "velocity": 0.5826771653543307
        },
        {
          "duration": 0.1973682500000109,
          "durationTicks": 120,
          "midi": 40,
          "name": "E2",
          "ticks": 87120,
          "time": 143.28934950000001,
          "velocity": 0.5826771653543307
        },
        {
          "duration": 0.1973682500000109,
          "durationTicks": 120,
          "midi": 45,
          "name": "A2",
          "ticks": 87360,
          "time": 143.684086,
          "velocity": 0.5826771653543307
        },
        {
          "duration": 0.5921047499999759,
          "durationTicks": 360,
          "midi": 45,
          "name": "A2",
          "ticks": 87600,
          "time": 144.07882250000003,
          "velocity": 0.5826771653543307
        },
        {
          "duration": 0.374999674999998,
          "durationTicks": 228,
          "midi": 40,
          "name": "E2",
          "ticks": 88080,
          "time": 144.86829550000002,
          "velocity": 0.5826771653543307
        },
        {
          "duration": 0.7894730000000152,
          "durationTicks": 480,
          "midi": 41,
          "name": "F2",
          "ticks": 88320,
          "time": 145.263032,
          "velocity": 0.5826771653543307
        },
        {
          "duration": 0.1973682500000109,
          "durationTicks": 120,
          "midi": 41,
          "name": "F2",
          "ticks": 89040,
          "time": 146.44724150000002,
          "velocity": 0.5826771653543307
        },
        {
          "duration": 0.7894730000000152,
          "durationTicks": 480,
          "midi": 43,
          "name": "G2",
          "ticks": 89280,
          "time": 146.841978,
          "velocity": 0.5826771653543307
        },
        {
          "duration": 0.374999674999998,
          "durationTicks": 228,
          "midi": 38,
          "name": "D2",
          "ticks": 90000,
          "time": 148.02618750000002,
          "velocity": 0.5826771653543307
        },
        {
          "duration": 0.7894730000000152,
          "durationTicks": 480,
          "midi": 40,
          "name": "E2",
          "ticks": 90240,
          "time": 148.420924,
          "velocity": 0.5826771653543307
        },
        {
          "duration": 0.19736824999998248,
          "durationTicks": 120,
          "midi": 40,
          "name": "E2",
          "ticks": 90960,
          "time": 149.60513350000002,
          "velocity": 0.5826771653543307
        },
        {
          "duration": 1.5723670583333273,
          "durationTicks": 956,
          "midi": 40,
          "name": "E2",
          "ticks": 91200,
          "time": 149.99987000000002,
          "velocity": 0.7874015748031497
        },
        {
          "duration": 0.9868412499999977,
          "durationTicks": 600,
          "midi": 41,
          "name": "F2",
          "ticks": 92160,
          "time": 151.57881600000002,
          "velocity": 0.5984251968503937
        },
        {
          "duration": 0.35526284999997415,
          "durationTicks": 216,
          "midi": 41,
          "name": "F2",
          "ticks": 92880,
          "time": 152.76302550000003,
          "velocity": 0.5984251968503937
        },
        {
          "duration": 0.9868412499999977,
          "durationTicks": 600,
          "midi": 43,
          "name": "G2",
          "ticks": 93120,
          "time": 153.15776200000002,
          "velocity": 0.5984251968503937
        },
        {
          "duration": 0.374999674999998,
          "durationTicks": 228,
          "midi": 38,
          "name": "D2",
          "ticks": 93840,
          "time": 154.34197150000003,
          "velocity": 0.5984251968503937
        },
        {
          "duration": 0.7894729999999868,
          "durationTicks": 480,
          "midi": 36,
          "name": "C2",
          "ticks": 94080,
          "time": 154.73670800000002,
          "velocity": 0.5984251968503937
        },
        {
          "duration": 0.1973682500000109,
          "durationTicks": 120,
          "midi": 43,
          "name": "G2",
          "ticks": 94560,
          "time": 155.526181,
          "velocity": 0.5984251968503937
        },
        {
          "duration": 0.3947364999999934,
          "durationTicks": 240,
          "midi": 43,
          "name": "G2",
          "ticks": 94800,
          "time": 155.92091750000003,
          "velocity": 0.5984251968503937
        },
        {
          "duration": 0,
          "durationTicks": 0,
          "midi": 45,
          "name": "A2",
          "ticks": 95040,
          "time": 156.31565400000002,
          "velocity": 0.5984251968503937
        },
        {
          "duration": 0.19736824999998248,
          "durationTicks": 120,
          "midi": 45,
          "name": "A2",
          "ticks": 95040,
          "time": 156.31565400000002,
          "velocity": 0.5984251968503937
        },
        {
          "duration": 0.7894730000000152,
          "durationTicks": 480,
          "midi": 45,
          "name": "A2",
          "ticks": 95280,
          "time": 156.71039050000002,
          "velocity": 0.5984251968503937
        },
        {
          "duration": 0.37499967499996956,
          "durationTicks": 228,
          "midi": 40,
          "name": "E2",
          "ticks": 95760,
          "time": 157.49986350000003,
          "velocity": 0.5984251968503937
        },
        {
          "duration": 0.9868412499999977,
          "durationTicks": 600,
          "midi": 41,
          "name": "F2",
          "ticks": 96000,
          "time": 157.89460000000003,
          "velocity": 0.5984251968503937
        },
        {
          "duration": 0.374999674999998,
          "durationTicks": 228,
          "midi": 41,
          "name": "F2",
          "ticks": 96720,
          "time": 159.0788095,
          "velocity": 0.5984251968503937
        },
        {
          "duration": 0.9868412499999977,
          "durationTicks": 600,
          "midi": 43,
          "name": "G2",
          "ticks": 96960,
          "time": 159.47354600000003,
          "velocity": 0.5984251968503937
        },
        {
          "duration": 0.374999674999998,
          "durationTicks": 228,
          "midi": 38,
          "name": "D2",
          "ticks": 97680,
          "time": 160.6577555,
          "velocity": 0.5984251968503937
        },
        {
          "duration": 0.9868412499999977,
          "durationTicks": 600,
          "midi": 45,
          "name": "A2",
          "ticks": 97920,
          "time": 161.05249200000003,
          "velocity": 0.5984251968503937
        },
        {
          "duration": 0.3421049666666818,
          "durationTicks": 208,
          "midi": 45,
          "name": "A2",
          "ticks": 98640,
          "time": 162.2367015,
          "velocity": 0.5984251968503937
        },
        {
          "duration": 0.19736824999998248,
          "durationTicks": 120,
          "midi": 45,
          "name": "A2",
          "ticks": 98880,
          "time": 162.63143800000003,
          "velocity": 0.5984251968503937
        },
        {
          "duration": 0.7894729999999868,
          "durationTicks": 480,
          "midi": 45,
          "name": "A2",
          "ticks": 99120,
          "time": 163.02617450000002,
          "velocity": 0.5984251968503937
        },
        {
          "duration": 0.1973682500000109,
          "durationTicks": 120,
          "midi": 40,
          "name": "E2",
          "ticks": 99600,
          "time": 163.8156475,
          "velocity": 0.5984251968503937
        },
        {
          "duration": 0.9868412499999977,
          "durationTicks": 600,
          "midi": 41,
          "name": "F2",
          "ticks": 99840,
          "time": 164.21038400000003,
          "velocity": 0.5984251968503937
        },
        {
          "duration": 0.3552628500000026,
          "durationTicks": 216,
          "midi": 41,
          "name": "F2",
          "ticks": 100560,
          "time": 165.3945935,
          "velocity": 0.5984251968503937
        },
        {
          "duration": 0.9868412500000261,
          "durationTicks": 600,
          "midi": 43,
          "name": "G2",
          "ticks": 100800,
          "time": 165.78933,
          "velocity": 0.5984251968503937
        },
        {
          "duration": 0.374999674999998,
          "durationTicks": 228,
          "midi": 38,
          "name": "D2",
          "ticks": 101520,
          "time": 166.97353950000002,
          "velocity": 0.5984251968503937
        },
        {
          "duration": 0.7894730000000152,
          "durationTicks": 480,
          "midi": 36,
          "name": "C2",
          "ticks": 101760,
          "time": 167.368276,
          "velocity": 0.5984251968503937
        },
        {
          "duration": 0.19736824999998248,
          "durationTicks": 120,
          "midi": 43,
          "name": "G2",
          "ticks": 102240,
          "time": 168.15774900000002,
          "velocity": 0.5984251968503937
        },
        {
          "duration": 0.3947364999999934,
          "durationTicks": 240,
          "midi": 43,
          "name": "G2",
          "ticks": 102480,
          "time": 168.55248550000002,
          "velocity": 0.5984251968503937
        },
        {
          "duration": 0,
          "durationTicks": 0,
          "midi": 45,
          "name": "A2",
          "ticks": 102720,
          "time": 168.947222,
          "velocity": 0.5984251968503937
        },
        {
          "duration": 0.1973682500000109,
          "durationTicks": 120,
          "midi": 45,
          "name": "A2",
          "ticks": 102720,
          "time": 168.947222,
          "velocity": 0.5984251968503937
        },
        {
          "duration": 0.7894729999999868,
          "durationTicks": 480,
          "midi": 45,
          "name": "A2",
          "ticks": 102960,
          "time": 169.34195850000003,
          "velocity": 0.5984251968503937
        },
        {
          "duration": 0.374999674999998,
          "durationTicks": 228,
          "midi": 40,
          "name": "E2",
          "ticks": 103440,
          "time": 170.13143150000002,
          "velocity": 0.5984251968503937
        },
        {
          "duration": 0.9868412499999977,
          "durationTicks": 600,
          "midi": 41,
          "name": "F2",
          "ticks": 103680,
          "time": 170.526168,
          "velocity": 0.5984251968503937
        },
        {
          "duration": 0.374999674999998,
          "durationTicks": 228,
          "midi": 41,
          "name": "F2",
          "ticks": 104400,
          "time": 171.71037750000002,
          "velocity": 0.5984251968503937
        },
        {
          "duration": 0.9868412499999977,
          "durationTicks": 600,
          "midi": 43,
          "name": "G2",
          "ticks": 104640,
          "time": 172.10511400000001,
          "velocity": 0.5984251968503937
        },
        {
          "duration": 0.374999674999998,
          "durationTicks": 228,
          "midi": 38,
          "name": "D2",
          "ticks": 105360,
          "time": 173.28932350000002,
          "velocity": 0.5984251968503937
        },
        {
          "duration": 0.9868412499999977,
          "durationTicks": 600,
          "midi": 45,
          "name": "A2",
          "ticks": 105600,
          "time": 173.68406000000002,
          "velocity": 0.5984251968503937
        },
        {
          "duration": 0.34210496666665335,
          "durationTicks": 208,
          "midi": 45,
          "name": "A2",
          "ticks": 106320,
          "time": 174.86826950000003,
          "velocity": 0.5984251968503937
        },
        {
          "duration": 0.7894730000000152,
          "durationTicks": 480,
          "midi": 45,
          "name": "A2",
          "ticks": 106560,
          "time": 175.26300600000002,
          "velocity": 0.5826771653543307
        },
        {
          "duration": 0.19736824999998248,
          "durationTicks": 120,
          "midi": 45,
          "name": "A2",
          "ticks": 107280,
          "time": 176.44721550000003,
          "velocity": 0.5826771653543307
        },
        {
          "duration": 0.9868412499999977,
          "durationTicks": 600,
          "midi": 41,
          "name": "F2",
          "ticks": 107520,
          "time": 176.84195200000002,
          "velocity": 0.5984251968503937
        },
        {
          "duration": 0.35526284999997415,
          "durationTicks": 216,
          "midi": 41,
          "name": "F2",
          "ticks": 108240,
          "time": 178.02616150000003,
          "velocity": 0.5984251968503937
        },
        {
          "duration": 0.9868412499999977,
          "durationTicks": 600,
          "midi": 43,
          "name": "G2",
          "ticks": 108480,
          "time": 178.42089800000002,
          "velocity": 0.5984251968503937
        },
        {
          "duration": 0.374999674999998,
          "durationTicks": 228,
          "midi": 38,
          "name": "D2",
          "ticks": 109200,
          "time": 179.60510750000003,
          "velocity": 0.5984251968503937
        },
        {
          "duration": 0.9868412499999977,
          "durationTicks": 600,
          "midi": 40,
          "name": "E2",
          "ticks": 109440,
          "time": 179.99984400000002,
          "velocity": 0.5984251968503937
        },
        {
          "duration": 0.3947364999999934,
          "durationTicks": 240,
          "midi": 40,
          "name": "E2",
          "ticks": 110160,
          "time": 181.18405350000003,
          "velocity": 0.5984251968503937
        },
        {
          "duration": 0,
          "durationTicks": 0,
          "midi": 45,
          "name": "A2",
          "ticks": 110400,
          "time": 181.57879000000003,
          "velocity": 0.5984251968503937
        },
        {
          "duration": 0.19736824999998248,
          "durationTicks": 120,
          "midi": 45,
          "name": "A2",
          "ticks": 110400,
          "time": 181.57879000000003,
          "velocity": 0.5984251968503937
        },
        {
          "duration": 0.7894730000000152,
          "durationTicks": 480,
          "midi": 45,
          "name": "A2",
          "ticks": 110640,
          "time": 181.97352650000002,
          "velocity": 0.5984251968503937
        },
        {
          "duration": 0.37499967499996956,
          "durationTicks": 228,
          "midi": 40,
          "name": "E2",
          "ticks": 111120,
          "time": 182.76299950000003,
          "velocity": 0.5984251968503937
        },
        {
          "duration": 0.9868412499999977,
          "durationTicks": 600,
          "midi": 38,
          "name": "D2",
          "ticks": 111360,
          "time": 183.15773600000003,
          "velocity": 0.5984251968503937
        },
        {
          "duration": 0.374999674999998,
          "durationTicks": 228,
          "midi": 38,
          "name": "D2",
          "ticks": 112080,
          "time": 184.3419455,
          "velocity": 0.5984251968503937
        },
        {
          "duration": 0.9868412499999977,
          "durationTicks": 600,
          "midi": 40,
          "name": "E2",
          "ticks": 112320,
          "time": 184.73668200000003,
          "velocity": 0.5984251968503937
        },
        {
          "duration": 0.374999674999998,
          "durationTicks": 228,
          "midi": 35,
          "name": "B1",
          "ticks": 113040,
          "time": 185.9208915,
          "velocity": 0.5984251968503937
        },
        {
          "duration": 0.9868412499999977,
          "durationTicks": 600,
          "midi": 41,
          "name": "F2",
          "ticks": 113280,
          "time": 186.31562800000003,
          "velocity": 0.5984251968503937
        },
        {
          "duration": 0.3421049666666818,
          "durationTicks": 208,
          "midi": 41,
          "name": "F2",
          "ticks": 114000,
          "time": 187.4998375,
          "velocity": 0.5984251968503937
        },
        {
          "duration": 0.19736824999998248,
          "durationTicks": 120,
          "midi": 43,
          "name": "G2",
          "ticks": 114240,
          "time": 187.89457400000003,
          "velocity": 0.5984251968503937
        },
        {
          "duration": 0.7894729999999868,
          "durationTicks": 480,
          "midi": 43,
          "name": "G2",
          "ticks": 114480,
          "time": 188.28931050000003,
          "velocity": 0.5984251968503937
        },
        {
          "duration": 0.1973682500000109,
          "durationTicks": 120,
          "midi": 38,
          "name": "D2",
          "ticks": 114960,
          "time": 189.07878350000001,
          "velocity": 0.5984251968503937
        },
        {
          "duration": 0.7894730000000152,
          "durationTicks": 480,
          "midi": 41,
          "name": "F2",
          "ticks": 117120,
          "time": 192.631412,
          "velocity": 0.5984251968503937
        },
        {
          "duration": 0.1973682500000109,
          "durationTicks": 120,
          "midi": 41,
          "name": "F2",
          "ticks": 117840,
          "time": 193.81562150000002,
          "velocity": 0.5984251968503937
        },
        {
          "duration": 0.7894730000000152,
          "durationTicks": 480,
          "midi": 43,
          "name": "G2",
          "ticks": 118080,
          "time": 194.210358,
          "velocity": 0.5984251968503937
        },
        {
          "duration": 0.374999674999998,
          "durationTicks": 228,
          "midi": 38,
          "name": "D2",
          "ticks": 118800,
          "time": 195.39456750000002,
          "velocity": 0.5984251968503937
        },
        {
          "duration": 0.7894730000000152,
          "durationTicks": 480,
          "midi": 36,
          "name": "C2",
          "ticks": 119040,
          "time": 195.78930400000002,
          "velocity": 0.5984251968503937
        },
        {
          "duration": 0,
          "durationTicks": 0,
          "midi": 43,
          "name": "G2",
          "ticks": 119520,
          "time": 196.57877700000003,
          "velocity": 0.5984251968503937
        },
        {
          "duration": 0.1973682500000109,
          "durationTicks": 120,
          "midi": 43,
          "name": "G2",
          "ticks": 119760,
          "time": 196.97351350000002,
          "velocity": 0.5984251968503937
        },
        {
          "duration": 0.9868412499999977,
          "durationTicks": 600,
          "midi": 45,
          "name": "A2",
          "ticks": 120000,
          "time": 197.36825000000002,
          "velocity": 0.5984251968503937
        },
        {
          "duration": 0.374999674999998,
          "durationTicks": 228,
          "midi": 40,
          "name": "E2",
          "ticks": 120720,
          "time": 198.55245950000003,
          "velocity": 0.5984251968503937
        },
        {
          "duration": 0.7894730000000152,
          "durationTicks": 480,
          "midi": 41,
          "name": "F2",
          "ticks": 120960,
          "time": 198.94719600000002,
          "velocity": 0.5984251968503937
        },
        {
          "duration": 0.19736824999998248,
          "durationTicks": 120,
          "midi": 41,
          "name": "F2",
          "ticks": 121680,
          "time": 200.13140550000003,
          "velocity": 0.5984251968503937
        },
        {
          "duration": 0.7894730000000152,
          "durationTicks": 480,
          "midi": 43,
          "name": "G2",
          "ticks": 121920,
          "time": 200.52614200000002,
          "velocity": 0.5984251968503937
        },
        {
          "duration": 0.374999674999998,
          "durationTicks": 228,
          "midi": 38,
          "name": "D2",
          "ticks": 122640,
          "time": 201.71035150000003,
          "velocity": 0.5984251968503937
        },
        {
          "duration": 0.7894729999999868,
          "durationTicks": 480,
          "midi": 45,
          "name": "A2",
          "ticks": 122880,
          "time": 202.10508800000002,
          "velocity": 0.5984251968503937
        },
        {
          "duration": 0.19736824999998248,
          "durationTicks": 120,
          "midi": 45,
          "name": "A2",
          "ticks": 123600,
          "time": 203.28929750000003,
          "velocity": 0.5984251968503937
        },
        {
          "duration": 0.7894729999999868,
          "durationTicks": 480,
          "midi": 45,
          "name": "A2",
          "ticks": 123840,
          "time": 203.68403400000003,
          "velocity": 0.5984251968503937
        },
        {
          "duration": 0.19736824999998248,
          "durationTicks": 120,
          "midi": 45,
          "name": "A2",
          "ticks": 124560,
          "time": 204.86824350000003,
          "velocity": 0.5984251968503937
        },
        {
          "duration": 0.7894729999999868,
          "durationTicks": 480,
          "midi": 41,
          "name": "F2",
          "ticks": 124800,
          "time": 205.26298000000003,
          "velocity": 0.5984251968503937
        },
        {
          "duration": 0.19736824999998248,
          "durationTicks": 120,
          "midi": 41,
          "name": "F2",
          "ticks": 125520,
          "time": 206.44718950000004,
          "velocity": 0.5984251968503937
        },
        {
          "duration": 0.7894729999999868,
          "durationTicks": 480,
          "midi": 43,
          "name": "G2",
          "ticks": 125760,
          "time": 206.84192600000003,
          "velocity": 0.5984251968503937
        },
        {
          "duration": 0.374999674999998,
          "durationTicks": 228,
          "midi": 38,
          "name": "D2",
          "ticks": 126480,
          "time": 208.02613550000004,
          "velocity": 0.5984251968503937
        },
        {
          "duration": 0.7894729999999868,
          "durationTicks": 480,
          "midi": 36,
          "name": "C2",
          "ticks": 126720,
          "time": 208.42087200000003,
          "velocity": 0.5984251968503937
        },
        {
          "duration": 0,
          "durationTicks": 0,
          "midi": 43,
          "name": "G2",
          "ticks": 127200,
          "time": 209.21034500000002,
          "velocity": 0.5984251968503937
        },
        {
          "duration": 0.1973682500000109,
          "durationTicks": 120,
          "midi": 43,
          "name": "G2",
          "ticks": 127440,
          "time": 209.6050815,
          "velocity": 0.5984251968503937
        },
        {
          "duration": 0.9868412499999977,
          "durationTicks": 600,
          "midi": 45,
          "name": "A2",
          "ticks": 127680,
          "time": 209.99981800000003,
          "velocity": 0.5984251968503937
        },
        {
          "duration": 0.3749996750000264,
          "durationTicks": 228,
          "midi": 40,
          "name": "E2",
          "ticks": 128400,
          "time": 211.1840275,
          "velocity": 0.5984251968503937
        },
        {
          "duration": 0.7894729999999868,
          "durationTicks": 480,
          "midi": 41,
          "name": "F2",
          "ticks": 128640,
          "time": 211.57876400000004,
          "velocity": 0.5984251968503937
        },
        {
          "duration": 0.1973682500000109,
          "durationTicks": 120,
          "midi": 41,
          "name": "F2",
          "ticks": 129360,
          "time": 212.76297350000002,
          "velocity": 0.5984251968503937
        },
        {
          "duration": 0.7894729999999868,
          "durationTicks": 480,
          "midi": 43,
          "name": "G2",
          "ticks": 129600,
          "time": 213.15771000000004,
          "velocity": 0.5984251968503937
        },
        {
          "duration": 0.3749996750000264,
          "durationTicks": 228,
          "midi": 38,
          "name": "D2",
          "ticks": 130320,
          "time": 214.34191950000002,
          "velocity": 0.5984251968503937
        },
        {
          "duration": 0.7894729999999868,
          "durationTicks": 480,
          "midi": 45,
          "name": "A2",
          "ticks": 130560,
          "time": 214.73665600000004,
          "velocity": 0.5984251968503937
        },
        {
          "duration": 0.1973682500000109,
          "durationTicks": 120,
          "midi": 45,
          "name": "A2",
          "ticks": 131280,
          "time": 215.92086550000002,
          "velocity": 0.5984251968503937
        },
        {
          "duration": 0.7894730000000152,
          "durationTicks": 480,
          "midi": 45,
          "name": "A2",
          "ticks": 131520,
          "time": 216.315602,
          "velocity": 0.5984251968503937
        },
        {
          "duration": 0.1973682500000109,
          "durationTicks": 120,
          "midi": 45,
          "name": "A2",
          "ticks": 132240,
          "time": 217.49981150000002,
          "velocity": 0.5984251968503937
        },
        {
          "duration": 0.9868412499999977,
          "durationTicks": 600,
          "midi": 41,
          "name": "F2",
          "ticks": 132480,
          "time": 217.89454800000001,
          "velocity": 0.5984251968503937
        },
        {
          "duration": 0.3552628500000026,
          "durationTicks": 216,
          "midi": 41,
          "name": "F2",
          "ticks": 133200,
          "time": 219.07875750000002,
          "velocity": 0.5984251968503937
        },
        {
          "duration": 0.9868412499999977,
          "durationTicks": 600,
          "midi": 43,
          "name": "G2",
          "ticks": 133440,
          "time": 219.47349400000002,
          "velocity": 0.5984251968503937
        },
        {
          "duration": 0.3749996750000264,
          "durationTicks": 228,
          "midi": 38,
          "name": "D2",
          "ticks": 134160,
          "time": 220.65770350000003,
          "velocity": 0.5984251968503937
        },
        {
          "duration": 0.7894730000000152,
          "durationTicks": 480,
          "midi": 36,
          "name": "C2",
          "ticks": 134400,
          "time": 221.05244000000002,
          "velocity": 0.5984251968503937
        },
        {
          "duration": 0.19736824999998248,
          "durationTicks": 120,
          "midi": 43,
          "name": "G2",
          "ticks": 134880,
          "time": 221.84191300000003,
          "velocity": 0.5984251968503937
        },
        {
          "duration": 0.3947364999999934,
          "durationTicks": 240,
          "midi": 43,
          "name": "G2",
          "ticks": 135120,
          "time": 222.23664950000003,
          "velocity": 0.5984251968503937
        },
        {
          "duration": 0,
          "durationTicks": 0,
          "midi": 45,
          "name": "A2",
          "ticks": 135360,
          "time": 222.63138600000002,
          "velocity": 0.5984251968503937
        },
        {
          "duration": 0.1973682500000109,
          "durationTicks": 120,
          "midi": 45,
          "name": "A2",
          "ticks": 135360,
          "time": 222.63138600000002,
          "velocity": 0.5984251968503937
        },
        {
          "duration": 0.7894730000000152,
          "durationTicks": 480,
          "midi": 45,
          "name": "A2",
          "ticks": 135600,
          "time": 223.0261225,
          "velocity": 0.5984251968503937
        },
        {
          "duration": 0.3749996750000264,
          "durationTicks": 228,
          "midi": 40,
          "name": "E2",
          "ticks": 136080,
          "time": 223.81559550000003,
          "velocity": 0.5984251968503937
        },
        {
          "duration": 0.9868412499999977,
          "durationTicks": 600,
          "midi": 41,
          "name": "F2",
          "ticks": 136320,
          "time": 224.21033200000002,
          "velocity": 0.5984251968503937
        },
        {
          "duration": 0.3749996750000264,
          "durationTicks": 228,
          "midi": 41,
          "name": "F2",
          "ticks": 137040,
          "time": 225.39454150000003,
          "velocity": 0.5984251968503937
        },
        {
          "duration": 0.9868412499999977,
          "durationTicks": 600,
          "midi": 43,
          "name": "G2",
          "ticks": 137280,
          "time": 225.78927800000002,
          "velocity": 0.5984251968503937
        },
        {
          "duration": 0.374999674999998,
          "durationTicks": 228,
          "midi": 38,
          "name": "D2",
          "ticks": 138000,
          "time": 226.97348750000003,
          "velocity": 0.5984251968503937
        },
        {
          "duration": 0.9868412499999977,
          "durationTicks": 600,
          "midi": 45,
          "name": "A2",
          "ticks": 138240,
          "time": 227.36822400000003,
          "velocity": 0.5984251968503937
        },
        {
          "duration": 0.34210496666665335,
          "durationTicks": 208,
          "midi": 45,
          "name": "A2",
          "ticks": 138960,
          "time": 228.55243350000003,
          "velocity": 0.5984251968503937
        },
        {
          "duration": 0.1973682500000109,
          "durationTicks": 120,
          "midi": 45,
          "name": "A2",
          "ticks": 139200,
          "time": 228.94717000000003,
          "velocity": 0.5984251968503937
        },
        {
          "duration": 0.7894730000000152,
          "durationTicks": 480,
          "midi": 45,
          "name": "A2",
          "ticks": 139440,
          "time": 229.34190650000002,
          "velocity": 0.5984251968503937
        },
        {
          "duration": 0.19736824999998248,
          "durationTicks": 120,
          "midi": 40,
          "name": "E2",
          "ticks": 139920,
          "time": 230.13137950000004,
          "velocity": 0.5984251968503937
        },
        {
          "duration": 0.9868412499999977,
          "durationTicks": 600,
          "midi": 41,
          "name": "F2",
          "ticks": 140160,
          "time": 230.52611600000003,
          "velocity": 0.5984251968503937
        },
        {
          "duration": 0.35526284999997415,
          "durationTicks": 216,
          "midi": 41,
          "name": "F2",
          "ticks": 140880,
          "time": 231.71032550000004,
          "velocity": 0.5984251968503937
        },
        {
          "duration": 0.9868412499999977,
          "durationTicks": 600,
          "midi": 43,
          "name": "G2",
          "ticks": 141120,
          "time": 232.10506200000003,
          "velocity": 0.5984251968503937
        },
        {
          "duration": 0.374999674999998,
          "durationTicks": 228,
          "midi": 38,
          "name": "D2",
          "ticks": 141840,
          "time": 233.28927150000004,
          "velocity": 0.5984251968503937
        },
        {
          "duration": 0.7894729999999868,
          "durationTicks": 480,
          "midi": 36,
          "name": "C2",
          "ticks": 142080,
          "time": 233.68400800000003,
          "velocity": 0.5984251968503937
        },
        {
          "duration": 0.1973682500000109,
          "durationTicks": 120,
          "midi": 43,
          "name": "G2",
          "ticks": 142560,
          "time": 234.47348100000002,
          "velocity": 0.5984251968503937
        },
        {
          "duration": 0.3947365000000218,
          "durationTicks": 240,
          "midi": 43,
          "name": "G2",
          "ticks": 142800,
          "time": 234.86821750000001,
          "velocity": 0.5984251968503937
        },
        {
          "duration": 0,
          "durationTicks": 0,
          "midi": 45,
          "name": "A2",
          "ticks": 143040,
          "time": 235.26295400000004,
          "velocity": 0.5984251968503937
        },
        {
          "duration": 0.19736824999998248,
          "durationTicks": 120,
          "midi": 45,
          "name": "A2",
          "ticks": 143040,
          "time": 235.26295400000004,
          "velocity": 0.5984251968503937
        },
        {
          "duration": 0.7894729999999868,
          "durationTicks": 480,
          "midi": 45,
          "name": "A2",
          "ticks": 143280,
          "time": 235.65769050000003,
          "velocity": 0.5984251968503937
        },
        {
          "duration": 0.3749996750000264,
          "durationTicks": 228,
          "midi": 40,
          "name": "E2",
          "ticks": 143760,
          "time": 236.44716350000002,
          "velocity": 0.5984251968503937
        },
        {
          "duration": 0.9868412499999977,
          "durationTicks": 600,
          "midi": 41,
          "name": "F2",
          "ticks": 144000,
          "time": 236.84190000000004,
          "velocity": 0.5984251968503937
        },
        {
          "duration": 0.3749996750000264,
          "durationTicks": 228,
          "midi": 41,
          "name": "F2",
          "ticks": 144720,
          "time": 238.02610950000002,
          "velocity": 0.5984251968503937
        },
        {
          "duration": 0.9868412499999977,
          "durationTicks": 600,
          "midi": 43,
          "name": "G2",
          "ticks": 144960,
          "time": 238.42084600000004,
          "velocity": 0.5984251968503937
        },
        {
          "duration": 0.3749996750000264,
          "durationTicks": 228,
          "midi": 38,
          "name": "D2",
          "ticks": 145680,
          "time": 239.60505550000002,
          "velocity": 0.5984251968503937
        },
        {
          "duration": 0.9868412500000261,
          "durationTicks": 600,
          "midi": 45,
          "name": "A2",
          "ticks": 145920,
          "time": 239.999792,
          "velocity": 0.5984251968503937
        },
        {
          "duration": 0.3421049666666818,
          "durationTicks": 208,
          "midi": 45,
          "name": "A2",
          "ticks": 146640,
          "time": 241.18400150000002,
          "velocity": 0.5984251968503937
        },
        {
          "duration": 0.7894730000000152,
          "durationTicks": 480,
          "midi": 45,
          "name": "A2",
          "ticks": 146880,
          "time": 241.57873800000002,
          "velocity": 0.5826771653543307
        },
        {
          "duration": 0.1973682500000109,
          "durationTicks": 120,
          "midi": 45,
          "name": "A2",
          "ticks": 147600,
          "time": 242.76294750000002,
          "velocity": 0.5826771653543307
        },
        {
          "duration": 0.9868412499999977,
          "durationTicks": 600,
          "midi": 41,
          "name": "F2",
          "ticks": 147840,
          "time": 243.15768400000002,
          "velocity": 0.5984251968503937
        },
        {
          "duration": 0.3552628500000026,
          "durationTicks": 216,
          "midi": 41,
          "name": "F2",
          "ticks": 148560,
          "time": 244.34189350000003,
          "velocity": 0.5984251968503937
        },
        {
          "duration": 0.9868412499999977,
          "durationTicks": 600,
          "midi": 43,
          "name": "G2",
          "ticks": 148800,
          "time": 244.73663000000002,
          "velocity": 0.5984251968503937
        },
        {
          "duration": 0.3749996750000264,
          "durationTicks": 228,
          "midi": 38,
          "name": "D2",
          "ticks": 149520,
          "time": 245.92083950000003,
          "velocity": 0.5984251968503937
        },
        {
          "duration": 0.7894730000000152,
          "durationTicks": 480,
          "midi": 36,
          "name": "C2",
          "ticks": 149760,
          "time": 246.31557600000002,
          "velocity": 0.5984251968503937
        },
        {
          "duration": 0.19736824999998248,
          "durationTicks": 120,
          "midi": 43,
          "name": "G2",
          "ticks": 150240,
          "time": 247.10504900000004,
          "velocity": 0.5984251968503937
        },
        {
          "duration": 0.3947364999999934,
          "durationTicks": 240,
          "midi": 43,
          "name": "G2",
          "ticks": 150480,
          "time": 247.49978550000003,
          "velocity": 0.5984251968503937
        },
        {
          "duration": 0,
          "durationTicks": 0,
          "midi": 45,
          "name": "A2",
          "ticks": 150720,
          "time": 247.89452200000002,
          "velocity": 0.5984251968503937
        },
        {
          "duration": 0.1973682500000109,
          "durationTicks": 120,
          "midi": 45,
          "name": "A2",
          "ticks": 150720,
          "time": 247.89452200000002,
          "velocity": 0.5984251968503937
        },
        {
          "duration": 0.7894730000000152,
          "durationTicks": 480,
          "midi": 45,
          "name": "A2",
          "ticks": 150960,
          "time": 248.28925850000002,
          "velocity": 0.5984251968503937
        },
        {
          "duration": 0.3749996750000264,
          "durationTicks": 228,
          "midi": 40,
          "name": "E2",
          "ticks": 151440,
          "time": 249.07873150000003,
          "velocity": 0.5984251968503937
        },
        {
          "duration": 0.9868412499999977,
          "durationTicks": 600,
          "midi": 41,
          "name": "F2",
          "ticks": 151680,
          "time": 249.47346800000003,
          "velocity": 0.5984251968503937
        },
        {
          "duration": 0.3749996750000264,
          "durationTicks": 228,
          "midi": 41,
          "name": "F2",
          "ticks": 152400,
          "time": 250.65767750000003,
          "velocity": 0.5984251968503937
        },
        {
          "duration": 0.9868412499999977,
          "durationTicks": 600,
          "midi": 43,
          "name": "G2",
          "ticks": 152640,
          "time": 251.05241400000003,
          "velocity": 0.5984251968503937
        },
        {
          "duration": 0.374999674999998,
          "durationTicks": 228,
          "midi": 38,
          "name": "D2",
          "ticks": 153360,
          "time": 252.23662350000004,
          "velocity": 0.5984251968503937
        },
        {
          "duration": 0.7894729999999868,
          "durationTicks": 480,
          "midi": 45,
          "name": "A2",
          "ticks": 153600,
          "time": 252.63136000000003,
          "velocity": 0.5826771653543307
        },
        {
          "duration": 0.19736824999998248,
          "durationTicks": 120,
          "midi": 45,
          "name": "A2",
          "ticks": 154320,
          "time": 253.81556950000004,
          "velocity": 0.5826771653543307
        },
        {
          "duration": 0.9868412499999977,
          "durationTicks": 600,
          "midi": 45,
          "name": "A2",
          "ticks": 154560,
          "time": 254.21030600000003,
          "velocity": 0.5984251968503937
        },
        {
          "duration": 0.35526284999997415,
          "durationTicks": 216,
          "midi": 45,
          "name": "A2",
          "ticks": 155280,
          "time": 255.39451550000004,
          "velocity": 0.5984251968503937
        }
      ]
    },
    {
      "channel": 0,
      "controlChanges": {},
      "pitchBends": [],
      "instrument": {
        "family": "piano",
        "name": "acoustic grand piano",
        "number": 0
      },
      "name": "",
      "notes": []
    },
    {
      "channel": 9,
      "controlChanges": {
        "10": [
          {
            "number": 10,
            "ticks": 7680,
            "time": 12.631568000000001,
            "value": 0.5039370078740157
          },
          {
            "number": 10,
            "ticks": 7680,
            "time": 12.631568000000001,
            "value": 0.5039370078740157
          },
          {
            "number": 10,
            "ticks": 14400,
            "time": 23.68419,
            "value": 0.5039370078740157
          },
          {
            "number": 10,
            "ticks": 14400,
            "time": 23.68419,
            "value": 0.5039370078740157
          },
          {
            "number": 10,
            "ticks": 15360,
            "time": 25.263136000000003,
            "value": 0.5039370078740157
          },
          {
            "number": 10,
            "ticks": 15360,
            "time": 25.263136000000003,
            "value": 0.5039370078740157
          },
          {
            "number": 10,
            "ticks": 23040,
            "time": 37.894704000000004,
            "value": 0.5039370078740157
          },
          {
            "number": 10,
            "ticks": 23040,
            "time": 37.894704000000004,
            "value": 0.5039370078740157
          },
          {
            "number": 10,
            "ticks": 29760,
            "time": 48.947326000000004,
            "value": 0.5039370078740157
          },
          {
            "number": 10,
            "ticks": 29760,
            "time": 48.947326000000004,
            "value": 0.5039370078740157
          },
          {
            "number": 10,
            "ticks": 30720,
            "time": 50.526272000000006,
            "value": 0.5039370078740157
          },
          {
            "number": 10,
            "ticks": 30720,
            "time": 50.526272000000006,
            "value": 0.5039370078740157
          },
          {
            "number": 10,
            "ticks": 38400,
            "time": 63.15784000000001,
            "value": 0.5039370078740157
          },
          {
            "number": 10,
            "ticks": 38400,
            "time": 63.15784000000001,
            "value": 0.5039370078740157
          },
          {
            "number": 10,
            "ticks": 45120,
            "time": 74.210462,
            "value": 0.5039370078740157
          },
          {
            "number": 10,
            "ticks": 45120,
            "time": 74.210462,
            "value": 0.5039370078740157
          },
          {
            "number": 10,
            "ticks": 46080,
            "time": 75.78940800000001,
            "value": 0.5039370078740157
          },
          {
            "number": 10,
            "ticks": 46080,
            "time": 75.78940800000001,
            "value": 0.5039370078740157
          },
          {
            "number": 10,
            "ticks": 53760,
            "time": 88.42097600000001,
            "value": 0.5039370078740157
          },
          {
            "number": 10,
            "ticks": 53760,
            "time": 88.42097600000001,
            "value": 0.5039370078740157
          },
          {
            "number": 10,
            "ticks": 60480,
            "time": 99.47359800000001,
            "value": 0.5039370078740157
          },
          {
            "number": 10,
            "ticks": 60480,
            "time": 99.47359800000001,
            "value": 0.5039370078740157
          },
          {
            "number": 10,
            "ticks": 61440,
            "time": 101.05254400000001,
            "value": 0.5039370078740157
          },
          {
            "number": 10,
            "ticks": 61440,
            "time": 101.05254400000001,
            "value": 0.5039370078740157
          },
          {
            "number": 10,
            "ticks": 68160,
            "time": 112.10516600000001,
            "value": 0.5039370078740157
          },
          {
            "number": 10,
            "ticks": 68160,
            "time": 112.10516600000001,
            "value": 0.5039370078740157
          },
          {
            "number": 10,
            "ticks": 69120,
            "time": 113.68411200000001,
            "value": 0.5039370078740157
          },
          {
            "number": 10,
            "ticks": 69120,
            "time": 113.68411200000001,
            "value": 0.5039370078740157
          },
          {
            "number": 10,
            "ticks": 75840,
            "time": 124.73673400000001,
            "value": 0.5039370078740157
          },
          {
            "number": 10,
            "ticks": 75840,
            "time": 124.73673400000001,
            "value": 0.5039370078740157
          },
          {
            "number": 10,
            "ticks": 76800,
            "time": 126.31568000000001,
            "value": 0.5039370078740157
          },
          {
            "number": 10,
            "ticks": 76800,
            "time": 126.31568000000001,
            "value": 0.5039370078740157
          },
          {
            "number": 10,
            "ticks": 84480,
            "time": 138.947248,
            "value": 0.5039370078740157
          },
          {
            "number": 10,
            "ticks": 84480,
            "time": 138.947248,
            "value": 0.5039370078740157
          },
          {
            "number": 10,
            "ticks": 91200,
            "time": 149.99987000000002,
            "value": 0.5039370078740157
          },
          {
            "number": 10,
            "ticks": 91200,
            "time": 149.99987000000002,
            "value": 0.5039370078740157
          },
          {
            "number": 10,
            "ticks": 92160,
            "time": 151.57881600000002,
            "value": 0.5039370078740157
          },
          {
            "number": 10,
            "ticks": 92160,
            "time": 151.57881600000002,
            "value": 0.5039370078740157
          },
          {
            "number": 10,
            "ticks": 99840,
            "time": 164.21038400000003,
            "value": 0.5039370078740157
          },
          {
            "number": 10,
            "ticks": 99840,
            "time": 164.21038400000003,
            "value": 0.5039370078740157
          },
          {
            "number": 10,
            "ticks": 106560,
            "time": 175.26300600000002,
            "value": 0.5039370078740157
          },
          {
            "number": 10,
            "ticks": 106560,
            "time": 175.26300600000002,
            "value": 0.5039370078740157
          },
          {
            "number": 10,
            "ticks": 107520,
            "time": 176.84195200000002,
            "value": 0.5039370078740157
          },
          {
            "number": 10,
            "ticks": 107520,
            "time": 176.84195200000002,
            "value": 0.5039370078740157
          },
          {
            "number": 10,
            "ticks": 117120,
            "time": 192.631412,
            "value": 0.5039370078740157
          },
          {
            "number": 10,
            "ticks": 123840,
            "time": 203.68403400000003,
            "value": 0.5039370078740157
          },
          {
            "number": 10,
            "ticks": 124800,
            "time": 205.26298000000003,
            "value": 0.5039370078740157
          },
          {
            "number": 10,
            "ticks": 124800,
            "time": 205.26298000000003,
            "value": 0.5039370078740157
          },
          {
            "number": 10,
            "ticks": 131520,
            "time": 216.315602,
            "value": 0.5039370078740157
          },
          {
            "number": 10,
            "ticks": 131520,
            "time": 216.315602,
            "value": 0.5039370078740157
          },
          {
            "number": 10,
            "ticks": 132480,
            "time": 217.89454800000001,
            "value": 0.5039370078740157
          },
          {
            "number": 10,
            "ticks": 132480,
            "time": 217.89454800000001,
            "value": 0.5039370078740157
          },
          {
            "number": 10,
            "ticks": 140160,
            "time": 230.52611600000003,
            "value": 0.5039370078740157
          },
          {
            "number": 10,
            "ticks": 140160,
            "time": 230.52611600000003,
            "value": 0.5039370078740157
          },
          {
            "number": 10,
            "ticks": 146880,
            "time": 241.57873800000002,
            "value": 0.5039370078740157
          },
          {
            "number": 10,
            "ticks": 146880,
            "time": 241.57873800000002,
            "value": 0.5039370078740157
          },
          {
            "number": 10,
            "ticks": 147840,
            "time": 243.15768400000002,
            "value": 0.5039370078740157
          },
          {
            "number": 10,
            "ticks": 147840,
            "time": 243.15768400000002,
            "value": 0.5039370078740157
          },
          {
            "number": 10,
            "ticks": 153600,
            "time": 252.63136000000003,
            "value": 0.5039370078740157
          },
          {
            "number": 10,
            "ticks": 153600,
            "time": 252.63136000000003,
            "value": 0.5039370078740157
          },
          {
            "number": 10,
            "ticks": 154560,
            "time": 254.21030600000003,
            "value": 0.5039370078740157
          },
          {
            "number": 10,
            "ticks": 154560,
            "time": 254.21030600000003,
            "value": 0.5039370078740157
          }
        ],
        "91": [
          {
            "number": 91,
            "ticks": 7680,
            "time": 12.631568000000001,
            "value": 0.6299212598425197
          },
          {
            "number": 91,
            "ticks": 7680,
            "time": 12.631568000000001,
            "value": 0.7874015748031497
          },
          {
            "number": 91,
            "ticks": 14400,
            "time": 23.68419,
            "value": 0.6299212598425197
          },
          {
            "number": 91,
            "ticks": 14400,
            "time": 23.68419,
            "value": 0.7874015748031497
          },
          {
            "number": 91,
            "ticks": 15360,
            "time": 25.263136000000003,
            "value": 0.6299212598425197
          },
          {
            "number": 91,
            "ticks": 15360,
            "time": 25.263136000000003,
            "value": 0.7874015748031497
          },
          {
            "number": 91,
            "ticks": 23040,
            "time": 37.894704000000004,
            "value": 0.6299212598425197
          },
          {
            "number": 91,
            "ticks": 23040,
            "time": 37.894704000000004,
            "value": 0.7874015748031497
          },
          {
            "number": 91,
            "ticks": 29760,
            "time": 48.947326000000004,
            "value": 0.6299212598425197
          },
          {
            "number": 91,
            "ticks": 29760,
            "time": 48.947326000000004,
            "value": 0.7874015748031497
          },
          {
            "number": 91,
            "ticks": 30720,
            "time": 50.526272000000006,
            "value": 0.6299212598425197
          },
          {
            "number": 91,
            "ticks": 30720,
            "time": 50.526272000000006,
            "value": 0.7874015748031497
          },
          {
            "number": 91,
            "ticks": 38400,
            "time": 63.15784000000001,
            "value": 0.6299212598425197
          },
          {
            "number": 91,
            "ticks": 38400,
            "time": 63.15784000000001,
            "value": 0.7874015748031497
          },
          {
            "number": 91,
            "ticks": 45120,
            "time": 74.210462,
            "value": 0.6299212598425197
          },
          {
            "number": 91,
            "ticks": 45120,
            "time": 74.210462,
            "value": 0.7874015748031497
          },
          {
            "number": 91,
            "ticks": 46080,
            "time": 75.78940800000001,
            "value": 0.6299212598425197
          },
          {
            "number": 91,
            "ticks": 46080,
            "time": 75.78940800000001,
            "value": 0.7874015748031497
          },
          {
            "number": 91,
            "ticks": 53760,
            "time": 88.42097600000001,
            "value": 0.6299212598425197
          },
          {
            "number": 91,
            "ticks": 53760,
            "time": 88.42097600000001,
            "value": 0.7874015748031497
          },
          {
            "number": 91,
            "ticks": 60480,
            "time": 99.47359800000001,
            "value": 0.6299212598425197
          },
          {
            "number": 91,
            "ticks": 60480,
            "time": 99.47359800000001,
            "value": 0.7874015748031497
          },
          {
            "number": 91,
            "ticks": 61440,
            "time": 101.05254400000001,
            "value": 0.6299212598425197
          },
          {
            "number": 91,
            "ticks": 61440,
            "time": 101.05254400000001,
            "value": 0.7874015748031497
          },
          {
            "number": 91,
            "ticks": 68160,
            "time": 112.10516600000001,
            "value": 0.6299212598425197
          },
          {
            "number": 91,
            "ticks": 68160,
            "time": 112.10516600000001,
            "value": 0.7874015748031497
          },
          {
            "number": 91,
            "ticks": 69120,
            "time": 113.68411200000001,
            "value": 0.6299212598425197
          },
          {
            "number": 91,
            "ticks": 69120,
            "time": 113.68411200000001,
            "value": 0.7874015748031497
          },
          {
            "number": 91,
            "ticks": 75840,
            "time": 124.73673400000001,
            "value": 0.6299212598425197
          },
          {
            "number": 91,
            "ticks": 75840,
            "time": 124.73673400000001,
            "value": 0.7874015748031497
          },
          {
            "number": 91,
            "ticks": 76800,
            "time": 126.31568000000001,
            "value": 0.6299212598425197
          },
          {
            "number": 91,
            "ticks": 76800,
            "time": 126.31568000000001,
            "value": 0.7874015748031497
          },
          {
            "number": 91,
            "ticks": 84480,
            "time": 138.947248,
            "value": 0.6299212598425197
          },
          {
            "number": 91,
            "ticks": 84480,
            "time": 138.947248,
            "value": 0.7874015748031497
          },
          {
            "number": 91,
            "ticks": 91200,
            "time": 149.99987000000002,
            "value": 0.6299212598425197
          },
          {
            "number": 91,
            "ticks": 91200,
            "time": 149.99987000000002,
            "value": 0.7874015748031497
          },
          {
            "number": 91,
            "ticks": 92160,
            "time": 151.57881600000002,
            "value": 0.6299212598425197
          },
          {
            "number": 91,
            "ticks": 92160,
            "time": 151.57881600000002,
            "value": 0.7874015748031497
          },
          {
            "number": 91,
            "ticks": 99840,
            "time": 164.21038400000003,
            "value": 0.6299212598425197
          },
          {
            "number": 91,
            "ticks": 99840,
            "time": 164.21038400000003,
            "value": 0.7874015748031497
          },
          {
            "number": 91,
            "ticks": 106560,
            "time": 175.26300600000002,
            "value": 0.6299212598425197
          },
          {
            "number": 91,
            "ticks": 106560,
            "time": 175.26300600000002,
            "value": 0.7874015748031497
          },
          {
            "number": 91,
            "ticks": 107520,
            "time": 176.84195200000002,
            "value": 0.6299212598425197
          },
          {
            "number": 91,
            "ticks": 107520,
            "time": 176.84195200000002,
            "value": 0.7874015748031497
          },
          {
            "number": 91,
            "ticks": 117120,
            "time": 192.631412,
            "value": 0.7874015748031497
          },
          {
            "number": 91,
            "ticks": 123840,
            "time": 203.68403400000003,
            "value": 0.7874015748031497
          },
          {
            "number": 91,
            "ticks": 124800,
            "time": 205.26298000000003,
            "value": 0.6299212598425197
          },
          {
            "number": 91,
            "ticks": 124800,
            "time": 205.26298000000003,
            "value": 0.7874015748031497
          },
          {
            "number": 91,
            "ticks": 131520,
            "time": 216.315602,
            "value": 0.6299212598425197
          },
          {
            "number": 91,
            "ticks": 131520,
            "time": 216.315602,
            "value": 0.7874015748031497
          },
          {
            "number": 91,
            "ticks": 132480,
            "time": 217.89454800000001,
            "value": 0.6299212598425197
          },
          {
            "number": 91,
            "ticks": 132480,
            "time": 217.89454800000001,
            "value": 0.7874015748031497
          },
          {
            "number": 91,
            "ticks": 140160,
            "time": 230.52611600000003,
            "value": 0.6299212598425197
          },
          {
            "number": 91,
            "ticks": 140160,
            "time": 230.52611600000003,
            "value": 0.7874015748031497
          },
          {
            "number": 91,
            "ticks": 146880,
            "time": 241.57873800000002,
            "value": 0.6299212598425197
          },
          {
            "number": 91,
            "ticks": 146880,
            "time": 241.57873800000002,
            "value": 0.7874015748031497
          },
          {
            "number": 91,
            "ticks": 147840,
            "time": 243.15768400000002,
            "value": 0.6299212598425197
          },
          {
            "number": 91,
            "ticks": 147840,
            "time": 243.15768400000002,
            "value": 0.7874015748031497
          },
          {
            "number": 91,
            "ticks": 153600,
            "time": 252.63136000000003,
            "value": 0.6299212598425197
          },
          {
            "number": 91,
            "ticks": 153600,
            "time": 252.63136000000003,
            "value": 0.7874015748031497
          },
          {
            "number": 91,
            "ticks": 154560,
            "time": 254.21030600000003,
            "value": 0.6299212598425197
          },
          {
            "number": 91,
            "ticks": 154560,
            "time": 254.21030600000003,
            "value": 0.7874015748031497
          }
        ],
        "93": [
          {
            "number": 93,
            "ticks": 7680,
            "time": 12.631568000000001,
            "value": 0.23622047244094488
          },
          {
            "number": 93,
            "ticks": 7680,
            "time": 12.631568000000001,
            "value": 0.6299212598425197
          },
          {
            "number": 93,
            "ticks": 14400,
            "time": 23.68419,
            "value": 0.23622047244094488
          },
          {
            "number": 93,
            "ticks": 14400,
            "time": 23.68419,
            "value": 0.6299212598425197
          },
          {
            "number": 93,
            "ticks": 15360,
            "time": 25.263136000000003,
            "value": 0.23622047244094488
          },
          {
            "number": 93,
            "ticks": 15360,
            "time": 25.263136000000003,
            "value": 0.6299212598425197
          },
          {
            "number": 93,
            "ticks": 23040,
            "time": 37.894704000000004,
            "value": 0.23622047244094488
          },
          {
            "number": 93,
            "ticks": 23040,
            "time": 37.894704000000004,
            "value": 0.6299212598425197
          },
          {
            "number": 93,
            "ticks": 29760,
            "time": 48.947326000000004,
            "value": 0.23622047244094488
          },
          {
            "number": 93,
            "ticks": 29760,
            "time": 48.947326000000004,
            "value": 0.6299212598425197
          },
          {
            "number": 93,
            "ticks": 30720,
            "time": 50.526272000000006,
            "value": 0.23622047244094488
          },
          {
            "number": 93,
            "ticks": 30720,
            "time": 50.526272000000006,
            "value": 0.6299212598425197
          },
          {
            "number": 93,
            "ticks": 38400,
            "time": 63.15784000000001,
            "value": 0.23622047244094488
          },
          {
            "number": 93,
            "ticks": 38400,
            "time": 63.15784000000001,
            "value": 0.6299212598425197
          },
          {
            "number": 93,
            "ticks": 45120,
            "time": 74.210462,
            "value": 0.23622047244094488
          },
          {
            "number": 93,
            "ticks": 45120,
            "time": 74.210462,
            "value": 0.6299212598425197
          },
          {
            "number": 93,
            "ticks": 46080,
            "time": 75.78940800000001,
            "value": 0.23622047244094488
          },
          {
            "number": 93,
            "ticks": 46080,
            "time": 75.78940800000001,
            "value": 0.6299212598425197
          },
          {
            "number": 93,
            "ticks": 53760,
            "time": 88.42097600000001,
            "value": 0.23622047244094488
          },
          {
            "number": 93,
            "ticks": 53760,
            "time": 88.42097600000001,
            "value": 0.6299212598425197
          },
          {
            "number": 93,
            "ticks": 60480,
            "time": 99.47359800000001,
            "value": 0.23622047244094488
          },
          {
            "number": 93,
            "ticks": 60480,
            "time": 99.47359800000001,
            "value": 0.6299212598425197
          },
          {
            "number": 93,
            "ticks": 61440,
            "time": 101.05254400000001,
            "value": 0.23622047244094488
          },
          {
            "number": 93,
            "ticks": 61440,
            "time": 101.05254400000001,
            "value": 0.6299212598425197
          },
          {
            "number": 93,
            "ticks": 68160,
            "time": 112.10516600000001,
            "value": 0.23622047244094488
          },
          {
            "number": 93,
            "ticks": 68160,
            "time": 112.10516600000001,
            "value": 0.6299212598425197
          },
          {
            "number": 93,
            "ticks": 69120,
            "time": 113.68411200000001,
            "value": 0.23622047244094488
          },
          {
            "number": 93,
            "ticks": 69120,
            "time": 113.68411200000001,
            "value": 0.6299212598425197
          },
          {
            "number": 93,
            "ticks": 75840,
            "time": 124.73673400000001,
            "value": 0.23622047244094488
          },
          {
            "number": 93,
            "ticks": 75840,
            "time": 124.73673400000001,
            "value": 0.6299212598425197
          },
          {
            "number": 93,
            "ticks": 76800,
            "time": 126.31568000000001,
            "value": 0.23622047244094488
          },
          {
            "number": 93,
            "ticks": 76800,
            "time": 126.31568000000001,
            "value": 0.6299212598425197
          },
          {
            "number": 93,
            "ticks": 84480,
            "time": 138.947248,
            "value": 0.23622047244094488
          },
          {
            "number": 93,
            "ticks": 84480,
            "time": 138.947248,
            "value": 0.6299212598425197
          },
          {
            "number": 93,
            "ticks": 91200,
            "time": 149.99987000000002,
            "value": 0.23622047244094488
          },
          {
            "number": 93,
            "ticks": 91200,
            "time": 149.99987000000002,
            "value": 0.6299212598425197
          },
          {
            "number": 93,
            "ticks": 92160,
            "time": 151.57881600000002,
            "value": 0.23622047244094488
          },
          {
            "number": 93,
            "ticks": 92160,
            "time": 151.57881600000002,
            "value": 0.6299212598425197
          },
          {
            "number": 93,
            "ticks": 99840,
            "time": 164.21038400000003,
            "value": 0.23622047244094488
          },
          {
            "number": 93,
            "ticks": 99840,
            "time": 164.21038400000003,
            "value": 0.6299212598425197
          },
          {
            "number": 93,
            "ticks": 106560,
            "time": 175.26300600000002,
            "value": 0.23622047244094488
          },
          {
            "number": 93,
            "ticks": 106560,
            "time": 175.26300600000002,
            "value": 0.6299212598425197
          },
          {
            "number": 93,
            "ticks": 107520,
            "time": 176.84195200000002,
            "value": 0.23622047244094488
          },
          {
            "number": 93,
            "ticks": 107520,
            "time": 176.84195200000002,
            "value": 0.6299212598425197
          },
          {
            "number": 93,
            "ticks": 117120,
            "time": 192.631412,
            "value": 0.6299212598425197
          },
          {
            "number": 93,
            "ticks": 123840,
            "time": 203.68403400000003,
            "value": 0.6299212598425197
          },
          {
            "number": 93,
            "ticks": 124800,
            "time": 205.26298000000003,
            "value": 0.23622047244094488
          },
          {
            "number": 93,
            "ticks": 124800,
            "time": 205.26298000000003,
            "value": 0.6299212598425197
          },
          {
            "number": 93,
            "ticks": 131520,
            "time": 216.315602,
            "value": 0.23622047244094488
          },
          {
            "number": 93,
            "ticks": 131520,
            "time": 216.315602,
            "value": 0.6299212598425197
          },
          {
            "number": 93,
            "ticks": 132480,
            "time": 217.89454800000001,
            "value": 0.23622047244094488
          },
          {
            "number": 93,
            "ticks": 132480,
            "time": 217.89454800000001,
            "value": 0.6299212598425197
          },
          {
            "number": 93,
            "ticks": 140160,
            "time": 230.52611600000003,
            "value": 0.23622047244094488
          },
          {
            "number": 93,
            "ticks": 140160,
            "time": 230.52611600000003,
            "value": 0.6299212598425197
          },
          {
            "number": 93,
            "ticks": 146880,
            "time": 241.57873800000002,
            "value": 0.23622047244094488
          },
          {
            "number": 93,
            "ticks": 146880,
            "time": 241.57873800000002,
            "value": 0.6299212598425197
          },
          {
            "number": 93,
            "ticks": 147840,
            "time": 243.15768400000002,
            "value": 0.23622047244094488
          },
          {
            "number": 93,
            "ticks": 147840,
            "time": 243.15768400000002,
            "value": 0.6299212598425197
          },
          {
            "number": 93,
            "ticks": 153600,
            "time": 252.63136000000003,
            "value": 0.23622047244094488
          },
          {
            "number": 93,
            "ticks": 153600,
            "time": 252.63136000000003,
            "value": 0.6299212598425197
          },
          {
            "number": 93,
            "ticks": 154560,
            "time": 254.21030600000003,
            "value": 0.23622047244094488
          },
          {
            "number": 93,
            "ticks": 154560,
            "time": 254.21030600000003,
            "value": 0.6299212598425197
          }
        ]
      },
      "pitchBends": [],
      "instrument": {
        "family": "drums",
        "name": "standard kit",
        "number": 0
      },
      "name": "",
      "notes": [
        {
          "duration": 0,
          "durationTicks": 0,
          "midi": 49,
          "name": "C#3",
          "ticks": 7680,
          "time": 12.631568000000001,
          "velocity": 0.3464566929133858
        },
        {
          "duration": 0,
          "durationTicks": 0,
          "midi": 36,
          "name": "C2",
          "ticks": 7680,
          "time": 12.631568000000001,
          "velocity": 0.5984251968503937
        },
        {
          "duration": 0,
          "durationTicks": 0,
          "midi": 51,
          "name": "D#3",
          "ticks": 7920,
          "time": 13.026304500000002,
          "velocity": 0.5039370078740157
        },
        {
          "duration": 0,
          "durationTicks": 0,
          "midi": 51,
          "name": "D#3",
          "ticks": 8160,
          "time": 13.421041000000002,
          "velocity": 0.5039370078740157
        },
        {
          "duration": 0,
          "durationTicks": 0,
          "midi": 38,
          "name": "D2",
          "ticks": 8160,
          "time": 13.421041000000002,
          "velocity": 0.5511811023622047
        },
        {
          "duration": 0,
          "durationTicks": 0,
          "midi": 51,
          "name": "D#3",
          "ticks": 8400,
          "time": 13.815777500000001,
          "velocity": 0.5039370078740157
        },
        {
          "duration": 0,
          "durationTicks": 0,
          "midi": 51,
          "name": "D#3",
          "ticks": 8640,
          "time": 14.210514000000002,
          "velocity": 0.44881889763779526
        },
        {
          "duration": 0,
          "durationTicks": 0,
          "midi": 36,
          "name": "C2",
          "ticks": 8640,
          "time": 14.210514000000002,
          "velocity": 0.5039370078740157
        },
        {
          "duration": 0,
          "durationTicks": 0,
          "midi": 51,
          "name": "D#3",
          "ticks": 8880,
          "time": 14.605250500000002,
          "velocity": 0.5039370078740157
        },
        {
          "duration": 0,
          "durationTicks": 0,
          "midi": 51,
          "name": "D#3",
          "ticks": 9120,
          "time": 14.999987,
          "velocity": 0.5511811023622047
        },
        {
          "duration": 0,
          "durationTicks": 0,
          "midi": 38,
          "name": "D2",
          "ticks": 9120,
          "time": 14.999987,
          "velocity": 0.5039370078740157
        },
        {
          "duration": 0,
          "durationTicks": 0,
          "midi": 51,
          "name": "D#3",
          "ticks": 9360,
          "time": 15.394723500000001,
          "velocity": 0.5511811023622047
        },
        {
          "duration": 0,
          "durationTicks": 0,
          "midi": 36,
          "name": "C2",
          "ticks": 9360,
          "time": 15.394723500000001,
          "velocity": 0.5039370078740157
        },
        {
          "duration": 0,
          "durationTicks": 0,
          "midi": 49,
          "name": "C#3",
          "ticks": 9600,
          "time": 15.789460000000002,
          "velocity": 0.3464566929133858
        },
        {
          "duration": 0,
          "durationTicks": 0,
          "midi": 36,
          "name": "C2",
          "ticks": 9600,
          "time": 15.789460000000002,
          "velocity": 0.5984251968503937
        },
        {
          "duration": 0,
          "durationTicks": 0,
          "midi": 51,
          "name": "D#3",
          "ticks": 9840,
          "time": 16.184196500000002,
          "velocity": 0.5039370078740157
        },
        {
          "duration": 0,
          "durationTicks": 0,
          "midi": 51,
          "name": "D#3",
          "ticks": 10080,
          "time": 16.578933000000003,
          "velocity": 0.44881889763779526
        },
        {
          "duration": 0,
          "durationTicks": 0,
          "midi": 38,
          "name": "D2",
          "ticks": 10080,
          "time": 16.578933000000003,
          "velocity": 0.5039370078740157
        },
        {
          "duration": 0,
          "durationTicks": 0,
          "midi": 51,
          "name": "D#3",
          "ticks": 10320,
          "time": 16.973669500000003,
          "velocity": 0.5039370078740157
        },
        {
          "duration": 0,
          "durationTicks": 0,
          "midi": 51,
          "name": "D#3",
          "ticks": 10560,
          "time": 17.368406,
          "velocity": 0.5039370078740157
        },
        {
          "duration": 0,
          "durationTicks": 0,
          "midi": 36,
          "name": "C2",
          "ticks": 10560,
          "time": 17.368406,
          "velocity": 0.5039370078740157
        },
        {
          "duration": 0,
          "durationTicks": 0,
          "midi": 51,
          "name": "D#3",
          "ticks": 10800,
          "time": 17.7631425,
          "velocity": 0.44881889763779526
        },
        {
          "duration": 0,
          "durationTicks": 0,
          "midi": 51,
          "name": "D#3",
          "ticks": 11040,
          "time": 18.157879,
          "velocity": 0.44881889763779526
        },
        {
          "duration": 0,
          "durationTicks": 0,
          "midi": 38,
          "name": "D2",
          "ticks": 11040,
          "time": 18.157879,
          "velocity": 0.5511811023622047
        },
        {
          "duration": 0,
          "durationTicks": 0,
          "midi": 51,
          "name": "D#3",
          "ticks": 11280,
          "time": 18.5526155,
          "velocity": 0.5511811023622047
        },
        {
          "duration": 0,
          "durationTicks": 0,
          "midi": 36,
          "name": "C2",
          "ticks": 11280,
          "time": 18.5526155,
          "velocity": 0.5511811023622047
        },
        {
          "duration": 0,
          "durationTicks": 0,
          "midi": 49,
          "name": "C#3",
          "ticks": 11520,
          "time": 18.947352000000002,
          "velocity": 0.4015748031496063
        },
        {
          "duration": 0,
          "durationTicks": 0,
          "midi": 36,
          "name": "C2",
          "ticks": 11520,
          "time": 18.947352000000002,
          "velocity": 0.5511811023622047
        },
        {
          "duration": 0,
          "durationTicks": 0,
          "midi": 51,
          "name": "D#3",
          "ticks": 11760,
          "time": 19.342088500000003,
          "velocity": 0.4015748031496063
        },
        {
          "duration": 0,
          "durationTicks": 0,
          "midi": 51,
          "name": "D#3",
          "ticks": 12000,
          "time": 19.736825000000003,
          "velocity": 0.4015748031496063
        },
        {
          "duration": 0,
          "durationTicks": 0,
          "midi": 38,
          "name": "D2",
          "ticks": 12000,
          "time": 19.736825000000003,
          "velocity": 0.5511811023622047
        },
        {
          "duration": 0,
          "durationTicks": 0,
          "midi": 51,
          "name": "D#3",
          "ticks": 12240,
          "time": 20.131561500000004,
          "velocity": 0.44881889763779526
        },
        {
          "duration": 0,
          "durationTicks": 0,
          "midi": 51,
          "name": "D#3",
          "ticks": 12480,
          "time": 20.526298000000004,
          "velocity": 0.4015748031496063
        },
        {
          "duration": 0,
          "durationTicks": 0,
          "midi": 36,
          "name": "C2",
          "ticks": 12480,
          "time": 20.526298000000004,
          "velocity": 0.5826771653543307
        },
        {
          "duration": 0,
          "durationTicks": 0,
          "midi": 51,
          "name": "D#3",
          "ticks": 12720,
          "time": 20.9210345,
          "velocity": 0.5039370078740157
        },
        {
          "duration": 0,
          "durationTicks": 0,
          "midi": 51,
          "name": "D#3",
          "ticks": 12960,
          "time": 21.315771,
          "velocity": 0.44881889763779526
        },
        {
          "duration": 0,
          "durationTicks": 0,
          "midi": 38,
          "name": "D2",
          "ticks": 12960,
          "time": 21.315771,
          "velocity": 0.5039370078740157
        },
        {
          "duration": 0,
          "durationTicks": 0,
          "midi": 51,
          "name": "D#3",
          "ticks": 13200,
          "time": 21.710507500000002,
          "velocity": 0.5039370078740157
        },
        {
          "duration": 0,
          "durationTicks": 0,
          "midi": 36,
          "name": "C2",
          "ticks": 13200,
          "time": 21.710507500000002,
          "velocity": 0.5354330708661418
        },
        {
          "duration": 0,
          "durationTicks": 0,
          "midi": 49,
          "name": "C#3",
          "ticks": 13440,
          "time": 22.105244000000003,
          "velocity": 0.4015748031496063
        },
        {
          "duration": 0,
          "durationTicks": 0,
          "midi": 36,
          "name": "C2",
          "ticks": 13440,
          "time": 22.105244000000003,
          "velocity": 0.5826771653543307
        },
        {
          "duration": 0,
          "durationTicks": 0,
          "midi": 51,
          "name": "D#3",
          "ticks": 13680,
          "time": 22.499980500000003,
          "velocity": 0.44881889763779526
        },
        {
          "duration": 0,
          "durationTicks": 0,
          "midi": 51,
          "name": "D#3",
          "ticks": 13920,
          "time": 22.894717000000004,
          "velocity": 0.44881889763779526
        },
        {
          "duration": 0,
          "durationTicks": 0,
          "midi": 38,
          "name": "D2",
          "ticks": 13920,
          "time": 22.894717000000004,
          "velocity": 0.5039370078740157
        },
        {
          "duration": 0,
          "durationTicks": 0,
          "midi": 51,
          "name": "D#3",
          "ticks": 14160,
          "time": 23.289453500000004,
          "velocity": 0.5039370078740157
        },
        {
          "duration": 0,
          "durationTicks": 0,
          "midi": 42,
          "name": "F#2",
          "ticks": 14400,
          "time": 23.68419,
          "velocity": 0.5354330708661418
        },
        {
          "duration": 0,
          "durationTicks": 0,
          "midi": 42,
          "name": "F#2",
          "ticks": 14640,
          "time": 24.0789265,
          "velocity": 0.47244094488188976
        },
        {
          "duration": 0,
          "durationTicks": 0,
          "midi": 42,
          "name": "F#2",
          "ticks": 14880,
          "time": 24.473663000000002,
          "velocity": 0.5354330708661418
        },
        {
          "duration": 0,
          "durationTicks": 0,
          "midi": 41,
          "name": "F2",
          "ticks": 14880,
          "time": 24.473663000000002,
          "velocity": 0.5511811023622047
        },
        {
          "duration": 0,
          "durationTicks": 0,
          "midi": 38,
          "name": "D2",
          "ticks": 14880,
          "time": 24.473663000000002,
          "velocity": 0.5039370078740157
        },
        {
          "duration": 0,
          "durationTicks": 0,
          "midi": 42,
          "name": "F#2",
          "ticks": 15120,
          "time": 24.868399500000002,
          "velocity": 0.5354330708661418
        },
        {
          "duration": 0,
          "durationTicks": 0,
          "midi": 42,
          "name": "F#2",
          "ticks": 15360,
          "time": 25.263136000000003,
          "velocity": 0.5354330708661418
        },
        {
          "duration": 0,
          "durationTicks": 0,
          "midi": 36,
          "name": "C2",
          "ticks": 15360,
          "time": 25.263136000000003,
          "velocity": 0.5984251968503937
        },
        {
          "duration": 0,
          "durationTicks": 0,
          "midi": 42,
          "name": "F#2",
          "ticks": 15600,
          "time": 25.657872500000003,
          "velocity": 0.47244094488188976
        },
        {
          "duration": 0,
          "durationTicks": 0,
          "midi": 42,
          "name": "F#2",
          "ticks": 15840,
          "time": 26.052609000000004,
          "velocity": 0.5354330708661418
        },
        {
          "duration": 0,
          "durationTicks": 0,
          "midi": 54,
          "name": "F#3",
          "ticks": 15840,
          "time": 26.052609000000004,
          "velocity": 0.5826771653543307
        },
        {
          "duration": 0,
          "durationTicks": 0,
          "midi": 37,
          "name": "C#2",
          "ticks": 15840,
          "time": 26.052609000000004,
          "velocity": 0.5354330708661418
        },
        {
          "duration": 0,
          "durationTicks": 0,
          "midi": 54,
          "name": "F#3",
          "ticks": 15960,
          "time": 26.249977250000004,
          "velocity": 0.3700787401574803
        },
        {
          "duration": 0,
          "durationTicks": 0,
          "midi": 42,
          "name": "F#2",
          "ticks": 16080,
          "time": 26.447345500000004,
          "velocity": 0.5354330708661418
        },
        {
          "duration": 0,
          "durationTicks": 0,
          "midi": 54,
          "name": "F#3",
          "ticks": 16080,
          "time": 26.447345500000004,
          "velocity": 0.25984251968503935
        },
        {
          "duration": 0,
          "durationTicks": 0,
          "midi": 54,
          "name": "F#3",
          "ticks": 16200,
          "time": 26.644713750000005,
          "velocity": 0.10236220472440945
        },
        {
          "duration": 0,
          "durationTicks": 0,
          "midi": 42,
          "name": "F#2",
          "ticks": 16320,
          "time": 26.842082000000005,
          "velocity": 0.5354330708661418
        },
        {
          "duration": 0,
          "durationTicks": 0,
          "midi": 36,
          "name": "C2",
          "ticks": 16320,
          "time": 26.842082000000005,
          "velocity": 0.5039370078740157
        },
        {
          "duration": 0,
          "durationTicks": 0,
          "midi": 42,
          "name": "F#2",
          "ticks": 16560,
          "time": 27.236818500000002,
          "velocity": 0.5354330708661418
        },
        {
          "duration": 0,
          "durationTicks": 0,
          "midi": 42,
          "name": "F#2",
          "ticks": 16800,
          "time": 27.631555000000002,
          "velocity": 0.5826771653543307
        },
        {
          "duration": 0,
          "durationTicks": 0,
          "midi": 37,
          "name": "C#2",
          "ticks": 16800,
          "time": 27.631555000000002,
          "velocity": 0.5354330708661418
        },
        {
          "duration": 0,
          "durationTicks": 0,
          "midi": 42,
          "name": "F#2",
          "ticks": 17040,
          "time": 28.026291500000003,
          "velocity": 0.5354330708661418
        },
        {
          "duration": 0,
          "durationTicks": 0,
          "midi": 36,
          "name": "C2",
          "ticks": 17040,
          "time": 28.026291500000003,
          "velocity": 0.5039370078740157
        },
        {
          "duration": 0,
          "durationTicks": 0,
          "midi": 42,
          "name": "F#2",
          "ticks": 17280,
          "time": 28.421028000000003,
          "velocity": 0.5354330708661418
        },
        {
          "duration": 0,
          "durationTicks": 0,
          "midi": 36,
          "name": "C2",
          "ticks": 17280,
          "time": 28.421028000000003,
          "velocity": 0.5984251968503937
        },
        {
          "duration": 0,
          "durationTicks": 0,
          "midi": 42,
          "name": "F#2",
          "ticks": 17520,
          "time": 28.815764500000004,
          "velocity": 0.47244094488188976
        },
        {
          "duration": 0,
          "durationTicks": 0,
          "midi": 42,
          "name": "F#2",
          "ticks": 17760,
          "time": 29.210501000000004,
          "velocity": 0.5354330708661418
        },
        {
          "duration": 0,
          "durationTicks": 0,
          "midi": 54,
          "name": "F#3",
          "ticks": 17760,
          "time": 29.210501000000004,
          "velocity": 0.5826771653543307
        },
        {
          "duration": 0,
          "durationTicks": 0,
          "midi": 37,
          "name": "C#2",
          "ticks": 17760,
          "time": 29.210501000000004,
          "velocity": 0.47244094488188976
        },
        {
          "duration": 0,
          "durationTicks": 0,
          "midi": 54,
          "name": "F#3",
          "ticks": 17880,
          "time": 29.407869250000005,
          "velocity": 0.3700787401574803
        },
        {
          "duration": 0,
          "durationTicks": 0,
          "midi": 42,
          "name": "F#2",
          "ticks": 18000,
          "time": 29.605237500000005,
          "velocity": 0.5354330708661418
        },
        {
          "duration": 0,
          "durationTicks": 0,
          "midi": 54,
          "name": "F#3",
          "ticks": 18000,
          "time": 29.605237500000005,
          "velocity": 0.25984251968503935
        },
        {
          "duration": 0,
          "durationTicks": 0,
          "midi": 54,
          "name": "F#3",
          "ticks": 18120,
          "time": 29.802605750000005,
          "velocity": 0.10236220472440945
        },
        {
          "duration": 0,
          "durationTicks": 0,
          "midi": 42,
          "name": "F#2",
          "ticks": 18240,
          "time": 29.999974,
          "velocity": 0.5354330708661418
        },
        {
          "duration": 0,
          "durationTicks": 0,
          "midi": 36,
          "name": "C2",
          "ticks": 18240,
          "time": 29.999974,
          "velocity": 0.5039370078740157
        },
        {
          "duration": 0,
          "durationTicks": 0,
          "midi": 42,
          "name": "F#2",
          "ticks": 18480,
          "time": 30.394710500000002,
          "velocity": 0.5354330708661418
        },
        {
          "duration": 0,
          "durationTicks": 0,
          "midi": 42,
          "name": "F#2",
          "ticks": 18720,
          "time": 30.789447000000003,
          "velocity": 0.5826771653543307
        },
        {
          "duration": 0,
          "durationTicks": 0,
          "midi": 37,
          "name": "C#2",
          "ticks": 18720,
          "time": 30.789447000000003,
          "velocity": 0.47244094488188976
        },
        {
          "duration": 0,
          "durationTicks": 0,
          "midi": 46,
          "name": "A#2",
          "ticks": 18960,
          "time": 31.184183500000003,
          "velocity": 0.5354330708661418
        },
        {
          "duration": 0,
          "durationTicks": 0,
          "midi": 36,
          "name": "C2",
          "ticks": 18960,
          "time": 31.184183500000003,
          "velocity": 0.5511811023622047
        },
        {
          "duration": 0,
          "durationTicks": 0,
          "midi": 42,
          "name": "F#2",
          "ticks": 19200,
          "time": 31.578920000000004,
          "velocity": 0.5354330708661418
        },
        {
          "duration": 0,
          "durationTicks": 0,
          "midi": 36,
          "name": "C2",
          "ticks": 19200,
          "time": 31.578920000000004,
          "velocity": 0.5511811023622047
        },
        {
          "duration": 0,
          "durationTicks": 0,
          "midi": 42,
          "name": "F#2",
          "ticks": 19440,
          "time": 31.973656500000004,
          "velocity": 0.47244094488188976
        },
        {
          "duration": 0,
          "durationTicks": 0,
          "midi": 42,
          "name": "F#2",
          "ticks": 19680,
          "time": 32.368393000000005,
          "velocity": 0.5354330708661418
        },
        {
          "duration": 0,
          "durationTicks": 0,
          "midi": 54,
          "name": "F#3",
          "ticks": 19680,
          "time": 32.368393000000005,
          "velocity": 0.5826771653543307
        },
        {
          "duration": 0,
          "durationTicks": 0,
          "midi": 37,
          "name": "C#2",
          "ticks": 19680,
          "time": 32.368393000000005,
          "velocity": 0.5354330708661418
        },
        {
          "duration": 0,
          "durationTicks": 0,
          "midi": 54,
          "name": "F#3",
          "ticks": 19800,
          "time": 32.56576125,
          "velocity": 0.3700787401574803
        },
        {
          "duration": 0,
          "durationTicks": 0,
          "midi": 42,
          "name": "F#2",
          "ticks": 19920,
          "time": 32.763129500000005,
          "velocity": 0.5354330708661418
        },
        {
          "duration": 0,
          "durationTicks": 0,
          "midi": 54,
          "name": "F#3",
          "ticks": 19920,
          "time": 32.763129500000005,
          "velocity": 0.25984251968503935
        },
        {
          "duration": 0,
          "durationTicks": 0,
          "midi": 54,
          "name": "F#3",
          "ticks": 20040,
          "time": 32.96049775,
          "velocity": 0.10236220472440945
        },
        {
          "duration": 0,
          "durationTicks": 0,
          "midi": 42,
          "name": "F#2",
          "ticks": 20160,
          "time": 33.157866000000006,
          "velocity": 0.5354330708661418
        },
        {
          "duration": 0,
          "durationTicks": 0,
          "midi": 36,
          "name": "C2",
          "ticks": 20160,
          "time": 33.157866000000006,
          "velocity": 0.5826771653543307
        },
        {
          "duration": 0,
          "durationTicks": 0,
          "midi": 42,
          "name": "F#2",
          "ticks": 20400,
          "time": 33.552602500000006,
          "velocity": 0.5354330708661418
        },
        {
          "duration": 0,
          "durationTicks": 0,
          "midi": 42,
          "name": "F#2",
          "ticks": 20640,
          "time": 33.94733900000001,
          "velocity": 0.5826771653543307
        },
        {
          "duration": 0,
          "durationTicks": 0,
          "midi": 37,
          "name": "C#2",
          "ticks": 20640,
          "time": 33.94733900000001,
          "velocity": 0.4251968503937008
        },
        {
          "duration": 0,
          "durationTicks": 0,
          "midi": 42,
          "name": "F#2",
          "ticks": 20880,
          "time": 34.34207550000001,
          "velocity": 0.5354330708661418
        },
        {
          "duration": 0,
          "durationTicks": 0,
          "midi": 36,
          "name": "C2",
          "ticks": 20880,
          "time": 34.34207550000001,
          "velocity": 0.5354330708661418
        },
        {
          "duration": 0,
          "durationTicks": 0,
          "midi": 42,
          "name": "F#2",
          "ticks": 21120,
          "time": 34.736812,
          "velocity": 0.5354330708661418
        },
        {
          "duration": 0,
          "durationTicks": 0,
          "midi": 36,
          "name": "C2",
          "ticks": 21120,
          "time": 34.736812,
          "velocity": 0.5826771653543307
        },
        {
          "duration": 0,
          "durationTicks": 0,
          "midi": 42,
          "name": "F#2",
          "ticks": 21360,
          "time": 35.1315485,
          "velocity": 0.47244094488188976
        },
        {
          "duration": 0,
          "durationTicks": 0,
          "midi": 42,
          "name": "F#2",
          "ticks": 21600,
          "time": 35.526285,
          "velocity": 0.5354330708661418
        },
        {
          "duration": 0,
          "durationTicks": 0,
          "midi": 54,
          "name": "F#3",
          "ticks": 21600,
          "time": 35.526285,
          "velocity": 0.5826771653543307
        },
        {
          "duration": 0,
          "durationTicks": 0,
          "midi": 37,
          "name": "C#2",
          "ticks": 21600,
          "time": 35.526285,
          "velocity": 0.5354330708661418
        },
        {
          "duration": 0,
          "durationTicks": 0,
          "midi": 54,
          "name": "F#3",
          "ticks": 21720,
          "time": 35.723653250000005,
          "velocity": 0.3700787401574803
        },
        {
          "duration": 0,
          "durationTicks": 0,
          "midi": 42,
          "name": "F#2",
          "ticks": 21840,
          "time": 35.9210215,
          "velocity": 0.5354330708661418
        },
        {
          "duration": 0,
          "durationTicks": 0,
          "midi": 54,
          "name": "F#3",
          "ticks": 21840,
          "time": 35.9210215,
          "velocity": 0.25984251968503935
        },
        {
          "duration": 0,
          "durationTicks": 0,
          "midi": 54,
          "name": "F#3",
          "ticks": 21960,
          "time": 36.118389750000006,
          "velocity": 0.10236220472440945
        },
        {
          "duration": 0,
          "durationTicks": 0,
          "midi": 42,
          "name": "F#2",
          "ticks": 22080,
          "time": 36.315758,
          "velocity": 0.5354330708661418
        },
        {
          "duration": 0,
          "durationTicks": 0,
          "midi": 36,
          "name": "C2",
          "ticks": 22080,
          "time": 36.315758,
          "velocity": 0.5826771653543307
        },
        {
          "duration": 0,
          "durationTicks": 0,
          "midi": 42,
          "name": "F#2",
          "ticks": 22320,
          "time": 36.7104945,
          "velocity": 0.5354330708661418
        },
        {
          "duration": 0,
          "durationTicks": 0,
          "midi": 42,
          "name": "F#2",
          "ticks": 22560,
          "time": 37.105231,
          "velocity": 0.5826771653543307
        },
        {
          "duration": 0,
          "durationTicks": 0,
          "midi": 37,
          "name": "C#2",
          "ticks": 22560,
          "time": 37.105231,
          "velocity": 0.5354330708661418
        },
        {
          "duration": 0,
          "durationTicks": 0,
          "midi": 46,
          "name": "A#2",
          "ticks": 22800,
          "time": 37.499967500000004,
          "velocity": 0.5354330708661418
        },
        {
          "duration": 0,
          "durationTicks": 0,
          "midi": 36,
          "name": "C2",
          "ticks": 22800,
          "time": 37.499967500000004,
          "velocity": 0.5826771653543307
        },
        {
          "duration": 0,
          "durationTicks": 0,
          "midi": 42,
          "name": "F#2",
          "ticks": 23040,
          "time": 37.894704000000004,
          "velocity": 0.5354330708661418
        },
        {
          "duration": 0,
          "durationTicks": 0,
          "midi": 36,
          "name": "C2",
          "ticks": 23040,
          "time": 37.894704000000004,
          "velocity": 0.5984251968503937
        },
        {
          "duration": 0,
          "durationTicks": 0,
          "midi": 42,
          "name": "F#2",
          "ticks": 23280,
          "time": 38.289440500000005,
          "velocity": 0.47244094488188976
        },
        {
          "duration": 0,
          "durationTicks": 0,
          "midi": 42,
          "name": "F#2",
          "ticks": 23520,
          "time": 38.684177000000005,
          "velocity": 0.5354330708661418
        },
        {
          "duration": 0,
          "durationTicks": 0,
          "midi": 54,
          "name": "F#3",
          "ticks": 23520,
          "time": 38.684177000000005,
          "velocity": 0.5826771653543307
        },
        {
          "duration": 0,
          "durationTicks": 0,
          "midi": 37,
          "name": "C#2",
          "ticks": 23520,
          "time": 38.684177000000005,
          "velocity": 0.5354330708661418
        },
        {
          "duration": 0,
          "durationTicks": 0,
          "midi": 54,
          "name": "F#3",
          "ticks": 23640,
          "time": 38.88154525,
          "velocity": 0.3700787401574803
        },
        {
          "duration": 0,
          "durationTicks": 0,
          "midi": 42,
          "name": "F#2",
          "ticks": 23760,
          "time": 39.078913500000006,
          "velocity": 0.5354330708661418
        },
        {
          "duration": 0,
          "durationTicks": 0,
          "midi": 54,
          "name": "F#3",
          "ticks": 23760,
          "time": 39.078913500000006,
          "velocity": 0.25984251968503935
        },
        {
          "duration": 0,
          "durationTicks": 0,
          "midi": 54,
          "name": "F#3",
          "ticks": 23880,
          "time": 39.27628175,
          "velocity": 0.10236220472440945
        },
        {
          "duration": 0,
          "durationTicks": 0,
          "midi": 42,
          "name": "F#2",
          "ticks": 24000,
          "time": 39.473650000000006,
          "velocity": 0.5354330708661418
        },
        {
          "duration": 0,
          "durationTicks": 0,
          "midi": 36,
          "name": "C2",
          "ticks": 24000,
          "time": 39.473650000000006,
          "velocity": 0.5039370078740157
        },
        {
          "duration": 0,
          "durationTicks": 0,
          "midi": 42,
          "name": "F#2",
          "ticks": 24240,
          "time": 39.86838650000001,
          "velocity": 0.5354330708661418
        },
        {
          "duration": 0,
          "durationTicks": 0,
          "midi": 42,
          "name": "F#2",
          "ticks": 24480,
          "time": 40.26312300000001,
          "velocity": 0.5826771653543307
        },
        {
          "duration": 0,
          "durationTicks": 0,
          "midi": 37,
          "name": "C#2",
          "ticks": 24480,
          "time": 40.26312300000001,
          "velocity": 0.5354330708661418
        },
        {
          "duration": 0,
          "durationTicks": 0,
          "midi": 42,
          "name": "F#2",
          "ticks": 24720,
          "time": 40.65785950000001,
          "velocity": 0.5354330708661418
        },
        {
          "duration": 0,
          "durationTicks": 0,
          "midi": 36,
          "name": "C2",
          "ticks": 24720,
          "time": 40.65785950000001,
          "velocity": 0.5039370078740157
        },
        {
          "duration": 0,
          "durationTicks": 0,
          "midi": 42,
          "name": "F#2",
          "ticks": 24960,
          "time": 41.05259600000001,
          "velocity": 0.5354330708661418
        },
        {
          "duration": 0,
          "durationTicks": 0,
          "midi": 36,
          "name": "C2",
          "ticks": 24960,
          "time": 41.05259600000001,
          "velocity": 0.5984251968503937
        },
        {
          "duration": 0,
          "durationTicks": 0,
          "midi": 42,
          "name": "F#2",
          "ticks": 25200,
          "time": 41.4473325,
          "velocity": 0.47244094488188976
        },
        {
          "duration": 0,
          "durationTicks": 0,
          "midi": 42,
          "name": "F#2",
          "ticks": 25440,
          "time": 41.842069,
          "velocity": 0.5354330708661418
        },
        {
          "duration": 0,
          "durationTicks": 0,
          "midi": 54,
          "name": "F#3",
          "ticks": 25440,
          "time": 41.842069,
          "velocity": 0.5826771653543307
        },
        {
          "duration": 0,
          "durationTicks": 0,
          "midi": 37,
          "name": "C#2",
          "ticks": 25440,
          "time": 41.842069,
          "velocity": 0.47244094488188976
        },
        {
          "duration": 0,
          "durationTicks": 0,
          "midi": 54,
          "name": "F#3",
          "ticks": 25560,
          "time": 42.039437250000006,
          "velocity": 0.3700787401574803
        },
        {
          "duration": 0,
          "durationTicks": 0,
          "midi": 42,
          "name": "F#2",
          "ticks": 25680,
          "time": 42.2368055,
          "velocity": 0.5354330708661418
        },
        {
          "duration": 0,
          "durationTicks": 0,
          "midi": 54,
          "name": "F#3",
          "ticks": 25680,
          "time": 42.2368055,
          "velocity": 0.25984251968503935
        },
        {
          "duration": 0,
          "durationTicks": 0,
          "midi": 54,
          "name": "F#3",
          "ticks": 25800,
          "time": 42.43417375000001,
          "velocity": 0.10236220472440945
        },
        {
          "duration": 0,
          "durationTicks": 0,
          "midi": 42,
          "name": "F#2",
          "ticks": 25920,
          "time": 42.631542,
          "velocity": 0.5354330708661418
        },
        {
          "duration": 0,
          "durationTicks": 0,
          "midi": 36,
          "name": "C2",
          "ticks": 25920,
          "time": 42.631542,
          "velocity": 0.5039370078740157
        },
        {
          "duration": 0,
          "durationTicks": 0,
          "midi": 42,
          "name": "F#2",
          "ticks": 26160,
          "time": 43.026278500000004,
          "velocity": 0.5354330708661418
        },
        {
          "duration": 0,
          "durationTicks": 0,
          "midi": 42,
          "name": "F#2",
          "ticks": 26400,
          "time": 43.421015000000004,
          "velocity": 0.5826771653543307
        },
        {
          "duration": 0,
          "durationTicks": 0,
          "midi": 37,
          "name": "C#2",
          "ticks": 26400,
          "time": 43.421015000000004,
          "velocity": 0.47244094488188976
        },
        {
          "duration": 0,
          "durationTicks": 0,
          "midi": 46,
          "name": "A#2",
          "ticks": 26640,
          "time": 43.815751500000005,
          "velocity": 0.5354330708661418
        },
        {
          "duration": 0,
          "durationTicks": 0,
          "midi": 36,
          "name": "C2",
          "ticks": 26640,
          "time": 43.815751500000005,
          "velocity": 0.5511811023622047
        },
        {
          "duration": 0,
          "durationTicks": 0,
          "midi": 42,
          "name": "F#2",
          "ticks": 26880,
          "time": 44.210488000000005,
          "velocity": 0.5354330708661418
        },
        {
          "duration": 0,
          "durationTicks": 0,
          "midi": 36,
          "name": "C2",
          "ticks": 26880,
          "time": 44.210488000000005,
          "velocity": 0.5511811023622047
        },
        {
          "duration": 0,
          "durationTicks": 0,
          "midi": 42,
          "name": "F#2",
          "ticks": 27120,
          "time": 44.605224500000006,
          "velocity": 0.47244094488188976
        },
        {
          "duration": 0,
          "durationTicks": 0,
          "midi": 42,
          "name": "F#2",
          "ticks": 27360,
          "time": 44.999961000000006,
          "velocity": 0.5354330708661418
        },
        {
          "duration": 0,
          "durationTicks": 0,
          "midi": 54,
          "name": "F#3",
          "ticks": 27360,
          "time": 44.999961000000006,
          "velocity": 0.5826771653543307
        },
        {
          "duration": 0,
          "durationTicks": 0,
          "midi": 37,
          "name": "C#2",
          "ticks": 27360,
          "time": 44.999961000000006,
          "velocity": 0.5354330708661418
        },
        {
          "duration": 0,
          "durationTicks": 0,
          "midi": 54,
          "name": "F#3",
          "ticks": 27480,
          "time": 45.19732925,
          "velocity": 0.3700787401574803
        },
        {
          "duration": 0,
          "durationTicks": 0,
          "midi": 42,
          "name": "F#2",
          "ticks": 27600,
          "time": 45.39469750000001,
          "velocity": 0.5354330708661418
        },
        {
          "duration": 0,
          "durationTicks": 0,
          "midi": 54,
          "name": "F#3",
          "ticks": 27600,
          "time": 45.39469750000001,
          "velocity": 0.25984251968503935
        },
        {
          "duration": 0,
          "durationTicks": 0,
          "midi": 54,
          "name": "F#3",
          "ticks": 27720,
          "time": 45.59206575,
          "velocity": 0.10236220472440945
        },
        {
          "duration": 0,
          "durationTicks": 0,
          "midi": 42,
          "name": "F#2",
          "ticks": 27840,
          "time": 45.78943400000001,
          "velocity": 0.5354330708661418
        },
        {
          "duration": 0,
          "durationTicks": 0,
          "midi": 36,
          "name": "C2",
          "ticks": 27840,
          "time": 45.78943400000001,
          "velocity": 0.5826771653543307
        },
        {
          "duration": 0,
          "durationTicks": 0,
          "midi": 42,
          "name": "F#2",
          "ticks": 28080,
          "time": 46.18417050000001,
          "velocity": 0.5354330708661418
        },
        {
          "duration": 0,
          "durationTicks": 0,
          "midi": 42,
          "name": "F#2",
          "ticks": 28320,
          "time": 46.57890700000001,
          "velocity": 0.5826771653543307
        },
        {
          "duration": 0,
          "durationTicks": 0,
          "midi": 37,
          "name": "C#2",
          "ticks": 28320,
          "time": 46.57890700000001,
          "velocity": 0.4251968503937008
        },
        {
          "duration": 0,
          "durationTicks": 0,
          "midi": 42,
          "name": "F#2",
          "ticks": 28560,
          "time": 46.97364350000001,
          "velocity": 0.5354330708661418
        },
        {
          "duration": 0,
          "durationTicks": 0,
          "midi": 36,
          "name": "C2",
          "ticks": 28560,
          "time": 46.97364350000001,
          "velocity": 0.5354330708661418
        },
        {
          "duration": 0,
          "durationTicks": 0,
          "midi": 42,
          "name": "F#2",
          "ticks": 28800,
          "time": 47.36838,
          "velocity": 0.5354330708661418
        },
        {
          "duration": 0,
          "durationTicks": 0,
          "midi": 36,
          "name": "C2",
          "ticks": 28800,
          "time": 47.36838,
          "velocity": 0.5826771653543307
        },
        {
          "duration": 0,
          "durationTicks": 0,
          "midi": 42,
          "name": "F#2",
          "ticks": 29040,
          "time": 47.7631165,
          "velocity": 0.47244094488188976
        },
        {
          "duration": 0,
          "durationTicks": 0,
          "midi": 42,
          "name": "F#2",
          "ticks": 29280,
          "time": 48.157853,
          "velocity": 0.5354330708661418
        },
        {
          "duration": 0,
          "durationTicks": 0,
          "midi": 54,
          "name": "F#3",
          "ticks": 29280,
          "time": 48.157853,
          "velocity": 0.5826771653543307
        },
        {
          "duration": 0,
          "durationTicks": 0,
          "midi": 37,
          "name": "C#2",
          "ticks": 29280,
          "time": 48.157853,
          "velocity": 0.5354330708661418
        },
        {
          "duration": 0,
          "durationTicks": 0,
          "midi": 54,
          "name": "F#3",
          "ticks": 29400,
          "time": 48.35522125000001,
          "velocity": 0.3700787401574803
        },
        {
          "duration": 0,
          "durationTicks": 0,
          "midi": 42,
          "name": "F#2",
          "ticks": 29520,
          "time": 48.5525895,
          "velocity": 0.5354330708661418
        },
        {
          "duration": 0,
          "durationTicks": 0,
          "midi": 54,
          "name": "F#3",
          "ticks": 29520,
          "time": 48.5525895,
          "velocity": 0.25984251968503935
        },
        {
          "duration": 0,
          "durationTicks": 0,
          "midi": 54,
          "name": "F#3",
          "ticks": 29640,
          "time": 48.74995775000001,
          "velocity": 0.10236220472440945
        },
        {
          "duration": 0,
          "durationTicks": 0,
          "midi": 36,
          "name": "C2",
          "ticks": 29760,
          "time": 48.947326000000004,
          "velocity": 0.5826771653543307
        },
        {
          "duration": 0,
          "durationTicks": 0,
          "midi": 42,
          "name": "F#2",
          "ticks": 29760,
          "time": 48.947326000000004,
          "velocity": 0.5354330708661418
        },
        {
          "duration": 0,
          "durationTicks": 0,
          "midi": 42,
          "name": "F#2",
          "ticks": 30000,
          "time": 49.342062500000004,
          "velocity": 0.47244094488188976
        },
        {
          "duration": 0,
          "durationTicks": 0,
          "midi": 42,
          "name": "F#2",
          "ticks": 30240,
          "time": 49.736799000000005,
          "velocity": 0.5354330708661418
        },
        {
          "duration": 0,
          "durationTicks": 0,
          "midi": 54,
          "name": "F#3",
          "ticks": 30240,
          "time": 49.736799000000005,
          "velocity": 0.5826771653543307
        },
        {
          "duration": 0,
          "durationTicks": 0,
          "midi": 37,
          "name": "C#2",
          "ticks": 30240,
          "time": 49.736799000000005,
          "velocity": 0.5354330708661418
        },
        {
          "duration": 0,
          "durationTicks": 0,
          "midi": 54,
          "name": "F#3",
          "ticks": 30360,
          "time": 49.93416725000001,
          "velocity": 0.3700787401574803
        },
        {
          "duration": 0,
          "durationTicks": 0,
          "midi": 42,
          "name": "F#2",
          "ticks": 30480,
          "time": 50.131535500000005,
          "velocity": 0.5354330708661418
        },
        {
          "duration": 0,
          "durationTicks": 0,
          "midi": 54,
          "name": "F#3",
          "ticks": 30480,
          "time": 50.131535500000005,
          "velocity": 0.25984251968503935
        },
        {
          "duration": 0,
          "durationTicks": 0,
          "midi": 64,
          "name": "E4",
          "ticks": 30480,
          "time": 50.131535500000005,
          "velocity": 0.6299212598425197
        },
        {
          "duration": 0,
          "durationTicks": 0,
          "midi": 54,
          "name": "F#3",
          "ticks": 30600,
          "time": 50.32890375000001,
          "velocity": 0.10236220472440945
        },
        {
          "duration": 0,
          "durationTicks": 0,
          "midi": 42,
          "name": "F#2",
          "ticks": 30720,
          "time": 50.526272000000006,
          "velocity": 0.5354330708661418
        },
        {
          "duration": 0,
          "durationTicks": 0,
          "midi": 36,
          "name": "C2",
          "ticks": 30720,
          "time": 50.526272000000006,
          "velocity": 0.5984251968503937
        },
        {
          "duration": 0,
          "durationTicks": 0,
          "midi": 42,
          "name": "F#2",
          "ticks": 30960,
          "time": 50.921008500000006,
          "velocity": 0.47244094488188976
        },
        {
          "duration": 0,
          "durationTicks": 0,
          "midi": 51,
          "name": "D#3",
          "ticks": 30960,
          "time": 50.921008500000006,
          "velocity": 0.5354330708661418
        },
        {
          "duration": 0,
          "durationTicks": 0,
          "midi": 42,
          "name": "F#2",
          "ticks": 31200,
          "time": 51.31574500000001,
          "velocity": 0.5354330708661418
        },
        {
          "duration": 0,
          "durationTicks": 0,
          "midi": 51,
          "name": "D#3",
          "ticks": 31200,
          "time": 51.31574500000001,
          "velocity": 0.47244094488188976
        },
        {
          "duration": 0,
          "durationTicks": 0,
          "midi": 41,
          "name": "F2",
          "ticks": 31200,
          "time": 51.31574500000001,
          "velocity": 0.5511811023622047
        },
        {
          "duration": 0,
          "durationTicks": 0,
          "midi": 38,
          "name": "D2",
          "ticks": 31200,
          "time": 51.31574500000001,
          "velocity": 0.5511811023622047
        },
        {
          "duration": 0,
          "durationTicks": 0,
          "midi": 42,
          "name": "F#2",
          "ticks": 31440,
          "time": 51.71048150000001,
          "velocity": 0.5354330708661418
        },
        {
          "duration": 0,
          "durationTicks": 0,
          "midi": 51,
          "name": "D#3",
          "ticks": 31440,
          "time": 51.71048150000001,
          "velocity": 0.5354330708661418
        },
        {
          "duration": 0,
          "durationTicks": 0,
          "midi": 42,
          "name": "F#2",
          "ticks": 31680,
          "time": 52.10521800000001,
          "velocity": 0.5354330708661418
        },
        {
          "duration": 0,
          "durationTicks": 0,
          "midi": 51,
          "name": "D#3",
          "ticks": 31680,
          "time": 52.10521800000001,
          "velocity": 0.5354330708661418
        },
        {
          "duration": 0,
          "durationTicks": 0,
          "midi": 36,
          "name": "C2",
          "ticks": 31680,
          "time": 52.10521800000001,
          "velocity": 0.5039370078740157
        },
        {
          "duration": 0,
          "durationTicks": 0,
          "midi": 42,
          "name": "F#2",
          "ticks": 31920,
          "time": 52.49995450000001,
          "velocity": 0.5354330708661418
        },
        {
          "duration": 0,
          "durationTicks": 0,
          "midi": 51,
          "name": "D#3",
          "ticks": 31920,
          "time": 52.49995450000001,
          "velocity": 0.5354330708661418
        },
        {
          "duration": 0,
          "durationTicks": 0,
          "midi": 42,
          "name": "F#2",
          "ticks": 32160,
          "time": 52.89469100000001,
          "velocity": 0.5826771653543307
        },
        {
          "duration": 0,
          "durationTicks": 0,
          "midi": 51,
          "name": "D#3",
          "ticks": 32160,
          "time": 52.89469100000001,
          "velocity": 0.47244094488188976
        },
        {
          "duration": 0,
          "durationTicks": 0,
          "midi": 41,
          "name": "F2",
          "ticks": 32160,
          "time": 52.89469100000001,
          "velocity": 0.5511811023622047
        },
        {
          "duration": 0,
          "durationTicks": 0,
          "midi": 38,
          "name": "D2",
          "ticks": 32160,
          "time": 52.89469100000001,
          "velocity": 0.5039370078740157
        },
        {
          "duration": 0,
          "durationTicks": 0,
          "midi": 42,
          "name": "F#2",
          "ticks": 32400,
          "time": 53.28942750000001,
          "velocity": 0.5354330708661418
        },
        {
          "duration": 0,
          "durationTicks": 0,
          "midi": 51,
          "name": "D#3",
          "ticks": 32400,
          "time": 53.28942750000001,
          "velocity": 0.5826771653543307
        },
        {
          "duration": 0,
          "durationTicks": 0,
          "midi": 36,
          "name": "C2",
          "ticks": 32400,
          "time": 53.28942750000001,
          "velocity": 0.5039370078740157
        },
        {
          "duration": 0,
          "durationTicks": 0,
          "midi": 42,
          "name": "F#2",
          "ticks": 32640,
          "time": 53.68416400000001,
          "velocity": 0.5354330708661418
        },
        {
          "duration": 0,
          "durationTicks": 0,
          "midi": 51,
          "name": "D#3",
          "ticks": 32640,
          "time": 53.68416400000001,
          "velocity": 0.5354330708661418
        },
        {
          "duration": 0,
          "durationTicks": 0,
          "midi": 36,
          "name": "C2",
          "ticks": 32640,
          "time": 53.68416400000001,
          "velocity": 0.5984251968503937
        },
        {
          "duration": 0,
          "durationTicks": 0,
          "midi": 42,
          "name": "F#2",
          "ticks": 32880,
          "time": 54.0789005,
          "velocity": 0.47244094488188976
        },
        {
          "duration": 0,
          "durationTicks": 0,
          "midi": 51,
          "name": "D#3",
          "ticks": 32880,
          "time": 54.0789005,
          "velocity": 0.47244094488188976
        },
        {
          "duration": 0,
          "durationTicks": 0,
          "midi": 42,
          "name": "F#2",
          "ticks": 33120,
          "time": 54.473637000000004,
          "velocity": 0.5354330708661418
        },
        {
          "duration": 0,
          "durationTicks": 0,
          "midi": 51,
          "name": "D#3",
          "ticks": 33120,
          "time": 54.473637000000004,
          "velocity": 0.4251968503937008
        },
        {
          "duration": 0,
          "durationTicks": 0,
          "midi": 41,
          "name": "F2",
          "ticks": 33120,
          "time": 54.473637000000004,
          "velocity": 0.5511811023622047
        },
        {
          "duration": 0,
          "durationTicks": 0,
          "midi": 38,
          "name": "D2",
          "ticks": 33120,
          "time": 54.473637000000004,
          "velocity": 0.5039370078740157
        },
        {
          "duration": 0,
          "durationTicks": 0,
          "midi": 42,
          "name": "F#2",
          "ticks": 33360,
          "time": 54.868373500000004,
          "velocity": 0.5354330708661418
        },
        {
          "duration": 0,
          "durationTicks": 0,
          "midi": 51,
          "name": "D#3",
          "ticks": 33360,
          "time": 54.868373500000004,
          "velocity": 0.4251968503937008
        },
        {
          "duration": 0,
          "durationTicks": 0,
          "midi": 42,
          "name": "F#2",
          "ticks": 33600,
          "time": 55.263110000000005,
          "velocity": 0.5354330708661418
        },
        {
          "duration": 0,
          "durationTicks": 0,
          "midi": 51,
          "name": "D#3",
          "ticks": 33600,
          "time": 55.263110000000005,
          "velocity": 0.5826771653543307
        },
        {
          "duration": 0,
          "durationTicks": 0,
          "midi": 36,
          "name": "C2",
          "ticks": 33600,
          "time": 55.263110000000005,
          "velocity": 0.5039370078740157
        },
        {
          "duration": 0,
          "durationTicks": 0,
          "midi": 42,
          "name": "F#2",
          "ticks": 33840,
          "time": 55.657846500000005,
          "velocity": 0.5354330708661418
        },
        {
          "duration": 0,
          "durationTicks": 0,
          "midi": 51,
          "name": "D#3",
          "ticks": 33840,
          "time": 55.657846500000005,
          "velocity": 0.47244094488188976
        },
        {
          "duration": 0,
          "durationTicks": 0,
          "midi": 42,
          "name": "F#2",
          "ticks": 34080,
          "time": 56.052583000000006,
          "velocity": 0.5826771653543307
        },
        {
          "duration": 0,
          "durationTicks": 0,
          "midi": 51,
          "name": "D#3",
          "ticks": 34080,
          "time": 56.052583000000006,
          "velocity": 0.47244094488188976
        },
        {
          "duration": 0,
          "durationTicks": 0,
          "midi": 41,
          "name": "F2",
          "ticks": 34080,
          "time": 56.052583000000006,
          "velocity": 0.5511811023622047
        },
        {
          "duration": 0,
          "durationTicks": 0,
          "midi": 38,
          "name": "D2",
          "ticks": 34080,
          "time": 56.052583000000006,
          "velocity": 0.5511811023622047
        },
        {
          "duration": 0,
          "durationTicks": 0,
          "midi": 46,
          "name": "A#2",
          "ticks": 34320,
          "time": 56.447319500000006,
          "velocity": 0.5354330708661418
        },
        {
          "duration": 0,
          "durationTicks": 0,
          "midi": 51,
          "name": "D#3",
          "ticks": 34320,
          "time": 56.447319500000006,
          "velocity": 0.47244094488188976
        },
        {
          "duration": 0,
          "durationTicks": 0,
          "midi": 36,
          "name": "C2",
          "ticks": 34320,
          "time": 56.447319500000006,
          "velocity": 0.5511811023622047
        },
        {
          "duration": 0,
          "durationTicks": 0,
          "midi": 36,
          "name": "C2",
          "ticks": 34560,
          "time": 56.84205600000001,
          "velocity": 0.5984251968503937
        },
        {
          "duration": 0,
          "durationTicks": 0,
          "midi": 42,
          "name": "F#2",
          "ticks": 34560,
          "time": 56.84205600000001,
          "velocity": 0.5354330708661418
        },
        {
          "duration": 0,
          "durationTicks": 0,
          "midi": 49,
          "name": "C#3",
          "ticks": 34560,
          "time": 56.84205600000001,
          "velocity": 0.5826771653543307
        },
        {
          "duration": 0,
          "durationTicks": 0,
          "midi": 42,
          "name": "F#2",
          "ticks": 34800,
          "time": 57.23679250000001,
          "velocity": 0.47244094488188976
        },
        {
          "duration": 0,
          "durationTicks": 0,
          "midi": 51,
          "name": "D#3",
          "ticks": 34800,
          "time": 57.23679250000001,
          "velocity": 0.5354330708661418
        },
        {
          "duration": 0,
          "durationTicks": 0,
          "midi": 41,
          "name": "F2",
          "ticks": 35040,
          "time": 57.63152900000001,
          "velocity": 0.5511811023622047
        },
        {
          "duration": 0,
          "durationTicks": 0,
          "midi": 42,
          "name": "F#2",
          "ticks": 35040,
          "time": 57.63152900000001,
          "velocity": 0.5354330708661418
        },
        {
          "duration": 0,
          "durationTicks": 0,
          "midi": 51,
          "name": "D#3",
          "ticks": 35040,
          "time": 57.63152900000001,
          "velocity": 0.47244094488188976
        },
        {
          "duration": 0,
          "durationTicks": 0,
          "midi": 38,
          "name": "D2",
          "ticks": 35040,
          "time": 57.63152900000001,
          "velocity": 0.5511811023622047
        },
        {
          "duration": 0,
          "durationTicks": 0,
          "midi": 42,
          "name": "F#2",
          "ticks": 35280,
          "time": 58.02626550000001,
          "velocity": 0.5354330708661418
        },
        {
          "duration": 0,
          "durationTicks": 0,
          "midi": 51,
          "name": "D#3",
          "ticks": 35280,
          "time": 58.02626550000001,
          "velocity": 0.5354330708661418
        },
        {
          "duration": 0,
          "durationTicks": 0,
          "midi": 36,
          "name": "C2",
          "ticks": 35520,
          "time": 58.42100200000001,
          "velocity": 0.5039370078740157
        },
        {
          "duration": 0,
          "durationTicks": 0,
          "midi": 42,
          "name": "F#2",
          "ticks": 35520,
          "time": 58.42100200000001,
          "velocity": 0.5354330708661418
        },
        {
          "duration": 0,
          "durationTicks": 0,
          "midi": 51,
          "name": "D#3",
          "ticks": 35520,
          "time": 58.42100200000001,
          "velocity": 0.5354330708661418
        },
        {
          "duration": 0,
          "durationTicks": 0,
          "midi": 42,
          "name": "F#2",
          "ticks": 35760,
          "time": 58.81573850000001,
          "velocity": 0.5354330708661418
        },
        {
          "duration": 0,
          "durationTicks": 0,
          "midi": 51,
          "name": "D#3",
          "ticks": 35760,
          "time": 58.81573850000001,
          "velocity": 0.5354330708661418
        },
        {
          "duration": 0,
          "durationTicks": 0,
          "midi": 41,
          "name": "F2",
          "ticks": 36000,
          "time": 59.21047500000001,
          "velocity": 0.5511811023622047
        },
        {
          "duration": 0,
          "durationTicks": 0,
          "midi": 42,
          "name": "F#2",
          "ticks": 36000,
          "time": 59.21047500000001,
          "velocity": 0.5826771653543307
        },
        {
          "duration": 0,
          "durationTicks": 0,
          "midi": 51,
          "name": "D#3",
          "ticks": 36000,
          "time": 59.21047500000001,
          "velocity": 0.47244094488188976
        },
        {
          "duration": 0,
          "durationTicks": 0,
          "midi": 38,
          "name": "D2",
          "ticks": 36000,
          "time": 59.21047500000001,
          "velocity": 0.5039370078740157
        },
        {
          "duration": 0,
          "durationTicks": 0,
          "midi": 36,
          "name": "C2",
          "ticks": 36240,
          "time": 59.60521150000001,
          "velocity": 0.5039370078740157
        },
        {
          "duration": 0,
          "durationTicks": 0,
          "midi": 42,
          "name": "F#2",
          "ticks": 36240,
          "time": 59.60521150000001,
          "velocity": 0.5354330708661418
        },
        {
          "duration": 0,
          "durationTicks": 0,
          "midi": 51,
          "name": "D#3",
          "ticks": 36240,
          "time": 59.60521150000001,
          "velocity": 0.5826771653543307
        },
        {
          "duration": 0,
          "durationTicks": 0,
          "midi": 36,
          "name": "C2",
          "ticks": 36480,
          "time": 59.999948,
          "velocity": 0.5984251968503937
        },
        {
          "duration": 0,
          "durationTicks": 0,
          "midi": 42,
          "name": "F#2",
          "ticks": 36480,
          "time": 59.999948,
          "velocity": 0.5354330708661418
        },
        {
          "duration": 0,
          "durationTicks": 0,
          "midi": 51,
          "name": "D#3",
          "ticks": 36480,
          "time": 59.999948,
          "velocity": 0.5354330708661418
        },
        {
          "duration": 0,
          "durationTicks": 0,
          "midi": 42,
          "name": "F#2",
          "ticks": 36720,
          "time": 60.394684500000004,
          "velocity": 0.47244094488188976
        },
        {
          "duration": 0,
          "durationTicks": 0,
          "midi": 51,
          "name": "D#3",
          "ticks": 36720,
          "time": 60.394684500000004,
          "velocity": 0.47244094488188976
        },
        {
          "duration": 0,
          "durationTicks": 0,
          "midi": 41,
          "name": "F2",
          "ticks": 36960,
          "time": 60.789421000000004,
          "velocity": 0.5511811023622047
        },
        {
          "duration": 0,
          "durationTicks": 0,
          "midi": 42,
          "name": "F#2",
          "ticks": 36960,
          "time": 60.789421000000004,
          "velocity": 0.5354330708661418
        },
        {
          "duration": 0,
          "durationTicks": 0,
          "midi": 51,
          "name": "D#3",
          "ticks": 36960,
          "time": 60.789421000000004,
          "velocity": 0.4251968503937008
        },
        {
          "duration": 0,
          "durationTicks": 0,
          "midi": 38,
          "name": "D2",
          "ticks": 36960,
          "time": 60.789421000000004,
          "velocity": 0.5039370078740157
        },
        {
          "duration": 0,
          "durationTicks": 0,
          "midi": 42,
          "name": "F#2",
          "ticks": 37200,
          "time": 61.184157500000005,
          "velocity": 0.5354330708661418
        },
        {
          "duration": 0,
          "durationTicks": 0,
          "midi": 51,
          "name": "D#3",
          "ticks": 37200,
          "time": 61.184157500000005,
          "velocity": 0.4251968503937008
        },
        {
          "duration": 0,
          "durationTicks": 0,
          "midi": 36,
          "name": "C2",
          "ticks": 37440,
          "time": 61.578894000000005,
          "velocity": 0.5039370078740157
        },
        {
          "duration": 0,
          "durationTicks": 0,
          "midi": 42,
          "name": "F#2",
          "ticks": 37440,
          "time": 61.578894000000005,
          "velocity": 0.5354330708661418
        },
        {
          "duration": 0,
          "durationTicks": 0,
          "midi": 51,
          "name": "D#3",
          "ticks": 37440,
          "time": 61.578894000000005,
          "velocity": 0.5826771653543307
        },
        {
          "duration": 0,
          "durationTicks": 0,
          "midi": 42,
          "name": "F#2",
          "ticks": 37680,
          "time": 61.973630500000006,
          "velocity": 0.5354330708661418
        },
        {
          "duration": 0,
          "durationTicks": 0,
          "midi": 51,
          "name": "D#3",
          "ticks": 37680,
          "time": 61.973630500000006,
          "velocity": 0.47244094488188976
        },
        {
          "duration": 0,
          "durationTicks": 0,
          "midi": 41,
          "name": "F2",
          "ticks": 37920,
          "time": 62.368367000000006,
          "velocity": 0.5511811023622047
        },
        {
          "duration": 0,
          "durationTicks": 0,
          "midi": 42,
          "name": "F#2",
          "ticks": 37920,
          "time": 62.368367000000006,
          "velocity": 0.5826771653543307
        },
        {
          "duration": 0,
          "durationTicks": 0,
          "midi": 51,
          "name": "D#3",
          "ticks": 37920,
          "time": 62.368367000000006,
          "velocity": 0.47244094488188976
        },
        {
          "duration": 0,
          "durationTicks": 0,
          "midi": 38,
          "name": "D2",
          "ticks": 37920,
          "time": 62.368367000000006,
          "velocity": 0.5511811023622047
        },
        {
          "duration": 0,
          "durationTicks": 0,
          "midi": 36,
          "name": "C2",
          "ticks": 38160,
          "time": 62.76310350000001,
          "velocity": 0.5511811023622047
        },
        {
          "duration": 0,
          "durationTicks": 0,
          "midi": 46,
          "name": "A#2",
          "ticks": 38160,
          "time": 62.76310350000001,
          "velocity": 0.5354330708661418
        },
        {
          "duration": 0,
          "durationTicks": 0,
          "midi": 51,
          "name": "D#3",
          "ticks": 38160,
          "time": 62.76310350000001,
          "velocity": 0.47244094488188976
        },
        {
          "duration": 0,
          "durationTicks": 0,
          "midi": 42,
          "name": "F#2",
          "ticks": 38400,
          "time": 63.15784000000001,
          "velocity": 0.5354330708661418
        },
        {
          "duration": 0,
          "durationTicks": 0,
          "midi": 36,
          "name": "C2",
          "ticks": 38400,
          "time": 63.15784000000001,
          "velocity": 0.5984251968503937
        },
        {
          "duration": 0,
          "durationTicks": 0,
          "midi": 42,
          "name": "F#2",
          "ticks": 38640,
          "time": 63.55257650000001,
          "velocity": 0.47244094488188976
        },
        {
          "duration": 0,
          "durationTicks": 0,
          "midi": 51,
          "name": "D#3",
          "ticks": 38640,
          "time": 63.55257650000001,
          "velocity": 0.5354330708661418
        },
        {
          "duration": 0,
          "durationTicks": 0,
          "midi": 42,
          "name": "F#2",
          "ticks": 38880,
          "time": 63.94731300000001,
          "velocity": 0.5354330708661418
        },
        {
          "duration": 0,
          "durationTicks": 0,
          "midi": 51,
          "name": "D#3",
          "ticks": 38880,
          "time": 63.94731300000001,
          "velocity": 0.47244094488188976
        },
        {
          "duration": 0,
          "durationTicks": 0,
          "midi": 41,
          "name": "F2",
          "ticks": 38880,
          "time": 63.94731300000001,
          "velocity": 0.5511811023622047
        },
        {
          "duration": 0,
          "durationTicks": 0,
          "midi": 38,
          "name": "D2",
          "ticks": 38880,
          "time": 63.94731300000001,
          "velocity": 0.5511811023622047
        },
        {
          "duration": 0,
          "durationTicks": 0,
          "midi": 42,
          "name": "F#2",
          "ticks": 39120,
          "time": 64.3420495,
          "velocity": 0.5354330708661418
        },
        {
          "duration": 0,
          "durationTicks": 0,
          "midi": 51,
          "name": "D#3",
          "ticks": 39120,
          "time": 64.3420495,
          "velocity": 0.5354330708661418
        },
        {
          "duration": 0,
          "durationTicks": 0,
          "midi": 42,
          "name": "F#2",
          "ticks": 39360,
          "time": 64.73678600000001,
          "velocity": 0.5354330708661418
        },
        {
          "duration": 0,
          "durationTicks": 0,
          "midi": 51,
          "name": "D#3",
          "ticks": 39360,
          "time": 64.73678600000001,
          "velocity": 0.5354330708661418
        },
        {
          "duration": 0,
          "durationTicks": 0,
          "midi": 36,
          "name": "C2",
          "ticks": 39360,
          "time": 64.73678600000001,
          "velocity": 0.5039370078740157
        },
        {
          "duration": 0,
          "durationTicks": 0,
          "midi": 42,
          "name": "F#2",
          "ticks": 39600,
          "time": 65.1315225,
          "velocity": 0.5354330708661418
        },
        {
          "duration": 0,
          "durationTicks": 0,
          "midi": 51,
          "name": "D#3",
          "ticks": 39600,
          "time": 65.1315225,
          "velocity": 0.5354330708661418
        },
        {
          "duration": 0,
          "durationTicks": 0,
          "midi": 42,
          "name": "F#2",
          "ticks": 39840,
          "time": 65.52625900000001,
          "velocity": 0.5826771653543307
        },
        {
          "duration": 0,
          "durationTicks": 0,
          "midi": 51,
          "name": "D#3",
          "ticks": 39840,
          "time": 65.52625900000001,
          "velocity": 0.47244094488188976
        },
        {
          "duration": 0,
          "durationTicks": 0,
          "midi": 41,
          "name": "F2",
          "ticks": 39840,
          "time": 65.52625900000001,
          "velocity": 0.5511811023622047
        },
        {
          "duration": 0,
          "durationTicks": 0,
          "midi": 38,
          "name": "D2",
          "ticks": 39840,
          "time": 65.52625900000001,
          "velocity": 0.5039370078740157
        },
        {
          "duration": 0,
          "durationTicks": 0,
          "midi": 42,
          "name": "F#2",
          "ticks": 40080,
          "time": 65.9209955,
          "velocity": 0.5354330708661418
        },
        {
          "duration": 0,
          "durationTicks": 0,
          "midi": 51,
          "name": "D#3",
          "ticks": 40080,
          "time": 65.9209955,
          "velocity": 0.5826771653543307
        },
        {
          "duration": 0,
          "durationTicks": 0,
          "midi": 36,
          "name": "C2",
          "ticks": 40080,
          "time": 65.9209955,
          "velocity": 0.5039370078740157
        },
        {
          "duration": 0,
          "durationTicks": 0,
          "midi": 42,
          "name": "F#2",
          "ticks": 40320,
          "time": 66.31573200000001,
          "velocity": 0.5354330708661418
        },
        {
          "duration": 0,
          "durationTicks": 0,
          "midi": 51,
          "name": "D#3",
          "ticks": 40320,
          "time": 66.31573200000001,
          "velocity": 0.5354330708661418
        },
        {
          "duration": 0,
          "durationTicks": 0,
          "midi": 36,
          "name": "C2",
          "ticks": 40320,
          "time": 66.31573200000001,
          "velocity": 0.5984251968503937
        },
        {
          "duration": 0,
          "durationTicks": 0,
          "midi": 42,
          "name": "F#2",
          "ticks": 40560,
          "time": 66.7104685,
          "velocity": 0.47244094488188976
        },
        {
          "duration": 0,
          "durationTicks": 0,
          "midi": 51,
          "name": "D#3",
          "ticks": 40560,
          "time": 66.7104685,
          "velocity": 0.47244094488188976
        },
        {
          "duration": 0,
          "durationTicks": 0,
          "midi": 42,
          "name": "F#2",
          "ticks": 40800,
          "time": 67.10520500000001,
          "velocity": 0.5354330708661418
        },
        {
          "duration": 0,
          "durationTicks": 0,
          "midi": 51,
          "name": "D#3",
          "ticks": 40800,
          "time": 67.10520500000001,
          "velocity": 0.4251968503937008
        },
        {
          "duration": 0,
          "durationTicks": 0,
          "midi": 41,
          "name": "F2",
          "ticks": 40800,
          "time": 67.10520500000001,
          "velocity": 0.5511811023622047
        },
        {
          "duration": 0,
          "durationTicks": 0,
          "midi": 38,
          "name": "D2",
          "ticks": 40800,
          "time": 67.10520500000001,
          "velocity": 0.5039370078740157
        },
        {
          "duration": 0,
          "durationTicks": 0,
          "midi": 42,
          "name": "F#2",
          "ticks": 41040,
          "time": 67.4999415,
          "velocity": 0.5354330708661418
        },
        {
          "duration": 0,
          "durationTicks": 0,
          "midi": 51,
          "name": "D#3",
          "ticks": 41040,
          "time": 67.4999415,
          "velocity": 0.4251968503937008
        },
        {
          "duration": 0,
          "durationTicks": 0,
          "midi": 42,
          "name": "F#2",
          "ticks": 41280,
          "time": 67.89467800000001,
          "velocity": 0.5354330708661418
        },
        {
          "duration": 0,
          "durationTicks": 0,
          "midi": 51,
          "name": "D#3",
          "ticks": 41280,
          "time": 67.89467800000001,
          "velocity": 0.5826771653543307
        },
        {
          "duration": 0,
          "durationTicks": 0,
          "midi": 36,
          "name": "C2",
          "ticks": 41280,
          "time": 67.89467800000001,
          "velocity": 0.5039370078740157
        },
        {
          "duration": 0,
          "durationTicks": 0,
          "midi": 42,
          "name": "F#2",
          "ticks": 41520,
          "time": 68.2894145,
          "velocity": 0.5354330708661418
        },
        {
          "duration": 0,
          "durationTicks": 0,
          "midi": 51,
          "name": "D#3",
          "ticks": 41520,
          "time": 68.2894145,
          "velocity": 0.47244094488188976
        },
        {
          "duration": 0,
          "durationTicks": 0,
          "midi": 42,
          "name": "F#2",
          "ticks": 41760,
          "time": 68.68415100000001,
          "velocity": 0.5826771653543307
        },
        {
          "duration": 0,
          "durationTicks": 0,
          "midi": 51,
          "name": "D#3",
          "ticks": 41760,
          "time": 68.68415100000001,
          "velocity": 0.47244094488188976
        },
        {
          "duration": 0,
          "durationTicks": 0,
          "midi": 41,
          "name": "F2",
          "ticks": 41760,
          "time": 68.68415100000001,
          "velocity": 0.5511811023622047
        },
        {
          "duration": 0,
          "durationTicks": 0,
          "midi": 38,
          "name": "D2",
          "ticks": 41760,
          "time": 68.68415100000001,
          "velocity": 0.5511811023622047
        },
        {
          "duration": 0,
          "durationTicks": 0,
          "midi": 46,
          "name": "A#2",
          "ticks": 42000,
          "time": 69.07888750000001,
          "velocity": 0.5354330708661418
        },
        {
          "duration": 0,
          "durationTicks": 0,
          "midi": 51,
          "name": "D#3",
          "ticks": 42000,
          "time": 69.07888750000001,
          "velocity": 0.47244094488188976
        },
        {
          "duration": 0,
          "durationTicks": 0,
          "midi": 36,
          "name": "C2",
          "ticks": 42000,
          "time": 69.07888750000001,
          "velocity": 0.5511811023622047
        },
        {
          "duration": 0,
          "durationTicks": 0,
          "midi": 36,
          "name": "C2",
          "ticks": 42240,
          "time": 69.473624,
          "velocity": 0.5984251968503937
        },
        {
          "duration": 0,
          "durationTicks": 0,
          "midi": 42,
          "name": "F#2",
          "ticks": 42240,
          "time": 69.473624,
          "velocity": 0.5354330708661418
        },
        {
          "duration": 0,
          "durationTicks": 0,
          "midi": 49,
          "name": "C#3",
          "ticks": 42240,
          "time": 69.473624,
          "velocity": 0.5826771653543307
        },
        {
          "duration": 0,
          "durationTicks": 0,
          "midi": 42,
          "name": "F#2",
          "ticks": 42480,
          "time": 69.86836050000001,
          "velocity": 0.47244094488188976
        },
        {
          "duration": 0,
          "durationTicks": 0,
          "midi": 51,
          "name": "D#3",
          "ticks": 42480,
          "time": 69.86836050000001,
          "velocity": 0.5354330708661418
        },
        {
          "duration": 0,
          "durationTicks": 0,
          "midi": 41,
          "name": "F2",
          "ticks": 42720,
          "time": 70.263097,
          "velocity": 0.5511811023622047
        },
        {
          "duration": 0,
          "durationTicks": 0,
          "midi": 42,
          "name": "F#2",
          "ticks": 42720,
          "time": 70.263097,
          "velocity": 0.5354330708661418
        },
        {
          "duration": 0,
          "durationTicks": 0,
          "midi": 51,
          "name": "D#3",
          "ticks": 42720,
          "time": 70.263097,
          "velocity": 0.47244094488188976
        },
        {
          "duration": 0,
          "durationTicks": 0,
          "midi": 38,
          "name": "D2",
          "ticks": 42720,
          "time": 70.263097,
          "velocity": 0.5511811023622047
        },
        {
          "duration": 0,
          "durationTicks": 0,
          "midi": 42,
          "name": "F#2",
          "ticks": 42960,
          "time": 70.65783350000001,
          "velocity": 0.5354330708661418
        },
        {
          "duration": 0,
          "durationTicks": 0,
          "midi": 51,
          "name": "D#3",
          "ticks": 42960,
          "time": 70.65783350000001,
          "velocity": 0.5354330708661418
        },
        {
          "duration": 0,
          "durationTicks": 0,
          "midi": 36,
          "name": "C2",
          "ticks": 43200,
          "time": 71.05257,
          "velocity": 0.5039370078740157
        },
        {
          "duration": 0,
          "durationTicks": 0,
          "midi": 42,
          "name": "F#2",
          "ticks": 43200,
          "time": 71.05257,
          "velocity": 0.5354330708661418
        },
        {
          "duration": 0,
          "durationTicks": 0,
          "midi": 51,
          "name": "D#3",
          "ticks": 43200,
          "time": 71.05257,
          "velocity": 0.5354330708661418
        },
        {
          "duration": 0,
          "durationTicks": 0,
          "midi": 42,
          "name": "F#2",
          "ticks": 43440,
          "time": 71.44730650000001,
          "velocity": 0.5354330708661418
        },
        {
          "duration": 0,
          "durationTicks": 0,
          "midi": 51,
          "name": "D#3",
          "ticks": 43440,
          "time": 71.44730650000001,
          "velocity": 0.5354330708661418
        },
        {
          "duration": 0,
          "durationTicks": 0,
          "midi": 41,
          "name": "F2",
          "ticks": 43680,
          "time": 71.842043,
          "velocity": 0.5511811023622047
        },
        {
          "duration": 0,
          "durationTicks": 0,
          "midi": 42,
          "name": "F#2",
          "ticks": 43680,
          "time": 71.842043,
          "velocity": 0.5826771653543307
        },
        {
          "duration": 0,
          "durationTicks": 0,
          "midi": 51,
          "name": "D#3",
          "ticks": 43680,
          "time": 71.842043,
          "velocity": 0.47244094488188976
        },
        {
          "duration": 0,
          "durationTicks": 0,
          "midi": 38,
          "name": "D2",
          "ticks": 43680,
          "time": 71.842043,
          "velocity": 0.5039370078740157
        },
        {
          "duration": 0,
          "durationTicks": 0,
          "midi": 36,
          "name": "C2",
          "ticks": 43920,
          "time": 72.23677950000001,
          "velocity": 0.5039370078740157
        },
        {
          "duration": 0,
          "durationTicks": 0,
          "midi": 42,
          "name": "F#2",
          "ticks": 43920,
          "time": 72.23677950000001,
          "velocity": 0.5354330708661418
        },
        {
          "duration": 0,
          "durationTicks": 0,
          "midi": 51,
          "name": "D#3",
          "ticks": 43920,
          "time": 72.23677950000001,
          "velocity": 0.5826771653543307
        },
        {
          "duration": 0,
          "durationTicks": 0,
          "midi": 36,
          "name": "C2",
          "ticks": 44160,
          "time": 72.631516,
          "velocity": 0.5984251968503937
        },
        {
          "duration": 0,
          "durationTicks": 0,
          "midi": 42,
          "name": "F#2",
          "ticks": 44160,
          "time": 72.631516,
          "velocity": 0.5354330708661418
        },
        {
          "duration": 0,
          "durationTicks": 0,
          "midi": 51,
          "name": "D#3",
          "ticks": 44160,
          "time": 72.631516,
          "velocity": 0.5354330708661418
        },
        {
          "duration": 0,
          "durationTicks": 0,
          "midi": 42,
          "name": "F#2",
          "ticks": 44400,
          "time": 73.02625250000001,
          "velocity": 0.47244094488188976
        },
        {
          "duration": 0,
          "durationTicks": 0,
          "midi": 51,
          "name": "D#3",
          "ticks": 44400,
          "time": 73.02625250000001,
          "velocity": 0.47244094488188976
        },
        {
          "duration": 0,
          "durationTicks": 0,
          "midi": 41,
          "name": "F2",
          "ticks": 44640,
          "time": 73.420989,
          "velocity": 0.5511811023622047
        },
        {
          "duration": 0,
          "durationTicks": 0,
          "midi": 42,
          "name": "F#2",
          "ticks": 44640,
          "time": 73.420989,
          "velocity": 0.5354330708661418
        },
        {
          "duration": 0,
          "durationTicks": 0,
          "midi": 51,
          "name": "D#3",
          "ticks": 44640,
          "time": 73.420989,
          "velocity": 0.4251968503937008
        },
        {
          "duration": 0,
          "durationTicks": 0,
          "midi": 38,
          "name": "D2",
          "ticks": 44640,
          "time": 73.420989,
          "velocity": 0.5039370078740157
        },
        {
          "duration": 0,
          "durationTicks": 0,
          "midi": 42,
          "name": "F#2",
          "ticks": 44880,
          "time": 73.81572550000001,
          "velocity": 0.5354330708661418
        },
        {
          "duration": 0,
          "durationTicks": 0,
          "midi": 51,
          "name": "D#3",
          "ticks": 44880,
          "time": 73.81572550000001,
          "velocity": 0.4251968503937008
        },
        {
          "duration": 0,
          "durationTicks": 0,
          "midi": 36,
          "name": "C2",
          "ticks": 45120,
          "time": 74.210462,
          "velocity": 0.5826771653543307
        },
        {
          "duration": 0,
          "durationTicks": 0,
          "midi": 42,
          "name": "F#2",
          "ticks": 45120,
          "time": 74.210462,
          "velocity": 0.5354330708661418
        },
        {
          "duration": 0,
          "durationTicks": 0,
          "midi": 42,
          "name": "F#2",
          "ticks": 45360,
          "time": 74.60519850000001,
          "velocity": 0.47244094488188976
        },
        {
          "duration": 0,
          "durationTicks": 0,
          "midi": 42,
          "name": "F#2",
          "ticks": 45600,
          "time": 74.99993500000001,
          "velocity": 0.5354330708661418
        },
        {
          "duration": 0,
          "durationTicks": 0,
          "midi": 38,
          "name": "D2",
          "ticks": 45600,
          "time": 74.99993500000001,
          "velocity": 0.5039370078740157
        },
        {
          "duration": 0,
          "durationTicks": 0,
          "midi": 49,
          "name": "C#3",
          "ticks": 45600,
          "time": 74.99993500000001,
          "velocity": 0.5354330708661418
        },
        {
          "duration": 0,
          "durationTicks": 0,
          "midi": 48,
          "name": "C3",
          "ticks": 45840,
          "time": 75.39467150000002,
          "velocity": 0.6377952755905512
        },
        {
          "duration": 0,
          "durationTicks": 0,
          "midi": 42,
          "name": "F#2",
          "ticks": 45840,
          "time": 75.39467150000002,
          "velocity": 0.5354330708661418
        },
        {
          "duration": 0,
          "durationTicks": 0,
          "midi": 51,
          "name": "D#3",
          "ticks": 45840,
          "time": 75.39467150000002,
          "velocity": 0.47244094488188976
        },
        {
          "duration": 0,
          "durationTicks": 0,
          "midi": 49,
          "name": "C#3",
          "ticks": 46080,
          "time": 75.78940800000001,
          "velocity": 0.3464566929133858
        },
        {
          "duration": 0,
          "durationTicks": 0,
          "midi": 36,
          "name": "C2",
          "ticks": 46080,
          "time": 75.78940800000001,
          "velocity": 0.5984251968503937
        },
        {
          "duration": 0,
          "durationTicks": 0,
          "midi": 51,
          "name": "D#3",
          "ticks": 46320,
          "time": 76.1841445,
          "velocity": 0.5039370078740157
        },
        {
          "duration": 0,
          "durationTicks": 0,
          "midi": 51,
          "name": "D#3",
          "ticks": 46560,
          "time": 76.57888100000001,
          "velocity": 0.5039370078740157
        },
        {
          "duration": 0,
          "durationTicks": 0,
          "midi": 38,
          "name": "D2",
          "ticks": 46560,
          "time": 76.57888100000001,
          "velocity": 0.5511811023622047
        },
        {
          "duration": 0,
          "durationTicks": 0,
          "midi": 51,
          "name": "D#3",
          "ticks": 46800,
          "time": 76.9736175,
          "velocity": 0.5039370078740157
        },
        {
          "duration": 0,
          "durationTicks": 0,
          "midi": 51,
          "name": "D#3",
          "ticks": 47040,
          "time": 77.36835400000001,
          "velocity": 0.44881889763779526
        },
        {
          "duration": 0,
          "durationTicks": 0,
          "midi": 36,
          "name": "C2",
          "ticks": 47040,
          "time": 77.36835400000001,
          "velocity": 0.5039370078740157
        },
        {
          "duration": 0,
          "durationTicks": 0,
          "midi": 51,
          "name": "D#3",
          "ticks": 47280,
          "time": 77.7630905,
          "velocity": 0.5039370078740157
        },
        {
          "duration": 0,
          "durationTicks": 0,
          "midi": 51,
          "name": "D#3",
          "ticks": 47520,
          "time": 78.15782700000001,
          "velocity": 0.5511811023622047
        },
        {
          "duration": 0,
          "durationTicks": 0,
          "midi": 38,
          "name": "D2",
          "ticks": 47520,
          "time": 78.15782700000001,
          "velocity": 0.5039370078740157
        },
        {
          "duration": 0,
          "durationTicks": 0,
          "midi": 51,
          "name": "D#3",
          "ticks": 47760,
          "time": 78.5525635,
          "velocity": 0.5511811023622047
        },
        {
          "duration": 0,
          "durationTicks": 0,
          "midi": 36,
          "name": "C2",
          "ticks": 47760,
          "time": 78.5525635,
          "velocity": 0.5039370078740157
        },
        {
          "duration": 0,
          "durationTicks": 0,
          "midi": 49,
          "name": "C#3",
          "ticks": 48000,
          "time": 78.94730000000001,
          "velocity": 0.3464566929133858
        },
        {
          "duration": 0,
          "durationTicks": 0,
          "midi": 36,
          "name": "C2",
          "ticks": 48000,
          "time": 78.94730000000001,
          "velocity": 0.5984251968503937
        },
        {
          "duration": 0,
          "durationTicks": 0,
          "midi": 51,
          "name": "D#3",
          "ticks": 48240,
          "time": 79.3420365,
          "velocity": 0.5039370078740157
        },
        {
          "duration": 0,
          "durationTicks": 0,
          "midi": 51,
          "name": "D#3",
          "ticks": 48480,
          "time": 79.73677300000001,
          "velocity": 0.44881889763779526
        },
        {
          "duration": 0,
          "durationTicks": 0,
          "midi": 38,
          "name": "D2",
          "ticks": 48480,
          "time": 79.73677300000001,
          "velocity": 0.5039370078740157
        },
        {
          "duration": 0,
          "durationTicks": 0,
          "midi": 51,
          "name": "D#3",
          "ticks": 48720,
          "time": 80.1315095,
          "velocity": 0.5039370078740157
        },
        {
          "duration": 0,
          "durationTicks": 0,
          "midi": 51,
          "name": "D#3",
          "ticks": 48960,
          "time": 80.52624600000001,
          "velocity": 0.5039370078740157
        },
        {
          "duration": 0,
          "durationTicks": 0,
          "midi": 36,
          "name": "C2",
          "ticks": 48960,
          "time": 80.52624600000001,
          "velocity": 0.5039370078740157
        },
        {
          "duration": 0,
          "durationTicks": 0,
          "midi": 51,
          "name": "D#3",
          "ticks": 49200,
          "time": 80.92098250000001,
          "velocity": 0.44881889763779526
        },
        {
          "duration": 0,
          "durationTicks": 0,
          "midi": 51,
          "name": "D#3",
          "ticks": 49440,
          "time": 81.31571900000002,
          "velocity": 0.44881889763779526
        },
        {
          "duration": 0,
          "durationTicks": 0,
          "midi": 38,
          "name": "D2",
          "ticks": 49440,
          "time": 81.31571900000002,
          "velocity": 0.5511811023622047
        },
        {
          "duration": 0,
          "durationTicks": 0,
          "midi": 51,
          "name": "D#3",
          "ticks": 49680,
          "time": 81.71045550000001,
          "velocity": 0.5511811023622047
        },
        {
          "duration": 0,
          "durationTicks": 0,
          "midi": 36,
          "name": "C2",
          "ticks": 49680,
          "time": 81.71045550000001,
          "velocity": 0.5511811023622047
        },
        {
          "duration": 0,
          "durationTicks": 0,
          "midi": 49,
          "name": "C#3",
          "ticks": 49920,
          "time": 82.10519200000002,
          "velocity": 0.4015748031496063
        },
        {
          "duration": 0,
          "durationTicks": 0,
          "midi": 36,
          "name": "C2",
          "ticks": 49920,
          "time": 82.10519200000002,
          "velocity": 0.5511811023622047
        },
        {
          "duration": 0,
          "durationTicks": 0,
          "midi": 51,
          "name": "D#3",
          "ticks": 50160,
          "time": 82.49992850000001,
          "velocity": 0.4015748031496063
        },
        {
          "duration": 0,
          "durationTicks": 0,
          "midi": 51,
          "name": "D#3",
          "ticks": 50400,
          "time": 82.894665,
          "velocity": 0.4015748031496063
        },
        {
          "duration": 0,
          "durationTicks": 0,
          "midi": 38,
          "name": "D2",
          "ticks": 50400,
          "time": 82.894665,
          "velocity": 0.5511811023622047
        },
        {
          "duration": 0,
          "durationTicks": 0,
          "midi": 51,
          "name": "D#3",
          "ticks": 50640,
          "time": 83.28940150000001,
          "velocity": 0.44881889763779526
        },
        {
          "duration": 0,
          "durationTicks": 0,
          "midi": 51,
          "name": "D#3",
          "ticks": 50880,
          "time": 83.684138,
          "velocity": 0.4015748031496063
        },
        {
          "duration": 0,
          "durationTicks": 0,
          "midi": 36,
          "name": "C2",
          "ticks": 50880,
          "time": 83.684138,
          "velocity": 0.5826771653543307
        },
        {
          "duration": 0,
          "durationTicks": 0,
          "midi": 51,
          "name": "D#3",
          "ticks": 51120,
          "time": 84.07887450000001,
          "velocity": 0.5039370078740157
        },
        {
          "duration": 0,
          "durationTicks": 0,
          "midi": 51,
          "name": "D#3",
          "ticks": 51360,
          "time": 84.473611,
          "velocity": 0.44881889763779526
        },
        {
          "duration": 0,
          "durationTicks": 0,
          "midi": 38,
          "name": "D2",
          "ticks": 51360,
          "time": 84.473611,
          "velocity": 0.5039370078740157
        },
        {
          "duration": 0,
          "durationTicks": 0,
          "midi": 51,
          "name": "D#3",
          "ticks": 51600,
          "time": 84.86834750000001,
          "velocity": 0.5039370078740157
        },
        {
          "duration": 0,
          "durationTicks": 0,
          "midi": 36,
          "name": "C2",
          "ticks": 51600,
          "time": 84.86834750000001,
          "velocity": 0.5354330708661418
        },
        {
          "duration": 0,
          "durationTicks": 0,
          "midi": 49,
          "name": "C#3",
          "ticks": 51840,
          "time": 85.263084,
          "velocity": 0.4015748031496063
        },
        {
          "duration": 0,
          "durationTicks": 0,
          "midi": 36,
          "name": "C2",
          "ticks": 51840,
          "time": 85.263084,
          "velocity": 0.5826771653543307
        },
        {
          "duration": 0,
          "durationTicks": 0,
          "midi": 51,
          "name": "D#3",
          "ticks": 52080,
          "time": 85.65782050000001,
          "velocity": 0.44881889763779526
        },
        {
          "duration": 0,
          "durationTicks": 0,
          "midi": 51,
          "name": "D#3",
          "ticks": 52320,
          "time": 86.05255700000001,
          "velocity": 0.44881889763779526
        },
        {
          "duration": 0,
          "durationTicks": 0,
          "midi": 38,
          "name": "D2",
          "ticks": 52320,
          "time": 86.05255700000001,
          "velocity": 0.5039370078740157
        },
        {
          "duration": 0,
          "durationTicks": 0,
          "midi": 51,
          "name": "D#3",
          "ticks": 52560,
          "time": 86.44729350000001,
          "velocity": 0.5039370078740157
        },
        {
          "duration": 0,
          "durationTicks": 0,
          "midi": 51,
          "name": "D#3",
          "ticks": 52800,
          "time": 86.84203000000001,
          "velocity": 0.44881889763779526
        },
        {
          "duration": 0,
          "durationTicks": 0,
          "midi": 36,
          "name": "C2",
          "ticks": 52800,
          "time": 86.84203000000001,
          "velocity": 0.5826771653543307
        },
        {
          "duration": 0,
          "durationTicks": 0,
          "midi": 51,
          "name": "D#3",
          "ticks": 53040,
          "time": 87.23676650000002,
          "velocity": 0.5039370078740157
        },
        {
          "duration": 0,
          "durationTicks": 0,
          "midi": 51,
          "name": "D#3",
          "ticks": 53280,
          "time": 87.63150300000001,
          "velocity": 0.4015748031496063
        },
        {
          "duration": 0,
          "durationTicks": 0,
          "midi": 38,
          "name": "D2",
          "ticks": 53280,
          "time": 87.63150300000001,
          "velocity": 0.5511811023622047
        },
        {
          "duration": 0,
          "durationTicks": 0,
          "midi": 51,
          "name": "D#3",
          "ticks": 53520,
          "time": 88.02623950000002,
          "velocity": 0.5039370078740157
        },
        {
          "duration": 0,
          "durationTicks": 0,
          "midi": 36,
          "name": "C2",
          "ticks": 53520,
          "time": 88.02623950000002,
          "velocity": 0.5826771653543307
        },
        {
          "duration": 0,
          "durationTicks": 0,
          "midi": 49,
          "name": "C#3",
          "ticks": 53760,
          "time": 88.42097600000001,
          "velocity": 0.3464566929133858
        },
        {
          "duration": 0,
          "durationTicks": 0,
          "midi": 36,
          "name": "C2",
          "ticks": 53760,
          "time": 88.42097600000001,
          "velocity": 0.5984251968503937
        },
        {
          "duration": 0,
          "durationTicks": 0,
          "midi": 51,
          "name": "D#3",
          "ticks": 54000,
          "time": 88.8157125,
          "velocity": 0.5039370078740157
        },
        {
          "duration": 0,
          "durationTicks": 0,
          "midi": 51,
          "name": "D#3",
          "ticks": 54240,
          "time": 89.21044900000001,
          "velocity": 0.5039370078740157
        },
        {
          "duration": 0,
          "durationTicks": 0,
          "midi": 38,
          "name": "D2",
          "ticks": 54240,
          "time": 89.21044900000001,
          "velocity": 0.5511811023622047
        },
        {
          "duration": 0,
          "durationTicks": 0,
          "midi": 51,
          "name": "D#3",
          "ticks": 54480,
          "time": 89.6051855,
          "velocity": 0.5039370078740157
        },
        {
          "duration": 0,
          "durationTicks": 0,
          "midi": 51,
          "name": "D#3",
          "ticks": 54720,
          "time": 89.99992200000001,
          "velocity": 0.44881889763779526
        },
        {
          "duration": 0,
          "durationTicks": 0,
          "midi": 36,
          "name": "C2",
          "ticks": 54720,
          "time": 89.99992200000001,
          "velocity": 0.5039370078740157
        },
        {
          "duration": 0,
          "durationTicks": 0,
          "midi": 51,
          "name": "D#3",
          "ticks": 54960,
          "time": 90.3946585,
          "velocity": 0.5039370078740157
        },
        {
          "duration": 0,
          "durationTicks": 0,
          "midi": 51,
          "name": "D#3",
          "ticks": 55200,
          "time": 90.78939500000001,
          "velocity": 0.5511811023622047
        },
        {
          "duration": 0,
          "durationTicks": 0,
          "midi": 38,
          "name": "D2",
          "ticks": 55200,
          "time": 90.78939500000001,
          "velocity": 0.5039370078740157
        },
        {
          "duration": 0,
          "durationTicks": 0,
          "midi": 51,
          "name": "D#3",
          "ticks": 55440,
          "time": 91.1841315,
          "velocity": 0.5511811023622047
        },
        {
          "duration": 0,
          "durationTicks": 0,
          "midi": 36,
          "name": "C2",
          "ticks": 55440,
          "time": 91.1841315,
          "velocity": 0.5039370078740157
        },
        {
          "duration": 0,
          "durationTicks": 0,
          "midi": 49,
          "name": "C#3",
          "ticks": 55680,
          "time": 91.57886800000001,
          "velocity": 0.3464566929133858
        },
        {
          "duration": 0,
          "durationTicks": 0,
          "midi": 36,
          "name": "C2",
          "ticks": 55680,
          "time": 91.57886800000001,
          "velocity": 0.5984251968503937
        },
        {
          "duration": 0,
          "durationTicks": 0,
          "midi": 51,
          "name": "D#3",
          "ticks": 55920,
          "time": 91.97360450000001,
          "velocity": 0.5039370078740157
        },
        {
          "duration": 0,
          "durationTicks": 0,
          "midi": 51,
          "name": "D#3",
          "ticks": 56160,
          "time": 92.36834100000002,
          "velocity": 0.44881889763779526
        },
        {
          "duration": 0,
          "durationTicks": 0,
          "midi": 38,
          "name": "D2",
          "ticks": 56160,
          "time": 92.36834100000002,
          "velocity": 0.5039370078740157
        },
        {
          "duration": 0,
          "durationTicks": 0,
          "midi": 51,
          "name": "D#3",
          "ticks": 56400,
          "time": 92.76307750000001,
          "velocity": 0.5039370078740157
        },
        {
          "duration": 0,
          "durationTicks": 0,
          "midi": 51,
          "name": "D#3",
          "ticks": 56640,
          "time": 93.15781400000002,
          "velocity": 0.5039370078740157
        },
        {
          "duration": 0,
          "durationTicks": 0,
          "midi": 36,
          "name": "C2",
          "ticks": 56640,
          "time": 93.15781400000002,
          "velocity": 0.5039370078740157
        },
        {
          "duration": 0,
          "durationTicks": 0,
          "midi": 51,
          "name": "D#3",
          "ticks": 56880,
          "time": 93.55255050000001,
          "velocity": 0.44881889763779526
        },
        {
          "duration": 0,
          "durationTicks": 0,
          "midi": 51,
          "name": "D#3",
          "ticks": 57120,
          "time": 93.94728700000002,
          "velocity": 0.44881889763779526
        },
        {
          "duration": 0,
          "durationTicks": 0,
          "midi": 38,
          "name": "D2",
          "ticks": 57120,
          "time": 93.94728700000002,
          "velocity": 0.5511811023622047
        },
        {
          "duration": 0,
          "durationTicks": 0,
          "midi": 51,
          "name": "D#3",
          "ticks": 57360,
          "time": 94.34202350000001,
          "velocity": 0.5511811023622047
        },
        {
          "duration": 0,
          "durationTicks": 0,
          "midi": 36,
          "name": "C2",
          "ticks": 57360,
          "time": 94.34202350000001,
          "velocity": 0.5511811023622047
        },
        {
          "duration": 0,
          "durationTicks": 0,
          "midi": 49,
          "name": "C#3",
          "ticks": 57600,
          "time": 94.73676,
          "velocity": 0.4015748031496063
        },
        {
          "duration": 0,
          "durationTicks": 0,
          "midi": 36,
          "name": "C2",
          "ticks": 57600,
          "time": 94.73676,
          "velocity": 0.5511811023622047
        },
        {
          "duration": 0,
          "durationTicks": 0,
          "midi": 51,
          "name": "D#3",
          "ticks": 57840,
          "time": 95.13149650000001,
          "velocity": 0.4015748031496063
        },
        {
          "duration": 0,
          "durationTicks": 0,
          "midi": 51,
          "name": "D#3",
          "ticks": 58080,
          "time": 95.526233,
          "velocity": 0.4015748031496063
        },
        {
          "duration": 0,
          "durationTicks": 0,
          "midi": 38,
          "name": "D2",
          "ticks": 58080,
          "time": 95.526233,
          "velocity": 0.5511811023622047
        },
        {
          "duration": 0,
          "durationTicks": 0,
          "midi": 51,
          "name": "D#3",
          "ticks": 58320,
          "time": 95.92096950000001,
          "velocity": 0.44881889763779526
        },
        {
          "duration": 0,
          "durationTicks": 0,
          "midi": 51,
          "name": "D#3",
          "ticks": 58560,
          "time": 96.315706,
          "velocity": 0.4015748031496063
        },
        {
          "duration": 0,
          "durationTicks": 0,
          "midi": 36,
          "name": "C2",
          "ticks": 58560,
          "time": 96.315706,
          "velocity": 0.5826771653543307
        },
        {
          "duration": 0,
          "durationTicks": 0,
          "midi": 51,
          "name": "D#3",
          "ticks": 58800,
          "time": 96.71044250000001,
          "velocity": 0.5039370078740157
        },
        {
          "duration": 0,
          "durationTicks": 0,
          "midi": 51,
          "name": "D#3",
          "ticks": 59040,
          "time": 97.105179,
          "velocity": 0.44881889763779526
        },
        {
          "duration": 0,
          "durationTicks": 0,
          "midi": 38,
          "name": "D2",
          "ticks": 59040,
          "time": 97.105179,
          "velocity": 0.5039370078740157
        },
        {
          "duration": 0,
          "durationTicks": 0,
          "midi": 51,
          "name": "D#3",
          "ticks": 59280,
          "time": 97.49991550000001,
          "velocity": 0.5039370078740157
        },
        {
          "duration": 0,
          "durationTicks": 0,
          "midi": 36,
          "name": "C2",
          "ticks": 59280,
          "time": 97.49991550000001,
          "velocity": 0.5354330708661418
        },
        {
          "duration": 0,
          "durationTicks": 0,
          "midi": 49,
          "name": "C#3",
          "ticks": 59520,
          "time": 97.89465200000001,
          "velocity": 0.4015748031496063
        },
        {
          "duration": 0,
          "durationTicks": 0,
          "midi": 36,
          "name": "C2",
          "ticks": 59520,
          "time": 97.89465200000001,
          "velocity": 0.5826771653543307
        },
        {
          "duration": 0,
          "durationTicks": 0,
          "midi": 51,
          "name": "D#3",
          "ticks": 59760,
          "time": 98.28938850000002,
          "velocity": 0.44881889763779526
        },
        {
          "duration": 0,
          "durationTicks": 0,
          "midi": 51,
          "name": "D#3",
          "ticks": 60000,
          "time": 98.68412500000001,
          "velocity": 0.44881889763779526
        },
        {
          "duration": 0,
          "durationTicks": 0,
          "midi": 38,
          "name": "D2",
          "ticks": 60000,
          "time": 98.68412500000001,
          "velocity": 0.5039370078740157
        },
        {
          "duration": 0,
          "durationTicks": 0,
          "midi": 51,
          "name": "D#3",
          "ticks": 60240,
          "time": 99.07886150000002,
          "velocity": 0.5039370078740157
        },
        {
          "duration": 0,
          "durationTicks": 0,
          "midi": 42,
          "name": "F#2",
          "ticks": 60480,
          "time": 99.47359800000001,
          "velocity": 0.5354330708661418
        },
        {
          "duration": 0,
          "durationTicks": 0,
          "midi": 42,
          "name": "F#2",
          "ticks": 60720,
          "time": 99.86833450000002,
          "velocity": 0.47244094488188976
        },
        {
          "duration": 0,
          "durationTicks": 0,
          "midi": 42,
          "name": "F#2",
          "ticks": 60960,
          "time": 100.26307100000001,
          "velocity": 0.5354330708661418
        },
        {
          "duration": 0,
          "durationTicks": 0,
          "midi": 41,
          "name": "F2",
          "ticks": 60960,
          "time": 100.26307100000001,
          "velocity": 0.5511811023622047
        },
        {
          "duration": 0,
          "durationTicks": 0,
          "midi": 38,
          "name": "D2",
          "ticks": 60960,
          "time": 100.26307100000001,
          "velocity": 0.5039370078740157
        },
        {
          "duration": 0,
          "durationTicks": 0,
          "midi": 42,
          "name": "F#2",
          "ticks": 61200,
          "time": 100.65780750000002,
          "velocity": 0.5354330708661418
        },
        {
          "duration": 0,
          "durationTicks": 0,
          "midi": 49,
          "name": "C#3",
          "ticks": 61440,
          "time": 101.05254400000001,
          "velocity": 0.3464566929133858
        },
        {
          "duration": 0,
          "durationTicks": 0,
          "midi": 36,
          "name": "C2",
          "ticks": 61440,
          "time": 101.05254400000001,
          "velocity": 0.5984251968503937
        },
        {
          "duration": 0,
          "durationTicks": 0,
          "midi": 51,
          "name": "D#3",
          "ticks": 61680,
          "time": 101.4472805,
          "velocity": 0.5039370078740157
        },
        {
          "duration": 0,
          "durationTicks": 0,
          "midi": 51,
          "name": "D#3",
          "ticks": 61920,
          "time": 101.84201700000001,
          "velocity": 0.5039370078740157
        },
        {
          "duration": 0,
          "durationTicks": 0,
          "midi": 38,
          "name": "D2",
          "ticks": 61920,
          "time": 101.84201700000001,
          "velocity": 0.5511811023622047
        },
        {
          "duration": 0,
          "durationTicks": 0,
          "midi": 51,
          "name": "D#3",
          "ticks": 62160,
          "time": 102.2367535,
          "velocity": 0.5039370078740157
        },
        {
          "duration": 0,
          "durationTicks": 0,
          "midi": 51,
          "name": "D#3",
          "ticks": 62400,
          "time": 102.63149000000001,
          "velocity": 0.44881889763779526
        },
        {
          "duration": 0,
          "durationTicks": 0,
          "midi": 36,
          "name": "C2",
          "ticks": 62400,
          "time": 102.63149000000001,
          "velocity": 0.5039370078740157
        },
        {
          "duration": 0,
          "durationTicks": 0,
          "midi": 51,
          "name": "D#3",
          "ticks": 62640,
          "time": 103.0262265,
          "velocity": 0.5039370078740157
        },
        {
          "duration": 0,
          "durationTicks": 0,
          "midi": 51,
          "name": "D#3",
          "ticks": 62880,
          "time": 103.42096300000001,
          "velocity": 0.5511811023622047
        },
        {
          "duration": 0,
          "durationTicks": 0,
          "midi": 38,
          "name": "D2",
          "ticks": 62880,
          "time": 103.42096300000001,
          "velocity": 0.5039370078740157
        },
        {
          "duration": 0,
          "durationTicks": 0,
          "midi": 51,
          "name": "D#3",
          "ticks": 63120,
          "time": 103.81569950000001,
          "velocity": 0.5511811023622047
        },
        {
          "duration": 0,
          "durationTicks": 0,
          "midi": 36,
          "name": "C2",
          "ticks": 63120,
          "time": 103.81569950000001,
          "velocity": 0.5039370078740157
        },
        {
          "duration": 0,
          "durationTicks": 0,
          "midi": 49,
          "name": "C#3",
          "ticks": 63360,
          "time": 104.21043600000002,
          "velocity": 0.3464566929133858
        },
        {
          "duration": 0,
          "durationTicks": 0,
          "midi": 36,
          "name": "C2",
          "ticks": 63360,
          "time": 104.21043600000002,
          "velocity": 0.5984251968503937
        },
        {
          "duration": 0,
          "durationTicks": 0,
          "midi": 51,
          "name": "D#3",
          "ticks": 63600,
          "time": 104.60517250000001,
          "velocity": 0.5039370078740157
        },
        {
          "duration": 0,
          "durationTicks": 0,
          "midi": 51,
          "name": "D#3",
          "ticks": 63840,
          "time": 104.99990900000002,
          "velocity": 0.44881889763779526
        },
        {
          "duration": 0,
          "durationTicks": 0,
          "midi": 38,
          "name": "D2",
          "ticks": 63840,
          "time": 104.99990900000002,
          "velocity": 0.5039370078740157
        },
        {
          "duration": 0,
          "durationTicks": 0,
          "midi": 51,
          "name": "D#3",
          "ticks": 64080,
          "time": 105.39464550000001,
          "velocity": 0.5039370078740157
        },
        {
          "duration": 0,
          "durationTicks": 0,
          "midi": 51,
          "name": "D#3",
          "ticks": 64320,
          "time": 105.78938200000002,
          "velocity": 0.5039370078740157
        },
        {
          "duration": 0,
          "durationTicks": 0,
          "midi": 36,
          "name": "C2",
          "ticks": 64320,
          "time": 105.78938200000002,
          "velocity": 0.5039370078740157
        },
        {
          "duration": 0,
          "durationTicks": 0,
          "midi": 51,
          "name": "D#3",
          "ticks": 64560,
          "time": 106.18411850000001,
          "velocity": 0.44881889763779526
        },
        {
          "duration": 0,
          "durationTicks": 0,
          "midi": 51,
          "name": "D#3",
          "ticks": 64800,
          "time": 106.57885500000002,
          "velocity": 0.44881889763779526
        },
        {
          "duration": 0,
          "durationTicks": 0,
          "midi": 38,
          "name": "D2",
          "ticks": 64800,
          "time": 106.57885500000002,
          "velocity": 0.5511811023622047
        },
        {
          "duration": 0,
          "durationTicks": 0,
          "midi": 51,
          "name": "D#3",
          "ticks": 65040,
          "time": 106.97359150000001,
          "velocity": 0.5511811023622047
        },
        {
          "duration": 0,
          "durationTicks": 0,
          "midi": 36,
          "name": "C2",
          "ticks": 65040,
          "time": 106.97359150000001,
          "velocity": 0.5511811023622047
        },
        {
          "duration": 0,
          "durationTicks": 0,
          "midi": 49,
          "name": "C#3",
          "ticks": 65280,
          "time": 107.36832800000002,
          "velocity": 0.4015748031496063
        },
        {
          "duration": 0,
          "durationTicks": 0,
          "midi": 36,
          "name": "C2",
          "ticks": 65280,
          "time": 107.36832800000002,
          "velocity": 0.5511811023622047
        },
        {
          "duration": 0,
          "durationTicks": 0,
          "midi": 51,
          "name": "D#3",
          "ticks": 65520,
          "time": 107.76306450000001,
          "velocity": 0.4015748031496063
        },
        {
          "duration": 0,
          "durationTicks": 0,
          "midi": 51,
          "name": "D#3",
          "ticks": 65760,
          "time": 108.157801,
          "velocity": 0.4015748031496063
        },
        {
          "duration": 0,
          "durationTicks": 0,
          "midi": 38,
          "name": "D2",
          "ticks": 65760,
          "time": 108.157801,
          "velocity": 0.5511811023622047
        },
        {
          "duration": 0,
          "durationTicks": 0,
          "midi": 51,
          "name": "D#3",
          "ticks": 66000,
          "time": 108.55253750000001,
          "velocity": 0.44881889763779526
        },
        {
          "duration": 0,
          "durationTicks": 0,
          "midi": 51,
          "name": "D#3",
          "ticks": 66240,
          "time": 108.94727400000001,
          "velocity": 0.4015748031496063
        },
        {
          "duration": 0,
          "durationTicks": 0,
          "midi": 36,
          "name": "C2",
          "ticks": 66240,
          "time": 108.94727400000001,
          "velocity": 0.5826771653543307
        },
        {
          "duration": 0,
          "durationTicks": 0,
          "midi": 51,
          "name": "D#3",
          "ticks": 66480,
          "time": 109.34201050000001,
          "velocity": 0.5039370078740157
        },
        {
          "duration": 0,
          "durationTicks": 0,
          "midi": 51,
          "name": "D#3",
          "ticks": 66720,
          "time": 109.73674700000001,
          "velocity": 0.44881889763779526
        },
        {
          "duration": 0,
          "durationTicks": 0,
          "midi": 38,
          "name": "D2",
          "ticks": 66720,
          "time": 109.73674700000001,
          "velocity": 0.5039370078740157
        },
        {
          "duration": 0,
          "durationTicks": 0,
          "midi": 51,
          "name": "D#3",
          "ticks": 66960,
          "time": 110.13148350000002,
          "velocity": 0.5039370078740157
        },
        {
          "duration": 0,
          "durationTicks": 0,
          "midi": 36,
          "name": "C2",
          "ticks": 66960,
          "time": 110.13148350000002,
          "velocity": 0.5354330708661418
        },
        {
          "duration": 0,
          "durationTicks": 0,
          "midi": 49,
          "name": "C#3",
          "ticks": 67200,
          "time": 110.52622000000001,
          "velocity": 0.4015748031496063
        },
        {
          "duration": 0,
          "durationTicks": 0,
          "midi": 36,
          "name": "C2",
          "ticks": 67200,
          "time": 110.52622000000001,
          "velocity": 0.5826771653543307
        },
        {
          "duration": 0,
          "durationTicks": 0,
          "midi": 51,
          "name": "D#3",
          "ticks": 67440,
          "time": 110.92095650000002,
          "velocity": 0.44881889763779526
        },
        {
          "duration": 0,
          "durationTicks": 0,
          "midi": 51,
          "name": "D#3",
          "ticks": 67680,
          "time": 111.31569300000001,
          "velocity": 0.44881889763779526
        },
        {
          "duration": 0,
          "durationTicks": 0,
          "midi": 38,
          "name": "D2",
          "ticks": 67680,
          "time": 111.31569300000001,
          "velocity": 0.5039370078740157
        },
        {
          "duration": 0,
          "durationTicks": 0,
          "midi": 51,
          "name": "D#3",
          "ticks": 67920,
          "time": 111.71042950000002,
          "velocity": 0.5039370078740157
        },
        {
          "duration": 0,
          "durationTicks": 0,
          "midi": 42,
          "name": "F#2",
          "ticks": 68160,
          "time": 112.10516600000001,
          "velocity": 0.5354330708661418
        },
        {
          "duration": 0,
          "durationTicks": 0,
          "midi": 42,
          "name": "F#2",
          "ticks": 68400,
          "time": 112.49990250000002,
          "velocity": 0.47244094488188976
        },
        {
          "duration": 0,
          "durationTicks": 0,
          "midi": 42,
          "name": "F#2",
          "ticks": 68640,
          "time": 112.89463900000001,
          "velocity": 0.5354330708661418
        },
        {
          "duration": 0,
          "durationTicks": 0,
          "midi": 41,
          "name": "F2",
          "ticks": 68640,
          "time": 112.89463900000001,
          "velocity": 0.5511811023622047
        },
        {
          "duration": 0,
          "durationTicks": 0,
          "midi": 38,
          "name": "D2",
          "ticks": 68640,
          "time": 112.89463900000001,
          "velocity": 0.5039370078740157
        },
        {
          "duration": 0,
          "durationTicks": 0,
          "midi": 42,
          "name": "F#2",
          "ticks": 68880,
          "time": 113.28937550000002,
          "velocity": 0.5354330708661418
        },
        {
          "duration": 0,
          "durationTicks": 0,
          "midi": 42,
          "name": "F#2",
          "ticks": 69120,
          "time": 113.68411200000001,
          "velocity": 0.5354330708661418
        },
        {
          "duration": 0,
          "durationTicks": 0,
          "midi": 36,
          "name": "C2",
          "ticks": 69120,
          "time": 113.68411200000001,
          "velocity": 0.5984251968503937
        },
        {
          "duration": 0,
          "durationTicks": 0,
          "midi": 42,
          "name": "F#2",
          "ticks": 69360,
          "time": 114.0788485,
          "velocity": 0.47244094488188976
        },
        {
          "duration": 0,
          "durationTicks": 0,
          "midi": 42,
          "name": "F#2",
          "ticks": 69600,
          "time": 114.47358500000001,
          "velocity": 0.5354330708661418
        },
        {
          "duration": 0,
          "durationTicks": 0,
          "midi": 54,
          "name": "F#3",
          "ticks": 69600,
          "time": 114.47358500000001,
          "velocity": 0.5826771653543307
        },
        {
          "duration": 0,
          "durationTicks": 0,
          "midi": 37,
          "name": "C#2",
          "ticks": 69600,
          "time": 114.47358500000001,
          "velocity": 0.5354330708661418
        },
        {
          "duration": 0,
          "durationTicks": 0,
          "midi": 54,
          "name": "F#3",
          "ticks": 69720,
          "time": 114.67095325000001,
          "velocity": 0.3700787401574803
        },
        {
          "duration": 0,
          "durationTicks": 0,
          "midi": 42,
          "name": "F#2",
          "ticks": 69840,
          "time": 114.86832150000001,
          "velocity": 0.5354330708661418
        },
        {
          "duration": 0,
          "durationTicks": 0,
          "midi": 54,
          "name": "F#3",
          "ticks": 69840,
          "time": 114.86832150000001,
          "velocity": 0.25984251968503935
        },
        {
          "duration": 0,
          "durationTicks": 0,
          "midi": 54,
          "name": "F#3",
          "ticks": 69960,
          "time": 115.06568975000002,
          "velocity": 0.10236220472440945
        },
        {
          "duration": 0,
          "durationTicks": 0,
          "midi": 42,
          "name": "F#2",
          "ticks": 70080,
          "time": 115.26305800000002,
          "velocity": 0.5354330708661418
        },
        {
          "duration": 0,
          "durationTicks": 0,
          "midi": 36,
          "name": "C2",
          "ticks": 70080,
          "time": 115.26305800000002,
          "velocity": 0.5039370078740157
        },
        {
          "duration": 0,
          "durationTicks": 0,
          "midi": 42,
          "name": "F#2",
          "ticks": 70320,
          "time": 115.65779450000001,
          "velocity": 0.5354330708661418
        },
        {
          "duration": 0,
          "durationTicks": 0,
          "midi": 42,
          "name": "F#2",
          "ticks": 70560,
          "time": 116.05253100000002,
          "velocity": 0.5826771653543307
        },
        {
          "duration": 0,
          "durationTicks": 0,
          "midi": 37,
          "name": "C#2",
          "ticks": 70560,
          "time": 116.05253100000002,
          "velocity": 0.5354330708661418
        },
        {
          "duration": 0,
          "durationTicks": 0,
          "midi": 42,
          "name": "F#2",
          "ticks": 70800,
          "time": 116.44726750000001,
          "velocity": 0.5354330708661418
        },
        {
          "duration": 0,
          "durationTicks": 0,
          "midi": 36,
          "name": "C2",
          "ticks": 70800,
          "time": 116.44726750000001,
          "velocity": 0.5039370078740157
        },
        {
          "duration": 0,
          "durationTicks": 0,
          "midi": 42,
          "name": "F#2",
          "ticks": 71040,
          "time": 116.84200400000002,
          "velocity": 0.5354330708661418
        },
        {
          "duration": 0,
          "durationTicks": 0,
          "midi": 36,
          "name": "C2",
          "ticks": 71040,
          "time": 116.84200400000002,
          "velocity": 0.5984251968503937
        },
        {
          "duration": 0,
          "durationTicks": 0,
          "midi": 42,
          "name": "F#2",
          "ticks": 71280,
          "time": 117.23674050000001,
          "velocity": 0.47244094488188976
        },
        {
          "duration": 0,
          "durationTicks": 0,
          "midi": 42,
          "name": "F#2",
          "ticks": 71520,
          "time": 117.63147700000002,
          "velocity": 0.5354330708661418
        },
        {
          "duration": 0,
          "durationTicks": 0,
          "midi": 54,
          "name": "F#3",
          "ticks": 71520,
          "time": 117.63147700000002,
          "velocity": 0.5826771653543307
        },
        {
          "duration": 0,
          "durationTicks": 0,
          "midi": 37,
          "name": "C#2",
          "ticks": 71520,
          "time": 117.63147700000002,
          "velocity": 0.47244094488188976
        },
        {
          "duration": 0,
          "durationTicks": 0,
          "midi": 54,
          "name": "F#3",
          "ticks": 71640,
          "time": 117.82884525000001,
          "velocity": 0.3700787401574803
        },
        {
          "duration": 0,
          "durationTicks": 0,
          "midi": 42,
          "name": "F#2",
          "ticks": 71760,
          "time": 118.02621350000001,
          "velocity": 0.5354330708661418
        },
        {
          "duration": 0,
          "durationTicks": 0,
          "midi": 54,
          "name": "F#3",
          "ticks": 71760,
          "time": 118.02621350000001,
          "velocity": 0.25984251968503935
        },
        {
          "duration": 0,
          "durationTicks": 0,
          "midi": 54,
          "name": "F#3",
          "ticks": 71880,
          "time": 118.22358175000001,
          "velocity": 0.10236220472440945
        },
        {
          "duration": 0,
          "durationTicks": 0,
          "midi": 42,
          "name": "F#2",
          "ticks": 72000,
          "time": 118.42095000000002,
          "velocity": 0.5354330708661418
        },
        {
          "duration": 0,
          "durationTicks": 0,
          "midi": 36,
          "name": "C2",
          "ticks": 72000,
          "time": 118.42095000000002,
          "velocity": 0.5039370078740157
        },
        {
          "duration": 0,
          "durationTicks": 0,
          "midi": 42,
          "name": "F#2",
          "ticks": 72240,
          "time": 118.81568650000001,
          "velocity": 0.5354330708661418
        },
        {
          "duration": 0,
          "durationTicks": 0,
          "midi": 42,
          "name": "F#2",
          "ticks": 72480,
          "time": 119.21042300000002,
          "velocity": 0.5826771653543307
        },
        {
          "duration": 0,
          "durationTicks": 0,
          "midi": 37,
          "name": "C#2",
          "ticks": 72480,
          "time": 119.21042300000002,
          "velocity": 0.47244094488188976
        },
        {
          "duration": 0,
          "durationTicks": 0,
          "midi": 46,
          "name": "A#2",
          "ticks": 72720,
          "time": 119.60515950000001,
          "velocity": 0.5354330708661418
        },
        {
          "duration": 0,
          "durationTicks": 0,
          "midi": 36,
          "name": "C2",
          "ticks": 72720,
          "time": 119.60515950000001,
          "velocity": 0.5511811023622047
        },
        {
          "duration": 0,
          "durationTicks": 0,
          "midi": 42,
          "name": "F#2",
          "ticks": 72960,
          "time": 119.999896,
          "velocity": 0.5354330708661418
        },
        {
          "duration": 0,
          "durationTicks": 0,
          "midi": 36,
          "name": "C2",
          "ticks": 72960,
          "time": 119.999896,
          "velocity": 0.5511811023622047
        },
        {
          "duration": 0,
          "durationTicks": 0,
          "midi": 42,
          "name": "F#2",
          "ticks": 73200,
          "time": 120.39463250000001,
          "velocity": 0.47244094488188976
        },
        {
          "duration": 0,
          "durationTicks": 0,
          "midi": 42,
          "name": "F#2",
          "ticks": 73440,
          "time": 120.78936900000001,
          "velocity": 0.5354330708661418
        },
        {
          "duration": 0,
          "durationTicks": 0,
          "midi": 54,
          "name": "F#3",
          "ticks": 73440,
          "time": 120.78936900000001,
          "velocity": 0.5826771653543307
        },
        {
          "duration": 0,
          "durationTicks": 0,
          "midi": 37,
          "name": "C#2",
          "ticks": 73440,
          "time": 120.78936900000001,
          "velocity": 0.5354330708661418
        },
        {
          "duration": 0,
          "durationTicks": 0,
          "midi": 54,
          "name": "F#3",
          "ticks": 73560,
          "time": 120.98673725000002,
          "velocity": 0.3700787401574803
        },
        {
          "duration": 0,
          "durationTicks": 0,
          "midi": 42,
          "name": "F#2",
          "ticks": 73680,
          "time": 121.18410550000002,
          "velocity": 0.5354330708661418
        },
        {
          "duration": 0,
          "durationTicks": 0,
          "midi": 54,
          "name": "F#3",
          "ticks": 73680,
          "time": 121.18410550000002,
          "velocity": 0.25984251968503935
        },
        {
          "duration": 0,
          "durationTicks": 0,
          "midi": 54,
          "name": "F#3",
          "ticks": 73800,
          "time": 121.38147375000001,
          "velocity": 0.10236220472440945
        },
        {
          "duration": 0,
          "durationTicks": 0,
          "midi": 42,
          "name": "F#2",
          "ticks": 73920,
          "time": 121.57884200000001,
          "velocity": 0.5354330708661418
        },
        {
          "duration": 0,
          "durationTicks": 0,
          "midi": 36,
          "name": "C2",
          "ticks": 73920,
          "time": 121.57884200000001,
          "velocity": 0.5826771653543307
        },
        {
          "duration": 0,
          "durationTicks": 0,
          "midi": 42,
          "name": "F#2",
          "ticks": 74160,
          "time": 121.97357850000002,
          "velocity": 0.5354330708661418
        },
        {
          "duration": 0,
          "durationTicks": 0,
          "midi": 42,
          "name": "F#2",
          "ticks": 74400,
          "time": 122.36831500000001,
          "velocity": 0.5826771653543307
        },
        {
          "duration": 0,
          "durationTicks": 0,
          "midi": 37,
          "name": "C#2",
          "ticks": 74400,
          "time": 122.36831500000001,
          "velocity": 0.4251968503937008
        },
        {
          "duration": 0,
          "durationTicks": 0,
          "midi": 42,
          "name": "F#2",
          "ticks": 74640,
          "time": 122.76305150000002,
          "velocity": 0.5354330708661418
        },
        {
          "duration": 0,
          "durationTicks": 0,
          "midi": 36,
          "name": "C2",
          "ticks": 74640,
          "time": 122.76305150000002,
          "velocity": 0.5354330708661418
        },
        {
          "duration": 0,
          "durationTicks": 0,
          "midi": 42,
          "name": "F#2",
          "ticks": 74880,
          "time": 123.15778800000001,
          "velocity": 0.5354330708661418
        },
        {
          "duration": 0,
          "durationTicks": 0,
          "midi": 36,
          "name": "C2",
          "ticks": 74880,
          "time": 123.15778800000001,
          "velocity": 0.5826771653543307
        },
        {
          "duration": 0,
          "durationTicks": 0,
          "midi": 42,
          "name": "F#2",
          "ticks": 75120,
          "time": 123.55252450000002,
          "velocity": 0.47244094488188976
        },
        {
          "duration": 0,
          "durationTicks": 0,
          "midi": 42,
          "name": "F#2",
          "ticks": 75360,
          "time": 123.94726100000001,
          "velocity": 0.5354330708661418
        },
        {
          "duration": 0,
          "durationTicks": 0,
          "midi": 54,
          "name": "F#3",
          "ticks": 75360,
          "time": 123.94726100000001,
          "velocity": 0.5826771653543307
        },
        {
          "duration": 0,
          "durationTicks": 0,
          "midi": 37,
          "name": "C#2",
          "ticks": 75360,
          "time": 123.94726100000001,
          "velocity": 0.5354330708661418
        },
        {
          "duration": 0,
          "durationTicks": 0,
          "midi": 54,
          "name": "F#3",
          "ticks": 75480,
          "time": 124.14462925000001,
          "velocity": 0.3700787401574803
        },
        {
          "duration": 0,
          "durationTicks": 0,
          "midi": 42,
          "name": "F#2",
          "ticks": 75600,
          "time": 124.34199750000002,
          "velocity": 0.5354330708661418
        },
        {
          "duration": 0,
          "durationTicks": 0,
          "midi": 54,
          "name": "F#3",
          "ticks": 75600,
          "time": 124.34199750000002,
          "velocity": 0.25984251968503935
        },
        {
          "duration": 0,
          "durationTicks": 0,
          "midi": 54,
          "name": "F#3",
          "ticks": 75720,
          "time": 124.53936575000002,
          "velocity": 0.10236220472440945
        },
        {
          "duration": 0,
          "durationTicks": 0,
          "midi": 36,
          "name": "C2",
          "ticks": 75840,
          "time": 124.73673400000001,
          "velocity": 0.5826771653543307
        },
        {
          "duration": 0,
          "durationTicks": 0,
          "midi": 42,
          "name": "F#2",
          "ticks": 75840,
          "time": 124.73673400000001,
          "velocity": 0.5354330708661418
        },
        {
          "duration": 0,
          "durationTicks": 0,
          "midi": 42,
          "name": "F#2",
          "ticks": 76080,
          "time": 125.13147050000002,
          "velocity": 0.47244094488188976
        },
        {
          "duration": 0,
          "durationTicks": 0,
          "midi": 42,
          "name": "F#2",
          "ticks": 76320,
          "time": 125.52620700000001,
          "velocity": 0.5354330708661418
        },
        {
          "duration": 0,
          "durationTicks": 0,
          "midi": 54,
          "name": "F#3",
          "ticks": 76320,
          "time": 125.52620700000001,
          "velocity": 0.5826771653543307
        },
        {
          "duration": 0,
          "durationTicks": 0,
          "midi": 37,
          "name": "C#2",
          "ticks": 76320,
          "time": 125.52620700000001,
          "velocity": 0.5354330708661418
        },
        {
          "duration": 0,
          "durationTicks": 0,
          "midi": 54,
          "name": "F#3",
          "ticks": 76440,
          "time": 125.72357525000001,
          "velocity": 0.3700787401574803
        },
        {
          "duration": 0,
          "durationTicks": 0,
          "midi": 42,
          "name": "F#2",
          "ticks": 76560,
          "time": 125.92094350000002,
          "velocity": 0.5354330708661418
        },
        {
          "duration": 0,
          "durationTicks": 0,
          "midi": 54,
          "name": "F#3",
          "ticks": 76560,
          "time": 125.92094350000002,
          "velocity": 0.25984251968503935
        },
        {
          "duration": 0,
          "durationTicks": 0,
          "midi": 64,
          "name": "E4",
          "ticks": 76560,
          "time": 125.92094350000002,
          "velocity": 0.6299212598425197
        },
        {
          "duration": 0,
          "durationTicks": 0,
          "midi": 54,
          "name": "F#3",
          "ticks": 76680,
          "time": 126.11831175000002,
          "velocity": 0.10236220472440945
        },
        {
          "duration": 0,
          "durationTicks": 0,
          "midi": 42,
          "name": "F#2",
          "ticks": 76800,
          "time": 126.31568000000001,
          "velocity": 0.5354330708661418
        },
        {
          "duration": 0,
          "durationTicks": 0,
          "midi": 36,
          "name": "C2",
          "ticks": 76800,
          "time": 126.31568000000001,
          "velocity": 0.5984251968503937
        },
        {
          "duration": 0,
          "durationTicks": 0,
          "midi": 42,
          "name": "F#2",
          "ticks": 77040,
          "time": 126.71041650000001,
          "velocity": 0.47244094488188976
        },
        {
          "duration": 0,
          "durationTicks": 0,
          "midi": 51,
          "name": "D#3",
          "ticks": 77040,
          "time": 126.71041650000001,
          "velocity": 0.5354330708661418
        },
        {
          "duration": 0,
          "durationTicks": 0,
          "midi": 42,
          "name": "F#2",
          "ticks": 77280,
          "time": 127.10515300000002,
          "velocity": 0.5354330708661418
        },
        {
          "duration": 0,
          "durationTicks": 0,
          "midi": 51,
          "name": "D#3",
          "ticks": 77280,
          "time": 127.10515300000002,
          "velocity": 0.47244094488188976
        },
        {
          "duration": 0,
          "durationTicks": 0,
          "midi": 41,
          "name": "F2",
          "ticks": 77280,
          "time": 127.10515300000002,
          "velocity": 0.5511811023622047
        },
        {
          "duration": 0,
          "durationTicks": 0,
          "midi": 38,
          "name": "D2",
          "ticks": 77280,
          "time": 127.10515300000002,
          "velocity": 0.5511811023622047
        },
        {
          "duration": 0,
          "durationTicks": 0,
          "midi": 42,
          "name": "F#2",
          "ticks": 77520,
          "time": 127.49988950000001,
          "velocity": 0.5354330708661418
        },
        {
          "duration": 0,
          "durationTicks": 0,
          "midi": 51,
          "name": "D#3",
          "ticks": 77520,
          "time": 127.49988950000001,
          "velocity": 0.5354330708661418
        },
        {
          "duration": 0,
          "durationTicks": 0,
          "midi": 42,
          "name": "F#2",
          "ticks": 77760,
          "time": 127.89462600000002,
          "velocity": 0.5354330708661418
        },
        {
          "duration": 0,
          "durationTicks": 0,
          "midi": 51,
          "name": "D#3",
          "ticks": 77760,
          "time": 127.89462600000002,
          "velocity": 0.5354330708661418
        },
        {
          "duration": 0,
          "durationTicks": 0,
          "midi": 36,
          "name": "C2",
          "ticks": 77760,
          "time": 127.89462600000002,
          "velocity": 0.5039370078740157
        },
        {
          "duration": 0,
          "durationTicks": 0,
          "midi": 42,
          "name": "F#2",
          "ticks": 78000,
          "time": 128.2893625,
          "velocity": 0.5354330708661418
        },
        {
          "duration": 0,
          "durationTicks": 0,
          "midi": 51,
          "name": "D#3",
          "ticks": 78000,
          "time": 128.2893625,
          "velocity": 0.5354330708661418
        },
        {
          "duration": 0,
          "durationTicks": 0,
          "midi": 42,
          "name": "F#2",
          "ticks": 78240,
          "time": 128.684099,
          "velocity": 0.5826771653543307
        },
        {
          "duration": 0,
          "durationTicks": 0,
          "midi": 51,
          "name": "D#3",
          "ticks": 78240,
          "time": 128.684099,
          "velocity": 0.47244094488188976
        },
        {
          "duration": 0,
          "durationTicks": 0,
          "midi": 41,
          "name": "F2",
          "ticks": 78240,
          "time": 128.684099,
          "velocity": 0.5511811023622047
        },
        {
          "duration": 0,
          "durationTicks": 0,
          "midi": 38,
          "name": "D2",
          "ticks": 78240,
          "time": 128.684099,
          "velocity": 0.5039370078740157
        },
        {
          "duration": 0,
          "durationTicks": 0,
          "midi": 42,
          "name": "F#2",
          "ticks": 78480,
          "time": 129.07883550000003,
          "velocity": 0.5354330708661418
        },
        {
          "duration": 0,
          "durationTicks": 0,
          "midi": 51,
          "name": "D#3",
          "ticks": 78480,
          "time": 129.07883550000003,
          "velocity": 0.5826771653543307
        },
        {
          "duration": 0,
          "durationTicks": 0,
          "midi": 36,
          "name": "C2",
          "ticks": 78480,
          "time": 129.07883550000003,
          "velocity": 0.5039370078740157
        },
        {
          "duration": 0,
          "durationTicks": 0,
          "midi": 42,
          "name": "F#2",
          "ticks": 78720,
          "time": 129.47357200000002,
          "velocity": 0.5354330708661418
        },
        {
          "duration": 0,
          "durationTicks": 0,
          "midi": 51,
          "name": "D#3",
          "ticks": 78720,
          "time": 129.47357200000002,
          "velocity": 0.5354330708661418
        },
        {
          "duration": 0,
          "durationTicks": 0,
          "midi": 36,
          "name": "C2",
          "ticks": 78720,
          "time": 129.47357200000002,
          "velocity": 0.5984251968503937
        },
        {
          "duration": 0,
          "durationTicks": 0,
          "midi": 42,
          "name": "F#2",
          "ticks": 78960,
          "time": 129.8683085,
          "velocity": 0.47244094488188976
        },
        {
          "duration": 0,
          "durationTicks": 0,
          "midi": 51,
          "name": "D#3",
          "ticks": 78960,
          "time": 129.8683085,
          "velocity": 0.47244094488188976
        },
        {
          "duration": 0,
          "durationTicks": 0,
          "midi": 42,
          "name": "F#2",
          "ticks": 79200,
          "time": 130.263045,
          "velocity": 0.5354330708661418
        },
        {
          "duration": 0,
          "durationTicks": 0,
          "midi": 51,
          "name": "D#3",
          "ticks": 79200,
          "time": 130.263045,
          "velocity": 0.4251968503937008
        },
        {
          "duration": 0,
          "durationTicks": 0,
          "midi": 41,
          "name": "F2",
          "ticks": 79200,
          "time": 130.263045,
          "velocity": 0.5511811023622047
        },
        {
          "duration": 0,
          "durationTicks": 0,
          "midi": 38,
          "name": "D2",
          "ticks": 79200,
          "time": 130.263045,
          "velocity": 0.5039370078740157
        },
        {
          "duration": 0,
          "durationTicks": 0,
          "midi": 42,
          "name": "F#2",
          "ticks": 79440,
          "time": 130.65778150000003,
          "velocity": 0.5354330708661418
        },
        {
          "duration": 0,
          "durationTicks": 0,
          "midi": 51,
          "name": "D#3",
          "ticks": 79440,
          "time": 130.65778150000003,
          "velocity": 0.4251968503937008
        },
        {
          "duration": 0,
          "durationTicks": 0,
          "midi": 42,
          "name": "F#2",
          "ticks": 79680,
          "time": 131.05251800000002,
          "velocity": 0.5354330708661418
        },
        {
          "duration": 0,
          "durationTicks": 0,
          "midi": 51,
          "name": "D#3",
          "ticks": 79680,
          "time": 131.05251800000002,
          "velocity": 0.5826771653543307
        },
        {
          "duration": 0,
          "durationTicks": 0,
          "midi": 36,
          "name": "C2",
          "ticks": 79680,
          "time": 131.05251800000002,
          "velocity": 0.5039370078740157
        },
        {
          "duration": 0,
          "durationTicks": 0,
          "midi": 42,
          "name": "F#2",
          "ticks": 79920,
          "time": 131.4472545,
          "velocity": 0.5354330708661418
        },
        {
          "duration": 0,
          "durationTicks": 0,
          "midi": 51,
          "name": "D#3",
          "ticks": 79920,
          "time": 131.4472545,
          "velocity": 0.47244094488188976
        },
        {
          "duration": 0,
          "durationTicks": 0,
          "midi": 42,
          "name": "F#2",
          "ticks": 80160,
          "time": 131.841991,
          "velocity": 0.5826771653543307
        },
        {
          "duration": 0,
          "durationTicks": 0,
          "midi": 51,
          "name": "D#3",
          "ticks": 80160,
          "time": 131.841991,
          "velocity": 0.47244094488188976
        },
        {
          "duration": 0,
          "durationTicks": 0,
          "midi": 41,
          "name": "F2",
          "ticks": 80160,
          "time": 131.841991,
          "velocity": 0.5511811023622047
        },
        {
          "duration": 0,
          "durationTicks": 0,
          "midi": 38,
          "name": "D2",
          "ticks": 80160,
          "time": 131.841991,
          "velocity": 0.5511811023622047
        },
        {
          "duration": 0,
          "durationTicks": 0,
          "midi": 46,
          "name": "A#2",
          "ticks": 80400,
          "time": 132.23672750000003,
          "velocity": 0.5354330708661418
        },
        {
          "duration": 0,
          "durationTicks": 0,
          "midi": 51,
          "name": "D#3",
          "ticks": 80400,
          "time": 132.23672750000003,
          "velocity": 0.47244094488188976
        },
        {
          "duration": 0,
          "durationTicks": 0,
          "midi": 36,
          "name": "C2",
          "ticks": 80400,
          "time": 132.23672750000003,
          "velocity": 0.5511811023622047
        },
        {
          "duration": 0,
          "durationTicks": 0,
          "midi": 36,
          "name": "C2",
          "ticks": 80640,
          "time": 132.63146400000002,
          "velocity": 0.5984251968503937
        },
        {
          "duration": 0,
          "durationTicks": 0,
          "midi": 42,
          "name": "F#2",
          "ticks": 80640,
          "time": 132.63146400000002,
          "velocity": 0.5354330708661418
        },
        {
          "duration": 0,
          "durationTicks": 0,
          "midi": 49,
          "name": "C#3",
          "ticks": 80640,
          "time": 132.63146400000002,
          "velocity": 0.5826771653543307
        },
        {
          "duration": 0,
          "durationTicks": 0,
          "midi": 42,
          "name": "F#2",
          "ticks": 80880,
          "time": 133.02620050000002,
          "velocity": 0.47244094488188976
        },
        {
          "duration": 0,
          "durationTicks": 0,
          "midi": 51,
          "name": "D#3",
          "ticks": 80880,
          "time": 133.02620050000002,
          "velocity": 0.5354330708661418
        },
        {
          "duration": 0,
          "durationTicks": 0,
          "midi": 41,
          "name": "F2",
          "ticks": 81120,
          "time": 133.420937,
          "velocity": 0.5511811023622047
        },
        {
          "duration": 0,
          "durationTicks": 0,
          "midi": 42,
          "name": "F#2",
          "ticks": 81120,
          "time": 133.420937,
          "velocity": 0.5354330708661418
        },
        {
          "duration": 0,
          "durationTicks": 0,
          "midi": 51,
          "name": "D#3",
          "ticks": 81120,
          "time": 133.420937,
          "velocity": 0.47244094488188976
        },
        {
          "duration": 0,
          "durationTicks": 0,
          "midi": 38,
          "name": "D2",
          "ticks": 81120,
          "time": 133.420937,
          "velocity": 0.5511811023622047
        },
        {
          "duration": 0,
          "durationTicks": 0,
          "midi": 42,
          "name": "F#2",
          "ticks": 81360,
          "time": 133.8156735,
          "velocity": 0.5354330708661418
        },
        {
          "duration": 0,
          "durationTicks": 0,
          "midi": 51,
          "name": "D#3",
          "ticks": 81360,
          "time": 133.8156735,
          "velocity": 0.5354330708661418
        },
        {
          "duration": 0,
          "durationTicks": 0,
          "midi": 36,
          "name": "C2",
          "ticks": 81600,
          "time": 134.21041000000002,
          "velocity": 0.5039370078740157
        },
        {
          "duration": 0,
          "durationTicks": 0,
          "midi": 42,
          "name": "F#2",
          "ticks": 81600,
          "time": 134.21041000000002,
          "velocity": 0.5354330708661418
        },
        {
          "duration": 0,
          "durationTicks": 0,
          "midi": 51,
          "name": "D#3",
          "ticks": 81600,
          "time": 134.21041000000002,
          "velocity": 0.5354330708661418
        },
        {
          "duration": 0,
          "durationTicks": 0,
          "midi": 42,
          "name": "F#2",
          "ticks": 81840,
          "time": 134.60514650000002,
          "velocity": 0.5354330708661418
        },
        {
          "duration": 0,
          "durationTicks": 0,
          "midi": 51,
          "name": "D#3",
          "ticks": 81840,
          "time": 134.60514650000002,
          "velocity": 0.5354330708661418
        },
        {
          "duration": 0,
          "durationTicks": 0,
          "midi": 41,
          "name": "F2",
          "ticks": 82080,
          "time": 134.999883,
          "velocity": 0.5511811023622047
        },
        {
          "duration": 0,
          "durationTicks": 0,
          "midi": 42,
          "name": "F#2",
          "ticks": 82080,
          "time": 134.999883,
          "velocity": 0.5826771653543307
        },
        {
          "duration": 0,
          "durationTicks": 0,
          "midi": 51,
          "name": "D#3",
          "ticks": 82080,
          "time": 134.999883,
          "velocity": 0.47244094488188976
        },
        {
          "duration": 0,
          "durationTicks": 0,
          "midi": 38,
          "name": "D2",
          "ticks": 82080,
          "time": 134.999883,
          "velocity": 0.5039370078740157
        },
        {
          "duration": 0,
          "durationTicks": 0,
          "midi": 36,
          "name": "C2",
          "ticks": 82320,
          "time": 135.3946195,
          "velocity": 0.5039370078740157
        },
        {
          "duration": 0,
          "durationTicks": 0,
          "midi": 42,
          "name": "F#2",
          "ticks": 82320,
          "time": 135.3946195,
          "velocity": 0.5354330708661418
        },
        {
          "duration": 0,
          "durationTicks": 0,
          "midi": 51,
          "name": "D#3",
          "ticks": 82320,
          "time": 135.3946195,
          "velocity": 0.5826771653543307
        },
        {
          "duration": 0,
          "durationTicks": 0,
          "midi": 36,
          "name": "C2",
          "ticks": 82560,
          "time": 135.78935600000003,
          "velocity": 0.5984251968503937
        },
        {
          "duration": 0,
          "durationTicks": 0,
          "midi": 42,
          "name": "F#2",
          "ticks": 82560,
          "time": 135.78935600000003,
          "velocity": 0.5354330708661418
        },
        {
          "duration": 0,
          "durationTicks": 0,
          "midi": 51,
          "name": "D#3",
          "ticks": 82560,
          "time": 135.78935600000003,
          "velocity": 0.5354330708661418
        },
        {
          "duration": 0,
          "durationTicks": 0,
          "midi": 42,
          "name": "F#2",
          "ticks": 82800,
          "time": 136.18409250000002,
          "velocity": 0.47244094488188976
        },
        {
          "duration": 0,
          "durationTicks": 0,
          "midi": 51,
          "name": "D#3",
          "ticks": 82800,
          "time": 136.18409250000002,
          "velocity": 0.47244094488188976
        },
        {
          "duration": 0,
          "durationTicks": 0,
          "midi": 41,
          "name": "F2",
          "ticks": 83040,
          "time": 136.578829,
          "velocity": 0.5511811023622047
        },
        {
          "duration": 0,
          "durationTicks": 0,
          "midi": 42,
          "name": "F#2",
          "ticks": 83040,
          "time": 136.578829,
          "velocity": 0.5354330708661418
        },
        {
          "duration": 0,
          "durationTicks": 0,
          "midi": 51,
          "name": "D#3",
          "ticks": 83040,
          "time": 136.578829,
          "velocity": 0.4251968503937008
        },
        {
          "duration": 0,
          "durationTicks": 0,
          "midi": 38,
          "name": "D2",
          "ticks": 83040,
          "time": 136.578829,
          "velocity": 0.5039370078740157
        },
        {
          "duration": 0,
          "durationTicks": 0,
          "midi": 42,
          "name": "F#2",
          "ticks": 83280,
          "time": 136.9735655,
          "velocity": 0.5354330708661418
        },
        {
          "duration": 0,
          "durationTicks": 0,
          "midi": 51,
          "name": "D#3",
          "ticks": 83280,
          "time": 136.9735655,
          "velocity": 0.4251968503937008
        },
        {
          "duration": 0,
          "durationTicks": 0,
          "midi": 36,
          "name": "C2",
          "ticks": 83520,
          "time": 137.36830200000003,
          "velocity": 0.5039370078740157
        },
        {
          "duration": 0,
          "durationTicks": 0,
          "midi": 42,
          "name": "F#2",
          "ticks": 83520,
          "time": 137.36830200000003,
          "velocity": 0.5354330708661418
        },
        {
          "duration": 0,
          "durationTicks": 0,
          "midi": 51,
          "name": "D#3",
          "ticks": 83520,
          "time": 137.36830200000003,
          "velocity": 0.5826771653543307
        },
        {
          "duration": 0,
          "durationTicks": 0,
          "midi": 42,
          "name": "F#2",
          "ticks": 83760,
          "time": 137.76303850000002,
          "velocity": 0.5354330708661418
        },
        {
          "duration": 0,
          "durationTicks": 0,
          "midi": 51,
          "name": "D#3",
          "ticks": 83760,
          "time": 137.76303850000002,
          "velocity": 0.47244094488188976
        },
        {
          "duration": 0,
          "durationTicks": 0,
          "midi": 41,
          "name": "F2",
          "ticks": 84000,
          "time": 138.15777500000002,
          "velocity": 0.5511811023622047
        },
        {
          "duration": 0,
          "durationTicks": 0,
          "midi": 42,
          "name": "F#2",
          "ticks": 84000,
          "time": 138.15777500000002,
          "velocity": 0.5826771653543307
        },
        {
          "duration": 0,
          "durationTicks": 0,
          "midi": 51,
          "name": "D#3",
          "ticks": 84000,
          "time": 138.15777500000002,
          "velocity": 0.47244094488188976
        },
        {
          "duration": 0,
          "durationTicks": 0,
          "midi": 38,
          "name": "D2",
          "ticks": 84000,
          "time": 138.15777500000002,
          "velocity": 0.5511811023622047
        },
        {
          "duration": 0,
          "durationTicks": 0,
          "midi": 36,
          "name": "C2",
          "ticks": 84240,
          "time": 138.5525115,
          "velocity": 0.5511811023622047
        },
        {
          "duration": 0,
          "durationTicks": 0,
          "midi": 46,
          "name": "A#2",
          "ticks": 84240,
          "time": 138.5525115,
          "velocity": 0.5354330708661418
        },
        {
          "duration": 0,
          "durationTicks": 0,
          "midi": 51,
          "name": "D#3",
          "ticks": 84240,
          "time": 138.5525115,
          "velocity": 0.47244094488188976
        },
        {
          "duration": 0,
          "durationTicks": 0,
          "midi": 42,
          "name": "F#2",
          "ticks": 84480,
          "time": 138.947248,
          "velocity": 0.5354330708661418
        },
        {
          "duration": 0,
          "durationTicks": 0,
          "midi": 36,
          "name": "C2",
          "ticks": 84480,
          "time": 138.947248,
          "velocity": 0.5984251968503937
        },
        {
          "duration": 0,
          "durationTicks": 0,
          "midi": 42,
          "name": "F#2",
          "ticks": 84720,
          "time": 139.34198450000002,
          "velocity": 0.47244094488188976
        },
        {
          "duration": 0,
          "durationTicks": 0,
          "midi": 51,
          "name": "D#3",
          "ticks": 84720,
          "time": 139.34198450000002,
          "velocity": 0.5354330708661418
        },
        {
          "duration": 0,
          "durationTicks": 0,
          "midi": 42,
          "name": "F#2",
          "ticks": 84960,
          "time": 139.73672100000002,
          "velocity": 0.5354330708661418
        },
        {
          "duration": 0,
          "durationTicks": 0,
          "midi": 51,
          "name": "D#3",
          "ticks": 84960,
          "time": 139.73672100000002,
          "velocity": 0.47244094488188976
        },
        {
          "duration": 0,
          "durationTicks": 0,
          "midi": 41,
          "name": "F2",
          "ticks": 84960,
          "time": 139.73672100000002,
          "velocity": 0.5511811023622047
        },
        {
          "duration": 0,
          "durationTicks": 0,
          "midi": 38,
          "name": "D2",
          "ticks": 84960,
          "time": 139.73672100000002,
          "velocity": 0.5511811023622047
        },
        {
          "duration": 0,
          "durationTicks": 0,
          "midi": 42,
          "name": "F#2",
          "ticks": 85200,
          "time": 140.1314575,
          "velocity": 0.5354330708661418
        },
        {
          "duration": 0,
          "durationTicks": 0,
          "midi": 51,
          "name": "D#3",
          "ticks": 85200,
          "time": 140.1314575,
          "velocity": 0.5354330708661418
        },
        {
          "duration": 0,
          "durationTicks": 0,
          "midi": 42,
          "name": "F#2",
          "ticks": 85440,
          "time": 140.526194,
          "velocity": 0.5354330708661418
        },
        {
          "duration": 0,
          "durationTicks": 0,
          "midi": 51,
          "name": "D#3",
          "ticks": 85440,
          "time": 140.526194,
          "velocity": 0.5354330708661418
        },
        {
          "duration": 0,
          "durationTicks": 0,
          "midi": 36,
          "name": "C2",
          "ticks": 85440,
          "time": 140.526194,
          "velocity": 0.5039370078740157
        },
        {
          "duration": 0,
          "durationTicks": 0,
          "midi": 42,
          "name": "F#2",
          "ticks": 85680,
          "time": 140.92093050000003,
          "velocity": 0.5354330708661418
        },
        {
          "duration": 0,
          "durationTicks": 0,
          "midi": 51,
          "name": "D#3",
          "ticks": 85680,
          "time": 140.92093050000003,
          "velocity": 0.5354330708661418
        },
        {
          "duration": 0,
          "durationTicks": 0,
          "midi": 42,
          "name": "F#2",
          "ticks": 85920,
          "time": 141.31566700000002,
          "velocity": 0.5826771653543307
        },
        {
          "duration": 0,
          "durationTicks": 0,
          "midi": 51,
          "name": "D#3",
          "ticks": 85920,
          "time": 141.31566700000002,
          "velocity": 0.47244094488188976
        },
        {
          "duration": 0,
          "durationTicks": 0,
          "midi": 41,
          "name": "F2",
          "ticks": 85920,
          "time": 141.31566700000002,
          "velocity": 0.5511811023622047
        },
        {
          "duration": 0,
          "durationTicks": 0,
          "midi": 38,
          "name": "D2",
          "ticks": 85920,
          "time": 141.31566700000002,
          "velocity": 0.5039370078740157
        },
        {
          "duration": 0,
          "durationTicks": 0,
          "midi": 42,
          "name": "F#2",
          "ticks": 86160,
          "time": 141.7104035,
          "velocity": 0.5354330708661418
        },
        {
          "duration": 0,
          "durationTicks": 0,
          "midi": 51,
          "name": "D#3",
          "ticks": 86160,
          "time": 141.7104035,
          "velocity": 0.5826771653543307
        },
        {
          "duration": 0,
          "durationTicks": 0,
          "midi": 36,
          "name": "C2",
          "ticks": 86160,
          "time": 141.7104035,
          "velocity": 0.5039370078740157
        },
        {
          "duration": 0,
          "durationTicks": 0,
          "midi": 42,
          "name": "F#2",
          "ticks": 86400,
          "time": 142.10514,
          "velocity": 0.5354330708661418
        },
        {
          "duration": 0,
          "durationTicks": 0,
          "midi": 51,
          "name": "D#3",
          "ticks": 86400,
          "time": 142.10514,
          "velocity": 0.5354330708661418
        },
        {
          "duration": 0,
          "durationTicks": 0,
          "midi": 36,
          "name": "C2",
          "ticks": 86400,
          "time": 142.10514,
          "velocity": 0.5984251968503937
        },
        {
          "duration": 0,
          "durationTicks": 0,
          "midi": 42,
          "name": "F#2",
          "ticks": 86640,
          "time": 142.49987650000003,
          "velocity": 0.47244094488188976
        },
        {
          "duration": 0,
          "durationTicks": 0,
          "midi": 51,
          "name": "D#3",
          "ticks": 86640,
          "time": 142.49987650000003,
          "velocity": 0.47244094488188976
        },
        {
          "duration": 0,
          "durationTicks": 0,
          "midi": 42,
          "name": "F#2",
          "ticks": 86880,
          "time": 142.89461300000002,
          "velocity": 0.5354330708661418
        },
        {
          "duration": 0,
          "durationTicks": 0,
          "midi": 51,
          "name": "D#3",
          "ticks": 86880,
          "time": 142.89461300000002,
          "velocity": 0.4251968503937008
        },
        {
          "duration": 0,
          "durationTicks": 0,
          "midi": 41,
          "name": "F2",
          "ticks": 86880,
          "time": 142.89461300000002,
          "velocity": 0.5511811023622047
        },
        {
          "duration": 0,
          "durationTicks": 0,
          "midi": 38,
          "name": "D2",
          "ticks": 86880,
          "time": 142.89461300000002,
          "velocity": 0.5039370078740157
        },
        {
          "duration": 0,
          "durationTicks": 0,
          "midi": 42,
          "name": "F#2",
          "ticks": 87120,
          "time": 143.28934950000001,
          "velocity": 0.5354330708661418
        },
        {
          "duration": 0,
          "durationTicks": 0,
          "midi": 51,
          "name": "D#3",
          "ticks": 87120,
          "time": 143.28934950000001,
          "velocity": 0.4251968503937008
        },
        {
          "duration": 0,
          "durationTicks": 0,
          "midi": 42,
          "name": "F#2",
          "ticks": 87360,
          "time": 143.684086,
          "velocity": 0.5354330708661418
        },
        {
          "duration": 0,
          "durationTicks": 0,
          "midi": 51,
          "name": "D#3",
          "ticks": 87360,
          "time": 143.684086,
          "velocity": 0.5826771653543307
        },
        {
          "duration": 0,
          "durationTicks": 0,
          "midi": 36,
          "name": "C2",
          "ticks": 87360,
          "time": 143.684086,
          "velocity": 0.5039370078740157
        },
        {
          "duration": 0,
          "durationTicks": 0,
          "midi": 42,
          "name": "F#2",
          "ticks": 87600,
          "time": 144.07882250000003,
          "velocity": 0.5354330708661418
        },
        {
          "duration": 0,
          "durationTicks": 0,
          "midi": 51,
          "name": "D#3",
          "ticks": 87600,
          "time": 144.07882250000003,
          "velocity": 0.47244094488188976
        },
        {
          "duration": 0,
          "durationTicks": 0,
          "midi": 42,
          "name": "F#2",
          "ticks": 87840,
          "time": 144.47355900000002,
          "velocity": 0.5826771653543307
        },
        {
          "duration": 0,
          "durationTicks": 0,
          "midi": 51,
          "name": "D#3",
          "ticks": 87840,
          "time": 144.47355900000002,
          "velocity": 0.47244094488188976
        },
        {
          "duration": 0,
          "durationTicks": 0,
          "midi": 41,
          "name": "F2",
          "ticks": 87840,
          "time": 144.47355900000002,
          "velocity": 0.5511811023622047
        },
        {
          "duration": 0,
          "durationTicks": 0,
          "midi": 38,
          "name": "D2",
          "ticks": 87840,
          "time": 144.47355900000002,
          "velocity": 0.5511811023622047
        },
        {
          "duration": 0,
          "durationTicks": 0,
          "midi": 46,
          "name": "A#2",
          "ticks": 88080,
          "time": 144.86829550000002,
          "velocity": 0.5354330708661418
        },
        {
          "duration": 0,
          "durationTicks": 0,
          "midi": 51,
          "name": "D#3",
          "ticks": 88080,
          "time": 144.86829550000002,
          "velocity": 0.47244094488188976
        },
        {
          "duration": 0,
          "durationTicks": 0,
          "midi": 36,
          "name": "C2",
          "ticks": 88080,
          "time": 144.86829550000002,
          "velocity": 0.5511811023622047
        },
        {
          "duration": 0,
          "durationTicks": 0,
          "midi": 36,
          "name": "C2",
          "ticks": 88320,
          "time": 145.263032,
          "velocity": 0.5984251968503937
        },
        {
          "duration": 0,
          "durationTicks": 0,
          "midi": 42,
          "name": "F#2",
          "ticks": 88320,
          "time": 145.263032,
          "velocity": 0.5354330708661418
        },
        {
          "duration": 0,
          "durationTicks": 0,
          "midi": 49,
          "name": "C#3",
          "ticks": 88320,
          "time": 145.263032,
          "velocity": 0.5826771653543307
        },
        {
          "duration": 0,
          "durationTicks": 0,
          "midi": 42,
          "name": "F#2",
          "ticks": 88560,
          "time": 145.6577685,
          "velocity": 0.47244094488188976
        },
        {
          "duration": 0,
          "durationTicks": 0,
          "midi": 51,
          "name": "D#3",
          "ticks": 88560,
          "time": 145.6577685,
          "velocity": 0.5354330708661418
        },
        {
          "duration": 0,
          "durationTicks": 0,
          "midi": 41,
          "name": "F2",
          "ticks": 88800,
          "time": 146.05250500000002,
          "velocity": 0.5511811023622047
        },
        {
          "duration": 0,
          "durationTicks": 0,
          "midi": 42,
          "name": "F#2",
          "ticks": 88800,
          "time": 146.05250500000002,
          "velocity": 0.5354330708661418
        },
        {
          "duration": 0,
          "durationTicks": 0,
          "midi": 51,
          "name": "D#3",
          "ticks": 88800,
          "time": 146.05250500000002,
          "velocity": 0.47244094488188976
        },
        {
          "duration": 0,
          "durationTicks": 0,
          "midi": 38,
          "name": "D2",
          "ticks": 88800,
          "time": 146.05250500000002,
          "velocity": 0.5511811023622047
        },
        {
          "duration": 0,
          "durationTicks": 0,
          "midi": 42,
          "name": "F#2",
          "ticks": 89040,
          "time": 146.44724150000002,
          "velocity": 0.5354330708661418
        },
        {
          "duration": 0,
          "durationTicks": 0,
          "midi": 51,
          "name": "D#3",
          "ticks": 89040,
          "time": 146.44724150000002,
          "velocity": 0.5354330708661418
        },
        {
          "duration": 0,
          "durationTicks": 0,
          "midi": 36,
          "name": "C2",
          "ticks": 89280,
          "time": 146.841978,
          "velocity": 0.5039370078740157
        },
        {
          "duration": 0,
          "durationTicks": 0,
          "midi": 42,
          "name": "F#2",
          "ticks": 89280,
          "time": 146.841978,
          "velocity": 0.5354330708661418
        },
        {
          "duration": 0,
          "durationTicks": 0,
          "midi": 51,
          "name": "D#3",
          "ticks": 89280,
          "time": 146.841978,
          "velocity": 0.5354330708661418
        },
        {
          "duration": 0,
          "durationTicks": 0,
          "midi": 42,
          "name": "F#2",
          "ticks": 89520,
          "time": 147.2367145,
          "velocity": 0.5354330708661418
        },
        {
          "duration": 0,
          "durationTicks": 0,
          "midi": 51,
          "name": "D#3",
          "ticks": 89520,
          "time": 147.2367145,
          "velocity": 0.5354330708661418
        },
        {
          "duration": 0,
          "durationTicks": 0,
          "midi": 41,
          "name": "F2",
          "ticks": 89760,
          "time": 147.63145100000003,
          "velocity": 0.5511811023622047
        },
        {
          "duration": 0,
          "durationTicks": 0,
          "midi": 42,
          "name": "F#2",
          "ticks": 89760,
          "time": 147.63145100000003,
          "velocity": 0.5826771653543307
        },
        {
          "duration": 0,
          "durationTicks": 0,
          "midi": 51,
          "name": "D#3",
          "ticks": 89760,
          "time": 147.63145100000003,
          "velocity": 0.47244094488188976
        },
        {
          "duration": 0,
          "durationTicks": 0,
          "midi": 38,
          "name": "D2",
          "ticks": 89760,
          "time": 147.63145100000003,
          "velocity": 0.5039370078740157
        },
        {
          "duration": 0,
          "durationTicks": 0,
          "midi": 36,
          "name": "C2",
          "ticks": 90000,
          "time": 148.02618750000002,
          "velocity": 0.5039370078740157
        },
        {
          "duration": 0,
          "durationTicks": 0,
          "midi": 42,
          "name": "F#2",
          "ticks": 90000,
          "time": 148.02618750000002,
          "velocity": 0.5354330708661418
        },
        {
          "duration": 0,
          "durationTicks": 0,
          "midi": 51,
          "name": "D#3",
          "ticks": 90000,
          "time": 148.02618750000002,
          "velocity": 0.5826771653543307
        },
        {
          "duration": 0,
          "durationTicks": 0,
          "midi": 36,
          "name": "C2",
          "ticks": 90240,
          "time": 148.420924,
          "velocity": 0.5984251968503937
        },
        {
          "duration": 0,
          "durationTicks": 0,
          "midi": 42,
          "name": "F#2",
          "ticks": 90240,
          "time": 148.420924,
          "velocity": 0.5354330708661418
        },
        {
          "duration": 0,
          "durationTicks": 0,
          "midi": 51,
          "name": "D#3",
          "ticks": 90240,
          "time": 148.420924,
          "velocity": 0.5354330708661418
        },
        {
          "duration": 0,
          "durationTicks": 0,
          "midi": 42,
          "name": "F#2",
          "ticks": 90480,
          "time": 148.8156605,
          "velocity": 0.47244094488188976
        },
        {
          "duration": 0,
          "durationTicks": 0,
          "midi": 51,
          "name": "D#3",
          "ticks": 90480,
          "time": 148.8156605,
          "velocity": 0.47244094488188976
        },
        {
          "duration": 0,
          "durationTicks": 0,
          "midi": 41,
          "name": "F2",
          "ticks": 90720,
          "time": 149.21039700000003,
          "velocity": 0.5511811023622047
        },
        {
          "duration": 0,
          "durationTicks": 0,
          "midi": 42,
          "name": "F#2",
          "ticks": 90720,
          "time": 149.21039700000003,
          "velocity": 0.5354330708661418
        },
        {
          "duration": 0,
          "durationTicks": 0,
          "midi": 51,
          "name": "D#3",
          "ticks": 90720,
          "time": 149.21039700000003,
          "velocity": 0.4251968503937008
        },
        {
          "duration": 0,
          "durationTicks": 0,
          "midi": 38,
          "name": "D2",
          "ticks": 90720,
          "time": 149.21039700000003,
          "velocity": 0.5039370078740157
        },
        {
          "duration": 0,
          "durationTicks": 0,
          "midi": 42,
          "name": "F#2",
          "ticks": 90960,
          "time": 149.60513350000002,
          "velocity": 0.5354330708661418
        },
        {
          "duration": 0,
          "durationTicks": 0,
          "midi": 51,
          "name": "D#3",
          "ticks": 90960,
          "time": 149.60513350000002,
          "velocity": 0.4251968503937008
        },
        {
          "duration": 0,
          "durationTicks": 0,
          "midi": 36,
          "name": "C2",
          "ticks": 91200,
          "time": 149.99987000000002,
          "velocity": 0.5826771653543307
        },
        {
          "duration": 0,
          "durationTicks": 0,
          "midi": 42,
          "name": "F#2",
          "ticks": 91200,
          "time": 149.99987000000002,
          "velocity": 0.5354330708661418
        },
        {
          "duration": 0,
          "durationTicks": 0,
          "midi": 42,
          "name": "F#2",
          "ticks": 91440,
          "time": 150.3946065,
          "velocity": 0.47244094488188976
        },
        {
          "duration": 0,
          "durationTicks": 0,
          "midi": 42,
          "name": "F#2",
          "ticks": 91680,
          "time": 150.78934300000003,
          "velocity": 0.5354330708661418
        },
        {
          "duration": 0,
          "durationTicks": 0,
          "midi": 38,
          "name": "D2",
          "ticks": 91680,
          "time": 150.78934300000003,
          "velocity": 0.5039370078740157
        },
        {
          "duration": 0,
          "durationTicks": 0,
          "midi": 49,
          "name": "C#3",
          "ticks": 91680,
          "time": 150.78934300000003,
          "velocity": 0.5354330708661418
        },
        {
          "duration": 0,
          "durationTicks": 0,
          "midi": 48,
          "name": "C3",
          "ticks": 91920,
          "time": 151.18407950000002,
          "velocity": 0.6377952755905512
        },
        {
          "duration": 0,
          "durationTicks": 0,
          "midi": 42,
          "name": "F#2",
          "ticks": 91920,
          "time": 151.18407950000002,
          "velocity": 0.5354330708661418
        },
        {
          "duration": 0,
          "durationTicks": 0,
          "midi": 51,
          "name": "D#3",
          "ticks": 91920,
          "time": 151.18407950000002,
          "velocity": 0.47244094488188976
        },
        {
          "duration": 0,
          "durationTicks": 0,
          "midi": 49,
          "name": "C#3",
          "ticks": 92160,
          "time": 151.57881600000002,
          "velocity": 0.3464566929133858
        },
        {
          "duration": 0,
          "durationTicks": 0,
          "midi": 36,
          "name": "C2",
          "ticks": 92160,
          "time": 151.57881600000002,
          "velocity": 0.5984251968503937
        },
        {
          "duration": 0,
          "durationTicks": 0,
          "midi": 51,
          "name": "D#3",
          "ticks": 92400,
          "time": 151.9735525,
          "velocity": 0.5039370078740157
        },
        {
          "duration": 0,
          "durationTicks": 0,
          "midi": 51,
          "name": "D#3",
          "ticks": 92640,
          "time": 152.368289,
          "velocity": 0.5039370078740157
        },
        {
          "duration": 0,
          "durationTicks": 0,
          "midi": 38,
          "name": "D2",
          "ticks": 92640,
          "time": 152.368289,
          "velocity": 0.5511811023622047
        },
        {
          "duration": 0,
          "durationTicks": 0,
          "midi": 51,
          "name": "D#3",
          "ticks": 92880,
          "time": 152.76302550000003,
          "velocity": 0.5039370078740157
        },
        {
          "duration": 0,
          "durationTicks": 0,
          "midi": 51,
          "name": "D#3",
          "ticks": 93120,
          "time": 153.15776200000002,
          "velocity": 0.44881889763779526
        },
        {
          "duration": 0,
          "durationTicks": 0,
          "midi": 36,
          "name": "C2",
          "ticks": 93120,
          "time": 153.15776200000002,
          "velocity": 0.5039370078740157
        },
        {
          "duration": 0,
          "durationTicks": 0,
          "midi": 51,
          "name": "D#3",
          "ticks": 93360,
          "time": 153.5524985,
          "velocity": 0.5039370078740157
        },
        {
          "duration": 0,
          "durationTicks": 0,
          "midi": 51,
          "name": "D#3",
          "ticks": 93600,
          "time": 153.947235,
          "velocity": 0.5511811023622047
        },
        {
          "duration": 0,
          "durationTicks": 0,
          "midi": 38,
          "name": "D2",
          "ticks": 93600,
          "time": 153.947235,
          "velocity": 0.5039370078740157
        },
        {
          "duration": 0,
          "durationTicks": 0,
          "midi": 51,
          "name": "D#3",
          "ticks": 93840,
          "time": 154.34197150000003,
          "velocity": 0.5511811023622047
        },
        {
          "duration": 0,
          "durationTicks": 0,
          "midi": 36,
          "name": "C2",
          "ticks": 93840,
          "time": 154.34197150000003,
          "velocity": 0.5039370078740157
        },
        {
          "duration": 0,
          "durationTicks": 0,
          "midi": 49,
          "name": "C#3",
          "ticks": 94080,
          "time": 154.73670800000002,
          "velocity": 0.3464566929133858
        },
        {
          "duration": 0,
          "durationTicks": 0,
          "midi": 36,
          "name": "C2",
          "ticks": 94080,
          "time": 154.73670800000002,
          "velocity": 0.5984251968503937
        },
        {
          "duration": 0,
          "durationTicks": 0,
          "midi": 51,
          "name": "D#3",
          "ticks": 94320,
          "time": 155.13144450000001,
          "velocity": 0.5039370078740157
        },
        {
          "duration": 0,
          "durationTicks": 0,
          "midi": 51,
          "name": "D#3",
          "ticks": 94560,
          "time": 155.526181,
          "velocity": 0.44881889763779526
        },
        {
          "duration": 0,
          "durationTicks": 0,
          "midi": 38,
          "name": "D2",
          "ticks": 94560,
          "time": 155.526181,
          "velocity": 0.5039370078740157
        },
        {
          "duration": 0,
          "durationTicks": 0,
          "midi": 51,
          "name": "D#3",
          "ticks": 94800,
          "time": 155.92091750000003,
          "velocity": 0.5039370078740157
        },
        {
          "duration": 0,
          "durationTicks": 0,
          "midi": 51,
          "name": "D#3",
          "ticks": 95040,
          "time": 156.31565400000002,
          "velocity": 0.5039370078740157
        },
        {
          "duration": 0,
          "durationTicks": 0,
          "midi": 36,
          "name": "C2",
          "ticks": 95040,
          "time": 156.31565400000002,
          "velocity": 0.5039370078740157
        },
        {
          "duration": 0,
          "durationTicks": 0,
          "midi": 51,
          "name": "D#3",
          "ticks": 95280,
          "time": 156.71039050000002,
          "velocity": 0.44881889763779526
        },
        {
          "duration": 0,
          "durationTicks": 0,
          "midi": 51,
          "name": "D#3",
          "ticks": 95520,
          "time": 157.105127,
          "velocity": 0.44881889763779526
        },
        {
          "duration": 0,
          "durationTicks": 0,
          "midi": 38,
          "name": "D2",
          "ticks": 95520,
          "time": 157.105127,
          "velocity": 0.5511811023622047
        },
        {
          "duration": 0,
          "durationTicks": 0,
          "midi": 51,
          "name": "D#3",
          "ticks": 95760,
          "time": 157.49986350000003,
          "velocity": 0.5511811023622047
        },
        {
          "duration": 0,
          "durationTicks": 0,
          "midi": 36,
          "name": "C2",
          "ticks": 95760,
          "time": 157.49986350000003,
          "velocity": 0.5511811023622047
        },
        {
          "duration": 0,
          "durationTicks": 0,
          "midi": 49,
          "name": "C#3",
          "ticks": 96000,
          "time": 157.89460000000003,
          "velocity": 0.4015748031496063
        },
        {
          "duration": 0,
          "durationTicks": 0,
          "midi": 36,
          "name": "C2",
          "ticks": 96000,
          "time": 157.89460000000003,
          "velocity": 0.5511811023622047
        },
        {
          "duration": 0,
          "durationTicks": 0,
          "midi": 51,
          "name": "D#3",
          "ticks": 96240,
          "time": 158.28933650000002,
          "velocity": 0.4015748031496063
        },
        {
          "duration": 0,
          "durationTicks": 0,
          "midi": 51,
          "name": "D#3",
          "ticks": 96480,
          "time": 158.684073,
          "velocity": 0.4015748031496063
        },
        {
          "duration": 0,
          "durationTicks": 0,
          "midi": 38,
          "name": "D2",
          "ticks": 96480,
          "time": 158.684073,
          "velocity": 0.5511811023622047
        },
        {
          "duration": 0,
          "durationTicks": 0,
          "midi": 51,
          "name": "D#3",
          "ticks": 96720,
          "time": 159.0788095,
          "velocity": 0.44881889763779526
        },
        {
          "duration": 0,
          "durationTicks": 0,
          "midi": 51,
          "name": "D#3",
          "ticks": 96960,
          "time": 159.47354600000003,
          "velocity": 0.4015748031496063
        },
        {
          "duration": 0,
          "durationTicks": 0,
          "midi": 36,
          "name": "C2",
          "ticks": 96960,
          "time": 159.47354600000003,
          "velocity": 0.5826771653543307
        },
        {
          "duration": 0,
          "durationTicks": 0,
          "midi": 51,
          "name": "D#3",
          "ticks": 97200,
          "time": 159.86828250000002,
          "velocity": 0.5039370078740157
        },
        {
          "duration": 0,
          "durationTicks": 0,
          "midi": 51,
          "name": "D#3",
          "ticks": 97440,
          "time": 160.263019,
          "velocity": 0.44881889763779526
        },
        {
          "duration": 0,
          "durationTicks": 0,
          "midi": 38,
          "name": "D2",
          "ticks": 97440,
          "time": 160.263019,
          "velocity": 0.5039370078740157
        },
        {
          "duration": 0,
          "durationTicks": 0,
          "midi": 51,
          "name": "D#3",
          "ticks": 97680,
          "time": 160.6577555,
          "velocity": 0.5039370078740157
        },
        {
          "duration": 0,
          "durationTicks": 0,
          "midi": 36,
          "name": "C2",
          "ticks": 97680,
          "time": 160.6577555,
          "velocity": 0.5354330708661418
        },
        {
          "duration": 0,
          "durationTicks": 0,
          "midi": 49,
          "name": "C#3",
          "ticks": 97920,
          "time": 161.05249200000003,
          "velocity": 0.4015748031496063
        },
        {
          "duration": 0,
          "durationTicks": 0,
          "midi": 36,
          "name": "C2",
          "ticks": 97920,
          "time": 161.05249200000003,
          "velocity": 0.5826771653543307
        },
        {
          "duration": 0,
          "durationTicks": 0,
          "midi": 51,
          "name": "D#3",
          "ticks": 98160,
          "time": 161.44722850000002,
          "velocity": 0.44881889763779526
        },
        {
          "duration": 0,
          "durationTicks": 0,
          "midi": 51,
          "name": "D#3",
          "ticks": 98400,
          "time": 161.84196500000002,
          "velocity": 0.44881889763779526
        },
        {
          "duration": 0,
          "durationTicks": 0,
          "midi": 38,
          "name": "D2",
          "ticks": 98400,
          "time": 161.84196500000002,
          "velocity": 0.5039370078740157
        },
        {
          "duration": 0,
          "durationTicks": 0,
          "midi": 51,
          "name": "D#3",
          "ticks": 98640,
          "time": 162.2367015,
          "velocity": 0.5039370078740157
        },
        {
          "duration": 0,
          "durationTicks": 0,
          "midi": 51,
          "name": "D#3",
          "ticks": 98880,
          "time": 162.63143800000003,
          "velocity": 0.44881889763779526
        },
        {
          "duration": 0,
          "durationTicks": 0,
          "midi": 36,
          "name": "C2",
          "ticks": 98880,
          "time": 162.63143800000003,
          "velocity": 0.5826771653543307
        },
        {
          "duration": 0,
          "durationTicks": 0,
          "midi": 51,
          "name": "D#3",
          "ticks": 99120,
          "time": 163.02617450000002,
          "velocity": 0.5039370078740157
        },
        {
          "duration": 0,
          "durationTicks": 0,
          "midi": 51,
          "name": "D#3",
          "ticks": 99360,
          "time": 163.42091100000002,
          "velocity": 0.4015748031496063
        },
        {
          "duration": 0,
          "durationTicks": 0,
          "midi": 38,
          "name": "D2",
          "ticks": 99360,
          "time": 163.42091100000002,
          "velocity": 0.5511811023622047
        },
        {
          "duration": 0,
          "durationTicks": 0,
          "midi": 51,
          "name": "D#3",
          "ticks": 99600,
          "time": 163.8156475,
          "velocity": 0.5039370078740157
        },
        {
          "duration": 0,
          "durationTicks": 0,
          "midi": 36,
          "name": "C2",
          "ticks": 99600,
          "time": 163.8156475,
          "velocity": 0.5826771653543307
        },
        {
          "duration": 0,
          "durationTicks": 0,
          "midi": 49,
          "name": "C#3",
          "ticks": 99840,
          "time": 164.21038400000003,
          "velocity": 0.3464566929133858
        },
        {
          "duration": 0,
          "durationTicks": 0,
          "midi": 36,
          "name": "C2",
          "ticks": 99840,
          "time": 164.21038400000003,
          "velocity": 0.5984251968503937
        },
        {
          "duration": 0,
          "durationTicks": 0,
          "midi": 51,
          "name": "D#3",
          "ticks": 100080,
          "time": 164.60512050000003,
          "velocity": 0.5039370078740157
        },
        {
          "duration": 0,
          "durationTicks": 0,
          "midi": 51,
          "name": "D#3",
          "ticks": 100320,
          "time": 164.99985700000002,
          "velocity": 0.5039370078740157
        },
        {
          "duration": 0,
          "durationTicks": 0,
          "midi": 38,
          "name": "D2",
          "ticks": 100320,
          "time": 164.99985700000002,
          "velocity": 0.5511811023622047
        },
        {
          "duration": 0,
          "durationTicks": 0,
          "midi": 51,
          "name": "D#3",
          "ticks": 100560,
          "time": 165.3945935,
          "velocity": 0.5039370078740157
        },
        {
          "duration": 0,
          "durationTicks": 0,
          "midi": 51,
          "name": "D#3",
          "ticks": 100800,
          "time": 165.78933,
          "velocity": 0.44881889763779526
        },
        {
          "duration": 0,
          "durationTicks": 0,
          "midi": 36,
          "name": "C2",
          "ticks": 100800,
          "time": 165.78933,
          "velocity": 0.5039370078740157
        },
        {
          "duration": 0,
          "durationTicks": 0,
          "midi": 51,
          "name": "D#3",
          "ticks": 101040,
          "time": 166.18406650000003,
          "velocity": 0.5039370078740157
        },
        {
          "duration": 0,
          "durationTicks": 0,
          "midi": 51,
          "name": "D#3",
          "ticks": 101280,
          "time": 166.57880300000002,
          "velocity": 0.5511811023622047
        },
        {
          "duration": 0,
          "durationTicks": 0,
          "midi": 38,
          "name": "D2",
          "ticks": 101280,
          "time": 166.57880300000002,
          "velocity": 0.5039370078740157
        },
        {
          "duration": 0,
          "durationTicks": 0,
          "midi": 51,
          "name": "D#3",
          "ticks": 101520,
          "time": 166.97353950000002,
          "velocity": 0.5511811023622047
        },
        {
          "duration": 0,
          "durationTicks": 0,
          "midi": 36,
          "name": "C2",
          "ticks": 101520,
          "time": 166.97353950000002,
          "velocity": 0.5039370078740157
        },
        {
          "duration": 0,
          "durationTicks": 0,
          "midi": 49,
          "name": "C#3",
          "ticks": 101760,
          "time": 167.368276,
          "velocity": 0.3464566929133858
        },
        {
          "duration": 0,
          "durationTicks": 0,
          "midi": 36,
          "name": "C2",
          "ticks": 101760,
          "time": 167.368276,
          "velocity": 0.5984251968503937
        },
        {
          "duration": 0,
          "durationTicks": 0,
          "midi": 51,
          "name": "D#3",
          "ticks": 102000,
          "time": 167.76301250000003,
          "velocity": 0.5039370078740157
        },
        {
          "duration": 0,
          "durationTicks": 0,
          "midi": 51,
          "name": "D#3",
          "ticks": 102240,
          "time": 168.15774900000002,
          "velocity": 0.44881889763779526
        },
        {
          "duration": 0,
          "durationTicks": 0,
          "midi": 38,
          "name": "D2",
          "ticks": 102240,
          "time": 168.15774900000002,
          "velocity": 0.5039370078740157
        },
        {
          "duration": 0,
          "durationTicks": 0,
          "midi": 51,
          "name": "D#3",
          "ticks": 102480,
          "time": 168.55248550000002,
          "velocity": 0.5039370078740157
        },
        {
          "duration": 0,
          "durationTicks": 0,
          "midi": 51,
          "name": "D#3",
          "ticks": 102720,
          "time": 168.947222,
          "velocity": 0.5039370078740157
        },
        {
          "duration": 0,
          "durationTicks": 0,
          "midi": 36,
          "name": "C2",
          "ticks": 102720,
          "time": 168.947222,
          "velocity": 0.5039370078740157
        },
        {
          "duration": 0,
          "durationTicks": 0,
          "midi": 51,
          "name": "D#3",
          "ticks": 102960,
          "time": 169.34195850000003,
          "velocity": 0.44881889763779526
        },
        {
          "duration": 0,
          "durationTicks": 0,
          "midi": 51,
          "name": "D#3",
          "ticks": 103200,
          "time": 169.73669500000003,
          "velocity": 0.44881889763779526
        },
        {
          "duration": 0,
          "durationTicks": 0,
          "midi": 38,
          "name": "D2",
          "ticks": 103200,
          "time": 169.73669500000003,
          "velocity": 0.5511811023622047
        },
        {
          "duration": 0,
          "durationTicks": 0,
          "midi": 51,
          "name": "D#3",
          "ticks": 103440,
          "time": 170.13143150000002,
          "velocity": 0.5511811023622047
        },
        {
          "duration": 0,
          "durationTicks": 0,
          "midi": 36,
          "name": "C2",
          "ticks": 103440,
          "time": 170.13143150000002,
          "velocity": 0.5511811023622047
        },
        {
          "duration": 0,
          "durationTicks": 0,
          "midi": 49,
          "name": "C#3",
          "ticks": 103680,
          "time": 170.526168,
          "velocity": 0.4015748031496063
        },
        {
          "duration": 0,
          "durationTicks": 0,
          "midi": 36,
          "name": "C2",
          "ticks": 103680,
          "time": 170.526168,
          "velocity": 0.5511811023622047
        },
        {
          "duration": 0,
          "durationTicks": 0,
          "midi": 51,
          "name": "D#3",
          "ticks": 103920,
          "time": 170.9209045,
          "velocity": 0.4015748031496063
        },
        {
          "duration": 0,
          "durationTicks": 0,
          "midi": 51,
          "name": "D#3",
          "ticks": 104160,
          "time": 171.31564100000003,
          "velocity": 0.4015748031496063
        },
        {
          "duration": 0,
          "durationTicks": 0,
          "midi": 38,
          "name": "D2",
          "ticks": 104160,
          "time": 171.31564100000003,
          "velocity": 0.5511811023622047
        },
        {
          "duration": 0,
          "durationTicks": 0,
          "midi": 51,
          "name": "D#3",
          "ticks": 104400,
          "time": 171.71037750000002,
          "velocity": 0.44881889763779526
        },
        {
          "duration": 0,
          "durationTicks": 0,
          "midi": 51,
          "name": "D#3",
          "ticks": 104640,
          "time": 172.10511400000001,
          "velocity": 0.4015748031496063
        },
        {
          "duration": 0,
          "durationTicks": 0,
          "midi": 36,
          "name": "C2",
          "ticks": 104640,
          "time": 172.10511400000001,
          "velocity": 0.5826771653543307
        },
        {
          "duration": 0,
          "durationTicks": 0,
          "midi": 51,
          "name": "D#3",
          "ticks": 104880,
          "time": 172.4998505,
          "velocity": 0.5039370078740157
        },
        {
          "duration": 0,
          "durationTicks": 0,
          "midi": 51,
          "name": "D#3",
          "ticks": 105120,
          "time": 172.89458700000003,
          "velocity": 0.44881889763779526
        },
        {
          "duration": 0,
          "durationTicks": 0,
          "midi": 38,
          "name": "D2",
          "ticks": 105120,
          "time": 172.89458700000003,
          "velocity": 0.5039370078740157
        },
        {
          "duration": 0,
          "durationTicks": 0,
          "midi": 51,
          "name": "D#3",
          "ticks": 105360,
          "time": 173.28932350000002,
          "velocity": 0.5039370078740157
        },
        {
          "duration": 0,
          "durationTicks": 0,
          "midi": 36,
          "name": "C2",
          "ticks": 105360,
          "time": 173.28932350000002,
          "velocity": 0.5354330708661418
        },
        {
          "duration": 0,
          "durationTicks": 0,
          "midi": 49,
          "name": "C#3",
          "ticks": 105600,
          "time": 173.68406000000002,
          "velocity": 0.4015748031496063
        },
        {
          "duration": 0,
          "durationTicks": 0,
          "midi": 36,
          "name": "C2",
          "ticks": 105600,
          "time": 173.68406000000002,
          "velocity": 0.5826771653543307
        },
        {
          "duration": 0,
          "durationTicks": 0,
          "midi": 51,
          "name": "D#3",
          "ticks": 105840,
          "time": 174.0787965,
          "velocity": 0.44881889763779526
        },
        {
          "duration": 0,
          "durationTicks": 0,
          "midi": 51,
          "name": "D#3",
          "ticks": 106080,
          "time": 174.47353300000003,
          "velocity": 0.44881889763779526
        },
        {
          "duration": 0,
          "durationTicks": 0,
          "midi": 38,
          "name": "D2",
          "ticks": 106080,
          "time": 174.47353300000003,
          "velocity": 0.5039370078740157
        },
        {
          "duration": 0,
          "durationTicks": 0,
          "midi": 51,
          "name": "D#3",
          "ticks": 106320,
          "time": 174.86826950000003,
          "velocity": 0.5039370078740157
        },
        {
          "duration": 0,
          "durationTicks": 0,
          "midi": 42,
          "name": "F#2",
          "ticks": 106560,
          "time": 175.26300600000002,
          "velocity": 0.5354330708661418
        },
        {
          "duration": 0,
          "durationTicks": 0,
          "midi": 42,
          "name": "F#2",
          "ticks": 106800,
          "time": 175.6577425,
          "velocity": 0.47244094488188976
        },
        {
          "duration": 0,
          "durationTicks": 0,
          "midi": 42,
          "name": "F#2",
          "ticks": 107040,
          "time": 176.05247900000003,
          "velocity": 0.5354330708661418
        },
        {
          "duration": 0,
          "durationTicks": 0,
          "midi": 41,
          "name": "F2",
          "ticks": 107040,
          "time": 176.05247900000003,
          "velocity": 0.5511811023622047
        },
        {
          "duration": 0,
          "durationTicks": 0,
          "midi": 38,
          "name": "D2",
          "ticks": 107040,
          "time": 176.05247900000003,
          "velocity": 0.5039370078740157
        },
        {
          "duration": 0,
          "durationTicks": 0,
          "midi": 42,
          "name": "F#2",
          "ticks": 107280,
          "time": 176.44721550000003,
          "velocity": 0.5354330708661418
        },
        {
          "duration": 0,
          "durationTicks": 0,
          "midi": 49,
          "name": "C#3",
          "ticks": 107520,
          "time": 176.84195200000002,
          "velocity": 0.3464566929133858
        },
        {
          "duration": 0,
          "durationTicks": 0,
          "midi": 36,
          "name": "C2",
          "ticks": 107520,
          "time": 176.84195200000002,
          "velocity": 0.5984251968503937
        },
        {
          "duration": 0,
          "durationTicks": 0,
          "midi": 51,
          "name": "D#3",
          "ticks": 107760,
          "time": 177.2366885,
          "velocity": 0.5039370078740157
        },
        {
          "duration": 0,
          "durationTicks": 0,
          "midi": 51,
          "name": "D#3",
          "ticks": 108000,
          "time": 177.631425,
          "velocity": 0.5039370078740157
        },
        {
          "duration": 0,
          "durationTicks": 0,
          "midi": 38,
          "name": "D2",
          "ticks": 108000,
          "time": 177.631425,
          "velocity": 0.5511811023622047
        },
        {
          "duration": 0,
          "durationTicks": 0,
          "midi": 51,
          "name": "D#3",
          "ticks": 108240,
          "time": 178.02616150000003,
          "velocity": 0.5039370078740157
        },
        {
          "duration": 0,
          "durationTicks": 0,
          "midi": 51,
          "name": "D#3",
          "ticks": 108480,
          "time": 178.42089800000002,
          "velocity": 0.44881889763779526
        },
        {
          "duration": 0,
          "durationTicks": 0,
          "midi": 36,
          "name": "C2",
          "ticks": 108480,
          "time": 178.42089800000002,
          "velocity": 0.5039370078740157
        },
        {
          "duration": 0,
          "durationTicks": 0,
          "midi": 51,
          "name": "D#3",
          "ticks": 108720,
          "time": 178.81563450000002,
          "velocity": 0.5039370078740157
        },
        {
          "duration": 0,
          "durationTicks": 0,
          "midi": 51,
          "name": "D#3",
          "ticks": 108960,
          "time": 179.210371,
          "velocity": 0.5511811023622047
        },
        {
          "duration": 0,
          "durationTicks": 0,
          "midi": 38,
          "name": "D2",
          "ticks": 108960,
          "time": 179.210371,
          "velocity": 0.5039370078740157
        },
        {
          "duration": 0,
          "durationTicks": 0,
          "midi": 51,
          "name": "D#3",
          "ticks": 109200,
          "time": 179.60510750000003,
          "velocity": 0.5511811023622047
        },
        {
          "duration": 0,
          "durationTicks": 0,
          "midi": 36,
          "name": "C2",
          "ticks": 109200,
          "time": 179.60510750000003,
          "velocity": 0.5039370078740157
        },
        {
          "duration": 0,
          "durationTicks": 0,
          "midi": 49,
          "name": "C#3",
          "ticks": 109440,
          "time": 179.99984400000002,
          "velocity": 0.3464566929133858
        },
        {
          "duration": 0,
          "durationTicks": 0,
          "midi": 36,
          "name": "C2",
          "ticks": 109440,
          "time": 179.99984400000002,
          "velocity": 0.5984251968503937
        },
        {
          "duration": 0,
          "durationTicks": 0,
          "midi": 51,
          "name": "D#3",
          "ticks": 109680,
          "time": 180.39458050000002,
          "velocity": 0.5039370078740157
        },
        {
          "duration": 0,
          "durationTicks": 0,
          "midi": 51,
          "name": "D#3",
          "ticks": 109920,
          "time": 180.789317,
          "velocity": 0.44881889763779526
        },
        {
          "duration": 0,
          "durationTicks": 0,
          "midi": 38,
          "name": "D2",
          "ticks": 109920,
          "time": 180.789317,
          "velocity": 0.5039370078740157
        },
        {
          "duration": 0,
          "durationTicks": 0,
          "midi": 51,
          "name": "D#3",
          "ticks": 110160,
          "time": 181.18405350000003,
          "velocity": 0.5039370078740157
        },
        {
          "duration": 0,
          "durationTicks": 0,
          "midi": 51,
          "name": "D#3",
          "ticks": 110400,
          "time": 181.57879000000003,
          "velocity": 0.5039370078740157
        },
        {
          "duration": 0,
          "durationTicks": 0,
          "midi": 36,
          "name": "C2",
          "ticks": 110400,
          "time": 181.57879000000003,
          "velocity": 0.5039370078740157
        },
        {
          "duration": 0,
          "durationTicks": 0,
          "midi": 51,
          "name": "D#3",
          "ticks": 110640,
          "time": 181.97352650000002,
          "velocity": 0.44881889763779526
        },
        {
          "duration": 0,
          "durationTicks": 0,
          "midi": 51,
          "name": "D#3",
          "ticks": 110880,
          "time": 182.368263,
          "velocity": 0.44881889763779526
        },
        {
          "duration": 0,
          "durationTicks": 0,
          "midi": 38,
          "name": "D2",
          "ticks": 110880,
          "time": 182.368263,
          "velocity": 0.5511811023622047
        },
        {
          "duration": 0,
          "durationTicks": 0,
          "midi": 51,
          "name": "D#3",
          "ticks": 111120,
          "time": 182.76299950000003,
          "velocity": 0.5511811023622047
        },
        {
          "duration": 0,
          "durationTicks": 0,
          "midi": 36,
          "name": "C2",
          "ticks": 111120,
          "time": 182.76299950000003,
          "velocity": 0.5511811023622047
        },
        {
          "duration": 0,
          "durationTicks": 0,
          "midi": 49,
          "name": "C#3",
          "ticks": 111360,
          "time": 183.15773600000003,
          "velocity": 0.4015748031496063
        },
        {
          "duration": 0,
          "durationTicks": 0,
          "midi": 36,
          "name": "C2",
          "ticks": 111360,
          "time": 183.15773600000003,
          "velocity": 0.5511811023622047
        },
        {
          "duration": 0,
          "durationTicks": 0,
          "midi": 51,
          "name": "D#3",
          "ticks": 111600,
          "time": 183.55247250000002,
          "velocity": 0.4015748031496063
        },
        {
          "duration": 0,
          "durationTicks": 0,
          "midi": 51,
          "name": "D#3",
          "ticks": 111840,
          "time": 183.94720900000002,
          "velocity": 0.4015748031496063
        },
        {
          "duration": 0,
          "durationTicks": 0,
          "midi": 38,
          "name": "D2",
          "ticks": 111840,
          "time": 183.94720900000002,
          "velocity": 0.5511811023622047
        },
        {
          "duration": 0,
          "durationTicks": 0,
          "midi": 51,
          "name": "D#3",
          "ticks": 112080,
          "time": 184.3419455,
          "velocity": 0.44881889763779526
        },
        {
          "duration": 0,
          "durationTicks": 0,
          "midi": 51,
          "name": "D#3",
          "ticks": 112320,
          "time": 184.73668200000003,
          "velocity": 0.4015748031496063
        },
        {
          "duration": 0,
          "durationTicks": 0,
          "midi": 36,
          "name": "C2",
          "ticks": 112320,
          "time": 184.73668200000003,
          "velocity": 0.5826771653543307
        },
        {
          "duration": 0,
          "durationTicks": 0,
          "midi": 51,
          "name": "D#3",
          "ticks": 112560,
          "time": 185.13141850000002,
          "velocity": 0.5039370078740157
        },
        {
          "duration": 0,
          "durationTicks": 0,
          "midi": 51,
          "name": "D#3",
          "ticks": 112800,
          "time": 185.52615500000002,
          "velocity": 0.44881889763779526
        },
        {
          "duration": 0,
          "durationTicks": 0,
          "midi": 38,
          "name": "D2",
          "ticks": 112800,
          "time": 185.52615500000002,
          "velocity": 0.5039370078740157
        },
        {
          "duration": 0,
          "durationTicks": 0,
          "midi": 51,
          "name": "D#3",
          "ticks": 113040,
          "time": 185.9208915,
          "velocity": 0.5039370078740157
        },
        {
          "duration": 0,
          "durationTicks": 0,
          "midi": 36,
          "name": "C2",
          "ticks": 113040,
          "time": 185.9208915,
          "velocity": 0.5354330708661418
        },
        {
          "duration": 0,
          "durationTicks": 0,
          "midi": 49,
          "name": "C#3",
          "ticks": 113280,
          "time": 186.31562800000003,
          "velocity": 0.4015748031496063
        },
        {
          "duration": 0,
          "durationTicks": 0,
          "midi": 36,
          "name": "C2",
          "ticks": 113280,
          "time": 186.31562800000003,
          "velocity": 0.5826771653543307
        },
        {
          "duration": 0,
          "durationTicks": 0,
          "midi": 51,
          "name": "D#3",
          "ticks": 113520,
          "time": 186.71036450000003,
          "velocity": 0.44881889763779526
        },
        {
          "duration": 0,
          "durationTicks": 0,
          "midi": 51,
          "name": "D#3",
          "ticks": 113760,
          "time": 187.10510100000002,
          "velocity": 0.44881889763779526
        },
        {
          "duration": 0,
          "durationTicks": 0,
          "midi": 38,
          "name": "D2",
          "ticks": 113760,
          "time": 187.10510100000002,
          "velocity": 0.5039370078740157
        },
        {
          "duration": 0,
          "durationTicks": 0,
          "midi": 51,
          "name": "D#3",
          "ticks": 114000,
          "time": 187.4998375,
          "velocity": 0.5039370078740157
        },
        {
          "duration": 0,
          "durationTicks": 0,
          "midi": 51,
          "name": "D#3",
          "ticks": 114240,
          "time": 187.89457400000003,
          "velocity": 0.44881889763779526
        },
        {
          "duration": 0,
          "durationTicks": 0,
          "midi": 36,
          "name": "C2",
          "ticks": 114240,
          "time": 187.89457400000003,
          "velocity": 0.5826771653543307
        },
        {
          "duration": 0,
          "durationTicks": 0,
          "midi": 51,
          "name": "D#3",
          "ticks": 114480,
          "time": 188.28931050000003,
          "velocity": 0.5039370078740157
        },
        {
          "duration": 0,
          "durationTicks": 0,
          "midi": 51,
          "name": "D#3",
          "ticks": 114720,
          "time": 188.68404700000002,
          "velocity": 0.4015748031496063
        },
        {
          "duration": 0,
          "durationTicks": 0,
          "midi": 38,
          "name": "D2",
          "ticks": 114720,
          "time": 188.68404700000002,
          "velocity": 0.5511811023622047
        },
        {
          "duration": 0,
          "durationTicks": 0,
          "midi": 51,
          "name": "D#3",
          "ticks": 114960,
          "time": 189.07878350000001,
          "velocity": 0.5039370078740157
        },
        {
          "duration": 0,
          "durationTicks": 0,
          "midi": 36,
          "name": "C2",
          "ticks": 114960,
          "time": 189.07878350000001,
          "velocity": 0.5826771653543307
        },
        {
          "duration": 0,
          "durationTicks": 0,
          "midi": 42,
          "name": "F#2",
          "ticks": 124800,
          "time": 205.26298000000003,
          "velocity": 0.5354330708661418
        },
        {
          "duration": 0,
          "durationTicks": 0,
          "midi": 36,
          "name": "C2",
          "ticks": 124800,
          "time": 205.26298000000003,
          "velocity": 0.5984251968503937
        },
        {
          "duration": 0,
          "durationTicks": 0,
          "midi": 42,
          "name": "F#2",
          "ticks": 125040,
          "time": 205.65771650000002,
          "velocity": 0.47244094488188976
        },
        {
          "duration": 0,
          "durationTicks": 0,
          "midi": 42,
          "name": "F#2",
          "ticks": 125280,
          "time": 206.052453,
          "velocity": 0.5354330708661418
        },
        {
          "duration": 0,
          "durationTicks": 0,
          "midi": 54,
          "name": "F#3",
          "ticks": 125280,
          "time": 206.052453,
          "velocity": 0.5826771653543307
        },
        {
          "duration": 0,
          "durationTicks": 0,
          "midi": 37,
          "name": "C#2",
          "ticks": 125280,
          "time": 206.052453,
          "velocity": 0.5354330708661418
        },
        {
          "duration": 0,
          "durationTicks": 0,
          "midi": 54,
          "name": "F#3",
          "ticks": 125400,
          "time": 206.24982125000002,
          "velocity": 0.3700787401574803
        },
        {
          "duration": 0,
          "durationTicks": 0,
          "midi": 42,
          "name": "F#2",
          "ticks": 125520,
          "time": 206.44718950000004,
          "velocity": 0.5354330708661418
        },
        {
          "duration": 0,
          "durationTicks": 0,
          "midi": 54,
          "name": "F#3",
          "ticks": 125520,
          "time": 206.44718950000004,
          "velocity": 0.25984251968503935
        },
        {
          "duration": 0,
          "durationTicks": 0,
          "midi": 54,
          "name": "F#3",
          "ticks": 125640,
          "time": 206.64455775000002,
          "velocity": 0.10236220472440945
        },
        {
          "duration": 0,
          "durationTicks": 0,
          "midi": 42,
          "name": "F#2",
          "ticks": 125760,
          "time": 206.84192600000003,
          "velocity": 0.5354330708661418
        },
        {
          "duration": 0,
          "durationTicks": 0,
          "midi": 36,
          "name": "C2",
          "ticks": 125760,
          "time": 206.84192600000003,
          "velocity": 0.5039370078740157
        },
        {
          "duration": 0,
          "durationTicks": 0,
          "midi": 42,
          "name": "F#2",
          "ticks": 126000,
          "time": 207.23666250000002,
          "velocity": 0.5354330708661418
        },
        {
          "duration": 0,
          "durationTicks": 0,
          "midi": 42,
          "name": "F#2",
          "ticks": 126240,
          "time": 207.63139900000002,
          "velocity": 0.5826771653543307
        },
        {
          "duration": 0,
          "durationTicks": 0,
          "midi": 37,
          "name": "C#2",
          "ticks": 126240,
          "time": 207.63139900000002,
          "velocity": 0.5354330708661418
        },
        {
          "duration": 0,
          "durationTicks": 0,
          "midi": 42,
          "name": "F#2",
          "ticks": 126480,
          "time": 208.02613550000004,
          "velocity": 0.5354330708661418
        },
        {
          "duration": 0,
          "durationTicks": 0,
          "midi": 36,
          "name": "C2",
          "ticks": 126480,
          "time": 208.02613550000004,
          "velocity": 0.5039370078740157
        },
        {
          "duration": 0,
          "durationTicks": 0,
          "midi": 42,
          "name": "F#2",
          "ticks": 126720,
          "time": 208.42087200000003,
          "velocity": 0.5354330708661418
        },
        {
          "duration": 0,
          "durationTicks": 0,
          "midi": 36,
          "name": "C2",
          "ticks": 126720,
          "time": 208.42087200000003,
          "velocity": 0.5984251968503937
        },
        {
          "duration": 0,
          "durationTicks": 0,
          "midi": 42,
          "name": "F#2",
          "ticks": 126960,
          "time": 208.81560850000002,
          "velocity": 0.47244094488188976
        },
        {
          "duration": 0,
          "durationTicks": 0,
          "midi": 42,
          "name": "F#2",
          "ticks": 127200,
          "time": 209.21034500000002,
          "velocity": 0.5354330708661418
        },
        {
          "duration": 0,
          "durationTicks": 0,
          "midi": 54,
          "name": "F#3",
          "ticks": 127200,
          "time": 209.21034500000002,
          "velocity": 0.5826771653543307
        },
        {
          "duration": 0,
          "durationTicks": 0,
          "midi": 37,
          "name": "C#2",
          "ticks": 127200,
          "time": 209.21034500000002,
          "velocity": 0.47244094488188976
        },
        {
          "duration": 0,
          "durationTicks": 0,
          "midi": 54,
          "name": "F#3",
          "ticks": 127320,
          "time": 209.40771325000003,
          "velocity": 0.3700787401574803
        },
        {
          "duration": 0,
          "durationTicks": 0,
          "midi": 42,
          "name": "F#2",
          "ticks": 127440,
          "time": 209.6050815,
          "velocity": 0.5354330708661418
        },
        {
          "duration": 0,
          "durationTicks": 0,
          "midi": 54,
          "name": "F#3",
          "ticks": 127440,
          "time": 209.6050815,
          "velocity": 0.25984251968503935
        },
        {
          "duration": 0,
          "durationTicks": 0,
          "midi": 54,
          "name": "F#3",
          "ticks": 127560,
          "time": 209.80244975000002,
          "velocity": 0.10236220472440945
        },
        {
          "duration": 0,
          "durationTicks": 0,
          "midi": 42,
          "name": "F#2",
          "ticks": 127680,
          "time": 209.99981800000003,
          "velocity": 0.5354330708661418
        },
        {
          "duration": 0,
          "durationTicks": 0,
          "midi": 36,
          "name": "C2",
          "ticks": 127680,
          "time": 209.99981800000003,
          "velocity": 0.5039370078740157
        },
        {
          "duration": 0,
          "durationTicks": 0,
          "midi": 42,
          "name": "F#2",
          "ticks": 127920,
          "time": 210.39455450000003,
          "velocity": 0.5354330708661418
        },
        {
          "duration": 0,
          "durationTicks": 0,
          "midi": 42,
          "name": "F#2",
          "ticks": 128160,
          "time": 210.78929100000002,
          "velocity": 0.5826771653543307
        },
        {
          "duration": 0,
          "durationTicks": 0,
          "midi": 37,
          "name": "C#2",
          "ticks": 128160,
          "time": 210.78929100000002,
          "velocity": 0.47244094488188976
        },
        {
          "duration": 0,
          "durationTicks": 0,
          "midi": 46,
          "name": "A#2",
          "ticks": 128400,
          "time": 211.1840275,
          "velocity": 0.5354330708661418
        },
        {
          "duration": 0,
          "durationTicks": 0,
          "midi": 36,
          "name": "C2",
          "ticks": 128400,
          "time": 211.1840275,
          "velocity": 0.5511811023622047
        },
        {
          "duration": 0,
          "durationTicks": 0,
          "midi": 42,
          "name": "F#2",
          "ticks": 128640,
          "time": 211.57876400000004,
          "velocity": 0.5354330708661418
        },
        {
          "duration": 0,
          "durationTicks": 0,
          "midi": 36,
          "name": "C2",
          "ticks": 128640,
          "time": 211.57876400000004,
          "velocity": 0.5511811023622047
        },
        {
          "duration": 0,
          "durationTicks": 0,
          "midi": 42,
          "name": "F#2",
          "ticks": 128880,
          "time": 211.97350050000003,
          "velocity": 0.47244094488188976
        },
        {
          "duration": 0,
          "durationTicks": 0,
          "midi": 42,
          "name": "F#2",
          "ticks": 129120,
          "time": 212.36823700000002,
          "velocity": 0.5354330708661418
        },
        {
          "duration": 0,
          "durationTicks": 0,
          "midi": 54,
          "name": "F#3",
          "ticks": 129120,
          "time": 212.36823700000002,
          "velocity": 0.5826771653543307
        },
        {
          "duration": 0,
          "durationTicks": 0,
          "midi": 37,
          "name": "C#2",
          "ticks": 129120,
          "time": 212.36823700000002,
          "velocity": 0.5354330708661418
        },
        {
          "duration": 0,
          "durationTicks": 0,
          "midi": 54,
          "name": "F#3",
          "ticks": 129240,
          "time": 212.56560525000003,
          "velocity": 0.3700787401574803
        },
        {
          "duration": 0,
          "durationTicks": 0,
          "midi": 42,
          "name": "F#2",
          "ticks": 129360,
          "time": 212.76297350000002,
          "velocity": 0.5354330708661418
        },
        {
          "duration": 0,
          "durationTicks": 0,
          "midi": 54,
          "name": "F#3",
          "ticks": 129360,
          "time": 212.76297350000002,
          "velocity": 0.25984251968503935
        },
        {
          "duration": 0,
          "durationTicks": 0,
          "midi": 54,
          "name": "F#3",
          "ticks": 129480,
          "time": 212.96034175000003,
          "velocity": 0.10236220472440945
        },
        {
          "duration": 0,
          "durationTicks": 0,
          "midi": 42,
          "name": "F#2",
          "ticks": 129600,
          "time": 213.15771000000004,
          "velocity": 0.5354330708661418
        },
        {
          "duration": 0,
          "durationTicks": 0,
          "midi": 36,
          "name": "C2",
          "ticks": 129600,
          "time": 213.15771000000004,
          "velocity": 0.5826771653543307
        },
        {
          "duration": 0,
          "durationTicks": 0,
          "midi": 42,
          "name": "F#2",
          "ticks": 129840,
          "time": 213.55244650000003,
          "velocity": 0.5354330708661418
        },
        {
          "duration": 0,
          "durationTicks": 0,
          "midi": 42,
          "name": "F#2",
          "ticks": 130080,
          "time": 213.94718300000002,
          "velocity": 0.5826771653543307
        },
        {
          "duration": 0,
          "durationTicks": 0,
          "midi": 37,
          "name": "C#2",
          "ticks": 130080,
          "time": 213.94718300000002,
          "velocity": 0.4251968503937008
        },
        {
          "duration": 0,
          "durationTicks": 0,
          "midi": 42,
          "name": "F#2",
          "ticks": 130320,
          "time": 214.34191950000002,
          "velocity": 0.5354330708661418
        },
        {
          "duration": 0,
          "durationTicks": 0,
          "midi": 36,
          "name": "C2",
          "ticks": 130320,
          "time": 214.34191950000002,
          "velocity": 0.5354330708661418
        },
        {
          "duration": 0,
          "durationTicks": 0,
          "midi": 42,
          "name": "F#2",
          "ticks": 130560,
          "time": 214.73665600000004,
          "velocity": 0.5354330708661418
        },
        {
          "duration": 0,
          "durationTicks": 0,
          "midi": 36,
          "name": "C2",
          "ticks": 130560,
          "time": 214.73665600000004,
          "velocity": 0.5826771653543307
        },
        {
          "duration": 0,
          "durationTicks": 0,
          "midi": 42,
          "name": "F#2",
          "ticks": 130800,
          "time": 215.13139250000003,
          "velocity": 0.47244094488188976
        },
        {
          "duration": 0,
          "durationTicks": 0,
          "midi": 42,
          "name": "F#2",
          "ticks": 131040,
          "time": 215.52612900000003,
          "velocity": 0.5354330708661418
        },
        {
          "duration": 0,
          "durationTicks": 0,
          "midi": 54,
          "name": "F#3",
          "ticks": 131040,
          "time": 215.52612900000003,
          "velocity": 0.5826771653543307
        },
        {
          "duration": 0,
          "durationTicks": 0,
          "midi": 37,
          "name": "C#2",
          "ticks": 131040,
          "time": 215.52612900000003,
          "velocity": 0.5354330708661418
        },
        {
          "duration": 0,
          "durationTicks": 0,
          "midi": 54,
          "name": "F#3",
          "ticks": 131160,
          "time": 215.72349725000004,
          "velocity": 0.3700787401574803
        },
        {
          "duration": 0,
          "durationTicks": 0,
          "midi": 42,
          "name": "F#2",
          "ticks": 131280,
          "time": 215.92086550000002,
          "velocity": 0.5354330708661418
        },
        {
          "duration": 0,
          "durationTicks": 0,
          "midi": 54,
          "name": "F#3",
          "ticks": 131280,
          "time": 215.92086550000002,
          "velocity": 0.25984251968503935
        },
        {
          "duration": 0,
          "durationTicks": 0,
          "midi": 54,
          "name": "F#3",
          "ticks": 131400,
          "time": 216.11823375000003,
          "velocity": 0.10236220472440945
        },
        {
          "duration": 0,
          "durationTicks": 0,
          "midi": 36,
          "name": "C2",
          "ticks": 131520,
          "time": 216.315602,
          "velocity": 0.5826771653543307
        },
        {
          "duration": 0,
          "durationTicks": 0,
          "midi": 42,
          "name": "F#2",
          "ticks": 131520,
          "time": 216.315602,
          "velocity": 0.5354330708661418
        },
        {
          "duration": 0,
          "durationTicks": 0,
          "midi": 42,
          "name": "F#2",
          "ticks": 131760,
          "time": 216.71033850000003,
          "velocity": 0.47244094488188976
        },
        {
          "duration": 0,
          "durationTicks": 0,
          "midi": 42,
          "name": "F#2",
          "ticks": 132000,
          "time": 217.10507500000003,
          "velocity": 0.5354330708661418
        },
        {
          "duration": 0,
          "durationTicks": 0,
          "midi": 54,
          "name": "F#3",
          "ticks": 132000,
          "time": 217.10507500000003,
          "velocity": 0.5826771653543307
        },
        {
          "duration": 0,
          "durationTicks": 0,
          "midi": 37,
          "name": "C#2",
          "ticks": 132000,
          "time": 217.10507500000003,
          "velocity": 0.5354330708661418
        },
        {
          "duration": 0,
          "durationTicks": 0,
          "midi": 54,
          "name": "F#3",
          "ticks": 132120,
          "time": 217.30244325000004,
          "velocity": 0.3700787401574803
        },
        {
          "duration": 0,
          "durationTicks": 0,
          "midi": 42,
          "name": "F#2",
          "ticks": 132240,
          "time": 217.49981150000002,
          "velocity": 0.5354330708661418
        },
        {
          "duration": 0,
          "durationTicks": 0,
          "midi": 54,
          "name": "F#3",
          "ticks": 132240,
          "time": 217.49981150000002,
          "velocity": 0.25984251968503935
        },
        {
          "duration": 0,
          "durationTicks": 0,
          "midi": 64,
          "name": "E4",
          "ticks": 132240,
          "time": 217.49981150000002,
          "velocity": 0.6299212598425197
        },
        {
          "duration": 0,
          "durationTicks": 0,
          "midi": 54,
          "name": "F#3",
          "ticks": 132360,
          "time": 217.69717975000003,
          "velocity": 0.10236220472440945
        },
        {
          "duration": 0,
          "durationTicks": 0,
          "midi": 49,
          "name": "C#3",
          "ticks": 132480,
          "time": 217.89454800000001,
          "velocity": 0.3464566929133858
        },
        {
          "duration": 0,
          "durationTicks": 0,
          "midi": 36,
          "name": "C2",
          "ticks": 132480,
          "time": 217.89454800000001,
          "velocity": 0.5984251968503937
        },
        {
          "duration": 0,
          "durationTicks": 0,
          "midi": 51,
          "name": "D#3",
          "ticks": 132720,
          "time": 218.28928450000004,
          "velocity": 0.5039370078740157
        },
        {
          "duration": 0,
          "durationTicks": 0,
          "midi": 51,
          "name": "D#3",
          "ticks": 132960,
          "time": 218.68402100000003,
          "velocity": 0.5039370078740157
        },
        {
          "duration": 0,
          "durationTicks": 0,
          "midi": 38,
          "name": "D2",
          "ticks": 132960,
          "time": 218.68402100000003,
          "velocity": 0.5511811023622047
        },
        {
          "duration": 0,
          "durationTicks": 0,
          "midi": 51,
          "name": "D#3",
          "ticks": 133200,
          "time": 219.07875750000002,
          "velocity": 0.5039370078740157
        },
        {
          "duration": 0,
          "durationTicks": 0,
          "midi": 51,
          "name": "D#3",
          "ticks": 133440,
          "time": 219.47349400000002,
          "velocity": 0.44881889763779526
        },
        {
          "duration": 0,
          "durationTicks": 0,
          "midi": 36,
          "name": "C2",
          "ticks": 133440,
          "time": 219.47349400000002,
          "velocity": 0.5039370078740157
        },
        {
          "duration": 0,
          "durationTicks": 0,
          "midi": 51,
          "name": "D#3",
          "ticks": 133680,
          "time": 219.86823050000004,
          "velocity": 0.5039370078740157
        },
        {
          "duration": 0,
          "durationTicks": 0,
          "midi": 51,
          "name": "D#3",
          "ticks": 133920,
          "time": 220.26296700000003,
          "velocity": 0.5511811023622047
        },
        {
          "duration": 0,
          "durationTicks": 0,
          "midi": 38,
          "name": "D2",
          "ticks": 133920,
          "time": 220.26296700000003,
          "velocity": 0.5039370078740157
        },
        {
          "duration": 0,
          "durationTicks": 0,
          "midi": 51,
          "name": "D#3",
          "ticks": 134160,
          "time": 220.65770350000003,
          "velocity": 0.5511811023622047
        },
        {
          "duration": 0,
          "durationTicks": 0,
          "midi": 36,
          "name": "C2",
          "ticks": 134160,
          "time": 220.65770350000003,
          "velocity": 0.5039370078740157
        },
        {
          "duration": 0,
          "durationTicks": 0,
          "midi": 49,
          "name": "C#3",
          "ticks": 134400,
          "time": 221.05244000000002,
          "velocity": 0.3464566929133858
        },
        {
          "duration": 0,
          "durationTicks": 0,
          "midi": 36,
          "name": "C2",
          "ticks": 134400,
          "time": 221.05244000000002,
          "velocity": 0.5984251968503937
        },
        {
          "duration": 0,
          "durationTicks": 0,
          "midi": 51,
          "name": "D#3",
          "ticks": 134640,
          "time": 221.4471765,
          "velocity": 0.5039370078740157
        },
        {
          "duration": 0,
          "durationTicks": 0,
          "midi": 51,
          "name": "D#3",
          "ticks": 134880,
          "time": 221.84191300000003,
          "velocity": 0.44881889763779526
        },
        {
          "duration": 0,
          "durationTicks": 0,
          "midi": 38,
          "name": "D2",
          "ticks": 134880,
          "time": 221.84191300000003,
          "velocity": 0.5039370078740157
        },
        {
          "duration": 0,
          "durationTicks": 0,
          "midi": 51,
          "name": "D#3",
          "ticks": 135120,
          "time": 222.23664950000003,
          "velocity": 0.5039370078740157
        },
        {
          "duration": 0,
          "durationTicks": 0,
          "midi": 51,
          "name": "D#3",
          "ticks": 135360,
          "time": 222.63138600000002,
          "velocity": 0.5039370078740157
        },
        {
          "duration": 0,
          "durationTicks": 0,
          "midi": 36,
          "name": "C2",
          "ticks": 135360,
          "time": 222.63138600000002,
          "velocity": 0.5039370078740157
        },
        {
          "duration": 0,
          "durationTicks": 0,
          "midi": 51,
          "name": "D#3",
          "ticks": 135600,
          "time": 223.0261225,
          "velocity": 0.44881889763779526
        },
        {
          "duration": 0,
          "durationTicks": 0,
          "midi": 51,
          "name": "D#3",
          "ticks": 135840,
          "time": 223.42085900000004,
          "velocity": 0.44881889763779526
        },
        {
          "duration": 0,
          "durationTicks": 0,
          "midi": 38,
          "name": "D2",
          "ticks": 135840,
          "time": 223.42085900000004,
          "velocity": 0.5511811023622047
        },
        {
          "duration": 0,
          "durationTicks": 0,
          "midi": 51,
          "name": "D#3",
          "ticks": 136080,
          "time": 223.81559550000003,
          "velocity": 0.5511811023622047
        },
        {
          "duration": 0,
          "durationTicks": 0,
          "midi": 36,
          "name": "C2",
          "ticks": 136080,
          "time": 223.81559550000003,
          "velocity": 0.5511811023622047
        },
        {
          "duration": 0,
          "durationTicks": 0,
          "midi": 49,
          "name": "C#3",
          "ticks": 136320,
          "time": 224.21033200000002,
          "velocity": 0.4015748031496063
        },
        {
          "duration": 0,
          "durationTicks": 0,
          "midi": 36,
          "name": "C2",
          "ticks": 136320,
          "time": 224.21033200000002,
          "velocity": 0.5511811023622047
        },
        {
          "duration": 0,
          "durationTicks": 0,
          "midi": 51,
          "name": "D#3",
          "ticks": 136560,
          "time": 224.60506850000002,
          "velocity": 0.4015748031496063
        },
        {
          "duration": 0,
          "durationTicks": 0,
          "midi": 51,
          "name": "D#3",
          "ticks": 136800,
          "time": 224.99980500000004,
          "velocity": 0.4015748031496063
        },
        {
          "duration": 0,
          "durationTicks": 0,
          "midi": 38,
          "name": "D2",
          "ticks": 136800,
          "time": 224.99980500000004,
          "velocity": 0.5511811023622047
        },
        {
          "duration": 0,
          "durationTicks": 0,
          "midi": 51,
          "name": "D#3",
          "ticks": 137040,
          "time": 225.39454150000003,
          "velocity": 0.44881889763779526
        },
        {
          "duration": 0,
          "durationTicks": 0,
          "midi": 51,
          "name": "D#3",
          "ticks": 137280,
          "time": 225.78927800000002,
          "velocity": 0.4015748031496063
        },
        {
          "duration": 0,
          "durationTicks": 0,
          "midi": 36,
          "name": "C2",
          "ticks": 137280,
          "time": 225.78927800000002,
          "velocity": 0.5826771653543307
        },
        {
          "duration": 0,
          "durationTicks": 0,
          "midi": 51,
          "name": "D#3",
          "ticks": 137520,
          "time": 226.18401450000002,
          "velocity": 0.5039370078740157
        },
        {
          "duration": 0,
          "durationTicks": 0,
          "midi": 51,
          "name": "D#3",
          "ticks": 137760,
          "time": 226.57875100000004,
          "velocity": 0.44881889763779526
        },
        {
          "duration": 0,
          "durationTicks": 0,
          "midi": 38,
          "name": "D2",
          "ticks": 137760,
          "time": 226.57875100000004,
          "velocity": 0.5039370078740157
        },
        {
          "duration": 0,
          "durationTicks": 0,
          "midi": 51,
          "name": "D#3",
          "ticks": 138000,
          "time": 226.97348750000003,
          "velocity": 0.5039370078740157
        },
        {
          "duration": 0,
          "durationTicks": 0,
          "midi": 36,
          "name": "C2",
          "ticks": 138000,
          "time": 226.97348750000003,
          "velocity": 0.5354330708661418
        },
        {
          "duration": 0,
          "durationTicks": 0,
          "midi": 49,
          "name": "C#3",
          "ticks": 138240,
          "time": 227.36822400000003,
          "velocity": 0.4015748031496063
        },
        {
          "duration": 0,
          "durationTicks": 0,
          "midi": 36,
          "name": "C2",
          "ticks": 138240,
          "time": 227.36822400000003,
          "velocity": 0.5826771653543307
        },
        {
          "duration": 0,
          "durationTicks": 0,
          "midi": 51,
          "name": "D#3",
          "ticks": 138480,
          "time": 227.76296050000002,
          "velocity": 0.44881889763779526
        },
        {
          "duration": 0,
          "durationTicks": 0,
          "midi": 51,
          "name": "D#3",
          "ticks": 138720,
          "time": 228.157697,
          "velocity": 0.44881889763779526
        },
        {
          "duration": 0,
          "durationTicks": 0,
          "midi": 38,
          "name": "D2",
          "ticks": 138720,
          "time": 228.157697,
          "velocity": 0.5039370078740157
        },
        {
          "duration": 0,
          "durationTicks": 0,
          "midi": 51,
          "name": "D#3",
          "ticks": 138960,
          "time": 228.55243350000003,
          "velocity": 0.5039370078740157
        },
        {
          "duration": 0,
          "durationTicks": 0,
          "midi": 51,
          "name": "D#3",
          "ticks": 139200,
          "time": 228.94717000000003,
          "velocity": 0.44881889763779526
        },
        {
          "duration": 0,
          "durationTicks": 0,
          "midi": 36,
          "name": "C2",
          "ticks": 139200,
          "time": 228.94717000000003,
          "velocity": 0.5826771653543307
        },
        {
          "duration": 0,
          "durationTicks": 0,
          "midi": 51,
          "name": "D#3",
          "ticks": 139440,
          "time": 229.34190650000002,
          "velocity": 0.5039370078740157
        },
        {
          "duration": 0,
          "durationTicks": 0,
          "midi": 51,
          "name": "D#3",
          "ticks": 139680,
          "time": 229.73664300000002,
          "velocity": 0.4015748031496063
        },
        {
          "duration": 0,
          "durationTicks": 0,
          "midi": 38,
          "name": "D2",
          "ticks": 139680,
          "time": 229.73664300000002,
          "velocity": 0.5511811023622047
        },
        {
          "duration": 0,
          "durationTicks": 0,
          "midi": 51,
          "name": "D#3",
          "ticks": 139920,
          "time": 230.13137950000004,
          "velocity": 0.5039370078740157
        },
        {
          "duration": 0,
          "durationTicks": 0,
          "midi": 36,
          "name": "C2",
          "ticks": 139920,
          "time": 230.13137950000004,
          "velocity": 0.5826771653543307
        },
        {
          "duration": 0,
          "durationTicks": 0,
          "midi": 49,
          "name": "C#3",
          "ticks": 140160,
          "time": 230.52611600000003,
          "velocity": 0.3464566929133858
        },
        {
          "duration": 0,
          "durationTicks": 0,
          "midi": 36,
          "name": "C2",
          "ticks": 140160,
          "time": 230.52611600000003,
          "velocity": 0.5984251968503937
        },
        {
          "duration": 0,
          "durationTicks": 0,
          "midi": 51,
          "name": "D#3",
          "ticks": 140400,
          "time": 230.92085250000002,
          "velocity": 0.5039370078740157
        },
        {
          "duration": 0,
          "durationTicks": 0,
          "midi": 51,
          "name": "D#3",
          "ticks": 140640,
          "time": 231.31558900000002,
          "velocity": 0.5039370078740157
        },
        {
          "duration": 0,
          "durationTicks": 0,
          "midi": 38,
          "name": "D2",
          "ticks": 140640,
          "time": 231.31558900000002,
          "velocity": 0.5511811023622047
        },
        {
          "duration": 0,
          "durationTicks": 0,
          "midi": 51,
          "name": "D#3",
          "ticks": 140880,
          "time": 231.71032550000004,
          "velocity": 0.5039370078740157
        },
        {
          "duration": 0,
          "durationTicks": 0,
          "midi": 51,
          "name": "D#3",
          "ticks": 141120,
          "time": 232.10506200000003,
          "velocity": 0.44881889763779526
        },
        {
          "duration": 0,
          "durationTicks": 0,
          "midi": 36,
          "name": "C2",
          "ticks": 141120,
          "time": 232.10506200000003,
          "velocity": 0.5039370078740157
        },
        {
          "duration": 0,
          "durationTicks": 0,
          "midi": 51,
          "name": "D#3",
          "ticks": 141360,
          "time": 232.49979850000003,
          "velocity": 0.5039370078740157
        },
        {
          "duration": 0,
          "durationTicks": 0,
          "midi": 51,
          "name": "D#3",
          "ticks": 141600,
          "time": 232.89453500000002,
          "velocity": 0.5511811023622047
        },
        {
          "duration": 0,
          "durationTicks": 0,
          "midi": 38,
          "name": "D2",
          "ticks": 141600,
          "time": 232.89453500000002,
          "velocity": 0.5039370078740157
        },
        {
          "duration": 0,
          "durationTicks": 0,
          "midi": 51,
          "name": "D#3",
          "ticks": 141840,
          "time": 233.28927150000004,
          "velocity": 0.5511811023622047
        },
        {
          "duration": 0,
          "durationTicks": 0,
          "midi": 36,
          "name": "C2",
          "ticks": 141840,
          "time": 233.28927150000004,
          "velocity": 0.5039370078740157
        },
        {
          "duration": 0,
          "durationTicks": 0,
          "midi": 49,
          "name": "C#3",
          "ticks": 142080,
          "time": 233.68400800000003,
          "velocity": 0.3464566929133858
        },
        {
          "duration": 0,
          "durationTicks": 0,
          "midi": 36,
          "name": "C2",
          "ticks": 142080,
          "time": 233.68400800000003,
          "velocity": 0.5984251968503937
        },
        {
          "duration": 0,
          "durationTicks": 0,
          "midi": 51,
          "name": "D#3",
          "ticks": 142320,
          "time": 234.07874450000003,
          "velocity": 0.5039370078740157
        },
        {
          "duration": 0,
          "durationTicks": 0,
          "midi": 51,
          "name": "D#3",
          "ticks": 142560,
          "time": 234.47348100000002,
          "velocity": 0.44881889763779526
        },
        {
          "duration": 0,
          "durationTicks": 0,
          "midi": 38,
          "name": "D2",
          "ticks": 142560,
          "time": 234.47348100000002,
          "velocity": 0.5039370078740157
        },
        {
          "duration": 0,
          "durationTicks": 0,
          "midi": 51,
          "name": "D#3",
          "ticks": 142800,
          "time": 234.86821750000001,
          "velocity": 0.5039370078740157
        },
        {
          "duration": 0,
          "durationTicks": 0,
          "midi": 51,
          "name": "D#3",
          "ticks": 143040,
          "time": 235.26295400000004,
          "velocity": 0.5039370078740157
        },
        {
          "duration": 0,
          "durationTicks": 0,
          "midi": 36,
          "name": "C2",
          "ticks": 143040,
          "time": 235.26295400000004,
          "velocity": 0.5039370078740157
        },
        {
          "duration": 0,
          "durationTicks": 0,
          "midi": 51,
          "name": "D#3",
          "ticks": 143280,
          "time": 235.65769050000003,
          "velocity": 0.44881889763779526
        },
        {
          "duration": 0,
          "durationTicks": 0,
          "midi": 51,
          "name": "D#3",
          "ticks": 143520,
          "time": 236.05242700000002,
          "velocity": 0.44881889763779526
        },
        {
          "duration": 0,
          "durationTicks": 0,
          "midi": 38,
          "name": "D2",
          "ticks": 143520,
          "time": 236.05242700000002,
          "velocity": 0.5511811023622047
        },
        {
          "duration": 0,
          "durationTicks": 0,
          "midi": 51,
          "name": "D#3",
          "ticks": 143760,
          "time": 236.44716350000002,
          "velocity": 0.5511811023622047
        },
        {
          "duration": 0,
          "durationTicks": 0,
          "midi": 36,
          "name": "C2",
          "ticks": 143760,
          "time": 236.44716350000002,
          "velocity": 0.5511811023622047
        },
        {
          "duration": 0,
          "durationTicks": 0,
          "midi": 49,
          "name": "C#3",
          "ticks": 144000,
          "time": 236.84190000000004,
          "velocity": 0.4015748031496063
        },
        {
          "duration": 0,
          "durationTicks": 0,
          "midi": 36,
          "name": "C2",
          "ticks": 144000,
          "time": 236.84190000000004,
          "velocity": 0.5511811023622047
        },
        {
          "duration": 0,
          "durationTicks": 0,
          "midi": 51,
          "name": "D#3",
          "ticks": 144240,
          "time": 237.23663650000003,
          "velocity": 0.4015748031496063
        },
        {
          "duration": 0,
          "durationTicks": 0,
          "midi": 51,
          "name": "D#3",
          "ticks": 144480,
          "time": 237.63137300000002,
          "velocity": 0.4015748031496063
        },
        {
          "duration": 0,
          "durationTicks": 0,
          "midi": 38,
          "name": "D2",
          "ticks": 144480,
          "time": 237.63137300000002,
          "velocity": 0.5511811023622047
        },
        {
          "duration": 0,
          "durationTicks": 0,
          "midi": 51,
          "name": "D#3",
          "ticks": 144720,
          "time": 238.02610950000002,
          "velocity": 0.44881889763779526
        },
        {
          "duration": 0,
          "durationTicks": 0,
          "midi": 51,
          "name": "D#3",
          "ticks": 144960,
          "time": 238.42084600000004,
          "velocity": 0.4015748031496063
        },
        {
          "duration": 0,
          "durationTicks": 0,
          "midi": 36,
          "name": "C2",
          "ticks": 144960,
          "time": 238.42084600000004,
          "velocity": 0.5826771653543307
        },
        {
          "duration": 0,
          "durationTicks": 0,
          "midi": 51,
          "name": "D#3",
          "ticks": 145200,
          "time": 238.81558250000003,
          "velocity": 0.5039370078740157
        },
        {
          "duration": 0,
          "durationTicks": 0,
          "midi": 51,
          "name": "D#3",
          "ticks": 145440,
          "time": 239.21031900000003,
          "velocity": 0.44881889763779526
        },
        {
          "duration": 0,
          "durationTicks": 0,
          "midi": 38,
          "name": "D2",
          "ticks": 145440,
          "time": 239.21031900000003,
          "velocity": 0.5039370078740157
        },
        {
          "duration": 0,
          "durationTicks": 0,
          "midi": 51,
          "name": "D#3",
          "ticks": 145680,
          "time": 239.60505550000002,
          "velocity": 0.5039370078740157
        },
        {
          "duration": 0,
          "durationTicks": 0,
          "midi": 36,
          "name": "C2",
          "ticks": 145680,
          "time": 239.60505550000002,
          "velocity": 0.5354330708661418
        },
        {
          "duration": 0,
          "durationTicks": 0,
          "midi": 49,
          "name": "C#3",
          "ticks": 145920,
          "time": 239.999792,
          "velocity": 0.4015748031496063
        },
        {
          "duration": 0,
          "durationTicks": 0,
          "midi": 36,
          "name": "C2",
          "ticks": 145920,
          "time": 239.999792,
          "velocity": 0.5826771653543307
        },
        {
          "duration": 0,
          "durationTicks": 0,
          "midi": 51,
          "name": "D#3",
          "ticks": 146160,
          "time": 240.39452850000004,
          "velocity": 0.44881889763779526
        },
        {
          "duration": 0,
          "durationTicks": 0,
          "midi": 51,
          "name": "D#3",
          "ticks": 146400,
          "time": 240.78926500000003,
          "velocity": 0.44881889763779526
        },
        {
          "duration": 0,
          "durationTicks": 0,
          "midi": 38,
          "name": "D2",
          "ticks": 146400,
          "time": 240.78926500000003,
          "velocity": 0.5039370078740157
        },
        {
          "duration": 0,
          "durationTicks": 0,
          "midi": 51,
          "name": "D#3",
          "ticks": 146640,
          "time": 241.18400150000002,
          "velocity": 0.5039370078740157
        },
        {
          "duration": 0,
          "durationTicks": 0,
          "midi": 42,
          "name": "F#2",
          "ticks": 146880,
          "time": 241.57873800000002,
          "velocity": 0.5354330708661418
        },
        {
          "duration": 0,
          "durationTicks": 0,
          "midi": 42,
          "name": "F#2",
          "ticks": 147120,
          "time": 241.97347450000004,
          "velocity": 0.47244094488188976
        },
        {
          "duration": 0,
          "durationTicks": 0,
          "midi": 42,
          "name": "F#2",
          "ticks": 147360,
          "time": 242.36821100000003,
          "velocity": 0.5354330708661418
        },
        {
          "duration": 0,
          "durationTicks": 0,
          "midi": 41,
          "name": "F2",
          "ticks": 147360,
          "time": 242.36821100000003,
          "velocity": 0.5511811023622047
        },
        {
          "duration": 0,
          "durationTicks": 0,
          "midi": 38,
          "name": "D2",
          "ticks": 147360,
          "time": 242.36821100000003,
          "velocity": 0.5039370078740157
        },
        {
          "duration": 0,
          "durationTicks": 0,
          "midi": 42,
          "name": "F#2",
          "ticks": 147600,
          "time": 242.76294750000002,
          "velocity": 0.5354330708661418
        },
        {
          "duration": 0,
          "durationTicks": 0,
          "midi": 49,
          "name": "C#3",
          "ticks": 147840,
          "time": 243.15768400000002,
          "velocity": 0.3464566929133858
        },
        {
          "duration": 0,
          "durationTicks": 0,
          "midi": 36,
          "name": "C2",
          "ticks": 147840,
          "time": 243.15768400000002,
          "velocity": 0.5984251968503937
        },
        {
          "duration": 0,
          "durationTicks": 0,
          "midi": 51,
          "name": "D#3",
          "ticks": 148080,
          "time": 243.55242050000004,
          "velocity": 0.5039370078740157
        },
        {
          "duration": 0,
          "durationTicks": 0,
          "midi": 51,
          "name": "D#3",
          "ticks": 148320,
          "time": 243.94715700000003,
          "velocity": 0.5039370078740157
        },
        {
          "duration": 0,
          "durationTicks": 0,
          "midi": 38,
          "name": "D2",
          "ticks": 148320,
          "time": 243.94715700000003,
          "velocity": 0.5511811023622047
        },
        {
          "duration": 0,
          "durationTicks": 0,
          "midi": 51,
          "name": "D#3",
          "ticks": 148560,
          "time": 244.34189350000003,
          "velocity": 0.5039370078740157
        },
        {
          "duration": 0,
          "durationTicks": 0,
          "midi": 51,
          "name": "D#3",
          "ticks": 148800,
          "time": 244.73663000000002,
          "velocity": 0.44881889763779526
        },
        {
          "duration": 0,
          "durationTicks": 0,
          "midi": 36,
          "name": "C2",
          "ticks": 148800,
          "time": 244.73663000000002,
          "velocity": 0.5039370078740157
        },
        {
          "duration": 0,
          "durationTicks": 0,
          "midi": 51,
          "name": "D#3",
          "ticks": 149040,
          "time": 245.13136650000004,
          "velocity": 0.5039370078740157
        },
        {
          "duration": 0,
          "durationTicks": 0,
          "midi": 51,
          "name": "D#3",
          "ticks": 149280,
          "time": 245.52610300000003,
          "velocity": 0.5511811023622047
        },
        {
          "duration": 0,
          "durationTicks": 0,
          "midi": 38,
          "name": "D2",
          "ticks": 149280,
          "time": 245.52610300000003,
          "velocity": 0.5039370078740157
        },
        {
          "duration": 0,
          "durationTicks": 0,
          "midi": 51,
          "name": "D#3",
          "ticks": 149520,
          "time": 245.92083950000003,
          "velocity": 0.5511811023622047
        },
        {
          "duration": 0,
          "durationTicks": 0,
          "midi": 36,
          "name": "C2",
          "ticks": 149520,
          "time": 245.92083950000003,
          "velocity": 0.5039370078740157
        },
        {
          "duration": 0,
          "durationTicks": 0,
          "midi": 49,
          "name": "C#3",
          "ticks": 149760,
          "time": 246.31557600000002,
          "velocity": 0.3464566929133858
        },
        {
          "duration": 0,
          "durationTicks": 0,
          "midi": 36,
          "name": "C2",
          "ticks": 149760,
          "time": 246.31557600000002,
          "velocity": 0.5984251968503937
        },
        {
          "duration": 0,
          "durationTicks": 0,
          "midi": 51,
          "name": "D#3",
          "ticks": 150000,
          "time": 246.71031250000001,
          "velocity": 0.5039370078740157
        },
        {
          "duration": 0,
          "durationTicks": 0,
          "midi": 51,
          "name": "D#3",
          "ticks": 150240,
          "time": 247.10504900000004,
          "velocity": 0.44881889763779526
        },
        {
          "duration": 0,
          "durationTicks": 0,
          "midi": 38,
          "name": "D2",
          "ticks": 150240,
          "time": 247.10504900000004,
          "velocity": 0.5039370078740157
        },
        {
          "duration": 0,
          "durationTicks": 0,
          "midi": 51,
          "name": "D#3",
          "ticks": 150480,
          "time": 247.49978550000003,
          "velocity": 0.5039370078740157
        },
        {
          "duration": 0,
          "durationTicks": 0,
          "midi": 51,
          "name": "D#3",
          "ticks": 150720,
          "time": 247.89452200000002,
          "velocity": 0.5039370078740157
        },
        {
          "duration": 0,
          "durationTicks": 0,
          "midi": 36,
          "name": "C2",
          "ticks": 150720,
          "time": 247.89452200000002,
          "velocity": 0.5039370078740157
        },
        {
          "duration": 0,
          "durationTicks": 0,
          "midi": 51,
          "name": "D#3",
          "ticks": 150960,
          "time": 248.28925850000002,
          "velocity": 0.44881889763779526
        },
        {
          "duration": 0,
          "durationTicks": 0,
          "midi": 51,
          "name": "D#3",
          "ticks": 151200,
          "time": 248.68399500000004,
          "velocity": 0.44881889763779526
        },
        {
          "duration": 0,
          "durationTicks": 0,
          "midi": 38,
          "name": "D2",
          "ticks": 151200,
          "time": 248.68399500000004,
          "velocity": 0.5511811023622047
        },
        {
          "duration": 0,
          "durationTicks": 0,
          "midi": 51,
          "name": "D#3",
          "ticks": 151440,
          "time": 249.07873150000003,
          "velocity": 0.5511811023622047
        },
        {
          "duration": 0,
          "durationTicks": 0,
          "midi": 36,
          "name": "C2",
          "ticks": 151440,
          "time": 249.07873150000003,
          "velocity": 0.5511811023622047
        },
        {
          "duration": 0,
          "durationTicks": 0,
          "midi": 49,
          "name": "C#3",
          "ticks": 151680,
          "time": 249.47346800000003,
          "velocity": 0.4015748031496063
        },
        {
          "duration": 0,
          "durationTicks": 0,
          "midi": 36,
          "name": "C2",
          "ticks": 151680,
          "time": 249.47346800000003,
          "velocity": 0.5511811023622047
        },
        {
          "duration": 0,
          "durationTicks": 0,
          "midi": 51,
          "name": "D#3",
          "ticks": 151920,
          "time": 249.86820450000002,
          "velocity": 0.4015748031496063
        },
        {
          "duration": 0,
          "durationTicks": 0,
          "midi": 51,
          "name": "D#3",
          "ticks": 152160,
          "time": 250.26294100000004,
          "velocity": 0.4015748031496063
        },
        {
          "duration": 0,
          "durationTicks": 0,
          "midi": 38,
          "name": "D2",
          "ticks": 152160,
          "time": 250.26294100000004,
          "velocity": 0.5511811023622047
        },
        {
          "duration": 0,
          "durationTicks": 0,
          "midi": 51,
          "name": "D#3",
          "ticks": 152400,
          "time": 250.65767750000003,
          "velocity": 0.44881889763779526
        },
        {
          "duration": 0,
          "durationTicks": 0,
          "midi": 51,
          "name": "D#3",
          "ticks": 152640,
          "time": 251.05241400000003,
          "velocity": 0.4015748031496063
        },
        {
          "duration": 0,
          "durationTicks": 0,
          "midi": 36,
          "name": "C2",
          "ticks": 152640,
          "time": 251.05241400000003,
          "velocity": 0.5826771653543307
        },
        {
          "duration": 0,
          "durationTicks": 0,
          "midi": 51,
          "name": "D#3",
          "ticks": 152880,
          "time": 251.44715050000002,
          "velocity": 0.5039370078740157
        },
        {
          "duration": 0,
          "durationTicks": 0,
          "midi": 51,
          "name": "D#3",
          "ticks": 153120,
          "time": 251.84188700000004,
          "velocity": 0.44881889763779526
        },
        {
          "duration": 0,
          "durationTicks": 0,
          "midi": 38,
          "name": "D2",
          "ticks": 153120,
          "time": 251.84188700000004,
          "velocity": 0.5039370078740157
        },
        {
          "duration": 0,
          "durationTicks": 0,
          "midi": 51,
          "name": "D#3",
          "ticks": 153360,
          "time": 252.23662350000004,
          "velocity": 0.5039370078740157
        },
        {
          "duration": 0,
          "durationTicks": 0,
          "midi": 36,
          "name": "C2",
          "ticks": 153360,
          "time": 252.23662350000004,
          "velocity": 0.5354330708661418
        },
        {
          "duration": 0,
          "durationTicks": 0,
          "midi": 42,
          "name": "F#2",
          "ticks": 153600,
          "time": 252.63136000000003,
          "velocity": 0.5354330708661418
        },
        {
          "duration": 0,
          "durationTicks": 0,
          "midi": 42,
          "name": "F#2",
          "ticks": 153840,
          "time": 253.02609650000002,
          "velocity": 0.47244094488188976
        },
        {
          "duration": 0,
          "durationTicks": 0,
          "midi": 42,
          "name": "F#2",
          "ticks": 154080,
          "time": 253.42083300000002,
          "velocity": 0.5354330708661418
        },
        {
          "duration": 0,
          "durationTicks": 0,
          "midi": 41,
          "name": "F2",
          "ticks": 154080,
          "time": 253.42083300000002,
          "velocity": 0.5511811023622047
        },
        {
          "duration": 0,
          "durationTicks": 0,
          "midi": 38,
          "name": "D2",
          "ticks": 154080,
          "time": 253.42083300000002,
          "velocity": 0.5039370078740157
        },
        {
          "duration": 0,
          "durationTicks": 0,
          "midi": 42,
          "name": "F#2",
          "ticks": 154320,
          "time": 253.81556950000004,
          "velocity": 0.5354330708661418
        },
        {
          "duration": 0,
          "durationTicks": 0,
          "midi": 49,
          "name": "C#3",
          "ticks": 154560,
          "time": 254.21030600000003,
          "velocity": 0.3464566929133858
        },
        {
          "duration": 0,
          "durationTicks": 0,
          "midi": 36,
          "name": "C2",
          "ticks": 154560,
          "time": 254.21030600000003,
          "velocity": 0.5984251968503937
        },
        {
          "duration": 0,
          "durationTicks": 0,
          "midi": 51,
          "name": "D#3",
          "ticks": 154800,
          "time": 254.60504250000002,
          "velocity": 0.5039370078740157
        },
        {
          "duration": 0,
          "durationTicks": 0,
          "midi": 51,
          "name": "D#3",
          "ticks": 155040,
          "time": 254.99977900000002,
          "velocity": 0.5039370078740157
        },
        {
          "duration": 0,
          "durationTicks": 0,
          "midi": 38,
          "name": "D2",
          "ticks": 155040,
          "time": 254.99977900000002,
          "velocity": 0.5511811023622047
        },
        {
          "duration": 0,
          "durationTicks": 0,
          "midi": 51,
          "name": "D#3",
          "ticks": 155280,
          "time": 255.39451550000004,
          "velocity": 0.5039370078740157
        }
      ]
    },
    {
      "channel": 0,
      "controlChanges": {},
      "pitchBends": [],
      "instrument": {
        "family": "piano",
        "name": "acoustic grand piano",
        "number": 0
      },
      "name": "",
      "notes": []
    }
  ]
}
